<?xml version="1.0" encoding="UTF-8" standalone="no"?>
<!DOCTYPE svg PUBLIC "-//W3C//DTD SVG 1.1//EN"
 "http://www.w3.org/Graphics/SVG/1.1/DTD/svg11.dtd">
<!-- Generated by graphviz version 2.43.0 (0)
 -->
<!-- Title: include/Animation.h Pages: 1 -->
<svg width="400pt" height="196pt"
 viewBox="0.00 0.00 399.50 196.00" xmlns="http://www.w3.org/2000/svg" xmlns:xlink="http://www.w3.org/1999/xlink">
<g id="graph0" class="graph" transform="scale(1 1) rotate(0) translate(4 192)">
<title>include/Animation.h</title>
<polygon fill="white" stroke="transparent" points="-4,4 -4,-192 395.5,-192 395.5,4 -4,4"/>
<!-- Node1 -->
<g id="node1" class="node">
<title>Node1</title>
<g id="a_node1"><a xlink:title=" ">
<polygon fill="#bfbfbf" stroke="black" points="129.5,-168.5 129.5,-187.5 243.5,-187.5 243.5,-168.5 129.5,-168.5"/>
<text text-anchor="middle" x="186.5" y="-175.5" font-family="Helvetica,sans-Serif" font-size="10.00">include/Animation.h</text>
</a>
</g>
</g>
<!-- Node2 -->
<g id="node2" class="node">
<title>Node2</title>
<g id="a_node2"><a xlink:href="Ball_8h.html" target="_top" xlink:title=" ">
<polygon fill="white" stroke="black" points="38,-112.5 38,-131.5 121,-131.5 121,-112.5 38,-112.5"/>
<text text-anchor="middle" x="79.5" y="-119.5" font-family="Helvetica,sans-Serif" font-size="10.00">include/Ball.h</text>
</a>
</g>
</g>
<!-- Node1&#45;&gt;Node2 -->
<g id="edge1" class="edge">
<title>Node1&#45;&gt;Node2</title>
<path fill="none" stroke="midnightblue" d="M160.2,-163.73C140.39,-153.73 113.79,-140.31 96.65,-131.65"/>
<polygon fill="midnightblue" stroke="midnightblue" points="158.8,-166.94 169.31,-168.32 161.96,-160.69 158.8,-166.94"/>
</g>
<!-- Node3 -->
<g id="node3" class="node">
<title>Node3</title>
<g id="a_node3"><a xlink:href="Simulation_8h.html" target="_top" xlink:title=" ">
<polygon fill="white" stroke="black" points="91.5,-56.5 91.5,-75.5 207.5,-75.5 207.5,-56.5 91.5,-56.5"/>
<text text-anchor="middle" x="149.5" y="-63.5" font-family="Helvetica,sans-Serif" font-size="10.00">include/Simulation.h</text>
</a>
</g>
</g>
<!-- Node1&#45;&gt;Node3 -->
<g id="edge9" class="edge">
<title>Node1&#45;&gt;Node3</title>
<path fill="none" stroke="midnightblue" d="M178.91,-159.17C175.54,-150.97 171.63,-141.06 168.5,-132 161.67,-112.22 155.15,-88.52 151.81,-75.92"/>
<polygon fill="midnightblue" stroke="midnightblue" points="175.71,-160.59 182.8,-168.47 182.17,-157.89 175.71,-160.59"/>
</g>
<!-- Node7 -->
<g id="node7" class="node">
<title>Node7</title>
<g id="a_node7"><a xlink:href="Robot_8h.html" target="_top" xlink:title=" ">
<polygon fill="white" stroke="black" points="177.5,-112.5 177.5,-131.5 269.5,-131.5 269.5,-112.5 177.5,-112.5"/>
<text text-anchor="middle" x="223.5" y="-119.5" font-family="Helvetica,sans-Serif" font-size="10.00">include/Robot.h</text>
</a>
</g>
</g>
<!-- Node1&#45;&gt;Node7 -->
<g id="edge6" class="edge">
<title>Node1&#45;&gt;Node7</title>
<path fill="none" stroke="midnightblue" d="M198.45,-159.57C204.81,-150.27 212.37,-139.25 217.5,-131.75"/>
<polygon fill="midnightblue" stroke="midnightblue" points="195.37,-157.86 192.61,-168.08 201.15,-161.81 195.37,-157.86"/>
</g>
<!-- Node9 -->
<g id="node9" class="node">
<title>Node9</title>
<g id="a_node9"><a xlink:href="Animation_8cpp.html" target="_top" xlink:title=" ">
<polygon fill="white" stroke="black" points="287.5,-112.5 287.5,-131.5 391.5,-131.5 391.5,-112.5 287.5,-112.5"/>
<text text-anchor="middle" x="339.5" y="-119.5" font-family="Helvetica,sans-Serif" font-size="10.00">src/Animation.cpp</text>
</a>
</g>
</g>
<!-- Node1&#45;&gt;Node9 -->
<g id="edge10" class="edge">
<title>Node1&#45;&gt;Node9</title>
<path fill="none" stroke="midnightblue" d="M220.39,-165.04C249.18,-154.88 289.79,-140.55 315.37,-131.52"/>
<polygon fill="midnightblue" stroke="midnightblue" points="219.01,-161.81 210.74,-168.44 221.34,-168.42 219.01,-161.81"/>
</g>
<!-- Node2&#45;&gt;Node3 -->
<g id="edge2" class="edge">
<title>Node2&#45;&gt;Node3</title>
<path fill="none" stroke="midnightblue" d="M98.81,-106.1C111.41,-96.38 127.43,-84.03 138.05,-75.83"/>
<polygon fill="midnightblue" stroke="midnightblue" points="96.53,-103.44 90.75,-112.32 100.8,-108.99 96.53,-103.44"/>
</g>
<!-- Node6 -->
<g id="node6" class="node">
<title>Node6</title>
<g id="a_node6"><a xlink:href="Ball_8cpp.html" target="_top" xlink:title=" ">
<polygon fill="white" stroke="black" points="0,-56.5 0,-75.5 73,-75.5 73,-56.5 0,-56.5"/>
<text text-anchor="middle" x="36.5" y="-63.5" font-family="Helvetica,sans-Serif" font-size="10.00">src/Ball.cpp</text>
</a>
</g>
</g>
<!-- Node2&#45;&gt;Node6 -->
<g id="edge5" class="edge">
<title>Node2&#45;&gt;Node6</title>
<path fill="none" stroke="midnightblue" d="M66.08,-104.14C58.59,-94.74 49.56,-83.4 43.47,-75.75"/>
<polygon fill="midnightblue" stroke="midnightblue" points="63.43,-106.44 72.4,-112.08 68.91,-102.08 63.43,-106.44"/>
</g>
<!-- Node4 -->
<g id="node4" class="node">
<title>Node4</title>
<g id="a_node4"><a xlink:href="main_8cpp.html" target="_top" xlink:title=" ">
<polygon fill="white" stroke="black" points="67.5,-0.5 67.5,-19.5 129.5,-19.5 129.5,-0.5 67.5,-0.5"/>
<text text-anchor="middle" x="98.5" y="-7.5" font-family="Helvetica,sans-Serif" font-size="10.00">main.cpp</text>
</a>
</g>
</g>
<!-- Node3&#45;&gt;Node4 -->
<g id="edge3" class="edge">
<title>Node3&#45;&gt;Node4</title>
<path fill="none" stroke="midnightblue" d="M134.12,-48.72C125.13,-39.2 114.14,-27.56 106.76,-19.75"/>
<polygon fill="midnightblue" stroke="midnightblue" points="131.67,-51.22 141.08,-56.08 136.76,-46.41 131.67,-51.22"/>
</g>
<!-- Node5 -->
<g id="node5" class="node">
<title>Node5</title>
<g id="a_node5"><a xlink:href="Simulation_8cpp.html" target="_top" xlink:title=" ">
<polygon fill="white" stroke="black" points="148,-0.5 148,-19.5 255,-19.5 255,-0.5 148,-0.5"/>
<text text-anchor="middle" x="201.5" y="-7.5" font-family="Helvetica,sans-Serif" font-size="10.00">src/Simulation.cpp</text>
</a>
</g>
</g>
<!-- Node3&#45;&gt;Node5 -->
<g id="edge4" class="edge">
<title>Node3&#45;&gt;Node5</title>
<path fill="none" stroke="midnightblue" d="M165.18,-48.72C174.34,-39.2 185.55,-27.56 193.07,-19.75"/>
<polygon fill="midnightblue" stroke="midnightblue" points="162.5,-46.45 158.09,-56.08 167.54,-51.31 162.5,-46.45"/>
</g>
<!-- Node7&#45;&gt;Node3 -->
<g id="edge7" class="edge">
<title>Node7&#45;&gt;Node3</title>
<path fill="none" stroke="midnightblue" d="M203.47,-106.38C190.09,-96.62 172.94,-84.11 161.61,-75.83"/>
<polygon fill="midnightblue" stroke="midnightblue" points="201.47,-109.26 211.61,-112.32 205.6,-103.6 201.47,-109.26"/>
</g>
<!-- Node8 -->
<g id="node8" class="node">
<title>Node8</title>
<g id="a_node8"><a xlink:href="Robot_8cpp.html" target="_top" xlink:title=" ">
<polygon fill="white" stroke="black" points="226,-56.5 226,-75.5 309,-75.5 309,-56.5 226,-56.5"/>
<text text-anchor="middle" x="267.5" y="-63.5" font-family="Helvetica,sans-Serif" font-size="10.00">src/Robot.cpp</text>
</a>
</g>
</g>
<!-- Node7&#45;&gt;Node8 -->
<g id="edge8" class="edge">
<title>Node7&#45;&gt;Node8</title>
<path fill="none" stroke="midnightblue" d="M237.23,-104.14C244.9,-94.74 254.13,-83.4 260.37,-75.75"/>
<polygon fill="midnightblue" stroke="midnightblue" points="234.37,-102.12 230.77,-112.08 239.8,-106.54 234.37,-102.12"/>
</g>
</g>
</svg>
