<?xml version="1.0" encoding="UTF-8" standalone="no"?>
<!DOCTYPE svg PUBLIC "-//W3C//DTD SVG 1.1//EN"
 "http://www.w3.org/Graphics/SVG/1.1/DTD/svg11.dtd">
<!-- Generated by graphviz version 2.43.0 (0)
 -->
<!-- Title: include/Animation.h Pages: 1 -->
<svg width="400pt" height="252pt"
 viewBox="0.00 0.00 399.50 252.00" xmlns="http://www.w3.org/2000/svg" xmlns:xlink="http://www.w3.org/1999/xlink">
<g id="graph0" class="graph" transform="scale(1 1) rotate(0) translate(4 248)">
<title>include/Animation.h</title>
<polygon fill="white" stroke="transparent" points="-4,4 -4,-248 395.5,-248 395.5,4 -4,4"/>
<!-- Node1 -->
<g id="node1" class="node">
<title>Node1</title>
<g id="a_node1"><a xlink:title=" ">
<polygon fill="#bfbfbf" stroke="black" points="129.5,-224.5 129.5,-243.5 243.5,-243.5 243.5,-224.5 129.5,-224.5"/>
<text text-anchor="middle" x="186.5" y="-231.5" font-family="Helvetica,sans-Serif" font-size="10.00">include/Animation.h</text>
</a>
</g>
</g>
<!-- Node2 -->
<g id="node2" class="node">
<title>Node2</title>
<g id="a_node2"><a xlink:href="Ball_8h.html" target="_top" xlink:title=" ">
<polygon fill="white" stroke="black" points="38,-168.5 38,-187.5 121,-187.5 121,-168.5 38,-168.5"/>
<text text-anchor="middle" x="79.5" y="-175.5" font-family="Helvetica,sans-Serif" font-size="10.00">include/Ball.h</text>
</a>
</g>
</g>
<!-- Node1&#45;&gt;Node2 -->
<g id="edge1" class="edge">
<title>Node1&#45;&gt;Node2</title>
<path fill="none" stroke="midnightblue" d="M160.2,-219.73C140.39,-209.73 113.79,-196.31 96.65,-187.65"/>
<polygon fill="midnightblue" stroke="midnightblue" points="158.8,-222.94 169.31,-224.32 161.96,-216.69 158.8,-222.94"/>
</g>
<!-- Node3 -->
<g id="node3" class="node">
<title>Node3</title>
<g id="a_node3"><a xlink:href="Simulation_8h.html" target="_top" xlink:title=" ">
<polygon fill="white" stroke="black" points="91.5,-112.5 91.5,-131.5 207.5,-131.5 207.5,-112.5 91.5,-112.5"/>
<text text-anchor="middle" x="149.5" y="-119.5" font-family="Helvetica,sans-Serif" font-size="10.00">include/Simulation.h</text>
</a>
</g>
</g>
<!-- Node1&#45;&gt;Node3 -->
<g id="edge12" class="edge">
<title>Node1&#45;&gt;Node3</title>
<path fill="none" stroke="midnightblue" d="M178.91,-215.17C175.54,-206.97 171.63,-197.06 168.5,-188 161.67,-168.22 155.15,-144.52 151.81,-131.92"/>
<polygon fill="midnightblue" stroke="midnightblue" points="175.71,-216.59 182.8,-224.47 182.17,-213.89 175.71,-216.59"/>
</g>
<!-- Node9 -->
<g id="node9" class="node">
<title>Node9</title>
<g id="a_node9"><a xlink:href="Robot_8h.html" target="_top" xlink:title=" ">
<polygon fill="white" stroke="black" points="177.5,-168.5 177.5,-187.5 269.5,-187.5 269.5,-168.5 177.5,-168.5"/>
<text text-anchor="middle" x="223.5" y="-175.5" font-family="Helvetica,sans-Serif" font-size="10.00">include/Robot.h</text>
</a>
</g>
</g>
<!-- Node1&#45;&gt;Node9 -->
<g id="edge9" class="edge">
<title>Node1&#45;&gt;Node9</title>
<path fill="none" stroke="midnightblue" d="M198.45,-215.57C204.81,-206.27 212.37,-195.25 217.5,-187.75"/>
<polygon fill="midnightblue" stroke="midnightblue" points="195.37,-213.86 192.61,-224.08 201.15,-217.81 195.37,-213.86"/>
</g>
<!-- Node11 -->
<g id="node11" class="node">
<title>Node11</title>
<g id="a_node11"><a xlink:href="Animation_8cpp.html" target="_top" xlink:title=" ">
<polygon fill="white" stroke="black" points="287.5,-168.5 287.5,-187.5 391.5,-187.5 391.5,-168.5 287.5,-168.5"/>
<text text-anchor="middle" x="339.5" y="-175.5" font-family="Helvetica,sans-Serif" font-size="10.00">src/Animation.cpp</text>
</a>
</g>
</g>
<!-- Node1&#45;&gt;Node11 -->
<g id="edge13" class="edge">
<title>Node1&#45;&gt;Node11</title>
<path fill="none" stroke="midnightblue" d="M220.39,-221.04C249.18,-210.88 289.79,-196.55 315.37,-187.52"/>
<polygon fill="midnightblue" stroke="midnightblue" points="219.01,-217.81 210.74,-224.44 221.34,-224.42 219.01,-217.81"/>
</g>
<!-- Node2&#45;&gt;Node3 -->
<g id="edge2" class="edge">
<title>Node2&#45;&gt;Node3</title>
<path fill="none" stroke="midnightblue" d="M98.81,-162.1C111.41,-152.38 127.43,-140.03 138.05,-131.83"/>
<polygon fill="midnightblue" stroke="midnightblue" points="96.53,-159.44 90.75,-168.32 100.8,-164.99 96.53,-159.44"/>
</g>
<!-- Node8 -->
<g id="node8" class="node">
<title>Node8</title>
<g id="a_node8"><a xlink:href="Ball_8cpp.html" target="_top" xlink:title=" ">
<polygon fill="white" stroke="black" points="0,-112.5 0,-131.5 73,-131.5 73,-112.5 0,-112.5"/>
<text text-anchor="middle" x="36.5" y="-119.5" font-family="Helvetica,sans-Serif" font-size="10.00">src/Ball.cpp</text>
</a>
</g>
</g>
<!-- Node2&#45;&gt;Node8 -->
<g id="edge8" class="edge">
<title>Node2&#45;&gt;Node8</title>
<path fill="none" stroke="midnightblue" d="M66.08,-160.14C58.59,-150.74 49.56,-139.4 43.47,-131.75"/>
<polygon fill="midnightblue" stroke="midnightblue" points="63.43,-162.44 72.4,-168.08 68.91,-158.08 63.43,-162.44"/>
</g>
<!-- Node4 -->
<g id="node4" class="node">
<title>Node4</title>
<g id="a_node4"><a xlink:href="Scene_8h.html" target="_top" xlink:title=" ">
<polygon fill="white" stroke="black" points="103,-56.5 103,-75.5 196,-75.5 196,-56.5 103,-56.5"/>
<text text-anchor="middle" x="149.5" y="-63.5" font-family="Helvetica,sans-Serif" font-size="10.00">include/Scene.h</text>
</a>
</g>
</g>
<!-- Node3&#45;&gt;Node4 -->
<g id="edge3" class="edge">
<title>Node3&#45;&gt;Node4</title>
<path fill="none" stroke="midnightblue" d="M143.03,-102.1C142.4,-93.14 142.84,-82.86 144.37,-75.75"/>
<polygon fill="midnightblue" stroke="midnightblue" points="139.57,-102.62 144.33,-112.08 146.51,-101.71 139.57,-102.62"/>
</g>
<!-- Node7 -->
<g id="node7" class="node">
<title>Node7</title>
<g id="a_node7"><a xlink:href="Simulation_8cpp.html" target="_top" xlink:title=" ">
<polygon fill="white" stroke="black" points="214,-56.5 214,-75.5 321,-75.5 321,-56.5 214,-56.5"/>
<text text-anchor="middle" x="267.5" y="-63.5" font-family="Helvetica,sans-Serif" font-size="10.00">src/Simulation.cpp</text>
</a>
</g>
</g>
<!-- Node3&#45;&gt;Node7 -->
<g id="edge7" class="edge">
<title>Node3&#45;&gt;Node7</title>
<path fill="none" stroke="midnightblue" d="M177.4,-108.23C199.47,-98.13 229.68,-84.31 248.89,-75.52"/>
<polygon fill="midnightblue" stroke="midnightblue" points="175.83,-105.1 168.2,-112.44 178.75,-111.46 175.83,-105.1"/>
</g>
<!-- Node4&#45;&gt;Node3 -->
<g id="edge4" class="edge">
<title>Node4&#45;&gt;Node3</title>
<path fill="none" stroke="midnightblue" d="M155.96,-85.69C156.61,-94.64 156.18,-104.93 154.67,-112.08"/>
<polygon fill="midnightblue" stroke="midnightblue" points="159.42,-85.2 154.63,-75.75 152.48,-86.13 159.42,-85.2"/>
</g>
<!-- Node5 -->
<g id="node5" class="node">
<title>Node5</title>
<g id="a_node5"><a xlink:href="main_8cpp.html" target="_top" xlink:title=" ">
<polygon fill="white" stroke="black" points="73.5,-0.5 73.5,-19.5 135.5,-19.5 135.5,-0.5 73.5,-0.5"/>
<text text-anchor="middle" x="104.5" y="-7.5" font-family="Helvetica,sans-Serif" font-size="10.00">main.cpp</text>
</a>
</g>
</g>
<!-- Node4&#45;&gt;Node5 -->
<g id="edge5" class="edge">
<title>Node4&#45;&gt;Node5</title>
<path fill="none" stroke="midnightblue" d="M135.45,-48.14C127.61,-38.74 118.17,-27.4 111.79,-19.75"/>
<polygon fill="midnightblue" stroke="midnightblue" points="132.98,-50.64 142.07,-56.08 138.36,-46.16 132.98,-50.64"/>
</g>
<!-- Node6 -->
<g id="node6" class="node">
<title>Node6</title>
<g id="a_node6"><a xlink:href="Scene_8cpp.html" target="_top" xlink:title=" ">
<polygon fill="white" stroke="black" points="154,-0.5 154,-19.5 237,-19.5 237,-0.5 154,-0.5"/>
<text text-anchor="middle" x="195.5" y="-7.5" font-family="Helvetica,sans-Serif" font-size="10.00">src/Scene.cpp</text>
</a>
</g>
</g>
<!-- Node4&#45;&gt;Node6 -->
<g id="edge6" class="edge">
<title>Node4&#45;&gt;Node6</title>
<path fill="none" stroke="midnightblue" d="M163.61,-48.43C171.68,-38.97 181.46,-27.48 188.05,-19.75"/>
<polygon fill="midnightblue" stroke="midnightblue" points="160.92,-46.2 157.1,-56.08 166.25,-50.74 160.92,-46.2"/>
</g>
<!-- Node9&#45;&gt;Node3 -->
<g id="edge10" class="edge">
<title>Node9&#45;&gt;Node3</title>
<path fill="none" stroke="midnightblue" d="M203.47,-162.38C190.09,-152.62 172.94,-140.11 161.61,-131.83"/>
<polygon fill="midnightblue" stroke="midnightblue" points="201.47,-165.26 211.61,-168.32 205.6,-159.6 201.47,-165.26"/>
</g>
<!-- Node10 -->
<g id="node10" class="node">
<title>Node10</title>
<g id="a_node10"><a xlink:href="Robot_8cpp.html" target="_top" xlink:title=" ">
<polygon fill="white" stroke="black" points="226,-112.5 226,-131.5 309,-131.5 309,-112.5 226,-112.5"/>
<text text-anchor="middle" x="267.5" y="-119.5" font-family="Helvetica,sans-Serif" font-size="10.00">src/Robot.cpp</text>
</a>
</g>
</g>
<!-- Node9&#45;&gt;Node10 -->
<g id="edge11" class="edge">
<title>Node9&#45;&gt;Node10</title>
<path fill="none" stroke="midnightblue" d="M237.23,-160.14C244.9,-150.74 254.13,-139.4 260.37,-131.75"/>
<polygon fill="midnightblue" stroke="midnightblue" points="234.37,-158.12 230.77,-168.08 239.8,-162.54 234.37,-158.12"/>
</g>
</g>
</svg>
