<?xml version="1.0" encoding="UTF-8" standalone="no"?>
<!DOCTYPE svg PUBLIC "-//W3C//DTD SVG 1.1//EN"
 "http://www.w3.org/Graphics/SVG/1.1/DTD/svg11.dtd">
<!-- Generated by graphviz version 2.43.0 (0)
 -->
<!-- Title: include/Animation.h Pages: 1 -->
<svg width="526pt" height="196pt"
 viewBox="0.00 0.00 526.00 196.00" xmlns="http://www.w3.org/2000/svg" xmlns:xlink="http://www.w3.org/1999/xlink">
<g id="graph0" class="graph" transform="scale(1 1) rotate(0) translate(4 192)">
<title>include/Animation.h</title>
<polygon fill="white" stroke="transparent" points="-4,4 -4,-192 522,-192 522,4 -4,4"/>
<!-- Node1 -->
<g id="node1" class="node">
<title>Node1</title>
<g id="a_node1"><a xlink:title=" ">
<polygon fill="#bfbfbf" stroke="black" points="191,-168.5 191,-187.5 305,-187.5 305,-168.5 191,-168.5"/>
<text text-anchor="middle" x="248" y="-175.5" font-family="Helvetica,sans-Serif" font-size="10.00">include/Animation.h</text>
</a>
</g>
</g>
<!-- Node2 -->
<g id="node2" class="node">
<title>Node2</title>
<g id="a_node2"><a xlink:href="Ball_8h.html" target="_top" xlink:title=" ">
<polygon fill="white" stroke="black" points="312.5,-112.5 312.5,-131.5 395.5,-131.5 395.5,-112.5 312.5,-112.5"/>
<text text-anchor="middle" x="354" y="-119.5" font-family="Helvetica,sans-Serif" font-size="10.00">include/Ball.h</text>
</a>
</g>
</g>
<!-- Node1&#45;&gt;Node2 -->
<g id="edge1" class="edge">
<title>Node1&#45;&gt;Node2</title>
<path fill="none" stroke="midnightblue" d="M274.06,-163.73C293.68,-153.73 320.03,-140.31 337.01,-131.65"/>
<polygon fill="midnightblue" stroke="midnightblue" points="272.35,-160.67 265.03,-168.32 275.53,-166.9 272.35,-160.67"/>
</g>
<!-- Node3 -->
<g id="node3" class="node">
<title>Node3</title>
<g id="a_node3"><a xlink:href="Simulation_8h.html" target="_top" xlink:title=" ">
<polygon fill="white" stroke="black" points="116,-56.5 116,-75.5 232,-75.5 232,-56.5 116,-56.5"/>
<text text-anchor="middle" x="174" y="-63.5" font-family="Helvetica,sans-Serif" font-size="10.00">include/Simulation.h</text>
</a>
</g>
</g>
<!-- Node1&#45;&gt;Node3 -->
<g id="edge12" class="edge">
<title>Node1&#45;&gt;Node3</title>
<path fill="none" stroke="midnightblue" d="M224.83,-162.83C213.75,-154.99 201.17,-144.34 193,-132 181.19,-114.16 176.57,-88.83 174.88,-75.68"/>
<polygon fill="midnightblue" stroke="midnightblue" points="223.01,-165.83 233.27,-168.5 226.91,-160.02 223.01,-165.83"/>
</g>
<!-- Node7 -->
<g id="node7" class="node">
<title>Node7</title>
<g id="a_node7"><a xlink:href="Message_8h.html" target="_top" xlink:title=" ">
<polygon fill="white" stroke="black" points="38.5,-112.5 38.5,-131.5 145.5,-131.5 145.5,-112.5 38.5,-112.5"/>
<text text-anchor="middle" x="92" y="-119.5" font-family="Helvetica,sans-Serif" font-size="10.00">include/Message.h</text>
</a>
</g>
</g>
<!-- Node1&#45;&gt;Node7 -->
<g id="edge6" class="edge">
<title>Node1&#45;&gt;Node7</title>
<path fill="none" stroke="midnightblue" d="M213.83,-165.17C184.46,-155 142.8,-140.59 116.6,-131.52"/>
<polygon fill="midnightblue" stroke="midnightblue" points="212.69,-168.48 223.28,-168.44 214.98,-161.86 212.69,-168.48"/>
</g>
<!-- Node9 -->
<g id="node9" class="node">
<title>Node9</title>
<g id="a_node9"><a xlink:href="Robot_8h.html" target="_top" xlink:title=" ">
<polygon fill="white" stroke="black" points="202,-112.5 202,-131.5 294,-131.5 294,-112.5 202,-112.5"/>
<text text-anchor="middle" x="248" y="-119.5" font-family="Helvetica,sans-Serif" font-size="10.00">include/Robot.h</text>
</a>
</g>
</g>
<!-- Node1&#45;&gt;Node9 -->
<g id="edge9" class="edge">
<title>Node1&#45;&gt;Node9</title>
<path fill="none" stroke="midnightblue" d="M248,-157.8C248,-148.91 248,-138.78 248,-131.75"/>
<polygon fill="midnightblue" stroke="midnightblue" points="244.5,-158.08 248,-168.08 251.5,-158.08 244.5,-158.08"/>
</g>
<!-- Node11 -->
<g id="node11" class="node">
<title>Node11</title>
<g id="a_node11"><a xlink:href="Animation_8cpp.html" target="_top" xlink:title=" ">
<polygon fill="white" stroke="black" points="414,-112.5 414,-131.5 518,-131.5 518,-112.5 414,-112.5"/>
<text text-anchor="middle" x="466" y="-119.5" font-family="Helvetica,sans-Serif" font-size="10.00">src/Animation.cpp</text>
</a>
</g>
</g>
<!-- Node1&#45;&gt;Node11 -->
<g id="edge13" class="edge">
<title>Node1&#45;&gt;Node11</title>
<path fill="none" stroke="midnightblue" d="M292.31,-166.02C333.49,-155.82 393.97,-140.84 431.62,-131.52"/>
<polygon fill="midnightblue" stroke="midnightblue" points="291.41,-162.64 282.54,-168.44 293.09,-169.44 291.41,-162.64"/>
</g>
<!-- Node2&#45;&gt;Node3 -->
<g id="edge2" class="edge">
<title>Node2&#45;&gt;Node3</title>
<path fill="none" stroke="midnightblue" d="M315.89,-109.57C281.94,-99.38 233.01,-84.7 202.39,-75.52"/>
<polygon fill="midnightblue" stroke="midnightblue" points="314.89,-112.92 325.48,-112.44 316.91,-106.22 314.89,-112.92"/>
</g>
<!-- Node6 -->
<g id="node6" class="node">
<title>Node6</title>
<g id="a_node6"><a xlink:href="Ball_8cpp.html" target="_top" xlink:title=" ">
<polygon fill="white" stroke="black" points="351.5,-56.5 351.5,-75.5 424.5,-75.5 424.5,-56.5 351.5,-56.5"/>
<text text-anchor="middle" x="388" y="-63.5" font-family="Helvetica,sans-Serif" font-size="10.00">src/Ball.cpp</text>
</a>
</g>
</g>
<!-- Node2&#45;&gt;Node6 -->
<g id="edge5" class="edge">
<title>Node2&#45;&gt;Node6</title>
<path fill="none" stroke="midnightblue" d="M364.98,-103.57C370.83,-94.27 377.77,-83.25 382.49,-75.75"/>
<polygon fill="midnightblue" stroke="midnightblue" points="361.98,-101.76 359.61,-112.08 367.9,-105.49 361.98,-101.76"/>
</g>
<!-- Node4 -->
<g id="node4" class="node">
<title>Node4</title>
<g id="a_node4"><a xlink:href="main_8cpp.html" target="_top" xlink:title=" ">
<polygon fill="white" stroke="black" points="92,-0.5 92,-19.5 154,-19.5 154,-0.5 92,-0.5"/>
<text text-anchor="middle" x="123" y="-7.5" font-family="Helvetica,sans-Serif" font-size="10.00">main.cpp</text>
</a>
</g>
</g>
<!-- Node3&#45;&gt;Node4 -->
<g id="edge3" class="edge">
<title>Node3&#45;&gt;Node4</title>
<path fill="none" stroke="midnightblue" d="M158.62,-48.72C149.63,-39.2 138.64,-27.56 131.26,-19.75"/>
<polygon fill="midnightblue" stroke="midnightblue" points="156.17,-51.22 165.58,-56.08 161.26,-46.41 156.17,-51.22"/>
</g>
<!-- Node5 -->
<g id="node5" class="node">
<title>Node5</title>
<g id="a_node5"><a xlink:href="Simulation_8cpp.html" target="_top" xlink:title=" ">
<polygon fill="white" stroke="black" points="172.5,-0.5 172.5,-19.5 279.5,-19.5 279.5,-0.5 172.5,-0.5"/>
<text text-anchor="middle" x="226" y="-7.5" font-family="Helvetica,sans-Serif" font-size="10.00">src/Simulation.cpp</text>
</a>
</g>
</g>
<!-- Node3&#45;&gt;Node5 -->
<g id="edge4" class="edge">
<title>Node3&#45;&gt;Node5</title>
<path fill="none" stroke="midnightblue" d="M189.68,-48.72C198.84,-39.2 210.05,-27.56 217.57,-19.75"/>
<polygon fill="midnightblue" stroke="midnightblue" points="187,-46.45 182.59,-56.08 192.04,-51.31 187,-46.45"/>
</g>
<!-- Node7&#45;&gt;Node3 -->
<g id="edge7" class="edge">
<title>Node7&#45;&gt;Node3</title>
<path fill="none" stroke="midnightblue" d="M113.83,-106.62C128.81,-96.76 148.2,-83.99 160.86,-75.65"/>
<polygon fill="midnightblue" stroke="midnightblue" points="111.6,-103.9 105.17,-112.32 115.45,-109.75 111.6,-103.9"/>
</g>
<!-- Node8 -->
<g id="node8" class="node">
<title>Node8</title>
<g id="a_node8"><a xlink:href="Message_8cpp.html" target="_top" xlink:title=" ">
<polygon fill="white" stroke="black" points="0,-56.5 0,-75.5 98,-75.5 98,-56.5 0,-56.5"/>
<text text-anchor="middle" x="49" y="-63.5" font-family="Helvetica,sans-Serif" font-size="10.00">src/Message.cpp</text>
</a>
</g>
</g>
<!-- Node7&#45;&gt;Node8 -->
<g id="edge8" class="edge">
<title>Node7&#45;&gt;Node8</title>
<path fill="none" stroke="midnightblue" d="M78.58,-104.14C71.09,-94.74 62.06,-83.4 55.97,-75.75"/>
<polygon fill="midnightblue" stroke="midnightblue" points="75.93,-106.44 84.9,-112.08 81.41,-102.08 75.93,-106.44"/>
</g>
<!-- Node9&#45;&gt;Node3 -->
<g id="edge10" class="edge">
<title>Node9&#45;&gt;Node3</title>
<path fill="none" stroke="midnightblue" d="M227.97,-106.38C214.59,-96.62 197.44,-84.11 186.11,-75.83"/>
<polygon fill="midnightblue" stroke="midnightblue" points="225.97,-109.26 236.11,-112.32 230.1,-103.6 225.97,-109.26"/>
</g>
<!-- Node10 -->
<g id="node10" class="node">
<title>Node10</title>
<g id="a_node10"><a xlink:href="Robot_8cpp.html" target="_top" xlink:title=" ">
<polygon fill="white" stroke="black" points="250.5,-56.5 250.5,-75.5 333.5,-75.5 333.5,-56.5 250.5,-56.5"/>
<text text-anchor="middle" x="292" y="-63.5" font-family="Helvetica,sans-Serif" font-size="10.00">src/Robot.cpp</text>
</a>
</g>
</g>
<!-- Node9&#45;&gt;Node10 -->
<g id="edge11" class="edge">
<title>Node9&#45;&gt;Node10</title>
<path fill="none" stroke="midnightblue" d="M261.73,-104.14C269.4,-94.74 278.63,-83.4 284.87,-75.75"/>
<polygon fill="midnightblue" stroke="midnightblue" points="258.87,-102.12 255.27,-112.08 264.3,-106.54 258.87,-102.12"/>
</g>
</g>
</svg>
