<?xml version="1.0" encoding="UTF-8" standalone="no"?>
<!DOCTYPE svg PUBLIC "-//W3C//DTD SVG 1.1//EN"
 "http://www.w3.org/Graphics/SVG/1.1/DTD/svg11.dtd">
<!-- Generated by graphviz version 2.43.0 (0)
 -->
<!-- Title: src/Animation.cpp Pages: 1 -->
<svg width="174pt" height="196pt"
 viewBox="0.00 0.00 173.61 196.00" xmlns="http://www.w3.org/2000/svg" xmlns:xlink="http://www.w3.org/1999/xlink">
<g id="graph0" class="graph" transform="scale(1 1) rotate(0) translate(4 192)">
<title>src/Animation.cpp</title>
<polygon fill="white" stroke="transparent" points="-4,4 -4,-192 169.61,-192 169.61,4 -4,4"/>
<!-- Node1 -->
<g id="node1" class="node">
<title>Node1</title>
<g id="a_node1"><a xlink:title=" ">
<polygon fill="#bfbfbf" stroke="black" points="19.11,-168.5 19.11,-187.5 123.11,-187.5 123.11,-168.5 19.11,-168.5"/>
<text text-anchor="middle" x="71.11" y="-175.5" font-family="Helvetica,sans-Serif" font-size="10.00">src/Animation.cpp</text>
</a>
</g>
</g>
<!-- Node2 -->
<g id="node2" class="node">
<title>Node2</title>
<g id="a_node2"><a xlink:href="Animation_8h.html" target="_top" xlink:title=" ">
<polygon fill="white" stroke="black" points="9.61,-112.5 9.61,-131.5 132.61,-131.5 132.61,-112.5 9.61,-112.5"/>
<text text-anchor="middle" x="71.11" y="-119.5" font-family="Helvetica,sans-Serif" font-size="10.00">../include/Animation.h</text>
</a>
</g>
</g>
<!-- Node1&#45;&gt;Node2 -->
<g id="edge1" class="edge">
<title>Node1&#45;&gt;Node2</title>
<path fill="none" stroke="midnightblue" d="M71.11,-168.08C71.11,-161.01 71.11,-150.86 71.11,-141.99"/>
<polygon fill="midnightblue" stroke="midnightblue" points="74.61,-141.75 71.11,-131.75 67.61,-141.75 74.61,-141.75"/>
</g>
<!-- Node3 -->
<g id="node3" class="node">
<title>Node3</title>
<g id="a_node3"><a xlink:title=" ">
<polygon fill="white" stroke="#bfbfbf" points="3.11,-0.5 3.11,-19.5 63.11,-19.5 63.11,-0.5 3.11,-0.5"/>
<text text-anchor="middle" x="33.11" y="-7.5" font-family="Helvetica,sans-Serif" font-size="10.00">iostream</text>
</a>
</g>
</g>
<!-- Node2&#45;&gt;Node3 -->
<g id="edge2" class="edge">
<title>Node2&#45;&gt;Node3</title>
<path fill="none" stroke="midnightblue" d="M47.66,-112.41C31.95,-105.28 12.49,-93.46 3.11,-76 -5.66,-59.68 5.96,-40.33 17.19,-27.01"/>
<polygon fill="midnightblue" stroke="midnightblue" points="19.81,-29.33 23.95,-19.57 14.63,-24.62 19.81,-29.33"/>
</g>
<!-- Node4 -->
<g id="node4" class="node">
<title>Node4</title>
<g id="a_node4"><a xlink:title=" ">
<polygon fill="white" stroke="#bfbfbf" points="12.61,-56.5 12.61,-75.5 59.61,-75.5 59.61,-56.5 12.61,-56.5"/>
<text text-anchor="middle" x="36.11" y="-63.5" font-family="Helvetica,sans-Serif" font-size="10.00">vector</text>
</a>
</g>
</g>
<!-- Node2&#45;&gt;Node4 -->
<g id="edge3" class="edge">
<title>Node2&#45;&gt;Node4</title>
<path fill="none" stroke="midnightblue" d="M65.33,-112.08C60.44,-104.53 53.28,-93.49 47.28,-84.23"/>
<polygon fill="midnightblue" stroke="midnightblue" points="50.16,-82.24 41.78,-75.75 44.28,-86.05 50.16,-82.24"/>
</g>
<!-- Node5 -->
<g id="node5" class="node">
<title>Node5</title>
<g id="a_node5"><a xlink:href="Vertex_8h.html" target="_top" xlink:title=" ">
<polygon fill="white" stroke="black" points="77.61,-56.5 77.61,-75.5 134.61,-75.5 134.61,-56.5 77.61,-56.5"/>
<text text-anchor="middle" x="106.11" y="-63.5" font-family="Helvetica,sans-Serif" font-size="10.00">Vertex.h</text>
</a>
</g>
</g>
<!-- Node2&#45;&gt;Node5 -->
<g id="edge4" class="edge">
<title>Node2&#45;&gt;Node5</title>
<path fill="none" stroke="midnightblue" d="M76.89,-112.08C81.78,-104.53 88.94,-93.49 94.94,-84.23"/>
<polygon fill="midnightblue" stroke="midnightblue" points="97.94,-86.05 100.44,-75.75 92.06,-82.24 97.94,-86.05"/>
</g>
<!-- Node6 -->
<g id="node6" class="node">
<title>Node6</title>
<g id="a_node6"><a xlink:title=" ">
<polygon fill="white" stroke="#bfbfbf" points="102.61,-0.5 102.61,-19.5 165.61,-19.5 165.61,-0.5 102.61,-0.5"/>
<text text-anchor="middle" x="134.11" y="-7.5" font-family="Helvetica,sans-Serif" font-size="10.00">armadillo</text>
</a>
</g>
</g>
<!-- Node2&#45;&gt;Node6 -->
<g id="edge7" class="edge">
<title>Node2&#45;&gt;Node6</title>
<path fill="none" stroke="midnightblue" d="M97.32,-112.41C113.96,-105.44 134.17,-93.81 144.11,-76 152.18,-61.54 147.9,-42.6 142.67,-28.9"/>
<polygon fill="midnightblue" stroke="midnightblue" points="145.84,-27.41 138.67,-19.61 139.41,-30.18 145.84,-27.41"/>
</g>
<!-- Node5&#45;&gt;Node3 -->
<g id="edge5" class="edge">
<title>Node5&#45;&gt;Node3</title>
<path fill="none" stroke="midnightblue" d="M94.38,-56.32C83.27,-48.11 66.37,-35.6 53.13,-25.81"/>
<polygon fill="midnightblue" stroke="midnightblue" points="55.17,-22.97 45.05,-19.83 51.01,-28.59 55.17,-22.97"/>
</g>
<!-- Node5&#45;&gt;Node6 -->
<g id="edge6" class="edge">
<title>Node5&#45;&gt;Node6</title>
<path fill="none" stroke="midnightblue" d="M110.73,-56.08C114.57,-48.69 120.14,-37.95 124.88,-28.81"/>
<polygon fill="midnightblue" stroke="midnightblue" points="128.08,-30.24 129.57,-19.75 121.86,-27.02 128.08,-30.24"/>
</g>
</g>
</svg>
