<?xml version="1.0" encoding="UTF-8" standalone="no"?>
<!DOCTYPE svg PUBLIC "-//W3C//DTD SVG 1.1//EN"
 "http://www.w3.org/Graphics/SVG/1.1/DTD/svg11.dtd">
<!-- Generated by graphviz version 2.43.0 (0)
 -->
<!-- Title: Simulation Pages: 1 -->
<svg width="688pt" height="1422pt"
 viewBox="0.00 0.00 688.00 1422.00" xmlns="http://www.w3.org/2000/svg" xmlns:xlink="http://www.w3.org/1999/xlink">
<g id="graph0" class="graph" transform="scale(1 1) rotate(0) translate(4 1418)">
<title>Simulation</title>
<polygon fill="white" stroke="transparent" points="-4,4 -4,-1418 684,-1418 684,4 -4,4"/>
<!-- Node1 -->
<g id="node1" class="node">
<title>Node1</title>
<g id="a_node1"><a xlink:title="This class is used to generate the simulation.">
<polygon fill="#bfbfbf" stroke="black" points="230,-0.5 230,-244.5 391,-244.5 391,-0.5 230,-0.5"/>
<text text-anchor="middle" x="310.5" y="-232.5" font-family="Helvetica,sans-Serif" font-size="10.00">Simulation</text>
<polyline fill="none" stroke="black" points="230,-225.5 391,-225.5 "/>
<text text-anchor="start" x="238" y="-213.5" font-family="Helvetica,sans-Serif" font-size="10.00">&#45; glm::mat4 camera</text>
<text text-anchor="start" x="238" y="-202.5" font-family="Helvetica,sans-Serif" font-size="10.00">&#45; int collision</text>
<polyline fill="none" stroke="black" points="230,-195.5 391,-195.5 "/>
<text text-anchor="start" x="238" y="-183.5" font-family="Helvetica,sans-Serif" font-size="10.00">+ Simulation()</text>
<text text-anchor="start" x="238" y="-172.5" font-family="Helvetica,sans-Serif" font-size="10.00">+ void init(GLuint programID)</text>
<text text-anchor="start" x="238" y="-161.5" font-family="Helvetica,sans-Serif" font-size="10.00">+ void changeCamera(int</text>
<text text-anchor="start" x="238" y="-150.5" font-family="Helvetica,sans-Serif" font-size="10.00"> camera)</text>
<text text-anchor="start" x="238" y="-139.5" font-family="Helvetica,sans-Serif" font-size="10.00">+ void setPoint(float</text>
<text text-anchor="start" x="238" y="-128.5" font-family="Helvetica,sans-Serif" font-size="10.00"> x, float y)</text>
<text text-anchor="start" x="238" y="-117.5" font-family="Helvetica,sans-Serif" font-size="10.00">+ void setPoint2(float</text>
<text text-anchor="start" x="238" y="-106.5" font-family="Helvetica,sans-Serif" font-size="10.00"> x, float y)</text>
<text text-anchor="start" x="238" y="-95.5" font-family="Helvetica,sans-Serif" font-size="10.00">+ void setCollision(bool</text>
<text text-anchor="start" x="238" y="-84.5" font-family="Helvetica,sans-Serif" font-size="10.00"> collision)</text>
<text text-anchor="start" x="238" y="-73.5" font-family="Helvetica,sans-Serif" font-size="10.00">+ void setKeyFlag(int</text>
<text text-anchor="start" x="238" y="-62.5" font-family="Helvetica,sans-Serif" font-size="10.00"> key_flag)</text>
<text text-anchor="start" x="238" y="-51.5" font-family="Helvetica,sans-Serif" font-size="10.00">+ void setPointFlag(int</text>
<text text-anchor="start" x="238" y="-40.5" font-family="Helvetica,sans-Serif" font-size="10.00"> point_flag)</text>
<text text-anchor="start" x="238" y="-29.5" font-family="Helvetica,sans-Serif" font-size="10.00">+ void setClick(double</text>
<text text-anchor="start" x="238" y="-18.5" font-family="Helvetica,sans-Serif" font-size="10.00"> xpos, double ypos)</text>
<text text-anchor="start" x="238" y="-7.5" font-family="Helvetica,sans-Serif" font-size="10.00">+ int getPointFlag()</text>
</a>
</g>
</g>
<!-- Node2 -->
<g id="node2" class="node">
<title>Node2</title>
<g id="a_node2"><a xlink:href="classEnemy.html" target="_top" xlink:title="This class is used to create and draw the enemy.">
<polygon fill="white" stroke="black" points="173,-358.5 173,-437.5 328,-437.5 328,-358.5 173,-358.5"/>
<text text-anchor="middle" x="250.5" y="-425.5" font-family="Helvetica,sans-Serif" font-size="10.00">Enemy</text>
<polyline fill="none" stroke="black" points="173,-418.5 328,-418.5 "/>
<text text-anchor="middle" x="250.5" y="-406.5" font-family="Helvetica,sans-Serif" font-size="10.00"> </text>
<polyline fill="none" stroke="black" points="173,-399.5 328,-399.5 "/>
<text text-anchor="start" x="181" y="-387.5" font-family="Helvetica,sans-Serif" font-size="10.00">+ Enemy()</text>
<text text-anchor="start" x="181" y="-376.5" font-family="Helvetica,sans-Serif" font-size="10.00">+ void draw(GLuint program</text>
<text text-anchor="start" x="181" y="-365.5" font-family="Helvetica,sans-Serif" font-size="10.00">ID, glm::mat4 camera)</text>
</a>
</g>
</g>
<!-- Node2&#45;&gt;Node1 -->
<g id="edge1" class="edge">
<title>Node2&#45;&gt;Node1</title>
<path fill="none" stroke="#404040" d="M258.97,-358.39C264.87,-331.49 273.12,-293.87 281.3,-256.61"/>
<polygon fill="none" stroke="#404040" points="281.37,-256.26 278.75,-249.54 283.95,-244.54 286.57,-251.26 281.37,-256.26"/>
<text text-anchor="middle" x="300" y="-277" font-family="Helvetica,sans-Serif" font-size="10.00"> &#45;enemy</text>
</g>
<!-- Node3 -->
<g id="node3" class="node">
<title>Node3</title>
<g id="a_node3"><a xlink:href="classModel.html" target="_top" xlink:title=" ">
<polygon fill="white" stroke="black" points="180.5,-656 180.5,-735 320.5,-735 320.5,-656 180.5,-656"/>
<text text-anchor="middle" x="250.5" y="-723" font-family="Helvetica,sans-Serif" font-size="10.00">Model&lt; Obj &gt;</text>
<polyline fill="none" stroke="black" points="180.5,-716 320.5,-716 "/>
<text text-anchor="middle" x="250.5" y="-704" font-family="Helvetica,sans-Serif" font-size="10.00"> </text>
<polyline fill="none" stroke="black" points="180.5,-697 320.5,-697 "/>
<text text-anchor="start" x="188.5" y="-685" font-family="Helvetica,sans-Serif" font-size="10.00">+ Model(string fileName,</text>
<text text-anchor="start" x="188.5" y="-674" font-family="Helvetica,sans-Serif" font-size="10.00"> float r, float g, float b)</text>
<text text-anchor="start" x="188.5" y="-663" font-family="Helvetica,sans-Serif" font-size="10.00">+ Model()</text>
</a>
</g>
</g>
<!-- Node3&#45;&gt;Node2 -->
<g id="edge2" class="edge">
<title>Node3&#45;&gt;Node2</title>
<path fill="none" stroke="#404040" d="M250.5,-655.87C250.5,-603.11 250.5,-508.4 250.5,-449.9"/>
<polygon fill="none" stroke="#404040" points="250.5,-449.64 246.5,-443.64 250.5,-437.64 254.5,-443.64 250.5,-449.64"/>
<text text-anchor="middle" x="271" y="-519.5" font-family="Helvetica,sans-Serif" font-size="10.00"> &#45;enemy</text>
</g>
<!-- Node12 -->
<g id="node12" class="node">
<title>Node12</title>
<g id="a_node12"><a xlink:href="classMessage.html" target="_top" xlink:title="This class is used to create and draw collition message.">
<polygon fill="white" stroke="black" points="0,-331 0,-465 155,-465 155,-331 0,-331"/>
<text text-anchor="middle" x="77.5" y="-453" font-family="Helvetica,sans-Serif" font-size="10.00">Message</text>
<polyline fill="none" stroke="black" points="0,-446 155,-446 "/>
<text text-anchor="middle" x="77.5" y="-434" font-family="Helvetica,sans-Serif" font-size="10.00"> </text>
<polyline fill="none" stroke="black" points="0,-427 155,-427 "/>
<text text-anchor="start" x="8" y="-415" font-family="Helvetica,sans-Serif" font-size="10.00">+ Message()</text>
<text text-anchor="start" x="8" y="-404" font-family="Helvetica,sans-Serif" font-size="10.00">+ void draw(GLuint program</text>
<text text-anchor="start" x="8" y="-393" font-family="Helvetica,sans-Serif" font-size="10.00">ID, glm::mat4 camera,</text>
<text text-anchor="start" x="8" y="-382" font-family="Helvetica,sans-Serif" font-size="10.00"> bool status)</text>
<text text-anchor="start" x="8" y="-371" font-family="Helvetica,sans-Serif" font-size="10.00">+ void setRotate(glm</text>
<text text-anchor="start" x="8" y="-360" font-family="Helvetica,sans-Serif" font-size="10.00">::mat4 rotate)</text>
<text text-anchor="start" x="8" y="-349" font-family="Helvetica,sans-Serif" font-size="10.00">+ void setTranslate(glm</text>
<text text-anchor="start" x="8" y="-338" font-family="Helvetica,sans-Serif" font-size="10.00">::mat4 translate)</text>
</a>
</g>
</g>
<!-- Node3&#45;&gt;Node12 -->
<g id="edge14" class="edge">
<title>Node3&#45;&gt;Node12</title>
<path fill="none" stroke="#404040" d="M227.88,-655.87C201.2,-610.29 156.18,-533.4 122.34,-475.6"/>
<polygon fill="none" stroke="#404040" points="122.22,-475.39 115.74,-472.24 116.16,-465.04 122.64,-468.19 122.22,-475.39"/>
<text text-anchor="middle" x="185.5" y="-519.5" font-family="Helvetica,sans-Serif" font-size="10.00"> &#45;message</text>
</g>
<!-- Node4 -->
<g id="node4" class="node">
<title>Node4</title>
<g id="a_node4"><a xlink:href="classObj.html" target="_top" xlink:title="This class is used to create objects using the obj file.">
<polygon fill="white" stroke="black" points="226.5,-876.5 226.5,-955.5 352.5,-955.5 352.5,-876.5 226.5,-876.5"/>
<text text-anchor="middle" x="289.5" y="-943.5" font-family="Helvetica,sans-Serif" font-size="10.00">Obj</text>
<polyline fill="none" stroke="black" points="226.5,-936.5 352.5,-936.5 "/>
<text text-anchor="middle" x="289.5" y="-924.5" font-family="Helvetica,sans-Serif" font-size="10.00"> </text>
<polyline fill="none" stroke="black" points="226.5,-917.5 352.5,-917.5 "/>
<text text-anchor="start" x="234.5" y="-905.5" font-family="Helvetica,sans-Serif" font-size="10.00">+ Obj(string fileName,</text>
<text text-anchor="start" x="234.5" y="-894.5" font-family="Helvetica,sans-Serif" font-size="10.00"> float r, float g, float b)</text>
<text text-anchor="start" x="234.5" y="-883.5" font-family="Helvetica,sans-Serif" font-size="10.00">+ void load()</text>
</a>
</g>
</g>
<!-- Node4&#45;&gt;Node3 -->
<g id="edge3" class="edge">
<title>Node4&#45;&gt;Node3</title>
<path fill="none" stroke="midnightblue" d="M280.84,-866.47C273.77,-826.87 263.92,-771.66 257.38,-735.04"/>
<polygon fill="none" stroke="midnightblue" points="277.41,-867.21 282.62,-876.44 284.31,-865.98 277.41,-867.21"/>
</g>
<!-- Node5 -->
<g id="node5" class="node">
<title>Node5</title>
<g id="a_node5"><a xlink:href="classObject.html" target="_top" xlink:title="This class is used to create objects using vertices and faces.">
<polygon fill="white" stroke="black" points="280.5,-993.5 280.5,-1413.5 458.5,-1413.5 458.5,-993.5 280.5,-993.5"/>
<text text-anchor="middle" x="369.5" y="-1401.5" font-family="Helvetica,sans-Serif" font-size="10.00">Object</text>
<polyline fill="none" stroke="black" points="280.5,-1394.5 458.5,-1394.5 "/>
<text text-anchor="start" x="288.5" y="-1382.5" font-family="Helvetica,sans-Serif" font-size="10.00"># string fileName</text>
<text text-anchor="start" x="288.5" y="-1371.5" font-family="Helvetica,sans-Serif" font-size="10.00"># vector&lt; Vertex &gt; vertices</text>
<text text-anchor="start" x="288.5" y="-1360.5" font-family="Helvetica,sans-Serif" font-size="10.00"># vector&lt; Face &gt; faces</text>
<text text-anchor="start" x="288.5" y="-1349.5" font-family="Helvetica,sans-Serif" font-size="10.00"># float r</text>
<text text-anchor="start" x="288.5" y="-1338.5" font-family="Helvetica,sans-Serif" font-size="10.00"># float g</text>
<text text-anchor="start" x="288.5" y="-1327.5" font-family="Helvetica,sans-Serif" font-size="10.00"># float b</text>
<text text-anchor="start" x="288.5" y="-1316.5" font-family="Helvetica,sans-Serif" font-size="10.00"># GLuint colorbuffer</text>
<text text-anchor="start" x="288.5" y="-1305.5" font-family="Helvetica,sans-Serif" font-size="10.00"># GLuint datasize</text>
<text text-anchor="start" x="288.5" y="-1294.5" font-family="Helvetica,sans-Serif" font-size="10.00"># GLuint MatrixID</text>
<text text-anchor="start" x="288.5" y="-1283.5" font-family="Helvetica,sans-Serif" font-size="10.00"># GLuint vertexbuffer</text>
<text text-anchor="start" x="288.5" y="-1272.5" font-family="Helvetica,sans-Serif" font-size="10.00"># glm::mat4 scale</text>
<text text-anchor="start" x="288.5" y="-1261.5" font-family="Helvetica,sans-Serif" font-size="10.00"># glm::mat4 transform</text>
<text text-anchor="start" x="288.5" y="-1250.5" font-family="Helvetica,sans-Serif" font-size="10.00"># glm::mat4 rotate</text>
<text text-anchor="start" x="288.5" y="-1239.5" font-family="Helvetica,sans-Serif" font-size="10.00"># glm::mat4 translate</text>
<polyline fill="none" stroke="black" points="280.5,-1232.5 458.5,-1232.5 "/>
<text text-anchor="start" x="288.5" y="-1220.5" font-family="Helvetica,sans-Serif" font-size="10.00">+ Object(string fileName,</text>
<text text-anchor="start" x="288.5" y="-1209.5" font-family="Helvetica,sans-Serif" font-size="10.00"> float r, float g, float b)</text>
<text text-anchor="start" x="288.5" y="-1198.5" font-family="Helvetica,sans-Serif" font-size="10.00">+ vector&lt; Vertex &gt; getVertices()</text>
<text text-anchor="start" x="288.5" y="-1187.5" font-family="Helvetica,sans-Serif" font-size="10.00">+ vector&lt; Face &gt; getFaces()</text>
<text text-anchor="start" x="288.5" y="-1176.5" font-family="Helvetica,sans-Serif" font-size="10.00">+ virtual void load()=0</text>
<text text-anchor="start" x="288.5" y="-1165.5" font-family="Helvetica,sans-Serif" font-size="10.00">+ void draw(GLuint program</text>
<text text-anchor="start" x="288.5" y="-1154.5" font-family="Helvetica,sans-Serif" font-size="10.00">ID, glm::mat4 transform)</text>
<text text-anchor="start" x="288.5" y="-1143.5" font-family="Helvetica,sans-Serif" font-size="10.00">+ void setScale(glm::</text>
<text text-anchor="start" x="288.5" y="-1132.5" font-family="Helvetica,sans-Serif" font-size="10.00">mat4 scale)</text>
<text text-anchor="start" x="288.5" y="-1121.5" font-family="Helvetica,sans-Serif" font-size="10.00">+ void setRotate(glm</text>
<text text-anchor="start" x="288.5" y="-1110.5" font-family="Helvetica,sans-Serif" font-size="10.00">::mat4 rotate)</text>
<text text-anchor="start" x="288.5" y="-1099.5" font-family="Helvetica,sans-Serif" font-size="10.00">+ void setTranslate(glm</text>
<text text-anchor="start" x="288.5" y="-1088.5" font-family="Helvetica,sans-Serif" font-size="10.00">::mat4 translate)</text>
<text text-anchor="start" x="288.5" y="-1077.5" font-family="Helvetica,sans-Serif" font-size="10.00">+ glm::mat4 getScale()</text>
<text text-anchor="start" x="288.5" y="-1066.5" font-family="Helvetica,sans-Serif" font-size="10.00">+ glm::mat4 getRotate()</text>
<text text-anchor="start" x="288.5" y="-1055.5" font-family="Helvetica,sans-Serif" font-size="10.00">+ glm::mat4 getTranslate()</text>
<text text-anchor="start" x="288.5" y="-1044.5" font-family="Helvetica,sans-Serif" font-size="10.00">+ glm::mat4 getTransform()</text>
<text text-anchor="start" x="288.5" y="-1033.5" font-family="Helvetica,sans-Serif" font-size="10.00"># vector&lt; string &gt; split</text>
<text text-anchor="start" x="288.5" y="-1022.5" font-family="Helvetica,sans-Serif" font-size="10.00">(const string &amp;str, const</text>
<text text-anchor="start" x="288.5" y="-1011.5" font-family="Helvetica,sans-Serif" font-size="10.00"> string &amp;delim)</text>
<text text-anchor="start" x="288.5" y="-1000.5" font-family="Helvetica,sans-Serif" font-size="10.00"># void set_data()</text>
</a>
</g>
</g>
<!-- Node5&#45;&gt;Node4 -->
<g id="edge4" class="edge">
<title>Node5&#45;&gt;Node4</title>
<path fill="none" stroke="midnightblue" d="M308.1,-983.36C305.3,-973.39 302.7,-964.12 300.39,-955.86"/>
<polygon fill="none" stroke="midnightblue" points="304.77,-984.45 310.83,-993.13 311.51,-982.56 304.77,-984.45"/>
</g>
<!-- Node11 -->
<g id="node11" class="node">
<title>Node11</title>
<g id="a_node11"><a xlink:href="classPly.html" target="_top" xlink:title="This class is used to create objects using the ply file.">
<polygon fill="white" stroke="black" points="378,-876.5 378,-955.5 503,-955.5 503,-876.5 378,-876.5"/>
<text text-anchor="middle" x="440.5" y="-943.5" font-family="Helvetica,sans-Serif" font-size="10.00">Ply</text>
<polyline fill="none" stroke="black" points="378,-936.5 503,-936.5 "/>
<text text-anchor="middle" x="440.5" y="-924.5" font-family="Helvetica,sans-Serif" font-size="10.00"> </text>
<polyline fill="none" stroke="black" points="378,-917.5 503,-917.5 "/>
<text text-anchor="start" x="386" y="-905.5" font-family="Helvetica,sans-Serif" font-size="10.00">+ Ply(string fileName,</text>
<text text-anchor="start" x="386" y="-894.5" font-family="Helvetica,sans-Serif" font-size="10.00"> float r, float g, float b)</text>
<text text-anchor="start" x="386" y="-883.5" font-family="Helvetica,sans-Serif" font-size="10.00">+ void load()</text>
</a>
</g>
</g>
<!-- Node5&#45;&gt;Node11 -->
<g id="edge11" class="edge">
<title>Node5&#45;&gt;Node11</title>
<path fill="none" stroke="midnightblue" d="M424,-983.36C426.48,-973.39 428.78,-964.12 430.84,-955.86"/>
<polygon fill="none" stroke="midnightblue" points="420.58,-982.58 421.57,-993.13 427.38,-984.27 420.58,-982.58"/>
</g>
<!-- Node6 -->
<g id="node6" class="node">
<title>Node6</title>
<g id="a_node6"><a xlink:href="classModel.html" target="_top" xlink:title="This class is used to create models using Obj and Ply.">
<polygon fill="white" stroke="black" points="524.5,-876.5 524.5,-955.5 664.5,-955.5 664.5,-876.5 524.5,-876.5"/>
<text text-anchor="middle" x="594.5" y="-943.5" font-family="Helvetica,sans-Serif" font-size="10.00">Model&lt; T &gt;</text>
<polyline fill="none" stroke="black" points="524.5,-936.5 664.5,-936.5 "/>
<text text-anchor="middle" x="594.5" y="-924.5" font-family="Helvetica,sans-Serif" font-size="10.00"> </text>
<polyline fill="none" stroke="black" points="524.5,-917.5 664.5,-917.5 "/>
<text text-anchor="start" x="532.5" y="-905.5" font-family="Helvetica,sans-Serif" font-size="10.00">+ Model(string fileName,</text>
<text text-anchor="start" x="532.5" y="-894.5" font-family="Helvetica,sans-Serif" font-size="10.00"> float r, float g, float b)</text>
<text text-anchor="start" x="532.5" y="-883.5" font-family="Helvetica,sans-Serif" font-size="10.00">+ Model()</text>
</a>
</g>
</g>
<!-- Node6&#45;&gt;Node3 -->
<g id="edge5" class="edge">
<title>Node6&#45;&gt;Node3</title>
<path fill="none" stroke="orange" d="M514.66,-877.16C513.6,-876.76 512.55,-876.38 511.5,-876 432.91,-847.67 396.36,-879.09 329.5,-829 297.99,-805.4 276.62,-765.21 264.13,-735.27"/>
<polygon fill="orange" stroke="orange" points="513.65,-880.52 524.24,-880.9 516.2,-874 513.65,-880.52"/>
<text text-anchor="middle" x="415" y="-850" font-family="Helvetica,sans-Serif" font-size="10.00"> &lt; Obj &gt;</text>
</g>
<!-- Node10 -->
<g id="node10" class="node">
<title>Node10</title>
<g id="a_node10"><a xlink:href="classModel.html" target="_top" xlink:title=" ">
<polygon fill="white" stroke="black" points="528.5,-656 528.5,-735 668.5,-735 668.5,-656 528.5,-656"/>
<text text-anchor="middle" x="598.5" y="-723" font-family="Helvetica,sans-Serif" font-size="10.00">Model&lt; Ply &gt;</text>
<polyline fill="none" stroke="black" points="528.5,-716 668.5,-716 "/>
<text text-anchor="middle" x="598.5" y="-704" font-family="Helvetica,sans-Serif" font-size="10.00"> </text>
<polyline fill="none" stroke="black" points="528.5,-697 668.5,-697 "/>
<text text-anchor="start" x="536.5" y="-685" font-family="Helvetica,sans-Serif" font-size="10.00">+ Model(string fileName,</text>
<text text-anchor="start" x="536.5" y="-674" font-family="Helvetica,sans-Serif" font-size="10.00"> float r, float g, float b)</text>
<text text-anchor="start" x="536.5" y="-663" font-family="Helvetica,sans-Serif" font-size="10.00">+ Model()</text>
</a>
</g>
</g>
<!-- Node6&#45;&gt;Node10 -->
<g id="edge12" class="edge">
<title>Node6&#45;&gt;Node10</title>
<path fill="none" stroke="orange" d="M595.39,-866.22C596.12,-826.64 597.13,-771.59 597.79,-735.04"/>
<polygon fill="orange" stroke="orange" points="591.89,-866.38 595.21,-876.44 598.89,-866.51 591.89,-866.38"/>
<text text-anchor="middle" x="616" y="-850" font-family="Helvetica,sans-Serif" font-size="10.00"> &lt; Ply &gt;</text>
</g>
<!-- Node7 -->
<g id="node7" class="node">
<title>Node7</title>
<g id="a_node7"><a xlink:title=" ">
<polygon fill="white" stroke="#bfbfbf" points="580,-1175 580,-1232 609,-1232 609,-1175 580,-1175"/>
<text text-anchor="middle" x="594.5" y="-1220" font-family="Helvetica,sans-Serif" font-size="10.00">T</text>
<polyline fill="none" stroke="#bfbfbf" points="580,-1213 609,-1213 "/>
<text text-anchor="middle" x="594.5" y="-1201" font-family="Helvetica,sans-Serif" font-size="10.00"> </text>
<polyline fill="none" stroke="#bfbfbf" points="580,-1194 609,-1194 "/>
<text text-anchor="middle" x="594.5" y="-1182" font-family="Helvetica,sans-Serif" font-size="10.00"> </text>
</a>
</g>
</g>
<!-- Node7&#45;&gt;Node6 -->
<g id="edge6" class="edge">
<title>Node7&#45;&gt;Node6</title>
<path fill="none" stroke="midnightblue" d="M594.5,-1164.63C594.5,-1110.32 594.5,-1010.83 594.5,-955.93"/>
<polygon fill="none" stroke="midnightblue" points="591,-1164.87 594.5,-1174.87 598,-1164.87 591,-1164.87"/>
</g>
<!-- Node8 -->
<g id="node8" class="node">
<title>Node8</title>
<g id="a_node8"><a xlink:href="classRobot.html" target="_top" xlink:title="This class is used to create and draw the robot.">
<polygon fill="white" stroke="black" points="346.5,-314.5 346.5,-481.5 506.5,-481.5 506.5,-314.5 346.5,-314.5"/>
<text text-anchor="middle" x="426.5" y="-469.5" font-family="Helvetica,sans-Serif" font-size="10.00">Robot</text>
<polyline fill="none" stroke="black" points="346.5,-462.5 506.5,-462.5 "/>
<text text-anchor="start" x="354.5" y="-450.5" font-family="Helvetica,sans-Serif" font-size="10.00">&#45; unsigned int pathIndex</text>
<text text-anchor="start" x="354.5" y="-439.5" font-family="Helvetica,sans-Serif" font-size="10.00">&#45; vector&lt; Vertex &gt; path</text>
<text text-anchor="start" x="354.5" y="-428.5" font-family="Helvetica,sans-Serif" font-size="10.00">&#45; float t</text>
<polyline fill="none" stroke="black" points="346.5,-421.5 506.5,-421.5 "/>
<text text-anchor="start" x="354.5" y="-409.5" font-family="Helvetica,sans-Serif" font-size="10.00">+ Robot()</text>
<text text-anchor="start" x="354.5" y="-398.5" font-family="Helvetica,sans-Serif" font-size="10.00">+ void draw(GLuint program</text>
<text text-anchor="start" x="354.5" y="-387.5" font-family="Helvetica,sans-Serif" font-size="10.00">ID, glm::mat4 camera,</text>
<text text-anchor="start" x="354.5" y="-376.5" font-family="Helvetica,sans-Serif" font-size="10.00"> int collision)</text>
<text text-anchor="start" x="354.5" y="-365.5" font-family="Helvetica,sans-Serif" font-size="10.00">+ void setP2(Vertex P2)</text>
<text text-anchor="start" x="354.5" y="-354.5" font-family="Helvetica,sans-Serif" font-size="10.00">+ void setP3(Vertex P3)</text>
<text text-anchor="start" x="354.5" y="-343.5" font-family="Helvetica,sans-Serif" font-size="10.00">+ void setP4(Vertex P4)</text>
<text text-anchor="start" x="354.5" y="-332.5" font-family="Helvetica,sans-Serif" font-size="10.00">+ Vertex getCurrentPos()</text>
<text text-anchor="start" x="354.5" y="-321.5" font-family="Helvetica,sans-Serif" font-size="10.00">+ vector&lt; Vertex &gt; getPath()</text>
</a>
</g>
</g>
<!-- Node8&#45;&gt;Node1 -->
<g id="edge7" class="edge">
<title>Node8&#45;&gt;Node1</title>
<path fill="none" stroke="#404040" d="M391.38,-314.2C383.53,-295.69 375.02,-275.62 366.56,-255.67"/>
<polygon fill="none" stroke="#404040" points="366.55,-255.66 360.53,-251.7 361.87,-244.62 367.89,-248.58 366.55,-255.66"/>
<text text-anchor="middle" x="399" y="-277" font-family="Helvetica,sans-Serif" font-size="10.00"> &#45;robot</text>
</g>
<!-- Node9 -->
<g id="node9" class="node">
<title>Node9</title>
<g id="a_node9"><a xlink:href="classVertex.html" target="_top" xlink:title="This class is used to create vertices.">
<polygon fill="white" stroke="black" points="338.5,-562.5 338.5,-828.5 510.5,-828.5 510.5,-562.5 338.5,-562.5"/>
<text text-anchor="middle" x="424.5" y="-816.5" font-family="Helvetica,sans-Serif" font-size="10.00">Vertex</text>
<polyline fill="none" stroke="black" points="338.5,-809.5 510.5,-809.5 "/>
<text text-anchor="start" x="346.5" y="-797.5" font-family="Helvetica,sans-Serif" font-size="10.00">&#45; float x</text>
<text text-anchor="start" x="346.5" y="-786.5" font-family="Helvetica,sans-Serif" font-size="10.00">&#45; float y</text>
<text text-anchor="start" x="346.5" y="-775.5" font-family="Helvetica,sans-Serif" font-size="10.00">&#45; float z</text>
<polyline fill="none" stroke="black" points="338.5,-768.5 510.5,-768.5 "/>
<text text-anchor="start" x="346.5" y="-756.5" font-family="Helvetica,sans-Serif" font-size="10.00">+ Vertex()</text>
<text text-anchor="start" x="346.5" y="-745.5" font-family="Helvetica,sans-Serif" font-size="10.00">+ Vertex(float vx, float</text>
<text text-anchor="start" x="346.5" y="-734.5" font-family="Helvetica,sans-Serif" font-size="10.00"> vy, float vz)</text>
<text text-anchor="start" x="346.5" y="-723.5" font-family="Helvetica,sans-Serif" font-size="10.00">+ void print()</text>
<text text-anchor="start" x="346.5" y="-712.5" font-family="Helvetica,sans-Serif" font-size="10.00">+ Vertex operator&#45;(Vertex op2)</text>
<text text-anchor="start" x="346.5" y="-701.5" font-family="Helvetica,sans-Serif" font-size="10.00">+ Vertex operator+(Vertex op2)</text>
<text text-anchor="start" x="346.5" y="-690.5" font-family="Helvetica,sans-Serif" font-size="10.00">+ Vertex operator*(float op2)</text>
<text text-anchor="start" x="346.5" y="-679.5" font-family="Helvetica,sans-Serif" font-size="10.00">+ bool operator==(Vertex op2)</text>
<text text-anchor="start" x="346.5" y="-668.5" font-family="Helvetica,sans-Serif" font-size="10.00">+ Row&lt; float &gt; row()</text>
<text text-anchor="start" x="346.5" y="-657.5" font-family="Helvetica,sans-Serif" font-size="10.00">+ Col&lt; float &gt; homog()</text>
<text text-anchor="start" x="346.5" y="-646.5" font-family="Helvetica,sans-Serif" font-size="10.00">+ float getX()</text>
<text text-anchor="start" x="346.5" y="-635.5" font-family="Helvetica,sans-Serif" font-size="10.00">+ float getY()</text>
<text text-anchor="start" x="346.5" y="-624.5" font-family="Helvetica,sans-Serif" font-size="10.00">+ float getZ()</text>
<text text-anchor="start" x="346.5" y="-613.5" font-family="Helvetica,sans-Serif" font-size="10.00">+ vector&lt; float &gt; getXYZ()</text>
<text text-anchor="start" x="346.5" y="-602.5" font-family="Helvetica,sans-Serif" font-size="10.00">+ void setX(float vx)</text>
<text text-anchor="start" x="346.5" y="-591.5" font-family="Helvetica,sans-Serif" font-size="10.00">+ void setY(float vy)</text>
<text text-anchor="start" x="346.5" y="-580.5" font-family="Helvetica,sans-Serif" font-size="10.00">+ void setZ(float vz)</text>
<text text-anchor="start" x="346.5" y="-569.5" font-family="Helvetica,sans-Serif" font-size="10.00">+ glm::vec3 getVec3()</text>
</a>
</g>
</g>
<!-- Node9&#45;&gt;Node8 -->
<g id="edge8" class="edge">
<title>Node9&#45;&gt;Node8</title>
<path fill="none" stroke="#404040" d="M425.39,-562.31C425.55,-539.34 425.71,-515.86 425.86,-494.12"/>
<polygon fill="none" stroke="#404040" points="425.86,-493.9 421.9,-487.87 425.94,-481.9 429.9,-487.92 425.86,-493.9"/>
<text text-anchor="middle" x="436" y="-536" font-family="Helvetica,sans-Serif" font-size="10.00"> &#45;P1</text>
<text text-anchor="middle" x="436" y="-525" font-family="Helvetica,sans-Serif" font-size="10.00">&#45;P2</text>
<text text-anchor="middle" x="436" y="-514" font-family="Helvetica,sans-Serif" font-size="10.00">&#45;P3</text>
<text text-anchor="middle" x="436" y="-503" font-family="Helvetica,sans-Serif" font-size="10.00">&#45;P4</text>
</g>
<!-- Node10&#45;&gt;Node8 -->
<g id="edge9" class="edge">
<title>Node10&#45;&gt;Node8</title>
<path fill="none" stroke="#404040" d="M576.01,-655.87C551.93,-614.5 512.84,-547.33 480.67,-492.06"/>
<polygon fill="none" stroke="#404040" points="480.58,-491.9 474.1,-488.73 474.54,-481.53 481.01,-484.7 480.58,-491.9"/>
<text text-anchor="middle" x="524" y="-519.5" font-family="Helvetica,sans-Serif" font-size="10.00"> &#45;robot</text>
</g>
<!-- Node13 -->
<g id="node13" class="node">
<title>Node13</title>
<g id="a_node13"><a xlink:href="classBall.html" target="_top" xlink:title="This class is used to create and draw the ball.">
<polygon fill="white" stroke="black" points="525,-336.5 525,-459.5 680,-459.5 680,-336.5 525,-336.5"/>
<text text-anchor="middle" x="602.5" y="-447.5" font-family="Helvetica,sans-Serif" font-size="10.00">Ball</text>
<polyline fill="none" stroke="black" points="525,-440.5 680,-440.5 "/>
<text text-anchor="middle" x="602.5" y="-428.5" font-family="Helvetica,sans-Serif" font-size="10.00"> </text>
<polyline fill="none" stroke="black" points="525,-421.5 680,-421.5 "/>
<text text-anchor="start" x="533" y="-409.5" font-family="Helvetica,sans-Serif" font-size="10.00">+ Ball()</text>
<text text-anchor="start" x="533" y="-398.5" font-family="Helvetica,sans-Serif" font-size="10.00">+ Ball(float x, float</text>
<text text-anchor="start" x="533" y="-387.5" font-family="Helvetica,sans-Serif" font-size="10.00"> y, float z)</text>
<text text-anchor="start" x="533" y="-376.5" font-family="Helvetica,sans-Serif" font-size="10.00">+ void draw(GLuint program</text>
<text text-anchor="start" x="533" y="-365.5" font-family="Helvetica,sans-Serif" font-size="10.00">ID, glm::mat4 camera)</text>
<text text-anchor="start" x="533" y="-354.5" font-family="Helvetica,sans-Serif" font-size="10.00">+ void setTranslate(glm</text>
<text text-anchor="start" x="533" y="-343.5" font-family="Helvetica,sans-Serif" font-size="10.00">::mat4 translate)</text>
</a>
</g>
</g>
<!-- Node10&#45;&gt;Node13 -->
<g id="edge16" class="edge">
<title>Node10&#45;&gt;Node13</title>
<path fill="none" stroke="#404040" d="M599.02,-655.87C599.65,-609.28 600.73,-529.98 601.51,-471.79"/>
<polygon fill="none" stroke="#404040" points="601.52,-471.71 597.6,-465.65 601.68,-459.71 605.6,-465.76 601.52,-471.71"/>
<text text-anchor="middle" x="613" y="-519.5" font-family="Helvetica,sans-Serif" font-size="10.00"> &#45;ball</text>
</g>
<!-- Node11&#45;&gt;Node10 -->
<g id="edge10" class="edge">
<title>Node11&#45;&gt;Node10</title>
<path fill="none" stroke="midnightblue" d="M486.28,-868.66C497.66,-856.22 509.47,-842.46 519.5,-829 541.82,-799.04 563.27,-762.39 578.18,-735.23"/>
<polygon fill="none" stroke="midnightblue" points="483.49,-866.51 479.26,-876.23 488.63,-871.27 483.49,-866.51"/>
</g>
<!-- Node12&#45;&gt;Node1 -->
<g id="edge13" class="edge">
<title>Node12&#45;&gt;Node1</title>
<path fill="none" stroke="#404040" d="M133.9,-330.79C160.36,-299.74 192.51,-262 222.09,-227.27"/>
<polygon fill="none" stroke="#404040" points="222.18,-227.18 223.02,-220.02 229.96,-218.04 229.11,-225.2 222.18,-227.18"/>
<text text-anchor="middle" x="215" y="-282.5" font-family="Helvetica,sans-Serif" font-size="10.00"> &#45;message</text>
<text text-anchor="middle" x="215" y="-271.5" font-family="Helvetica,sans-Serif" font-size="10.00">&#45;message2</text>
</g>
<!-- Node13&#45;&gt;Node1 -->
<g id="edge15" class="edge">
<title>Node13&#45;&gt;Node1</title>
<path fill="none" stroke="#404040" d="M538.92,-336.16C531.05,-328.68 523.1,-321.16 515.5,-314 477.84,-278.54 436.04,-239.62 400.06,-206.25"/>
<polygon fill="none" stroke="#404040" points="399.85,-206.06 392.73,-204.91 391.05,-197.9 398.17,-199.04 399.85,-206.06"/>
<text text-anchor="middle" x="520" y="-288" font-family="Helvetica,sans-Serif" font-size="10.00"> &#45;ball</text>
<text text-anchor="middle" x="520" y="-277" font-family="Helvetica,sans-Serif" font-size="10.00">&#45;ballPoint</text>
<text text-anchor="middle" x="520" y="-266" font-family="Helvetica,sans-Serif" font-size="10.00">&#45;ballPoint2</text>
</g>
</g>
</svg>
