<?xml version="1.0" encoding="UTF-8" standalone="no"?>
<!DOCTYPE svg PUBLIC "-//W3C//DTD SVG 1.1//EN"
 "http://www.w3.org/Graphics/SVG/1.1/DTD/svg11.dtd">
<!-- Generated by graphviz version 2.43.0 (0)
 -->
<!-- Title: Scene::run Pages: 1 -->
<svg width="445pt" height="284pt"
 viewBox="0.00 0.00 445.00 284.00" xmlns="http://www.w3.org/2000/svg" xmlns:xlink="http://www.w3.org/1999/xlink">
<g id="graph0" class="graph" transform="scale(1 1) rotate(0) translate(4 280)">
<title>Scene::run</title>
<polygon fill="white" stroke="transparent" points="-4,4 -4,-280 441,-280 441,4 -4,4"/>
<!-- Node1 -->
<g id="node1" class="node">
<title>Node1</title>
<g id="a_node1"><a xlink:title="This method runs the simulation.">
<polygon fill="#bfbfbf" stroke="black" points="0,-95.5 0,-114.5 68,-114.5 68,-95.5 0,-95.5"/>
<text text-anchor="middle" x="34" y="-102.5" font-family="Helvetica,sans-Serif" font-size="10.00">Scene::run</text>
</a>
</g>
</g>
<!-- Node2 -->
<g id="node2" class="node">
<title>Node2</title>
<g id="a_node2"><a xlink:href="classSimulation.html#af3b86332848f469748212b35e078980c" target="_top" xlink:title="This method changes the camera.">
<polygon fill="white" stroke="black" points="104,-199.5 104,-218.5 253,-218.5 253,-199.5 104,-199.5"/>
<text text-anchor="middle" x="178.5" y="-206.5" font-family="Helvetica,sans-Serif" font-size="10.00">Simulation::changeCamera</text>
</a>
</g>
</g>
<!-- Node1&#45;&gt;Node2 -->
<g id="edge1" class="edge">
<title>Node1&#45;&gt;Node2</title>
<path fill="none" stroke="midnightblue" d="M41.51,-114.75C52.6,-130.66 76.62,-162.32 104,-181 112.8,-187.01 123.07,-191.95 133.09,-195.93"/>
<polygon fill="midnightblue" stroke="midnightblue" points="131.98,-199.25 142.57,-199.45 134.41,-192.69 131.98,-199.25"/>
</g>
<!-- Node6 -->
<g id="node6" class="node">
<title>Node6</title>
<g id="a_node6"><a xlink:href="classOpenGL.html#a1a09abe8b7a1075baf9b8f21f0a0f43a" target="_top" xlink:title="This method creates the window and load the shaders.">
<polygon fill="white" stroke="black" points="113,-152.5 113,-171.5 244,-171.5 244,-152.5 113,-152.5"/>
<text text-anchor="middle" x="178.5" y="-159.5" font-family="Helvetica,sans-Serif" font-size="10.00">OpenGL::createWindow</text>
</a>
</g>
</g>
<!-- Node1&#45;&gt;Node6 -->
<g id="edge5" class="edge">
<title>Node1&#45;&gt;Node6</title>
<path fill="none" stroke="midnightblue" d="M49.81,-114.59C63.43,-123.05 84.43,-135.22 104,-143 110.17,-145.45 116.76,-147.68 123.37,-149.66"/>
<polygon fill="midnightblue" stroke="midnightblue" points="122.43,-153.04 133.01,-152.41 124.35,-146.3 122.43,-153.04"/>
</g>
<!-- Node8 -->
<g id="node8" class="node">
<title>Node8</title>
<g id="a_node8"><a xlink:href="classOpenGL.html#a39d87020db31c36e3efb53c42f70cfde" target="_top" xlink:title="This method returns the program ID.">
<polygon fill="white" stroke="black" points="114.5,-114.5 114.5,-133.5 242.5,-133.5 242.5,-114.5 114.5,-114.5"/>
<text text-anchor="middle" x="178.5" y="-121.5" font-family="Helvetica,sans-Serif" font-size="10.00">OpenGL::getProgramID</text>
</a>
</g>
</g>
<!-- Node1&#45;&gt;Node8 -->
<g id="edge7" class="edge">
<title>Node1&#45;&gt;Node8</title>
<path fill="none" stroke="midnightblue" d="M68.05,-109.41C78.95,-110.86 91.54,-112.54 104.22,-114.23"/>
<polygon fill="midnightblue" stroke="midnightblue" points="104,-117.73 114.38,-115.58 104.93,-110.79 104,-117.73"/>
</g>
<!-- Node9 -->
<g id="node9" class="node">
<title>Node9</title>
<g id="a_node9"><a xlink:href="classSimulation.html#a089ec7ead73faead7ff9cef850b9c09c" target="_top" xlink:title="This method initializes the simulation.">
<polygon fill="white" stroke="black" points="133,-76.5 133,-95.5 224,-95.5 224,-76.5 133,-76.5"/>
<text text-anchor="middle" x="178.5" y="-83.5" font-family="Helvetica,sans-Serif" font-size="10.00">Simulation::init</text>
</a>
</g>
</g>
<!-- Node1&#45;&gt;Node9 -->
<g id="edge8" class="edge">
<title>Node1&#45;&gt;Node9</title>
<path fill="none" stroke="midnightblue" d="M68.05,-100.59C84.28,-98.43 104.27,-95.76 122.71,-93.31"/>
<polygon fill="midnightblue" stroke="midnightblue" points="123.3,-96.76 132.75,-91.97 122.38,-89.82 123.3,-96.76"/>
</g>
<!-- Node10 -->
<g id="node10" class="node">
<title>Node10</title>
<g id="a_node10"><a xlink:href="classSimulation.html#ac8c400b6601382f9b13e946bc1f069b5" target="_top" xlink:title="This method sets the point.">
<polygon fill="white" stroke="black" points="121,-38.5 121,-57.5 236,-57.5 236,-38.5 121,-38.5"/>
<text text-anchor="middle" x="178.5" y="-45.5" font-family="Helvetica,sans-Serif" font-size="10.00">Simulation::setPoint</text>
</a>
</g>
</g>
<!-- Node1&#45;&gt;Node10 -->
<g id="edge9" class="edge">
<title>Node1&#45;&gt;Node10</title>
<path fill="none" stroke="midnightblue" d="M49.81,-95.41C63.43,-86.95 84.43,-74.78 104,-67 110.17,-64.55 116.76,-62.32 123.37,-60.34"/>
<polygon fill="midnightblue" stroke="midnightblue" points="124.35,-63.7 133.01,-57.59 122.43,-56.96 124.35,-63.7"/>
</g>
<!-- Node11 -->
<g id="node11" class="node">
<title>Node11</title>
<g id="a_node11"><a xlink:href="classSimulation.html#a97bef69643599266dd8cd5a71d8f93b7" target="_top" xlink:title="This method sets the second point.">
<polygon fill="white" stroke="black" points="118,-0.5 118,-19.5 239,-19.5 239,-0.5 118,-0.5"/>
<text text-anchor="middle" x="178.5" y="-7.5" font-family="Helvetica,sans-Serif" font-size="10.00">Simulation::setPoint2</text>
</a>
</g>
</g>
<!-- Node1&#45;&gt;Node11 -->
<g id="edge10" class="edge">
<title>Node1&#45;&gt;Node11</title>
<path fill="none" stroke="midnightblue" d="M40.95,-95.43C51.55,-79.19 75.32,-46.32 104,-29 107.62,-26.82 111.48,-24.88 115.47,-23.17"/>
<polygon fill="midnightblue" stroke="midnightblue" points="116.87,-26.38 124.97,-19.55 114.38,-19.84 116.87,-26.38"/>
</g>
<!-- Node3 -->
<g id="node3" class="node">
<title>Node3</title>
<g id="a_node3"><a xlink:href="classScene.html#af51c1a302474e69cfd7649d5a049c2f9" target="_top" xlink:title=" ">
<polygon fill="white" stroke="black" points="289,-256.5 289,-275.5 437,-275.5 437,-256.5 289,-256.5"/>
<text text-anchor="middle" x="363" y="-263.5" font-family="Helvetica,sans-Serif" font-size="10.00">Scene::getCameraPrincipal</text>
</a>
</g>
</g>
<!-- Node2&#45;&gt;Node3 -->
<g id="edge2" class="edge">
<title>Node2&#45;&gt;Node3</title>
<path fill="none" stroke="midnightblue" d="M205.42,-218.65C227.48,-226.7 260.11,-238.24 289,-247 296.75,-249.35 305.02,-251.67 313.1,-253.85"/>
<polygon fill="midnightblue" stroke="midnightblue" points="312.26,-257.24 322.82,-256.41 314.04,-250.47 312.26,-257.24"/>
</g>
<!-- Node4 -->
<g id="node4" class="node">
<title>Node4</title>
<g id="a_node4"><a xlink:href="classScene.html#ad337ea0bf514faab5f9ce9617f833311" target="_top" xlink:title=" ">
<polygon fill="white" stroke="black" points="307,-218.5 307,-237.5 419,-237.5 419,-218.5 307,-218.5"/>
<text text-anchor="middle" x="363" y="-225.5" font-family="Helvetica,sans-Serif" font-size="10.00">Scene::getCameraY</text>
</a>
</g>
</g>
<!-- Node2&#45;&gt;Node4 -->
<g id="edge3" class="edge">
<title>Node2&#45;&gt;Node4</title>
<path fill="none" stroke="midnightblue" d="M253.2,-216.67C267.61,-218.17 282.63,-219.74 296.74,-221.21"/>
<polygon fill="midnightblue" stroke="midnightblue" points="296.52,-224.7 306.83,-222.26 297.25,-217.74 296.52,-224.7"/>
</g>
<!-- Node5 -->
<g id="node5" class="node">
<title>Node5</title>
<g id="a_node5"><a xlink:href="classScene.html#ac1539c53e753e76c879d0c60e4052507" target="_top" xlink:title=" ">
<polygon fill="white" stroke="black" points="306.5,-180.5 306.5,-199.5 419.5,-199.5 419.5,-180.5 306.5,-180.5"/>
<text text-anchor="middle" x="363" y="-187.5" font-family="Helvetica,sans-Serif" font-size="10.00">Scene::getCameraZ</text>
</a>
</g>
</g>
<!-- Node2&#45;&gt;Node5 -->
<g id="edge4" class="edge">
<title>Node2&#45;&gt;Node5</title>
<path fill="none" stroke="midnightblue" d="M253.2,-201.33C267.45,-199.84 282.3,-198.3 296.27,-196.84"/>
<polygon fill="midnightblue" stroke="midnightblue" points="296.69,-200.32 306.27,-195.8 295.96,-193.36 296.69,-200.32"/>
</g>
<!-- Node7 -->
<g id="node7" class="node">
<title>Node7</title>
<g id="a_node7"><a xlink:href="classOpenGL.html#a223dc8b2e5faf362371912a4f2221d5b" target="_top" xlink:title="This method loads the shaders.">
<polygon fill="white" stroke="black" points="302.5,-142.5 302.5,-161.5 423.5,-161.5 423.5,-142.5 302.5,-142.5"/>
<text text-anchor="middle" x="363" y="-149.5" font-family="Helvetica,sans-Serif" font-size="10.00">OpenGL::loadShaders</text>
</a>
</g>
</g>
<!-- Node6&#45;&gt;Node7 -->
<g id="edge6" class="edge">
<title>Node6&#45;&gt;Node7</title>
<path fill="none" stroke="midnightblue" d="M244.1,-158.46C259.66,-157.61 276.35,-156.69 292.14,-155.83"/>
<polygon fill="midnightblue" stroke="midnightblue" points="292.57,-159.31 302.37,-155.27 292.19,-152.32 292.57,-159.31"/>
</g>
</g>
</svg>
