<?xml version="1.0" encoding="UTF-8" standalone="no"?>
<!DOCTYPE svg PUBLIC "-//W3C//DTD SVG 1.1//EN"
 "http://www.w3.org/Graphics/SVG/1.1/DTD/svg11.dtd">
<!-- Generated by graphviz version 2.43.0 (0)
 -->
<!-- Title: Object::setScale Pages: 1 -->
<svg width="249pt" height="142pt"
 viewBox="0.00 0.00 249.00 142.00" xmlns="http://www.w3.org/2000/svg" xmlns:xlink="http://www.w3.org/1999/xlink">
<g id="graph0" class="graph" transform="scale(1 1) rotate(0) translate(4 138)">
<title>Object::setScale</title>
<polygon fill="white" stroke="transparent" points="-4,4 -4,-138 245,-138 245,4 -4,4"/>
<!-- Node1 -->
<g id="node1" class="node">
<title>Node1</title>
<g id="a_node1"><a xlink:title="This method sets the scale matrix.">
<polygon fill="#bfbfbf" stroke="black" points="146,-57.5 146,-76.5 241,-76.5 241,-57.5 146,-57.5"/>
<text text-anchor="middle" x="193.5" y="-64.5" font-family="Helvetica,sans-Serif" font-size="10.00">Object::setScale</text>
</a>
</g>
</g>
<!-- Node2 -->
<g id="node2" class="node">
<title>Node2</title>
<g id="a_node2"><a xlink:href="classBall.html#a86a144d3dad6c953e422e32435923bbb" target="_top" xlink:title="Construct a new Ball:: Ball object.">
<polygon fill="white" stroke="black" points="25,-114.5 25,-133.5 85,-133.5 85,-114.5 25,-114.5"/>
<text text-anchor="middle" x="55" y="-121.5" font-family="Helvetica,sans-Serif" font-size="10.00">Ball::Ball</text>
</a>
</g>
</g>
<!-- Node1&#45;&gt;Node2 -->
<g id="edge1" class="edge">
<title>Node1&#45;&gt;Node2</title>
<path fill="none" stroke="midnightblue" d="M163.85,-80.99C148.12,-88.48 128.15,-97.64 110,-105 101.89,-108.28 92.98,-111.56 84.77,-114.44"/>
<polygon fill="midnightblue" stroke="midnightblue" points="165.55,-84.06 173.06,-76.58 162.53,-77.75 165.55,-84.06"/>
</g>
<!-- Node3 -->
<g id="node3" class="node">
<title>Node3</title>
<g id="a_node3"><a xlink:href="classEnemy.html#a94f30d348b6d2840fd71675472ba38dd" target="_top" xlink:title="Construct a new Enemy:: Enemy object.">
<polygon fill="white" stroke="black" points="10.5,-76.5 10.5,-95.5 99.5,-95.5 99.5,-76.5 10.5,-76.5"/>
<text text-anchor="middle" x="55" y="-83.5" font-family="Helvetica,sans-Serif" font-size="10.00">Enemy::Enemy</text>
</a>
</g>
</g>
<!-- Node1&#45;&gt;Node3 -->
<g id="edge2" class="edge">
<title>Node1&#45;&gt;Node3</title>
<path fill="none" stroke="midnightblue" d="M135.89,-74.88C123.77,-76.57 111.16,-78.32 99.62,-79.93"/>
<polygon fill="midnightblue" stroke="midnightblue" points="136.48,-78.33 145.91,-73.49 135.52,-71.4 136.48,-78.33"/>
</g>
<!-- Node4 -->
<g id="node4" class="node">
<title>Node4</title>
<g id="a_node4"><a xlink:href="classMessage.html#a4fc4f717b634e66070366cb7722d7761" target="_top" xlink:title="Construct a new Message:: Message object.">
<polygon fill="white" stroke="black" points="0,-38.5 0,-57.5 110,-57.5 110,-38.5 0,-38.5"/>
<text text-anchor="middle" x="55" y="-45.5" font-family="Helvetica,sans-Serif" font-size="10.00">Message::Message</text>
</a>
</g>
</g>
<!-- Node1&#45;&gt;Node4 -->
<g id="edge3" class="edge">
<title>Node1&#45;&gt;Node4</title>
<path fill="none" stroke="midnightblue" d="M135.8,-59.11C127.39,-57.94 118.74,-56.73 110.38,-55.57"/>
<polygon fill="midnightblue" stroke="midnightblue" points="135.52,-62.6 145.91,-60.51 136.48,-55.67 135.52,-62.6"/>
</g>
<!-- Node5 -->
<g id="node5" class="node">
<title>Node5</title>
<g id="a_node5"><a xlink:href="classRobot.html#a4fc7c70ae20623f05e06f2ecb388b6c4" target="_top" xlink:title="Construct a new Robot:: Robot object.">
<polygon fill="white" stroke="black" points="15,-0.5 15,-19.5 95,-19.5 95,-0.5 15,-0.5"/>
<text text-anchor="middle" x="55" y="-7.5" font-family="Helvetica,sans-Serif" font-size="10.00">Robot::Robot</text>
</a>
</g>
</g>
<!-- Node1&#45;&gt;Node5 -->
<g id="edge4" class="edge">
<title>Node1&#45;&gt;Node5</title>
<path fill="none" stroke="midnightblue" d="M163.85,-53.01C148.12,-45.52 128.15,-36.36 110,-29 101.89,-25.72 92.98,-22.44 84.77,-19.56"/>
<polygon fill="midnightblue" stroke="midnightblue" points="162.53,-56.25 173.06,-57.42 165.55,-49.94 162.53,-56.25"/>
</g>
</g>
</svg>
