<?xml version="1.0" encoding="UTF-8" standalone="no"?>
<!DOCTYPE svg PUBLIC "-//W3C//DTD SVG 1.1//EN"
 "http://www.w3.org/Graphics/SVG/1.1/DTD/svg11.dtd">
<!-- Generated by graphviz version 2.43.0 (0)
 -->
<!-- Title: Model&lt; T &gt; Pages: 1 -->
<svg width="306pt" height="376pt"
 viewBox="0.00 0.00 306.00 376.00" xmlns="http://www.w3.org/2000/svg" xmlns:xlink="http://www.w3.org/1999/xlink">
<g id="graph0" class="graph" transform="scale(1 1) rotate(0) translate(4 372)">
<title>Model&lt; T &gt;</title>
<polygon fill="white" stroke="transparent" points="-4,4 -4,-372 302,-372 302,4 -4,4"/>
<!-- Node1 -->
<g id="node1" class="node">
<title>Node1</title>
<g id="a_node1"><a xlink:title="This class is used to create models using Obj and Ply.">
<polygon fill="#bfbfbf" stroke="black" points="79,-160.5 79,-272.5 219,-272.5 219,-160.5 79,-160.5"/>
<text text-anchor="middle" x="149" y="-260.5" font-family="Helvetica,sans-Serif" font-size="10.00">Model&lt; T &gt;</text>
<polyline fill="none" stroke="black" points="79,-253.5 219,-253.5 "/>
<text text-anchor="middle" x="149" y="-241.5" font-family="Helvetica,sans-Serif" font-size="10.00"> </text>
<polyline fill="none" stroke="black" points="79,-234.5 219,-234.5 "/>
<text text-anchor="start" x="87" y="-222.5" font-family="Helvetica,sans-Serif" font-size="10.00">+ Model(string fileName,</text>
<text text-anchor="start" x="87" y="-211.5" font-family="Helvetica,sans-Serif" font-size="10.00"> float r, float g, float b)</text>
<text text-anchor="start" x="87" y="-200.5" font-family="Helvetica,sans-Serif" font-size="10.00">+ Model()</text>
<text text-anchor="start" x="87" y="-189.5" font-family="Helvetica,sans-Serif" font-size="10.00">+ Model(string fileName,</text>
<text text-anchor="start" x="87" y="-178.5" font-family="Helvetica,sans-Serif" font-size="10.00"> float r, float g, float b)</text>
<text text-anchor="start" x="87" y="-167.5" font-family="Helvetica,sans-Serif" font-size="10.00">+ Model()</text>
</a>
</g>
</g>
<!-- Node3 -->
<g id="node3" class="node">
<title>Node3</title>
<g id="a_node3"><a xlink:href="classModel.html" target="_top" xlink:title=" ">
<polygon fill="white" stroke="black" points="0,-0.5 0,-112.5 140,-112.5 140,-0.5 0,-0.5"/>
<text text-anchor="middle" x="70" y="-100.5" font-family="Helvetica,sans-Serif" font-size="10.00">Model&lt; Ply &gt;</text>
<polyline fill="none" stroke="black" points="0,-93.5 140,-93.5 "/>
<text text-anchor="middle" x="70" y="-81.5" font-family="Helvetica,sans-Serif" font-size="10.00"> </text>
<polyline fill="none" stroke="black" points="0,-74.5 140,-74.5 "/>
<text text-anchor="start" x="8" y="-62.5" font-family="Helvetica,sans-Serif" font-size="10.00">+ Model(string fileName,</text>
<text text-anchor="start" x="8" y="-51.5" font-family="Helvetica,sans-Serif" font-size="10.00"> float r, float g, float b)</text>
<text text-anchor="start" x="8" y="-40.5" font-family="Helvetica,sans-Serif" font-size="10.00">+ Model()</text>
<text text-anchor="start" x="8" y="-29.5" font-family="Helvetica,sans-Serif" font-size="10.00">+ Model(string fileName,</text>
<text text-anchor="start" x="8" y="-18.5" font-family="Helvetica,sans-Serif" font-size="10.00"> float r, float g, float b)</text>
<text text-anchor="start" x="8" y="-7.5" font-family="Helvetica,sans-Serif" font-size="10.00">+ Model()</text>
</a>
</g>
</g>
<!-- Node1&#45;&gt;Node3 -->
<g id="edge3" class="edge">
<title>Node1&#45;&gt;Node3</title>
<path fill="none" stroke="orange" d="M116.79,-151.09C110.43,-138.36 103.81,-125.12 97.61,-112.73"/>
<polygon fill="orange" stroke="orange" points="113.77,-152.86 121.37,-160.24 120.03,-149.73 113.77,-152.86"/>
<text text-anchor="middle" x="132.5" y="-134" font-family="Helvetica,sans-Serif" font-size="10.00"> &lt; Ply &gt;</text>
</g>
<!-- Node4 -->
<g id="node4" class="node">
<title>Node4</title>
<g id="a_node4"><a xlink:href="classModel.html" target="_top" xlink:title=" ">
<polygon fill="white" stroke="black" points="158,-0.5 158,-112.5 298,-112.5 298,-0.5 158,-0.5"/>
<text text-anchor="middle" x="228" y="-100.5" font-family="Helvetica,sans-Serif" font-size="10.00">Model&lt; Obj &gt;</text>
<polyline fill="none" stroke="black" points="158,-93.5 298,-93.5 "/>
<text text-anchor="middle" x="228" y="-81.5" font-family="Helvetica,sans-Serif" font-size="10.00"> </text>
<polyline fill="none" stroke="black" points="158,-74.5 298,-74.5 "/>
<text text-anchor="start" x="166" y="-62.5" font-family="Helvetica,sans-Serif" font-size="10.00">+ Model(string fileName,</text>
<text text-anchor="start" x="166" y="-51.5" font-family="Helvetica,sans-Serif" font-size="10.00"> float r, float g, float b)</text>
<text text-anchor="start" x="166" y="-40.5" font-family="Helvetica,sans-Serif" font-size="10.00">+ Model()</text>
<text text-anchor="start" x="166" y="-29.5" font-family="Helvetica,sans-Serif" font-size="10.00">+ Model(string fileName,</text>
<text text-anchor="start" x="166" y="-18.5" font-family="Helvetica,sans-Serif" font-size="10.00"> float r, float g, float b)</text>
<text text-anchor="start" x="166" y="-7.5" font-family="Helvetica,sans-Serif" font-size="10.00">+ Model()</text>
</a>
</g>
</g>
<!-- Node1&#45;&gt;Node4 -->
<g id="edge4" class="edge">
<title>Node1&#45;&gt;Node4</title>
<path fill="none" stroke="orange" d="M181.21,-151.09C187.57,-138.36 194.19,-125.12 200.39,-112.73"/>
<polygon fill="orange" stroke="orange" points="177.97,-149.73 176.63,-160.24 184.23,-152.86 177.97,-149.73"/>
<text text-anchor="middle" x="211.5" y="-134" font-family="Helvetica,sans-Serif" font-size="10.00"> &lt; Obj &gt;</text>
</g>
<!-- Node2 -->
<g id="node2" class="node">
<title>Node2</title>
<g id="a_node2"><a xlink:title=" ">
<polygon fill="white" stroke="#bfbfbf" points="134.5,-310.5 134.5,-367.5 163.5,-367.5 163.5,-310.5 134.5,-310.5"/>
<text text-anchor="middle" x="149" y="-355.5" font-family="Helvetica,sans-Serif" font-size="10.00">T</text>
<polyline fill="none" stroke="#bfbfbf" points="134.5,-348.5 163.5,-348.5 "/>
<text text-anchor="middle" x="149" y="-336.5" font-family="Helvetica,sans-Serif" font-size="10.00"> </text>
<polyline fill="none" stroke="#bfbfbf" points="134.5,-329.5 163.5,-329.5 "/>
<text text-anchor="middle" x="149" y="-317.5" font-family="Helvetica,sans-Serif" font-size="10.00"> </text>
</a>
</g>
</g>
<!-- Node2&#45;&gt;Node1 -->
<g id="edge1" class="edge">
<title>Node2&#45;&gt;Node1</title>
<path fill="none" stroke="midnightblue" d="M142.68,-300.11C142.33,-291.36 142.19,-281.88 142.27,-272.57"/>
<polygon fill="none" stroke="midnightblue" points="139.2,-300.55 143.22,-310.35 146.19,-300.19 139.2,-300.55"/>
</g>
<!-- Node2&#45;&gt;Node1 -->
<g id="edge2" class="edge">
<title>Node2&#45;&gt;Node1</title>
<path fill="none" stroke="midnightblue" d="M155.32,-300.11C155.67,-291.36 155.81,-281.88 155.73,-272.57"/>
<polygon fill="none" stroke="midnightblue" points="151.81,-300.19 154.78,-310.35 158.8,-300.55 151.81,-300.19"/>
</g>
</g>
</svg>
