<?xml version="1.0" encoding="UTF-8" standalone="no"?>
<!DOCTYPE svg PUBLIC "-//W3C//DTD SVG 1.1//EN"
 "http://www.w3.org/Graphics/SVG/1.1/DTD/svg11.dtd">
<!-- Generated by graphviz version 2.43.0 (0)
 -->
<!-- Title: Ply::Ply Pages: 1 -->
<svg width="303pt" height="66pt"
 viewBox="0.00 0.00 303.00 66.00" xmlns="http://www.w3.org/2000/svg" xmlns:xlink="http://www.w3.org/1999/xlink">
<g id="graph0" class="graph" transform="scale(1 1) rotate(0) translate(4 62)">
<title>Ply::Ply</title>
<polygon fill="white" stroke="transparent" points="-4,4 -4,-62 299,-62 299,4 -4,4"/>
<!-- Node1 -->
<g id="node1" class="node">
<title>Node1</title>
<g id="a_node1"><a xlink:title="Construct a new Ply:: Ply object.">
<polygon fill="#bfbfbf" stroke="black" points="0,-19.5 0,-38.5 52,-38.5 52,-19.5 0,-19.5"/>
<text text-anchor="middle" x="26" y="-26.5" font-family="Helvetica,sans-Serif" font-size="10.00">Ply::Ply</text>
</a>
</g>
</g>
<!-- Node2 -->
<g id="node2" class="node">
<title>Node2</title>
<g id="a_node2"><a xlink:href="classPly.html#adca3f927c20e1c72f99b20885565b8fd" target="_top" xlink:title="This method is used to load in memory the ply file.">
<polygon fill="white" stroke="black" points="107,-38.5 107,-57.5 165,-57.5 165,-38.5 107,-38.5"/>
<text text-anchor="middle" x="136" y="-45.5" font-family="Helvetica,sans-Serif" font-size="10.00">Ply::load</text>
</a>
</g>
</g>
<!-- Node1&#45;&gt;Node2 -->
<g id="edge1" class="edge">
<title>Node1&#45;&gt;Node2</title>
<path fill="none" stroke="midnightblue" d="M52.05,-33.41C65.31,-35.74 81.89,-38.66 96.73,-41.27"/>
<polygon fill="midnightblue" stroke="midnightblue" points="96.2,-44.73 106.66,-43.01 97.42,-37.83 96.2,-44.73"/>
</g>
<!-- Node4 -->
<g id="node4" class="node">
<title>Node4</title>
<g id="a_node4"><a xlink:href="classObject.html#ae7309d85e7f0d7d09b09a396f2b6017f" target="_top" xlink:title="This method is used to set the data of the object.">
<polygon fill="white" stroke="black" points="88,-0.5 88,-19.5 184,-19.5 184,-0.5 88,-0.5"/>
<text text-anchor="middle" x="136" y="-7.5" font-family="Helvetica,sans-Serif" font-size="10.00">Object::set_data</text>
</a>
</g>
</g>
<!-- Node1&#45;&gt;Node4 -->
<g id="edge3" class="edge">
<title>Node1&#45;&gt;Node4</title>
<path fill="none" stroke="midnightblue" d="M52.05,-24.59C59.75,-23.24 68.56,-21.69 77.5,-20.12"/>
<polygon fill="midnightblue" stroke="midnightblue" points="78.35,-23.52 87.59,-18.34 77.14,-16.63 78.35,-23.52"/>
</g>
<!-- Node3 -->
<g id="node3" class="node">
<title>Node3</title>
<g id="a_node3"><a xlink:href="classObject.html#a42b932f19ef0388be27fec88298db511" target="_top" xlink:title=" ">
<polygon fill="white" stroke="black" points="220,-38.5 220,-57.5 295,-57.5 295,-38.5 220,-38.5"/>
<text text-anchor="middle" x="257.5" y="-45.5" font-family="Helvetica,sans-Serif" font-size="10.00">Object::split</text>
</a>
</g>
</g>
<!-- Node2&#45;&gt;Node3 -->
<g id="edge2" class="edge">
<title>Node2&#45;&gt;Node3</title>
<path fill="none" stroke="midnightblue" d="M165.02,-48C178.25,-48 194.4,-48 209.43,-48"/>
<polygon fill="midnightblue" stroke="midnightblue" points="209.6,-51.5 219.6,-48 209.6,-44.5 209.6,-51.5"/>
</g>
</g>
</svg>
