<?xml version="1.0" encoding="UTF-8" standalone="no"?>
<!DOCTYPE svg PUBLIC "-//W3C//DTD SVG 1.1//EN"
 "http://www.w3.org/Graphics/SVG/1.1/DTD/svg11.dtd">
<!-- Generated by graphviz version 2.43.0 (0)
 -->
<!-- Title: Message::Message Pages: 1 -->
<svg width="267pt" height="66pt"
 viewBox="0.00 0.00 267.00 66.00" xmlns="http://www.w3.org/2000/svg" xmlns:xlink="http://www.w3.org/1999/xlink">
<g id="graph0" class="graph" transform="scale(1 1) rotate(0) translate(4 62)">
<title>Message::Message</title>
<polygon fill="white" stroke="transparent" points="-4,4 -4,-62 263,-62 263,4 -4,4"/>
<!-- Node1 -->
<g id="node1" class="node">
<title>Node1</title>
<g id="a_node1"><a xlink:title="Construct a new Message:: Message object.">
<polygon fill="#bfbfbf" stroke="black" points="0,-19.5 0,-38.5 110,-38.5 110,-19.5 0,-19.5"/>
<text text-anchor="middle" x="55" y="-26.5" font-family="Helvetica,sans-Serif" font-size="10.00">Message::Message</text>
</a>
</g>
</g>
<!-- Node2 -->
<g id="node2" class="node">
<title>Node2</title>
<g id="a_node2"><a xlink:href="classObject.html#a6d4dd501ee4848dfe26216b30aeb64ce" target="_top" xlink:title="This method sets the scale matrix.">
<polygon fill="white" stroke="black" points="155,-38.5 155,-57.5 250,-57.5 250,-38.5 155,-38.5"/>
<text text-anchor="middle" x="202.5" y="-45.5" font-family="Helvetica,sans-Serif" font-size="10.00">Object::setScale</text>
</a>
</g>
</g>
<!-- Node1&#45;&gt;Node2 -->
<g id="edge1" class="edge">
<title>Node1&#45;&gt;Node2</title>
<path fill="none" stroke="midnightblue" d="M110.18,-36.07C121.44,-37.55 133.33,-39.1 144.68,-40.58"/>
<polygon fill="midnightblue" stroke="midnightblue" points="144.55,-44.09 154.92,-41.92 145.46,-37.15 144.55,-44.09"/>
</g>
<!-- Node3 -->
<g id="node3" class="node">
<title>Node3</title>
<g id="a_node3"><a xlink:href="classObject.html#ac8ce37df2fa751bfbbf0c8c2e3499a0d" target="_top" xlink:title="This method sets the translation matrix.">
<polygon fill="white" stroke="black" points="146,-0.5 146,-19.5 259,-19.5 259,-0.5 146,-0.5"/>
<text text-anchor="middle" x="202.5" y="-7.5" font-family="Helvetica,sans-Serif" font-size="10.00">Object::setTranslate</text>
</a>
</g>
</g>
<!-- Node1&#45;&gt;Node3 -->
<g id="edge2" class="edge">
<title>Node1&#45;&gt;Node3</title>
<path fill="none" stroke="midnightblue" d="M110.18,-21.93C118.54,-20.83 127.25,-19.7 135.84,-18.57"/>
<polygon fill="midnightblue" stroke="midnightblue" points="136.36,-22.04 145.82,-17.27 135.45,-15.1 136.36,-22.04"/>
</g>
</g>
</svg>
