<?xml version="1.0" encoding="UTF-8" standalone="no"?>
<!DOCTYPE svg PUBLIC "-//W3C//DTD SVG 1.1//EN"
 "http://www.w3.org/Graphics/SVG/1.1/DTD/svg11.dtd">
<!-- Generated by graphviz version 2.43.0 (0)
 -->
<!-- Title: Simulation Pages: 1 -->
<svg width="721pt" height="1741pt"
 viewBox="0.00 0.00 720.50 1741.00" xmlns="http://www.w3.org/2000/svg" xmlns:xlink="http://www.w3.org/1999/xlink">
<g id="graph0" class="graph" transform="scale(1 1) rotate(0) translate(4 1737)">
<title>Simulation</title>
<polygon fill="white" stroke="transparent" points="-4,4 -4,-1737 716.5,-1737 716.5,4 -4,4"/>
<!-- Node1 -->
<g id="node1" class="node">
<title>Node1</title>
<g id="a_node1"><a xlink:title="This class is used to generate the simulation.">
<polygon fill="#bfbfbf" stroke="black" points="311,-0.5 311,-134.5 472,-134.5 472,-0.5 311,-0.5"/>
<text text-anchor="middle" x="391.5" y="-122.5" font-family="Helvetica,sans-Serif" font-size="10.00">Simulation</text>
<polyline fill="none" stroke="black" points="311,-115.5 472,-115.5 "/>
<text text-anchor="start" x="319" y="-103.5" font-family="Helvetica,sans-Serif" font-size="10.00">&#45; glm::mat4 camera</text>
<polyline fill="none" stroke="black" points="311,-96.5 472,-96.5 "/>
<text text-anchor="start" x="319" y="-84.5" font-family="Helvetica,sans-Serif" font-size="10.00">+ Simulation()</text>
<text text-anchor="start" x="319" y="-73.5" font-family="Helvetica,sans-Serif" font-size="10.00">+ void init(GLuint programID)</text>
<text text-anchor="start" x="319" y="-62.5" font-family="Helvetica,sans-Serif" font-size="10.00">+ void changeCamera(int</text>
<text text-anchor="start" x="319" y="-51.5" font-family="Helvetica,sans-Serif" font-size="10.00"> camera)</text>
<text text-anchor="start" x="319" y="-40.5" font-family="Helvetica,sans-Serif" font-size="10.00">+ Simulation()</text>
<text text-anchor="start" x="319" y="-29.5" font-family="Helvetica,sans-Serif" font-size="10.00">+ void init(GLuint programID)</text>
<text text-anchor="start" x="319" y="-18.5" font-family="Helvetica,sans-Serif" font-size="10.00">+ void changeCamera(int</text>
<text text-anchor="start" x="319" y="-7.5" font-family="Helvetica,sans-Serif" font-size="10.00"> camera)</text>
</a>
</g>
</g>
<!-- Node2 -->
<g id="node2" class="node">
<title>Node2</title>
<g id="a_node2"><a xlink:href="classEnemy.html" target="_top" xlink:title="This class is used to create and draw the enemy.">
<polygon fill="white" stroke="black" points="0,-215.5 0,-327.5 155,-327.5 155,-215.5 0,-215.5"/>
<text text-anchor="middle" x="77.5" y="-315.5" font-family="Helvetica,sans-Serif" font-size="10.00">Enemy</text>
<polyline fill="none" stroke="black" points="0,-308.5 155,-308.5 "/>
<text text-anchor="middle" x="77.5" y="-296.5" font-family="Helvetica,sans-Serif" font-size="10.00"> </text>
<polyline fill="none" stroke="black" points="0,-289.5 155,-289.5 "/>
<text text-anchor="start" x="8" y="-277.5" font-family="Helvetica,sans-Serif" font-size="10.00">+ Enemy()</text>
<text text-anchor="start" x="8" y="-266.5" font-family="Helvetica,sans-Serif" font-size="10.00">+ void draw(GLuint program</text>
<text text-anchor="start" x="8" y="-255.5" font-family="Helvetica,sans-Serif" font-size="10.00">ID, glm::mat4 camera)</text>
<text text-anchor="start" x="8" y="-244.5" font-family="Helvetica,sans-Serif" font-size="10.00">+ Enemy()</text>
<text text-anchor="start" x="8" y="-233.5" font-family="Helvetica,sans-Serif" font-size="10.00">+ void draw(GLuint program</text>
<text text-anchor="start" x="8" y="-222.5" font-family="Helvetica,sans-Serif" font-size="10.00">ID, glm::mat4 camera)</text>
</a>
</g>
</g>
<!-- Node2&#45;&gt;Node1 -->
<g id="edge1" class="edge">
<title>Node2&#45;&gt;Node1</title>
<path fill="none" stroke="#404040" d="M125.3,-215.47C137.09,-203.61 150.18,-191.73 163.5,-182 205.3,-151.47 256.54,-125.13 299.86,-105.53"/>
<polygon fill="none" stroke="#404040" points="300.02,-105.46 303.87,-99.36 310.98,-100.57 307.13,-106.67 300.02,-105.46"/>
<text text-anchor="middle" x="225" y="-156" font-family="Helvetica,sans-Serif" font-size="10.00"> &#45;enemy</text>
</g>
<!-- Node3 -->
<g id="node3" class="node">
<title>Node3</title>
<g id="a_node3"><a xlink:href="classModel.html" target="_top" xlink:title=" ">
<polygon fill="white" stroke="black" points="18.5,-606.5 18.5,-718.5 158.5,-718.5 158.5,-606.5 18.5,-606.5"/>
<text text-anchor="middle" x="88.5" y="-706.5" font-family="Helvetica,sans-Serif" font-size="10.00">Model&lt; Obj &gt;</text>
<polyline fill="none" stroke="black" points="18.5,-699.5 158.5,-699.5 "/>
<text text-anchor="middle" x="88.5" y="-687.5" font-family="Helvetica,sans-Serif" font-size="10.00"> </text>
<polyline fill="none" stroke="black" points="18.5,-680.5 158.5,-680.5 "/>
<text text-anchor="start" x="26.5" y="-668.5" font-family="Helvetica,sans-Serif" font-size="10.00">+ Model(string fileName,</text>
<text text-anchor="start" x="26.5" y="-657.5" font-family="Helvetica,sans-Serif" font-size="10.00"> float r, float g, float b)</text>
<text text-anchor="start" x="26.5" y="-646.5" font-family="Helvetica,sans-Serif" font-size="10.00">+ Model()</text>
<text text-anchor="start" x="26.5" y="-635.5" font-family="Helvetica,sans-Serif" font-size="10.00">+ Model(string fileName,</text>
<text text-anchor="start" x="26.5" y="-624.5" font-family="Helvetica,sans-Serif" font-size="10.00"> float r, float g, float b)</text>
<text text-anchor="start" x="26.5" y="-613.5" font-family="Helvetica,sans-Serif" font-size="10.00">+ Model()</text>
</a>
</g>
</g>
<!-- Node3&#45;&gt;Node2 -->
<g id="edge2" class="edge">
<title>Node3&#45;&gt;Node2</title>
<path fill="none" stroke="#404040" d="M86.94,-606.18C84.95,-536.04 81.53,-415.19 79.4,-339.78"/>
<polygon fill="none" stroke="#404040" points="79.4,-339.63 75.23,-333.74 79.06,-327.63 83.23,-333.51 79.4,-339.63"/>
<text text-anchor="middle" x="103" y="-398.5" font-family="Helvetica,sans-Serif" font-size="10.00"> &#45;enemy</text>
</g>
<!-- Node4 -->
<g id="node4" class="node">
<title>Node4</title>
<g id="a_node4"><a xlink:href="classObj.html" target="_top" xlink:title="This class is used to create objects using the obj file.">
<polygon fill="white" stroke="black" points="25.5,-931.5 25.5,-1043.5 151.5,-1043.5 151.5,-931.5 25.5,-931.5"/>
<text text-anchor="middle" x="88.5" y="-1031.5" font-family="Helvetica,sans-Serif" font-size="10.00">Obj</text>
<polyline fill="none" stroke="black" points="25.5,-1024.5 151.5,-1024.5 "/>
<text text-anchor="middle" x="88.5" y="-1012.5" font-family="Helvetica,sans-Serif" font-size="10.00"> </text>
<polyline fill="none" stroke="black" points="25.5,-1005.5 151.5,-1005.5 "/>
<text text-anchor="start" x="33.5" y="-993.5" font-family="Helvetica,sans-Serif" font-size="10.00">+ Obj(string fileName,</text>
<text text-anchor="start" x="33.5" y="-982.5" font-family="Helvetica,sans-Serif" font-size="10.00"> float r, float g, float b)</text>
<text text-anchor="start" x="33.5" y="-971.5" font-family="Helvetica,sans-Serif" font-size="10.00">+ void load()</text>
<text text-anchor="start" x="33.5" y="-960.5" font-family="Helvetica,sans-Serif" font-size="10.00">+ Obj(string fileName,</text>
<text text-anchor="start" x="33.5" y="-949.5" font-family="Helvetica,sans-Serif" font-size="10.00"> float r, float g, float b)</text>
<text text-anchor="start" x="33.5" y="-938.5" font-family="Helvetica,sans-Serif" font-size="10.00">+ void load()</text>
</a>
</g>
</g>
<!-- Node4&#45;&gt;Node3 -->
<g id="edge3" class="edge">
<title>Node4&#45;&gt;Node3</title>
<path fill="none" stroke="midnightblue" d="M82.96,-921.3C81.25,-861.81 81.35,-774.84 83.27,-718.7"/>
<polygon fill="none" stroke="midnightblue" points="79.46,-921.46 83.27,-931.34 86.46,-921.24 79.46,-921.46"/>
</g>
<!-- Node4&#45;&gt;Node3 -->
<g id="edge6" class="edge">
<title>Node4&#45;&gt;Node3</title>
<path fill="none" stroke="midnightblue" d="M94.04,-921.3C95.75,-861.81 95.65,-774.84 93.73,-718.7"/>
<polygon fill="none" stroke="midnightblue" points="90.54,-921.24 93.73,-931.34 97.54,-921.46 90.54,-921.24"/>
</g>
<!-- Node5 -->
<g id="node5" class="node">
<title>Node5</title>
<g id="a_node5"><a xlink:href="classObject.html" target="_top" xlink:title="This class is used to create objects using vertices and faces.">
<polygon fill="white" stroke="black" points="72.5,-1081.5 72.5,-1732.5 250.5,-1732.5 250.5,-1081.5 72.5,-1081.5"/>
<text text-anchor="middle" x="161.5" y="-1720.5" font-family="Helvetica,sans-Serif" font-size="10.00">Object</text>
<polyline fill="none" stroke="black" points="72.5,-1713.5 250.5,-1713.5 "/>
<text text-anchor="start" x="80.5" y="-1701.5" font-family="Helvetica,sans-Serif" font-size="10.00"># string fileName</text>
<text text-anchor="start" x="80.5" y="-1690.5" font-family="Helvetica,sans-Serif" font-size="10.00"># vector&lt; Vertex &gt; vertices</text>
<text text-anchor="start" x="80.5" y="-1679.5" font-family="Helvetica,sans-Serif" font-size="10.00"># vector&lt; Face &gt; faces</text>
<text text-anchor="start" x="80.5" y="-1668.5" font-family="Helvetica,sans-Serif" font-size="10.00"># float r</text>
<text text-anchor="start" x="80.5" y="-1657.5" font-family="Helvetica,sans-Serif" font-size="10.00"># float g</text>
<text text-anchor="start" x="80.5" y="-1646.5" font-family="Helvetica,sans-Serif" font-size="10.00"># float b</text>
<text text-anchor="start" x="80.5" y="-1635.5" font-family="Helvetica,sans-Serif" font-size="10.00"># GLuint colorbuffer</text>
<text text-anchor="start" x="80.5" y="-1624.5" font-family="Helvetica,sans-Serif" font-size="10.00"># GLuint datasize</text>
<text text-anchor="start" x="80.5" y="-1613.5" font-family="Helvetica,sans-Serif" font-size="10.00"># GLuint MatrixID</text>
<text text-anchor="start" x="80.5" y="-1602.5" font-family="Helvetica,sans-Serif" font-size="10.00"># GLuint vertexbuffer</text>
<text text-anchor="start" x="80.5" y="-1591.5" font-family="Helvetica,sans-Serif" font-size="10.00"># glm::mat4 scale</text>
<text text-anchor="start" x="80.5" y="-1580.5" font-family="Helvetica,sans-Serif" font-size="10.00"># glm::mat4 transform</text>
<text text-anchor="start" x="80.5" y="-1569.5" font-family="Helvetica,sans-Serif" font-size="10.00"># glm::mat4 rotate</text>
<text text-anchor="start" x="80.5" y="-1558.5" font-family="Helvetica,sans-Serif" font-size="10.00"># glm::mat4 translate</text>
<polyline fill="none" stroke="black" points="72.5,-1551.5 250.5,-1551.5 "/>
<text text-anchor="start" x="80.5" y="-1539.5" font-family="Helvetica,sans-Serif" font-size="10.00">+ Object(string fileName,</text>
<text text-anchor="start" x="80.5" y="-1528.5" font-family="Helvetica,sans-Serif" font-size="10.00"> float r, float g, float b)</text>
<text text-anchor="start" x="80.5" y="-1517.5" font-family="Helvetica,sans-Serif" font-size="10.00">+ vector&lt; Vertex &gt; getVertices()</text>
<text text-anchor="start" x="80.5" y="-1506.5" font-family="Helvetica,sans-Serif" font-size="10.00">+ vector&lt; Face &gt; getFaces()</text>
<text text-anchor="start" x="80.5" y="-1495.5" font-family="Helvetica,sans-Serif" font-size="10.00">+ virtual void load()=0</text>
<text text-anchor="start" x="80.5" y="-1484.5" font-family="Helvetica,sans-Serif" font-size="10.00">+ void draw(GLuint program</text>
<text text-anchor="start" x="80.5" y="-1473.5" font-family="Helvetica,sans-Serif" font-size="10.00">ID, glm::mat4 transform)</text>
<text text-anchor="start" x="80.5" y="-1462.5" font-family="Helvetica,sans-Serif" font-size="10.00">+ void setScale(glm::</text>
<text text-anchor="start" x="80.5" y="-1451.5" font-family="Helvetica,sans-Serif" font-size="10.00">mat4 scale)</text>
<text text-anchor="start" x="80.5" y="-1440.5" font-family="Helvetica,sans-Serif" font-size="10.00">+ void setRotate(glm</text>
<text text-anchor="start" x="80.5" y="-1429.5" font-family="Helvetica,sans-Serif" font-size="10.00">::mat4 rotate)</text>
<text text-anchor="start" x="80.5" y="-1418.5" font-family="Helvetica,sans-Serif" font-size="10.00">+ void setTranslate(glm</text>
<text text-anchor="start" x="80.5" y="-1407.5" font-family="Helvetica,sans-Serif" font-size="10.00">::mat4 translate)</text>
<text text-anchor="start" x="80.5" y="-1396.5" font-family="Helvetica,sans-Serif" font-size="10.00">+ glm::mat4 getScale()</text>
<text text-anchor="start" x="80.5" y="-1385.5" font-family="Helvetica,sans-Serif" font-size="10.00">+ glm::mat4 getRotate()</text>
<text text-anchor="start" x="80.5" y="-1374.5" font-family="Helvetica,sans-Serif" font-size="10.00">+ glm::mat4 getTranslate()</text>
<text text-anchor="start" x="80.5" y="-1363.5" font-family="Helvetica,sans-Serif" font-size="10.00">+ glm::mat4 getTransform()</text>
<text text-anchor="start" x="80.5" y="-1352.5" font-family="Helvetica,sans-Serif" font-size="10.00">+ Object(string fileName,</text>
<text text-anchor="start" x="80.5" y="-1341.5" font-family="Helvetica,sans-Serif" font-size="10.00"> float r, float g, float b)</text>
<text text-anchor="start" x="80.5" y="-1330.5" font-family="Helvetica,sans-Serif" font-size="10.00">+ vector&lt; Vertex &gt; getVertices()</text>
<text text-anchor="start" x="80.5" y="-1319.5" font-family="Helvetica,sans-Serif" font-size="10.00">+ vector&lt; Face &gt; getFaces()</text>
<text text-anchor="start" x="80.5" y="-1308.5" font-family="Helvetica,sans-Serif" font-size="10.00">+ virtual void load()=0</text>
<text text-anchor="start" x="80.5" y="-1297.5" font-family="Helvetica,sans-Serif" font-size="10.00">+ void draw(GLuint program</text>
<text text-anchor="start" x="80.5" y="-1286.5" font-family="Helvetica,sans-Serif" font-size="10.00">ID, glm::mat4 transform)</text>
<text text-anchor="start" x="80.5" y="-1275.5" font-family="Helvetica,sans-Serif" font-size="10.00">+ void setScale(glm::</text>
<text text-anchor="start" x="80.5" y="-1264.5" font-family="Helvetica,sans-Serif" font-size="10.00">mat4 scale)</text>
<text text-anchor="start" x="80.5" y="-1253.5" font-family="Helvetica,sans-Serif" font-size="10.00">+ void setRotate(glm</text>
<text text-anchor="start" x="80.5" y="-1242.5" font-family="Helvetica,sans-Serif" font-size="10.00">::mat4 rotate)</text>
<text text-anchor="start" x="80.5" y="-1231.5" font-family="Helvetica,sans-Serif" font-size="10.00">+ void setTranslate(glm</text>
<text text-anchor="start" x="80.5" y="-1220.5" font-family="Helvetica,sans-Serif" font-size="10.00">::mat4 translate)</text>
<text text-anchor="start" x="80.5" y="-1209.5" font-family="Helvetica,sans-Serif" font-size="10.00">+ glm::mat4 getScale()</text>
<text text-anchor="start" x="80.5" y="-1198.5" font-family="Helvetica,sans-Serif" font-size="10.00">+ glm::mat4 getRotate()</text>
<text text-anchor="start" x="80.5" y="-1187.5" font-family="Helvetica,sans-Serif" font-size="10.00">+ glm::mat4 getTranslate()</text>
<text text-anchor="start" x="80.5" y="-1176.5" font-family="Helvetica,sans-Serif" font-size="10.00">+ glm::mat4 getTransform()</text>
<text text-anchor="start" x="80.5" y="-1165.5" font-family="Helvetica,sans-Serif" font-size="10.00"># vector&lt; string &gt; split</text>
<text text-anchor="start" x="80.5" y="-1154.5" font-family="Helvetica,sans-Serif" font-size="10.00">(const string &amp;str, const</text>
<text text-anchor="start" x="80.5" y="-1143.5" font-family="Helvetica,sans-Serif" font-size="10.00"> string &amp;delim)</text>
<text text-anchor="start" x="80.5" y="-1132.5" font-family="Helvetica,sans-Serif" font-size="10.00"># void set_data()</text>
<text text-anchor="start" x="80.5" y="-1121.5" font-family="Helvetica,sans-Serif" font-size="10.00"># vector&lt; string &gt; split</text>
<text text-anchor="start" x="80.5" y="-1110.5" font-family="Helvetica,sans-Serif" font-size="10.00">(const string &amp;str, const</text>
<text text-anchor="start" x="80.5" y="-1099.5" font-family="Helvetica,sans-Serif" font-size="10.00"> string &amp;delim)</text>
<text text-anchor="start" x="80.5" y="-1088.5" font-family="Helvetica,sans-Serif" font-size="10.00"># void set_data()</text>
</a>
</g>
</g>
<!-- Node5&#45;&gt;Node4 -->
<g id="edge4" class="edge">
<title>Node5&#45;&gt;Node4</title>
<path fill="none" stroke="midnightblue" d="M97.47,-1071.32C95.96,-1061.41 94.59,-1052.11 93.38,-1043.58"/>
<polygon fill="none" stroke="midnightblue" points="94.04,-1072.06 99.02,-1081.42 100.96,-1071 94.04,-1072.06"/>
</g>
<!-- Node5&#45;&gt;Node4 -->
<g id="edge5" class="edge">
<title>Node5&#45;&gt;Node4</title>
<path fill="none" stroke="midnightblue" d="M108.49,-1071.32C106.54,-1061.41 104.65,-1052.11 102.88,-1043.58"/>
<polygon fill="none" stroke="midnightblue" points="105.11,-1072.28 110.47,-1081.42 111.98,-1070.93 105.11,-1072.28"/>
</g>
<!-- Node11 -->
<g id="node11" class="node">
<title>Node11</title>
<g id="a_node11"><a xlink:href="classPly.html" target="_top" xlink:title="This class is used to create objects using the ply file.">
<polygon fill="white" stroke="black" points="170,-931.5 170,-1043.5 295,-1043.5 295,-931.5 170,-931.5"/>
<text text-anchor="middle" x="232.5" y="-1031.5" font-family="Helvetica,sans-Serif" font-size="10.00">Ply</text>
<polyline fill="none" stroke="black" points="170,-1024.5 295,-1024.5 "/>
<text text-anchor="middle" x="232.5" y="-1012.5" font-family="Helvetica,sans-Serif" font-size="10.00"> </text>
<polyline fill="none" stroke="black" points="170,-1005.5 295,-1005.5 "/>
<text text-anchor="start" x="178" y="-993.5" font-family="Helvetica,sans-Serif" font-size="10.00">+ Ply(string fileName,</text>
<text text-anchor="start" x="178" y="-982.5" font-family="Helvetica,sans-Serif" font-size="10.00"> float r, float g, float b)</text>
<text text-anchor="start" x="178" y="-971.5" font-family="Helvetica,sans-Serif" font-size="10.00">+ void load()</text>
<text text-anchor="start" x="178" y="-960.5" font-family="Helvetica,sans-Serif" font-size="10.00">+ Ply(string fileName,</text>
<text text-anchor="start" x="178" y="-949.5" font-family="Helvetica,sans-Serif" font-size="10.00"> float r, float g, float b)</text>
<text text-anchor="start" x="178" y="-938.5" font-family="Helvetica,sans-Serif" font-size="10.00">+ void load()</text>
</a>
</g>
</g>
<!-- Node5&#45;&gt;Node11 -->
<g id="edge14" class="edge">
<title>Node5&#45;&gt;Node11</title>
<path fill="none" stroke="midnightblue" d="M212.91,-1071.32C214.81,-1061.41 216.65,-1052.11 218.39,-1043.58"/>
<polygon fill="none" stroke="midnightblue" points="209.41,-1070.94 210.97,-1081.42 216.29,-1072.25 209.41,-1070.94"/>
</g>
<!-- Node5&#45;&gt;Node11 -->
<g id="edge15" class="edge">
<title>Node5&#45;&gt;Node11</title>
<path fill="none" stroke="midnightblue" d="M223.93,-1071.32C225.39,-1061.41 226.72,-1052.11 227.88,-1043.58"/>
<polygon fill="none" stroke="midnightblue" points="220.43,-1071.01 222.42,-1081.42 227.36,-1072.04 220.43,-1071.01"/>
</g>
<!-- Node6 -->
<g id="node6" class="node">
<title>Node6</title>
<g id="a_node6"><a xlink:href="classModel.html" target="_top" xlink:title="This class is used to create models using Obj and Ply.">
<polygon fill="white" stroke="black" points="313.5,-931.5 313.5,-1043.5 453.5,-1043.5 453.5,-931.5 313.5,-931.5"/>
<text text-anchor="middle" x="383.5" y="-1031.5" font-family="Helvetica,sans-Serif" font-size="10.00">Model&lt; T &gt;</text>
<polyline fill="none" stroke="black" points="313.5,-1024.5 453.5,-1024.5 "/>
<text text-anchor="middle" x="383.5" y="-1012.5" font-family="Helvetica,sans-Serif" font-size="10.00"> </text>
<polyline fill="none" stroke="black" points="313.5,-1005.5 453.5,-1005.5 "/>
<text text-anchor="start" x="321.5" y="-993.5" font-family="Helvetica,sans-Serif" font-size="10.00">+ Model(string fileName,</text>
<text text-anchor="start" x="321.5" y="-982.5" font-family="Helvetica,sans-Serif" font-size="10.00"> float r, float g, float b)</text>
<text text-anchor="start" x="321.5" y="-971.5" font-family="Helvetica,sans-Serif" font-size="10.00">+ Model()</text>
<text text-anchor="start" x="321.5" y="-960.5" font-family="Helvetica,sans-Serif" font-size="10.00">+ Model(string fileName,</text>
<text text-anchor="start" x="321.5" y="-949.5" font-family="Helvetica,sans-Serif" font-size="10.00"> float r, float g, float b)</text>
<text text-anchor="start" x="321.5" y="-938.5" font-family="Helvetica,sans-Serif" font-size="10.00">+ Model()</text>
</a>
</g>
</g>
<!-- Node6&#45;&gt;Node3 -->
<g id="edge7" class="edge">
<title>Node6&#45;&gt;Node3</title>
<path fill="none" stroke="orange" d="M304.43,-931.48C304.12,-931.32 303.81,-931.16 303.5,-931 248.1,-902.56 215.93,-927.64 171.5,-884 126.27,-839.57 105.38,-768.11 95.94,-718.64"/>
<polygon fill="orange" stroke="orange" points="303.01,-934.69 313.46,-936.42 306.37,-928.55 303.01,-934.69"/>
<text text-anchor="middle" x="253" y="-905" font-family="Helvetica,sans-Serif" font-size="10.00"> &lt; Obj &gt;</text>
</g>
<!-- Node10 -->
<g id="node10" class="node">
<title>Node10</title>
<g id="a_node10"><a xlink:href="classModel.html" target="_top" xlink:title=" ">
<polygon fill="white" stroke="black" points="180.5,-606.5 180.5,-718.5 320.5,-718.5 320.5,-606.5 180.5,-606.5"/>
<text text-anchor="middle" x="250.5" y="-706.5" font-family="Helvetica,sans-Serif" font-size="10.00">Model&lt; Ply &gt;</text>
<polyline fill="none" stroke="black" points="180.5,-699.5 320.5,-699.5 "/>
<text text-anchor="middle" x="250.5" y="-687.5" font-family="Helvetica,sans-Serif" font-size="10.00"> </text>
<polyline fill="none" stroke="black" points="180.5,-680.5 320.5,-680.5 "/>
<text text-anchor="start" x="188.5" y="-668.5" font-family="Helvetica,sans-Serif" font-size="10.00">+ Model(string fileName,</text>
<text text-anchor="start" x="188.5" y="-657.5" font-family="Helvetica,sans-Serif" font-size="10.00"> float r, float g, float b)</text>
<text text-anchor="start" x="188.5" y="-646.5" font-family="Helvetica,sans-Serif" font-size="10.00">+ Model()</text>
<text text-anchor="start" x="188.5" y="-635.5" font-family="Helvetica,sans-Serif" font-size="10.00">+ Model(string fileName,</text>
<text text-anchor="start" x="188.5" y="-624.5" font-family="Helvetica,sans-Serif" font-size="10.00"> float r, float g, float b)</text>
<text text-anchor="start" x="188.5" y="-613.5" font-family="Helvetica,sans-Serif" font-size="10.00">+ Model()</text>
</a>
</g>
</g>
<!-- Node6&#45;&gt;Node10 -->
<g id="edge17" class="edge">
<title>Node6&#45;&gt;Node10</title>
<path fill="none" stroke="orange" d="M356.96,-922.04C332.45,-862.53 296.44,-775.07 273.23,-718.7"/>
<polygon fill="orange" stroke="orange" points="353.74,-923.43 360.79,-931.34 360.22,-920.76 353.74,-923.43"/>
<text text-anchor="middle" x="371" y="-905" font-family="Helvetica,sans-Serif" font-size="10.00"> &lt; Ply &gt;</text>
</g>
<!-- Node7 -->
<g id="node7" class="node">
<title>Node7</title>
<g id="a_node7"><a xlink:title=" ">
<polygon fill="white" stroke="#bfbfbf" points="369,-1378.5 369,-1435.5 398,-1435.5 398,-1378.5 369,-1378.5"/>
<text text-anchor="middle" x="383.5" y="-1423.5" font-family="Helvetica,sans-Serif" font-size="10.00">T</text>
<polyline fill="none" stroke="#bfbfbf" points="369,-1416.5 398,-1416.5 "/>
<text text-anchor="middle" x="383.5" y="-1404.5" font-family="Helvetica,sans-Serif" font-size="10.00"> </text>
<polyline fill="none" stroke="#bfbfbf" points="369,-1397.5 398,-1397.5 "/>
<text text-anchor="middle" x="383.5" y="-1385.5" font-family="Helvetica,sans-Serif" font-size="10.00"> </text>
</a>
</g>
</g>
<!-- Node7&#45;&gt;Node6 -->
<g id="edge8" class="edge">
<title>Node7&#45;&gt;Node6</title>
<path fill="none" stroke="midnightblue" d="M379.41,-1368.02C376.1,-1293.93 375.88,-1129.82 378.75,-1043.7"/>
<polygon fill="none" stroke="midnightblue" points="375.93,-1368.47 379.92,-1378.28 382.92,-1368.12 375.93,-1368.47"/>
</g>
<!-- Node7&#45;&gt;Node6 -->
<g id="edge9" class="edge">
<title>Node7&#45;&gt;Node6</title>
<path fill="none" stroke="midnightblue" d="M387.59,-1368.02C390.9,-1293.93 391.12,-1129.82 388.25,-1043.7"/>
<polygon fill="none" stroke="midnightblue" points="384.08,-1368.12 387.08,-1378.28 391.07,-1368.47 384.08,-1368.12"/>
</g>
<!-- Node8 -->
<g id="node8" class="node">
<title>Node8</title>
<g id="a_node8"><a xlink:href="classRobot.html" target="_top" xlink:title="This class is used to create and draw the robot.">
<polygon fill="white" stroke="black" points="549,-182.5 549,-360.5 704,-360.5 704,-182.5 549,-182.5"/>
<text text-anchor="middle" x="626.5" y="-348.5" font-family="Helvetica,sans-Serif" font-size="10.00">Robot</text>
<polyline fill="none" stroke="black" points="549,-341.5 704,-341.5 "/>
<text text-anchor="start" x="557" y="-329.5" font-family="Helvetica,sans-Serif" font-size="10.00">&#45; unsigned int pathIndex</text>
<text text-anchor="start" x="557" y="-318.5" font-family="Helvetica,sans-Serif" font-size="10.00">&#45; vector&lt; Vertex &gt; path</text>
<text text-anchor="start" x="557" y="-307.5" font-family="Helvetica,sans-Serif" font-size="10.00">&#45; float t</text>
<polyline fill="none" stroke="black" points="549,-300.5 704,-300.5 "/>
<text text-anchor="start" x="557" y="-288.5" font-family="Helvetica,sans-Serif" font-size="10.00">+ Robot()</text>
<text text-anchor="start" x="557" y="-277.5" font-family="Helvetica,sans-Serif" font-size="10.00">+ void draw(GLuint program</text>
<text text-anchor="start" x="557" y="-266.5" font-family="Helvetica,sans-Serif" font-size="10.00">ID, glm::mat4 camera)</text>
<text text-anchor="start" x="557" y="-255.5" font-family="Helvetica,sans-Serif" font-size="10.00">+ void setP2(Vertex P2)</text>
<text text-anchor="start" x="557" y="-244.5" font-family="Helvetica,sans-Serif" font-size="10.00">+ void setP3(Vertex P3)</text>
<text text-anchor="start" x="557" y="-233.5" font-family="Helvetica,sans-Serif" font-size="10.00">+ Robot()</text>
<text text-anchor="start" x="557" y="-222.5" font-family="Helvetica,sans-Serif" font-size="10.00">+ void draw(GLuint program</text>
<text text-anchor="start" x="557" y="-211.5" font-family="Helvetica,sans-Serif" font-size="10.00">ID, glm::mat4 camera)</text>
<text text-anchor="start" x="557" y="-200.5" font-family="Helvetica,sans-Serif" font-size="10.00">+ void setP2(Vertex P2)</text>
<text text-anchor="start" x="557" y="-189.5" font-family="Helvetica,sans-Serif" font-size="10.00">+ void setP3(Vertex P3)</text>
</a>
</g>
</g>
<!-- Node8&#45;&gt;Node1 -->
<g id="edge10" class="edge">
<title>Node8&#45;&gt;Node1</title>
<path fill="none" stroke="#404040" d="M548.71,-189.44C545.97,-186.9 543.23,-184.42 540.5,-182 522.1,-165.69 501.57,-149.11 481.77,-133.84"/>
<polygon fill="none" stroke="#404040" points="481.65,-133.75 474.46,-133.28 472.12,-126.46 479.32,-126.93 481.65,-133.75"/>
<text text-anchor="middle" x="533" y="-156" font-family="Helvetica,sans-Serif" font-size="10.00"> &#45;robot</text>
</g>
<!-- Node9 -->
<g id="node9" class="node">
<title>Node9</title>
<g id="a_node9"><a xlink:href="classVertex.html" target="_top" xlink:title="This class is used to create vertices.">
<polygon fill="white" stroke="black" points="540.5,-441.5 540.5,-883.5 712.5,-883.5 712.5,-441.5 540.5,-441.5"/>
<text text-anchor="middle" x="626.5" y="-871.5" font-family="Helvetica,sans-Serif" font-size="10.00">Vertex</text>
<polyline fill="none" stroke="black" points="540.5,-864.5 712.5,-864.5 "/>
<text text-anchor="start" x="548.5" y="-852.5" font-family="Helvetica,sans-Serif" font-size="10.00">&#45; float x</text>
<text text-anchor="start" x="548.5" y="-841.5" font-family="Helvetica,sans-Serif" font-size="10.00">&#45; float y</text>
<text text-anchor="start" x="548.5" y="-830.5" font-family="Helvetica,sans-Serif" font-size="10.00">&#45; float z</text>
<polyline fill="none" stroke="black" points="540.5,-823.5 712.5,-823.5 "/>
<text text-anchor="start" x="548.5" y="-811.5" font-family="Helvetica,sans-Serif" font-size="10.00">+ Vertex()</text>
<text text-anchor="start" x="548.5" y="-800.5" font-family="Helvetica,sans-Serif" font-size="10.00">+ Vertex(float vx, float</text>
<text text-anchor="start" x="548.5" y="-789.5" font-family="Helvetica,sans-Serif" font-size="10.00"> vy, float vz)</text>
<text text-anchor="start" x="548.5" y="-778.5" font-family="Helvetica,sans-Serif" font-size="10.00">+ void print()</text>
<text text-anchor="start" x="548.5" y="-767.5" font-family="Helvetica,sans-Serif" font-size="10.00">+ Vertex operator&#45;(Vertex op2)</text>
<text text-anchor="start" x="548.5" y="-756.5" font-family="Helvetica,sans-Serif" font-size="10.00">+ Vertex operator+(Vertex op2)</text>
<text text-anchor="start" x="548.5" y="-745.5" font-family="Helvetica,sans-Serif" font-size="10.00">+ Vertex operator*(float op2)</text>
<text text-anchor="start" x="548.5" y="-734.5" font-family="Helvetica,sans-Serif" font-size="10.00">+ bool operator==(Vertex op2)</text>
<text text-anchor="start" x="548.5" y="-723.5" font-family="Helvetica,sans-Serif" font-size="10.00">+ Row&lt; float &gt; row()</text>
<text text-anchor="start" x="548.5" y="-712.5" font-family="Helvetica,sans-Serif" font-size="10.00">+ Col&lt; float &gt; homog()</text>
<text text-anchor="start" x="548.5" y="-701.5" font-family="Helvetica,sans-Serif" font-size="10.00">+ float getX()</text>
<text text-anchor="start" x="548.5" y="-690.5" font-family="Helvetica,sans-Serif" font-size="10.00">+ float getY()</text>
<text text-anchor="start" x="548.5" y="-679.5" font-family="Helvetica,sans-Serif" font-size="10.00">+ float getZ()</text>
<text text-anchor="start" x="548.5" y="-668.5" font-family="Helvetica,sans-Serif" font-size="10.00">+ vector&lt; float &gt; getXYZ()</text>
<text text-anchor="start" x="548.5" y="-657.5" font-family="Helvetica,sans-Serif" font-size="10.00">+ void setX(float vx)</text>
<text text-anchor="start" x="548.5" y="-646.5" font-family="Helvetica,sans-Serif" font-size="10.00">+ void setY(float vy)</text>
<text text-anchor="start" x="548.5" y="-635.5" font-family="Helvetica,sans-Serif" font-size="10.00">+ void setZ(float vz)</text>
<text text-anchor="start" x="548.5" y="-624.5" font-family="Helvetica,sans-Serif" font-size="10.00">+ Vertex()</text>
<text text-anchor="start" x="548.5" y="-613.5" font-family="Helvetica,sans-Serif" font-size="10.00">+ Vertex(float vx, float</text>
<text text-anchor="start" x="548.5" y="-602.5" font-family="Helvetica,sans-Serif" font-size="10.00"> vy, float vz)</text>
<text text-anchor="start" x="548.5" y="-591.5" font-family="Helvetica,sans-Serif" font-size="10.00">+ void print()</text>
<text text-anchor="start" x="548.5" y="-580.5" font-family="Helvetica,sans-Serif" font-size="10.00">+ Vertex operator&#45;(Vertex op2)</text>
<text text-anchor="start" x="548.5" y="-569.5" font-family="Helvetica,sans-Serif" font-size="10.00">+ Vertex operator+(Vertex op2)</text>
<text text-anchor="start" x="548.5" y="-558.5" font-family="Helvetica,sans-Serif" font-size="10.00">+ Vertex operator*(float op2)</text>
<text text-anchor="start" x="548.5" y="-547.5" font-family="Helvetica,sans-Serif" font-size="10.00">+ bool operator==(Vertex op2)</text>
<text text-anchor="start" x="548.5" y="-536.5" font-family="Helvetica,sans-Serif" font-size="10.00">+ Row&lt; float &gt; row()</text>
<text text-anchor="start" x="548.5" y="-525.5" font-family="Helvetica,sans-Serif" font-size="10.00">+ Col&lt; float &gt; homog()</text>
<text text-anchor="start" x="548.5" y="-514.5" font-family="Helvetica,sans-Serif" font-size="10.00">+ float getX()</text>
<text text-anchor="start" x="548.5" y="-503.5" font-family="Helvetica,sans-Serif" font-size="10.00">+ float getY()</text>
<text text-anchor="start" x="548.5" y="-492.5" font-family="Helvetica,sans-Serif" font-size="10.00">+ float getZ()</text>
<text text-anchor="start" x="548.5" y="-481.5" font-family="Helvetica,sans-Serif" font-size="10.00">+ vector&lt; float &gt; getXYZ()</text>
<text text-anchor="start" x="548.5" y="-470.5" font-family="Helvetica,sans-Serif" font-size="10.00">+ void setX(float vx)</text>
<text text-anchor="start" x="548.5" y="-459.5" font-family="Helvetica,sans-Serif" font-size="10.00">+ void setY(float vy)</text>
<text text-anchor="start" x="548.5" y="-448.5" font-family="Helvetica,sans-Serif" font-size="10.00">+ void setZ(float vz)</text>
</a>
</g>
</g>
<!-- Node9&#45;&gt;Node8 -->
<g id="edge11" class="edge">
<title>Node9&#45;&gt;Node8</title>
<path fill="none" stroke="#404040" d="M626.5,-441.42C626.5,-417.46 626.5,-394.02 626.5,-372.6"/>
<polygon fill="none" stroke="#404040" points="626.5,-372.57 622.5,-366.57 626.5,-360.57 630.5,-366.57 626.5,-372.57"/>
<text text-anchor="middle" x="636" y="-415" font-family="Helvetica,sans-Serif" font-size="10.00"> &#45;P1</text>
<text text-anchor="middle" x="636" y="-404" font-family="Helvetica,sans-Serif" font-size="10.00">&#45;P2</text>
<text text-anchor="middle" x="636" y="-393" font-family="Helvetica,sans-Serif" font-size="10.00">&#45;P3</text>
<text text-anchor="middle" x="636" y="-382" font-family="Helvetica,sans-Serif" font-size="10.00">&#45;P4</text>
</g>
<!-- Node10&#45;&gt;Node8 -->
<g id="edge12" class="edge">
<title>Node10&#45;&gt;Node8</title>
<path fill="none" stroke="#404040" d="M303.97,-606.18C365.44,-542.59 467.2,-437.31 539.98,-362.01"/>
<polygon fill="none" stroke="#404040" points="540.37,-361.61 541.67,-354.51 548.71,-352.98 547.42,-360.07 540.37,-361.61"/>
<text text-anchor="middle" x="531" y="-398.5" font-family="Helvetica,sans-Serif" font-size="10.00"> &#45;robot</text>
</g>
<!-- Node13 -->
<g id="node13" class="node">
<title>Node13</title>
<g id="a_node13"><a xlink:href="classBall.html" target="_top" xlink:title="This class is used to create and draw the ball.">
<polygon fill="white" stroke="black" points="173,-215.5 173,-327.5 328,-327.5 328,-215.5 173,-215.5"/>
<text text-anchor="middle" x="250.5" y="-315.5" font-family="Helvetica,sans-Serif" font-size="10.00">Ball</text>
<polyline fill="none" stroke="black" points="173,-308.5 328,-308.5 "/>
<text text-anchor="middle" x="250.5" y="-296.5" font-family="Helvetica,sans-Serif" font-size="10.00"> </text>
<polyline fill="none" stroke="black" points="173,-289.5 328,-289.5 "/>
<text text-anchor="start" x="181" y="-277.5" font-family="Helvetica,sans-Serif" font-size="10.00">+ Ball()</text>
<text text-anchor="start" x="181" y="-266.5" font-family="Helvetica,sans-Serif" font-size="10.00">+ void draw(GLuint program</text>
<text text-anchor="start" x="181" y="-255.5" font-family="Helvetica,sans-Serif" font-size="10.00">ID, glm::mat4 camera)</text>
<text text-anchor="start" x="181" y="-244.5" font-family="Helvetica,sans-Serif" font-size="10.00">+ Ball()</text>
<text text-anchor="start" x="181" y="-233.5" font-family="Helvetica,sans-Serif" font-size="10.00">+ void draw(GLuint program</text>
<text text-anchor="start" x="181" y="-222.5" font-family="Helvetica,sans-Serif" font-size="10.00">ID, glm::mat4 camera)</text>
</a>
</g>
</g>
<!-- Node10&#45;&gt;Node13 -->
<g id="edge20" class="edge">
<title>Node10&#45;&gt;Node13</title>
<path fill="none" stroke="#404040" d="M250.5,-606.18C250.5,-536.04 250.5,-415.19 250.5,-339.78"/>
<polygon fill="none" stroke="#404040" points="250.5,-339.63 246.5,-333.63 250.5,-327.63 254.5,-333.63 250.5,-339.63"/>
<text text-anchor="middle" x="263" y="-398.5" font-family="Helvetica,sans-Serif" font-size="10.00"> &#45;ball</text>
</g>
<!-- Node11&#45;&gt;Node10 -->
<g id="edge13" class="edge">
<title>Node11&#45;&gt;Node10</title>
<path fill="none" stroke="midnightblue" d="M230.59,-921.3C232.2,-861.81 237.15,-774.84 242.19,-718.7"/>
<polygon fill="none" stroke="midnightblue" points="227.09,-921.26 230.34,-931.34 234.09,-921.43 227.09,-921.26"/>
</g>
<!-- Node11&#45;&gt;Node10 -->
<g id="edge16" class="edge">
<title>Node11&#45;&gt;Node10</title>
<path fill="none" stroke="midnightblue" d="M241.68,-921.3C246.7,-861.81 251.44,-774.84 252.65,-718.7"/>
<polygon fill="none" stroke="midnightblue" points="238.18,-921.08 240.8,-931.34 245.16,-921.68 238.18,-921.08"/>
</g>
<!-- Node12 -->
<g id="node12" class="node">
<title>Node12</title>
<g id="a_node12"><a xlink:href="classScene.html" target="_top" xlink:title="This class is used generate the camera views.">
<polygon fill="white" stroke="black" points="346,-188 346,-355 531,-355 531,-188 346,-188"/>
<text text-anchor="middle" x="438.5" y="-343" font-family="Helvetica,sans-Serif" font-size="10.00">Scene</text>
<polyline fill="none" stroke="black" points="346,-336 531,-336 "/>
<text text-anchor="start" x="354" y="-324" font-family="Helvetica,sans-Serif" font-size="10.00">&#45; glm::mat4 view_principal</text>
<text text-anchor="start" x="354" y="-313" font-family="Helvetica,sans-Serif" font-size="10.00">&#45; glm::mat4 view_z</text>
<text text-anchor="start" x="354" y="-302" font-family="Helvetica,sans-Serif" font-size="10.00">&#45; glm::mat4 view_y</text>
<text text-anchor="start" x="354" y="-291" font-family="Helvetica,sans-Serif" font-size="10.00">&#45; glm::mat4 projection</text>
<polyline fill="none" stroke="black" points="346,-284 531,-284 "/>
<text text-anchor="start" x="354" y="-272" font-family="Helvetica,sans-Serif" font-size="10.00">+ Scene()</text>
<text text-anchor="start" x="354" y="-261" font-family="Helvetica,sans-Serif" font-size="10.00">+ glm::mat4 getCameraPrincipal()</text>
<text text-anchor="start" x="354" y="-250" font-family="Helvetica,sans-Serif" font-size="10.00">+ glm::mat4 getCameraZ()</text>
<text text-anchor="start" x="354" y="-239" font-family="Helvetica,sans-Serif" font-size="10.00">+ glm::mat4 getCameraY()</text>
<text text-anchor="start" x="354" y="-228" font-family="Helvetica,sans-Serif" font-size="10.00">+ Scene()</text>
<text text-anchor="start" x="354" y="-217" font-family="Helvetica,sans-Serif" font-size="10.00">+ glm::mat4 getCameraPrincipal()</text>
<text text-anchor="start" x="354" y="-206" font-family="Helvetica,sans-Serif" font-size="10.00">+ glm::mat4 getCameraZ()</text>
<text text-anchor="start" x="354" y="-195" font-family="Helvetica,sans-Serif" font-size="10.00">+ glm::mat4 getCameraY()</text>
</a>
</g>
</g>
<!-- Node12&#45;&gt;Node1 -->
<g id="edge18" class="edge">
<title>Node12&#45;&gt;Node1</title>
<path fill="none" stroke="#404040" d="M419.25,-187.76C416.07,-174.1 412.79,-159.99 409.64,-146.46"/>
<polygon fill="none" stroke="#404040" points="409.63,-146.44 404.38,-141.5 406.91,-134.75 412.17,-139.69 409.63,-146.44"/>
<text text-anchor="middle" x="431.5" y="-156" font-family="Helvetica,sans-Serif" font-size="10.00"> &#45;scene</text>
</g>
<!-- Node13&#45;&gt;Node1 -->
<g id="edge19" class="edge">
<title>Node13&#45;&gt;Node1</title>
<path fill="none" stroke="#404040" d="M289.03,-215.3C304.23,-193.53 321.94,-168.16 338.32,-144.69"/>
<polygon fill="none" stroke="#404040" points="338.38,-144.6 338.53,-137.4 345.25,-134.76 345.09,-141.97 338.38,-144.6"/>
<text text-anchor="middle" x="341" y="-156" font-family="Helvetica,sans-Serif" font-size="10.00"> &#45;ball</text>
</g>
</g>
</svg>
