<?xml version="1.0" encoding="UTF-8" standalone="no"?>
<!DOCTYPE svg PUBLIC "-//W3C//DTD SVG 1.1//EN"
 "http://www.w3.org/Graphics/SVG/1.1/DTD/svg11.dtd">
<!-- Generated by graphviz version 2.43.0 (0)
 -->
<!-- Title: Object::setScale Pages: 1 -->
<svg width="228pt" height="104pt"
 viewBox="0.00 0.00 228.00 104.00" xmlns="http://www.w3.org/2000/svg" xmlns:xlink="http://www.w3.org/1999/xlink">
<g id="graph0" class="graph" transform="scale(1 1) rotate(0) translate(4 100)">
<title>Object::setScale</title>
<polygon fill="white" stroke="transparent" points="-4,4 -4,-100 224,-100 224,4 -4,4"/>
<!-- Node1 -->
<g id="node1" class="node">
<title>Node1</title>
<g id="a_node1"><a xlink:title="This method sets the scale matrix.">
<polygon fill="#bfbfbf" stroke="black" points="125,-38.5 125,-57.5 220,-57.5 220,-38.5 125,-38.5"/>
<text text-anchor="middle" x="172.5" y="-45.5" font-family="Helvetica,sans-Serif" font-size="10.00">Object::setScale</text>
</a>
</g>
</g>
<!-- Node2 -->
<g id="node2" class="node">
<title>Node2</title>
<g id="a_node2"><a xlink:href="classBall.html#a86a144d3dad6c953e422e32435923bbb" target="_top" xlink:title="Construct a new Ball:: Ball object.">
<polygon fill="white" stroke="black" points="14.5,-76.5 14.5,-95.5 74.5,-95.5 74.5,-76.5 14.5,-76.5"/>
<text text-anchor="middle" x="44.5" y="-83.5" font-family="Helvetica,sans-Serif" font-size="10.00">Ball::Ball</text>
</a>
</g>
</g>
<!-- Node1&#45;&gt;Node2 -->
<g id="edge1" class="edge">
<title>Node1&#45;&gt;Node2</title>
<path fill="none" stroke="midnightblue" d="M129.98,-60.52C111.89,-65.98 91.11,-72.24 74.69,-77.2"/>
<polygon fill="midnightblue" stroke="midnightblue" points="131.14,-63.83 139.7,-57.59 129.12,-57.13 131.14,-63.83"/>
</g>
<!-- Node3 -->
<g id="node3" class="node">
<title>Node3</title>
<g id="a_node3"><a xlink:href="classEnemy.html#a94f30d348b6d2840fd71675472ba38dd" target="_top" xlink:title="Construct a new Enemy:: Enemy object.">
<polygon fill="white" stroke="black" points="0,-38.5 0,-57.5 89,-57.5 89,-38.5 0,-38.5"/>
<text text-anchor="middle" x="44.5" y="-45.5" font-family="Helvetica,sans-Serif" font-size="10.00">Enemy::Enemy</text>
</a>
</g>
</g>
<!-- Node1&#45;&gt;Node3 -->
<g id="edge2" class="edge">
<title>Node1&#45;&gt;Node3</title>
<path fill="none" stroke="midnightblue" d="M114.69,-48C106.19,-48 97.54,-48 89.36,-48"/>
<polygon fill="midnightblue" stroke="midnightblue" points="114.94,-51.5 124.94,-48 114.94,-44.5 114.94,-51.5"/>
</g>
<!-- Node4 -->
<g id="node4" class="node">
<title>Node4</title>
<g id="a_node4"><a xlink:href="classRobot.html#a4fc7c70ae20623f05e06f2ecb388b6c4" target="_top" xlink:title="Construct a new Robot:: Robot object.">
<polygon fill="white" stroke="black" points="4.5,-0.5 4.5,-19.5 84.5,-19.5 84.5,-0.5 4.5,-0.5"/>
<text text-anchor="middle" x="44.5" y="-7.5" font-family="Helvetica,sans-Serif" font-size="10.00">Robot::Robot</text>
</a>
</g>
</g>
<!-- Node1&#45;&gt;Node4 -->
<g id="edge3" class="edge">
<title>Node1&#45;&gt;Node4</title>
<path fill="none" stroke="midnightblue" d="M129.94,-35.46C112.79,-30.3 93.25,-24.4 77.28,-19.59"/>
<polygon fill="midnightblue" stroke="midnightblue" points="129.12,-38.87 139.7,-38.41 131.14,-32.17 129.12,-38.87"/>
</g>
</g>
</svg>
