<?xml version="1.0" encoding="UTF-8" standalone="no"?>
<!DOCTYPE svg PUBLIC "-//W3C//DTD SVG 1.1//EN"
 "http://www.w3.org/Graphics/SVG/1.1/DTD/svg11.dtd">
<!-- Generated by graphviz version 2.43.0 (0)
 -->
<!-- Title: Animation::bezier Pages: 1 -->
<svg width="227pt" height="142pt"
 viewBox="0.00 0.00 227.00 142.00" xmlns="http://www.w3.org/2000/svg" xmlns:xlink="http://www.w3.org/1999/xlink">
<g id="graph0" class="graph" transform="scale(1 1) rotate(0) translate(4 138)">
<title>Animation::bezier</title>
<polygon fill="white" stroke="transparent" points="-4,4 -4,-138 223,-138 223,4 -4,4"/>
<!-- Node1 -->
<g id="node1" class="node">
<title>Node1</title>
<g id="a_node1"><a xlink:title="This method returns the bezier curve.">
<polygon fill="#bfbfbf" stroke="black" points="116,-57.5 116,-76.5 219,-76.5 219,-57.5 116,-57.5"/>
<text text-anchor="middle" x="167.5" y="-64.5" font-family="Helvetica,sans-Serif" font-size="10.00">Animation::bezier</text>
</a>
</g>
</g>
<!-- Node2 -->
<g id="node2" class="node">
<title>Node2</title>
<g id="a_node2"><a xlink:href="classRobot.html#a4fc7c70ae20623f05e06f2ecb388b6c4" target="_top" xlink:title="Construct a new Robot:: Robot object.">
<polygon fill="white" stroke="black" points="0,-114.5 0,-133.5 80,-133.5 80,-114.5 0,-114.5"/>
<text text-anchor="middle" x="40" y="-121.5" font-family="Helvetica,sans-Serif" font-size="10.00">Robot::Robot</text>
</a>
</g>
</g>
<!-- Node1&#45;&gt;Node2 -->
<g id="edge1" class="edge">
<title>Node1&#45;&gt;Node2</title>
<path fill="none" stroke="midnightblue" d="M136.21,-80.76C113.28,-91.17 82.37,-105.21 62.07,-114.43"/>
<polygon fill="midnightblue" stroke="midnightblue" points="137.84,-83.86 145.49,-76.54 134.94,-77.49 137.84,-83.86"/>
</g>
<!-- Node3 -->
<g id="node3" class="node">
<title>Node3</title>
<g id="a_node3"><a xlink:href="classRobot.html#ad46a0d47d427baea72b5fc43612df61b" target="_top" xlink:title="This method sets the P2 vertex.">
<polygon fill="white" stroke="black" points="1,-76.5 1,-95.5 79,-95.5 79,-76.5 1,-76.5"/>
<text text-anchor="middle" x="40" y="-83.5" font-family="Helvetica,sans-Serif" font-size="10.00">Robot::setP2</text>
</a>
</g>
</g>
<!-- Node1&#45;&gt;Node3 -->
<g id="edge2" class="edge">
<title>Node1&#45;&gt;Node3</title>
<path fill="none" stroke="midnightblue" d="M105.67,-76.21C96.62,-77.58 87.53,-78.96 79.13,-80.23"/>
<polygon fill="midnightblue" stroke="midnightblue" points="106.45,-79.63 115.82,-74.67 105.4,-72.71 106.45,-79.63"/>
</g>
<!-- Node4 -->
<g id="node4" class="node">
<title>Node4</title>
<g id="a_node4"><a xlink:href="classRobot.html#ac27f97ce38e8b6e57985eaddabcfd034" target="_top" xlink:title="This method sets the P3 vertex.">
<polygon fill="white" stroke="black" points="1,-38.5 1,-57.5 79,-57.5 79,-38.5 1,-38.5"/>
<text text-anchor="middle" x="40" y="-45.5" font-family="Helvetica,sans-Serif" font-size="10.00">Robot::setP3</text>
</a>
</g>
</g>
<!-- Node1&#45;&gt;Node4 -->
<g id="edge3" class="edge">
<title>Node1&#45;&gt;Node4</title>
<path fill="none" stroke="midnightblue" d="M105.67,-57.79C96.62,-56.42 87.53,-55.04 79.13,-53.77"/>
<polygon fill="midnightblue" stroke="midnightblue" points="105.4,-61.29 115.82,-59.33 106.45,-54.37 105.4,-61.29"/>
</g>
<!-- Node5 -->
<g id="node5" class="node">
<title>Node5</title>
<g id="a_node5"><a xlink:href="classRobot.html#a5f7bb45e0533f50c4031e9774f990b2d" target="_top" xlink:title="This method sets the P4 vertex.">
<polygon fill="white" stroke="black" points="1,-0.5 1,-19.5 79,-19.5 79,-0.5 1,-0.5"/>
<text text-anchor="middle" x="40" y="-7.5" font-family="Helvetica,sans-Serif" font-size="10.00">Robot::setP4</text>
</a>
</g>
</g>
<!-- Node1&#45;&gt;Node5 -->
<g id="edge4" class="edge">
<title>Node1&#45;&gt;Node5</title>
<path fill="none" stroke="midnightblue" d="M136.21,-53.24C113.28,-42.83 82.37,-28.79 62.07,-19.57"/>
<polygon fill="midnightblue" stroke="midnightblue" points="134.94,-56.51 145.49,-57.46 137.84,-50.14 134.94,-56.51"/>
</g>
</g>
</svg>
