<?xml version="1.0" encoding="UTF-8" standalone="no"?>
<!DOCTYPE svg PUBLIC "-//W3C//DTD SVG 1.1//EN"
 "http://www.w3.org/Graphics/SVG/1.1/DTD/svg11.dtd">
<!-- Generated by graphviz version 2.43.0 (0)
 -->
<!-- Title: Robot Pages: 1 -->
<svg width="399pt" height="1097pt"
 viewBox="0.00 0.00 399.00 1097.00" xmlns="http://www.w3.org/2000/svg" xmlns:xlink="http://www.w3.org/1999/xlink">
<g id="graph0" class="graph" transform="scale(1 1) rotate(0) translate(4 1093)">
<title>Robot</title>
<polygon fill="white" stroke="transparent" points="-4,4 -4,-1093 395,-1093 395,4 -4,4"/>
<!-- Node1 -->
<g id="node1" class="node">
<title>Node1</title>
<g id="a_node1"><a xlink:title="This class is used to create and draw the robot.">
<polygon fill="#bfbfbf" stroke="black" points="27,-0.5 27,-167.5 187,-167.5 187,-0.5 27,-0.5"/>
<text text-anchor="middle" x="107" y="-155.5" font-family="Helvetica,sans-Serif" font-size="10.00">Robot</text>
<polyline fill="none" stroke="black" points="27,-148.5 187,-148.5 "/>
<text text-anchor="start" x="35" y="-136.5" font-family="Helvetica,sans-Serif" font-size="10.00">&#45; unsigned int pathIndex</text>
<text text-anchor="start" x="35" y="-125.5" font-family="Helvetica,sans-Serif" font-size="10.00">&#45; vector&lt; Vertex &gt; path</text>
<text text-anchor="start" x="35" y="-114.5" font-family="Helvetica,sans-Serif" font-size="10.00">&#45; float t</text>
<polyline fill="none" stroke="black" points="27,-107.5 187,-107.5 "/>
<text text-anchor="start" x="35" y="-95.5" font-family="Helvetica,sans-Serif" font-size="10.00">+ Robot()</text>
<text text-anchor="start" x="35" y="-84.5" font-family="Helvetica,sans-Serif" font-size="10.00">+ void draw(GLuint program</text>
<text text-anchor="start" x="35" y="-73.5" font-family="Helvetica,sans-Serif" font-size="10.00">ID, glm::mat4 camera,</text>
<text text-anchor="start" x="35" y="-62.5" font-family="Helvetica,sans-Serif" font-size="10.00"> int collision)</text>
<text text-anchor="start" x="35" y="-51.5" font-family="Helvetica,sans-Serif" font-size="10.00">+ void setP2(Vertex P2)</text>
<text text-anchor="start" x="35" y="-40.5" font-family="Helvetica,sans-Serif" font-size="10.00">+ void setP3(Vertex P3)</text>
<text text-anchor="start" x="35" y="-29.5" font-family="Helvetica,sans-Serif" font-size="10.00">+ void setP4(Vertex P4)</text>
<text text-anchor="start" x="35" y="-18.5" font-family="Helvetica,sans-Serif" font-size="10.00">+ Vertex getCurrentPos()</text>
<text text-anchor="start" x="35" y="-7.5" font-family="Helvetica,sans-Serif" font-size="10.00">+ vector&lt; Vertex &gt; getPath()</text>
</a>
</g>
</g>
<!-- Node2 -->
<g id="node2" class="node">
<title>Node2</title>
<g id="a_node2"><a xlink:href="classVertex.html" target="_top" xlink:title="This class is used to create vertices.">
<polygon fill="white" stroke="black" points="0,-248.5 0,-503.5 172,-503.5 172,-248.5 0,-248.5"/>
<text text-anchor="middle" x="86" y="-491.5" font-family="Helvetica,sans-Serif" font-size="10.00">Vertex</text>
<polyline fill="none" stroke="black" points="0,-484.5 172,-484.5 "/>
<text text-anchor="start" x="8" y="-472.5" font-family="Helvetica,sans-Serif" font-size="10.00">&#45; float x</text>
<text text-anchor="start" x="8" y="-461.5" font-family="Helvetica,sans-Serif" font-size="10.00">&#45; float y</text>
<text text-anchor="start" x="8" y="-450.5" font-family="Helvetica,sans-Serif" font-size="10.00">&#45; float z</text>
<polyline fill="none" stroke="black" points="0,-443.5 172,-443.5 "/>
<text text-anchor="start" x="8" y="-431.5" font-family="Helvetica,sans-Serif" font-size="10.00">+ Vertex()</text>
<text text-anchor="start" x="8" y="-420.5" font-family="Helvetica,sans-Serif" font-size="10.00">+ Vertex(float vx, float</text>
<text text-anchor="start" x="8" y="-409.5" font-family="Helvetica,sans-Serif" font-size="10.00"> vy, float vz)</text>
<text text-anchor="start" x="8" y="-398.5" font-family="Helvetica,sans-Serif" font-size="10.00">+ void print()</text>
<text text-anchor="start" x="8" y="-387.5" font-family="Helvetica,sans-Serif" font-size="10.00">+ Vertex operator&#45;(Vertex op2)</text>
<text text-anchor="start" x="8" y="-376.5" font-family="Helvetica,sans-Serif" font-size="10.00">+ Vertex operator+(Vertex op2)</text>
<text text-anchor="start" x="8" y="-365.5" font-family="Helvetica,sans-Serif" font-size="10.00">+ Vertex operator*(float op2)</text>
<text text-anchor="start" x="8" y="-354.5" font-family="Helvetica,sans-Serif" font-size="10.00">+ bool operator==(Vertex op2)</text>
<text text-anchor="start" x="8" y="-343.5" font-family="Helvetica,sans-Serif" font-size="10.00">+ Row&lt; float &gt; row()</text>
<text text-anchor="start" x="8" y="-332.5" font-family="Helvetica,sans-Serif" font-size="10.00">+ Col&lt; float &gt; homog()</text>
<text text-anchor="start" x="8" y="-321.5" font-family="Helvetica,sans-Serif" font-size="10.00">+ float getX()</text>
<text text-anchor="start" x="8" y="-310.5" font-family="Helvetica,sans-Serif" font-size="10.00">+ float getY()</text>
<text text-anchor="start" x="8" y="-299.5" font-family="Helvetica,sans-Serif" font-size="10.00">+ float getZ()</text>
<text text-anchor="start" x="8" y="-288.5" font-family="Helvetica,sans-Serif" font-size="10.00">+ vector&lt; float &gt; getXYZ()</text>
<text text-anchor="start" x="8" y="-277.5" font-family="Helvetica,sans-Serif" font-size="10.00">+ void setX(float vx)</text>
<text text-anchor="start" x="8" y="-266.5" font-family="Helvetica,sans-Serif" font-size="10.00">+ void setY(float vy)</text>
<text text-anchor="start" x="8" y="-255.5" font-family="Helvetica,sans-Serif" font-size="10.00">+ void setZ(float vz)</text>
</a>
</g>
</g>
<!-- Node2&#45;&gt;Node1 -->
<g id="edge1" class="edge">
<title>Node2&#45;&gt;Node1</title>
<path fill="none" stroke="#404040" d="M95.18,-248.22C96.84,-225.31 98.54,-201.78 100.12,-179.97"/>
<polygon fill="none" stroke="#404040" points="100.14,-179.67 96.59,-173.4 101.01,-167.7 104.57,-173.97 100.14,-179.67"/>
<text text-anchor="middle" x="109.5" y="-222" font-family="Helvetica,sans-Serif" font-size="10.00"> &#45;P1</text>
<text text-anchor="middle" x="109.5" y="-211" font-family="Helvetica,sans-Serif" font-size="10.00">&#45;P2</text>
<text text-anchor="middle" x="109.5" y="-200" font-family="Helvetica,sans-Serif" font-size="10.00">&#45;P3</text>
<text text-anchor="middle" x="109.5" y="-189" font-family="Helvetica,sans-Serif" font-size="10.00">&#45;P4</text>
</g>
<!-- Node3 -->
<g id="node3" class="node">
<title>Node3</title>
<g id="a_node3"><a xlink:href="classModel.html" target="_top" xlink:title=" ">
<polygon fill="white" stroke="black" points="190,-336.5 190,-415.5 330,-415.5 330,-336.5 190,-336.5"/>
<text text-anchor="middle" x="260" y="-403.5" font-family="Helvetica,sans-Serif" font-size="10.00">Model&lt; Ply &gt;</text>
<polyline fill="none" stroke="black" points="190,-396.5 330,-396.5 "/>
<text text-anchor="middle" x="260" y="-384.5" font-family="Helvetica,sans-Serif" font-size="10.00"> </text>
<polyline fill="none" stroke="black" points="190,-377.5 330,-377.5 "/>
<text text-anchor="start" x="198" y="-365.5" font-family="Helvetica,sans-Serif" font-size="10.00">+ Model(string fileName,</text>
<text text-anchor="start" x="198" y="-354.5" font-family="Helvetica,sans-Serif" font-size="10.00"> float r, float g, float b)</text>
<text text-anchor="start" x="198" y="-343.5" font-family="Helvetica,sans-Serif" font-size="10.00">+ Model()</text>
</a>
</g>
</g>
<!-- Node3&#45;&gt;Node1 -->
<g id="edge2" class="edge">
<title>Node3&#45;&gt;Node1</title>
<path fill="none" stroke="#404040" d="M239.68,-336.49C218.54,-296.42 184.64,-232.16 156.4,-178.63"/>
<polygon fill="none" stroke="#404040" points="156.25,-178.35 149.91,-174.91 150.65,-167.74 156.99,-171.18 156.25,-178.35"/>
<text text-anchor="middle" x="200.5" y="-205.5" font-family="Helvetica,sans-Serif" font-size="10.00"> &#45;robot</text>
</g>
<!-- Node4 -->
<g id="node4" class="node">
<title>Node4</title>
<g id="a_node4"><a xlink:href="classPly.html" target="_top" xlink:title="This class is used to create objects using the ply file.">
<polygon fill="white" stroke="black" points="107.5,-551.5 107.5,-630.5 232.5,-630.5 232.5,-551.5 107.5,-551.5"/>
<text text-anchor="middle" x="170" y="-618.5" font-family="Helvetica,sans-Serif" font-size="10.00">Ply</text>
<polyline fill="none" stroke="black" points="107.5,-611.5 232.5,-611.5 "/>
<text text-anchor="middle" x="170" y="-599.5" font-family="Helvetica,sans-Serif" font-size="10.00"> </text>
<polyline fill="none" stroke="black" points="107.5,-592.5 232.5,-592.5 "/>
<text text-anchor="start" x="115.5" y="-580.5" font-family="Helvetica,sans-Serif" font-size="10.00">+ Ply(string fileName,</text>
<text text-anchor="start" x="115.5" y="-569.5" font-family="Helvetica,sans-Serif" font-size="10.00"> float r, float g, float b)</text>
<text text-anchor="start" x="115.5" y="-558.5" font-family="Helvetica,sans-Serif" font-size="10.00">+ void load()</text>
</a>
</g>
</g>
<!-- Node4&#45;&gt;Node3 -->
<g id="edge3" class="edge">
<title>Node4&#45;&gt;Node3</title>
<path fill="none" stroke="midnightblue" d="M190.26,-542.06C206.39,-503.88 228.67,-451.14 243.67,-415.65"/>
<polygon fill="none" stroke="midnightblue" points="186.97,-540.85 186.3,-551.43 193.41,-543.58 186.97,-540.85"/>
</g>
<!-- Node5 -->
<g id="node5" class="node">
<title>Node5</title>
<g id="a_node5"><a xlink:href="classObject.html" target="_top" xlink:title="This class is used to create objects using vertices and faces.">
<polygon fill="white" stroke="black" points="81,-668.5 81,-1088.5 259,-1088.5 259,-668.5 81,-668.5"/>
<text text-anchor="middle" x="170" y="-1076.5" font-family="Helvetica,sans-Serif" font-size="10.00">Object</text>
<polyline fill="none" stroke="black" points="81,-1069.5 259,-1069.5 "/>
<text text-anchor="start" x="89" y="-1057.5" font-family="Helvetica,sans-Serif" font-size="10.00"># string fileName</text>
<text text-anchor="start" x="89" y="-1046.5" font-family="Helvetica,sans-Serif" font-size="10.00"># vector&lt; Vertex &gt; vertices</text>
<text text-anchor="start" x="89" y="-1035.5" font-family="Helvetica,sans-Serif" font-size="10.00"># vector&lt; Face &gt; faces</text>
<text text-anchor="start" x="89" y="-1024.5" font-family="Helvetica,sans-Serif" font-size="10.00"># float r</text>
<text text-anchor="start" x="89" y="-1013.5" font-family="Helvetica,sans-Serif" font-size="10.00"># float g</text>
<text text-anchor="start" x="89" y="-1002.5" font-family="Helvetica,sans-Serif" font-size="10.00"># float b</text>
<text text-anchor="start" x="89" y="-991.5" font-family="Helvetica,sans-Serif" font-size="10.00"># GLuint colorbuffer</text>
<text text-anchor="start" x="89" y="-980.5" font-family="Helvetica,sans-Serif" font-size="10.00"># GLuint datasize</text>
<text text-anchor="start" x="89" y="-969.5" font-family="Helvetica,sans-Serif" font-size="10.00"># GLuint MatrixID</text>
<text text-anchor="start" x="89" y="-958.5" font-family="Helvetica,sans-Serif" font-size="10.00"># GLuint vertexbuffer</text>
<text text-anchor="start" x="89" y="-947.5" font-family="Helvetica,sans-Serif" font-size="10.00"># glm::mat4 scale</text>
<text text-anchor="start" x="89" y="-936.5" font-family="Helvetica,sans-Serif" font-size="10.00"># glm::mat4 transform</text>
<text text-anchor="start" x="89" y="-925.5" font-family="Helvetica,sans-Serif" font-size="10.00"># glm::mat4 rotate</text>
<text text-anchor="start" x="89" y="-914.5" font-family="Helvetica,sans-Serif" font-size="10.00"># glm::mat4 translate</text>
<polyline fill="none" stroke="black" points="81,-907.5 259,-907.5 "/>
<text text-anchor="start" x="89" y="-895.5" font-family="Helvetica,sans-Serif" font-size="10.00">+ Object(string fileName,</text>
<text text-anchor="start" x="89" y="-884.5" font-family="Helvetica,sans-Serif" font-size="10.00"> float r, float g, float b)</text>
<text text-anchor="start" x="89" y="-873.5" font-family="Helvetica,sans-Serif" font-size="10.00">+ vector&lt; Vertex &gt; getVertices()</text>
<text text-anchor="start" x="89" y="-862.5" font-family="Helvetica,sans-Serif" font-size="10.00">+ vector&lt; Face &gt; getFaces()</text>
<text text-anchor="start" x="89" y="-851.5" font-family="Helvetica,sans-Serif" font-size="10.00">+ virtual void load()=0</text>
<text text-anchor="start" x="89" y="-840.5" font-family="Helvetica,sans-Serif" font-size="10.00">+ void draw(GLuint program</text>
<text text-anchor="start" x="89" y="-829.5" font-family="Helvetica,sans-Serif" font-size="10.00">ID, glm::mat4 transform)</text>
<text text-anchor="start" x="89" y="-818.5" font-family="Helvetica,sans-Serif" font-size="10.00">+ void setScale(glm::</text>
<text text-anchor="start" x="89" y="-807.5" font-family="Helvetica,sans-Serif" font-size="10.00">mat4 scale)</text>
<text text-anchor="start" x="89" y="-796.5" font-family="Helvetica,sans-Serif" font-size="10.00">+ void setRotate(glm</text>
<text text-anchor="start" x="89" y="-785.5" font-family="Helvetica,sans-Serif" font-size="10.00">::mat4 rotate)</text>
<text text-anchor="start" x="89" y="-774.5" font-family="Helvetica,sans-Serif" font-size="10.00">+ void setTranslate(glm</text>
<text text-anchor="start" x="89" y="-763.5" font-family="Helvetica,sans-Serif" font-size="10.00">::mat4 translate)</text>
<text text-anchor="start" x="89" y="-752.5" font-family="Helvetica,sans-Serif" font-size="10.00">+ glm::mat4 getScale()</text>
<text text-anchor="start" x="89" y="-741.5" font-family="Helvetica,sans-Serif" font-size="10.00">+ glm::mat4 getRotate()</text>
<text text-anchor="start" x="89" y="-730.5" font-family="Helvetica,sans-Serif" font-size="10.00">+ glm::mat4 getTranslate()</text>
<text text-anchor="start" x="89" y="-719.5" font-family="Helvetica,sans-Serif" font-size="10.00">+ glm::mat4 getTransform()</text>
<text text-anchor="start" x="89" y="-708.5" font-family="Helvetica,sans-Serif" font-size="10.00"># vector&lt; string &gt; split</text>
<text text-anchor="start" x="89" y="-697.5" font-family="Helvetica,sans-Serif" font-size="10.00">(const string &amp;str, const</text>
<text text-anchor="start" x="89" y="-686.5" font-family="Helvetica,sans-Serif" font-size="10.00"> string &amp;delim)</text>
<text text-anchor="start" x="89" y="-675.5" font-family="Helvetica,sans-Serif" font-size="10.00"># void set_data()</text>
</a>
</g>
</g>
<!-- Node5&#45;&gt;Node4 -->
<g id="edge4" class="edge">
<title>Node5&#45;&gt;Node4</title>
<path fill="none" stroke="midnightblue" d="M170,-658.06C170,-648.2 170,-639.04 170,-630.86"/>
<polygon fill="none" stroke="midnightblue" points="166.5,-658.13 170,-668.13 173.5,-658.13 166.5,-658.13"/>
</g>
<!-- Node6 -->
<g id="node6" class="node">
<title>Node6</title>
<g id="a_node6"><a xlink:href="classModel.html" target="_top" xlink:title="This class is used to create models using Obj and Ply.">
<polygon fill="white" stroke="black" points="251,-551.5 251,-630.5 391,-630.5 391,-551.5 251,-551.5"/>
<text text-anchor="middle" x="321" y="-618.5" font-family="Helvetica,sans-Serif" font-size="10.00">Model&lt; T &gt;</text>
<polyline fill="none" stroke="black" points="251,-611.5 391,-611.5 "/>
<text text-anchor="middle" x="321" y="-599.5" font-family="Helvetica,sans-Serif" font-size="10.00"> </text>
<polyline fill="none" stroke="black" points="251,-592.5 391,-592.5 "/>
<text text-anchor="start" x="259" y="-580.5" font-family="Helvetica,sans-Serif" font-size="10.00">+ Model(string fileName,</text>
<text text-anchor="start" x="259" y="-569.5" font-family="Helvetica,sans-Serif" font-size="10.00"> float r, float g, float b)</text>
<text text-anchor="start" x="259" y="-558.5" font-family="Helvetica,sans-Serif" font-size="10.00">+ Model()</text>
</a>
</g>
</g>
<!-- Node6&#45;&gt;Node3 -->
<g id="edge5" class="edge">
<title>Node6&#45;&gt;Node3</title>
<path fill="none" stroke="orange" d="M307.13,-541.57C296.21,-503.44 281.19,-450.99 271.07,-415.65"/>
<polygon fill="orange" stroke="orange" points="303.84,-542.78 309.95,-551.43 310.56,-540.85 303.84,-542.78"/>
<text text-anchor="middle" x="325.5" y="-525" font-family="Helvetica,sans-Serif" font-size="10.00"> &lt; Ply &gt;</text>
</g>
<!-- Node7 -->
<g id="node7" class="node">
<title>Node7</title>
<g id="a_node7"><a xlink:title=" ">
<polygon fill="white" stroke="#bfbfbf" points="306.5,-850 306.5,-907 335.5,-907 335.5,-850 306.5,-850"/>
<text text-anchor="middle" x="321" y="-895" font-family="Helvetica,sans-Serif" font-size="10.00">T</text>
<polyline fill="none" stroke="#bfbfbf" points="306.5,-888 335.5,-888 "/>
<text text-anchor="middle" x="321" y="-876" font-family="Helvetica,sans-Serif" font-size="10.00"> </text>
<polyline fill="none" stroke="#bfbfbf" points="306.5,-869 335.5,-869 "/>
<text text-anchor="middle" x="321" y="-857" font-family="Helvetica,sans-Serif" font-size="10.00"> </text>
</a>
</g>
</g>
<!-- Node7&#45;&gt;Node6 -->
<g id="edge6" class="edge">
<title>Node7&#45;&gt;Node6</title>
<path fill="none" stroke="midnightblue" d="M321,-839.63C321,-785.32 321,-685.83 321,-630.93"/>
<polygon fill="none" stroke="midnightblue" points="317.5,-839.87 321,-849.87 324.5,-839.87 317.5,-839.87"/>
</g>
</g>
</svg>
