<?xml version="1.0" encoding="UTF-8" standalone="no"?>
<!DOCTYPE svg PUBLIC "-//W3C//DTD SVG 1.1//EN"
 "http://www.w3.org/Graphics/SVG/1.1/DTD/svg11.dtd">
<!-- Generated by graphviz version 2.43.0 (0)
 -->
<!-- Title: Object Pages: 1 -->
<svg width="306pt" height="958pt"
 viewBox="0.00 0.00 306.00 958.00" xmlns="http://www.w3.org/2000/svg" xmlns:xlink="http://www.w3.org/1999/xlink">
<g id="graph0" class="graph" transform="scale(1 1) rotate(0) translate(4 954)">
<title>Object</title>
<polygon fill="white" stroke="transparent" points="-4,4 -4,-954 302,-954 302,4 -4,4"/>
<!-- Node1 -->
<g id="node1" class="node">
<title>Node1</title>
<g id="a_node1"><a xlink:title="This class is used to create objects using vertices and faces.">
<polygon fill="#bfbfbf" stroke="black" points="60,-298.5 60,-949.5 238,-949.5 238,-298.5 60,-298.5"/>
<text text-anchor="middle" x="149" y="-937.5" font-family="Helvetica,sans-Serif" font-size="10.00">Object</text>
<polyline fill="none" stroke="black" points="60,-930.5 238,-930.5 "/>
<text text-anchor="start" x="68" y="-918.5" font-family="Helvetica,sans-Serif" font-size="10.00"># string fileName</text>
<text text-anchor="start" x="68" y="-907.5" font-family="Helvetica,sans-Serif" font-size="10.00"># vector&lt; Vertex &gt; vertices</text>
<text text-anchor="start" x="68" y="-896.5" font-family="Helvetica,sans-Serif" font-size="10.00"># vector&lt; Face &gt; faces</text>
<text text-anchor="start" x="68" y="-885.5" font-family="Helvetica,sans-Serif" font-size="10.00"># float r</text>
<text text-anchor="start" x="68" y="-874.5" font-family="Helvetica,sans-Serif" font-size="10.00"># float g</text>
<text text-anchor="start" x="68" y="-863.5" font-family="Helvetica,sans-Serif" font-size="10.00"># float b</text>
<text text-anchor="start" x="68" y="-852.5" font-family="Helvetica,sans-Serif" font-size="10.00"># GLuint colorbuffer</text>
<text text-anchor="start" x="68" y="-841.5" font-family="Helvetica,sans-Serif" font-size="10.00"># GLuint datasize</text>
<text text-anchor="start" x="68" y="-830.5" font-family="Helvetica,sans-Serif" font-size="10.00"># GLuint MatrixID</text>
<text text-anchor="start" x="68" y="-819.5" font-family="Helvetica,sans-Serif" font-size="10.00"># GLuint vertexbuffer</text>
<text text-anchor="start" x="68" y="-808.5" font-family="Helvetica,sans-Serif" font-size="10.00"># glm::mat4 scale</text>
<text text-anchor="start" x="68" y="-797.5" font-family="Helvetica,sans-Serif" font-size="10.00"># glm::mat4 transform</text>
<text text-anchor="start" x="68" y="-786.5" font-family="Helvetica,sans-Serif" font-size="10.00"># glm::mat4 rotate</text>
<text text-anchor="start" x="68" y="-775.5" font-family="Helvetica,sans-Serif" font-size="10.00"># glm::mat4 translate</text>
<polyline fill="none" stroke="black" points="60,-768.5 238,-768.5 "/>
<text text-anchor="start" x="68" y="-756.5" font-family="Helvetica,sans-Serif" font-size="10.00">+ Object(string fileName,</text>
<text text-anchor="start" x="68" y="-745.5" font-family="Helvetica,sans-Serif" font-size="10.00"> float r, float g, float b)</text>
<text text-anchor="start" x="68" y="-734.5" font-family="Helvetica,sans-Serif" font-size="10.00">+ vector&lt; Vertex &gt; getVertices()</text>
<text text-anchor="start" x="68" y="-723.5" font-family="Helvetica,sans-Serif" font-size="10.00">+ vector&lt; Face &gt; getFaces()</text>
<text text-anchor="start" x="68" y="-712.5" font-family="Helvetica,sans-Serif" font-size="10.00">+ virtual void load()=0</text>
<text text-anchor="start" x="68" y="-701.5" font-family="Helvetica,sans-Serif" font-size="10.00">+ void draw(GLuint program</text>
<text text-anchor="start" x="68" y="-690.5" font-family="Helvetica,sans-Serif" font-size="10.00">ID, glm::mat4 transform)</text>
<text text-anchor="start" x="68" y="-679.5" font-family="Helvetica,sans-Serif" font-size="10.00">+ void setScale(glm::</text>
<text text-anchor="start" x="68" y="-668.5" font-family="Helvetica,sans-Serif" font-size="10.00">mat4 scale)</text>
<text text-anchor="start" x="68" y="-657.5" font-family="Helvetica,sans-Serif" font-size="10.00">+ void setRotate(glm</text>
<text text-anchor="start" x="68" y="-646.5" font-family="Helvetica,sans-Serif" font-size="10.00">::mat4 rotate)</text>
<text text-anchor="start" x="68" y="-635.5" font-family="Helvetica,sans-Serif" font-size="10.00">+ void setTranslate(glm</text>
<text text-anchor="start" x="68" y="-624.5" font-family="Helvetica,sans-Serif" font-size="10.00">::mat4 translate)</text>
<text text-anchor="start" x="68" y="-613.5" font-family="Helvetica,sans-Serif" font-size="10.00">+ glm::mat4 getScale()</text>
<text text-anchor="start" x="68" y="-602.5" font-family="Helvetica,sans-Serif" font-size="10.00">+ glm::mat4 getRotate()</text>
<text text-anchor="start" x="68" y="-591.5" font-family="Helvetica,sans-Serif" font-size="10.00">+ glm::mat4 getTranslate()</text>
<text text-anchor="start" x="68" y="-580.5" font-family="Helvetica,sans-Serif" font-size="10.00">+ glm::mat4 getTransform()</text>
<text text-anchor="start" x="68" y="-569.5" font-family="Helvetica,sans-Serif" font-size="10.00">+ Object(string fileName,</text>
<text text-anchor="start" x="68" y="-558.5" font-family="Helvetica,sans-Serif" font-size="10.00"> float r, float g, float b)</text>
<text text-anchor="start" x="68" y="-547.5" font-family="Helvetica,sans-Serif" font-size="10.00">+ vector&lt; Vertex &gt; getVertices()</text>
<text text-anchor="start" x="68" y="-536.5" font-family="Helvetica,sans-Serif" font-size="10.00">+ vector&lt; Face &gt; getFaces()</text>
<text text-anchor="start" x="68" y="-525.5" font-family="Helvetica,sans-Serif" font-size="10.00">+ virtual void load()=0</text>
<text text-anchor="start" x="68" y="-514.5" font-family="Helvetica,sans-Serif" font-size="10.00">+ void draw(GLuint program</text>
<text text-anchor="start" x="68" y="-503.5" font-family="Helvetica,sans-Serif" font-size="10.00">ID, glm::mat4 transform)</text>
<text text-anchor="start" x="68" y="-492.5" font-family="Helvetica,sans-Serif" font-size="10.00">+ void setScale(glm::</text>
<text text-anchor="start" x="68" y="-481.5" font-family="Helvetica,sans-Serif" font-size="10.00">mat4 scale)</text>
<text text-anchor="start" x="68" y="-470.5" font-family="Helvetica,sans-Serif" font-size="10.00">+ void setRotate(glm</text>
<text text-anchor="start" x="68" y="-459.5" font-family="Helvetica,sans-Serif" font-size="10.00">::mat4 rotate)</text>
<text text-anchor="start" x="68" y="-448.5" font-family="Helvetica,sans-Serif" font-size="10.00">+ void setTranslate(glm</text>
<text text-anchor="start" x="68" y="-437.5" font-family="Helvetica,sans-Serif" font-size="10.00">::mat4 translate)</text>
<text text-anchor="start" x="68" y="-426.5" font-family="Helvetica,sans-Serif" font-size="10.00">+ glm::mat4 getScale()</text>
<text text-anchor="start" x="68" y="-415.5" font-family="Helvetica,sans-Serif" font-size="10.00">+ glm::mat4 getRotate()</text>
<text text-anchor="start" x="68" y="-404.5" font-family="Helvetica,sans-Serif" font-size="10.00">+ glm::mat4 getTranslate()</text>
<text text-anchor="start" x="68" y="-393.5" font-family="Helvetica,sans-Serif" font-size="10.00">+ glm::mat4 getTransform()</text>
<text text-anchor="start" x="68" y="-382.5" font-family="Helvetica,sans-Serif" font-size="10.00"># vector&lt; string &gt; split</text>
<text text-anchor="start" x="68" y="-371.5" font-family="Helvetica,sans-Serif" font-size="10.00">(const string &amp;str, const</text>
<text text-anchor="start" x="68" y="-360.5" font-family="Helvetica,sans-Serif" font-size="10.00"> string &amp;delim)</text>
<text text-anchor="start" x="68" y="-349.5" font-family="Helvetica,sans-Serif" font-size="10.00"># void set_data()</text>
<text text-anchor="start" x="68" y="-338.5" font-family="Helvetica,sans-Serif" font-size="10.00"># vector&lt; string &gt; split</text>
<text text-anchor="start" x="68" y="-327.5" font-family="Helvetica,sans-Serif" font-size="10.00">(const string &amp;str, const</text>
<text text-anchor="start" x="68" y="-316.5" font-family="Helvetica,sans-Serif" font-size="10.00"> string &amp;delim)</text>
<text text-anchor="start" x="68" y="-305.5" font-family="Helvetica,sans-Serif" font-size="10.00"># void set_data()</text>
</a>
</g>
</g>
<!-- Node2 -->
<g id="node2" class="node">
<title>Node2</title>
<g id="a_node2"><a xlink:href="classObj.html" target="_top" xlink:title="This class is used to create objects using the obj file.">
<polygon fill="white" stroke="black" points="14,-149.5 14,-261.5 140,-261.5 140,-149.5 14,-149.5"/>
<text text-anchor="middle" x="77" y="-249.5" font-family="Helvetica,sans-Serif" font-size="10.00">Obj</text>
<polyline fill="none" stroke="black" points="14,-242.5 140,-242.5 "/>
<text text-anchor="middle" x="77" y="-230.5" font-family="Helvetica,sans-Serif" font-size="10.00"> </text>
<polyline fill="none" stroke="black" points="14,-223.5 140,-223.5 "/>
<text text-anchor="start" x="22" y="-211.5" font-family="Helvetica,sans-Serif" font-size="10.00">+ Obj(string fileName,</text>
<text text-anchor="start" x="22" y="-200.5" font-family="Helvetica,sans-Serif" font-size="10.00"> float r, float g, float b)</text>
<text text-anchor="start" x="22" y="-189.5" font-family="Helvetica,sans-Serif" font-size="10.00">+ void load()</text>
<text text-anchor="start" x="22" y="-178.5" font-family="Helvetica,sans-Serif" font-size="10.00">+ Obj(string fileName,</text>
<text text-anchor="start" x="22" y="-167.5" font-family="Helvetica,sans-Serif" font-size="10.00"> float r, float g, float b)</text>
<text text-anchor="start" x="22" y="-156.5" font-family="Helvetica,sans-Serif" font-size="10.00">+ void load()</text>
</a>
</g>
</g>
<!-- Node1&#45;&gt;Node2 -->
<g id="edge1" class="edge">
<title>Node1&#45;&gt;Node2</title>
<path fill="none" stroke="midnightblue" d="M85.65,-288.35C84.23,-278.87 82.94,-269.95 81.79,-261.75"/>
<polygon fill="none" stroke="midnightblue" points="82.22,-289.06 87.18,-298.42 89.14,-288.01 82.22,-289.06"/>
</g>
<!-- Node1&#45;&gt;Node2 -->
<g id="edge4" class="edge">
<title>Node1&#45;&gt;Node2</title>
<path fill="none" stroke="midnightblue" d="M96.64,-288.35C94.79,-278.87 93,-269.95 91.31,-261.75"/>
<polygon fill="none" stroke="midnightblue" points="93.26,-289.27 98.6,-298.42 100.13,-287.93 93.26,-289.27"/>
</g>
<!-- Node4 -->
<g id="node4" class="node">
<title>Node4</title>
<g id="a_node4"><a xlink:href="classPly.html" target="_top" xlink:title="This class is used to create objects using the ply file.">
<polygon fill="white" stroke="black" points="161.5,-149.5 161.5,-261.5 286.5,-261.5 286.5,-149.5 161.5,-149.5"/>
<text text-anchor="middle" x="224" y="-249.5" font-family="Helvetica,sans-Serif" font-size="10.00">Ply</text>
<polyline fill="none" stroke="black" points="161.5,-242.5 286.5,-242.5 "/>
<text text-anchor="middle" x="224" y="-230.5" font-family="Helvetica,sans-Serif" font-size="10.00"> </text>
<polyline fill="none" stroke="black" points="161.5,-223.5 286.5,-223.5 "/>
<text text-anchor="start" x="169.5" y="-211.5" font-family="Helvetica,sans-Serif" font-size="10.00">+ Ply(string fileName,</text>
<text text-anchor="start" x="169.5" y="-200.5" font-family="Helvetica,sans-Serif" font-size="10.00"> float r, float g, float b)</text>
<text text-anchor="start" x="169.5" y="-189.5" font-family="Helvetica,sans-Serif" font-size="10.00">+ void load()</text>
<text text-anchor="start" x="169.5" y="-178.5" font-family="Helvetica,sans-Serif" font-size="10.00">+ Ply(string fileName,</text>
<text text-anchor="start" x="169.5" y="-167.5" font-family="Helvetica,sans-Serif" font-size="10.00"> float r, float g, float b)</text>
<text text-anchor="start" x="169.5" y="-156.5" font-family="Helvetica,sans-Serif" font-size="10.00">+ void load()</text>
</a>
</g>
</g>
<!-- Node1&#45;&gt;Node4 -->
<g id="edge5" class="edge">
<title>Node1&#45;&gt;Node4</title>
<path fill="none" stroke="midnightblue" d="M203.77,-288.35C205.69,-278.87 207.54,-269.95 209.29,-261.75"/>
<polygon fill="none" stroke="midnightblue" points="200.28,-287.92 201.74,-298.42 207.14,-289.31 200.28,-287.92"/>
</g>
<!-- Node1&#45;&gt;Node4 -->
<g id="edge8" class="edge">
<title>Node1&#45;&gt;Node4</title>
<path fill="none" stroke="midnightblue" d="M214.76,-288.35C216.24,-278.87 217.61,-269.95 218.81,-261.75"/>
<polygon fill="none" stroke="midnightblue" points="211.27,-287.99 213.16,-298.42 218.18,-289.09 211.27,-287.99"/>
</g>
<!-- Node3 -->
<g id="node3" class="node">
<title>Node3</title>
<g id="a_node3"><a xlink:href="classModel.html" target="_top" xlink:title=" ">
<polygon fill="white" stroke="black" points="0,-0.5 0,-112.5 140,-112.5 140,-0.5 0,-0.5"/>
<text text-anchor="middle" x="70" y="-100.5" font-family="Helvetica,sans-Serif" font-size="10.00">Model&lt; Obj &gt;</text>
<polyline fill="none" stroke="black" points="0,-93.5 140,-93.5 "/>
<text text-anchor="middle" x="70" y="-81.5" font-family="Helvetica,sans-Serif" font-size="10.00"> </text>
<polyline fill="none" stroke="black" points="0,-74.5 140,-74.5 "/>
<text text-anchor="start" x="8" y="-62.5" font-family="Helvetica,sans-Serif" font-size="10.00">+ Model(string fileName,</text>
<text text-anchor="start" x="8" y="-51.5" font-family="Helvetica,sans-Serif" font-size="10.00"> float r, float g, float b)</text>
<text text-anchor="start" x="8" y="-40.5" font-family="Helvetica,sans-Serif" font-size="10.00">+ Model()</text>
<text text-anchor="start" x="8" y="-29.5" font-family="Helvetica,sans-Serif" font-size="10.00">+ Model(string fileName,</text>
<text text-anchor="start" x="8" y="-18.5" font-family="Helvetica,sans-Serif" font-size="10.00"> float r, float g, float b)</text>
<text text-anchor="start" x="8" y="-7.5" font-family="Helvetica,sans-Serif" font-size="10.00">+ Model()</text>
</a>
</g>
</g>
<!-- Node2&#45;&gt;Node3 -->
<g id="edge2" class="edge">
<title>Node2&#45;&gt;Node3</title>
<path fill="none" stroke="midnightblue" d="M67.18,-139.18C66.68,-130.43 66.3,-121.52 66.08,-112.96"/>
<polygon fill="none" stroke="midnightblue" points="63.7,-139.58 67.81,-149.34 70.68,-139.14 63.7,-139.58"/>
</g>
<!-- Node2&#45;&gt;Node3 -->
<g id="edge3" class="edge">
<title>Node2&#45;&gt;Node3</title>
<path fill="none" stroke="midnightblue" d="M80.6,-139.18C80.27,-130.43 79.79,-121.52 79.21,-112.96"/>
<polygon fill="none" stroke="midnightblue" points="77.11,-139.46 80.93,-149.34 84.11,-139.24 77.11,-139.46"/>
</g>
<!-- Node5 -->
<g id="node5" class="node">
<title>Node5</title>
<g id="a_node5"><a xlink:href="classModel.html" target="_top" xlink:title=" ">
<polygon fill="white" stroke="black" points="158,-0.5 158,-112.5 298,-112.5 298,-0.5 158,-0.5"/>
<text text-anchor="middle" x="228" y="-100.5" font-family="Helvetica,sans-Serif" font-size="10.00">Model&lt; Ply &gt;</text>
<polyline fill="none" stroke="black" points="158,-93.5 298,-93.5 "/>
<text text-anchor="middle" x="228" y="-81.5" font-family="Helvetica,sans-Serif" font-size="10.00"> </text>
<polyline fill="none" stroke="black" points="158,-74.5 298,-74.5 "/>
<text text-anchor="start" x="166" y="-62.5" font-family="Helvetica,sans-Serif" font-size="10.00">+ Model(string fileName,</text>
<text text-anchor="start" x="166" y="-51.5" font-family="Helvetica,sans-Serif" font-size="10.00"> float r, float g, float b)</text>
<text text-anchor="start" x="166" y="-40.5" font-family="Helvetica,sans-Serif" font-size="10.00">+ Model()</text>
<text text-anchor="start" x="166" y="-29.5" font-family="Helvetica,sans-Serif" font-size="10.00">+ Model(string fileName,</text>
<text text-anchor="start" x="166" y="-18.5" font-family="Helvetica,sans-Serif" font-size="10.00"> float r, float g, float b)</text>
<text text-anchor="start" x="166" y="-7.5" font-family="Helvetica,sans-Serif" font-size="10.00">+ Model()</text>
</a>
</g>
</g>
<!-- Node4&#45;&gt;Node5 -->
<g id="edge6" class="edge">
<title>Node4&#45;&gt;Node5</title>
<path fill="none" stroke="midnightblue" d="M219.06,-139.18C219.22,-130.43 219.51,-121.52 219.92,-112.96"/>
<polygon fill="none" stroke="midnightblue" points="215.56,-139.3 218.94,-149.34 222.56,-139.39 215.56,-139.3"/>
</g>
<!-- Node4&#45;&gt;Node5 -->
<g id="edge7" class="edge">
<title>Node4&#45;&gt;Node5</title>
<path fill="none" stroke="midnightblue" d="M232.49,-139.18C232.81,-130.43 233,-121.52 233.06,-112.96"/>
<polygon fill="none" stroke="midnightblue" points="228.99,-139.21 232.06,-149.34 235.98,-139.5 228.99,-139.21"/>
</g>
</g>
</svg>
