<?xml version="1.0" encoding="UTF-8" standalone="no"?>
<!DOCTYPE svg PUBLIC "-//W3C//DTD SVG 1.1//EN"
 "http://www.w3.org/Graphics/SVG/1.1/DTD/svg11.dtd">
<!-- Generated by graphviz version 2.43.0 (0)
 -->
<!-- Title: Robot::Robot Pages: 1 -->
<svg width="352pt" height="123pt"
 viewBox="0.00 0.00 352.00 123.00" xmlns="http://www.w3.org/2000/svg" xmlns:xlink="http://www.w3.org/1999/xlink">
<g id="graph0" class="graph" transform="scale(1 1) rotate(0) translate(4 119)">
<title>Robot::Robot</title>
<polygon fill="white" stroke="transparent" points="-4,4 -4,-119 348,-119 348,4 -4,4"/>
<!-- Node1 -->
<g id="node1" class="node">
<title>Node1</title>
<g id="a_node1"><a xlink:title="Construct a new Robot:: Robot object.">
<polygon fill="#bfbfbf" stroke="black" points="0,-38.5 0,-57.5 80,-57.5 80,-38.5 0,-38.5"/>
<text text-anchor="middle" x="40" y="-45.5" font-family="Helvetica,sans-Serif" font-size="10.00">Robot::Robot</text>
</a>
</g>
</g>
<!-- Node2 -->
<g id="node2" class="node">
<title>Node2</title>
<g id="a_node2"><a xlink:href="classAnimation.html#ab64e14e2cfb97930c35009c836b960d3" target="_top" xlink:title="This method returns the bezier curve.">
<polygon fill="white" stroke="black" points="121,-76.5 121,-95.5 224,-95.5 224,-76.5 121,-76.5"/>
<text text-anchor="middle" x="172.5" y="-83.5" font-family="Helvetica,sans-Serif" font-size="10.00">Animation::bezier</text>
</a>
</g>
</g>
<!-- Node1&#45;&gt;Node2 -->
<g id="edge1" class="edge">
<title>Node1&#45;&gt;Node2</title>
<path fill="none" stroke="midnightblue" d="M73.93,-57.59C90.62,-62.45 111.09,-68.41 128.96,-73.61"/>
<polygon fill="midnightblue" stroke="midnightblue" points="128,-76.98 138.58,-76.41 129.96,-70.26 128,-76.98"/>
</g>
<!-- Node5 -->
<g id="node5" class="node">
<title>Node5</title>
<g id="a_node5"><a xlink:href="classObject.html#a6d4dd501ee4848dfe26216b30aeb64ce" target="_top" xlink:title="This method sets the scale matrix.">
<polygon fill="white" stroke="black" points="125,-38.5 125,-57.5 220,-57.5 220,-38.5 125,-38.5"/>
<text text-anchor="middle" x="172.5" y="-45.5" font-family="Helvetica,sans-Serif" font-size="10.00">Object::setScale</text>
</a>
</g>
</g>
<!-- Node1&#45;&gt;Node5 -->
<g id="edge4" class="edge">
<title>Node1&#45;&gt;Node5</title>
<path fill="none" stroke="midnightblue" d="M80.15,-48C90.95,-48 102.9,-48 114.49,-48"/>
<polygon fill="midnightblue" stroke="midnightblue" points="114.54,-51.5 124.54,-48 114.54,-44.5 114.54,-51.5"/>
</g>
<!-- Node6 -->
<g id="node6" class="node">
<title>Node6</title>
<g id="a_node6"><a xlink:href="classObject.html#ac8ce37df2fa751bfbbf0c8c2e3499a0d" target="_top" xlink:title="This method sets the translation matrix.">
<polygon fill="white" stroke="black" points="116,-0.5 116,-19.5 229,-19.5 229,-0.5 116,-0.5"/>
<text text-anchor="middle" x="172.5" y="-7.5" font-family="Helvetica,sans-Serif" font-size="10.00">Object::setTranslate</text>
</a>
</g>
</g>
<!-- Node1&#45;&gt;Node6 -->
<g id="edge5" class="edge">
<title>Node1&#45;&gt;Node6</title>
<path fill="none" stroke="midnightblue" d="M73.93,-38.41C90.62,-33.55 111.09,-27.59 128.96,-22.39"/>
<polygon fill="midnightblue" stroke="midnightblue" points="129.96,-25.74 138.58,-19.59 128,-19.02 129.96,-25.74"/>
</g>
<!-- Node3 -->
<g id="node3" class="node">
<title>Node3</title>
<g id="a_node3"><a xlink:href="classVertex.html#ab735eed18c29ece9d1e28bd658a1b25c" target="_top" xlink:title="This method returns the vertex as a row.">
<polygon fill="white" stroke="black" points="268.5,-95.5 268.5,-114.5 340.5,-114.5 340.5,-95.5 268.5,-95.5"/>
<text text-anchor="middle" x="304.5" y="-102.5" font-family="Helvetica,sans-Serif" font-size="10.00">Vertex::row</text>
</a>
</g>
</g>
<!-- Node2&#45;&gt;Node3 -->
<g id="edge2" class="edge">
<title>Node2&#45;&gt;Node3</title>
<path fill="none" stroke="midnightblue" d="M224.13,-93.4C235.49,-95.06 247.46,-96.81 258.56,-98.43"/>
<polygon fill="midnightblue" stroke="midnightblue" points="258.07,-101.9 268.47,-99.88 259.08,-94.97 258.07,-101.9"/>
</g>
<!-- Node4 -->
<g id="node4" class="node">
<title>Node4</title>
<g id="a_node4"><a xlink:href="classAnimation.html#a34f28290b5efb7db9bfd3fc41e9a85e4" target="_top" xlink:title="This method returns the translation matrix.">
<polygon fill="white" stroke="black" points="265,-57.5 265,-76.5 344,-76.5 344,-57.5 265,-57.5"/>
<text text-anchor="middle" x="304.5" y="-64.5" font-family="Helvetica,sans-Serif" font-size="10.00">Animation::T</text>
</a>
</g>
</g>
<!-- Node2&#45;&gt;Node4 -->
<g id="edge3" class="edge">
<title>Node2&#45;&gt;Node4</title>
<path fill="none" stroke="midnightblue" d="M224.13,-78.6C234.19,-77.13 244.72,-75.59 254.71,-74.13"/>
<polygon fill="midnightblue" stroke="midnightblue" points="255.49,-77.55 264.88,-72.64 254.48,-70.63 255.49,-77.55"/>
</g>
</g>
</svg>
