<?xml version="1.0" encoding="UTF-8" standalone="no"?>
<!DOCTYPE svg PUBLIC "-//W3C//DTD SVG 1.1//EN"
 "http://www.w3.org/Graphics/SVG/1.1/DTD/svg11.dtd">
<!-- Generated by graphviz version 2.43.0 (0)
 -->
<!-- Title: Object::split Pages: 1 -->
<svg width="271pt" height="66pt"
 viewBox="0.00 0.00 271.00 66.00" xmlns="http://www.w3.org/2000/svg" xmlns:xlink="http://www.w3.org/1999/xlink">
<g id="graph0" class="graph" transform="scale(1 1) rotate(0) translate(4 62)">
<title>Object::split</title>
<polygon fill="white" stroke="transparent" points="-4,4 -4,-62 267,-62 267,4 -4,4"/>
<!-- Node1 -->
<g id="node1" class="node">
<title>Node1</title>
<g id="a_node1"><a xlink:title="This method split a string with a delimiter.">
<polygon fill="#bfbfbf" stroke="black" points="188,-19.5 188,-38.5 263,-38.5 263,-19.5 188,-19.5"/>
<text text-anchor="middle" x="225.5" y="-26.5" font-family="Helvetica,sans-Serif" font-size="10.00">Object::split</text>
</a>
</g>
</g>
<!-- Node2 -->
<g id="node2" class="node">
<title>Node2</title>
<g id="a_node2"><a xlink:href="classObj.html#a1d5749d4cd3023b3a5b864f86857c5ec" target="_top" xlink:title="This method is used to load in memory the obj file.">
<polygon fill="white" stroke="black" points="92,-38.5 92,-57.5 152,-57.5 152,-38.5 92,-38.5"/>
<text text-anchor="middle" x="122" y="-45.5" font-family="Helvetica,sans-Serif" font-size="10.00">Obj::load</text>
</a>
</g>
</g>
<!-- Node1&#45;&gt;Node2 -->
<g id="edge1" class="edge">
<title>Node1&#45;&gt;Node2</title>
<path fill="none" stroke="midnightblue" d="M177.79,-37.74C169.1,-39.37 160.25,-41.03 152.27,-42.52"/>
<polygon fill="midnightblue" stroke="midnightblue" points="178.67,-41.14 187.86,-35.86 177.38,-34.26 178.67,-41.14"/>
</g>
<!-- Node4 -->
<g id="node4" class="node">
<title>Node4</title>
<g id="a_node4"><a xlink:href="classPly.html#adca3f927c20e1c72f99b20885565b8fd" target="_top" xlink:title="This method is used to load in memory the ply file.">
<polygon fill="white" stroke="black" points="93,-0.5 93,-19.5 151,-19.5 151,-0.5 93,-0.5"/>
<text text-anchor="middle" x="122" y="-7.5" font-family="Helvetica,sans-Serif" font-size="10.00">Ply::load</text>
</a>
</g>
</g>
<!-- Node1&#45;&gt;Node4 -->
<g id="edge3" class="edge">
<title>Node1&#45;&gt;Node4</title>
<path fill="none" stroke="midnightblue" d="M177.78,-20.26C168.75,-18.56 159.53,-16.84 151.31,-15.3"/>
<polygon fill="midnightblue" stroke="midnightblue" points="177.38,-23.74 187.86,-22.14 178.67,-16.86 177.38,-23.74"/>
</g>
<!-- Node3 -->
<g id="node3" class="node">
<title>Node3</title>
<g id="a_node3"><a xlink:href="classObj.html#a2dcbfba56265b30ae55b00bf234b9891" target="_top" xlink:title="Construct a new Obj:: Obj object.">
<polygon fill="white" stroke="black" points="0,-38.5 0,-57.5 56,-57.5 56,-38.5 0,-38.5"/>
<text text-anchor="middle" x="28" y="-45.5" font-family="Helvetica,sans-Serif" font-size="10.00">Obj::Obj</text>
</a>
</g>
</g>
<!-- Node2&#45;&gt;Node3 -->
<g id="edge2" class="edge">
<title>Node2&#45;&gt;Node3</title>
<path fill="none" stroke="midnightblue" d="M81.61,-48C72.99,-48 64.05,-48 56.04,-48"/>
<polygon fill="midnightblue" stroke="midnightblue" points="81.89,-51.5 91.89,-48 81.89,-44.5 81.89,-51.5"/>
</g>
<!-- Node5 -->
<g id="node5" class="node">
<title>Node5</title>
<g id="a_node5"><a xlink:href="classPly.html#a72cf68a560b691517dc1ad360c0c045a" target="_top" xlink:title="Construct a new Ply:: Ply object.">
<polygon fill="white" stroke="black" points="2,-0.5 2,-19.5 54,-19.5 54,-0.5 2,-0.5"/>
<text text-anchor="middle" x="28" y="-7.5" font-family="Helvetica,sans-Serif" font-size="10.00">Ply::Ply</text>
</a>
</g>
</g>
<!-- Node4&#45;&gt;Node5 -->
<g id="edge4" class="edge">
<title>Node4&#45;&gt;Node5</title>
<path fill="none" stroke="midnightblue" d="M82.69,-10C73.05,-10 62.93,-10 54.12,-10"/>
<polygon fill="midnightblue" stroke="midnightblue" points="82.9,-13.5 92.9,-10 82.9,-6.5 82.9,-13.5"/>
</g>
</g>
</svg>
