<?xml version="1.0" encoding="UTF-8" standalone="no"?>
<!DOCTYPE svg PUBLIC "-//W3C//DTD SVG 1.1//EN"
 "http://www.w3.org/Graphics/SVG/1.1/DTD/svg11.dtd">
<!-- Generated by graphviz version 2.43.0 (0)
 -->
<!-- Title: Scene::getCameraY Pages: 1 -->
<svg width="486pt" height="66pt"
 viewBox="0.00 0.00 486.00 66.00" xmlns="http://www.w3.org/2000/svg" xmlns:xlink="http://www.w3.org/1999/xlink">
<g id="graph0" class="graph" transform="scale(1 1) rotate(0) translate(4 62)">
<title>Scene::getCameraY</title>
<polygon fill="white" stroke="transparent" points="-4,4 -4,-62 482,-62 482,4 -4,4"/>
<!-- Node1 -->
<g id="node1" class="node">
<title>Node1</title>
<g id="a_node1"><a xlink:title=" ">
<polygon fill="#bfbfbf" stroke="black" points="366,-19.5 366,-38.5 478,-38.5 478,-19.5 366,-19.5"/>
<text text-anchor="middle" x="422" y="-26.5" font-family="Helvetica,sans-Serif" font-size="10.00">Scene::getCameraY</text>
</a>
</g>
</g>
<!-- Node2 -->
<g id="node2" class="node">
<title>Node2</title>
<g id="a_node2"><a xlink:href="classSimulation.html#af3b86332848f469748212b35e078980c" target="_top" xlink:title="This method changes the camera.">
<polygon fill="white" stroke="black" points="181,-38.5 181,-57.5 330,-57.5 330,-38.5 181,-38.5"/>
<text text-anchor="middle" x="255.5" y="-45.5" font-family="Helvetica,sans-Serif" font-size="10.00">Simulation::changeCamera</text>
</a>
</g>
</g>
<!-- Node1&#45;&gt;Node2 -->
<g id="edge1" class="edge">
<title>Node1&#45;&gt;Node2</title>
<path fill="none" stroke="midnightblue" d="M355.72,-36.54C347.37,-37.5 338.77,-38.5 330.29,-39.48"/>
<polygon fill="midnightblue" stroke="midnightblue" points="356.23,-40 365.77,-35.38 355.43,-33.05 356.23,-40"/>
</g>
<!-- Node5 -->
<g id="node5" class="node">
<title>Node5</title>
<g id="a_node5"><a xlink:href="classSimulation.html#a5b224cc5b36bcc8eb29689aff223de41" target="_top" xlink:title="Construct a new Simulation:: Simulation object.">
<polygon fill="white" stroke="black" points="191.5,-0.5 191.5,-19.5 319.5,-19.5 319.5,-0.5 191.5,-0.5"/>
<text text-anchor="middle" x="255.5" y="-7.5" font-family="Helvetica,sans-Serif" font-size="10.00">Simulation::Simulation</text>
</a>
</g>
</g>
<!-- Node1&#45;&gt;Node5 -->
<g id="edge4" class="edge">
<title>Node1&#45;&gt;Node5</title>
<path fill="none" stroke="midnightblue" d="M355.5,-21.43C343.65,-20.07 331.31,-18.64 319.53,-17.28"/>
<polygon fill="midnightblue" stroke="midnightblue" points="355.43,-24.95 365.77,-22.62 356.23,-18 355.43,-24.95"/>
</g>
<!-- Node3 -->
<g id="node3" class="node">
<title>Node3</title>
<g id="a_node3"><a xlink:href="classScene.html#aef70538258ae4abfad9563523de0ece0" target="_top" xlink:title="This method runs the simulation.">
<polygon fill="white" stroke="black" points="77,-38.5 77,-57.5 145,-57.5 145,-38.5 77,-38.5"/>
<text text-anchor="middle" x="111" y="-45.5" font-family="Helvetica,sans-Serif" font-size="10.00">Scene::run</text>
</a>
</g>
</g>
<!-- Node2&#45;&gt;Node3 -->
<g id="edge2" class="edge">
<title>Node2&#45;&gt;Node3</title>
<path fill="none" stroke="midnightblue" d="M170.55,-48C161.6,-48 152.92,-48 145.11,-48"/>
<polygon fill="midnightblue" stroke="midnightblue" points="170.75,-51.5 180.75,-48 170.75,-44.5 170.75,-51.5"/>
</g>
<!-- Node4 -->
<g id="node4" class="node">
<title>Node4</title>
<g id="a_node4"><a xlink:href="main_8cpp.html#a840291bc02cba5474a4cb46a9b9566fe" target="_top" xlink:title="Inicilizacion de simulacion.">
<polygon fill="white" stroke="black" points="0,-38.5 0,-57.5 41,-57.5 41,-38.5 0,-38.5"/>
<text text-anchor="middle" x="20.5" y="-45.5" font-family="Helvetica,sans-Serif" font-size="10.00">main</text>
</a>
</g>
</g>
<!-- Node3&#45;&gt;Node4 -->
<g id="edge3" class="edge">
<title>Node3&#45;&gt;Node4</title>
<path fill="none" stroke="midnightblue" d="M66.51,-48C57.66,-48 48.77,-48 41.25,-48"/>
<polygon fill="midnightblue" stroke="midnightblue" points="66.79,-51.5 76.79,-48 66.79,-44.5 66.79,-51.5"/>
</g>
</g>
</svg>
