<?xml version="1.0" encoding="UTF-8" standalone="no"?>
<!DOCTYPE svg PUBLIC "-//W3C//DTD SVG 1.1//EN"
 "http://www.w3.org/Graphics/SVG/1.1/DTD/svg11.dtd">
<!-- Generated by graphviz version 2.43.0 (0)
 -->
<!-- Title: Animation::bezier Pages: 1 -->
<svg width="226pt" height="66pt"
 viewBox="0.00 0.00 226.00 66.00" xmlns="http://www.w3.org/2000/svg" xmlns:xlink="http://www.w3.org/1999/xlink">
<g id="graph0" class="graph" transform="scale(1 1) rotate(0) translate(4 62)">
<title>Animation::bezier</title>
<polygon fill="white" stroke="transparent" points="-4,4 -4,-62 222,-62 222,4 -4,4"/>
<!-- Node1 -->
<g id="node1" class="node">
<title>Node1</title>
<g id="a_node1"><a xlink:title="This method returns the bezier curve.">
<polygon fill="#bfbfbf" stroke="black" points="0,-19.5 0,-38.5 103,-38.5 103,-19.5 0,-19.5"/>
<text text-anchor="middle" x="51.5" y="-26.5" font-family="Helvetica,sans-Serif" font-size="10.00">Animation::bezier</text>
</a>
</g>
</g>
<!-- Node2 -->
<g id="node2" class="node">
<title>Node2</title>
<g id="a_node2"><a xlink:href="classVertex.html#ab735eed18c29ece9d1e28bd658a1b25c" target="_top" xlink:title="This method returns the vertex as a row.">
<polygon fill="white" stroke="black" points="142.5,-38.5 142.5,-57.5 214.5,-57.5 214.5,-38.5 142.5,-38.5"/>
<text text-anchor="middle" x="178.5" y="-45.5" font-family="Helvetica,sans-Serif" font-size="10.00">Vertex::row</text>
</a>
</g>
</g>
<!-- Node1&#45;&gt;Node2 -->
<g id="edge1" class="edge">
<title>Node1&#45;&gt;Node2</title>
<path fill="none" stroke="midnightblue" d="M103.34,-36.73C112.97,-38.19 122.98,-39.71 132.42,-41.15"/>
<polygon fill="midnightblue" stroke="midnightblue" points="131.98,-44.62 142.39,-42.66 133.03,-37.7 131.98,-44.62"/>
</g>
<!-- Node3 -->
<g id="node3" class="node">
<title>Node3</title>
<g id="a_node3"><a xlink:href="classAnimation.html#a34f28290b5efb7db9bfd3fc41e9a85e4" target="_top" xlink:title="This method returns the translation matrix.">
<polygon fill="white" stroke="black" points="139,-0.5 139,-19.5 218,-19.5 218,-0.5 139,-0.5"/>
<text text-anchor="middle" x="178.5" y="-7.5" font-family="Helvetica,sans-Serif" font-size="10.00">Animation::T</text>
</a>
</g>
</g>
<!-- Node1&#45;&gt;Node3 -->
<g id="edge2" class="edge">
<title>Node1&#45;&gt;Node3</title>
<path fill="none" stroke="midnightblue" d="M103.34,-21.27C111.8,-19.99 120.55,-18.66 128.95,-17.38"/>
<polygon fill="midnightblue" stroke="midnightblue" points="129.62,-20.82 138.98,-15.86 128.56,-13.9 129.62,-20.82"/>
</g>
</g>
</svg>
