<?xml version="1.0" encoding="UTF-8" standalone="no"?>
<!DOCTYPE svg PUBLIC "-//W3C//DTD SVG 1.1//EN"
 "http://www.w3.org/Graphics/SVG/1.1/DTD/svg11.dtd">
<!-- Generated by graphviz version 2.43.0 (0)
 -->
<!-- Title: Ball::Ball Pages: 1 -->
<svg width="217pt" height="66pt"
 viewBox="0.00 0.00 217.00 66.00" xmlns="http://www.w3.org/2000/svg" xmlns:xlink="http://www.w3.org/1999/xlink">
<g id="graph0" class="graph" transform="scale(1 1) rotate(0) translate(4 62)">
<title>Ball::Ball</title>
<polygon fill="white" stroke="transparent" points="-4,4 -4,-62 213,-62 213,4 -4,4"/>
<!-- Node1 -->
<g id="node1" class="node">
<title>Node1</title>
<g id="a_node1"><a xlink:title="Construct a new Ball:: Ball object.">
<polygon fill="#bfbfbf" stroke="black" points="0,-19.5 0,-38.5 60,-38.5 60,-19.5 0,-19.5"/>
<text text-anchor="middle" x="30" y="-26.5" font-family="Helvetica,sans-Serif" font-size="10.00">Ball::Ball</text>
</a>
</g>
</g>
<!-- Node2 -->
<g id="node2" class="node">
<title>Node2</title>
<g id="a_node2"><a xlink:href="classObject.html#a6d4dd501ee4848dfe26216b30aeb64ce" target="_top" xlink:title="This method sets the scale matrix.">
<polygon fill="white" stroke="black" points="105,-38.5 105,-57.5 200,-57.5 200,-38.5 105,-38.5"/>
<text text-anchor="middle" x="152.5" y="-45.5" font-family="Helvetica,sans-Serif" font-size="10.00">Object::setScale</text>
</a>
</g>
</g>
<!-- Node1&#45;&gt;Node2 -->
<g id="edge1" class="edge">
<title>Node1&#45;&gt;Node2</title>
<path fill="none" stroke="midnightblue" d="M60.17,-33.6C70.62,-35.25 82.78,-37.16 94.76,-39.05"/>
<polygon fill="midnightblue" stroke="midnightblue" points="94.32,-42.53 104.74,-40.63 95.41,-35.61 94.32,-42.53"/>
</g>
<!-- Node3 -->
<g id="node3" class="node">
<title>Node3</title>
<g id="a_node3"><a xlink:href="classObject.html#ac8ce37df2fa751bfbbf0c8c2e3499a0d" target="_top" xlink:title="This method sets the translation matrix.">
<polygon fill="white" stroke="black" points="96,-0.5 96,-19.5 209,-19.5 209,-0.5 96,-0.5"/>
<text text-anchor="middle" x="152.5" y="-7.5" font-family="Helvetica,sans-Serif" font-size="10.00">Object::setTranslate</text>
</a>
</g>
</g>
<!-- Node1&#45;&gt;Node3 -->
<g id="edge2" class="edge">
<title>Node1&#45;&gt;Node3</title>
<path fill="none" stroke="midnightblue" d="M60.17,-24.4C67.96,-23.17 76.71,-21.79 85.63,-20.39"/>
<polygon fill="midnightblue" stroke="midnightblue" points="86.39,-23.81 95.72,-18.8 85.3,-16.9 86.39,-23.81"/>
</g>
</g>
</svg>
