<?xml version="1.0" encoding="UTF-8" standalone="no"?>
<!DOCTYPE svg PUBLIC "-//W3C//DTD SVG 1.1//EN"
 "http://www.w3.org/Graphics/SVG/1.1/DTD/svg11.dtd">
<!-- Generated by graphviz version 2.43.0 (0)
 -->
<!-- Title: Obj::Obj Pages: 1 -->
<svg width="307pt" height="66pt"
 viewBox="0.00 0.00 307.00 66.00" xmlns="http://www.w3.org/2000/svg" xmlns:xlink="http://www.w3.org/1999/xlink">
<g id="graph0" class="graph" transform="scale(1 1) rotate(0) translate(4 62)">
<title>Obj::Obj</title>
<polygon fill="white" stroke="transparent" points="-4,4 -4,-62 303,-62 303,4 -4,4"/>
<!-- Node1 -->
<g id="node1" class="node">
<title>Node1</title>
<g id="a_node1"><a xlink:title="Construct a new Obj:: Obj object.">
<polygon fill="#bfbfbf" stroke="black" points="0,-19.5 0,-38.5 56,-38.5 56,-19.5 0,-19.5"/>
<text text-anchor="middle" x="28" y="-26.5" font-family="Helvetica,sans-Serif" font-size="10.00">Obj::Obj</text>
</a>
</g>
</g>
<!-- Node2 -->
<g id="node2" class="node">
<title>Node2</title>
<g id="a_node2"><a xlink:href="classObj.html#a1d5749d4cd3023b3a5b864f86857c5ec" target="_top" xlink:title="This method is used to load in memory the obj file.">
<polygon fill="white" stroke="black" points="110,-38.5 110,-57.5 170,-57.5 170,-38.5 110,-38.5"/>
<text text-anchor="middle" x="140" y="-45.5" font-family="Helvetica,sans-Serif" font-size="10.00">Obj::load</text>
</a>
</g>
</g>
<!-- Node1&#45;&gt;Node2 -->
<g id="edge1" class="edge">
<title>Node1&#45;&gt;Node2</title>
<path fill="none" stroke="midnightblue" d="M56.19,-33.7C69.3,-35.96 85.26,-38.72 99.66,-41.21"/>
<polygon fill="midnightblue" stroke="midnightblue" points="99.36,-44.71 109.81,-42.96 100.55,-37.81 99.36,-44.71"/>
</g>
<!-- Node4 -->
<g id="node4" class="node">
<title>Node4</title>
<g id="a_node4"><a xlink:href="classObject.html#ae7309d85e7f0d7d09b09a396f2b6017f" target="_top" xlink:title="This method is used to set the data of the object.">
<polygon fill="white" stroke="black" points="92,-0.5 92,-19.5 188,-19.5 188,-0.5 92,-0.5"/>
<text text-anchor="middle" x="140" y="-7.5" font-family="Helvetica,sans-Serif" font-size="10.00">Object::set_data</text>
</a>
</g>
</g>
<!-- Node1&#45;&gt;Node4 -->
<g id="edge3" class="edge">
<title>Node1&#45;&gt;Node4</title>
<path fill="none" stroke="midnightblue" d="M56.19,-24.3C64.05,-22.95 72.94,-21.41 81.9,-19.86"/>
<polygon fill="midnightblue" stroke="midnightblue" points="82.74,-23.27 91.99,-18.12 81.54,-16.37 82.74,-23.27"/>
</g>
<!-- Node3 -->
<g id="node3" class="node">
<title>Node3</title>
<g id="a_node3"><a xlink:href="classObject.html#a5ead10d01ac62314aae690e6e094a3ec" target="_top" xlink:title="This method split a string with a delimiter.">
<polygon fill="white" stroke="black" points="224,-38.5 224,-57.5 299,-57.5 299,-38.5 224,-38.5"/>
<text text-anchor="middle" x="261.5" y="-45.5" font-family="Helvetica,sans-Serif" font-size="10.00">Object::split</text>
</a>
</g>
</g>
<!-- Node2&#45;&gt;Node3 -->
<g id="edge2" class="edge">
<title>Node2&#45;&gt;Node3</title>
<path fill="none" stroke="midnightblue" d="M170.23,-48C183.24,-48 198.89,-48 213.48,-48"/>
<polygon fill="midnightblue" stroke="midnightblue" points="213.86,-51.5 223.86,-48 213.86,-44.5 213.86,-51.5"/>
</g>
</g>
</svg>
