<?xml version="1.0" encoding="UTF-8" standalone="no"?>
<!DOCTYPE svg PUBLIC "-//W3C//DTD SVG 1.1//EN"
 "http://www.w3.org/Graphics/SVG/1.1/DTD/svg11.dtd">
<!-- Generated by graphviz version 2.43.0 (0)
 -->
<!-- Title: Robot::draw Pages: 1 -->
<svg width="232pt" height="66pt"
 viewBox="0.00 0.00 232.00 66.00" xmlns="http://www.w3.org/2000/svg" xmlns:xlink="http://www.w3.org/1999/xlink">
<g id="graph0" class="graph" transform="scale(1 1) rotate(0) translate(4 62)">
<title>Robot::draw</title>
<polygon fill="white" stroke="transparent" points="-4,4 -4,-62 228,-62 228,4 -4,4"/>
<!-- Node1 -->
<g id="node1" class="node">
<title>Node1</title>
<g id="a_node1"><a xlink:title="This method draws the robot with the animation.">
<polygon fill="#bfbfbf" stroke="black" points="0,-19.5 0,-38.5 75,-38.5 75,-19.5 0,-19.5"/>
<text text-anchor="middle" x="37.5" y="-26.5" font-family="Helvetica,sans-Serif" font-size="10.00">Robot::draw</text>
</a>
</g>
</g>
<!-- Node2 -->
<g id="node2" class="node">
<title>Node2</title>
<g id="a_node2"><a xlink:href="classObject.html#aa53c254ac86a97881cd1d4b6f26a3e1b" target="_top" xlink:title="This method is used to draw the object.">
<polygon fill="white" stroke="black" points="128.5,-38.5 128.5,-57.5 206.5,-57.5 206.5,-38.5 128.5,-38.5"/>
<text text-anchor="middle" x="167.5" y="-45.5" font-family="Helvetica,sans-Serif" font-size="10.00">Object::draw</text>
</a>
</g>
</g>
<!-- Node1&#45;&gt;Node2 -->
<g id="edge1" class="edge">
<title>Node1&#45;&gt;Node2</title>
<path fill="none" stroke="midnightblue" d="M75.18,-34.44C88.61,-36.44 104.03,-38.73 118.32,-40.85"/>
<polygon fill="midnightblue" stroke="midnightblue" points="118.07,-44.35 128.48,-42.36 119.1,-37.43 118.07,-44.35"/>
</g>
<!-- Node3 -->
<g id="node3" class="node">
<title>Node3</title>
<g id="a_node3"><a xlink:href="classObject.html#ac8ce37df2fa751bfbbf0c8c2e3499a0d" target="_top" xlink:title="This method sets the translation matrix.">
<polygon fill="white" stroke="black" points="111,-0.5 111,-19.5 224,-19.5 224,-0.5 111,-0.5"/>
<text text-anchor="middle" x="167.5" y="-7.5" font-family="Helvetica,sans-Serif" font-size="10.00">Object::setTranslate</text>
</a>
</g>
</g>
<!-- Node1&#45;&gt;Node3 -->
<g id="edge2" class="edge">
<title>Node1&#45;&gt;Node3</title>
<path fill="none" stroke="midnightblue" d="M75.18,-23.56C83.23,-22.36 91.99,-21.06 100.8,-19.75"/>
<polygon fill="midnightblue" stroke="midnightblue" points="101.34,-23.21 110.72,-18.28 100.31,-16.29 101.34,-23.21"/>
</g>
</g>
</svg>
