<?xml version="1.0" encoding="UTF-8" standalone="no"?>
<!DOCTYPE svg PUBLIC "-//W3C//DTD SVG 1.1//EN"
 "http://www.w3.org/Graphics/SVG/1.1/DTD/svg11.dtd">
<!-- Generated by graphviz version 2.43.0 (0)
 -->
<!-- Title: Message Pages: 1 -->
<svg width="318pt" height="811pt"
 viewBox="0.00 0.00 318.00 811.00" xmlns="http://www.w3.org/2000/svg" xmlns:xlink="http://www.w3.org/1999/xlink">
<g id="graph0" class="graph" transform="scale(1 1) rotate(0) translate(4 807)">
<title>Message</title>
<polygon fill="white" stroke="transparent" points="-4,4 -4,-807 314,-807 314,4 -4,4"/>
<!-- Node1 -->
<g id="node1" class="node">
<title>Node1</title>
<g id="a_node1"><a xlink:title="This class is used to create and draw collition message.">
<polygon fill="#bfbfbf" stroke="black" points="86.5,-0.5 86.5,-90.5 241.5,-90.5 241.5,-0.5 86.5,-0.5"/>
<text text-anchor="middle" x="164" y="-78.5" font-family="Helvetica,sans-Serif" font-size="10.00">Message</text>
<polyline fill="none" stroke="black" points="86.5,-71.5 241.5,-71.5 "/>
<text text-anchor="middle" x="164" y="-59.5" font-family="Helvetica,sans-Serif" font-size="10.00"> </text>
<polyline fill="none" stroke="black" points="86.5,-52.5 241.5,-52.5 "/>
<text text-anchor="start" x="94.5" y="-40.5" font-family="Helvetica,sans-Serif" font-size="10.00">+ Message()</text>
<text text-anchor="start" x="94.5" y="-29.5" font-family="Helvetica,sans-Serif" font-size="10.00">+ void draw(GLuint program</text>
<text text-anchor="start" x="94.5" y="-18.5" font-family="Helvetica,sans-Serif" font-size="10.00">ID, glm::mat4 camera,</text>
<text text-anchor="start" x="94.5" y="-7.5" font-family="Helvetica,sans-Serif" font-size="10.00"> bool status)</text>
</a>
</g>
</g>
<!-- Node2 -->
<g id="node2" class="node">
<title>Node2</title>
<g id="a_node2"><a xlink:href="classModel.html" target="_top" xlink:title=" ">
<polygon fill="white" stroke="black" points="94,-138.5 94,-217.5 234,-217.5 234,-138.5 94,-138.5"/>
<text text-anchor="middle" x="164" y="-205.5" font-family="Helvetica,sans-Serif" font-size="10.00">Model&lt; Obj &gt;</text>
<polyline fill="none" stroke="black" points="94,-198.5 234,-198.5 "/>
<text text-anchor="middle" x="164" y="-186.5" font-family="Helvetica,sans-Serif" font-size="10.00"> </text>
<polyline fill="none" stroke="black" points="94,-179.5 234,-179.5 "/>
<text text-anchor="start" x="102" y="-167.5" font-family="Helvetica,sans-Serif" font-size="10.00">+ Model(string fileName,</text>
<text text-anchor="start" x="102" y="-156.5" font-family="Helvetica,sans-Serif" font-size="10.00"> float r, float g, float b)</text>
<text text-anchor="start" x="102" y="-145.5" font-family="Helvetica,sans-Serif" font-size="10.00">+ Model()</text>
</a>
</g>
</g>
<!-- Node2&#45;&gt;Node1 -->
<g id="edge1" class="edge">
<title>Node2&#45;&gt;Node1</title>
<path fill="none" stroke="#404040" d="M164,-138.2C164,-127.16 164,-114.9 164,-103.04"/>
<polygon fill="none" stroke="#404040" points="164,-102.88 160,-96.88 164,-90.88 168,-96.88 164,-102.88"/>
<text text-anchor="middle" x="190" y="-112" font-family="Helvetica,sans-Serif" font-size="10.00"> &#45;message</text>
</g>
<!-- Node3 -->
<g id="node3" class="node">
<title>Node3</title>
<g id="a_node3"><a xlink:href="classObj.html" target="_top" xlink:title="This class is used to create objects using the obj file.">
<polygon fill="white" stroke="black" points="26,-265.5 26,-344.5 152,-344.5 152,-265.5 26,-265.5"/>
<text text-anchor="middle" x="89" y="-332.5" font-family="Helvetica,sans-Serif" font-size="10.00">Obj</text>
<polyline fill="none" stroke="black" points="26,-325.5 152,-325.5 "/>
<text text-anchor="middle" x="89" y="-313.5" font-family="Helvetica,sans-Serif" font-size="10.00"> </text>
<polyline fill="none" stroke="black" points="26,-306.5 152,-306.5 "/>
<text text-anchor="start" x="34" y="-294.5" font-family="Helvetica,sans-Serif" font-size="10.00">+ Obj(string fileName,</text>
<text text-anchor="start" x="34" y="-283.5" font-family="Helvetica,sans-Serif" font-size="10.00"> float r, float g, float b)</text>
<text text-anchor="start" x="34" y="-272.5" font-family="Helvetica,sans-Serif" font-size="10.00">+ void load()</text>
</a>
</g>
</g>
<!-- Node3&#45;&gt;Node2 -->
<g id="edge2" class="edge">
<title>Node3&#45;&gt;Node2</title>
<path fill="none" stroke="midnightblue" d="M117.37,-256.72C125.12,-243.81 133.41,-229.98 140.83,-217.61"/>
<polygon fill="none" stroke="midnightblue" points="114.26,-255.1 112.11,-265.48 120.26,-258.7 114.26,-255.1"/>
</g>
<!-- Node4 -->
<g id="node4" class="node">
<title>Node4</title>
<g id="a_node4"><a xlink:href="classObject.html" target="_top" xlink:title="This class is used to create objects using vertices and faces.">
<polygon fill="white" stroke="black" points="0,-382.5 0,-802.5 178,-802.5 178,-382.5 0,-382.5"/>
<text text-anchor="middle" x="89" y="-790.5" font-family="Helvetica,sans-Serif" font-size="10.00">Object</text>
<polyline fill="none" stroke="black" points="0,-783.5 178,-783.5 "/>
<text text-anchor="start" x="8" y="-771.5" font-family="Helvetica,sans-Serif" font-size="10.00"># string fileName</text>
<text text-anchor="start" x="8" y="-760.5" font-family="Helvetica,sans-Serif" font-size="10.00"># vector&lt; Vertex &gt; vertices</text>
<text text-anchor="start" x="8" y="-749.5" font-family="Helvetica,sans-Serif" font-size="10.00"># vector&lt; Face &gt; faces</text>
<text text-anchor="start" x="8" y="-738.5" font-family="Helvetica,sans-Serif" font-size="10.00"># float r</text>
<text text-anchor="start" x="8" y="-727.5" font-family="Helvetica,sans-Serif" font-size="10.00"># float g</text>
<text text-anchor="start" x="8" y="-716.5" font-family="Helvetica,sans-Serif" font-size="10.00"># float b</text>
<text text-anchor="start" x="8" y="-705.5" font-family="Helvetica,sans-Serif" font-size="10.00"># GLuint colorbuffer</text>
<text text-anchor="start" x="8" y="-694.5" font-family="Helvetica,sans-Serif" font-size="10.00"># GLuint datasize</text>
<text text-anchor="start" x="8" y="-683.5" font-family="Helvetica,sans-Serif" font-size="10.00"># GLuint MatrixID</text>
<text text-anchor="start" x="8" y="-672.5" font-family="Helvetica,sans-Serif" font-size="10.00"># GLuint vertexbuffer</text>
<text text-anchor="start" x="8" y="-661.5" font-family="Helvetica,sans-Serif" font-size="10.00"># glm::mat4 scale</text>
<text text-anchor="start" x="8" y="-650.5" font-family="Helvetica,sans-Serif" font-size="10.00"># glm::mat4 transform</text>
<text text-anchor="start" x="8" y="-639.5" font-family="Helvetica,sans-Serif" font-size="10.00"># glm::mat4 rotate</text>
<text text-anchor="start" x="8" y="-628.5" font-family="Helvetica,sans-Serif" font-size="10.00"># glm::mat4 translate</text>
<polyline fill="none" stroke="black" points="0,-621.5 178,-621.5 "/>
<text text-anchor="start" x="8" y="-609.5" font-family="Helvetica,sans-Serif" font-size="10.00">+ Object(string fileName,</text>
<text text-anchor="start" x="8" y="-598.5" font-family="Helvetica,sans-Serif" font-size="10.00"> float r, float g, float b)</text>
<text text-anchor="start" x="8" y="-587.5" font-family="Helvetica,sans-Serif" font-size="10.00">+ vector&lt; Vertex &gt; getVertices()</text>
<text text-anchor="start" x="8" y="-576.5" font-family="Helvetica,sans-Serif" font-size="10.00">+ vector&lt; Face &gt; getFaces()</text>
<text text-anchor="start" x="8" y="-565.5" font-family="Helvetica,sans-Serif" font-size="10.00">+ virtual void load()=0</text>
<text text-anchor="start" x="8" y="-554.5" font-family="Helvetica,sans-Serif" font-size="10.00">+ void draw(GLuint program</text>
<text text-anchor="start" x="8" y="-543.5" font-family="Helvetica,sans-Serif" font-size="10.00">ID, glm::mat4 transform)</text>
<text text-anchor="start" x="8" y="-532.5" font-family="Helvetica,sans-Serif" font-size="10.00">+ void setScale(glm::</text>
<text text-anchor="start" x="8" y="-521.5" font-family="Helvetica,sans-Serif" font-size="10.00">mat4 scale)</text>
<text text-anchor="start" x="8" y="-510.5" font-family="Helvetica,sans-Serif" font-size="10.00">+ void setRotate(glm</text>
<text text-anchor="start" x="8" y="-499.5" font-family="Helvetica,sans-Serif" font-size="10.00">::mat4 rotate)</text>
<text text-anchor="start" x="8" y="-488.5" font-family="Helvetica,sans-Serif" font-size="10.00">+ void setTranslate(glm</text>
<text text-anchor="start" x="8" y="-477.5" font-family="Helvetica,sans-Serif" font-size="10.00">::mat4 translate)</text>
<text text-anchor="start" x="8" y="-466.5" font-family="Helvetica,sans-Serif" font-size="10.00">+ glm::mat4 getScale()</text>
<text text-anchor="start" x="8" y="-455.5" font-family="Helvetica,sans-Serif" font-size="10.00">+ glm::mat4 getRotate()</text>
<text text-anchor="start" x="8" y="-444.5" font-family="Helvetica,sans-Serif" font-size="10.00">+ glm::mat4 getTranslate()</text>
<text text-anchor="start" x="8" y="-433.5" font-family="Helvetica,sans-Serif" font-size="10.00">+ glm::mat4 getTransform()</text>
<text text-anchor="start" x="8" y="-422.5" font-family="Helvetica,sans-Serif" font-size="10.00"># vector&lt; string &gt; split</text>
<text text-anchor="start" x="8" y="-411.5" font-family="Helvetica,sans-Serif" font-size="10.00">(const string &amp;str, const</text>
<text text-anchor="start" x="8" y="-400.5" font-family="Helvetica,sans-Serif" font-size="10.00"> string &amp;delim)</text>
<text text-anchor="start" x="8" y="-389.5" font-family="Helvetica,sans-Serif" font-size="10.00"># void set_data()</text>
</a>
</g>
</g>
<!-- Node4&#45;&gt;Node3 -->
<g id="edge3" class="edge">
<title>Node4&#45;&gt;Node3</title>
<path fill="none" stroke="midnightblue" d="M89,-372.06C89,-362.2 89,-353.04 89,-344.86"/>
<polygon fill="none" stroke="midnightblue" points="85.5,-372.13 89,-382.13 92.5,-372.13 85.5,-372.13"/>
</g>
<!-- Node5 -->
<g id="node5" class="node">
<title>Node5</title>
<g id="a_node5"><a xlink:href="classModel.html" target="_top" xlink:title="This class is used to create models using Obj and Ply.">
<polygon fill="white" stroke="black" points="170,-265.5 170,-344.5 310,-344.5 310,-265.5 170,-265.5"/>
<text text-anchor="middle" x="240" y="-332.5" font-family="Helvetica,sans-Serif" font-size="10.00">Model&lt; T &gt;</text>
<polyline fill="none" stroke="black" points="170,-325.5 310,-325.5 "/>
<text text-anchor="middle" x="240" y="-313.5" font-family="Helvetica,sans-Serif" font-size="10.00"> </text>
<polyline fill="none" stroke="black" points="170,-306.5 310,-306.5 "/>
<text text-anchor="start" x="178" y="-294.5" font-family="Helvetica,sans-Serif" font-size="10.00">+ Model(string fileName,</text>
<text text-anchor="start" x="178" y="-283.5" font-family="Helvetica,sans-Serif" font-size="10.00"> float r, float g, float b)</text>
<text text-anchor="start" x="178" y="-272.5" font-family="Helvetica,sans-Serif" font-size="10.00">+ Model()</text>
</a>
</g>
</g>
<!-- Node5&#45;&gt;Node2 -->
<g id="edge4" class="edge">
<title>Node5&#45;&gt;Node2</title>
<path fill="none" stroke="orange" d="M211.25,-256.72C203.4,-243.81 194.99,-229.98 187.48,-217.61"/>
<polygon fill="orange" stroke="orange" points="208.39,-258.75 216.58,-265.48 214.37,-255.11 208.39,-258.75"/>
<text text-anchor="middle" x="226.5" y="-239" font-family="Helvetica,sans-Serif" font-size="10.00"> &lt; Obj &gt;</text>
</g>
<!-- Node6 -->
<g id="node6" class="node">
<title>Node6</title>
<g id="a_node6"><a xlink:title=" ">
<polygon fill="white" stroke="#bfbfbf" points="225.5,-564 225.5,-621 254.5,-621 254.5,-564 225.5,-564"/>
<text text-anchor="middle" x="240" y="-609" font-family="Helvetica,sans-Serif" font-size="10.00">T</text>
<polyline fill="none" stroke="#bfbfbf" points="225.5,-602 254.5,-602 "/>
<text text-anchor="middle" x="240" y="-590" font-family="Helvetica,sans-Serif" font-size="10.00"> </text>
<polyline fill="none" stroke="#bfbfbf" points="225.5,-583 254.5,-583 "/>
<text text-anchor="middle" x="240" y="-571" font-family="Helvetica,sans-Serif" font-size="10.00"> </text>
</a>
</g>
</g>
<!-- Node6&#45;&gt;Node5 -->
<g id="edge5" class="edge">
<title>Node6&#45;&gt;Node5</title>
<path fill="none" stroke="midnightblue" d="M240,-553.63C240,-499.32 240,-399.83 240,-344.93"/>
<polygon fill="none" stroke="midnightblue" points="236.5,-553.87 240,-563.87 243.5,-553.87 236.5,-553.87"/>
</g>
</g>
</svg>
