<?xml version="1.0" encoding="UTF-8" standalone="no"?>
<!DOCTYPE svg PUBLIC "-//W3C//DTD SVG 1.1//EN"
 "http://www.w3.org/Graphics/SVG/1.1/DTD/svg11.dtd">
<!-- Generated by graphviz version 2.43.0 (0)
 -->
<!-- Title: Robot::setP3 Pages: 1 -->
<svg width="340pt" height="66pt"
 viewBox="0.00 0.00 340.00 66.00" xmlns="http://www.w3.org/2000/svg" xmlns:xlink="http://www.w3.org/1999/xlink">
<g id="graph0" class="graph" transform="scale(1 1) rotate(0) translate(4 62)">
<title>Robot::setP3</title>
<polygon fill="white" stroke="transparent" points="-4,4 -4,-62 336,-62 336,4 -4,4"/>
<!-- Node1 -->
<g id="node1" class="node">
<title>Node1</title>
<g id="a_node1"><a xlink:title="This method sets the P3 vertex.">
<polygon fill="#bfbfbf" stroke="black" points="0,-19.5 0,-38.5 78,-38.5 78,-19.5 0,-19.5"/>
<text text-anchor="middle" x="39" y="-26.5" font-family="Helvetica,sans-Serif" font-size="10.00">Robot::setP3</text>
</a>
</g>
</g>
<!-- Node2 -->
<g id="node2" class="node">
<title>Node2</title>
<g id="a_node2"><a xlink:href="classAnimation.html#ab64e14e2cfb97930c35009c836b960d3" target="_top" xlink:title="This method returns the bezier curve.">
<polygon fill="white" stroke="black" points="114,-19.5 114,-38.5 217,-38.5 217,-19.5 114,-19.5"/>
<text text-anchor="middle" x="165.5" y="-26.5" font-family="Helvetica,sans-Serif" font-size="10.00">Animation::bezier</text>
</a>
</g>
</g>
<!-- Node1&#45;&gt;Node2 -->
<g id="edge1" class="edge">
<title>Node1&#45;&gt;Node2</title>
<path fill="none" stroke="midnightblue" d="M78.03,-29C86.15,-29 94.92,-29 103.66,-29"/>
<polygon fill="midnightblue" stroke="midnightblue" points="103.86,-32.5 113.86,-29 103.86,-25.5 103.86,-32.5"/>
</g>
<!-- Node3 -->
<g id="node3" class="node">
<title>Node3</title>
<g id="a_node3"><a xlink:href="classVertex.html#ab735eed18c29ece9d1e28bd658a1b25c" target="_top" xlink:title="This method returns the vertex as a row.">
<polygon fill="white" stroke="black" points="256.5,-38.5 256.5,-57.5 328.5,-57.5 328.5,-38.5 256.5,-38.5"/>
<text text-anchor="middle" x="292.5" y="-45.5" font-family="Helvetica,sans-Serif" font-size="10.00">Vertex::row</text>
</a>
</g>
</g>
<!-- Node2&#45;&gt;Node3 -->
<g id="edge2" class="edge">
<title>Node2&#45;&gt;Node3</title>
<path fill="none" stroke="midnightblue" d="M217.34,-36.73C226.97,-38.19 236.98,-39.71 246.42,-41.15"/>
<polygon fill="midnightblue" stroke="midnightblue" points="245.98,-44.62 256.39,-42.66 247.03,-37.7 245.98,-44.62"/>
</g>
<!-- Node4 -->
<g id="node4" class="node">
<title>Node4</title>
<g id="a_node4"><a xlink:href="classAnimation.html#a34f28290b5efb7db9bfd3fc41e9a85e4" target="_top" xlink:title="This method returns the translation matrix.">
<polygon fill="white" stroke="black" points="253,-0.5 253,-19.5 332,-19.5 332,-0.5 253,-0.5"/>
<text text-anchor="middle" x="292.5" y="-7.5" font-family="Helvetica,sans-Serif" font-size="10.00">Animation::T</text>
</a>
</g>
</g>
<!-- Node2&#45;&gt;Node4 -->
<g id="edge3" class="edge">
<title>Node2&#45;&gt;Node4</title>
<path fill="none" stroke="midnightblue" d="M217.34,-21.27C225.8,-19.99 234.55,-18.66 242.95,-17.38"/>
<polygon fill="midnightblue" stroke="midnightblue" points="243.62,-20.82 252.98,-15.86 242.56,-13.9 243.62,-20.82"/>
</g>
</g>
</svg>
