<?xml version="1.0" encoding="UTF-8" standalone="no"?>
<!DOCTYPE svg PUBLIC "-//W3C//DTD SVG 1.1//EN"
 "http://www.w3.org/Graphics/SVG/1.1/DTD/svg11.dtd">
<!-- Generated by graphviz version 2.43.0 (0)
 -->
<!-- Title: Object Pages: 1 -->
<svg width="306pt" height="661pt"
 viewBox="0.00 0.00 306.00 661.00" xmlns="http://www.w3.org/2000/svg" xmlns:xlink="http://www.w3.org/1999/xlink">
<g id="graph0" class="graph" transform="scale(1 1) rotate(0) translate(4 657)">
<title>Object</title>
<polygon fill="white" stroke="transparent" points="-4,4 -4,-657 302,-657 302,4 -4,4"/>
<!-- Node1 -->
<g id="node1" class="node">
<title>Node1</title>
<g id="a_node1"><a xlink:title="This class is used to create objects using vertices and faces.">
<polygon fill="#bfbfbf" stroke="black" points="60,-232.5 60,-652.5 238,-652.5 238,-232.5 60,-232.5"/>
<text text-anchor="middle" x="149" y="-640.5" font-family="Helvetica,sans-Serif" font-size="10.00">Object</text>
<polyline fill="none" stroke="black" points="60,-633.5 238,-633.5 "/>
<text text-anchor="start" x="68" y="-621.5" font-family="Helvetica,sans-Serif" font-size="10.00"># string fileName</text>
<text text-anchor="start" x="68" y="-610.5" font-family="Helvetica,sans-Serif" font-size="10.00"># vector&lt; Vertex &gt; vertices</text>
<text text-anchor="start" x="68" y="-599.5" font-family="Helvetica,sans-Serif" font-size="10.00"># vector&lt; Face &gt; faces</text>
<text text-anchor="start" x="68" y="-588.5" font-family="Helvetica,sans-Serif" font-size="10.00"># float r</text>
<text text-anchor="start" x="68" y="-577.5" font-family="Helvetica,sans-Serif" font-size="10.00"># float g</text>
<text text-anchor="start" x="68" y="-566.5" font-family="Helvetica,sans-Serif" font-size="10.00"># float b</text>
<text text-anchor="start" x="68" y="-555.5" font-family="Helvetica,sans-Serif" font-size="10.00"># GLuint colorbuffer</text>
<text text-anchor="start" x="68" y="-544.5" font-family="Helvetica,sans-Serif" font-size="10.00"># GLuint datasize</text>
<text text-anchor="start" x="68" y="-533.5" font-family="Helvetica,sans-Serif" font-size="10.00"># GLuint MatrixID</text>
<text text-anchor="start" x="68" y="-522.5" font-family="Helvetica,sans-Serif" font-size="10.00"># GLuint vertexbuffer</text>
<text text-anchor="start" x="68" y="-511.5" font-family="Helvetica,sans-Serif" font-size="10.00"># glm::mat4 scale</text>
<text text-anchor="start" x="68" y="-500.5" font-family="Helvetica,sans-Serif" font-size="10.00"># glm::mat4 transform</text>
<text text-anchor="start" x="68" y="-489.5" font-family="Helvetica,sans-Serif" font-size="10.00"># glm::mat4 rotate</text>
<text text-anchor="start" x="68" y="-478.5" font-family="Helvetica,sans-Serif" font-size="10.00"># glm::mat4 translate</text>
<polyline fill="none" stroke="black" points="60,-471.5 238,-471.5 "/>
<text text-anchor="start" x="68" y="-459.5" font-family="Helvetica,sans-Serif" font-size="10.00">+ Object(string fileName,</text>
<text text-anchor="start" x="68" y="-448.5" font-family="Helvetica,sans-Serif" font-size="10.00"> float r, float g, float b)</text>
<text text-anchor="start" x="68" y="-437.5" font-family="Helvetica,sans-Serif" font-size="10.00">+ vector&lt; Vertex &gt; getVertices()</text>
<text text-anchor="start" x="68" y="-426.5" font-family="Helvetica,sans-Serif" font-size="10.00">+ vector&lt; Face &gt; getFaces()</text>
<text text-anchor="start" x="68" y="-415.5" font-family="Helvetica,sans-Serif" font-size="10.00">+ virtual void load()=0</text>
<text text-anchor="start" x="68" y="-404.5" font-family="Helvetica,sans-Serif" font-size="10.00">+ void draw(GLuint program</text>
<text text-anchor="start" x="68" y="-393.5" font-family="Helvetica,sans-Serif" font-size="10.00">ID, glm::mat4 transform)</text>
<text text-anchor="start" x="68" y="-382.5" font-family="Helvetica,sans-Serif" font-size="10.00">+ void setScale(glm::</text>
<text text-anchor="start" x="68" y="-371.5" font-family="Helvetica,sans-Serif" font-size="10.00">mat4 scale)</text>
<text text-anchor="start" x="68" y="-360.5" font-family="Helvetica,sans-Serif" font-size="10.00">+ void setRotate(glm</text>
<text text-anchor="start" x="68" y="-349.5" font-family="Helvetica,sans-Serif" font-size="10.00">::mat4 rotate)</text>
<text text-anchor="start" x="68" y="-338.5" font-family="Helvetica,sans-Serif" font-size="10.00">+ void setTranslate(glm</text>
<text text-anchor="start" x="68" y="-327.5" font-family="Helvetica,sans-Serif" font-size="10.00">::mat4 translate)</text>
<text text-anchor="start" x="68" y="-316.5" font-family="Helvetica,sans-Serif" font-size="10.00">+ glm::mat4 getScale()</text>
<text text-anchor="start" x="68" y="-305.5" font-family="Helvetica,sans-Serif" font-size="10.00">+ glm::mat4 getRotate()</text>
<text text-anchor="start" x="68" y="-294.5" font-family="Helvetica,sans-Serif" font-size="10.00">+ glm::mat4 getTranslate()</text>
<text text-anchor="start" x="68" y="-283.5" font-family="Helvetica,sans-Serif" font-size="10.00">+ glm::mat4 getTransform()</text>
<text text-anchor="start" x="68" y="-272.5" font-family="Helvetica,sans-Serif" font-size="10.00"># vector&lt; string &gt; split</text>
<text text-anchor="start" x="68" y="-261.5" font-family="Helvetica,sans-Serif" font-size="10.00">(const string &amp;str, const</text>
<text text-anchor="start" x="68" y="-250.5" font-family="Helvetica,sans-Serif" font-size="10.00"> string &amp;delim)</text>
<text text-anchor="start" x="68" y="-239.5" font-family="Helvetica,sans-Serif" font-size="10.00"># void set_data()</text>
</a>
</g>
</g>
<!-- Node2 -->
<g id="node2" class="node">
<title>Node2</title>
<g id="a_node2"><a xlink:href="classObj.html" target="_top" xlink:title="This class is used to create objects using the obj file.">
<polygon fill="white" stroke="black" points="14,-116.5 14,-195.5 140,-195.5 140,-116.5 14,-116.5"/>
<text text-anchor="middle" x="77" y="-183.5" font-family="Helvetica,sans-Serif" font-size="10.00">Obj</text>
<polyline fill="none" stroke="black" points="14,-176.5 140,-176.5 "/>
<text text-anchor="middle" x="77" y="-164.5" font-family="Helvetica,sans-Serif" font-size="10.00"> </text>
<polyline fill="none" stroke="black" points="14,-157.5 140,-157.5 "/>
<text text-anchor="start" x="22" y="-145.5" font-family="Helvetica,sans-Serif" font-size="10.00">+ Obj(string fileName,</text>
<text text-anchor="start" x="22" y="-134.5" font-family="Helvetica,sans-Serif" font-size="10.00"> float r, float g, float b)</text>
<text text-anchor="start" x="22" y="-123.5" font-family="Helvetica,sans-Serif" font-size="10.00">+ void load()</text>
</a>
</g>
</g>
<!-- Node1&#45;&gt;Node2 -->
<g id="edge1" class="edge">
<title>Node1&#45;&gt;Node2</title>
<path fill="none" stroke="midnightblue" d="M93.58,-222.5C91.1,-212.72 88.8,-203.63 86.75,-195.52"/>
<polygon fill="none" stroke="midnightblue" points="90.26,-223.66 96.11,-232.49 97.05,-221.94 90.26,-223.66"/>
</g>
<!-- Node4 -->
<g id="node4" class="node">
<title>Node4</title>
<g id="a_node4"><a xlink:href="classPly.html" target="_top" xlink:title="This class is used to create objects using the ply file.">
<polygon fill="white" stroke="black" points="161.5,-116.5 161.5,-195.5 286.5,-195.5 286.5,-116.5 161.5,-116.5"/>
<text text-anchor="middle" x="224" y="-183.5" font-family="Helvetica,sans-Serif" font-size="10.00">Ply</text>
<polyline fill="none" stroke="black" points="161.5,-176.5 286.5,-176.5 "/>
<text text-anchor="middle" x="224" y="-164.5" font-family="Helvetica,sans-Serif" font-size="10.00"> </text>
<polyline fill="none" stroke="black" points="161.5,-157.5 286.5,-157.5 "/>
<text text-anchor="start" x="169.5" y="-145.5" font-family="Helvetica,sans-Serif" font-size="10.00">+ Ply(string fileName,</text>
<text text-anchor="start" x="169.5" y="-134.5" font-family="Helvetica,sans-Serif" font-size="10.00"> float r, float g, float b)</text>
<text text-anchor="start" x="169.5" y="-123.5" font-family="Helvetica,sans-Serif" font-size="10.00">+ void load()</text>
</a>
</g>
</g>
<!-- Node1&#45;&gt;Node4 -->
<g id="edge3" class="edge">
<title>Node1&#45;&gt;Node4</title>
<path fill="none" stroke="midnightblue" d="M206.65,-222.8C209.26,-212.91 211.69,-203.71 213.84,-195.52"/>
<polygon fill="none" stroke="midnightblue" points="203.26,-221.93 204.1,-232.49 210.03,-223.72 203.26,-221.93"/>
</g>
<!-- Node3 -->
<g id="node3" class="node">
<title>Node3</title>
<g id="a_node3"><a xlink:href="classModel.html" target="_top" xlink:title=" ">
<polygon fill="white" stroke="black" points="0,-0.5 0,-79.5 140,-79.5 140,-0.5 0,-0.5"/>
<text text-anchor="middle" x="70" y="-67.5" font-family="Helvetica,sans-Serif" font-size="10.00">Model&lt; Obj &gt;</text>
<polyline fill="none" stroke="black" points="0,-60.5 140,-60.5 "/>
<text text-anchor="middle" x="70" y="-48.5" font-family="Helvetica,sans-Serif" font-size="10.00"> </text>
<polyline fill="none" stroke="black" points="0,-41.5 140,-41.5 "/>
<text text-anchor="start" x="8" y="-29.5" font-family="Helvetica,sans-Serif" font-size="10.00">+ Model(string fileName,</text>
<text text-anchor="start" x="8" y="-18.5" font-family="Helvetica,sans-Serif" font-size="10.00"> float r, float g, float b)</text>
<text text-anchor="start" x="8" y="-7.5" font-family="Helvetica,sans-Serif" font-size="10.00">+ Model()</text>
</a>
</g>
</g>
<!-- Node2&#45;&gt;Node3 -->
<g id="edge2" class="edge">
<title>Node2&#45;&gt;Node3</title>
<path fill="none" stroke="midnightblue" d="M74,-106.15C73.45,-97.26 72.89,-88.1 72.37,-79.56"/>
<polygon fill="none" stroke="midnightblue" points="70.52,-106.64 74.63,-116.4 77.51,-106.21 70.52,-106.64"/>
</g>
<!-- Node5 -->
<g id="node5" class="node">
<title>Node5</title>
<g id="a_node5"><a xlink:href="classModel.html" target="_top" xlink:title=" ">
<polygon fill="white" stroke="black" points="158,-0.5 158,-79.5 298,-79.5 298,-0.5 158,-0.5"/>
<text text-anchor="middle" x="228" y="-67.5" font-family="Helvetica,sans-Serif" font-size="10.00">Model&lt; Ply &gt;</text>
<polyline fill="none" stroke="black" points="158,-60.5 298,-60.5 "/>
<text text-anchor="middle" x="228" y="-48.5" font-family="Helvetica,sans-Serif" font-size="10.00"> </text>
<polyline fill="none" stroke="black" points="158,-41.5 298,-41.5 "/>
<text text-anchor="start" x="166" y="-29.5" font-family="Helvetica,sans-Serif" font-size="10.00">+ Model(string fileName,</text>
<text text-anchor="start" x="166" y="-18.5" font-family="Helvetica,sans-Serif" font-size="10.00"> float r, float g, float b)</text>
<text text-anchor="start" x="166" y="-7.5" font-family="Helvetica,sans-Serif" font-size="10.00">+ Model()</text>
</a>
</g>
</g>
<!-- Node4&#45;&gt;Node5 -->
<g id="edge4" class="edge">
<title>Node4&#45;&gt;Node5</title>
<path fill="none" stroke="midnightblue" d="M225.71,-106.15C226.03,-97.26 226.35,-88.1 226.65,-79.56"/>
<polygon fill="none" stroke="midnightblue" points="222.21,-106.29 225.35,-116.4 229.2,-106.53 222.21,-106.29"/>
</g>
</g>
</svg>
