<?xml version="1.0" encoding="UTF-8" standalone="no"?>
<!DOCTYPE svg PUBLIC "-//W3C//DTD SVG 1.1//EN"
 "http://www.w3.org/Graphics/SVG/1.1/DTD/svg11.dtd">
<!-- Generated by graphviz version 2.43.0 (0)
 -->
<!-- Title: Robot Pages: 1 -->
<svg width="399pt" height="1108pt"
 viewBox="0.00 0.00 399.00 1108.00" xmlns="http://www.w3.org/2000/svg" xmlns:xlink="http://www.w3.org/1999/xlink">
<g id="graph0" class="graph" transform="scale(1 1) rotate(0) translate(4 1104)">
<title>Robot</title>
<polygon fill="white" stroke="transparent" points="-4,4 -4,-1104 395,-1104 395,4 -4,4"/>
<!-- Node1 -->
<g id="node1" class="node">
<title>Node1</title>
<g id="a_node1"><a xlink:title="This class is used to create and draw the robot.">
<polygon fill="#bfbfbf" stroke="black" points="27,-0.5 27,-167.5 187,-167.5 187,-0.5 27,-0.5"/>
<text text-anchor="middle" x="107" y="-155.5" font-family="Helvetica,sans-Serif" font-size="10.00">Robot</text>
<polyline fill="none" stroke="black" points="27,-148.5 187,-148.5 "/>
<text text-anchor="start" x="35" y="-136.5" font-family="Helvetica,sans-Serif" font-size="10.00">&#45; unsigned int pathIndex</text>
<text text-anchor="start" x="35" y="-125.5" font-family="Helvetica,sans-Serif" font-size="10.00">&#45; vector&lt; Vertex &gt; path</text>
<text text-anchor="start" x="35" y="-114.5" font-family="Helvetica,sans-Serif" font-size="10.00">&#45; float t</text>
<polyline fill="none" stroke="black" points="27,-107.5 187,-107.5 "/>
<text text-anchor="start" x="35" y="-95.5" font-family="Helvetica,sans-Serif" font-size="10.00">+ Robot()</text>
<text text-anchor="start" x="35" y="-84.5" font-family="Helvetica,sans-Serif" font-size="10.00">+ void draw(GLuint program</text>
<text text-anchor="start" x="35" y="-73.5" font-family="Helvetica,sans-Serif" font-size="10.00">ID, glm::mat4 camera,</text>
<text text-anchor="start" x="35" y="-62.5" font-family="Helvetica,sans-Serif" font-size="10.00"> int collision)</text>
<text text-anchor="start" x="35" y="-51.5" font-family="Helvetica,sans-Serif" font-size="10.00">+ void setP2(Vertex P2)</text>
<text text-anchor="start" x="35" y="-40.5" font-family="Helvetica,sans-Serif" font-size="10.00">+ void setP3(Vertex P3)</text>
<text text-anchor="start" x="35" y="-29.5" font-family="Helvetica,sans-Serif" font-size="10.00">+ void setP4(Vertex P4)</text>
<text text-anchor="start" x="35" y="-18.5" font-family="Helvetica,sans-Serif" font-size="10.00">+ Vertex getCurrentPos()</text>
<text text-anchor="start" x="35" y="-7.5" font-family="Helvetica,sans-Serif" font-size="10.00">+ vector&lt; Vertex &gt; getPath()</text>
</a>
</g>
</g>
<!-- Node2 -->
<g id="node2" class="node">
<title>Node2</title>
<g id="a_node2"><a xlink:href="classVertex.html" target="_top" xlink:title="This class is used to create vertices.">
<polygon fill="white" stroke="black" points="0,-248.5 0,-514.5 172,-514.5 172,-248.5 0,-248.5"/>
<text text-anchor="middle" x="86" y="-502.5" font-family="Helvetica,sans-Serif" font-size="10.00">Vertex</text>
<polyline fill="none" stroke="black" points="0,-495.5 172,-495.5 "/>
<text text-anchor="start" x="8" y="-483.5" font-family="Helvetica,sans-Serif" font-size="10.00">&#45; float x</text>
<text text-anchor="start" x="8" y="-472.5" font-family="Helvetica,sans-Serif" font-size="10.00">&#45; float y</text>
<text text-anchor="start" x="8" y="-461.5" font-family="Helvetica,sans-Serif" font-size="10.00">&#45; float z</text>
<polyline fill="none" stroke="black" points="0,-454.5 172,-454.5 "/>
<text text-anchor="start" x="8" y="-442.5" font-family="Helvetica,sans-Serif" font-size="10.00">+ Vertex()</text>
<text text-anchor="start" x="8" y="-431.5" font-family="Helvetica,sans-Serif" font-size="10.00">+ Vertex(float vx, float</text>
<text text-anchor="start" x="8" y="-420.5" font-family="Helvetica,sans-Serif" font-size="10.00"> vy, float vz)</text>
<text text-anchor="start" x="8" y="-409.5" font-family="Helvetica,sans-Serif" font-size="10.00">+ void print()</text>
<text text-anchor="start" x="8" y="-398.5" font-family="Helvetica,sans-Serif" font-size="10.00">+ Vertex operator&#45;(Vertex op2)</text>
<text text-anchor="start" x="8" y="-387.5" font-family="Helvetica,sans-Serif" font-size="10.00">+ Vertex operator+(Vertex op2)</text>
<text text-anchor="start" x="8" y="-376.5" font-family="Helvetica,sans-Serif" font-size="10.00">+ Vertex operator*(float op2)</text>
<text text-anchor="start" x="8" y="-365.5" font-family="Helvetica,sans-Serif" font-size="10.00">+ bool operator==(Vertex op2)</text>
<text text-anchor="start" x="8" y="-354.5" font-family="Helvetica,sans-Serif" font-size="10.00">+ Row&lt; float &gt; row()</text>
<text text-anchor="start" x="8" y="-343.5" font-family="Helvetica,sans-Serif" font-size="10.00">+ Col&lt; float &gt; homog()</text>
<text text-anchor="start" x="8" y="-332.5" font-family="Helvetica,sans-Serif" font-size="10.00">+ float getX()</text>
<text text-anchor="start" x="8" y="-321.5" font-family="Helvetica,sans-Serif" font-size="10.00">+ float getY()</text>
<text text-anchor="start" x="8" y="-310.5" font-family="Helvetica,sans-Serif" font-size="10.00">+ float getZ()</text>
<text text-anchor="start" x="8" y="-299.5" font-family="Helvetica,sans-Serif" font-size="10.00">+ vector&lt; float &gt; getXYZ()</text>
<text text-anchor="start" x="8" y="-288.5" font-family="Helvetica,sans-Serif" font-size="10.00">+ void setX(float vx)</text>
<text text-anchor="start" x="8" y="-277.5" font-family="Helvetica,sans-Serif" font-size="10.00">+ void setY(float vy)</text>
<text text-anchor="start" x="8" y="-266.5" font-family="Helvetica,sans-Serif" font-size="10.00">+ void setZ(float vz)</text>
<text text-anchor="start" x="8" y="-255.5" font-family="Helvetica,sans-Serif" font-size="10.00">+ glm::vec3 getVec3()</text>
</a>
</g>
</g>
<!-- Node2&#45;&gt;Node1 -->
<g id="edge1" class="edge">
<title>Node2&#45;&gt;Node1</title>
<path fill="none" stroke="#404040" d="M95.39,-248.31C97.03,-225.34 98.7,-201.86 100.24,-180.12"/>
<polygon fill="none" stroke="#404040" points="100.26,-179.87 96.69,-173.6 101.11,-167.9 104.67,-174.17 100.26,-179.87"/>
<text text-anchor="middle" x="109.5" y="-222" font-family="Helvetica,sans-Serif" font-size="10.00"> &#45;P1</text>
<text text-anchor="middle" x="109.5" y="-211" font-family="Helvetica,sans-Serif" font-size="10.00">&#45;P2</text>
<text text-anchor="middle" x="109.5" y="-200" font-family="Helvetica,sans-Serif" font-size="10.00">&#45;P3</text>
<text text-anchor="middle" x="109.5" y="-189" font-family="Helvetica,sans-Serif" font-size="10.00">&#45;P4</text>
</g>
<!-- Node3 -->
<g id="node3" class="node">
<title>Node3</title>
<g id="a_node3"><a xlink:href="classModel.html" target="_top" xlink:title=" ">
<polygon fill="white" stroke="black" points="190,-342 190,-421 330,-421 330,-342 190,-342"/>
<text text-anchor="middle" x="260" y="-409" font-family="Helvetica,sans-Serif" font-size="10.00">Model&lt; Ply &gt;</text>
<polyline fill="none" stroke="black" points="190,-402 330,-402 "/>
<text text-anchor="middle" x="260" y="-390" font-family="Helvetica,sans-Serif" font-size="10.00"> </text>
<polyline fill="none" stroke="black" points="190,-383 330,-383 "/>
<text text-anchor="start" x="198" y="-371" font-family="Helvetica,sans-Serif" font-size="10.00">+ Model(string fileName,</text>
<text text-anchor="start" x="198" y="-360" font-family="Helvetica,sans-Serif" font-size="10.00"> float r, float g, float b)</text>
<text text-anchor="start" x="198" y="-349" font-family="Helvetica,sans-Serif" font-size="10.00">+ Model()</text>
</a>
</g>
</g>
<!-- Node3&#45;&gt;Node1 -->
<g id="edge2" class="edge">
<title>Node3&#45;&gt;Node1</title>
<path fill="none" stroke="#404040" d="M240,-341.87C218.62,-300.58 183.95,-233.61 155.36,-178.4"/>
<polygon fill="none" stroke="#404040" points="155.25,-178.19 148.94,-174.7 149.73,-167.53 156.04,-171.02 155.25,-178.19"/>
<text text-anchor="middle" x="195.5" y="-205.5" font-family="Helvetica,sans-Serif" font-size="10.00"> &#45;robot</text>
</g>
<!-- Node4 -->
<g id="node4" class="node">
<title>Node4</title>
<g id="a_node4"><a xlink:href="classPly.html" target="_top" xlink:title="This class is used to create objects using the ply file.">
<polygon fill="white" stroke="black" points="107.5,-562.5 107.5,-641.5 232.5,-641.5 232.5,-562.5 107.5,-562.5"/>
<text text-anchor="middle" x="170" y="-629.5" font-family="Helvetica,sans-Serif" font-size="10.00">Ply</text>
<polyline fill="none" stroke="black" points="107.5,-622.5 232.5,-622.5 "/>
<text text-anchor="middle" x="170" y="-610.5" font-family="Helvetica,sans-Serif" font-size="10.00"> </text>
<polyline fill="none" stroke="black" points="107.5,-603.5 232.5,-603.5 "/>
<text text-anchor="start" x="115.5" y="-591.5" font-family="Helvetica,sans-Serif" font-size="10.00">+ Ply(string fileName,</text>
<text text-anchor="start" x="115.5" y="-580.5" font-family="Helvetica,sans-Serif" font-size="10.00"> float r, float g, float b)</text>
<text text-anchor="start" x="115.5" y="-569.5" font-family="Helvetica,sans-Serif" font-size="10.00">+ void load()</text>
</a>
</g>
</g>
<!-- Node4&#45;&gt;Node3 -->
<g id="edge3" class="edge">
<title>Node4&#45;&gt;Node3</title>
<path fill="none" stroke="midnightblue" d="M189.78,-552.98C206.11,-513.34 228.98,-457.82 244.12,-421.04"/>
<polygon fill="none" stroke="midnightblue" points="186.46,-551.86 185.88,-562.44 192.93,-554.53 186.46,-551.86"/>
</g>
<!-- Node5 -->
<g id="node5" class="node">
<title>Node5</title>
<g id="a_node5"><a xlink:href="classObject.html" target="_top" xlink:title="This class is used to create objects using vertices and faces.">
<polygon fill="white" stroke="black" points="81,-679.5 81,-1099.5 259,-1099.5 259,-679.5 81,-679.5"/>
<text text-anchor="middle" x="170" y="-1087.5" font-family="Helvetica,sans-Serif" font-size="10.00">Object</text>
<polyline fill="none" stroke="black" points="81,-1080.5 259,-1080.5 "/>
<text text-anchor="start" x="89" y="-1068.5" font-family="Helvetica,sans-Serif" font-size="10.00"># string fileName</text>
<text text-anchor="start" x="89" y="-1057.5" font-family="Helvetica,sans-Serif" font-size="10.00"># vector&lt; Vertex &gt; vertices</text>
<text text-anchor="start" x="89" y="-1046.5" font-family="Helvetica,sans-Serif" font-size="10.00"># vector&lt; Face &gt; faces</text>
<text text-anchor="start" x="89" y="-1035.5" font-family="Helvetica,sans-Serif" font-size="10.00"># float r</text>
<text text-anchor="start" x="89" y="-1024.5" font-family="Helvetica,sans-Serif" font-size="10.00"># float g</text>
<text text-anchor="start" x="89" y="-1013.5" font-family="Helvetica,sans-Serif" font-size="10.00"># float b</text>
<text text-anchor="start" x="89" y="-1002.5" font-family="Helvetica,sans-Serif" font-size="10.00"># GLuint colorbuffer</text>
<text text-anchor="start" x="89" y="-991.5" font-family="Helvetica,sans-Serif" font-size="10.00"># GLuint datasize</text>
<text text-anchor="start" x="89" y="-980.5" font-family="Helvetica,sans-Serif" font-size="10.00"># GLuint MatrixID</text>
<text text-anchor="start" x="89" y="-969.5" font-family="Helvetica,sans-Serif" font-size="10.00"># GLuint vertexbuffer</text>
<text text-anchor="start" x="89" y="-958.5" font-family="Helvetica,sans-Serif" font-size="10.00"># glm::mat4 scale</text>
<text text-anchor="start" x="89" y="-947.5" font-family="Helvetica,sans-Serif" font-size="10.00"># glm::mat4 transform</text>
<text text-anchor="start" x="89" y="-936.5" font-family="Helvetica,sans-Serif" font-size="10.00"># glm::mat4 rotate</text>
<text text-anchor="start" x="89" y="-925.5" font-family="Helvetica,sans-Serif" font-size="10.00"># glm::mat4 translate</text>
<polyline fill="none" stroke="black" points="81,-918.5 259,-918.5 "/>
<text text-anchor="start" x="89" y="-906.5" font-family="Helvetica,sans-Serif" font-size="10.00">+ Object(string fileName,</text>
<text text-anchor="start" x="89" y="-895.5" font-family="Helvetica,sans-Serif" font-size="10.00"> float r, float g, float b)</text>
<text text-anchor="start" x="89" y="-884.5" font-family="Helvetica,sans-Serif" font-size="10.00">+ vector&lt; Vertex &gt; getVertices()</text>
<text text-anchor="start" x="89" y="-873.5" font-family="Helvetica,sans-Serif" font-size="10.00">+ vector&lt; Face &gt; getFaces()</text>
<text text-anchor="start" x="89" y="-862.5" font-family="Helvetica,sans-Serif" font-size="10.00">+ virtual void load()=0</text>
<text text-anchor="start" x="89" y="-851.5" font-family="Helvetica,sans-Serif" font-size="10.00">+ void draw(GLuint program</text>
<text text-anchor="start" x="89" y="-840.5" font-family="Helvetica,sans-Serif" font-size="10.00">ID, glm::mat4 transform)</text>
<text text-anchor="start" x="89" y="-829.5" font-family="Helvetica,sans-Serif" font-size="10.00">+ void setScale(glm::</text>
<text text-anchor="start" x="89" y="-818.5" font-family="Helvetica,sans-Serif" font-size="10.00">mat4 scale)</text>
<text text-anchor="start" x="89" y="-807.5" font-family="Helvetica,sans-Serif" font-size="10.00">+ void setRotate(glm</text>
<text text-anchor="start" x="89" y="-796.5" font-family="Helvetica,sans-Serif" font-size="10.00">::mat4 rotate)</text>
<text text-anchor="start" x="89" y="-785.5" font-family="Helvetica,sans-Serif" font-size="10.00">+ void setTranslate(glm</text>
<text text-anchor="start" x="89" y="-774.5" font-family="Helvetica,sans-Serif" font-size="10.00">::mat4 translate)</text>
<text text-anchor="start" x="89" y="-763.5" font-family="Helvetica,sans-Serif" font-size="10.00">+ glm::mat4 getScale()</text>
<text text-anchor="start" x="89" y="-752.5" font-family="Helvetica,sans-Serif" font-size="10.00">+ glm::mat4 getRotate()</text>
<text text-anchor="start" x="89" y="-741.5" font-family="Helvetica,sans-Serif" font-size="10.00">+ glm::mat4 getTranslate()</text>
<text text-anchor="start" x="89" y="-730.5" font-family="Helvetica,sans-Serif" font-size="10.00">+ glm::mat4 getTransform()</text>
<text text-anchor="start" x="89" y="-719.5" font-family="Helvetica,sans-Serif" font-size="10.00"># vector&lt; string &gt; split</text>
<text text-anchor="start" x="89" y="-708.5" font-family="Helvetica,sans-Serif" font-size="10.00">(const string &amp;str, const</text>
<text text-anchor="start" x="89" y="-697.5" font-family="Helvetica,sans-Serif" font-size="10.00"> string &amp;delim)</text>
<text text-anchor="start" x="89" y="-686.5" font-family="Helvetica,sans-Serif" font-size="10.00"># void set_data()</text>
</a>
</g>
</g>
<!-- Node5&#45;&gt;Node4 -->
<g id="edge4" class="edge">
<title>Node5&#45;&gt;Node4</title>
<path fill="none" stroke="midnightblue" d="M170,-669.06C170,-659.2 170,-650.04 170,-641.86"/>
<polygon fill="none" stroke="midnightblue" points="166.5,-669.13 170,-679.13 173.5,-669.13 166.5,-669.13"/>
</g>
<!-- Node6 -->
<g id="node6" class="node">
<title>Node6</title>
<g id="a_node6"><a xlink:href="classModel.html" target="_top" xlink:title="This class is used to create models using Obj and Ply.">
<polygon fill="white" stroke="black" points="251,-562.5 251,-641.5 391,-641.5 391,-562.5 251,-562.5"/>
<text text-anchor="middle" x="321" y="-629.5" font-family="Helvetica,sans-Serif" font-size="10.00">Model&lt; T &gt;</text>
<polyline fill="none" stroke="black" points="251,-622.5 391,-622.5 "/>
<text text-anchor="middle" x="321" y="-610.5" font-family="Helvetica,sans-Serif" font-size="10.00"> </text>
<polyline fill="none" stroke="black" points="251,-603.5 391,-603.5 "/>
<text text-anchor="start" x="259" y="-591.5" font-family="Helvetica,sans-Serif" font-size="10.00">+ Model(string fileName,</text>
<text text-anchor="start" x="259" y="-580.5" font-family="Helvetica,sans-Serif" font-size="10.00"> float r, float g, float b)</text>
<text text-anchor="start" x="259" y="-569.5" font-family="Helvetica,sans-Serif" font-size="10.00">+ Model()</text>
</a>
</g>
</g>
<!-- Node6&#45;&gt;Node3 -->
<g id="edge5" class="edge">
<title>Node6&#45;&gt;Node3</title>
<path fill="none" stroke="orange" d="M307.52,-552.73C296.46,-513.1 281.01,-457.74 270.76,-421.04"/>
<polygon fill="orange" stroke="orange" points="304.17,-553.75 310.23,-562.44 310.92,-551.87 304.17,-553.75"/>
<text text-anchor="middle" x="325.5" y="-536" font-family="Helvetica,sans-Serif" font-size="10.00"> &lt; Ply &gt;</text>
</g>
<!-- Node7 -->
<g id="node7" class="node">
<title>Node7</title>
<g id="a_node7"><a xlink:title=" ">
<polygon fill="white" stroke="#bfbfbf" points="306.5,-861 306.5,-918 335.5,-918 335.5,-861 306.5,-861"/>
<text text-anchor="middle" x="321" y="-906" font-family="Helvetica,sans-Serif" font-size="10.00">T</text>
<polyline fill="none" stroke="#bfbfbf" points="306.5,-899 335.5,-899 "/>
<text text-anchor="middle" x="321" y="-887" font-family="Helvetica,sans-Serif" font-size="10.00"> </text>
<polyline fill="none" stroke="#bfbfbf" points="306.5,-880 335.5,-880 "/>
<text text-anchor="middle" x="321" y="-868" font-family="Helvetica,sans-Serif" font-size="10.00"> </text>
</a>
</g>
</g>
<!-- Node7&#45;&gt;Node6 -->
<g id="edge6" class="edge">
<title>Node7&#45;&gt;Node6</title>
<path fill="none" stroke="midnightblue" d="M321,-850.63C321,-796.32 321,-696.83 321,-641.93"/>
<polygon fill="none" stroke="midnightblue" points="317.5,-850.87 321,-860.87 324.5,-850.87 317.5,-850.87"/>
</g>
</g>
</svg>
