<?xml version="1.0" encoding="UTF-8" standalone="no"?>
<!DOCTYPE svg PUBLIC "-//W3C//DTD SVG 1.1//EN"
 "http://www.w3.org/Graphics/SVG/1.1/DTD/svg11.dtd">
<!-- Generated by graphviz version 2.43.0 (0)
 -->
<!-- Title: Object::draw Pages: 1 -->
<svg width="212pt" height="142pt"
 viewBox="0.00 0.00 212.00 142.00" xmlns="http://www.w3.org/2000/svg" xmlns:xlink="http://www.w3.org/1999/xlink">
<g id="graph0" class="graph" transform="scale(1 1) rotate(0) translate(4 138)">
<title>Object::draw</title>
<polygon fill="white" stroke="transparent" points="-4,4 -4,-138 208,-138 208,4 -4,4"/>
<!-- Node1 -->
<g id="node1" class="node">
<title>Node1</title>
<g id="a_node1"><a xlink:title="This method is used to draw the object.">
<polygon fill="#bfbfbf" stroke="black" points="126,-57.5 126,-76.5 204,-76.5 204,-57.5 126,-57.5"/>
<text text-anchor="middle" x="165" y="-64.5" font-family="Helvetica,sans-Serif" font-size="10.00">Object::draw</text>
</a>
</g>
</g>
<!-- Node2 -->
<g id="node2" class="node">
<title>Node2</title>
<g id="a_node2"><a xlink:href="classBall.html#aac0aa52061c21df923908b281f0a59a8" target="_top" xlink:title="This method draws the ball.">
<polygon fill="white" stroke="black" points="12.5,-114.5 12.5,-133.5 77.5,-133.5 77.5,-114.5 12.5,-114.5"/>
<text text-anchor="middle" x="45" y="-121.5" font-family="Helvetica,sans-Serif" font-size="10.00">Ball::draw</text>
</a>
</g>
</g>
<!-- Node1&#45;&gt;Node2 -->
<g id="edge1" class="edge">
<title>Node1&#45;&gt;Node2</title>
<path fill="none" stroke="midnightblue" d="M137.17,-81.32C123.22,-88.63 105.81,-97.54 90,-105 83.23,-108.2 75.78,-111.49 68.97,-114.43"/>
<polygon fill="midnightblue" stroke="midnightblue" points="139.01,-84.31 146.22,-76.55 135.74,-78.12 139.01,-84.31"/>
</g>
<!-- Node3 -->
<g id="node3" class="node">
<title>Node3</title>
<g id="a_node3"><a xlink:href="classEnemy.html#afa438edc8056dde48d2a08441262a883" target="_top" xlink:title="This method draws the enemy.">
<polygon fill="white" stroke="black" points="5,-76.5 5,-95.5 85,-95.5 85,-76.5 5,-76.5"/>
<text text-anchor="middle" x="45" y="-83.5" font-family="Helvetica,sans-Serif" font-size="10.00">Enemy::draw</text>
</a>
</g>
</g>
<!-- Node1&#45;&gt;Node3 -->
<g id="edge2" class="edge">
<title>Node1&#45;&gt;Node3</title>
<path fill="none" stroke="midnightblue" d="M115.76,-74.77C105.64,-76.4 95.08,-78.1 85.33,-79.67"/>
<polygon fill="midnightblue" stroke="midnightblue" points="116.37,-78.21 125.69,-73.17 115.26,-71.3 116.37,-78.21"/>
</g>
<!-- Node4 -->
<g id="node4" class="node">
<title>Node4</title>
<g id="a_node4"><a xlink:href="classMessage.html#a20170bfe00c1b9ef92718be95fad97f1" target="_top" xlink:title="This method draw the collition message.">
<polygon fill="white" stroke="black" points="0,-38.5 0,-57.5 90,-57.5 90,-38.5 0,-38.5"/>
<text text-anchor="middle" x="45" y="-45.5" font-family="Helvetica,sans-Serif" font-size="10.00">Message::draw</text>
</a>
</g>
</g>
<!-- Node1&#45;&gt;Node4 -->
<g id="edge3" class="edge">
<title>Node1&#45;&gt;Node4</title>
<path fill="none" stroke="midnightblue" d="M115.64,-59.21C107.24,-57.86 98.55,-56.46 90.27,-55.13"/>
<polygon fill="midnightblue" stroke="midnightblue" points="115.26,-62.7 125.69,-60.83 116.37,-55.79 115.26,-62.7"/>
</g>
<!-- Node5 -->
<g id="node5" class="node">
<title>Node5</title>
<g id="a_node5"><a xlink:href="classRobot.html#a84eaa7f5fb2c3c9035b8bbad49a31272" target="_top" xlink:title="This method draws the robot with the animation.">
<polygon fill="white" stroke="black" points="7.5,-0.5 7.5,-19.5 82.5,-19.5 82.5,-0.5 7.5,-0.5"/>
<text text-anchor="middle" x="45" y="-7.5" font-family="Helvetica,sans-Serif" font-size="10.00">Robot::draw</text>
</a>
</g>
</g>
<!-- Node1&#45;&gt;Node5 -->
<g id="edge4" class="edge">
<title>Node1&#45;&gt;Node5</title>
<path fill="none" stroke="midnightblue" d="M137.17,-52.68C123.22,-45.37 105.81,-36.46 90,-29 83.23,-25.8 75.78,-22.51 68.97,-19.57"/>
<polygon fill="midnightblue" stroke="midnightblue" points="135.74,-55.88 146.22,-57.45 139.01,-49.69 135.74,-55.88"/>
</g>
</g>
</svg>
