<?xml version="1.0" encoding="UTF-8" standalone="no"?>
<!DOCTYPE svg PUBLIC "-//W3C//DTD SVG 1.1//EN"
 "http://www.w3.org/Graphics/SVG/1.1/DTD/svg11.dtd">
<!-- Generated by graphviz version 2.43.0 (0)
 -->
<!-- Title: Vertex::row Pages: 1 -->
<svg width="343pt" height="66pt"
 viewBox="0.00 0.00 343.00 66.00" xmlns="http://www.w3.org/2000/svg" xmlns:xlink="http://www.w3.org/1999/xlink">
<g id="graph0" class="graph" transform="scale(1 1) rotate(0) translate(4 62)">
<title>Vertex::row</title>
<polygon fill="white" stroke="transparent" points="-4,4 -4,-62 339,-62 339,4 -4,4"/>
<!-- Node1 -->
<g id="node1" class="node">
<title>Node1</title>
<g id="a_node1"><a xlink:title="This method returns the vertex as a row.">
<polygon fill="#bfbfbf" stroke="black" points="263,-19.5 263,-38.5 335,-38.5 335,-19.5 263,-19.5"/>
<text text-anchor="middle" x="299" y="-26.5" font-family="Helvetica,sans-Serif" font-size="10.00">Vertex::row</text>
</a>
</g>
</g>
<!-- Node2 -->
<g id="node2" class="node">
<title>Node2</title>
<g id="a_node2"><a xlink:href="classAnimation.html#ab64e14e2cfb97930c35009c836b960d3" target="_top" xlink:title="This method returns the bezier curve.">
<polygon fill="white" stroke="black" points="120,-38.5 120,-57.5 223,-57.5 223,-38.5 120,-38.5"/>
<text text-anchor="middle" x="171.5" y="-45.5" font-family="Helvetica,sans-Serif" font-size="10.00">Animation::bezier</text>
</a>
</g>
</g>
<!-- Node1&#45;&gt;Node2 -->
<g id="edge1" class="edge">
<title>Node1&#45;&gt;Node2</title>
<path fill="none" stroke="midnightblue" d="M252.68,-35.86C243.19,-37.3 233.13,-38.82 223.45,-40.29"/>
<polygon fill="midnightblue" stroke="midnightblue" points="253.34,-39.3 262.71,-34.34 252.3,-32.38 253.34,-39.3"/>
</g>
<!-- Node4 -->
<g id="node4" class="node">
<title>Node4</title>
<g id="a_node4"><a xlink:href="classAnimation.html#a94579309ac0f3316fa190bfbf8ca6a2e" target="_top" xlink:title="This method returns the hermite curve.">
<polygon fill="white" stroke="black" points="116,-0.5 116,-19.5 227,-19.5 227,-0.5 116,-0.5"/>
<text text-anchor="middle" x="171.5" y="-7.5" font-family="Helvetica,sans-Serif" font-size="10.00">Animation::hermite</text>
</a>
</g>
</g>
<!-- Node1&#45;&gt;Node4 -->
<g id="edge3" class="edge">
<title>Node1&#45;&gt;Node4</title>
<path fill="none" stroke="midnightblue" d="M252.57,-22.12C244.34,-20.88 235.69,-19.57 227.23,-18.29"/>
<polygon fill="midnightblue" stroke="midnightblue" points="252.3,-25.62 262.71,-23.66 253.34,-18.7 252.3,-25.62"/>
</g>
<!-- Node3 -->
<g id="node3" class="node">
<title>Node3</title>
<g id="a_node3"><a xlink:href="classRobot.html#a4fc7c70ae20623f05e06f2ecb388b6c4" target="_top" xlink:title="Construct a new Robot:: Robot object.">
<polygon fill="white" stroke="black" points="0,-38.5 0,-57.5 80,-57.5 80,-38.5 0,-38.5"/>
<text text-anchor="middle" x="40" y="-45.5" font-family="Helvetica,sans-Serif" font-size="10.00">Robot::Robot</text>
</a>
</g>
</g>
<!-- Node2&#45;&gt;Node3 -->
<g id="edge2" class="edge">
<title>Node2&#45;&gt;Node3</title>
<path fill="none" stroke="midnightblue" d="M109.69,-48C99.61,-48 89.4,-48 80.05,-48"/>
<polygon fill="midnightblue" stroke="midnightblue" points="109.69,-51.5 119.69,-48 109.69,-44.5 109.69,-51.5"/>
</g>
</g>
</svg>
