<?xml version="1.0" encoding="UTF-8" standalone="no"?>
<!DOCTYPE svg PUBLIC "-//W3C//DTD SVG 1.1//EN"
 "http://www.w3.org/Graphics/SVG/1.1/DTD/svg11.dtd">
<!-- Generated by graphviz version 2.43.0 (0)
 -->
<!-- Title: Object::draw Pages: 1 -->
<svg width="202pt" height="104pt"
 viewBox="0.00 0.00 202.00 104.00" xmlns="http://www.w3.org/2000/svg" xmlns:xlink="http://www.w3.org/1999/xlink">
<g id="graph0" class="graph" transform="scale(1 1) rotate(0) translate(4 100)">
<title>Object::draw</title>
<polygon fill="white" stroke="transparent" points="-4,4 -4,-100 198,-100 198,4 -4,4"/>
<!-- Node1 -->
<g id="node1" class="node">
<title>Node1</title>
<g id="a_node1"><a xlink:title="This method is used to draw the object.">
<polygon fill="#bfbfbf" stroke="black" points="116,-38.5 116,-57.5 194,-57.5 194,-38.5 116,-38.5"/>
<text text-anchor="middle" x="155" y="-45.5" font-family="Helvetica,sans-Serif" font-size="10.00">Object::draw</text>
</a>
</g>
</g>
<!-- Node2 -->
<g id="node2" class="node">
<title>Node2</title>
<g id="a_node2"><a xlink:href="classBall.html#aac0aa52061c21df923908b281f0a59a8" target="_top" xlink:title="This method draws the ball.">
<polygon fill="white" stroke="black" points="7.5,-76.5 7.5,-95.5 72.5,-95.5 72.5,-76.5 7.5,-76.5"/>
<text text-anchor="middle" x="40" y="-83.5" font-family="Helvetica,sans-Serif" font-size="10.00">Ball::draw</text>
</a>
</g>
</g>
<!-- Node1&#45;&gt;Node2 -->
<g id="edge1" class="edge">
<title>Node1&#45;&gt;Node2</title>
<path fill="none" stroke="midnightblue" d="M115.86,-60.83C100.7,-65.92 83.56,-71.69 69.51,-76.41"/>
<polygon fill="midnightblue" stroke="midnightblue" points="117.12,-64.09 125.49,-57.59 114.89,-57.46 117.12,-64.09"/>
</g>
<!-- Node3 -->
<g id="node3" class="node">
<title>Node3</title>
<g id="a_node3"><a xlink:href="classEnemy.html#afa438edc8056dde48d2a08441262a883" target="_top" xlink:title="This method draws the enemy.">
<polygon fill="white" stroke="black" points="0,-38.5 0,-57.5 80,-57.5 80,-38.5 0,-38.5"/>
<text text-anchor="middle" x="40" y="-45.5" font-family="Helvetica,sans-Serif" font-size="10.00">Enemy::draw</text>
</a>
</g>
</g>
<!-- Node1&#45;&gt;Node3 -->
<g id="edge2" class="edge">
<title>Node1&#45;&gt;Node3</title>
<path fill="none" stroke="midnightblue" d="M105.63,-48C97.2,-48 88.53,-48 80.37,-48"/>
<polygon fill="midnightblue" stroke="midnightblue" points="105.74,-51.5 115.74,-48 105.74,-44.5 105.74,-51.5"/>
</g>
<!-- Node4 -->
<g id="node4" class="node">
<title>Node4</title>
<g id="a_node4"><a xlink:href="classRobot.html#ab95df5f1448465fc35b235c921907ed5" target="_top" xlink:title="This method draws the robot with the animation.">
<polygon fill="white" stroke="black" points="2.5,-0.5 2.5,-19.5 77.5,-19.5 77.5,-0.5 2.5,-0.5"/>
<text text-anchor="middle" x="40" y="-7.5" font-family="Helvetica,sans-Serif" font-size="10.00">Robot::draw</text>
</a>
</g>
</g>
<!-- Node1&#45;&gt;Node4 -->
<g id="edge3" class="edge">
<title>Node1&#45;&gt;Node4</title>
<path fill="none" stroke="midnightblue" d="M115.86,-35.17C100.7,-30.08 83.56,-24.31 69.51,-19.59"/>
<polygon fill="midnightblue" stroke="midnightblue" points="114.89,-38.54 125.49,-38.41 117.12,-31.91 114.89,-38.54"/>
</g>
</g>
</svg>
