<?xml version="1.0" encoding="UTF-8" standalone="no"?>
<!DOCTYPE svg PUBLIC "-//W3C//DTD SVG 1.1//EN"
 "http://www.w3.org/Graphics/SVG/1.1/DTD/svg11.dtd">
<!-- Generated by graphviz version 2.43.0 (0)
 -->
<!-- Title: Animation::hermite Pages: 1 -->
<svg width="234pt" height="66pt"
 viewBox="0.00 0.00 234.00 66.00" xmlns="http://www.w3.org/2000/svg" xmlns:xlink="http://www.w3.org/1999/xlink">
<g id="graph0" class="graph" transform="scale(1 1) rotate(0) translate(4 62)">
<title>Animation::hermite</title>
<polygon fill="white" stroke="transparent" points="-4,4 -4,-62 230,-62 230,4 -4,4"/>
<!-- Node1 -->
<g id="node1" class="node">
<title>Node1</title>
<g id="a_node1"><a xlink:title="This method returns the hermite curve.">
<polygon fill="#bfbfbf" stroke="black" points="0,-19.5 0,-38.5 111,-38.5 111,-19.5 0,-19.5"/>
<text text-anchor="middle" x="55.5" y="-26.5" font-family="Helvetica,sans-Serif" font-size="10.00">Animation::hermite</text>
</a>
</g>
</g>
<!-- Node2 -->
<g id="node2" class="node">
<title>Node2</title>
<g id="a_node2"><a xlink:href="classVertex.html#ab735eed18c29ece9d1e28bd658a1b25c" target="_top" xlink:title="This method returns the vertex as a row.">
<polygon fill="white" stroke="black" points="150.5,-38.5 150.5,-57.5 222.5,-57.5 222.5,-38.5 150.5,-38.5"/>
<text text-anchor="middle" x="186.5" y="-45.5" font-family="Helvetica,sans-Serif" font-size="10.00">Vertex::row</text>
</a>
</g>
</g>
<!-- Node1&#45;&gt;Node2 -->
<g id="edge1" class="edge">
<title>Node1&#45;&gt;Node2</title>
<path fill="none" stroke="midnightblue" d="M111.21,-37.06C120.89,-38.48 130.87,-39.95 140.26,-41.34"/>
<polygon fill="midnightblue" stroke="midnightblue" points="139.76,-44.8 150.16,-42.8 140.78,-37.88 139.76,-44.8"/>
</g>
<!-- Node3 -->
<g id="node3" class="node">
<title>Node3</title>
<g id="a_node3"><a xlink:href="classAnimation.html#a34f28290b5efb7db9bfd3fc41e9a85e4" target="_top" xlink:title="This method returns the translation matrix.">
<polygon fill="white" stroke="black" points="147,-0.5 147,-19.5 226,-19.5 226,-0.5 147,-0.5"/>
<text text-anchor="middle" x="186.5" y="-7.5" font-family="Helvetica,sans-Serif" font-size="10.00">Animation::T</text>
</a>
</g>
</g>
<!-- Node1&#45;&gt;Node3 -->
<g id="edge2" class="edge">
<title>Node1&#45;&gt;Node3</title>
<path fill="none" stroke="midnightblue" d="M111.21,-20.94C119.7,-19.69 128.43,-18.41 136.78,-17.18"/>
<polygon fill="midnightblue" stroke="midnightblue" points="137.36,-20.63 146.74,-15.71 136.34,-13.7 137.36,-20.63"/>
</g>
</g>
</svg>
