<?xml version="1.0" encoding="UTF-8" standalone="no"?>
<!DOCTYPE svg PUBLIC "-//W3C//DTD SVG 1.1//EN"
 "http://www.w3.org/Graphics/SVG/1.1/DTD/svg11.dtd">
<!-- Generated by graphviz version 2.43.0 (0)
 -->
<!-- Title: Object::setTranslate Pages: 1 -->
<svg width="267pt" height="218pt"
 viewBox="0.00 0.00 267.00 218.00" xmlns="http://www.w3.org/2000/svg" xmlns:xlink="http://www.w3.org/1999/xlink">
<g id="graph0" class="graph" transform="scale(1 1) rotate(0) translate(4 214)">
<title>Object::setTranslate</title>
<polygon fill="white" stroke="transparent" points="-4,4 -4,-214 263,-214 263,4 -4,4"/>
<!-- Node1 -->
<g id="node1" class="node">
<title>Node1</title>
<g id="a_node1"><a xlink:title="This method sets the translation matrix.">
<polygon fill="#bfbfbf" stroke="black" points="146,-95.5 146,-114.5 259,-114.5 259,-95.5 146,-95.5"/>
<text text-anchor="middle" x="202.5" y="-102.5" font-family="Helvetica,sans-Serif" font-size="10.00">Object::setTranslate</text>
</a>
</g>
</g>
<!-- Node2 -->
<g id="node2" class="node">
<title>Node2</title>
<g id="a_node2"><a xlink:href="classBall.html#a86a144d3dad6c953e422e32435923bbb" target="_top" xlink:title="Construct a new Ball:: Ball object.">
<polygon fill="white" stroke="black" points="25,-190.5 25,-209.5 85,-209.5 85,-190.5 25,-190.5"/>
<text text-anchor="middle" x="55" y="-197.5" font-family="Helvetica,sans-Serif" font-size="10.00">Ball::Ball</text>
</a>
</g>
</g>
<!-- Node1&#45;&gt;Node2 -->
<g id="edge1" class="edge">
<title>Node1&#45;&gt;Node2</title>
<path fill="none" stroke="midnightblue" d="M185.1,-121.76C167.76,-138.68 138.98,-164.57 110,-181 102.31,-185.36 93.43,-188.99 85.13,-191.86"/>
<polygon fill="midnightblue" stroke="midnightblue" points="187.59,-124.22 192.21,-114.69 182.65,-119.26 187.59,-124.22"/>
</g>
<!-- Node3 -->
<g id="node3" class="node">
<title>Node3</title>
<g id="a_node3"><a xlink:href="classRobot.html#a84eaa7f5fb2c3c9035b8bbad49a31272" target="_top" xlink:title="This method draws the robot with the animation.">
<polygon fill="white" stroke="black" points="17.5,-152.5 17.5,-171.5 92.5,-171.5 92.5,-152.5 17.5,-152.5"/>
<text text-anchor="middle" x="55" y="-159.5" font-family="Helvetica,sans-Serif" font-size="10.00">Robot::draw</text>
</a>
</g>
</g>
<!-- Node1&#45;&gt;Node3 -->
<g id="edge2" class="edge">
<title>Node1&#45;&gt;Node3</title>
<path fill="none" stroke="midnightblue" d="M170.22,-118.5C152.62,-125.96 130.19,-135.26 110,-143 101.65,-146.2 92.49,-149.5 84.13,-152.43"/>
<polygon fill="midnightblue" stroke="midnightblue" points="171.62,-121.7 179.45,-114.56 168.88,-115.26 171.62,-121.7"/>
</g>
<!-- Node4 -->
<g id="node4" class="node">
<title>Node4</title>
<g id="a_node4"><a xlink:href="classEnemy.html#a94f30d348b6d2840fd71675472ba38dd" target="_top" xlink:title="Construct a new Enemy:: Enemy object.">
<polygon fill="white" stroke="black" points="10.5,-114.5 10.5,-133.5 99.5,-133.5 99.5,-114.5 10.5,-114.5"/>
<text text-anchor="middle" x="55" y="-121.5" font-family="Helvetica,sans-Serif" font-size="10.00">Enemy::Enemy</text>
</a>
</g>
</g>
<!-- Node1&#45;&gt;Node4 -->
<g id="edge3" class="edge">
<title>Node1&#45;&gt;Node4</title>
<path fill="none" stroke="midnightblue" d="M135.55,-113.61C123.4,-115.2 111,-116.82 99.72,-118.29"/>
<polygon fill="midnightblue" stroke="midnightblue" points="136.2,-117.06 145.66,-112.29 135.29,-110.12 136.2,-117.06"/>
</g>
<!-- Node5 -->
<g id="node5" class="node">
<title>Node5</title>
<g id="a_node5"><a xlink:href="classMessage.html#a4fc4f717b634e66070366cb7722d7761" target="_top" xlink:title="Construct a new Message:: Message object.">
<polygon fill="white" stroke="black" points="0,-76.5 0,-95.5 110,-95.5 110,-76.5 0,-76.5"/>
<text text-anchor="middle" x="55" y="-83.5" font-family="Helvetica,sans-Serif" font-size="10.00">Message::Message</text>
</a>
</g>
</g>
<!-- Node1&#45;&gt;Node5 -->
<g id="edge4" class="edge">
<title>Node1&#45;&gt;Node5</title>
<path fill="none" stroke="midnightblue" d="M135.67,-96.4C127.09,-95.28 118.37,-94.14 110.01,-93.05"/>
<polygon fill="midnightblue" stroke="midnightblue" points="135.29,-99.88 145.66,-97.71 136.2,-92.94 135.29,-99.88"/>
</g>
<!-- Node6 -->
<g id="node6" class="node">
<title>Node6</title>
<g id="a_node6"><a xlink:href="classRobot.html#a4fc7c70ae20623f05e06f2ecb388b6c4" target="_top" xlink:title="Construct a new Robot:: Robot object.">
<polygon fill="white" stroke="black" points="15,-38.5 15,-57.5 95,-57.5 95,-38.5 15,-38.5"/>
<text text-anchor="middle" x="55" y="-45.5" font-family="Helvetica,sans-Serif" font-size="10.00">Robot::Robot</text>
</a>
</g>
</g>
<!-- Node1&#45;&gt;Node6 -->
<g id="edge5" class="edge">
<title>Node1&#45;&gt;Node6</title>
<path fill="none" stroke="midnightblue" d="M170.22,-91.5C152.62,-84.04 130.19,-74.74 110,-67 101.65,-63.8 92.49,-60.5 84.13,-57.57"/>
<polygon fill="midnightblue" stroke="midnightblue" points="168.88,-94.74 179.45,-95.44 171.62,-88.3 168.88,-94.74"/>
</g>
<!-- Node7 -->
<g id="node7" class="node">
<title>Node7</title>
<g id="a_node7"><a xlink:href="classBall.html#aa251f59898f287147feafbe579b33adf" target="_top" xlink:title="This method sets the translate.">
<polygon fill="white" stroke="black" points="4.5,-0.5 4.5,-19.5 105.5,-19.5 105.5,-0.5 4.5,-0.5"/>
<text text-anchor="middle" x="55" y="-7.5" font-family="Helvetica,sans-Serif" font-size="10.00">Ball::setTranslate</text>
</a>
</g>
</g>
<!-- Node1&#45;&gt;Node7 -->
<g id="edge6" class="edge">
<title>Node1&#45;&gt;Node7</title>
<path fill="none" stroke="midnightblue" d="M185.1,-88.24C167.76,-71.32 138.98,-45.43 110,-29 103.52,-25.32 96.2,-22.17 89.09,-19.55"/>
<polygon fill="midnightblue" stroke="midnightblue" points="182.65,-90.74 192.21,-95.31 187.59,-85.78 182.65,-90.74"/>
</g>
</g>
</svg>
