<?xml version="1.0" encoding="UTF-8" standalone="no"?>
<!DOCTYPE svg PUBLIC "-//W3C//DTD SVG 1.1//EN"
 "http://www.w3.org/Graphics/SVG/1.1/DTD/svg11.dtd">
<!-- Generated by graphviz version 2.43.0 (0)
 -->
<!-- Title: Simulation Pages: 1 -->
<svg width="891pt" height="1334pt"
 viewBox="0.00 0.00 891.00 1334.00" xmlns="http://www.w3.org/2000/svg" xmlns:xlink="http://www.w3.org/1999/xlink">
<g id="graph0" class="graph" transform="scale(1 1) rotate(0) translate(4 1330)">
<title>Simulation</title>
<polygon fill="white" stroke="transparent" points="-4,4 -4,-1330 887,-1330 887,4 -4,4"/>
<!-- Node1 -->
<g id="node1" class="node">
<title>Node1</title>
<g id="a_node1"><a xlink:title="This class is used to generate the simulation.">
<polygon fill="#bfbfbf" stroke="black" points="358,-0.5 358,-167.5 519,-167.5 519,-0.5 358,-0.5"/>
<text text-anchor="middle" x="438.5" y="-155.5" font-family="Helvetica,sans-Serif" font-size="10.00">Simulation</text>
<polyline fill="none" stroke="black" points="358,-148.5 519,-148.5 "/>
<text text-anchor="start" x="366" y="-136.5" font-family="Helvetica,sans-Serif" font-size="10.00">&#45; glm::mat4 camera</text>
<text text-anchor="start" x="366" y="-125.5" font-family="Helvetica,sans-Serif" font-size="10.00">&#45; int collision</text>
<polyline fill="none" stroke="black" points="358,-118.5 519,-118.5 "/>
<text text-anchor="start" x="366" y="-106.5" font-family="Helvetica,sans-Serif" font-size="10.00">+ Simulation()</text>
<text text-anchor="start" x="366" y="-95.5" font-family="Helvetica,sans-Serif" font-size="10.00">+ void init(GLuint programID)</text>
<text text-anchor="start" x="366" y="-84.5" font-family="Helvetica,sans-Serif" font-size="10.00">+ void changeCamera(int</text>
<text text-anchor="start" x="366" y="-73.5" font-family="Helvetica,sans-Serif" font-size="10.00"> camera)</text>
<text text-anchor="start" x="366" y="-62.5" font-family="Helvetica,sans-Serif" font-size="10.00">+ void setPoint(float</text>
<text text-anchor="start" x="366" y="-51.5" font-family="Helvetica,sans-Serif" font-size="10.00"> x, float y)</text>
<text text-anchor="start" x="366" y="-40.5" font-family="Helvetica,sans-Serif" font-size="10.00">+ void setPoint2(float</text>
<text text-anchor="start" x="366" y="-29.5" font-family="Helvetica,sans-Serif" font-size="10.00"> x, float y)</text>
<text text-anchor="start" x="366" y="-18.5" font-family="Helvetica,sans-Serif" font-size="10.00">+ void setCollision(bool</text>
<text text-anchor="start" x="366" y="-7.5" font-family="Helvetica,sans-Serif" font-size="10.00"> collision)</text>
</a>
</g>
</g>
<!-- Node2 -->
<g id="node2" class="node">
<title>Node2</title>
<g id="a_node2"><a xlink:href="classEnemy.html" target="_top" xlink:title="This class is used to create and draw the enemy.">
<polygon fill="white" stroke="black" points="0,-281.5 0,-360.5 155,-360.5 155,-281.5 0,-281.5"/>
<text text-anchor="middle" x="77.5" y="-348.5" font-family="Helvetica,sans-Serif" font-size="10.00">Enemy</text>
<polyline fill="none" stroke="black" points="0,-341.5 155,-341.5 "/>
<text text-anchor="middle" x="77.5" y="-329.5" font-family="Helvetica,sans-Serif" font-size="10.00"> </text>
<polyline fill="none" stroke="black" points="0,-322.5 155,-322.5 "/>
<text text-anchor="start" x="8" y="-310.5" font-family="Helvetica,sans-Serif" font-size="10.00">+ Enemy()</text>
<text text-anchor="start" x="8" y="-299.5" font-family="Helvetica,sans-Serif" font-size="10.00">+ void draw(GLuint program</text>
<text text-anchor="start" x="8" y="-288.5" font-family="Helvetica,sans-Serif" font-size="10.00">ID, glm::mat4 camera)</text>
</a>
</g>
</g>
<!-- Node2&#45;&gt;Node1 -->
<g id="edge1" class="edge">
<title>Node2&#45;&gt;Node1</title>
<path fill="none" stroke="#404040" d="M113.26,-281.37C128.02,-266.55 145.81,-250.07 163.5,-237 220.98,-194.53 291.66,-155.72 346.96,-127.95"/>
<polygon fill="none" stroke="#404040" points="347.07,-127.89 350.66,-121.64 357.81,-122.54 354.23,-128.8 347.07,-127.89"/>
<text text-anchor="middle" x="256" y="-200" font-family="Helvetica,sans-Serif" font-size="10.00"> &#45;enemy</text>
</g>
<!-- Node3 -->
<g id="node3" class="node">
<title>Node3</title>
<g id="a_node3"><a xlink:href="classModel.html" target="_top" xlink:title=" ">
<polygon fill="white" stroke="black" points="196.5,-573.5 196.5,-652.5 336.5,-652.5 336.5,-573.5 196.5,-573.5"/>
<text text-anchor="middle" x="266.5" y="-640.5" font-family="Helvetica,sans-Serif" font-size="10.00">Model&lt; Obj &gt;</text>
<polyline fill="none" stroke="black" points="196.5,-633.5 336.5,-633.5 "/>
<text text-anchor="middle" x="266.5" y="-621.5" font-family="Helvetica,sans-Serif" font-size="10.00"> </text>
<polyline fill="none" stroke="black" points="196.5,-614.5 336.5,-614.5 "/>
<text text-anchor="start" x="204.5" y="-602.5" font-family="Helvetica,sans-Serif" font-size="10.00">+ Model(string fileName,</text>
<text text-anchor="start" x="204.5" y="-591.5" font-family="Helvetica,sans-Serif" font-size="10.00"> float r, float g, float b)</text>
<text text-anchor="start" x="204.5" y="-580.5" font-family="Helvetica,sans-Serif" font-size="10.00">+ Model()</text>
</a>
</g>
</g>
<!-- Node3&#45;&gt;Node2 -->
<g id="edge2" class="edge">
<title>Node3&#45;&gt;Node2</title>
<path fill="none" stroke="#404040" d="M241.4,-573.49C207.37,-521.27 146.58,-427.99 109.36,-370.89"/>
<polygon fill="none" stroke="#404040" points="109.25,-370.72 102.63,-367.88 102.7,-360.67 109.33,-363.51 109.25,-370.72"/>
<text text-anchor="middle" x="193" y="-442.5" font-family="Helvetica,sans-Serif" font-size="10.00"> &#45;enemy</text>
</g>
<!-- Node13 -->
<g id="node13" class="node">
<title>Node13</title>
<g id="a_node13"><a xlink:href="classMessage.html" target="_top" xlink:title="This class is used to create and draw collition message.">
<polygon fill="white" stroke="black" points="173,-276 173,-366 328,-366 328,-276 173,-276"/>
<text text-anchor="middle" x="250.5" y="-354" font-family="Helvetica,sans-Serif" font-size="10.00">Message</text>
<polyline fill="none" stroke="black" points="173,-347 328,-347 "/>
<text text-anchor="middle" x="250.5" y="-335" font-family="Helvetica,sans-Serif" font-size="10.00"> </text>
<polyline fill="none" stroke="black" points="173,-328 328,-328 "/>
<text text-anchor="start" x="181" y="-316" font-family="Helvetica,sans-Serif" font-size="10.00">+ Message()</text>
<text text-anchor="start" x="181" y="-305" font-family="Helvetica,sans-Serif" font-size="10.00">+ void draw(GLuint program</text>
<text text-anchor="start" x="181" y="-294" font-family="Helvetica,sans-Serif" font-size="10.00">ID, glm::mat4 camera,</text>
<text text-anchor="start" x="181" y="-283" font-family="Helvetica,sans-Serif" font-size="10.00"> bool status)</text>
</a>
</g>
</g>
<!-- Node3&#45;&gt;Node13 -->
<g id="edge15" class="edge">
<title>Node3&#45;&gt;Node13</title>
<path fill="none" stroke="#404040" d="M264.38,-573.49C261.62,-523.54 256.79,-436.01 253.62,-378.52"/>
<polygon fill="none" stroke="#404040" points="253.61,-378.36 249.28,-372.59 252.95,-366.38 257.27,-372.15 253.61,-378.36"/>
<text text-anchor="middle" x="284.5" y="-442.5" font-family="Helvetica,sans-Serif" font-size="10.00"> &#45;message</text>
</g>
<!-- Node4 -->
<g id="node4" class="node">
<title>Node4</title>
<g id="a_node4"><a xlink:href="classObj.html" target="_top" xlink:title="This class is used to create objects using the obj file.">
<polygon fill="white" stroke="black" points="242.5,-788.5 242.5,-867.5 368.5,-867.5 368.5,-788.5 242.5,-788.5"/>
<text text-anchor="middle" x="305.5" y="-855.5" font-family="Helvetica,sans-Serif" font-size="10.00">Obj</text>
<polyline fill="none" stroke="black" points="242.5,-848.5 368.5,-848.5 "/>
<text text-anchor="middle" x="305.5" y="-836.5" font-family="Helvetica,sans-Serif" font-size="10.00"> </text>
<polyline fill="none" stroke="black" points="242.5,-829.5 368.5,-829.5 "/>
<text text-anchor="start" x="250.5" y="-817.5" font-family="Helvetica,sans-Serif" font-size="10.00">+ Obj(string fileName,</text>
<text text-anchor="start" x="250.5" y="-806.5" font-family="Helvetica,sans-Serif" font-size="10.00"> float r, float g, float b)</text>
<text text-anchor="start" x="250.5" y="-795.5" font-family="Helvetica,sans-Serif" font-size="10.00">+ void load()</text>
</a>
</g>
</g>
<!-- Node4&#45;&gt;Node3 -->
<g id="edge3" class="edge">
<title>Node4&#45;&gt;Node3</title>
<path fill="none" stroke="midnightblue" d="M296.63,-778.57C289.65,-740.44 280.05,-687.99 273.58,-652.65"/>
<polygon fill="none" stroke="midnightblue" points="293.19,-779.22 298.44,-788.43 300.08,-777.96 293.19,-779.22"/>
</g>
<!-- Node5 -->
<g id="node5" class="node">
<title>Node5</title>
<g id="a_node5"><a xlink:href="classObject.html" target="_top" xlink:title="This class is used to create objects using vertices and faces.">
<polygon fill="white" stroke="black" points="296.5,-905.5 296.5,-1325.5 474.5,-1325.5 474.5,-905.5 296.5,-905.5"/>
<text text-anchor="middle" x="385.5" y="-1313.5" font-family="Helvetica,sans-Serif" font-size="10.00">Object</text>
<polyline fill="none" stroke="black" points="296.5,-1306.5 474.5,-1306.5 "/>
<text text-anchor="start" x="304.5" y="-1294.5" font-family="Helvetica,sans-Serif" font-size="10.00"># string fileName</text>
<text text-anchor="start" x="304.5" y="-1283.5" font-family="Helvetica,sans-Serif" font-size="10.00"># vector&lt; Vertex &gt; vertices</text>
<text text-anchor="start" x="304.5" y="-1272.5" font-family="Helvetica,sans-Serif" font-size="10.00"># vector&lt; Face &gt; faces</text>
<text text-anchor="start" x="304.5" y="-1261.5" font-family="Helvetica,sans-Serif" font-size="10.00"># float r</text>
<text text-anchor="start" x="304.5" y="-1250.5" font-family="Helvetica,sans-Serif" font-size="10.00"># float g</text>
<text text-anchor="start" x="304.5" y="-1239.5" font-family="Helvetica,sans-Serif" font-size="10.00"># float b</text>
<text text-anchor="start" x="304.5" y="-1228.5" font-family="Helvetica,sans-Serif" font-size="10.00"># GLuint colorbuffer</text>
<text text-anchor="start" x="304.5" y="-1217.5" font-family="Helvetica,sans-Serif" font-size="10.00"># GLuint datasize</text>
<text text-anchor="start" x="304.5" y="-1206.5" font-family="Helvetica,sans-Serif" font-size="10.00"># GLuint MatrixID</text>
<text text-anchor="start" x="304.5" y="-1195.5" font-family="Helvetica,sans-Serif" font-size="10.00"># GLuint vertexbuffer</text>
<text text-anchor="start" x="304.5" y="-1184.5" font-family="Helvetica,sans-Serif" font-size="10.00"># glm::mat4 scale</text>
<text text-anchor="start" x="304.5" y="-1173.5" font-family="Helvetica,sans-Serif" font-size="10.00"># glm::mat4 transform</text>
<text text-anchor="start" x="304.5" y="-1162.5" font-family="Helvetica,sans-Serif" font-size="10.00"># glm::mat4 rotate</text>
<text text-anchor="start" x="304.5" y="-1151.5" font-family="Helvetica,sans-Serif" font-size="10.00"># glm::mat4 translate</text>
<polyline fill="none" stroke="black" points="296.5,-1144.5 474.5,-1144.5 "/>
<text text-anchor="start" x="304.5" y="-1132.5" font-family="Helvetica,sans-Serif" font-size="10.00">+ Object(string fileName,</text>
<text text-anchor="start" x="304.5" y="-1121.5" font-family="Helvetica,sans-Serif" font-size="10.00"> float r, float g, float b)</text>
<text text-anchor="start" x="304.5" y="-1110.5" font-family="Helvetica,sans-Serif" font-size="10.00">+ vector&lt; Vertex &gt; getVertices()</text>
<text text-anchor="start" x="304.5" y="-1099.5" font-family="Helvetica,sans-Serif" font-size="10.00">+ vector&lt; Face &gt; getFaces()</text>
<text text-anchor="start" x="304.5" y="-1088.5" font-family="Helvetica,sans-Serif" font-size="10.00">+ virtual void load()=0</text>
<text text-anchor="start" x="304.5" y="-1077.5" font-family="Helvetica,sans-Serif" font-size="10.00">+ void draw(GLuint program</text>
<text text-anchor="start" x="304.5" y="-1066.5" font-family="Helvetica,sans-Serif" font-size="10.00">ID, glm::mat4 transform)</text>
<text text-anchor="start" x="304.5" y="-1055.5" font-family="Helvetica,sans-Serif" font-size="10.00">+ void setScale(glm::</text>
<text text-anchor="start" x="304.5" y="-1044.5" font-family="Helvetica,sans-Serif" font-size="10.00">mat4 scale)</text>
<text text-anchor="start" x="304.5" y="-1033.5" font-family="Helvetica,sans-Serif" font-size="10.00">+ void setRotate(glm</text>
<text text-anchor="start" x="304.5" y="-1022.5" font-family="Helvetica,sans-Serif" font-size="10.00">::mat4 rotate)</text>
<text text-anchor="start" x="304.5" y="-1011.5" font-family="Helvetica,sans-Serif" font-size="10.00">+ void setTranslate(glm</text>
<text text-anchor="start" x="304.5" y="-1000.5" font-family="Helvetica,sans-Serif" font-size="10.00">::mat4 translate)</text>
<text text-anchor="start" x="304.5" y="-989.5" font-family="Helvetica,sans-Serif" font-size="10.00">+ glm::mat4 getScale()</text>
<text text-anchor="start" x="304.5" y="-978.5" font-family="Helvetica,sans-Serif" font-size="10.00">+ glm::mat4 getRotate()</text>
<text text-anchor="start" x="304.5" y="-967.5" font-family="Helvetica,sans-Serif" font-size="10.00">+ glm::mat4 getTranslate()</text>
<text text-anchor="start" x="304.5" y="-956.5" font-family="Helvetica,sans-Serif" font-size="10.00">+ glm::mat4 getTransform()</text>
<text text-anchor="start" x="304.5" y="-945.5" font-family="Helvetica,sans-Serif" font-size="10.00"># vector&lt; string &gt; split</text>
<text text-anchor="start" x="304.5" y="-934.5" font-family="Helvetica,sans-Serif" font-size="10.00">(const string &amp;str, const</text>
<text text-anchor="start" x="304.5" y="-923.5" font-family="Helvetica,sans-Serif" font-size="10.00"> string &amp;delim)</text>
<text text-anchor="start" x="304.5" y="-912.5" font-family="Helvetica,sans-Serif" font-size="10.00"># void set_data()</text>
</a>
</g>
</g>
<!-- Node5&#45;&gt;Node4 -->
<g id="edge4" class="edge">
<title>Node5&#45;&gt;Node4</title>
<path fill="none" stroke="midnightblue" d="M324.1,-895.36C321.3,-885.39 318.7,-876.12 316.39,-867.86"/>
<polygon fill="none" stroke="midnightblue" points="320.77,-896.45 326.83,-905.13 327.51,-894.56 320.77,-896.45"/>
</g>
<!-- Node11 -->
<g id="node11" class="node">
<title>Node11</title>
<g id="a_node11"><a xlink:href="classPly.html" target="_top" xlink:title="This class is used to create objects using the ply file.">
<polygon fill="white" stroke="black" points="394,-788.5 394,-867.5 519,-867.5 519,-788.5 394,-788.5"/>
<text text-anchor="middle" x="456.5" y="-855.5" font-family="Helvetica,sans-Serif" font-size="10.00">Ply</text>
<polyline fill="none" stroke="black" points="394,-848.5 519,-848.5 "/>
<text text-anchor="middle" x="456.5" y="-836.5" font-family="Helvetica,sans-Serif" font-size="10.00"> </text>
<polyline fill="none" stroke="black" points="394,-829.5 519,-829.5 "/>
<text text-anchor="start" x="402" y="-817.5" font-family="Helvetica,sans-Serif" font-size="10.00">+ Ply(string fileName,</text>
<text text-anchor="start" x="402" y="-806.5" font-family="Helvetica,sans-Serif" font-size="10.00"> float r, float g, float b)</text>
<text text-anchor="start" x="402" y="-795.5" font-family="Helvetica,sans-Serif" font-size="10.00">+ void load()</text>
</a>
</g>
</g>
<!-- Node5&#45;&gt;Node11 -->
<g id="edge11" class="edge">
<title>Node5&#45;&gt;Node11</title>
<path fill="none" stroke="midnightblue" d="M440,-895.36C442.48,-885.39 444.78,-876.12 446.84,-867.86"/>
<polygon fill="none" stroke="midnightblue" points="436.58,-894.58 437.57,-905.13 443.38,-896.27 436.58,-894.58"/>
</g>
<!-- Node6 -->
<g id="node6" class="node">
<title>Node6</title>
<g id="a_node6"><a xlink:href="classModel.html" target="_top" xlink:title="This class is used to create models using Obj and Ply.">
<polygon fill="white" stroke="black" points="540.5,-788.5 540.5,-867.5 680.5,-867.5 680.5,-788.5 540.5,-788.5"/>
<text text-anchor="middle" x="610.5" y="-855.5" font-family="Helvetica,sans-Serif" font-size="10.00">Model&lt; T &gt;</text>
<polyline fill="none" stroke="black" points="540.5,-848.5 680.5,-848.5 "/>
<text text-anchor="middle" x="610.5" y="-836.5" font-family="Helvetica,sans-Serif" font-size="10.00"> </text>
<polyline fill="none" stroke="black" points="540.5,-829.5 680.5,-829.5 "/>
<text text-anchor="start" x="548.5" y="-817.5" font-family="Helvetica,sans-Serif" font-size="10.00">+ Model(string fileName,</text>
<text text-anchor="start" x="548.5" y="-806.5" font-family="Helvetica,sans-Serif" font-size="10.00"> float r, float g, float b)</text>
<text text-anchor="start" x="548.5" y="-795.5" font-family="Helvetica,sans-Serif" font-size="10.00">+ Model()</text>
</a>
</g>
</g>
<!-- Node6&#45;&gt;Node3 -->
<g id="edge5" class="edge">
<title>Node6&#45;&gt;Node3</title>
<path fill="none" stroke="orange" d="M530.67,-788.82C529.94,-788.54 529.22,-788.27 528.5,-788 455.89,-760.81 424.35,-784.98 360.5,-741 327.97,-718.59 302.29,-681.21 286.05,-652.79"/>
<polygon fill="orange" stroke="orange" points="529.58,-792.15 540.16,-792.61 532.17,-785.65 529.58,-792.15"/>
<text text-anchor="middle" x="453" y="-762" font-family="Helvetica,sans-Serif" font-size="10.00"> &lt; Obj &gt;</text>
</g>
<!-- Node10 -->
<g id="node10" class="node">
<title>Node10</title>
<g id="a_node10"><a xlink:href="classModel.html" target="_top" xlink:title=" ">
<polygon fill="white" stroke="black" points="559.5,-573.5 559.5,-652.5 699.5,-652.5 699.5,-573.5 559.5,-573.5"/>
<text text-anchor="middle" x="629.5" y="-640.5" font-family="Helvetica,sans-Serif" font-size="10.00">Model&lt; Ply &gt;</text>
<polyline fill="none" stroke="black" points="559.5,-633.5 699.5,-633.5 "/>
<text text-anchor="middle" x="629.5" y="-621.5" font-family="Helvetica,sans-Serif" font-size="10.00"> </text>
<polyline fill="none" stroke="black" points="559.5,-614.5 699.5,-614.5 "/>
<text text-anchor="start" x="567.5" y="-602.5" font-family="Helvetica,sans-Serif" font-size="10.00">+ Model(string fileName,</text>
<text text-anchor="start" x="567.5" y="-591.5" font-family="Helvetica,sans-Serif" font-size="10.00"> float r, float g, float b)</text>
<text text-anchor="start" x="567.5" y="-580.5" font-family="Helvetica,sans-Serif" font-size="10.00">+ Model()</text>
</a>
</g>
</g>
<!-- Node6&#45;&gt;Node10 -->
<g id="edge12" class="edge">
<title>Node6&#45;&gt;Node10</title>
<path fill="none" stroke="orange" d="M614.86,-778.08C618.26,-739.99 622.91,-687.84 626.05,-652.65"/>
<polygon fill="orange" stroke="orange" points="611.34,-778.16 613.94,-788.43 618.32,-778.78 611.34,-778.16"/>
<text text-anchor="middle" x="636" y="-762" font-family="Helvetica,sans-Serif" font-size="10.00"> &lt; Ply &gt;</text>
</g>
<!-- Node7 -->
<g id="node7" class="node">
<title>Node7</title>
<g id="a_node7"><a xlink:title=" ">
<polygon fill="white" stroke="#bfbfbf" points="596,-1087 596,-1144 625,-1144 625,-1087 596,-1087"/>
<text text-anchor="middle" x="610.5" y="-1132" font-family="Helvetica,sans-Serif" font-size="10.00">T</text>
<polyline fill="none" stroke="#bfbfbf" points="596,-1125 625,-1125 "/>
<text text-anchor="middle" x="610.5" y="-1113" font-family="Helvetica,sans-Serif" font-size="10.00"> </text>
<polyline fill="none" stroke="#bfbfbf" points="596,-1106 625,-1106 "/>
<text text-anchor="middle" x="610.5" y="-1094" font-family="Helvetica,sans-Serif" font-size="10.00"> </text>
</a>
</g>
</g>
<!-- Node7&#45;&gt;Node6 -->
<g id="edge6" class="edge">
<title>Node7&#45;&gt;Node6</title>
<path fill="none" stroke="midnightblue" d="M610.5,-1076.63C610.5,-1022.32 610.5,-922.83 610.5,-867.93"/>
<polygon fill="none" stroke="midnightblue" points="607,-1076.87 610.5,-1086.87 614,-1076.87 607,-1076.87"/>
</g>
<!-- Node8 -->
<g id="node8" class="node">
<title>Node8</title>
<g id="a_node8"><a xlink:href="classRobot.html" target="_top" xlink:title="This class is used to create and draw the robot.">
<polygon fill="white" stroke="black" points="549.5,-237.5 549.5,-404.5 709.5,-404.5 709.5,-237.5 549.5,-237.5"/>
<text text-anchor="middle" x="629.5" y="-392.5" font-family="Helvetica,sans-Serif" font-size="10.00">Robot</text>
<polyline fill="none" stroke="black" points="549.5,-385.5 709.5,-385.5 "/>
<text text-anchor="start" x="557.5" y="-373.5" font-family="Helvetica,sans-Serif" font-size="10.00">&#45; unsigned int pathIndex</text>
<text text-anchor="start" x="557.5" y="-362.5" font-family="Helvetica,sans-Serif" font-size="10.00">&#45; vector&lt; Vertex &gt; path</text>
<text text-anchor="start" x="557.5" y="-351.5" font-family="Helvetica,sans-Serif" font-size="10.00">&#45; float t</text>
<polyline fill="none" stroke="black" points="549.5,-344.5 709.5,-344.5 "/>
<text text-anchor="start" x="557.5" y="-332.5" font-family="Helvetica,sans-Serif" font-size="10.00">+ Robot()</text>
<text text-anchor="start" x="557.5" y="-321.5" font-family="Helvetica,sans-Serif" font-size="10.00">+ void draw(GLuint program</text>
<text text-anchor="start" x="557.5" y="-310.5" font-family="Helvetica,sans-Serif" font-size="10.00">ID, glm::mat4 camera,</text>
<text text-anchor="start" x="557.5" y="-299.5" font-family="Helvetica,sans-Serif" font-size="10.00"> int collision)</text>
<text text-anchor="start" x="557.5" y="-288.5" font-family="Helvetica,sans-Serif" font-size="10.00">+ void setP2(Vertex P2)</text>
<text text-anchor="start" x="557.5" y="-277.5" font-family="Helvetica,sans-Serif" font-size="10.00">+ void setP3(Vertex P3)</text>
<text text-anchor="start" x="557.5" y="-266.5" font-family="Helvetica,sans-Serif" font-size="10.00">+ void setP4(Vertex P4)</text>
<text text-anchor="start" x="557.5" y="-255.5" font-family="Helvetica,sans-Serif" font-size="10.00">+ Vertex getCurrentPos()</text>
<text text-anchor="start" x="557.5" y="-244.5" font-family="Helvetica,sans-Serif" font-size="10.00">+ vector&lt; Vertex &gt; getPath()</text>
</a>
</g>
</g>
<!-- Node8&#45;&gt;Node1 -->
<g id="edge7" class="edge">
<title>Node8&#45;&gt;Node1</title>
<path fill="none" stroke="#404040" d="M562.43,-237.48C546.56,-217.96 529.54,-197.01 513.35,-177.1"/>
<polygon fill="none" stroke="#404040" points="513.3,-177.03 506.41,-174.9 505.73,-167.72 512.62,-169.85 513.3,-177.03"/>
<text text-anchor="middle" x="561" y="-200" font-family="Helvetica,sans-Serif" font-size="10.00"> &#45;robot</text>
</g>
<!-- Node9 -->
<g id="node9" class="node">
<title>Node9</title>
<g id="a_node9"><a xlink:href="classVertex.html" target="_top" xlink:title="This class is used to create vertices.">
<polygon fill="white" stroke="black" points="369.5,-485.5 369.5,-740.5 541.5,-740.5 541.5,-485.5 369.5,-485.5"/>
<text text-anchor="middle" x="455.5" y="-728.5" font-family="Helvetica,sans-Serif" font-size="10.00">Vertex</text>
<polyline fill="none" stroke="black" points="369.5,-721.5 541.5,-721.5 "/>
<text text-anchor="start" x="377.5" y="-709.5" font-family="Helvetica,sans-Serif" font-size="10.00">&#45; float x</text>
<text text-anchor="start" x="377.5" y="-698.5" font-family="Helvetica,sans-Serif" font-size="10.00">&#45; float y</text>
<text text-anchor="start" x="377.5" y="-687.5" font-family="Helvetica,sans-Serif" font-size="10.00">&#45; float z</text>
<polyline fill="none" stroke="black" points="369.5,-680.5 541.5,-680.5 "/>
<text text-anchor="start" x="377.5" y="-668.5" font-family="Helvetica,sans-Serif" font-size="10.00">+ Vertex()</text>
<text text-anchor="start" x="377.5" y="-657.5" font-family="Helvetica,sans-Serif" font-size="10.00">+ Vertex(float vx, float</text>
<text text-anchor="start" x="377.5" y="-646.5" font-family="Helvetica,sans-Serif" font-size="10.00"> vy, float vz)</text>
<text text-anchor="start" x="377.5" y="-635.5" font-family="Helvetica,sans-Serif" font-size="10.00">+ void print()</text>
<text text-anchor="start" x="377.5" y="-624.5" font-family="Helvetica,sans-Serif" font-size="10.00">+ Vertex operator&#45;(Vertex op2)</text>
<text text-anchor="start" x="377.5" y="-613.5" font-family="Helvetica,sans-Serif" font-size="10.00">+ Vertex operator+(Vertex op2)</text>
<text text-anchor="start" x="377.5" y="-602.5" font-family="Helvetica,sans-Serif" font-size="10.00">+ Vertex operator*(float op2)</text>
<text text-anchor="start" x="377.5" y="-591.5" font-family="Helvetica,sans-Serif" font-size="10.00">+ bool operator==(Vertex op2)</text>
<text text-anchor="start" x="377.5" y="-580.5" font-family="Helvetica,sans-Serif" font-size="10.00">+ Row&lt; float &gt; row()</text>
<text text-anchor="start" x="377.5" y="-569.5" font-family="Helvetica,sans-Serif" font-size="10.00">+ Col&lt; float &gt; homog()</text>
<text text-anchor="start" x="377.5" y="-558.5" font-family="Helvetica,sans-Serif" font-size="10.00">+ float getX()</text>
<text text-anchor="start" x="377.5" y="-547.5" font-family="Helvetica,sans-Serif" font-size="10.00">+ float getY()</text>
<text text-anchor="start" x="377.5" y="-536.5" font-family="Helvetica,sans-Serif" font-size="10.00">+ float getZ()</text>
<text text-anchor="start" x="377.5" y="-525.5" font-family="Helvetica,sans-Serif" font-size="10.00">+ vector&lt; float &gt; getXYZ()</text>
<text text-anchor="start" x="377.5" y="-514.5" font-family="Helvetica,sans-Serif" font-size="10.00">+ void setX(float vx)</text>
<text text-anchor="start" x="377.5" y="-503.5" font-family="Helvetica,sans-Serif" font-size="10.00">+ void setY(float vy)</text>
<text text-anchor="start" x="377.5" y="-492.5" font-family="Helvetica,sans-Serif" font-size="10.00">+ void setZ(float vz)</text>
</a>
</g>
</g>
<!-- Node9&#45;&gt;Node8 -->
<g id="edge8" class="edge">
<title>Node9&#45;&gt;Node8</title>
<path fill="none" stroke="#404040" d="M531.57,-485.22C545.7,-461.67 560.22,-437.47 573.61,-415.15"/>
<polygon fill="none" stroke="#404040" points="573.71,-414.99 573.36,-407.79 579.88,-404.7 580.22,-411.9 573.71,-414.99"/>
<text text-anchor="middle" x="577" y="-459" font-family="Helvetica,sans-Serif" font-size="10.00"> &#45;P1</text>
<text text-anchor="middle" x="577" y="-448" font-family="Helvetica,sans-Serif" font-size="10.00">&#45;P2</text>
<text text-anchor="middle" x="577" y="-437" font-family="Helvetica,sans-Serif" font-size="10.00">&#45;P3</text>
<text text-anchor="middle" x="577" y="-426" font-family="Helvetica,sans-Serif" font-size="10.00">&#45;P4</text>
</g>
<!-- Node10&#45;&gt;Node8 -->
<g id="edge9" class="edge">
<title>Node10&#45;&gt;Node8</title>
<path fill="none" stroke="#404040" d="M629.5,-573.49C629.5,-533.75 629.5,-470.24 629.5,-416.98"/>
<polygon fill="none" stroke="#404040" points="629.5,-416.74 625.5,-410.74 629.5,-404.74 633.5,-410.74 629.5,-416.74"/>
<text text-anchor="middle" x="646" y="-442.5" font-family="Helvetica,sans-Serif" font-size="10.00"> &#45;robot</text>
</g>
<!-- Node14 -->
<g id="node14" class="node">
<title>Node14</title>
<g id="a_node14"><a xlink:href="classBall.html" target="_top" xlink:title="This class is used to create and draw the ball.">
<polygon fill="white" stroke="black" points="728,-259.5 728,-382.5 883,-382.5 883,-259.5 728,-259.5"/>
<text text-anchor="middle" x="805.5" y="-370.5" font-family="Helvetica,sans-Serif" font-size="10.00">Ball</text>
<polyline fill="none" stroke="black" points="728,-363.5 883,-363.5 "/>
<text text-anchor="middle" x="805.5" y="-351.5" font-family="Helvetica,sans-Serif" font-size="10.00"> </text>
<polyline fill="none" stroke="black" points="728,-344.5 883,-344.5 "/>
<text text-anchor="start" x="736" y="-332.5" font-family="Helvetica,sans-Serif" font-size="10.00">+ Ball()</text>
<text text-anchor="start" x="736" y="-321.5" font-family="Helvetica,sans-Serif" font-size="10.00">+ Ball(float x, float</text>
<text text-anchor="start" x="736" y="-310.5" font-family="Helvetica,sans-Serif" font-size="10.00"> y, float z)</text>
<text text-anchor="start" x="736" y="-299.5" font-family="Helvetica,sans-Serif" font-size="10.00">+ void draw(GLuint program</text>
<text text-anchor="start" x="736" y="-288.5" font-family="Helvetica,sans-Serif" font-size="10.00">ID, glm::mat4 camera)</text>
<text text-anchor="start" x="736" y="-277.5" font-family="Helvetica,sans-Serif" font-size="10.00">+ void setTranslate(glm</text>
<text text-anchor="start" x="736" y="-266.5" font-family="Helvetica,sans-Serif" font-size="10.00">::mat4 translate)</text>
</a>
</g>
</g>
<!-- Node10&#45;&gt;Node14 -->
<g id="edge17" class="edge">
<title>Node10&#45;&gt;Node14</title>
<path fill="none" stroke="#404040" d="M652.87,-573.49C680.73,-527.58 727.86,-449.94 762.39,-393.04"/>
<polygon fill="none" stroke="#404040" points="762.45,-392.93 762.15,-385.72 768.68,-382.67 768.99,-389.87 762.45,-392.93"/>
<text text-anchor="middle" x="756" y="-442.5" font-family="Helvetica,sans-Serif" font-size="10.00"> &#45;ball</text>
</g>
<!-- Node11&#45;&gt;Node10 -->
<g id="edge10" class="edge">
<title>Node11&#45;&gt;Node10</title>
<path fill="none" stroke="midnightblue" d="M511.35,-781.47C524.87,-769.02 538.81,-755.07 550.5,-741 573.4,-713.44 594.56,-678.68 609.21,-652.5"/>
<polygon fill="none" stroke="midnightblue" points="508.96,-778.91 503.89,-788.21 513.65,-784.1 508.96,-778.91"/>
</g>
<!-- Node12 -->
<g id="node12" class="node">
<title>Node12</title>
<g id="a_node12"><a xlink:href="classScene.html" target="_top" xlink:title="This class is used generate the camera views.">
<polygon fill="white" stroke="black" points="346,-259.5 346,-382.5 531,-382.5 531,-259.5 346,-259.5"/>
<text text-anchor="middle" x="438.5" y="-370.5" font-family="Helvetica,sans-Serif" font-size="10.00">Scene</text>
<polyline fill="none" stroke="black" points="346,-363.5 531,-363.5 "/>
<text text-anchor="start" x="354" y="-351.5" font-family="Helvetica,sans-Serif" font-size="10.00">&#45; glm::mat4 view_principal</text>
<text text-anchor="start" x="354" y="-340.5" font-family="Helvetica,sans-Serif" font-size="10.00">&#45; glm::mat4 view_z</text>
<text text-anchor="start" x="354" y="-329.5" font-family="Helvetica,sans-Serif" font-size="10.00">&#45; glm::mat4 view_y</text>
<text text-anchor="start" x="354" y="-318.5" font-family="Helvetica,sans-Serif" font-size="10.00">&#45; glm::mat4 projection</text>
<polyline fill="none" stroke="black" points="346,-311.5 531,-311.5 "/>
<text text-anchor="start" x="354" y="-299.5" font-family="Helvetica,sans-Serif" font-size="10.00">+ Scene()</text>
<text text-anchor="start" x="354" y="-288.5" font-family="Helvetica,sans-Serif" font-size="10.00">+ glm::mat4 getCameraPrincipal()</text>
<text text-anchor="start" x="354" y="-277.5" font-family="Helvetica,sans-Serif" font-size="10.00">+ glm::mat4 getCameraZ()</text>
<text text-anchor="start" x="354" y="-266.5" font-family="Helvetica,sans-Serif" font-size="10.00">+ glm::mat4 getCameraY()</text>
</a>
</g>
</g>
<!-- Node12&#45;&gt;Node1 -->
<g id="edge13" class="edge">
<title>Node12&#45;&gt;Node1</title>
<path fill="none" stroke="#404040" d="M438.5,-259.48C438.5,-235.31 438.5,-206.88 438.5,-180.08"/>
<polygon fill="none" stroke="#404040" points="438.5,-179.9 434.5,-173.9 438.5,-167.9 442.5,-173.9 438.5,-179.9"/>
<text text-anchor="middle" x="456.5" y="-200" font-family="Helvetica,sans-Serif" font-size="10.00"> &#45;scene</text>
</g>
<!-- Node13&#45;&gt;Node1 -->
<g id="edge14" class="edge">
<title>Node13&#45;&gt;Node1</title>
<path fill="none" stroke="#404040" d="M285.86,-275.8C308.13,-247.97 337.7,-211 364.88,-177.02"/>
<polygon fill="none" stroke="#404040" points="364.98,-176.9 365.6,-169.72 372.48,-167.53 371.85,-174.71 364.98,-176.9"/>
<text text-anchor="middle" x="381.5" y="-200" font-family="Helvetica,sans-Serif" font-size="10.00"> &#45;message</text>
</g>
<!-- Node14&#45;&gt;Node1 -->
<g id="edge16" class="edge">
<title>Node14&#45;&gt;Node1</title>
<path fill="none" stroke="#404040" d="M745.98,-259.35C737.09,-251.45 727.78,-243.76 718.5,-237 659.4,-193.95 586.68,-154.83 530.16,-127.06"/>
<polygon fill="none" stroke="#404040" points="529.87,-126.92 522.72,-127.88 519.08,-121.66 526.23,-120.69 529.87,-126.92"/>
<text text-anchor="middle" x="716" y="-211" font-family="Helvetica,sans-Serif" font-size="10.00"> &#45;ball</text>
<text text-anchor="middle" x="716" y="-200" font-family="Helvetica,sans-Serif" font-size="10.00">&#45;ballPoint</text>
<text text-anchor="middle" x="716" y="-189" font-family="Helvetica,sans-Serif" font-size="10.00">&#45;ballPoint2</text>
</g>
</g>
</svg>
