<?xml version="1.0" encoding="UTF-8" standalone="no"?>
<!DOCTYPE svg PUBLIC "-//W3C//DTD SVG 1.1//EN"
 "http://www.w3.org/Graphics/SVG/1.1/DTD/svg11.dtd">
<!-- Generated by graphviz version 2.43.0 (0)
 -->
<!-- Title: Enemy Pages: 1 -->
<svg width="318pt" height="800pt"
 viewBox="0.00 0.00 318.00 800.00" xmlns="http://www.w3.org/2000/svg" xmlns:xlink="http://www.w3.org/1999/xlink">
<g id="graph0" class="graph" transform="scale(1 1) rotate(0) translate(4 796)">
<title>Enemy</title>
<polygon fill="white" stroke="transparent" points="-4,4 -4,-796 314,-796 314,4 -4,4"/>
<!-- Node1 -->
<g id="node1" class="node">
<title>Node1</title>
<g id="a_node1"><a xlink:title="This class is used to create and draw the enemy.">
<polygon fill="#bfbfbf" stroke="black" points="86.5,-0.5 86.5,-79.5 241.5,-79.5 241.5,-0.5 86.5,-0.5"/>
<text text-anchor="middle" x="164" y="-67.5" font-family="Helvetica,sans-Serif" font-size="10.00">Enemy</text>
<polyline fill="none" stroke="black" points="86.5,-60.5 241.5,-60.5 "/>
<text text-anchor="middle" x="164" y="-48.5" font-family="Helvetica,sans-Serif" font-size="10.00"> </text>
<polyline fill="none" stroke="black" points="86.5,-41.5 241.5,-41.5 "/>
<text text-anchor="start" x="94.5" y="-29.5" font-family="Helvetica,sans-Serif" font-size="10.00">+ Enemy()</text>
<text text-anchor="start" x="94.5" y="-18.5" font-family="Helvetica,sans-Serif" font-size="10.00">+ void draw(GLuint program</text>
<text text-anchor="start" x="94.5" y="-7.5" font-family="Helvetica,sans-Serif" font-size="10.00">ID, glm::mat4 camera)</text>
</a>
</g>
</g>
<!-- Node2 -->
<g id="node2" class="node">
<title>Node2</title>
<g id="a_node2"><a xlink:href="classModel.html" target="_top" xlink:title=" ">
<polygon fill="white" stroke="black" points="94,-127.5 94,-206.5 234,-206.5 234,-127.5 94,-127.5"/>
<text text-anchor="middle" x="164" y="-194.5" font-family="Helvetica,sans-Serif" font-size="10.00">Model&lt; Obj &gt;</text>
<polyline fill="none" stroke="black" points="94,-187.5 234,-187.5 "/>
<text text-anchor="middle" x="164" y="-175.5" font-family="Helvetica,sans-Serif" font-size="10.00"> </text>
<polyline fill="none" stroke="black" points="94,-168.5 234,-168.5 "/>
<text text-anchor="start" x="102" y="-156.5" font-family="Helvetica,sans-Serif" font-size="10.00">+ Model(string fileName,</text>
<text text-anchor="start" x="102" y="-145.5" font-family="Helvetica,sans-Serif" font-size="10.00"> float r, float g, float b)</text>
<text text-anchor="start" x="102" y="-134.5" font-family="Helvetica,sans-Serif" font-size="10.00">+ Model()</text>
</a>
</g>
</g>
<!-- Node2&#45;&gt;Node1 -->
<g id="edge1" class="edge">
<title>Node2&#45;&gt;Node1</title>
<path fill="none" stroke="#404040" d="M164,-127.48C164,-116.19 164,-103.67 164,-91.75"/>
<polygon fill="none" stroke="#404040" points="164,-91.61 160,-85.61 164,-79.61 168,-85.61 164,-91.61"/>
<text text-anchor="middle" x="184.5" y="-101" font-family="Helvetica,sans-Serif" font-size="10.00"> &#45;enemy</text>
</g>
<!-- Node3 -->
<g id="node3" class="node">
<title>Node3</title>
<g id="a_node3"><a xlink:href="classObj.html" target="_top" xlink:title="This class is used to create objects using the obj file.">
<polygon fill="white" stroke="black" points="26,-254.5 26,-333.5 152,-333.5 152,-254.5 26,-254.5"/>
<text text-anchor="middle" x="89" y="-321.5" font-family="Helvetica,sans-Serif" font-size="10.00">Obj</text>
<polyline fill="none" stroke="black" points="26,-314.5 152,-314.5 "/>
<text text-anchor="middle" x="89" y="-302.5" font-family="Helvetica,sans-Serif" font-size="10.00"> </text>
<polyline fill="none" stroke="black" points="26,-295.5 152,-295.5 "/>
<text text-anchor="start" x="34" y="-283.5" font-family="Helvetica,sans-Serif" font-size="10.00">+ Obj(string fileName,</text>
<text text-anchor="start" x="34" y="-272.5" font-family="Helvetica,sans-Serif" font-size="10.00"> float r, float g, float b)</text>
<text text-anchor="start" x="34" y="-261.5" font-family="Helvetica,sans-Serif" font-size="10.00">+ void load()</text>
</a>
</g>
</g>
<!-- Node3&#45;&gt;Node2 -->
<g id="edge2" class="edge">
<title>Node3&#45;&gt;Node2</title>
<path fill="none" stroke="midnightblue" d="M117.37,-245.72C125.12,-232.81 133.41,-218.98 140.83,-206.61"/>
<polygon fill="none" stroke="midnightblue" points="114.26,-244.1 112.11,-254.48 120.26,-247.7 114.26,-244.1"/>
</g>
<!-- Node4 -->
<g id="node4" class="node">
<title>Node4</title>
<g id="a_node4"><a xlink:href="classObject.html" target="_top" xlink:title="This class is used to create objects using vertices and faces.">
<polygon fill="white" stroke="black" points="0,-371.5 0,-791.5 178,-791.5 178,-371.5 0,-371.5"/>
<text text-anchor="middle" x="89" y="-779.5" font-family="Helvetica,sans-Serif" font-size="10.00">Object</text>
<polyline fill="none" stroke="black" points="0,-772.5 178,-772.5 "/>
<text text-anchor="start" x="8" y="-760.5" font-family="Helvetica,sans-Serif" font-size="10.00"># string fileName</text>
<text text-anchor="start" x="8" y="-749.5" font-family="Helvetica,sans-Serif" font-size="10.00"># vector&lt; Vertex &gt; vertices</text>
<text text-anchor="start" x="8" y="-738.5" font-family="Helvetica,sans-Serif" font-size="10.00"># vector&lt; Face &gt; faces</text>
<text text-anchor="start" x="8" y="-727.5" font-family="Helvetica,sans-Serif" font-size="10.00"># float r</text>
<text text-anchor="start" x="8" y="-716.5" font-family="Helvetica,sans-Serif" font-size="10.00"># float g</text>
<text text-anchor="start" x="8" y="-705.5" font-family="Helvetica,sans-Serif" font-size="10.00"># float b</text>
<text text-anchor="start" x="8" y="-694.5" font-family="Helvetica,sans-Serif" font-size="10.00"># GLuint colorbuffer</text>
<text text-anchor="start" x="8" y="-683.5" font-family="Helvetica,sans-Serif" font-size="10.00"># GLuint datasize</text>
<text text-anchor="start" x="8" y="-672.5" font-family="Helvetica,sans-Serif" font-size="10.00"># GLuint MatrixID</text>
<text text-anchor="start" x="8" y="-661.5" font-family="Helvetica,sans-Serif" font-size="10.00"># GLuint vertexbuffer</text>
<text text-anchor="start" x="8" y="-650.5" font-family="Helvetica,sans-Serif" font-size="10.00"># glm::mat4 scale</text>
<text text-anchor="start" x="8" y="-639.5" font-family="Helvetica,sans-Serif" font-size="10.00"># glm::mat4 transform</text>
<text text-anchor="start" x="8" y="-628.5" font-family="Helvetica,sans-Serif" font-size="10.00"># glm::mat4 rotate</text>
<text text-anchor="start" x="8" y="-617.5" font-family="Helvetica,sans-Serif" font-size="10.00"># glm::mat4 translate</text>
<polyline fill="none" stroke="black" points="0,-610.5 178,-610.5 "/>
<text text-anchor="start" x="8" y="-598.5" font-family="Helvetica,sans-Serif" font-size="10.00">+ Object(string fileName,</text>
<text text-anchor="start" x="8" y="-587.5" font-family="Helvetica,sans-Serif" font-size="10.00"> float r, float g, float b)</text>
<text text-anchor="start" x="8" y="-576.5" font-family="Helvetica,sans-Serif" font-size="10.00">+ vector&lt; Vertex &gt; getVertices()</text>
<text text-anchor="start" x="8" y="-565.5" font-family="Helvetica,sans-Serif" font-size="10.00">+ vector&lt; Face &gt; getFaces()</text>
<text text-anchor="start" x="8" y="-554.5" font-family="Helvetica,sans-Serif" font-size="10.00">+ virtual void load()=0</text>
<text text-anchor="start" x="8" y="-543.5" font-family="Helvetica,sans-Serif" font-size="10.00">+ void draw(GLuint program</text>
<text text-anchor="start" x="8" y="-532.5" font-family="Helvetica,sans-Serif" font-size="10.00">ID, glm::mat4 transform)</text>
<text text-anchor="start" x="8" y="-521.5" font-family="Helvetica,sans-Serif" font-size="10.00">+ void setScale(glm::</text>
<text text-anchor="start" x="8" y="-510.5" font-family="Helvetica,sans-Serif" font-size="10.00">mat4 scale)</text>
<text text-anchor="start" x="8" y="-499.5" font-family="Helvetica,sans-Serif" font-size="10.00">+ void setRotate(glm</text>
<text text-anchor="start" x="8" y="-488.5" font-family="Helvetica,sans-Serif" font-size="10.00">::mat4 rotate)</text>
<text text-anchor="start" x="8" y="-477.5" font-family="Helvetica,sans-Serif" font-size="10.00">+ void setTranslate(glm</text>
<text text-anchor="start" x="8" y="-466.5" font-family="Helvetica,sans-Serif" font-size="10.00">::mat4 translate)</text>
<text text-anchor="start" x="8" y="-455.5" font-family="Helvetica,sans-Serif" font-size="10.00">+ glm::mat4 getScale()</text>
<text text-anchor="start" x="8" y="-444.5" font-family="Helvetica,sans-Serif" font-size="10.00">+ glm::mat4 getRotate()</text>
<text text-anchor="start" x="8" y="-433.5" font-family="Helvetica,sans-Serif" font-size="10.00">+ glm::mat4 getTranslate()</text>
<text text-anchor="start" x="8" y="-422.5" font-family="Helvetica,sans-Serif" font-size="10.00">+ glm::mat4 getTransform()</text>
<text text-anchor="start" x="8" y="-411.5" font-family="Helvetica,sans-Serif" font-size="10.00"># vector&lt; string &gt; split</text>
<text text-anchor="start" x="8" y="-400.5" font-family="Helvetica,sans-Serif" font-size="10.00">(const string &amp;str, const</text>
<text text-anchor="start" x="8" y="-389.5" font-family="Helvetica,sans-Serif" font-size="10.00"> string &amp;delim)</text>
<text text-anchor="start" x="8" y="-378.5" font-family="Helvetica,sans-Serif" font-size="10.00"># void set_data()</text>
</a>
</g>
</g>
<!-- Node4&#45;&gt;Node3 -->
<g id="edge3" class="edge">
<title>Node4&#45;&gt;Node3</title>
<path fill="none" stroke="midnightblue" d="M89,-361.06C89,-351.2 89,-342.04 89,-333.86"/>
<polygon fill="none" stroke="midnightblue" points="85.5,-361.13 89,-371.13 92.5,-361.13 85.5,-361.13"/>
</g>
<!-- Node5 -->
<g id="node5" class="node">
<title>Node5</title>
<g id="a_node5"><a xlink:href="classModel.html" target="_top" xlink:title="This class is used to create models using Obj and Ply.">
<polygon fill="white" stroke="black" points="170,-254.5 170,-333.5 310,-333.5 310,-254.5 170,-254.5"/>
<text text-anchor="middle" x="240" y="-321.5" font-family="Helvetica,sans-Serif" font-size="10.00">Model&lt; T &gt;</text>
<polyline fill="none" stroke="black" points="170,-314.5 310,-314.5 "/>
<text text-anchor="middle" x="240" y="-302.5" font-family="Helvetica,sans-Serif" font-size="10.00"> </text>
<polyline fill="none" stroke="black" points="170,-295.5 310,-295.5 "/>
<text text-anchor="start" x="178" y="-283.5" font-family="Helvetica,sans-Serif" font-size="10.00">+ Model(string fileName,</text>
<text text-anchor="start" x="178" y="-272.5" font-family="Helvetica,sans-Serif" font-size="10.00"> float r, float g, float b)</text>
<text text-anchor="start" x="178" y="-261.5" font-family="Helvetica,sans-Serif" font-size="10.00">+ Model()</text>
</a>
</g>
</g>
<!-- Node5&#45;&gt;Node2 -->
<g id="edge4" class="edge">
<title>Node5&#45;&gt;Node2</title>
<path fill="none" stroke="orange" d="M211.25,-245.72C203.4,-232.81 194.99,-218.98 187.48,-206.61"/>
<polygon fill="orange" stroke="orange" points="208.39,-247.75 216.58,-254.48 214.37,-244.11 208.39,-247.75"/>
<text text-anchor="middle" x="226.5" y="-228" font-family="Helvetica,sans-Serif" font-size="10.00"> &lt; Obj &gt;</text>
</g>
<!-- Node6 -->
<g id="node6" class="node">
<title>Node6</title>
<g id="a_node6"><a xlink:title=" ">
<polygon fill="white" stroke="#bfbfbf" points="225.5,-553 225.5,-610 254.5,-610 254.5,-553 225.5,-553"/>
<text text-anchor="middle" x="240" y="-598" font-family="Helvetica,sans-Serif" font-size="10.00">T</text>
<polyline fill="none" stroke="#bfbfbf" points="225.5,-591 254.5,-591 "/>
<text text-anchor="middle" x="240" y="-579" font-family="Helvetica,sans-Serif" font-size="10.00"> </text>
<polyline fill="none" stroke="#bfbfbf" points="225.5,-572 254.5,-572 "/>
<text text-anchor="middle" x="240" y="-560" font-family="Helvetica,sans-Serif" font-size="10.00"> </text>
</a>
</g>
</g>
<!-- Node6&#45;&gt;Node5 -->
<g id="edge5" class="edge">
<title>Node6&#45;&gt;Node5</title>
<path fill="none" stroke="midnightblue" d="M240,-542.63C240,-488.32 240,-388.83 240,-333.93"/>
<polygon fill="none" stroke="midnightblue" points="236.5,-542.87 240,-552.87 243.5,-542.87 236.5,-542.87"/>
</g>
</g>
</svg>
