<?xml version="1.0" encoding="UTF-8" standalone="no"?>
<!DOCTYPE svg PUBLIC "-//W3C//DTD SVG 1.1//EN"
 "http://www.w3.org/Graphics/SVG/1.1/DTD/svg11.dtd">
<!-- Generated by graphviz version 2.43.0 (0)
 -->
<!-- Title: Object::set_data Pages: 1 -->
<svg width="196pt" height="66pt"
 viewBox="0.00 0.00 196.00 66.00" xmlns="http://www.w3.org/2000/svg" xmlns:xlink="http://www.w3.org/1999/xlink">
<g id="graph0" class="graph" transform="scale(1 1) rotate(0) translate(4 62)">
<title>Object::set_data</title>
<polygon fill="white" stroke="transparent" points="-4,4 -4,-62 192,-62 192,4 -4,4"/>
<!-- Node1 -->
<g id="node1" class="node">
<title>Node1</title>
<g id="a_node1"><a xlink:title="This method is used to set the data of the object.">
<polygon fill="#bfbfbf" stroke="black" points="92,-19.5 92,-38.5 188,-38.5 188,-19.5 92,-19.5"/>
<text text-anchor="middle" x="140" y="-26.5" font-family="Helvetica,sans-Serif" font-size="10.00">Object::set_data</text>
</a>
</g>
</g>
<!-- Node2 -->
<g id="node2" class="node">
<title>Node2</title>
<g id="a_node2"><a xlink:href="classObj.html#a2dcbfba56265b30ae55b00bf234b9891" target="_top" xlink:title="Construct a new Obj:: Obj object.">
<polygon fill="white" stroke="black" points="0,-38.5 0,-57.5 56,-57.5 56,-38.5 0,-38.5"/>
<text text-anchor="middle" x="28" y="-45.5" font-family="Helvetica,sans-Serif" font-size="10.00">Obj::Obj</text>
</a>
</g>
</g>
<!-- Node1&#45;&gt;Node2 -->
<g id="edge1" class="edge">
<title>Node1&#45;&gt;Node2</title>
<path fill="none" stroke="midnightblue" d="M81.71,-38.9C72.84,-40.43 64.05,-41.95 56.26,-43.29"/>
<polygon fill="midnightblue" stroke="midnightblue" points="82.45,-42.32 91.71,-37.17 81.26,-35.42 82.45,-42.32"/>
</g>
<!-- Node3 -->
<g id="node3" class="node">
<title>Node3</title>
<g id="a_node3"><a xlink:href="classPly.html#a72cf68a560b691517dc1ad360c0c045a" target="_top" xlink:title="Construct a new Ply:: Ply object.">
<polygon fill="white" stroke="black" points="2,-0.5 2,-19.5 54,-19.5 54,-0.5 2,-0.5"/>
<text text-anchor="middle" x="28" y="-7.5" font-family="Helvetica,sans-Serif" font-size="10.00">Ply::Ply</text>
</a>
</g>
</g>
<!-- Node1&#45;&gt;Node3 -->
<g id="edge2" class="edge">
<title>Node1&#45;&gt;Node3</title>
<path fill="none" stroke="midnightblue" d="M81.65,-19.09C71.98,-17.42 62.4,-15.77 54.12,-14.34"/>
<polygon fill="midnightblue" stroke="midnightblue" points="81.26,-22.58 91.71,-20.83 82.45,-15.68 81.26,-22.58"/>
</g>
</g>
</svg>
