<?xml version="1.0" encoding="UTF-8" standalone="no"?>
<!DOCTYPE svg PUBLIC "-//W3C//DTD SVG 1.1//EN"
 "http://www.w3.org/Graphics/SVG/1.1/DTD/svg11.dtd">
<!-- Generated by graphviz version 2.43.0 (0)
 -->
<!-- Title: Object::setTranslate Pages: 1 -->
<svg width="246pt" height="142pt"
 viewBox="0.00 0.00 246.00 142.00" xmlns="http://www.w3.org/2000/svg" xmlns:xlink="http://www.w3.org/1999/xlink">
<g id="graph0" class="graph" transform="scale(1 1) rotate(0) translate(4 138)">
<title>Object::setTranslate</title>
<polygon fill="white" stroke="transparent" points="-4,4 -4,-138 242,-138 242,4 -4,4"/>
<!-- Node1 -->
<g id="node1" class="node">
<title>Node1</title>
<g id="a_node1"><a xlink:title="This method sets the translation matrix.">
<polygon fill="#bfbfbf" stroke="black" points="125,-57.5 125,-76.5 238,-76.5 238,-57.5 125,-57.5"/>
<text text-anchor="middle" x="181.5" y="-64.5" font-family="Helvetica,sans-Serif" font-size="10.00">Object::setTranslate</text>
</a>
</g>
</g>
<!-- Node2 -->
<g id="node2" class="node">
<title>Node2</title>
<g id="a_node2"><a xlink:href="classBall.html#a86a144d3dad6c953e422e32435923bbb" target="_top" xlink:title="Construct a new Ball:: Ball object.">
<polygon fill="white" stroke="black" points="14.5,-114.5 14.5,-133.5 74.5,-133.5 74.5,-114.5 14.5,-114.5"/>
<text text-anchor="middle" x="44.5" y="-121.5" font-family="Helvetica,sans-Serif" font-size="10.00">Ball::Ball</text>
</a>
</g>
</g>
<!-- Node1&#45;&gt;Node2 -->
<g id="edge1" class="edge">
<title>Node1&#45;&gt;Node2</title>
<path fill="none" stroke="midnightblue" d="M148.58,-80.48C123.85,-90.92 90.2,-105.13 68.17,-114.43"/>
<polygon fill="midnightblue" stroke="midnightblue" points="150.05,-83.65 157.9,-76.54 147.33,-77.21 150.05,-83.65"/>
</g>
<!-- Node3 -->
<g id="node3" class="node">
<title>Node3</title>
<g id="a_node3"><a xlink:href="classRobot.html#ab95df5f1448465fc35b235c921907ed5" target="_top" xlink:title="This method draws the robot with the animation.">
<polygon fill="white" stroke="black" points="7,-76.5 7,-95.5 82,-95.5 82,-76.5 7,-76.5"/>
<text text-anchor="middle" x="44.5" y="-83.5" font-family="Helvetica,sans-Serif" font-size="10.00">Robot::draw</text>
</a>
</g>
</g>
<!-- Node1&#45;&gt;Node3 -->
<g id="edge2" class="edge">
<title>Node1&#45;&gt;Node3</title>
<path fill="none" stroke="midnightblue" d="M114.61,-76.27C103.45,-77.84 92.23,-79.42 82.17,-80.84"/>
<polygon fill="midnightblue" stroke="midnightblue" points="115.4,-79.7 124.81,-74.84 114.42,-72.77 115.4,-79.7"/>
</g>
<!-- Node4 -->
<g id="node4" class="node">
<title>Node4</title>
<g id="a_node4"><a xlink:href="classEnemy.html#a94f30d348b6d2840fd71675472ba38dd" target="_top" xlink:title="Construct a new Enemy:: Enemy object.">
<polygon fill="white" stroke="black" points="0,-38.5 0,-57.5 89,-57.5 89,-38.5 0,-38.5"/>
<text text-anchor="middle" x="44.5" y="-45.5" font-family="Helvetica,sans-Serif" font-size="10.00">Enemy::Enemy</text>
</a>
</g>
</g>
<!-- Node1&#45;&gt;Node4 -->
<g id="edge3" class="edge">
<title>Node1&#45;&gt;Node4</title>
<path fill="none" stroke="midnightblue" d="M114.67,-57.74C106,-56.51 97.28,-55.29 89.1,-54.14"/>
<polygon fill="midnightblue" stroke="midnightblue" points="114.42,-61.23 124.81,-59.16 115.4,-54.3 114.42,-61.23"/>
</g>
<!-- Node5 -->
<g id="node5" class="node">
<title>Node5</title>
<g id="a_node5"><a xlink:href="classRobot.html#a4fc7c70ae20623f05e06f2ecb388b6c4" target="_top" xlink:title="Construct a new Robot:: Robot object.">
<polygon fill="white" stroke="black" points="4.5,-0.5 4.5,-19.5 84.5,-19.5 84.5,-0.5 4.5,-0.5"/>
<text text-anchor="middle" x="44.5" y="-7.5" font-family="Helvetica,sans-Serif" font-size="10.00">Robot::Robot</text>
</a>
</g>
</g>
<!-- Node1&#45;&gt;Node5 -->
<g id="edge4" class="edge">
<title>Node1&#45;&gt;Node5</title>
<path fill="none" stroke="midnightblue" d="M148.58,-53.52C123.85,-43.08 90.2,-28.87 68.17,-19.57"/>
<polygon fill="midnightblue" stroke="midnightblue" points="147.33,-56.79 157.9,-57.46 150.05,-50.35 147.33,-56.79"/>
</g>
</g>
</svg>
