<?xml version="1.0" encoding="UTF-8" standalone="no"?>
<!DOCTYPE svg PUBLIC "-//W3C//DTD SVG 1.1//EN"
 "http://www.w3.org/Graphics/SVG/1.1/DTD/svg11.dtd">
<!-- Generated by graphviz version 2.43.0 (0)
 -->
<!-- Title: Vertex::Vertex Pages: 1 -->
<svg width="234pt" height="104pt"
 viewBox="0.00 0.00 234.00 104.00" xmlns="http://www.w3.org/2000/svg" xmlns:xlink="http://www.w3.org/1999/xlink">
<g id="graph0" class="graph" transform="scale(1 1) rotate(0) translate(4 100)">
<title>Vertex::Vertex</title>
<polygon fill="white" stroke="transparent" points="-4,4 -4,-100 230,-100 230,4 -4,4"/>
<!-- Node1 -->
<g id="node1" class="node">
<title>Node1</title>
<g id="a_node1"><a xlink:title="Construct a new Vertex:: Vertex object.">
<polygon fill="#bfbfbf" stroke="black" points="140,-38.5 140,-57.5 226,-57.5 226,-38.5 140,-38.5"/>
<text text-anchor="middle" x="183" y="-45.5" font-family="Helvetica,sans-Serif" font-size="10.00">Vertex::Vertex</text>
</a>
</g>
</g>
<!-- Node2 -->
<g id="node2" class="node">
<title>Node2</title>
<g id="a_node2"><a xlink:href="classVertex.html#a34f20018d040c8c27b83507675b8f25e" target="_top" xlink:title="Overload the * operator.">
<polygon fill="white" stroke="black" points="1.5,-76.5 1.5,-95.5 102.5,-95.5 102.5,-76.5 1.5,-76.5"/>
<text text-anchor="middle" x="52" y="-83.5" font-family="Helvetica,sans-Serif" font-size="10.00">Vertex::operator*</text>
</a>
</g>
</g>
<!-- Node1&#45;&gt;Node2 -->
<g id="edge1" class="edge">
<title>Node1&#45;&gt;Node2</title>
<path fill="none" stroke="midnightblue" d="M139.45,-60.54C121.9,-65.7 101.89,-71.6 85.54,-76.41"/>
<polygon fill="midnightblue" stroke="midnightblue" points="140.84,-63.77 149.45,-57.59 138.87,-57.06 140.84,-63.77"/>
</g>
<!-- Node3 -->
<g id="node3" class="node">
<title>Node3</title>
<g id="a_node3"><a xlink:href="classVertex.html#ae69ff4c56d76cf5d72c2492053421f32" target="_top" xlink:title="Overload the + operator.">
<polygon fill="white" stroke="black" points="0,-38.5 0,-57.5 104,-57.5 104,-38.5 0,-38.5"/>
<text text-anchor="middle" x="52" y="-45.5" font-family="Helvetica,sans-Serif" font-size="10.00">Vertex::operator+</text>
</a>
</g>
</g>
<!-- Node1&#45;&gt;Node3 -->
<g id="edge2" class="edge">
<title>Node1&#45;&gt;Node3</title>
<path fill="none" stroke="midnightblue" d="M129.73,-48C121.35,-48 112.69,-48 104.34,-48"/>
<polygon fill="midnightblue" stroke="midnightblue" points="129.76,-51.5 139.76,-48 129.76,-44.5 129.76,-51.5"/>
</g>
<!-- Node4 -->
<g id="node4" class="node">
<title>Node4</title>
<g id="a_node4"><a xlink:href="classVertex.html#afc9a06d5398c52347d17834404a7998c" target="_top" xlink:title="Overload the &#45; operator.">
<polygon fill="white" stroke="black" points="2.5,-0.5 2.5,-19.5 101.5,-19.5 101.5,-0.5 2.5,-0.5"/>
<text text-anchor="middle" x="52" y="-7.5" font-family="Helvetica,sans-Serif" font-size="10.00">Vertex::operator&#45;</text>
</a>
</g>
</g>
<!-- Node1&#45;&gt;Node4 -->
<g id="edge3" class="edge">
<title>Node1&#45;&gt;Node4</title>
<path fill="none" stroke="midnightblue" d="M139.45,-35.46C121.9,-30.3 101.89,-24.4 85.54,-19.59"/>
<polygon fill="midnightblue" stroke="midnightblue" points="138.87,-38.94 149.45,-38.41 140.84,-32.23 138.87,-38.94"/>
</g>
</g>
</svg>
