<?xml version="1.0" encoding="UTF-8" standalone="no"?>
<!DOCTYPE svg PUBLIC "-//W3C//DTD SVG 1.1//EN"
 "http://www.w3.org/Graphics/SVG/1.1/DTD/svg11.dtd">
<!-- Generated by graphviz version 2.43.0 (0)
 -->
<!-- Title: Object::setTranslate Pages: 1 -->
<svg width="282pt" height="256pt"
 viewBox="0.00 0.00 282.00 256.00" xmlns="http://www.w3.org/2000/svg" xmlns:xlink="http://www.w3.org/1999/xlink">
<g id="graph0" class="graph" transform="scale(1 1) rotate(0) translate(4 252)">
<title>Object::setTranslate</title>
<polygon fill="white" stroke="transparent" points="-4,4 -4,-252 278,-252 278,4 -4,4"/>
<!-- Node1 -->
<g id="node1" class="node">
<title>Node1</title>
<g id="a_node1"><a xlink:title="This method sets the translation matrix.">
<polygon fill="#bfbfbf" stroke="black" points="161,-114.5 161,-133.5 274,-133.5 274,-114.5 161,-114.5"/>
<text text-anchor="middle" x="217.5" y="-121.5" font-family="Helvetica,sans-Serif" font-size="10.00">Object::setTranslate</text>
</a>
</g>
</g>
<!-- Node2 -->
<g id="node2" class="node">
<title>Node2</title>
<g id="a_node2"><a xlink:href="classBall.html#a86a144d3dad6c953e422e32435923bbb" target="_top" xlink:title="Construct a new Ball:: Ball object.">
<polygon fill="white" stroke="black" points="32.5,-228.5 32.5,-247.5 92.5,-247.5 92.5,-228.5 32.5,-228.5"/>
<text text-anchor="middle" x="62.5" y="-235.5" font-family="Helvetica,sans-Serif" font-size="10.00">Ball::Ball</text>
</a>
</g>
</g>
<!-- Node1&#45;&gt;Node2 -->
<g id="edge1" class="edge">
<title>Node1&#45;&gt;Node2</title>
<path fill="none" stroke="midnightblue" d="M203.86,-141.82C187.84,-163.13 158.27,-198.51 125,-219 115.2,-225.03 103.33,-229.29 92.64,-232.22"/>
<polygon fill="midnightblue" stroke="midnightblue" points="206.78,-143.76 209.87,-133.62 201.13,-139.62 206.78,-143.76"/>
</g>
<!-- Node3 -->
<g id="node3" class="node">
<title>Node3</title>
<g id="a_node3"><a xlink:href="classRobot.html#a84eaa7f5fb2c3c9035b8bbad49a31272" target="_top" xlink:title="This method draws the robot with the animation.">
<polygon fill="white" stroke="black" points="25,-190.5 25,-209.5 100,-209.5 100,-190.5 25,-190.5"/>
<text text-anchor="middle" x="62.5" y="-197.5" font-family="Helvetica,sans-Serif" font-size="10.00">Robot::draw</text>
</a>
</g>
</g>
<!-- Node1&#45;&gt;Node3 -->
<g id="edge2" class="edge">
<title>Node1&#45;&gt;Node3</title>
<path fill="none" stroke="midnightblue" d="M194.9,-139.69C176.9,-152.2 150.23,-169.48 125,-181 117.07,-184.62 108.26,-187.8 99.85,-190.47"/>
<polygon fill="midnightblue" stroke="midnightblue" points="197.32,-142.26 203.47,-133.63 193.28,-136.55 197.32,-142.26"/>
</g>
<!-- Node4 -->
<g id="node4" class="node">
<title>Node4</title>
<g id="a_node4"><a xlink:href="classEnemy.html#a94f30d348b6d2840fd71675472ba38dd" target="_top" xlink:title="Construct a new Enemy:: Enemy object.">
<polygon fill="white" stroke="black" points="18,-152.5 18,-171.5 107,-171.5 107,-152.5 18,-152.5"/>
<text text-anchor="middle" x="62.5" y="-159.5" font-family="Helvetica,sans-Serif" font-size="10.00">Enemy::Enemy</text>
</a>
</g>
</g>
<!-- Node1&#45;&gt;Node4 -->
<g id="edge3" class="edge">
<title>Node1&#45;&gt;Node4</title>
<path fill="none" stroke="midnightblue" d="M168.02,-136.04C146.65,-141.35 121.89,-147.5 101.83,-152.48"/>
<polygon fill="midnightblue" stroke="midnightblue" points="169.03,-139.4 177.89,-133.59 167.34,-132.6 169.03,-139.4"/>
</g>
<!-- Node5 -->
<g id="node5" class="node">
<title>Node5</title>
<g id="a_node5"><a xlink:href="classMessage.html#a4fc4f717b634e66070366cb7722d7761" target="_top" xlink:title="Construct a new Message:: Message object.">
<polygon fill="white" stroke="black" points="7.5,-114.5 7.5,-133.5 117.5,-133.5 117.5,-114.5 7.5,-114.5"/>
<text text-anchor="middle" x="62.5" y="-121.5" font-family="Helvetica,sans-Serif" font-size="10.00">Message::Message</text>
</a>
</g>
</g>
<!-- Node1&#45;&gt;Node5 -->
<g id="edge4" class="edge">
<title>Node1&#45;&gt;Node5</title>
<path fill="none" stroke="midnightblue" d="M150.78,-124C139.71,-124 128.33,-124 117.59,-124"/>
<polygon fill="midnightblue" stroke="midnightblue" points="150.83,-127.5 160.83,-124 150.83,-120.5 150.83,-127.5"/>
</g>
<!-- Node6 -->
<g id="node6" class="node">
<title>Node6</title>
<g id="a_node6"><a xlink:href="classRobot.html#a4fc7c70ae20623f05e06f2ecb388b6c4" target="_top" xlink:title="Construct a new Robot:: Robot object.">
<polygon fill="white" stroke="black" points="22.5,-76.5 22.5,-95.5 102.5,-95.5 102.5,-76.5 22.5,-76.5"/>
<text text-anchor="middle" x="62.5" y="-83.5" font-family="Helvetica,sans-Serif" font-size="10.00">Robot::Robot</text>
</a>
</g>
</g>
<!-- Node1&#45;&gt;Node6 -->
<g id="edge5" class="edge">
<title>Node1&#45;&gt;Node6</title>
<path fill="none" stroke="midnightblue" d="M168.02,-111.96C146.65,-106.65 121.89,-100.5 101.83,-95.52"/>
<polygon fill="midnightblue" stroke="midnightblue" points="167.34,-115.4 177.89,-114.41 169.03,-108.6 167.34,-115.4"/>
</g>
<!-- Node7 -->
<g id="node7" class="node">
<title>Node7</title>
<g id="a_node7"><a xlink:href="classBall.html#aa251f59898f287147feafbe579b33adf" target="_top" xlink:title="This method sets the translate.">
<polygon fill="white" stroke="black" points="12,-38.5 12,-57.5 113,-57.5 113,-38.5 12,-38.5"/>
<text text-anchor="middle" x="62.5" y="-45.5" font-family="Helvetica,sans-Serif" font-size="10.00">Ball::setTranslate</text>
</a>
</g>
</g>
<!-- Node1&#45;&gt;Node7 -->
<g id="edge6" class="edge">
<title>Node1&#45;&gt;Node7</title>
<path fill="none" stroke="midnightblue" d="M194.9,-108.31C176.9,-95.8 150.23,-78.52 125,-67 117.07,-63.38 108.26,-60.2 99.85,-57.53"/>
<polygon fill="midnightblue" stroke="midnightblue" points="193.28,-111.45 203.47,-114.37 197.32,-105.74 193.28,-111.45"/>
</g>
<!-- Node8 -->
<g id="node8" class="node">
<title>Node8</title>
<g id="a_node8"><a xlink:href="classMessage.html#aa135d88782c0e49f1f232793cbca0a9d" target="_top" xlink:title="This method translate the message.">
<polygon fill="white" stroke="black" points="0,-0.5 0,-19.5 125,-19.5 125,-0.5 0,-0.5"/>
<text text-anchor="middle" x="62.5" y="-7.5" font-family="Helvetica,sans-Serif" font-size="10.00">Message::setTranslate</text>
</a>
</g>
</g>
<!-- Node1&#45;&gt;Node8 -->
<g id="edge7" class="edge">
<title>Node1&#45;&gt;Node8</title>
<path fill="none" stroke="midnightblue" d="M203.86,-106.18C187.84,-84.87 158.27,-49.49 125,-29 118.81,-25.19 111.81,-22.09 104.79,-19.59"/>
<polygon fill="midnightblue" stroke="midnightblue" points="201.13,-108.38 209.87,-114.38 206.78,-104.24 201.13,-108.38"/>
</g>
</g>
</svg>
