<?xml version="1.0" encoding="UTF-8" standalone="no"?>
<!DOCTYPE svg PUBLIC "-//W3C//DTD SVG 1.1//EN"
 "http://www.w3.org/Graphics/SVG/1.1/DTD/svg11.dtd">
<!-- Generated by graphviz version 2.43.0 (0)
 -->
<!-- Title: Enemy::Enemy Pages: 1 -->
<svg width="246pt" height="66pt"
 viewBox="0.00 0.00 246.00 66.00" xmlns="http://www.w3.org/2000/svg" xmlns:xlink="http://www.w3.org/1999/xlink">
<g id="graph0" class="graph" transform="scale(1 1) rotate(0) translate(4 62)">
<title>Enemy::Enemy</title>
<polygon fill="white" stroke="transparent" points="-4,4 -4,-62 242,-62 242,4 -4,4"/>
<!-- Node1 -->
<g id="node1" class="node">
<title>Node1</title>
<g id="a_node1"><a xlink:title="Construct a new Enemy:: Enemy object.">
<polygon fill="#bfbfbf" stroke="black" points="0,-19.5 0,-38.5 89,-38.5 89,-19.5 0,-19.5"/>
<text text-anchor="middle" x="44.5" y="-26.5" font-family="Helvetica,sans-Serif" font-size="10.00">Enemy::Enemy</text>
</a>
</g>
</g>
<!-- Node2 -->
<g id="node2" class="node">
<title>Node2</title>
<g id="a_node2"><a xlink:href="classObject.html#a6d4dd501ee4848dfe26216b30aeb64ce" target="_top" xlink:title="This method sets the scale matrix.">
<polygon fill="white" stroke="black" points="134,-38.5 134,-57.5 229,-57.5 229,-38.5 134,-38.5"/>
<text text-anchor="middle" x="181.5" y="-45.5" font-family="Helvetica,sans-Serif" font-size="10.00">Object::setScale</text>
</a>
</g>
</g>
<!-- Node1&#45;&gt;Node2 -->
<g id="edge1" class="edge">
<title>Node1&#45;&gt;Node2</title>
<path fill="none" stroke="midnightblue" d="M89.33,-35.17C100.29,-36.71 112.2,-38.39 123.68,-40"/>
<polygon fill="midnightblue" stroke="midnightblue" points="123.24,-43.48 133.63,-41.4 124.22,-36.54 123.24,-43.48"/>
</g>
<!-- Node3 -->
<g id="node3" class="node">
<title>Node3</title>
<g id="a_node3"><a xlink:href="classObject.html#ac8ce37df2fa751bfbbf0c8c2e3499a0d" target="_top" xlink:title="This method sets the translation matrix.">
<polygon fill="white" stroke="black" points="125,-0.5 125,-19.5 238,-19.5 238,-0.5 125,-0.5"/>
<text text-anchor="middle" x="181.5" y="-7.5" font-family="Helvetica,sans-Serif" font-size="10.00">Object::setTranslate</text>
</a>
</g>
</g>
<!-- Node1&#45;&gt;Node3 -->
<g id="edge2" class="edge">
<title>Node1&#45;&gt;Node3</title>
<path fill="none" stroke="midnightblue" d="M89.33,-22.83C97.41,-21.69 106.01,-20.48 114.57,-19.28"/>
<polygon fill="midnightblue" stroke="midnightblue" points="115.16,-22.73 124.57,-17.87 114.18,-15.8 115.16,-22.73"/>
</g>
</g>
</svg>
