<?xml version="1.0" encoding="UTF-8" standalone="no"?>
<!DOCTYPE svg PUBLIC "-//W3C//DTD SVG 1.1//EN"
 "http://www.w3.org/Graphics/SVG/1.1/DTD/svg11.dtd">
<!-- Generated by graphviz version 2.43.0 (0)
 -->
<!-- Title: Simulation::changeCamera Pages: 1 -->
<svg width="341pt" height="104pt"
 viewBox="0.00 0.00 341.00 104.00" xmlns="http://www.w3.org/2000/svg" xmlns:xlink="http://www.w3.org/1999/xlink">
<g id="graph0" class="graph" transform="scale(1 1) rotate(0) translate(4 100)">
<title>Simulation::changeCamera</title>
<polygon fill="white" stroke="transparent" points="-4,4 -4,-100 337,-100 337,4 -4,4"/>
<!-- Node1 -->
<g id="node1" class="node">
<title>Node1</title>
<g id="a_node1"><a xlink:title="This method changes the camera.">
<polygon fill="#bfbfbf" stroke="black" points="0,-38.5 0,-57.5 149,-57.5 149,-38.5 0,-38.5"/>
<text text-anchor="middle" x="74.5" y="-45.5" font-family="Helvetica,sans-Serif" font-size="10.00">Simulation::changeCamera</text>
</a>
</g>
</g>
<!-- Node2 -->
<g id="node2" class="node">
<title>Node2</title>
<g id="a_node2"><a xlink:href="classScene.html#af51c1a302474e69cfd7649d5a049c2f9" target="_top" xlink:title=" ">
<polygon fill="white" stroke="black" points="185,-76.5 185,-95.5 333,-95.5 333,-76.5 185,-76.5"/>
<text text-anchor="middle" x="259" y="-83.5" font-family="Helvetica,sans-Serif" font-size="10.00">Scene::getCameraPrincipal</text>
</a>
</g>
</g>
<!-- Node1&#45;&gt;Node2 -->
<g id="edge1" class="edge">
<title>Node1&#45;&gt;Node2</title>
<path fill="none" stroke="midnightblue" d="M121.55,-57.59C146.07,-62.69 176.41,-69.01 202.25,-74.39"/>
<polygon fill="midnightblue" stroke="midnightblue" points="201.78,-77.87 212.28,-76.48 203.2,-71.01 201.78,-77.87"/>
</g>
<!-- Node3 -->
<g id="node3" class="node">
<title>Node3</title>
<g id="a_node3"><a xlink:href="classScene.html#ad337ea0bf514faab5f9ce9617f833311" target="_top" xlink:title=" ">
<polygon fill="white" stroke="black" points="203,-38.5 203,-57.5 315,-57.5 315,-38.5 203,-38.5"/>
<text text-anchor="middle" x="259" y="-45.5" font-family="Helvetica,sans-Serif" font-size="10.00">Scene::getCameraY</text>
</a>
</g>
</g>
<!-- Node1&#45;&gt;Node3 -->
<g id="edge2" class="edge">
<title>Node1&#45;&gt;Node3</title>
<path fill="none" stroke="midnightblue" d="M149.2,-48C163.61,-48 178.63,-48 192.74,-48"/>
<polygon fill="midnightblue" stroke="midnightblue" points="192.83,-51.5 202.83,-48 192.83,-44.5 192.83,-51.5"/>
</g>
<!-- Node4 -->
<g id="node4" class="node">
<title>Node4</title>
<g id="a_node4"><a xlink:href="classScene.html#ac1539c53e753e76c879d0c60e4052507" target="_top" xlink:title=" ">
<polygon fill="white" stroke="black" points="202.5,-0.5 202.5,-19.5 315.5,-19.5 315.5,-0.5 202.5,-0.5"/>
<text text-anchor="middle" x="259" y="-7.5" font-family="Helvetica,sans-Serif" font-size="10.00">Scene::getCameraZ</text>
</a>
</g>
</g>
<!-- Node1&#45;&gt;Node4 -->
<g id="edge3" class="edge">
<title>Node1&#45;&gt;Node4</title>
<path fill="none" stroke="midnightblue" d="M121.55,-38.41C146.07,-33.31 176.41,-26.99 202.25,-21.61"/>
<polygon fill="midnightblue" stroke="midnightblue" points="203.2,-24.99 212.28,-19.52 201.78,-18.13 203.2,-24.99"/>
</g>
</g>
</svg>
