<?xml version="1.0" encoding="UTF-8" standalone="no"?>
<!DOCTYPE svg PUBLIC "-//W3C//DTD SVG 1.1//EN"
 "http://www.w3.org/Graphics/SVG/1.1/DTD/svg11.dtd">
<!-- Generated by graphviz version 2.43.0 (0)
 -->
<!-- Title: Animation::T Pages: 1 -->
<svg width="350pt" height="142pt"
 viewBox="0.00 0.00 350.00 142.00" xmlns="http://www.w3.org/2000/svg" xmlns:xlink="http://www.w3.org/1999/xlink">
<g id="graph0" class="graph" transform="scale(1 1) rotate(0) translate(4 138)">
<title>Animation::T</title>
<polygon fill="white" stroke="transparent" points="-4,4 -4,-138 346,-138 346,4 -4,4"/>
<!-- Node1 -->
<g id="node1" class="node">
<title>Node1</title>
<g id="a_node1"><a xlink:title="This method returns the translation matrix.">
<polygon fill="#bfbfbf" stroke="black" points="263,-38.5 263,-57.5 342,-57.5 342,-38.5 263,-38.5"/>
<text text-anchor="middle" x="302.5" y="-45.5" font-family="Helvetica,sans-Serif" font-size="10.00">Animation::T</text>
</a>
</g>
</g>
<!-- Node2 -->
<g id="node2" class="node">
<title>Node2</title>
<g id="a_node2"><a xlink:href="classAnimation.html#ab64e14e2cfb97930c35009c836b960d3" target="_top" xlink:title="This method returns the bezier curve.">
<polygon fill="white" stroke="black" points="120,-57.5 120,-76.5 223,-76.5 223,-57.5 120,-57.5"/>
<text text-anchor="middle" x="171.5" y="-64.5" font-family="Helvetica,sans-Serif" font-size="10.00">Animation::bezier</text>
</a>
</g>
</g>
<!-- Node1&#45;&gt;Node2 -->
<g id="edge1" class="edge">
<title>Node1&#45;&gt;Node2</title>
<path fill="none" stroke="midnightblue" d="M252.89,-55.16C243.16,-56.59 232.92,-58.1 223.13,-59.54"/>
<polygon fill="midnightblue" stroke="midnightblue" points="253.41,-58.62 262.8,-53.7 252.39,-51.7 253.41,-58.62"/>
</g>
<!-- Node7 -->
<g id="node7" class="node">
<title>Node7</title>
<g id="a_node7"><a xlink:href="classAnimation.html#a94579309ac0f3316fa190bfbf8ca6a2e" target="_top" xlink:title="This method returns the hermite curve.">
<polygon fill="white" stroke="black" points="116,-19.5 116,-38.5 227,-38.5 227,-19.5 116,-19.5"/>
<text text-anchor="middle" x="171.5" y="-26.5" font-family="Helvetica,sans-Serif" font-size="10.00">Animation::hermite</text>
</a>
</g>
</g>
<!-- Node1&#45;&gt;Node7 -->
<g id="edge6" class="edge">
<title>Node1&#45;&gt;Node7</title>
<path fill="none" stroke="midnightblue" d="M252.87,-40.84C244.56,-39.61 235.86,-38.33 227.39,-37.08"/>
<polygon fill="midnightblue" stroke="midnightblue" points="252.39,-44.3 262.8,-42.3 253.41,-37.38 252.39,-44.3"/>
</g>
<!-- Node3 -->
<g id="node3" class="node">
<title>Node3</title>
<g id="a_node3"><a xlink:href="classRobot.html#a4fc7c70ae20623f05e06f2ecb388b6c4" target="_top" xlink:title="Construct a new Robot:: Robot object.">
<polygon fill="white" stroke="black" points="0,-114.5 0,-133.5 80,-133.5 80,-114.5 0,-114.5"/>
<text text-anchor="middle" x="40" y="-121.5" font-family="Helvetica,sans-Serif" font-size="10.00">Robot::Robot</text>
</a>
</g>
</g>
<!-- Node2&#45;&gt;Node3 -->
<g id="edge2" class="edge">
<title>Node2&#45;&gt;Node3</title>
<path fill="none" stroke="midnightblue" d="M139.56,-80.62C115.87,-91.05 83.78,-105.17 62.75,-114.43"/>
<polygon fill="midnightblue" stroke="midnightblue" points="141.08,-83.77 148.82,-76.54 138.26,-77.37 141.08,-83.77"/>
</g>
<!-- Node4 -->
<g id="node4" class="node">
<title>Node4</title>
<g id="a_node4"><a xlink:href="classRobot.html#ad46a0d47d427baea72b5fc43612df61b" target="_top" xlink:title="This method sets the P2 vertex.">
<polygon fill="white" stroke="black" points="1,-76.5 1,-95.5 79,-95.5 79,-76.5 1,-76.5"/>
<text text-anchor="middle" x="40" y="-83.5" font-family="Helvetica,sans-Serif" font-size="10.00">Robot::setP2</text>
</a>
</g>
</g>
<!-- Node2&#45;&gt;Node4 -->
<g id="edge3" class="edge">
<title>Node2&#45;&gt;Node4</title>
<path fill="none" stroke="midnightblue" d="M109.79,-75.91C99.39,-77.43 88.85,-78.98 79.25,-80.39"/>
<polygon fill="midnightblue" stroke="midnightblue" points="110.3,-79.37 119.69,-74.45 109.29,-72.44 110.3,-79.37"/>
</g>
<!-- Node5 -->
<g id="node5" class="node">
<title>Node5</title>
<g id="a_node5"><a xlink:href="classRobot.html#ac27f97ce38e8b6e57985eaddabcfd034" target="_top" xlink:title="This method sets the P3 vertex.">
<polygon fill="white" stroke="black" points="1,-38.5 1,-57.5 79,-57.5 79,-38.5 1,-38.5"/>
<text text-anchor="middle" x="40" y="-45.5" font-family="Helvetica,sans-Serif" font-size="10.00">Robot::setP3</text>
</a>
</g>
</g>
<!-- Node2&#45;&gt;Node5 -->
<g id="edge4" class="edge">
<title>Node2&#45;&gt;Node5</title>
<path fill="none" stroke="midnightblue" d="M109.79,-58.09C99.39,-56.57 88.85,-55.02 79.25,-53.61"/>
<polygon fill="midnightblue" stroke="midnightblue" points="109.29,-61.56 119.69,-59.55 110.3,-54.63 109.29,-61.56"/>
</g>
<!-- Node6 -->
<g id="node6" class="node">
<title>Node6</title>
<g id="a_node6"><a xlink:href="classRobot.html#a5f7bb45e0533f50c4031e9774f990b2d" target="_top" xlink:title="This method sets the P4 vertex.">
<polygon fill="white" stroke="black" points="1,-0.5 1,-19.5 79,-19.5 79,-0.5 1,-0.5"/>
<text text-anchor="middle" x="40" y="-7.5" font-family="Helvetica,sans-Serif" font-size="10.00">Robot::setP4</text>
</a>
</g>
</g>
<!-- Node2&#45;&gt;Node6 -->
<g id="edge5" class="edge">
<title>Node2&#45;&gt;Node6</title>
<path fill="none" stroke="midnightblue" d="M130.87,-53.97C125.82,-52.08 120.76,-50.07 116,-48 99.41,-40.78 96.13,-37.19 80,-29 73.82,-25.87 67.05,-22.53 60.9,-19.54"/>
<polygon fill="midnightblue" stroke="midnightblue" points="129.89,-57.34 140.49,-57.44 132.27,-50.76 129.89,-57.34"/>
</g>
</g>
</svg>
