<?xml version="1.0" encoding="UTF-8" standalone="no"?>
<!DOCTYPE svg PUBLIC "-//W3C//DTD SVG 1.1//EN"
 "http://www.w3.org/Graphics/SVG/1.1/DTD/svg11.dtd">
<!-- Generated by graphviz version 2.43.0 (0)
 -->
<!-- Title: Enemy Pages: 1 -->
<svg width="318pt" height="1130pt"
 viewBox="0.00 0.00 318.00 1130.00" xmlns="http://www.w3.org/2000/svg" xmlns:xlink="http://www.w3.org/1999/xlink">
<g id="graph0" class="graph" transform="scale(1 1) rotate(0) translate(4 1126)">
<title>Enemy</title>
<polygon fill="white" stroke="transparent" points="-4,4 -4,-1126 314,-1126 314,4 -4,4"/>
<!-- Node1 -->
<g id="node1" class="node">
<title>Node1</title>
<g id="a_node1"><a xlink:title="This class is used to create and draw the enemy.">
<polygon fill="#bfbfbf" stroke="black" points="11.5,-0.5 11.5,-112.5 166.5,-112.5 166.5,-0.5 11.5,-0.5"/>
<text text-anchor="middle" x="89" y="-100.5" font-family="Helvetica,sans-Serif" font-size="10.00">Enemy</text>
<polyline fill="none" stroke="black" points="11.5,-93.5 166.5,-93.5 "/>
<text text-anchor="middle" x="89" y="-81.5" font-family="Helvetica,sans-Serif" font-size="10.00"> </text>
<polyline fill="none" stroke="black" points="11.5,-74.5 166.5,-74.5 "/>
<text text-anchor="start" x="19.5" y="-62.5" font-family="Helvetica,sans-Serif" font-size="10.00">+ Enemy()</text>
<text text-anchor="start" x="19.5" y="-51.5" font-family="Helvetica,sans-Serif" font-size="10.00">+ void draw(GLuint program</text>
<text text-anchor="start" x="19.5" y="-40.5" font-family="Helvetica,sans-Serif" font-size="10.00">ID, glm::mat4 camera)</text>
<text text-anchor="start" x="19.5" y="-29.5" font-family="Helvetica,sans-Serif" font-size="10.00">+ Enemy()</text>
<text text-anchor="start" x="19.5" y="-18.5" font-family="Helvetica,sans-Serif" font-size="10.00">+ void draw(GLuint program</text>
<text text-anchor="start" x="19.5" y="-7.5" font-family="Helvetica,sans-Serif" font-size="10.00">ID, glm::mat4 camera)</text>
</a>
</g>
</g>
<!-- Node2 -->
<g id="node2" class="node">
<title>Node2</title>
<g id="a_node2"><a xlink:href="classModel.html" target="_top" xlink:title=" ">
<polygon fill="white" stroke="black" points="19,-160.5 19,-272.5 159,-272.5 159,-160.5 19,-160.5"/>
<text text-anchor="middle" x="89" y="-260.5" font-family="Helvetica,sans-Serif" font-size="10.00">Model&lt; Obj &gt;</text>
<polyline fill="none" stroke="black" points="19,-253.5 159,-253.5 "/>
<text text-anchor="middle" x="89" y="-241.5" font-family="Helvetica,sans-Serif" font-size="10.00"> </text>
<polyline fill="none" stroke="black" points="19,-234.5 159,-234.5 "/>
<text text-anchor="start" x="27" y="-222.5" font-family="Helvetica,sans-Serif" font-size="10.00">+ Model(string fileName,</text>
<text text-anchor="start" x="27" y="-211.5" font-family="Helvetica,sans-Serif" font-size="10.00"> float r, float g, float b)</text>
<text text-anchor="start" x="27" y="-200.5" font-family="Helvetica,sans-Serif" font-size="10.00">+ Model()</text>
<text text-anchor="start" x="27" y="-189.5" font-family="Helvetica,sans-Serif" font-size="10.00">+ Model(string fileName,</text>
<text text-anchor="start" x="27" y="-178.5" font-family="Helvetica,sans-Serif" font-size="10.00"> float r, float g, float b)</text>
<text text-anchor="start" x="27" y="-167.5" font-family="Helvetica,sans-Serif" font-size="10.00">+ Model()</text>
</a>
</g>
</g>
<!-- Node2&#45;&gt;Node1 -->
<g id="edge1" class="edge">
<title>Node2&#45;&gt;Node1</title>
<path fill="none" stroke="#404040" d="M89,-160.24C89,-148.81 89,-136.66 89,-124.85"/>
<polygon fill="none" stroke="#404040" points="89,-124.73 85,-118.73 89,-112.73 93,-118.73 89,-124.73"/>
<text text-anchor="middle" x="109.5" y="-134" font-family="Helvetica,sans-Serif" font-size="10.00"> &#45;enemy</text>
</g>
<!-- Node3 -->
<g id="node3" class="node">
<title>Node3</title>
<g id="a_node3"><a xlink:href="classObj.html" target="_top" xlink:title="This class is used to create objects using the obj file.">
<polygon fill="white" stroke="black" points="26,-320.5 26,-432.5 152,-432.5 152,-320.5 26,-320.5"/>
<text text-anchor="middle" x="89" y="-420.5" font-family="Helvetica,sans-Serif" font-size="10.00">Obj</text>
<polyline fill="none" stroke="black" points="26,-413.5 152,-413.5 "/>
<text text-anchor="middle" x="89" y="-401.5" font-family="Helvetica,sans-Serif" font-size="10.00"> </text>
<polyline fill="none" stroke="black" points="26,-394.5 152,-394.5 "/>
<text text-anchor="start" x="34" y="-382.5" font-family="Helvetica,sans-Serif" font-size="10.00">+ Obj(string fileName,</text>
<text text-anchor="start" x="34" y="-371.5" font-family="Helvetica,sans-Serif" font-size="10.00"> float r, float g, float b)</text>
<text text-anchor="start" x="34" y="-360.5" font-family="Helvetica,sans-Serif" font-size="10.00">+ void load()</text>
<text text-anchor="start" x="34" y="-349.5" font-family="Helvetica,sans-Serif" font-size="10.00">+ Obj(string fileName,</text>
<text text-anchor="start" x="34" y="-338.5" font-family="Helvetica,sans-Serif" font-size="10.00"> float r, float g, float b)</text>
<text text-anchor="start" x="34" y="-327.5" font-family="Helvetica,sans-Serif" font-size="10.00">+ void load()</text>
</a>
</g>
</g>
<!-- Node3&#45;&gt;Node2 -->
<g id="edge2" class="edge">
<title>Node3&#45;&gt;Node2</title>
<path fill="none" stroke="midnightblue" d="M82.34,-309.97C82.17,-297.59 82.24,-284.76 82.53,-272.73"/>
<polygon fill="none" stroke="midnightblue" points="78.84,-310.31 82.53,-320.24 85.84,-310.18 78.84,-310.31"/>
</g>
<!-- Node3&#45;&gt;Node2 -->
<g id="edge5" class="edge">
<title>Node3&#45;&gt;Node2</title>
<path fill="none" stroke="midnightblue" d="M95.66,-309.97C95.83,-297.59 95.76,-284.76 95.47,-272.73"/>
<polygon fill="none" stroke="midnightblue" points="92.16,-310.18 95.47,-320.24 99.16,-310.31 92.16,-310.18"/>
</g>
<!-- Node4 -->
<g id="node4" class="node">
<title>Node4</title>
<g id="a_node4"><a xlink:href="classObject.html" target="_top" xlink:title="This class is used to create objects using vertices and faces.">
<polygon fill="white" stroke="black" points="0,-470.5 0,-1121.5 178,-1121.5 178,-470.5 0,-470.5"/>
<text text-anchor="middle" x="89" y="-1109.5" font-family="Helvetica,sans-Serif" font-size="10.00">Object</text>
<polyline fill="none" stroke="black" points="0,-1102.5 178,-1102.5 "/>
<text text-anchor="start" x="8" y="-1090.5" font-family="Helvetica,sans-Serif" font-size="10.00"># string fileName</text>
<text text-anchor="start" x="8" y="-1079.5" font-family="Helvetica,sans-Serif" font-size="10.00"># vector&lt; Vertex &gt; vertices</text>
<text text-anchor="start" x="8" y="-1068.5" font-family="Helvetica,sans-Serif" font-size="10.00"># vector&lt; Face &gt; faces</text>
<text text-anchor="start" x="8" y="-1057.5" font-family="Helvetica,sans-Serif" font-size="10.00"># float r</text>
<text text-anchor="start" x="8" y="-1046.5" font-family="Helvetica,sans-Serif" font-size="10.00"># float g</text>
<text text-anchor="start" x="8" y="-1035.5" font-family="Helvetica,sans-Serif" font-size="10.00"># float b</text>
<text text-anchor="start" x="8" y="-1024.5" font-family="Helvetica,sans-Serif" font-size="10.00"># GLuint colorbuffer</text>
<text text-anchor="start" x="8" y="-1013.5" font-family="Helvetica,sans-Serif" font-size="10.00"># GLuint datasize</text>
<text text-anchor="start" x="8" y="-1002.5" font-family="Helvetica,sans-Serif" font-size="10.00"># GLuint MatrixID</text>
<text text-anchor="start" x="8" y="-991.5" font-family="Helvetica,sans-Serif" font-size="10.00"># GLuint vertexbuffer</text>
<text text-anchor="start" x="8" y="-980.5" font-family="Helvetica,sans-Serif" font-size="10.00"># glm::mat4 scale</text>
<text text-anchor="start" x="8" y="-969.5" font-family="Helvetica,sans-Serif" font-size="10.00"># glm::mat4 transform</text>
<text text-anchor="start" x="8" y="-958.5" font-family="Helvetica,sans-Serif" font-size="10.00"># glm::mat4 rotate</text>
<text text-anchor="start" x="8" y="-947.5" font-family="Helvetica,sans-Serif" font-size="10.00"># glm::mat4 translate</text>
<polyline fill="none" stroke="black" points="0,-940.5 178,-940.5 "/>
<text text-anchor="start" x="8" y="-928.5" font-family="Helvetica,sans-Serif" font-size="10.00">+ Object(string fileName,</text>
<text text-anchor="start" x="8" y="-917.5" font-family="Helvetica,sans-Serif" font-size="10.00"> float r, float g, float b)</text>
<text text-anchor="start" x="8" y="-906.5" font-family="Helvetica,sans-Serif" font-size="10.00">+ vector&lt; Vertex &gt; getVertices()</text>
<text text-anchor="start" x="8" y="-895.5" font-family="Helvetica,sans-Serif" font-size="10.00">+ vector&lt; Face &gt; getFaces()</text>
<text text-anchor="start" x="8" y="-884.5" font-family="Helvetica,sans-Serif" font-size="10.00">+ virtual void load()=0</text>
<text text-anchor="start" x="8" y="-873.5" font-family="Helvetica,sans-Serif" font-size="10.00">+ void draw(GLuint program</text>
<text text-anchor="start" x="8" y="-862.5" font-family="Helvetica,sans-Serif" font-size="10.00">ID, glm::mat4 transform)</text>
<text text-anchor="start" x="8" y="-851.5" font-family="Helvetica,sans-Serif" font-size="10.00">+ void setScale(glm::</text>
<text text-anchor="start" x="8" y="-840.5" font-family="Helvetica,sans-Serif" font-size="10.00">mat4 scale)</text>
<text text-anchor="start" x="8" y="-829.5" font-family="Helvetica,sans-Serif" font-size="10.00">+ void setRotate(glm</text>
<text text-anchor="start" x="8" y="-818.5" font-family="Helvetica,sans-Serif" font-size="10.00">::mat4 rotate)</text>
<text text-anchor="start" x="8" y="-807.5" font-family="Helvetica,sans-Serif" font-size="10.00">+ void setTranslate(glm</text>
<text text-anchor="start" x="8" y="-796.5" font-family="Helvetica,sans-Serif" font-size="10.00">::mat4 translate)</text>
<text text-anchor="start" x="8" y="-785.5" font-family="Helvetica,sans-Serif" font-size="10.00">+ glm::mat4 getScale()</text>
<text text-anchor="start" x="8" y="-774.5" font-family="Helvetica,sans-Serif" font-size="10.00">+ glm::mat4 getRotate()</text>
<text text-anchor="start" x="8" y="-763.5" font-family="Helvetica,sans-Serif" font-size="10.00">+ glm::mat4 getTranslate()</text>
<text text-anchor="start" x="8" y="-752.5" font-family="Helvetica,sans-Serif" font-size="10.00">+ glm::mat4 getTransform()</text>
<text text-anchor="start" x="8" y="-741.5" font-family="Helvetica,sans-Serif" font-size="10.00">+ Object(string fileName,</text>
<text text-anchor="start" x="8" y="-730.5" font-family="Helvetica,sans-Serif" font-size="10.00"> float r, float g, float b)</text>
<text text-anchor="start" x="8" y="-719.5" font-family="Helvetica,sans-Serif" font-size="10.00">+ vector&lt; Vertex &gt; getVertices()</text>
<text text-anchor="start" x="8" y="-708.5" font-family="Helvetica,sans-Serif" font-size="10.00">+ vector&lt; Face &gt; getFaces()</text>
<text text-anchor="start" x="8" y="-697.5" font-family="Helvetica,sans-Serif" font-size="10.00">+ virtual void load()=0</text>
<text text-anchor="start" x="8" y="-686.5" font-family="Helvetica,sans-Serif" font-size="10.00">+ void draw(GLuint program</text>
<text text-anchor="start" x="8" y="-675.5" font-family="Helvetica,sans-Serif" font-size="10.00">ID, glm::mat4 transform)</text>
<text text-anchor="start" x="8" y="-664.5" font-family="Helvetica,sans-Serif" font-size="10.00">+ void setScale(glm::</text>
<text text-anchor="start" x="8" y="-653.5" font-family="Helvetica,sans-Serif" font-size="10.00">mat4 scale)</text>
<text text-anchor="start" x="8" y="-642.5" font-family="Helvetica,sans-Serif" font-size="10.00">+ void setRotate(glm</text>
<text text-anchor="start" x="8" y="-631.5" font-family="Helvetica,sans-Serif" font-size="10.00">::mat4 rotate)</text>
<text text-anchor="start" x="8" y="-620.5" font-family="Helvetica,sans-Serif" font-size="10.00">+ void setTranslate(glm</text>
<text text-anchor="start" x="8" y="-609.5" font-family="Helvetica,sans-Serif" font-size="10.00">::mat4 translate)</text>
<text text-anchor="start" x="8" y="-598.5" font-family="Helvetica,sans-Serif" font-size="10.00">+ glm::mat4 getScale()</text>
<text text-anchor="start" x="8" y="-587.5" font-family="Helvetica,sans-Serif" font-size="10.00">+ glm::mat4 getRotate()</text>
<text text-anchor="start" x="8" y="-576.5" font-family="Helvetica,sans-Serif" font-size="10.00">+ glm::mat4 getTranslate()</text>
<text text-anchor="start" x="8" y="-565.5" font-family="Helvetica,sans-Serif" font-size="10.00">+ glm::mat4 getTransform()</text>
<text text-anchor="start" x="8" y="-554.5" font-family="Helvetica,sans-Serif" font-size="10.00"># vector&lt; string &gt; split</text>
<text text-anchor="start" x="8" y="-543.5" font-family="Helvetica,sans-Serif" font-size="10.00">(const string &amp;str, const</text>
<text text-anchor="start" x="8" y="-532.5" font-family="Helvetica,sans-Serif" font-size="10.00"> string &amp;delim)</text>
<text text-anchor="start" x="8" y="-521.5" font-family="Helvetica,sans-Serif" font-size="10.00"># void set_data()</text>
<text text-anchor="start" x="8" y="-510.5" font-family="Helvetica,sans-Serif" font-size="10.00"># vector&lt; string &gt; split</text>
<text text-anchor="start" x="8" y="-499.5" font-family="Helvetica,sans-Serif" font-size="10.00">(const string &amp;str, const</text>
<text text-anchor="start" x="8" y="-488.5" font-family="Helvetica,sans-Serif" font-size="10.00"> string &amp;delim)</text>
<text text-anchor="start" x="8" y="-477.5" font-family="Helvetica,sans-Serif" font-size="10.00"># void set_data()</text>
</a>
</g>
</g>
<!-- Node4&#45;&gt;Node3 -->
<g id="edge3" class="edge">
<title>Node4&#45;&gt;Node3</title>
<path fill="none" stroke="midnightblue" d="M83.49,-460.32C83.71,-450.41 83.97,-441.11 84.25,-432.58"/>
<polygon fill="none" stroke="midnightblue" points="79.99,-460.34 83.27,-470.42 86.99,-460.49 79.99,-460.34"/>
</g>
<!-- Node4&#45;&gt;Node3 -->
<g id="edge4" class="edge">
<title>Node4&#45;&gt;Node3</title>
<path fill="none" stroke="midnightblue" d="M94.51,-460.32C94.29,-450.41 94.03,-441.11 93.75,-432.58"/>
<polygon fill="none" stroke="midnightblue" points="91.01,-460.49 94.73,-470.42 98.01,-460.34 91.01,-460.49"/>
</g>
<!-- Node5 -->
<g id="node5" class="node">
<title>Node5</title>
<g id="a_node5"><a xlink:href="classModel.html" target="_top" xlink:title="This class is used to create models using Obj and Ply.">
<polygon fill="white" stroke="black" points="170,-320.5 170,-432.5 310,-432.5 310,-320.5 170,-320.5"/>
<text text-anchor="middle" x="240" y="-420.5" font-family="Helvetica,sans-Serif" font-size="10.00">Model&lt; T &gt;</text>
<polyline fill="none" stroke="black" points="170,-413.5 310,-413.5 "/>
<text text-anchor="middle" x="240" y="-401.5" font-family="Helvetica,sans-Serif" font-size="10.00"> </text>
<polyline fill="none" stroke="black" points="170,-394.5 310,-394.5 "/>
<text text-anchor="start" x="178" y="-382.5" font-family="Helvetica,sans-Serif" font-size="10.00">+ Model(string fileName,</text>
<text text-anchor="start" x="178" y="-371.5" font-family="Helvetica,sans-Serif" font-size="10.00"> float r, float g, float b)</text>
<text text-anchor="start" x="178" y="-360.5" font-family="Helvetica,sans-Serif" font-size="10.00">+ Model()</text>
<text text-anchor="start" x="178" y="-349.5" font-family="Helvetica,sans-Serif" font-size="10.00">+ Model(string fileName,</text>
<text text-anchor="start" x="178" y="-338.5" font-family="Helvetica,sans-Serif" font-size="10.00"> float r, float g, float b)</text>
<text text-anchor="start" x="178" y="-327.5" font-family="Helvetica,sans-Serif" font-size="10.00">+ Model()</text>
</a>
</g>
</g>
<!-- Node5&#45;&gt;Node2 -->
<g id="edge6" class="edge">
<title>Node5&#45;&gt;Node2</title>
<path fill="none" stroke="orange" d="M180.21,-312.94C167.51,-299.65 154.2,-285.72 141.78,-272.73"/>
<polygon fill="orange" stroke="orange" points="177.75,-315.43 187.19,-320.24 182.81,-310.59 177.75,-315.43"/>
<text text-anchor="middle" x="191.5" y="-294" font-family="Helvetica,sans-Serif" font-size="10.00"> &lt; Obj &gt;</text>
</g>
<!-- Node6 -->
<g id="node6" class="node">
<title>Node6</title>
<g id="a_node6"><a xlink:title=" ">
<polygon fill="white" stroke="#bfbfbf" points="225.5,-767.5 225.5,-824.5 254.5,-824.5 254.5,-767.5 225.5,-767.5"/>
<text text-anchor="middle" x="240" y="-812.5" font-family="Helvetica,sans-Serif" font-size="10.00">T</text>
<polyline fill="none" stroke="#bfbfbf" points="225.5,-805.5 254.5,-805.5 "/>
<text text-anchor="middle" x="240" y="-793.5" font-family="Helvetica,sans-Serif" font-size="10.00"> </text>
<polyline fill="none" stroke="#bfbfbf" points="225.5,-786.5 254.5,-786.5 "/>
<text text-anchor="middle" x="240" y="-774.5" font-family="Helvetica,sans-Serif" font-size="10.00"> </text>
</a>
</g>
</g>
<!-- Node6&#45;&gt;Node5 -->
<g id="edge7" class="edge">
<title>Node6&#45;&gt;Node5</title>
<path fill="none" stroke="midnightblue" d="M235.91,-757.02C232.6,-682.93 232.38,-518.82 235.25,-432.7"/>
<polygon fill="none" stroke="midnightblue" points="232.43,-757.47 236.42,-767.28 239.42,-757.12 232.43,-757.47"/>
</g>
<!-- Node6&#45;&gt;Node5 -->
<g id="edge8" class="edge">
<title>Node6&#45;&gt;Node5</title>
<path fill="none" stroke="midnightblue" d="M244.09,-757.02C247.4,-682.93 247.62,-518.82 244.75,-432.7"/>
<polygon fill="none" stroke="midnightblue" points="240.58,-757.12 243.58,-767.28 247.57,-757.47 240.58,-757.12"/>
</g>
</g>
</svg>
