<?xml version="1.0" encoding="UTF-8" standalone="no"?>
<!DOCTYPE svg PUBLIC "-//W3C//DTD SVG 1.1//EN"
 "http://www.w3.org/Graphics/SVG/1.1/DTD/svg11.dtd">
<!-- Generated by graphviz version 2.43.0 (0)
 -->
<!-- Title: include/Edge.h Pages: 1 -->
<svg width="150pt" height="140pt"
 viewBox="0.00 0.00 149.50 140.00" xmlns="http://www.w3.org/2000/svg" xmlns:xlink="http://www.w3.org/1999/xlink">
<g id="graph0" class="graph" transform="scale(1 1) rotate(0) translate(4 136)">
<title>include/Edge.h</title>
<polygon fill="white" stroke="transparent" points="-4,4 -4,-136 145.5,-136 145.5,4 -4,4"/>
<!-- Node1 -->
<g id="node1" class="node">
<title>Node1</title>
<g id="a_node1"><a xlink:title=" ">
<polygon fill="#bfbfbf" stroke="black" points="26,-112.5 26,-131.5 114,-131.5 114,-112.5 26,-112.5"/>
<text text-anchor="middle" x="70" y="-119.5" font-family="Helvetica,sans-Serif" font-size="10.00">include/Edge.h</text>
</a>
</g>
</g>
<!-- Node2 -->
<g id="node2" class="node">
<title>Node2</title>
<g id="a_node2"><a xlink:href="Vertex_8h.html" target="_top" xlink:title=" ">
<polygon fill="white" stroke="black" points="41.5,-56.5 41.5,-75.5 98.5,-75.5 98.5,-56.5 41.5,-56.5"/>
<text text-anchor="middle" x="70" y="-63.5" font-family="Helvetica,sans-Serif" font-size="10.00">Vertex.h</text>
</a>
</g>
</g>
<!-- Node1&#45;&gt;Node2 -->
<g id="edge1" class="edge">
<title>Node1&#45;&gt;Node2</title>
<path fill="none" stroke="midnightblue" d="M70,-112.08C70,-105.01 70,-94.86 70,-85.99"/>
<polygon fill="midnightblue" stroke="midnightblue" points="73.5,-85.75 70,-75.75 66.5,-85.75 73.5,-85.75"/>
</g>
<!-- Node3 -->
<g id="node3" class="node">
<title>Node3</title>
<g id="a_node3"><a xlink:title=" ">
<polygon fill="white" stroke="#bfbfbf" points="0,-0.5 0,-19.5 60,-19.5 60,-0.5 0,-0.5"/>
<text text-anchor="middle" x="30" y="-7.5" font-family="Helvetica,sans-Serif" font-size="10.00">iostream</text>
</a>
</g>
</g>
<!-- Node2&#45;&gt;Node3 -->
<g id="edge2" class="edge">
<title>Node2&#45;&gt;Node3</title>
<path fill="none" stroke="midnightblue" d="M63.39,-56.08C57.74,-48.46 49.46,-37.26 42.55,-27.94"/>
<polygon fill="midnightblue" stroke="midnightblue" points="45.25,-25.7 36.48,-19.75 39.62,-29.87 45.25,-25.7"/>
</g>
<!-- Node4 -->
<g id="node4" class="node">
<title>Node4</title>
<g id="a_node4"><a xlink:title=" ">
<polygon fill="white" stroke="#bfbfbf" points="78.5,-0.5 78.5,-19.5 141.5,-19.5 141.5,-0.5 78.5,-0.5"/>
<text text-anchor="middle" x="110" y="-7.5" font-family="Helvetica,sans-Serif" font-size="10.00">armadillo</text>
</a>
</g>
</g>
<!-- Node2&#45;&gt;Node4 -->
<g id="edge3" class="edge">
<title>Node2&#45;&gt;Node4</title>
<path fill="none" stroke="midnightblue" d="M76.61,-56.08C82.26,-48.46 90.54,-37.26 97.45,-27.94"/>
<polygon fill="midnightblue" stroke="midnightblue" points="100.38,-29.87 103.52,-19.75 94.75,-25.7 100.38,-29.87"/>
</g>
</g>
</svg>
