<?xml version="1.0" encoding="UTF-8" standalone="no"?>
<!DOCTYPE svg PUBLIC "-//W3C//DTD SVG 1.1//EN"
 "http://www.w3.org/Graphics/SVG/1.1/DTD/svg11.dtd">
<!-- Generated by graphviz version 2.43.0 (0)
 -->
<!-- Title: include/Edge.h Pages: 1 -->
<svg width="642pt" height="420pt"
 viewBox="0.00 0.00 641.50 420.00" xmlns="http://www.w3.org/2000/svg" xmlns:xlink="http://www.w3.org/1999/xlink">
<g id="graph0" class="graph" transform="scale(1 1) rotate(0) translate(4 416)">
<title>include/Edge.h</title>
<polygon fill="white" stroke="transparent" points="-4,4 -4,-416 637.5,-416 637.5,4 -4,4"/>
<!-- Node1 -->
<g id="node1" class="node">
<title>Node1</title>
<g id="a_node1"><a xlink:title=" ">
<polygon fill="#bfbfbf" stroke="black" points="371.5,-392.5 371.5,-411.5 459.5,-411.5 459.5,-392.5 371.5,-392.5"/>
<text text-anchor="middle" x="415.5" y="-399.5" font-family="Helvetica,sans-Serif" font-size="10.00">include/Edge.h</text>
</a>
</g>
</g>
<!-- Node2 -->
<g id="node2" class="node">
<title>Node2</title>
<g id="a_node2"><a xlink:href="Face_8h.html" target="_top" xlink:title=" ">
<polygon fill="white" stroke="black" points="372.5,-336.5 372.5,-355.5 458.5,-355.5 458.5,-336.5 372.5,-336.5"/>
<text text-anchor="middle" x="415.5" y="-343.5" font-family="Helvetica,sans-Serif" font-size="10.00">include/Face.h</text>
</a>
</g>
</g>
<!-- Node1&#45;&gt;Node2 -->
<g id="edge1" class="edge">
<title>Node1&#45;&gt;Node2</title>
<path fill="none" stroke="midnightblue" d="M415.5,-381.8C415.5,-372.91 415.5,-362.78 415.5,-355.75"/>
<polygon fill="midnightblue" stroke="midnightblue" points="412,-382.08 415.5,-392.08 419,-382.08 412,-382.08"/>
</g>
<!-- Node3 -->
<g id="node3" class="node">
<title>Node3</title>
<g id="a_node3"><a xlink:href="Object_8h.html" target="_top" xlink:title=" ">
<polygon fill="white" stroke="black" points="297,-280.5 297,-299.5 392,-299.5 392,-280.5 297,-280.5"/>
<text text-anchor="middle" x="344.5" y="-287.5" font-family="Helvetica,sans-Serif" font-size="10.00">include/Object.h</text>
</a>
</g>
</g>
<!-- Node1&#45;&gt;Node3 -->
<g id="edge28" class="edge">
<title>Node1&#45;&gt;Node3</title>
<path fill="none" stroke="midnightblue" d="M393.29,-386.35C382.9,-378.47 371.16,-367.93 363.5,-356 351.94,-338 347.21,-312.74 345.45,-299.64"/>
<polygon fill="midnightblue" stroke="midnightblue" points="391.42,-389.32 401.58,-392.31 395.51,-383.63 391.42,-389.32"/>
</g>
<!-- Node22 -->
<g id="node22" class="node">
<title>Node22</title>
<g id="a_node22"><a xlink:href="Edge_8cpp.html" target="_top" xlink:title=" ">
<polygon fill="white" stroke="black" points="476.5,-336.5 476.5,-355.5 554.5,-355.5 554.5,-336.5 476.5,-336.5"/>
<text text-anchor="middle" x="515.5" y="-343.5" font-family="Helvetica,sans-Serif" font-size="10.00">src/Edge.cpp</text>
</a>
</g>
</g>
<!-- Node1&#45;&gt;Node22 -->
<g id="edge29" class="edge">
<title>Node1&#45;&gt;Node22</title>
<path fill="none" stroke="midnightblue" d="M440.59,-387.45C459.05,-377.48 483.6,-364.23 499.47,-355.65"/>
<polygon fill="midnightblue" stroke="midnightblue" points="438.7,-384.49 431.57,-392.32 442.03,-390.65 438.7,-384.49"/>
</g>
<!-- Node2&#45;&gt;Node3 -->
<g id="edge2" class="edge">
<title>Node2&#45;&gt;Node3</title>
<path fill="none" stroke="midnightblue" d="M395.91,-330.1C383.13,-320.38 366.89,-308.03 356.11,-299.83"/>
<polygon fill="midnightblue" stroke="midnightblue" points="394.01,-333.06 404.09,-336.32 398.25,-327.48 394.01,-333.06"/>
</g>
<!-- Node21 -->
<g id="node21" class="node">
<title>Node21</title>
<g id="a_node21"><a xlink:href="Face_8cpp.html" target="_top" xlink:title=" ">
<polygon fill="white" stroke="black" points="410.5,-280.5 410.5,-299.5 486.5,-299.5 486.5,-280.5 410.5,-280.5"/>
<text text-anchor="middle" x="448.5" y="-287.5" font-family="Helvetica,sans-Serif" font-size="10.00">src/Face.cpp</text>
</a>
</g>
</g>
<!-- Node2&#45;&gt;Node21 -->
<g id="edge27" class="edge">
<title>Node2&#45;&gt;Node21</title>
<path fill="none" stroke="midnightblue" d="M426.33,-327.27C431.97,-318.05 438.62,-307.17 443.15,-299.75"/>
<polygon fill="midnightblue" stroke="midnightblue" points="423.18,-325.73 420.95,-336.08 429.15,-329.38 423.18,-325.73"/>
</g>
<!-- Node4 -->
<g id="node4" class="node">
<title>Node4</title>
<g id="a_node4"><a xlink:href="Obj_8h.html" target="_top" xlink:title=" ">
<polygon fill="white" stroke="black" points="182.5,-224.5 182.5,-243.5 262.5,-243.5 262.5,-224.5 182.5,-224.5"/>
<text text-anchor="middle" x="222.5" y="-231.5" font-family="Helvetica,sans-Serif" font-size="10.00">include/Obj.h</text>
</a>
</g>
</g>
<!-- Node3&#45;&gt;Node4 -->
<g id="edge3" class="edge">
<title>Node3&#45;&gt;Node4</title>
<path fill="none" stroke="midnightblue" d="M315.96,-276.37C293.11,-266.26 261.69,-252.35 241.74,-243.52"/>
<polygon fill="midnightblue" stroke="midnightblue" points="314.61,-279.6 325.17,-280.44 317.44,-273.2 314.61,-279.6"/>
</g>
<!-- Node18 -->
<g id="node18" class="node">
<title>Node18</title>
<g id="a_node18"><a xlink:href="Ply_8h.html" target="_top" xlink:title=" ">
<polygon fill="white" stroke="black" points="306,-224.5 306,-243.5 383,-243.5 383,-224.5 306,-224.5"/>
<text text-anchor="middle" x="344.5" y="-231.5" font-family="Helvetica,sans-Serif" font-size="10.00">include/Ply.h</text>
</a>
</g>
</g>
<!-- Node3&#45;&gt;Node18 -->
<g id="edge22" class="edge">
<title>Node3&#45;&gt;Node18</title>
<path fill="none" stroke="midnightblue" d="M344.5,-269.8C344.5,-260.91 344.5,-250.78 344.5,-243.75"/>
<polygon fill="midnightblue" stroke="midnightblue" points="341,-270.08 344.5,-280.08 348,-270.08 341,-270.08"/>
</g>
<!-- Node20 -->
<g id="node20" class="node">
<title>Node20</title>
<g id="a_node20"><a xlink:href="Object_8cpp.html" target="_top" xlink:title=" ">
<polygon fill="white" stroke="black" points="401.5,-224.5 401.5,-243.5 487.5,-243.5 487.5,-224.5 401.5,-224.5"/>
<text text-anchor="middle" x="444.5" y="-231.5" font-family="Helvetica,sans-Serif" font-size="10.00">src/Object.cpp</text>
</a>
</g>
</g>
<!-- Node3&#45;&gt;Node20 -->
<g id="edge26" class="edge">
<title>Node3&#45;&gt;Node20</title>
<path fill="none" stroke="midnightblue" d="M369.59,-275.45C388.05,-265.48 412.6,-252.23 428.47,-243.65"/>
<polygon fill="midnightblue" stroke="midnightblue" points="367.7,-272.49 360.57,-280.32 371.03,-278.65 367.7,-272.49"/>
</g>
<!-- Node5 -->
<g id="node5" class="node">
<title>Node5</title>
<g id="a_node5"><a xlink:href="Model_8h.html" target="_top" xlink:title=" ">
<polygon fill="white" stroke="black" points="236.5,-168.5 236.5,-187.5 330.5,-187.5 330.5,-168.5 236.5,-168.5"/>
<text text-anchor="middle" x="283.5" y="-175.5" font-family="Helvetica,sans-Serif" font-size="10.00">include/Model.h</text>
</a>
</g>
</g>
<!-- Node4&#45;&gt;Node5 -->
<g id="edge4" class="edge">
<title>Node4&#45;&gt;Node5</title>
<path fill="none" stroke="midnightblue" d="M239.97,-217.54C250.84,-207.91 264.44,-195.87 273.52,-187.83"/>
<polygon fill="midnightblue" stroke="midnightblue" points="237.47,-215.07 232.3,-224.32 242.11,-220.32 237.47,-215.07"/>
</g>
<!-- Node7 -->
<g id="node7" class="node">
<title>Node7</title>
<g id="a_node7"><a xlink:href="Simulation_8h.html" target="_top" xlink:title=" ">
<polygon fill="white" stroke="black" points="223.5,-56.5 223.5,-75.5 339.5,-75.5 339.5,-56.5 223.5,-56.5"/>
<text text-anchor="middle" x="281.5" y="-63.5" font-family="Helvetica,sans-Serif" font-size="10.00">include/Simulation.h</text>
</a>
</g>
</g>
<!-- Node4&#45;&gt;Node7 -->
<g id="edge20" class="edge">
<title>Node4&#45;&gt;Node7</title>
<path fill="none" stroke="midnightblue" d="M202.89,-217.9C174.77,-194.4 129.04,-148.03 154.5,-112 164.96,-97.19 209.31,-83.82 242.68,-75.57"/>
<polygon fill="midnightblue" stroke="midnightblue" points="200.97,-220.86 210.95,-224.43 205.38,-215.42 200.97,-220.86"/>
</g>
<!-- Node17 -->
<g id="node17" class="node">
<title>Node17</title>
<g id="a_node17"><a xlink:href="Obj_8cpp.html" target="_top" xlink:title=" ">
<polygon fill="white" stroke="black" points="36,-168.5 36,-187.5 107,-187.5 107,-168.5 36,-168.5"/>
<text text-anchor="middle" x="71.5" y="-175.5" font-family="Helvetica,sans-Serif" font-size="10.00">src/Obj.cpp</text>
</a>
</g>
</g>
<!-- Node4&#45;&gt;Node17 -->
<g id="edge21" class="edge">
<title>Node4&#45;&gt;Node17</title>
<path fill="none" stroke="midnightblue" d="M189.05,-221.04C160.64,-210.88 120.56,-196.55 95.31,-187.52"/>
<polygon fill="midnightblue" stroke="midnightblue" points="187.98,-224.37 198.57,-224.44 190.34,-217.78 187.98,-224.37"/>
</g>
<!-- Node6 -->
<g id="node6" class="node">
<title>Node6</title>
<g id="a_node6"><a xlink:href="Ball_8h.html" target="_top" xlink:title=" ">
<polygon fill="white" stroke="black" points="312,-112.5 312,-131.5 395,-131.5 395,-112.5 312,-112.5"/>
<text text-anchor="middle" x="353.5" y="-119.5" font-family="Helvetica,sans-Serif" font-size="10.00">include/Ball.h</text>
</a>
</g>
</g>
<!-- Node5&#45;&gt;Node6 -->
<g id="edge5" class="edge">
<title>Node5&#45;&gt;Node6</title>
<path fill="none" stroke="midnightblue" d="M302.81,-162.1C315.41,-152.38 331.43,-140.03 342.05,-131.83"/>
<polygon fill="midnightblue" stroke="midnightblue" points="300.53,-159.44 294.75,-168.32 304.8,-164.99 300.53,-159.44"/>
</g>
<!-- Node5&#45;&gt;Node7 -->
<g id="edge19" class="edge">
<title>Node5&#45;&gt;Node7</title>
<path fill="none" stroke="midnightblue" d="M283.16,-158.35C282.72,-134.25 281.98,-93.31 281.66,-75.59"/>
<polygon fill="midnightblue" stroke="midnightblue" points="279.66,-158.43 283.34,-168.37 286.66,-158.31 279.66,-158.43"/>
</g>
<!-- Node11 -->
<g id="node11" class="node">
<title>Node11</title>
<g id="a_node11"><a xlink:href="Enemy_8h.html" target="_top" xlink:title=" ">
<polygon fill="white" stroke="black" points="413.5,-112.5 413.5,-131.5 509.5,-131.5 509.5,-112.5 413.5,-112.5"/>
<text text-anchor="middle" x="461.5" y="-119.5" font-family="Helvetica,sans-Serif" font-size="10.00">include/Enemy.h</text>
</a>
</g>
</g>
<!-- Node5&#45;&gt;Node11 -->
<g id="edge10" class="edge">
<title>Node5&#45;&gt;Node11</title>
<path fill="none" stroke="midnightblue" d="M321.62,-165.44C355.18,-155.26 403.27,-140.66 433.43,-131.52"/>
<polygon fill="midnightblue" stroke="midnightblue" points="320.26,-162.19 311.7,-168.44 322.29,-168.89 320.26,-162.19"/>
</g>
<!-- Node13 -->
<g id="node13" class="node">
<title>Node13</title>
<g id="a_node13"><a xlink:href="Message_8h.html" target="_top" xlink:title=" ">
<polygon fill="white" stroke="black" points="0,-112.5 0,-131.5 107,-131.5 107,-112.5 0,-112.5"/>
<text text-anchor="middle" x="53.5" y="-119.5" font-family="Helvetica,sans-Serif" font-size="10.00">include/Message.h</text>
</a>
</g>
</g>
<!-- Node5&#45;&gt;Node13 -->
<g id="edge13" class="edge">
<title>Node5&#45;&gt;Node13</title>
<path fill="none" stroke="midnightblue" d="M237.3,-166.15C193.84,-155.95 129.66,-140.88 89.77,-131.52"/>
<polygon fill="midnightblue" stroke="midnightblue" points="236.52,-169.57 247.06,-168.44 238.12,-162.75 236.52,-169.57"/>
</g>
<!-- Node15 -->
<g id="node15" class="node">
<title>Node15</title>
<g id="a_node15"><a xlink:href="Robot_8h.html" target="_top" xlink:title=" ">
<polygon fill="white" stroke="black" points="163.5,-112.5 163.5,-131.5 255.5,-131.5 255.5,-112.5 163.5,-112.5"/>
<text text-anchor="middle" x="209.5" y="-119.5" font-family="Helvetica,sans-Serif" font-size="10.00">include/Robot.h</text>
</a>
</g>
</g>
<!-- Node5&#45;&gt;Node15 -->
<g id="edge16" class="edge">
<title>Node5&#45;&gt;Node15</title>
<path fill="none" stroke="midnightblue" d="M263.47,-162.38C250.09,-152.62 232.94,-140.11 221.61,-131.83"/>
<polygon fill="midnightblue" stroke="midnightblue" points="261.47,-165.26 271.61,-168.32 265.6,-159.6 261.47,-165.26"/>
</g>
<!-- Node6&#45;&gt;Node7 -->
<g id="edge6" class="edge">
<title>Node6&#45;&gt;Node7</title>
<path fill="none" stroke="midnightblue" d="M333.63,-106.1C320.68,-96.38 304.2,-84.03 293.28,-75.83"/>
<polygon fill="midnightblue" stroke="midnightblue" points="331.83,-109.12 341.93,-112.32 336.03,-103.52 331.83,-109.12"/>
</g>
<!-- Node10 -->
<g id="node10" class="node">
<title>Node10</title>
<g id="a_node10"><a xlink:href="Ball_8cpp.html" target="_top" xlink:title=" ">
<polygon fill="white" stroke="black" points="358,-56.5 358,-75.5 431,-75.5 431,-56.5 358,-56.5"/>
<text text-anchor="middle" x="394.5" y="-63.5" font-family="Helvetica,sans-Serif" font-size="10.00">src/Ball.cpp</text>
</a>
</g>
</g>
<!-- Node6&#45;&gt;Node10 -->
<g id="edge9" class="edge">
<title>Node6&#45;&gt;Node10</title>
<path fill="none" stroke="midnightblue" d="M366.52,-103.86C373.62,-94.5 382.1,-83.33 387.86,-75.75"/>
<polygon fill="midnightblue" stroke="midnightblue" points="363.53,-102 360.27,-112.08 369.11,-106.24 363.53,-102"/>
</g>
<!-- Node8 -->
<g id="node8" class="node">
<title>Node8</title>
<g id="a_node8"><a xlink:href="main_8cpp.html" target="_top" xlink:title=" ">
<polygon fill="white" stroke="black" points="198.5,-0.5 198.5,-19.5 260.5,-19.5 260.5,-0.5 198.5,-0.5"/>
<text text-anchor="middle" x="229.5" y="-7.5" font-family="Helvetica,sans-Serif" font-size="10.00">main.cpp</text>
</a>
</g>
</g>
<!-- Node7&#45;&gt;Node8 -->
<g id="edge7" class="edge">
<title>Node7&#45;&gt;Node8</title>
<path fill="none" stroke="midnightblue" d="M265.82,-48.72C256.66,-39.2 245.45,-27.56 237.93,-19.75"/>
<polygon fill="midnightblue" stroke="midnightblue" points="263.46,-51.31 272.91,-56.08 268.5,-46.45 263.46,-51.31"/>
</g>
<!-- Node9 -->
<g id="node9" class="node">
<title>Node9</title>
<g id="a_node9"><a xlink:href="Simulation_8cpp.html" target="_top" xlink:title=" ">
<polygon fill="white" stroke="black" points="279,-0.5 279,-19.5 386,-19.5 386,-0.5 279,-0.5"/>
<text text-anchor="middle" x="332.5" y="-7.5" font-family="Helvetica,sans-Serif" font-size="10.00">src/Simulation.cpp</text>
</a>
</g>
</g>
<!-- Node7&#45;&gt;Node9 -->
<g id="edge8" class="edge">
<title>Node7&#45;&gt;Node9</title>
<path fill="none" stroke="midnightblue" d="M296.88,-48.72C305.87,-39.2 316.86,-27.56 324.24,-19.75"/>
<polygon fill="midnightblue" stroke="midnightblue" points="294.24,-46.41 289.92,-56.08 299.33,-51.22 294.24,-46.41"/>
</g>
<!-- Node11&#45;&gt;Node7 -->
<g id="edge11" class="edge">
<title>Node11&#45;&gt;Node7</title>
<path fill="none" stroke="midnightblue" d="M423.39,-109.57C389.44,-99.38 340.51,-84.7 309.89,-75.52"/>
<polygon fill="midnightblue" stroke="midnightblue" points="422.39,-112.92 432.98,-112.44 424.41,-106.22 422.39,-112.92"/>
</g>
<!-- Node12 -->
<g id="node12" class="node">
<title>Node12</title>
<g id="a_node12"><a xlink:href="Enemy_8cpp.html" target="_top" xlink:title=" ">
<polygon fill="white" stroke="black" points="449.5,-56.5 449.5,-75.5 535.5,-75.5 535.5,-56.5 449.5,-56.5"/>
<text text-anchor="middle" x="492.5" y="-63.5" font-family="Helvetica,sans-Serif" font-size="10.00">src/Enemy.cpp</text>
</a>
</g>
</g>
<!-- Node11&#45;&gt;Node12 -->
<g id="edge12" class="edge">
<title>Node11&#45;&gt;Node12</title>
<path fill="none" stroke="midnightblue" d="M471.68,-103.27C476.97,-94.05 483.22,-83.17 487.48,-75.75"/>
<polygon fill="midnightblue" stroke="midnightblue" points="468.56,-101.67 466.62,-112.08 474.63,-105.15 468.56,-101.67"/>
</g>
<!-- Node13&#45;&gt;Node7 -->
<g id="edge14" class="edge">
<title>Node13&#45;&gt;Node7</title>
<path fill="none" stroke="midnightblue" d="M99.57,-110.09C142.65,-99.89 206.09,-84.86 245.54,-75.52"/>
<polygon fill="midnightblue" stroke="midnightblue" points="98.55,-106.73 89.63,-112.44 100.16,-113.54 98.55,-106.73"/>
</g>
<!-- Node14 -->
<g id="node14" class="node">
<title>Node14</title>
<g id="a_node14"><a xlink:href="Message_8cpp.html" target="_top" xlink:title=" ">
<polygon fill="white" stroke="black" points="4.5,-56.5 4.5,-75.5 102.5,-75.5 102.5,-56.5 4.5,-56.5"/>
<text text-anchor="middle" x="53.5" y="-63.5" font-family="Helvetica,sans-Serif" font-size="10.00">src/Message.cpp</text>
</a>
</g>
</g>
<!-- Node13&#45;&gt;Node14 -->
<g id="edge15" class="edge">
<title>Node13&#45;&gt;Node14</title>
<path fill="none" stroke="midnightblue" d="M53.5,-101.8C53.5,-92.91 53.5,-82.78 53.5,-75.75"/>
<polygon fill="midnightblue" stroke="midnightblue" points="50,-102.08 53.5,-112.08 57,-102.08 50,-102.08"/>
</g>
<!-- Node15&#45;&gt;Node7 -->
<g id="edge17" class="edge">
<title>Node15&#45;&gt;Node7</title>
<path fill="none" stroke="midnightblue" d="M229.37,-106.1C242.32,-96.38 258.8,-84.03 269.72,-75.83"/>
<polygon fill="midnightblue" stroke="midnightblue" points="226.97,-103.52 221.07,-112.32 231.17,-109.12 226.97,-103.52"/>
</g>
<!-- Node16 -->
<g id="node16" class="node">
<title>Node16</title>
<g id="a_node16"><a xlink:href="Robot_8cpp.html" target="_top" xlink:title=" ">
<polygon fill="white" stroke="black" points="122,-56.5 122,-75.5 205,-75.5 205,-56.5 122,-56.5"/>
<text text-anchor="middle" x="163.5" y="-63.5" font-family="Helvetica,sans-Serif" font-size="10.00">src/Robot.cpp</text>
</a>
</g>
</g>
<!-- Node15&#45;&gt;Node16 -->
<g id="edge18" class="edge">
<title>Node15&#45;&gt;Node16</title>
<path fill="none" stroke="midnightblue" d="M195.39,-104.43C187.32,-94.97 177.54,-83.48 170.95,-75.75"/>
<polygon fill="midnightblue" stroke="midnightblue" points="192.75,-106.74 201.9,-112.08 198.08,-102.2 192.75,-106.74"/>
</g>
<!-- Node18&#45;&gt;Node5 -->
<g id="edge23" class="edge">
<title>Node18&#45;&gt;Node5</title>
<path fill="none" stroke="midnightblue" d="M327.03,-217.54C316.16,-207.91 302.56,-195.87 293.48,-187.83"/>
<polygon fill="midnightblue" stroke="midnightblue" points="324.89,-220.32 334.7,-224.32 329.53,-215.07 324.89,-220.32"/>
</g>
<!-- Node18&#45;&gt;Node7 -->
<g id="edge24" class="edge">
<title>Node18&#45;&gt;Node7</title>
<path fill="none" stroke="midnightblue" d="M389.64,-221.66C454.4,-203.29 561.38,-163.79 518.5,-112 512.66,-104.94 404.05,-86.51 335.91,-75.55"/>
<polygon fill="midnightblue" stroke="midnightblue" points="388.35,-218.39 379.64,-224.43 390.22,-225.14 388.35,-218.39"/>
</g>
<!-- Node19 -->
<g id="node19" class="node">
<title>Node19</title>
<g id="a_node19"><a xlink:href="Ply_8cpp.html" target="_top" xlink:title=" ">
<polygon fill="white" stroke="black" points="565.5,-168.5 565.5,-187.5 633.5,-187.5 633.5,-168.5 565.5,-168.5"/>
<text text-anchor="middle" x="599.5" y="-175.5" font-family="Helvetica,sans-Serif" font-size="10.00">src/Ply.cpp</text>
</a>
</g>
</g>
<!-- Node18&#45;&gt;Node19 -->
<g id="edge25" class="edge">
<title>Node18&#45;&gt;Node19</title>
<path fill="none" stroke="midnightblue" d="M393.24,-222.68C443.65,-212 521.06,-195.61 565.32,-186.24"/>
<polygon fill="midnightblue" stroke="midnightblue" points="392.29,-219.3 383.23,-224.8 393.74,-226.15 392.29,-219.3"/>
</g>
</g>
</svg>
