<?xml version="1.0" encoding="UTF-8" standalone="no"?>
<!DOCTYPE svg PUBLIC "-//W3C//DTD SVG 1.1//EN"
 "http://www.w3.org/Graphics/SVG/1.1/DTD/svg11.dtd">
<!-- Generated by graphviz version 2.43.0 (0)
 -->
<!-- Title: include/Enemy.h Pages: 1 -->
<svg width="1137pt" height="420pt"
 viewBox="0.00 0.00 1137.00 420.00" xmlns="http://www.w3.org/2000/svg" xmlns:xlink="http://www.w3.org/1999/xlink">
<g id="graph0" class="graph" transform="scale(1 1) rotate(0) translate(4 416)">
<title>include/Enemy.h</title>
<polygon fill="white" stroke="transparent" points="-4,4 -4,-416 1133,-416 1133,4 -4,4"/>
<!-- Node1 -->
<g id="node1" class="node">
<title>Node1</title>
<g id="a_node1"><a xlink:title=" ">
<polygon fill="#bfbfbf" stroke="black" points="220,-392.5 220,-411.5 316,-411.5 316,-392.5 220,-392.5"/>
<text text-anchor="middle" x="268" y="-399.5" font-family="Helvetica,sans-Serif" font-size="10.00">include/Enemy.h</text>
</a>
</g>
</g>
<!-- Node2 -->
<g id="node2" class="node">
<title>Node2</title>
<g id="a_node2"><a xlink:title=" ">
<polygon fill="white" stroke="#bfbfbf" points="455,-0.5 455,-19.5 515,-19.5 515,-0.5 455,-0.5"/>
<text text-anchor="middle" x="485" y="-7.5" font-family="Helvetica,sans-Serif" font-size="10.00">iostream</text>
</a>
</g>
</g>
<!-- Node1&#45;&gt;Node2 -->
<g id="edge1" class="edge">
<title>Node1&#45;&gt;Node2</title>
<path fill="none" stroke="midnightblue" d="M219.78,-401.83C142.62,-400.35 0,-384.93 0,-291 0,-291 0,-291 0,-121 0,-30.16 327.7,-14.33 444.37,-11.58"/>
<polygon fill="midnightblue" stroke="midnightblue" points="444.74,-15.07 454.66,-11.36 444.59,-8.07 444.74,-15.07"/>
</g>
<!-- Node3 -->
<g id="node3" class="node">
<title>Node3</title>
<g id="a_node3"><a xlink:title=" ">
<polygon fill="white" stroke="#bfbfbf" points="302.5,-112.5 302.5,-131.5 349.5,-131.5 349.5,-112.5 302.5,-112.5"/>
<text text-anchor="middle" x="326" y="-119.5" font-family="Helvetica,sans-Serif" font-size="10.00">vector</text>
</a>
</g>
</g>
<!-- Node1&#45;&gt;Node3 -->
<g id="edge2" class="edge">
<title>Node1&#45;&gt;Node3</title>
<path fill="none" stroke="midnightblue" d="M219.78,-398.79C152.34,-392.81 38,-370.89 38,-291 38,-291 38,-291 38,-233 38,-202.9 34.49,-187.98 57,-168 91.3,-137.55 227.72,-127.42 292.07,-124.29"/>
<polygon fill="midnightblue" stroke="midnightblue" points="292.29,-127.78 302.12,-123.83 291.97,-120.79 292.29,-127.78"/>
</g>
<!-- Node4 -->
<g id="node4" class="node">
<title>Node4</title>
<g id="a_node4"><a xlink:title=" ">
<polygon fill="white" stroke="#bfbfbf" points="1017.5,-112.5 1017.5,-131.5 1100.5,-131.5 1100.5,-112.5 1017.5,-112.5"/>
<text text-anchor="middle" x="1059" y="-119.5" font-family="Helvetica,sans-Serif" font-size="10.00">glm/vec4.hpp</text>
</a>
</g>
</g>
<!-- Node1&#45;&gt;Node4 -->
<g id="edge3" class="edge">
<title>Node1&#45;&gt;Node4</title>
<path fill="none" stroke="midnightblue" d="M316.29,-399.4C488.03,-393.08 1059,-366.39 1059,-291 1059,-291 1059,-291 1059,-233 1059,-200.95 1059,-163.64 1059,-141.75"/>
<polygon fill="midnightblue" stroke="midnightblue" points="1062.5,-141.56 1059,-131.56 1055.5,-141.56 1062.5,-141.56"/>
</g>
<!-- Node5 -->
<g id="node5" class="node">
<title>Node5</title>
<g id="a_node5"><a xlink:title=" ">
<polygon fill="white" stroke="#bfbfbf" points="66.5,-168.5 66.5,-187.5 163.5,-187.5 163.5,-168.5 66.5,-168.5"/>
<text text-anchor="middle" x="115" y="-175.5" font-family="Helvetica,sans-Serif" font-size="10.00">glm/mat4x4.hpp</text>
</a>
</g>
</g>
<!-- Node1&#45;&gt;Node5 -->
<g id="edge4" class="edge">
<title>Node1&#45;&gt;Node5</title>
<path fill="none" stroke="midnightblue" d="M257.76,-392.35C247.92,-383.73 232.96,-369.84 222,-356 179.34,-302.16 140.69,-229.95 123.88,-196.89"/>
<polygon fill="midnightblue" stroke="midnightblue" points="126.83,-194.96 119.21,-187.6 120.57,-198.11 126.83,-194.96"/>
</g>
<!-- Node6 -->
<g id="node6" class="node">
<title>Node6</title>
<g id="a_node6"><a xlink:title=" ">
<polygon fill="white" stroke="#bfbfbf" points="241,-336.5 241,-355.5 405,-355.5 405,-336.5 241,-336.5"/>
<text text-anchor="middle" x="323" y="-343.5" font-family="Helvetica,sans-Serif" font-size="10.00">glm/ext/matrix_transform.hpp</text>
</a>
</g>
</g>
<!-- Node1&#45;&gt;Node6 -->
<g id="edge5" class="edge">
<title>Node1&#45;&gt;Node6</title>
<path fill="none" stroke="midnightblue" d="M277.08,-392.08C285.17,-384.14 297.2,-372.34 306.91,-362.8"/>
<polygon fill="midnightblue" stroke="midnightblue" points="309.4,-365.25 314.09,-355.75 304.5,-360.26 309.4,-365.25"/>
</g>
<!-- Node7 -->
<g id="node7" class="node">
<title>Node7</title>
<g id="a_node7"><a xlink:title=" ">
<polygon fill="white" stroke="#bfbfbf" points="927,-0.5 927,-19.5 1005,-19.5 1005,-0.5 927,-0.5"/>
<text text-anchor="middle" x="966" y="-7.5" font-family="Helvetica,sans-Serif" font-size="10.00">glm/glm.hpp</text>
</a>
</g>
</g>
<!-- Node1&#45;&gt;Node7 -->
<g id="edge6" class="edge">
<title>Node1&#45;&gt;Node7</title>
<path fill="none" stroke="midnightblue" d="M316.14,-399.96C497.46,-395.4 1129,-373.6 1129,-291 1129,-291 1129,-291 1129,-121 1129,-65.27 1062.71,-35.88 1014.68,-21.91"/>
<polygon fill="midnightblue" stroke="midnightblue" points="1015.61,-18.53 1005.04,-19.23 1013.74,-25.28 1015.61,-18.53"/>
</g>
<!-- Node8 -->
<g id="node8" class="node">
<title>Node8</title>
<g id="a_node8"><a xlink:title=" ">
<polygon fill="white" stroke="#bfbfbf" points="182,-168.5 182,-187.5 246,-187.5 246,-168.5 182,-168.5"/>
<text text-anchor="middle" x="214" y="-175.5" font-family="Helvetica,sans-Serif" font-size="10.00">GL/glew.h</text>
</a>
</g>
</g>
<!-- Node1&#45;&gt;Node8 -->
<g id="edge7" class="edge">
<title>Node1&#45;&gt;Node8</title>
<path fill="none" stroke="midnightblue" d="M258.52,-392.38C249.98,-384 237.91,-370.45 232,-356 209.84,-301.78 210.63,-230.76 212.53,-197.58"/>
<polygon fill="midnightblue" stroke="midnightblue" points="216.03,-197.73 213.22,-187.52 209.05,-197.26 216.03,-197.73"/>
</g>
<!-- Node9 -->
<g id="node9" class="node">
<title>Node9</title>
<g id="a_node9"><a xlink:href="Model_8h.html" target="_top" xlink:title=" ">
<polygon fill="white" stroke="black" points="423,-336.5 423,-355.5 479,-355.5 479,-336.5 423,-336.5"/>
<text text-anchor="middle" x="451" y="-343.5" font-family="Helvetica,sans-Serif" font-size="10.00">Model.h</text>
</a>
</g>
</g>
<!-- Node1&#45;&gt;Node9 -->
<g id="edge8" class="edge">
<title>Node1&#45;&gt;Node9</title>
<path fill="none" stroke="midnightblue" d="M297,-392.44C328.37,-383.19 378.52,-368.39 413.01,-358.21"/>
<polygon fill="midnightblue" stroke="midnightblue" points="414.14,-361.53 422.74,-355.34 412.16,-354.81 414.14,-361.53"/>
</g>
<!-- Node10 -->
<g id="node10" class="node">
<title>Node10</title>
<g id="a_node10"><a xlink:href="Obj_8h.html" target="_top" xlink:title=" ">
<polygon fill="white" stroke="black" points="429,-280.5 429,-299.5 471,-299.5 471,-280.5 429,-280.5"/>
<text text-anchor="middle" x="450" y="-287.5" font-family="Helvetica,sans-Serif" font-size="10.00">Obj.h</text>
</a>
</g>
</g>
<!-- Node9&#45;&gt;Node10 -->
<g id="edge9" class="edge">
<title>Node9&#45;&gt;Node10</title>
<path fill="none" stroke="midnightblue" d="M450.83,-336.08C450.7,-329.01 450.52,-318.86 450.35,-309.99"/>
<polygon fill="midnightblue" stroke="midnightblue" points="453.85,-309.68 450.16,-299.75 446.85,-309.81 453.85,-309.68"/>
</g>
<!-- Node23 -->
<g id="node23" class="node">
<title>Node23</title>
<g id="a_node23"><a xlink:href="Ply_8h.html" target="_top" xlink:title=" ">
<polygon fill="white" stroke="black" points="489.5,-280.5 489.5,-299.5 528.5,-299.5 528.5,-280.5 489.5,-280.5"/>
<text text-anchor="middle" x="509" y="-287.5" font-family="Helvetica,sans-Serif" font-size="10.00">Ply.h</text>
</a>
</g>
</g>
<!-- Node9&#45;&gt;Node23 -->
<g id="edge34" class="edge">
<title>Node9&#45;&gt;Node23</title>
<path fill="none" stroke="midnightblue" d="M460.32,-336.32C468.89,-328.34 481.81,-316.31 492.19,-306.65"/>
<polygon fill="midnightblue" stroke="midnightblue" points="494.58,-309.21 499.51,-299.83 489.81,-304.09 494.58,-309.21"/>
</g>
<!-- Node11 -->
<g id="node11" class="node">
<title>Node11</title>
<g id="a_node11"><a xlink:href="Object_8h.html" target="_top" xlink:title=" ">
<polygon fill="white" stroke="black" points="479.5,-224.5 479.5,-243.5 536.5,-243.5 536.5,-224.5 479.5,-224.5"/>
<text text-anchor="middle" x="508" y="-231.5" font-family="Helvetica,sans-Serif" font-size="10.00">Object.h</text>
</a>
</g>
</g>
<!-- Node10&#45;&gt;Node11 -->
<g id="edge10" class="edge">
<title>Node10&#45;&gt;Node11</title>
<path fill="none" stroke="midnightblue" d="M459.32,-280.32C467.89,-272.34 480.81,-260.31 491.19,-250.65"/>
<polygon fill="midnightblue" stroke="midnightblue" points="493.58,-253.21 498.51,-243.83 488.81,-248.09 493.58,-253.21"/>
</g>
<!-- Node11&#45;&gt;Node2 -->
<g id="edge11" class="edge">
<title>Node11&#45;&gt;Node2</title>
<path fill="none" stroke="midnightblue" d="M479.34,-233.6C439.12,-232.94 365.63,-226.09 319,-188 297.75,-170.64 298.92,-158.8 293,-132 277.34,-61.08 383.78,-29.56 444.6,-17.46"/>
<polygon fill="midnightblue" stroke="midnightblue" points="445.5,-20.86 454.67,-15.56 444.19,-13.98 445.5,-20.86"/>
</g>
<!-- Node11&#45;&gt;Node3 -->
<g id="edge13" class="edge">
<title>Node11&#45;&gt;Node3</title>
<path fill="none" stroke="midnightblue" d="M479.43,-229.76C434.36,-224.02 349.93,-210.51 331,-188 320.42,-175.42 320.23,-156.21 322.05,-141.92"/>
<polygon fill="midnightblue" stroke="midnightblue" points="325.56,-142.2 323.78,-131.75 318.66,-141.02 325.56,-142.2"/>
</g>
<!-- Node11&#45;&gt;Node5 -->
<g id="edge32" class="edge">
<title>Node11&#45;&gt;Node5</title>
<path fill="none" stroke="midnightblue" d="M479.29,-229.34C422.93,-222.12 293.58,-205.34 173.8,-188.09"/>
<polygon fill="midnightblue" stroke="midnightblue" points="174.12,-184.6 163.72,-186.63 173.12,-191.53 174.12,-184.6"/>
</g>
<!-- Node11&#45;&gt;Node8 -->
<g id="edge30" class="edge">
<title>Node11&#45;&gt;Node8</title>
<path fill="none" stroke="midnightblue" d="M479.34,-227.93C433.13,-219.73 339.34,-202.96 260,-188 258.74,-187.76 257.46,-187.52 256.17,-187.27"/>
<polygon fill="midnightblue" stroke="midnightblue" points="256.64,-183.8 246.16,-185.35 255.32,-190.67 256.64,-183.8"/>
</g>
<!-- Node12 -->
<g id="node12" class="node">
<title>Node12</title>
<g id="a_node12"><a xlink:title=" ">
<polygon fill="white" stroke="#bfbfbf" points="899.5,-168.5 899.5,-187.5 954.5,-187.5 954.5,-168.5 899.5,-168.5"/>
<text text-anchor="middle" x="927" y="-175.5" font-family="Helvetica,sans-Serif" font-size="10.00">fstream</text>
</a>
</g>
</g>
<!-- Node11&#45;&gt;Node12 -->
<g id="edge12" class="edge">
<title>Node11&#45;&gt;Node12</title>
<path fill="none" stroke="midnightblue" d="M536.53,-230.9C598.91,-226.06 752.2,-212.69 889.33,-188.12"/>
<polygon fill="midnightblue" stroke="midnightblue" points="889.96,-191.56 899.17,-186.33 888.7,-184.68 889.96,-191.56"/>
</g>
<!-- Node13 -->
<g id="node13" class="node">
<title>Node13</title>
<g id="a_node13"><a xlink:href="Vertex_8h.html" target="_top" xlink:title=" ">
<polygon fill="white" stroke="black" points="838.5,-56.5 838.5,-75.5 895.5,-75.5 895.5,-56.5 838.5,-56.5"/>
<text text-anchor="middle" x="867" y="-63.5" font-family="Helvetica,sans-Serif" font-size="10.00">Vertex.h</text>
</a>
</g>
</g>
<!-- Node11&#45;&gt;Node13 -->
<g id="edge14" class="edge">
<title>Node11&#45;&gt;Node13</title>
<path fill="none" stroke="midnightblue" d="M536.78,-232.46C634.63,-230.31 950.1,-220.89 980,-188 1016.12,-148.27 939.37,-102.1 895.23,-80.04"/>
<polygon fill="midnightblue" stroke="midnightblue" points="896.62,-76.82 886.1,-75.58 893.55,-83.11 896.62,-76.82"/>
</g>
<!-- Node16 -->
<g id="node16" class="node">
<title>Node16</title>
<g id="a_node16"><a xlink:href="Edge_8h.html" target="_top" xlink:title=" ">
<polygon fill="white" stroke="black" points="842,-112.5 842,-131.5 892,-131.5 892,-112.5 842,-112.5"/>
<text text-anchor="middle" x="867" y="-119.5" font-family="Helvetica,sans-Serif" font-size="10.00">Edge.h</text>
</a>
</g>
</g>
<!-- Node11&#45;&gt;Node16 -->
<g id="edge19" class="edge">
<title>Node11&#45;&gt;Node16</title>
<path fill="none" stroke="midnightblue" d="M536.8,-232.35C632.47,-229.91 935.25,-219.72 964,-188 986.77,-162.87 938.37,-142.83 902.08,-131.96"/>
<polygon fill="midnightblue" stroke="midnightblue" points="902.82,-128.53 892.24,-129.14 900.89,-135.26 902.82,-128.53"/>
</g>
<!-- Node17 -->
<g id="node17" class="node">
<title>Node17</title>
<g id="a_node17"><a xlink:href="Face_8h.html" target="_top" xlink:title=" ">
<polygon fill="white" stroke="black" points="834.5,-168.5 834.5,-187.5 881.5,-187.5 881.5,-168.5 834.5,-168.5"/>
<text text-anchor="middle" x="858" y="-175.5" font-family="Helvetica,sans-Serif" font-size="10.00">Face.h</text>
</a>
</g>
</g>
<!-- Node11&#45;&gt;Node17 -->
<g id="edge21" class="edge">
<title>Node11&#45;&gt;Node17</title>
<path fill="none" stroke="midnightblue" d="M536.62,-230.15C590.82,-224.5 712.27,-210.6 824.19,-187.92"/>
<polygon fill="midnightblue" stroke="midnightblue" points="825.2,-191.29 834.29,-185.85 823.79,-184.43 825.2,-191.29"/>
</g>
<!-- Node18 -->
<g id="node18" class="node">
<title>Node18</title>
<g id="a_node18"><a xlink:title=" ">
<polygon fill="white" stroke="#bfbfbf" points="340,-168.5 340,-187.5 390,-187.5 390,-168.5 340,-168.5"/>
<text text-anchor="middle" x="365" y="-175.5" font-family="Helvetica,sans-Serif" font-size="10.00">stdio.h</text>
</a>
</g>
</g>
<!-- Node11&#45;&gt;Node18 -->
<g id="edge27" class="edge">
<title>Node11&#45;&gt;Node18</title>
<path fill="none" stroke="midnightblue" d="M485.34,-224.44C461.6,-215.48 424.09,-201.31 397.26,-191.18"/>
<polygon fill="midnightblue" stroke="midnightblue" points="398.14,-187.77 387.55,-187.52 395.67,-194.32 398.14,-187.77"/>
</g>
<!-- Node19 -->
<g id="node19" class="node">
<title>Node19</title>
<g id="a_node19"><a xlink:title=" ">
<polygon fill="white" stroke="#bfbfbf" points="408.5,-168.5 408.5,-187.5 461.5,-187.5 461.5,-168.5 408.5,-168.5"/>
<text text-anchor="middle" x="435" y="-175.5" font-family="Helvetica,sans-Serif" font-size="10.00">stdlib.h</text>
</a>
</g>
</g>
<!-- Node11&#45;&gt;Node19 -->
<g id="edge28" class="edge">
<title>Node11&#45;&gt;Node19</title>
<path fill="none" stroke="midnightblue" d="M496.27,-224.32C485.16,-216.11 468.26,-203.6 455.02,-193.81"/>
<polygon fill="midnightblue" stroke="midnightblue" points="457.06,-190.97 446.94,-187.83 452.9,-196.59 457.06,-190.97"/>
</g>
<!-- Node20 -->
<g id="node20" class="node">
<title>Node20</title>
<g id="a_node20"><a xlink:title=" ">
<polygon fill="white" stroke="#bfbfbf" points="480,-168.5 480,-187.5 536,-187.5 536,-168.5 480,-168.5"/>
<text text-anchor="middle" x="508" y="-175.5" font-family="Helvetica,sans-Serif" font-size="10.00">sstream</text>
</a>
</g>
</g>
<!-- Node11&#45;&gt;Node20 -->
<g id="edge29" class="edge">
<title>Node11&#45;&gt;Node20</title>
<path fill="none" stroke="midnightblue" d="M508,-224.08C508,-217.01 508,-206.86 508,-197.99"/>
<polygon fill="midnightblue" stroke="midnightblue" points="511.5,-197.75 508,-187.75 504.5,-197.75 511.5,-197.75"/>
</g>
<!-- Node21 -->
<g id="node21" class="node">
<title>Node21</title>
<g id="a_node21"><a xlink:title=" ">
<polygon fill="white" stroke="#bfbfbf" points="554.5,-168.5 554.5,-187.5 637.5,-187.5 637.5,-168.5 554.5,-168.5"/>
<text text-anchor="middle" x="596" y="-175.5" font-family="Helvetica,sans-Serif" font-size="10.00">GLFW/glfw3.h</text>
</a>
</g>
</g>
<!-- Node11&#45;&gt;Node21 -->
<g id="edge31" class="edge">
<title>Node11&#45;&gt;Node21</title>
<path fill="none" stroke="midnightblue" d="M522.14,-224.32C535.87,-215.9 556.94,-202.97 573.06,-193.07"/>
<polygon fill="midnightblue" stroke="midnightblue" points="575.2,-195.87 581.9,-187.65 571.54,-189.9 575.2,-195.87"/>
</g>
<!-- Node22 -->
<g id="node22" class="node">
<title>Node22</title>
<g id="a_node22"><a xlink:title=" ">
<polygon fill="white" stroke="#bfbfbf" points="656,-168.5 656,-187.5 816,-187.5 816,-168.5 656,-168.5"/>
<text text-anchor="middle" x="736" y="-175.5" font-family="Helvetica,sans-Serif" font-size="10.00">glm/ext/scalar_constants.hpp</text>
</a>
</g>
</g>
<!-- Node11&#45;&gt;Node22 -->
<g id="edge33" class="edge">
<title>Node11&#45;&gt;Node22</title>
<path fill="none" stroke="midnightblue" d="M536.88,-226.16C575.42,-217.03 644.13,-200.76 689.89,-189.92"/>
<polygon fill="midnightblue" stroke="midnightblue" points="690.93,-193.27 699.85,-187.56 689.32,-186.46 690.93,-193.27"/>
</g>
<!-- Node13&#45;&gt;Node2 -->
<g id="edge15" class="edge">
<title>Node13&#45;&gt;Node2</title>
<path fill="none" stroke="midnightblue" d="M838.29,-60.94C771.01,-51.43 603,-27.68 525.43,-16.71"/>
<polygon fill="midnightblue" stroke="midnightblue" points="525.49,-13.19 515.1,-15.25 524.51,-20.12 525.49,-13.19"/>
</g>
<!-- Node13&#45;&gt;Node7 -->
<g id="edge18" class="edge">
<title>Node13&#45;&gt;Node7</title>
<path fill="none" stroke="midnightblue" d="M882.91,-56.32C898.64,-47.74 922.94,-34.49 941.21,-24.52"/>
<polygon fill="midnightblue" stroke="midnightblue" points="943.03,-27.52 950.13,-19.65 939.68,-21.37 943.03,-27.52"/>
</g>
<!-- Node14 -->
<g id="node14" class="node">
<title>Node14</title>
<g id="a_node14"><a xlink:title=" ">
<polygon fill="white" stroke="#bfbfbf" points="744.5,-0.5 744.5,-19.5 807.5,-19.5 807.5,-0.5 744.5,-0.5"/>
<text text-anchor="middle" x="776" y="-7.5" font-family="Helvetica,sans-Serif" font-size="10.00">armadillo</text>
</a>
</g>
</g>
<!-- Node13&#45;&gt;Node14 -->
<g id="edge16" class="edge">
<title>Node13&#45;&gt;Node14</title>
<path fill="none" stroke="midnightblue" d="M852.38,-56.32C838.05,-47.82 815.99,-34.73 799.25,-24.8"/>
<polygon fill="midnightblue" stroke="midnightblue" points="800.97,-21.75 790.58,-19.65 797.4,-27.77 800.97,-21.75"/>
</g>
<!-- Node15 -->
<g id="node15" class="node">
<title>Node15</title>
<g id="a_node15"><a xlink:title=" ">
<polygon fill="white" stroke="#bfbfbf" points="825.5,-0.5 825.5,-19.5 908.5,-19.5 908.5,-0.5 825.5,-0.5"/>
<text text-anchor="middle" x="867" y="-7.5" font-family="Helvetica,sans-Serif" font-size="10.00">glm/vec3.hpp</text>
</a>
</g>
</g>
<!-- Node13&#45;&gt;Node15 -->
<g id="edge17" class="edge">
<title>Node13&#45;&gt;Node15</title>
<path fill="none" stroke="midnightblue" d="M867,-56.08C867,-49.01 867,-38.86 867,-29.99"/>
<polygon fill="midnightblue" stroke="midnightblue" points="870.5,-29.75 867,-19.75 863.5,-29.75 870.5,-29.75"/>
</g>
<!-- Node16&#45;&gt;Node13 -->
<g id="edge20" class="edge">
<title>Node16&#45;&gt;Node13</title>
<path fill="none" stroke="midnightblue" d="M867,-112.08C867,-105.01 867,-94.86 867,-85.99"/>
<polygon fill="midnightblue" stroke="midnightblue" points="870.5,-85.75 867,-75.75 863.5,-85.75 870.5,-85.75"/>
</g>
<!-- Node17&#45;&gt;Node2 -->
<g id="edge23" class="edge">
<title>Node17&#45;&gt;Node2</title>
<path fill="none" stroke="midnightblue" d="M838.73,-168.42C777.47,-141.16 586.9,-56.35 513.88,-23.85"/>
<polygon fill="midnightblue" stroke="midnightblue" points="514.94,-20.49 504.38,-19.62 512.09,-26.89 514.94,-20.49"/>
</g>
<!-- Node17&#45;&gt;Node3 -->
<g id="edge24" class="edge">
<title>Node17&#45;&gt;Node3</title>
<path fill="none" stroke="midnightblue" d="M834.32,-170.01C831.21,-169.24 828.04,-168.55 825,-168 651.72,-136.81 440.5,-126.81 359.66,-123.99"/>
<polygon fill="midnightblue" stroke="midnightblue" points="359.69,-120.49 349.58,-123.65 359.46,-127.48 359.69,-120.49"/>
</g>
<!-- Node17&#45;&gt;Node4 -->
<g id="edge25" class="edge">
<title>Node17&#45;&gt;Node4</title>
<path fill="none" stroke="midnightblue" d="M881.79,-170.5C884.89,-169.66 888.02,-168.81 891,-168 933.93,-156.4 983.06,-143.25 1017.05,-134.18"/>
<polygon fill="midnightblue" stroke="midnightblue" points="1018.33,-137.46 1027.09,-131.5 1016.53,-130.7 1018.33,-137.46"/>
</g>
<!-- Node17&#45;&gt;Node7 -->
<g id="edge26" class="edge">
<title>Node17&#45;&gt;Node7</title>
<path fill="none" stroke="midnightblue" d="M867.67,-168.34C876.94,-159.72 890.97,-145.82 901,-132 925.65,-98.04 947.12,-53.6 958.14,-29.13"/>
<polygon fill="midnightblue" stroke="midnightblue" points="961.48,-30.24 962.32,-19.68 955.07,-27.41 961.48,-30.24"/>
</g>
<!-- Node17&#45;&gt;Node16 -->
<g id="edge22" class="edge">
<title>Node17&#45;&gt;Node16</title>
<path fill="none" stroke="midnightblue" d="M859.49,-168.08C860.68,-160.93 862.39,-150.64 863.88,-141.69"/>
<polygon fill="midnightblue" stroke="midnightblue" points="867.35,-142.19 865.54,-131.75 860.45,-141.04 867.35,-142.19"/>
</g>
<!-- Node23&#45;&gt;Node11 -->
<g id="edge35" class="edge">
<title>Node23&#45;&gt;Node11</title>
<path fill="none" stroke="midnightblue" d="M508.83,-280.08C508.7,-273.01 508.52,-262.86 508.35,-253.99"/>
<polygon fill="midnightblue" stroke="midnightblue" points="511.85,-253.68 508.16,-243.75 504.85,-253.81 511.85,-253.68"/>
</g>
</g>
</svg>
