<?xml version="1.0" encoding="UTF-8" standalone="no"?>
<!DOCTYPE svg PUBLIC "-//W3C//DTD SVG 1.1//EN"
 "http://www.w3.org/Graphics/SVG/1.1/DTD/svg11.dtd">
<!-- Generated by graphviz version 2.43.0 (0)
 -->
<!-- Title: src/Enemy.cpp Pages: 1 -->
<!--zoomable 476 -->
<svg id="main" version="1.1" xmlns="http://www.w3.org/2000/svg" xmlns:xlink="http://www.w3.org/1999/xlink" xml:space="preserve" onload="init(evt)">
<style type="text/css"><![CDATA[
.edge:hover path { stroke: red; }
.edge:hover polygon { stroke: red; fill: red; }
]]></style>
<script type="text/javascript"><![CDATA[
var edges = document.getElementsByTagName('g');
if (edges && edges.length) {
  for (var i=0;i<edges.length;i++) {
    if (edges[i].id.substr(0,4)=='edge') {
      edges[i].setAttribute('class','edge');
    }
  }
}
]]></script>
        <defs>
                <circle id="rim" cx="0" cy="0" r="7"/>
                <circle id="rim2" cx="0" cy="0" r="3.5"/>
                <g id="zoomPlus">
                        <use xlink:href="#rim" fill="#404040">
                                <set attributeName="fill" to="#808080" begin="zoomplus.mouseover" end="zoomplus.mouseout"/>
                        </use>
                        <path d="M-4,0h8M0,-4v8" fill="none" stroke="white" stroke-width="1.5" pointer-events="none"/>
                </g>
                <g id="zoomMin">
                        <use xlink:href="#rim" fill="#404040">
                                <set attributeName="fill" to="#808080" begin="zoomminus.mouseover" end="zoomminus.mouseout"/>
                        </use>
                        <path d="M-4,0h8" fill="none" stroke="white" stroke-width="1.5" pointer-events="none"/>
                </g>
                <g id="dirArrow">
                        <path fill="none" stroke="white" stroke-width="1.5" d="M0,-3.0v7 M-2.5,-0.5L0,-3.0L2.5,-0.5"/>
                </g>
               <g id="resetDef">
                       <use xlink:href="#rim2" fill="#404040">
                               <set attributeName="fill" to="#808080" begin="reset.mouseover" end="reset.mouseout"/>
                       </use>
               </g>
        </defs>

<script type="text/javascript">
var viewWidth = 1222;
var viewHeight = 476;
var sectionId = 'dynsection-0';
</script>
<script xlink:href="svgpan.js"/>
<svg id="graph" class="graph">
<g id="viewport">
<title>src/Enemy.cpp</title>
<polygon fill="white" stroke="transparent" points="-4,4 -4,-472 1217.5,-472 1217.5,4 -4,4"/>
<!-- Node1 -->
<g id="node1" class="node">
<title>Node1</title>
<g id="a_node1"><a xlink:title=" ">
<polygon fill="#bfbfbf" stroke="black" points="424.5,-448.5 424.5,-467.5 510.5,-467.5 510.5,-448.5 424.5,-448.5"/>
<text text-anchor="middle" x="467.5" y="-455.5" font-family="Helvetica,sans-Serif" font-size="10.00">src/Enemy.cpp</text>
</a>
</g>
</g>
<!-- Node2 -->
<g id="node2" class="node">
<title>Node2</title>
<g id="a_node2"><a xlink:href="Enemy_8h.html" target="_top" xlink:title=" ">
<polygon fill="white" stroke="black" points="415,-392.5 415,-411.5 520,-411.5 520,-392.5 415,-392.5"/>
<text text-anchor="middle" x="467.5" y="-399.5" font-family="Helvetica,sans-Serif" font-size="10.00">../include/Enemy.h</text>
</a>
</g>
</g>
<!-- Node1&#45;&gt;Node2 -->
<g id="edge1" class="edge">
<title>Node1&#45;&gt;Node2</title>
<path fill="none" stroke="midnightblue" d="M467.5,-448.08C467.5,-441.01 467.5,-430.86 467.5,-421.99"/>
<polygon fill="midnightblue" stroke="midnightblue" points="471,-421.75 467.5,-411.75 464,-421.75 471,-421.75"/>
</g>
<!-- Node3 -->
<g id="node3" class="node">
<title>Node3</title>
<g id="a_node3"><a xlink:title=" ">
<polygon fill="white" stroke="#bfbfbf" points="849.5,-0.5 849.5,-19.5 909.5,-19.5 909.5,-0.5 849.5,-0.5"/>
<text text-anchor="middle" x="879.5" y="-7.5" font-family="Helvetica,sans-Serif" font-size="10.00">iostream</text>
</a>
</g>
</g>
<!-- Node2&#45;&gt;Node3 -->
<g id="edge2" class="edge">
<title>Node2&#45;&gt;Node3</title>
<path fill="none" stroke="midnightblue" d="M520.13,-398.97C643.87,-393.88 950.38,-379.26 1050.5,-356 1126.47,-338.35 1213.5,-368.99 1213.5,-291 1213.5,-291 1213.5,-291 1213.5,-121 1213.5,-59.78 1008.5,-26.97 919.71,-15.63"/>
<polygon fill="midnightblue" stroke="midnightblue" points="920.09,-12.15 909.73,-14.38 919.22,-19.09 920.09,-12.15"/>
</g>
<!-- Node4 -->
<g id="node4" class="node">
<title>Node4</title>
<g id="a_node4"><a xlink:title=" ">
<polygon fill="white" stroke="#bfbfbf" points="650,-112.5 650,-131.5 697,-131.5 697,-112.5 650,-112.5"/>
<text text-anchor="middle" x="673.5" y="-119.5" font-family="Helvetica,sans-Serif" font-size="10.00">vector</text>
</a>
</g>
</g>
<!-- Node2&#45;&gt;Node4 -->
<g id="edge3" class="edge">
<title>Node2&#45;&gt;Node4</title>
<path fill="none" stroke="midnightblue" d="M520.14,-398.37C684.22,-389.48 1175.5,-357.32 1175.5,-291 1175.5,-291 1175.5,-291 1175.5,-233 1175.5,-194.58 1152.65,-185.6 1118.5,-168 1046.79,-131.05 798.35,-124.44 707.29,-123.26"/>
<polygon fill="midnightblue" stroke="midnightblue" points="707.28,-119.75 697.24,-123.14 707.2,-126.75 707.28,-119.75"/>
</g>
<!-- Node5 -->
<g id="node5" class="node">
<title>Node5</title>
<g id="a_node5"><a xlink:title=" ">
<polygon fill="white" stroke="#bfbfbf" points="328,-336.5 328,-355.5 411,-355.5 411,-336.5 328,-336.5"/>
<text text-anchor="middle" x="369.5" y="-343.5" font-family="Helvetica,sans-Serif" font-size="10.00">glm/vec4.hpp</text>
</a>
</g>
</g>
<!-- Node2&#45;&gt;Node5 -->
<g id="edge4" class="edge">
<title>Node2&#45;&gt;Node5</title>
<path fill="none" stroke="midnightblue" d="M451.75,-392.32C436.18,-383.74 412.12,-370.49 394.04,-360.52"/>
<polygon fill="midnightblue" stroke="midnightblue" points="395.65,-357.42 385.21,-355.65 392.28,-363.55 395.65,-357.42"/>
</g>
<!-- Node6 -->
<g id="node6" class="node">
<title>Node6</title>
<g id="a_node6"><a xlink:title=" ">
<polygon fill="white" stroke="#bfbfbf" points="0,-168.5 0,-187.5 97,-187.5 97,-168.5 0,-168.5"/>
<text text-anchor="middle" x="48.5" y="-175.5" font-family="Helvetica,sans-Serif" font-size="10.00">glm/mat4x4.hpp</text>
</a>
</g>
</g>
<!-- Node2&#45;&gt;Node6 -->
<g id="edge5" class="edge">
<title>Node2&#45;&gt;Node6</title>
<path fill="none" stroke="midnightblue" d="M414.81,-392.8C379.12,-385.98 331.53,-374.36 292.5,-356 198.28,-311.69 103.14,-229.35 65.41,-194.85"/>
<polygon fill="midnightblue" stroke="midnightblue" points="67.59,-192.09 57.86,-187.88 62.84,-197.24 67.59,-192.09"/>
</g>
<!-- Node7 -->
<g id="node7" class="node">
<title>Node7</title>
<g id="a_node7"><a xlink:title=" ">
<polygon fill="white" stroke="#bfbfbf" points="115.5,-168.5 115.5,-187.5 279.5,-187.5 279.5,-168.5 115.5,-168.5"/>
<text text-anchor="middle" x="197.5" y="-175.5" font-family="Helvetica,sans-Serif" font-size="10.00">glm/ext/matrix_transform.hpp</text>
</a>
</g>
</g>
<!-- Node2&#45;&gt;Node7 -->
<g id="edge6" class="edge">
<title>Node2&#45;&gt;Node7</title>
<path fill="none" stroke="midnightblue" d="M414.99,-394.04C384.53,-387.95 346.73,-376.68 318.5,-356 259.99,-313.14 220.45,-232.99 204.9,-197.14"/>
<polygon fill="midnightblue" stroke="midnightblue" points="207.96,-195.38 200.85,-187.53 201.51,-198.1 207.96,-195.38"/>
</g>
<!-- Node8 -->
<g id="node8" class="node">
<title>Node8</title>
<g id="a_node8"><a xlink:title=" ">
<polygon fill="white" stroke="#bfbfbf" points="541.5,-336.5 541.5,-355.5 619.5,-355.5 619.5,-336.5 541.5,-336.5"/>
<text text-anchor="middle" x="580.5" y="-343.5" font-family="Helvetica,sans-Serif" font-size="10.00">glm/glm.hpp</text>
</a>
</g>
</g>
<!-- Node2&#45;&gt;Node8 -->
<g id="edge7" class="edge">
<title>Node2&#45;&gt;Node8</title>
<path fill="none" stroke="midnightblue" d="M485.41,-392.44C503.75,-383.68 532.51,-369.94 553.59,-359.86"/>
<polygon fill="midnightblue" stroke="midnightblue" points="555.17,-362.99 562.68,-355.52 552.15,-356.67 555.17,-362.99"/>
</g>
<!-- Node9 -->
<g id="node9" class="node">
<title>Node9</title>
<g id="a_node9"><a xlink:title=" ">
<polygon fill="white" stroke="#bfbfbf" points="297.5,-168.5 297.5,-187.5 361.5,-187.5 361.5,-168.5 297.5,-168.5"/>
<text text-anchor="middle" x="329.5" y="-175.5" font-family="Helvetica,sans-Serif" font-size="10.00">GL/glew.h</text>
</a>
</g>
</g>
<!-- Node2&#45;&gt;Node9 -->
<g id="edge8" class="edge">
<title>Node2&#45;&gt;Node9</title>
<path fill="none" stroke="midnightblue" d="M462.09,-392.3C441.57,-359.29 368.29,-241.4 340.39,-196.52"/>
<polygon fill="midnightblue" stroke="midnightblue" points="343.27,-194.53 335.02,-187.88 337.33,-198.22 343.27,-194.53"/>
</g>
<!-- Node10 -->
<g id="node10" class="node">
<title>Node10</title>
<g id="a_node10"><a xlink:href="Model_8h.html" target="_top" xlink:title=" ">
<polygon fill="white" stroke="black" points="467.5,-336.5 467.5,-355.5 523.5,-355.5 523.5,-336.5 467.5,-336.5"/>
<text text-anchor="middle" x="495.5" y="-343.5" font-family="Helvetica,sans-Serif" font-size="10.00">Model.h</text>
</a>
</g>
</g>
<!-- Node2&#45;&gt;Node10 -->
<g id="edge9" class="edge">
<title>Node2&#45;&gt;Node10</title>
<path fill="none" stroke="midnightblue" d="M472.12,-392.08C475.96,-384.69 481.52,-373.95 486.26,-364.81"/>
<polygon fill="midnightblue" stroke="midnightblue" points="489.47,-366.24 490.96,-355.75 483.25,-363.02 489.47,-366.24"/>
</g>
<!-- Node11 -->
<g id="node11" class="node">
<title>Node11</title>
<g id="a_node11"><a xlink:href="Obj_8h.html" target="_top" xlink:title=" ">
<polygon fill="white" stroke="black" points="533.5,-280.5 533.5,-299.5 575.5,-299.5 575.5,-280.5 533.5,-280.5"/>
<text text-anchor="middle" x="554.5" y="-287.5" font-family="Helvetica,sans-Serif" font-size="10.00">Obj.h</text>
</a>
</g>
</g>
<!-- Node10&#45;&gt;Node11 -->
<g id="edge10" class="edge">
<title>Node10&#45;&gt;Node11</title>
<path fill="none" stroke="midnightblue" d="M504.98,-336.32C513.7,-328.34 526.84,-316.31 537.4,-306.65"/>
<polygon fill="midnightblue" stroke="midnightblue" points="539.83,-309.17 544.85,-299.83 535.11,-304 539.83,-309.17"/>
</g>
<!-- Node23 -->
<g id="node23" class="node">
<title>Node23</title>
<g id="a_node23"><a xlink:href="Ply_8h.html" target="_top" xlink:title=" ">
<polygon fill="white" stroke="black" points="476,-280.5 476,-299.5 515,-299.5 515,-280.5 476,-280.5"/>
<text text-anchor="middle" x="495.5" y="-287.5" font-family="Helvetica,sans-Serif" font-size="10.00">Ply.h</text>
</a>
</g>
</g>
<!-- Node10&#45;&gt;Node23 -->
<g id="edge32" class="edge">
<title>Node10&#45;&gt;Node23</title>
<path fill="none" stroke="midnightblue" d="M495.5,-336.08C495.5,-329.01 495.5,-318.86 495.5,-309.99"/>
<polygon fill="midnightblue" stroke="midnightblue" points="499,-309.75 495.5,-299.75 492,-309.75 499,-309.75"/>
</g>
<!-- Node12 -->
<g id="node12" class="node">
<title>Node12</title>
<g id="a_node12"><a xlink:href="Object_8h.html" target="_top" xlink:title=" ">
<polygon fill="white" stroke="black" points="526,-224.5 526,-243.5 583,-243.5 583,-224.5 526,-224.5"/>
<text text-anchor="middle" x="554.5" y="-231.5" font-family="Helvetica,sans-Serif" font-size="10.00">Object.h</text>
</a>
</g>
</g>
<!-- Node11&#45;&gt;Node12 -->
<g id="edge11" class="edge">
<title>Node11&#45;&gt;Node12</title>
<path fill="none" stroke="midnightblue" d="M554.5,-280.08C554.5,-273.01 554.5,-262.86 554.5,-253.99"/>
<polygon fill="midnightblue" stroke="midnightblue" points="558,-253.75 554.5,-243.75 551,-253.75 558,-253.75"/>
</g>
<!-- Node12&#45;&gt;Node3 -->
<g id="edge12" class="edge">
<title>Node12&#45;&gt;Node3</title>
<path fill="none" stroke="midnightblue" d="M583.02,-232.93C692.55,-232.39 1081.89,-227.65 1118.5,-188 1188.43,-112.27 1003.95,-47.01 919.33,-21.95"/>
<polygon fill="midnightblue" stroke="midnightblue" points="920.1,-18.53 909.53,-19.09 918.15,-25.25 920.1,-18.53"/>
</g>
<!-- Node12&#45;&gt;Node4 -->
<g id="edge14" class="edge">
<title>Node12&#45;&gt;Node4</title>
<path fill="none" stroke="midnightblue" d="M583,-227.08C605.47,-220.97 636,-209.25 654.5,-188 665.71,-175.12 670.31,-155.95 672.2,-141.76"/>
<polygon fill="midnightblue" stroke="midnightblue" points="675.7,-141.96 673.21,-131.66 668.73,-141.26 675.7,-141.96"/>
</g>
<!-- Node12&#45;&gt;Node6 -->
<g id="edge29" class="edge">
<title>Node12&#45;&gt;Node6</title>
<path fill="none" stroke="midnightblue" d="M525.87,-230.66C456.24,-224.86 272.24,-208.85 107.53,-188.06"/>
<polygon fill="midnightblue" stroke="midnightblue" points="107.57,-184.54 97.21,-186.75 106.69,-191.49 107.57,-184.54"/>
</g>
<!-- Node12&#45;&gt;Node7 -->
<g id="edge30" class="edge">
<title>Node12&#45;&gt;Node7</title>
<path fill="none" stroke="midnightblue" d="M525.89,-228.67C469.52,-220.15 342.76,-200.97 264.25,-189.1"/>
<polygon fill="midnightblue" stroke="midnightblue" points="264.39,-185.58 253.98,-187.54 263.34,-192.5 264.39,-185.58"/>
</g>
<!-- Node12&#45;&gt;Node9 -->
<g id="edge27" class="edge">
<title>Node12&#45;&gt;Node9</title>
<path fill="none" stroke="midnightblue" d="M525.55,-226.05C486.37,-216.65 416.24,-199.82 371.34,-189.04"/>
<polygon fill="midnightblue" stroke="midnightblue" points="372.15,-185.64 361.61,-186.71 370.52,-192.44 372.15,-185.64"/>
</g>
<!-- Node13 -->
<g id="node13" class="node">
<title>Node13</title>
<g id="a_node13"><a xlink:title=" ">
<polygon fill="white" stroke="#bfbfbf" points="380,-168.5 380,-187.5 435,-187.5 435,-168.5 380,-168.5"/>
<text text-anchor="middle" x="407.5" y="-175.5" font-family="Helvetica,sans-Serif" font-size="10.00">fstream</text>
</a>
</g>
</g>
<!-- Node12&#45;&gt;Node13 -->
<g id="edge13" class="edge">
<title>Node12&#45;&gt;Node13</title>
<path fill="none" stroke="midnightblue" d="M531.21,-224.44C506.69,-215.44 467.9,-201.19 440.3,-191.05"/>
<polygon fill="midnightblue" stroke="midnightblue" points="441.28,-187.68 430.68,-187.52 438.86,-194.25 441.28,-187.68"/>
</g>
<!-- Node14 -->
<g id="node14" class="node">
<title>Node14</title>
<g id="a_node14"><a xlink:href="Vertex_8h.html" target="_top" xlink:title=" ">
<polygon fill="white" stroke="black" points="512,-56.5 512,-75.5 569,-75.5 569,-56.5 512,-56.5"/>
<text text-anchor="middle" x="540.5" y="-63.5" font-family="Helvetica,sans-Serif" font-size="10.00">Vertex.h</text>
</a>
</g>
</g>
<!-- Node12&#45;&gt;Node14 -->
<g id="edge15" class="edge">
<title>Node12&#45;&gt;Node14</title>
<path fill="none" stroke="midnightblue" d="M543.74,-224.22C534.37,-215.92 521.27,-202.6 514.5,-188 503.92,-165.19 508.28,-157.08 506.5,-132 505.87,-123.13 503.67,-120.43 506.5,-112 510.1,-101.25 517.4,-91.02 524.32,-83.04"/>
<polygon fill="midnightblue" stroke="midnightblue" points="526.98,-85.32 531.21,-75.61 521.85,-80.56 526.98,-85.32"/>
</g>
<!-- Node16 -->
<g id="node16" class="node">
<title>Node16</title>
<g id="a_node16"><a xlink:href="Edge_8h.html" target="_top" xlink:title=" ">
<polygon fill="white" stroke="black" points="515.5,-112.5 515.5,-131.5 565.5,-131.5 565.5,-112.5 515.5,-112.5"/>
<text text-anchor="middle" x="540.5" y="-119.5" font-family="Helvetica,sans-Serif" font-size="10.00">Edge.h</text>
</a>
</g>
</g>
<!-- Node12&#45;&gt;Node16 -->
<g id="edge18" class="edge">
<title>Node12&#45;&gt;Node16</title>
<path fill="none" stroke="midnightblue" d="M545.21,-224.39C536.92,-216.02 525.36,-202.48 520.5,-188 515.18,-172.12 521.89,-153.88 528.94,-140.78"/>
<polygon fill="midnightblue" stroke="midnightblue" points="532.12,-142.27 534.2,-131.88 526.1,-138.7 532.12,-142.27"/>
</g>
<!-- Node17 -->
<g id="node17" class="node">
<title>Node17</title>
<g id="a_node17"><a xlink:href="Face_8h.html" target="_top" xlink:title=" ">
<polygon fill="white" stroke="black" points="598,-168.5 598,-187.5 645,-187.5 645,-168.5 598,-168.5"/>
<text text-anchor="middle" x="621.5" y="-175.5" font-family="Helvetica,sans-Serif" font-size="10.00">Face.h</text>
</a>
</g>
</g>
<!-- Node12&#45;&gt;Node17 -->
<g id="edge20" class="edge">
<title>Node12&#45;&gt;Node17</title>
<path fill="none" stroke="midnightblue" d="M565.26,-224.32C575.27,-216.26 590.39,-204.08 602.43,-194.37"/>
<polygon fill="midnightblue" stroke="midnightblue" points="604.95,-196.83 610.54,-187.83 600.56,-191.38 604.95,-196.83"/>
</g>
<!-- Node18 -->
<g id="node18" class="node">
<title>Node18</title>
<g id="a_node18"><a xlink:title=" ">
<polygon fill="white" stroke="#bfbfbf" points="529.5,-168.5 529.5,-187.5 579.5,-187.5 579.5,-168.5 529.5,-168.5"/>
<text text-anchor="middle" x="554.5" y="-175.5" font-family="Helvetica,sans-Serif" font-size="10.00">stdio.h</text>
</a>
</g>
</g>
<!-- Node12&#45;&gt;Node18 -->
<g id="edge24" class="edge">
<title>Node12&#45;&gt;Node18</title>
<path fill="none" stroke="midnightblue" d="M554.5,-224.08C554.5,-217.01 554.5,-206.86 554.5,-197.99"/>
<polygon fill="midnightblue" stroke="midnightblue" points="558,-197.75 554.5,-187.75 551,-197.75 558,-197.75"/>
</g>
<!-- Node19 -->
<g id="node19" class="node">
<title>Node19</title>
<g id="a_node19"><a xlink:title=" ">
<polygon fill="white" stroke="#bfbfbf" points="702,-168.5 702,-187.5 755,-187.5 755,-168.5 702,-168.5"/>
<text text-anchor="middle" x="728.5" y="-175.5" font-family="Helvetica,sans-Serif" font-size="10.00">stdlib.h</text>
</a>
</g>
</g>
<!-- Node12&#45;&gt;Node19 -->
<g id="edge25" class="edge">
<title>Node12&#45;&gt;Node19</title>
<path fill="none" stroke="midnightblue" d="M582.07,-224.44C611.86,-215.2 659.45,-200.43 692.25,-190.25"/>
<polygon fill="midnightblue" stroke="midnightblue" points="693.4,-193.56 701.91,-187.25 691.33,-186.87 693.4,-193.56"/>
</g>
<!-- Node20 -->
<g id="node20" class="node">
<title>Node20</title>
<g id="a_node20"><a xlink:title=" ">
<polygon fill="white" stroke="#bfbfbf" points="773.5,-168.5 773.5,-187.5 829.5,-187.5 829.5,-168.5 773.5,-168.5"/>
<text text-anchor="middle" x="801.5" y="-175.5" font-family="Helvetica,sans-Serif" font-size="10.00">sstream</text>
</a>
</g>
</g>
<!-- Node12&#45;&gt;Node20 -->
<g id="edge26" class="edge">
<title>Node12&#45;&gt;Node20</title>
<path fill="none" stroke="midnightblue" d="M583.09,-227.13C621.73,-219.15 693.02,-204.22 763.33,-188.22"/>
<polygon fill="midnightblue" stroke="midnightblue" points="764.27,-191.6 773.24,-185.96 762.71,-184.77 764.27,-191.6"/>
</g>
<!-- Node21 -->
<g id="node21" class="node">
<title>Node21</title>
<g id="a_node21"><a xlink:title=" ">
<polygon fill="white" stroke="#bfbfbf" points="848,-168.5 848,-187.5 931,-187.5 931,-168.5 848,-168.5"/>
<text text-anchor="middle" x="889.5" y="-175.5" font-family="Helvetica,sans-Serif" font-size="10.00">GLFW/glfw3.h</text>
</a>
</g>
</g>
<!-- Node12&#45;&gt;Node21 -->
<g id="edge28" class="edge">
<title>Node12&#45;&gt;Node21</title>
<path fill="none" stroke="midnightblue" d="M583.15,-228.63C632.76,-221.03 738.12,-204.72 837.82,-188.09"/>
<polygon fill="midnightblue" stroke="midnightblue" points="838.48,-191.53 847.76,-186.43 837.32,-184.62 838.48,-191.53"/>
</g>
<!-- Node22 -->
<g id="node22" class="node">
<title>Node22</title>
<g id="a_node22"><a xlink:title=" ">
<polygon fill="white" stroke="#bfbfbf" points="949.5,-168.5 949.5,-187.5 1109.5,-187.5 1109.5,-168.5 949.5,-168.5"/>
<text text-anchor="middle" x="1029.5" y="-175.5" font-family="Helvetica,sans-Serif" font-size="10.00">glm/ext/scalar_constants.hpp</text>
</a>
</g>
</g>
<!-- Node12&#45;&gt;Node22 -->
<g id="edge31" class="edge">
<title>Node12&#45;&gt;Node22</title>
<path fill="none" stroke="midnightblue" d="M583.14,-229.74C653.26,-221.77 835.72,-201.03 944.42,-188.67"/>
<polygon fill="midnightblue" stroke="midnightblue" points="944.84,-192.15 954.38,-187.54 944.05,-185.19 944.84,-192.15"/>
</g>
<!-- Node14&#45;&gt;Node3 -->
<g id="edge16" class="edge">
<title>Node14&#45;&gt;Node3</title>
<path fill="none" stroke="midnightblue" d="M569.11,-60.44C629.39,-50.84 769.59,-28.51 839.03,-17.45"/>
<polygon fill="midnightblue" stroke="midnightblue" points="839.82,-20.86 849.15,-15.83 838.72,-13.95 839.82,-20.86"/>
</g>
<!-- Node15 -->
<g id="node15" class="node">
<title>Node15</title>
<g id="a_node15"><a xlink:title=" ">
<polygon fill="white" stroke="#bfbfbf" points="509,-0.5 509,-19.5 572,-19.5 572,-0.5 509,-0.5"/>
<text text-anchor="middle" x="540.5" y="-7.5" font-family="Helvetica,sans-Serif" font-size="10.00">armadillo</text>
</a>
</g>
</g>
<!-- Node14&#45;&gt;Node15 -->
<g id="edge17" class="edge">
<title>Node14&#45;&gt;Node15</title>
<path fill="none" stroke="midnightblue" d="M540.5,-56.08C540.5,-49.01 540.5,-38.86 540.5,-29.99"/>
<polygon fill="midnightblue" stroke="midnightblue" points="544,-29.75 540.5,-19.75 537,-29.75 544,-29.75"/>
</g>
<!-- Node16&#45;&gt;Node14 -->
<g id="edge19" class="edge">
<title>Node16&#45;&gt;Node14</title>
<path fill="none" stroke="midnightblue" d="M540.5,-112.08C540.5,-105.01 540.5,-94.86 540.5,-85.99"/>
<polygon fill="midnightblue" stroke="midnightblue" points="544,-85.75 540.5,-75.75 537,-85.75 544,-85.75"/>
</g>
<!-- Node17&#45;&gt;Node3 -->
<g id="edge22" class="edge">
<title>Node17&#45;&gt;Node3</title>
<path fill="none" stroke="midnightblue" d="M621.9,-168.3C622.98,-154.65 626.95,-128.13 641.5,-112 694.21,-53.57 786.34,-27.8 839.18,-17.36"/>
<polygon fill="midnightblue" stroke="midnightblue" points="840.03,-20.77 849.2,-15.47 838.73,-13.89 840.03,-20.77"/>
</g>
<!-- Node17&#45;&gt;Node4 -->
<g id="edge23" class="edge">
<title>Node17&#45;&gt;Node4</title>
<path fill="none" stroke="midnightblue" d="M630.09,-168.08C637.66,-160.22 648.88,-148.57 658.01,-139.08"/>
<polygon fill="midnightblue" stroke="midnightblue" points="660.66,-141.38 665.07,-131.75 655.62,-136.53 660.66,-141.38"/>
</g>
<!-- Node17&#45;&gt;Node16 -->
<g id="edge21" class="edge">
<title>Node17&#45;&gt;Node16</title>
<path fill="none" stroke="midnightblue" d="M608.49,-168.32C595.97,-159.98 576.82,-147.21 562.03,-137.35"/>
<polygon fill="midnightblue" stroke="midnightblue" points="563.74,-134.29 553.48,-131.65 559.86,-140.11 563.74,-134.29"/>
</g>
<!-- Node23&#45;&gt;Node12 -->
<g id="edge33" class="edge">
<title>Node23&#45;&gt;Node12</title>
<path fill="none" stroke="midnightblue" d="M504.98,-280.32C513.7,-272.34 526.84,-260.31 537.4,-250.65"/>
<polygon fill="midnightblue" stroke="midnightblue" points="539.83,-253.17 544.85,-243.83 535.11,-248 539.83,-253.17"/>
</g>
</g>
</svg>
        <g id="navigator" transform="translate(0 0)" fill="#404254">
                <rect fill="#f2f5e9" fill-opacity="0.5" stroke="#606060" stroke-width=".5" x="0" y="0" width="60" height="60"/>
                <use id="zoomplus" xlink:href="#zoomPlus" x="17" y="9" onmousedown="handleZoom(evt,'in')"/>
                <use id="zoomminus" xlink:href="#zoomMin" x="42" y="9" onmousedown="handleZoom(evt,'out')"/>
                <use id="reset" xlink:href="#resetDef" x="30" y="36" onmousedown="handleReset()"/>
                <g id="arrowUp" xlink:href="#dirArrow" transform="translate(30 24)" onmousedown="handlePan(0,-1)">
                  <use xlink:href="#rim" fill="#404040">
                        <set attributeName="fill" to="#808080" begin="arrowUp.mouseover" end="arrowUp.mouseout"/>
                  </use>
                  <path fill="none" stroke="white" stroke-width="1.5" d="M0,-3.0v7 M-2.5,-0.5L0,-3.0L2.5,-0.5"/>
                </g>
                <g id="arrowRight" xlink:href="#dirArrow" transform="rotate(90) translate(36 -43)" onmousedown="handlePan(1,0)">
                  <use xlink:href="#rim" fill="#404040">
                        <set attributeName="fill" to="#808080" begin="arrowRight.mouseover" end="arrowRight.mouseout"/>
                  </use>
                  <path fill="none" stroke="white" stroke-width="1.5" d="M0,-3.0v7 M-2.5,-0.5L0,-3.0L2.5,-0.5"/>
                </g>
                <g id="arrowDown" xlink:href="#dirArrow" transform="rotate(180) translate(-30 -48)" onmousedown="handlePan(0,1)">
                  <use xlink:href="#rim" fill="#404040">
                        <set attributeName="fill" to="#808080" begin="arrowDown.mouseover" end="arrowDown.mouseout"/>
                  </use>
                  <path fill="none" stroke="white" stroke-width="1.5" d="M0,-3.0v7 M-2.5,-0.5L0,-3.0L2.5,-0.5"/>
                </g>
                <g id="arrowLeft" xlink:href="#dirArrow" transform="rotate(270) translate(-36 17)" onmousedown="handlePan(-1,0)">
                  <use xlink:href="#rim" fill="#404040">
                        <set attributeName="fill" to="#808080" begin="arrowLeft.mouseover" end="arrowLeft.mouseout"/>
                  </use>
                  <path fill="none" stroke="white" stroke-width="1.5" d="M0,-3.0v7 M-2.5,-0.5L0,-3.0L2.5,-0.5"/>
                </g>
        </g>
        <svg viewBox="0 0 15 15" width="100%" height="30px" preserveAspectRatio="xMaxYMin meet">
         <g id="arrow_out" transform="scale(0.3 0.3)">
          <a xlink:href="Enemy_8cpp__incl_org.svg" target="_base">
           <rect id="button" ry="5" rx="5" y="6" x="6" height="38" width="38"
                fill="#f2f5e9" fill-opacity="0.5" stroke="#606060" stroke-width="1.0"/>
           <path id="arrow"
             d="M 11.500037,31.436501 C 11.940474,20.09759 22.043105,11.32322 32.158766,21.979434 L 37.068811,17.246167 C 37.068811,17.246167 37.088388,32 37.088388,32 L 22.160133,31.978069 C 22.160133,31.978069 26.997745,27.140456 26.997745,27.140456 C 18.528582,18.264221 13.291696,25.230495 11.500037,31.436501 z"
             style="fill:#404040;"/>
          </a>
         </g>
        </svg>
</svg>
