<?xml version="1.0" encoding="UTF-8" standalone="no"?>
<!DOCTYPE svg PUBLIC "-//W3C//DTD SVG 1.1//EN"
 "http://www.w3.org/Graphics/SVG/1.1/DTD/svg11.dtd">
<!-- Generated by graphviz version 2.43.0 (0)
 -->
<!-- Title: src/Enemy.cpp Pages: 1 -->
<svg width="1058pt" height="476pt"
 viewBox="0.00 0.00 1058.00 476.00" xmlns="http://www.w3.org/2000/svg" xmlns:xlink="http://www.w3.org/1999/xlink">
<g id="graph0" class="graph" transform="scale(1 1) rotate(0) translate(4 472)">
<title>src/Enemy.cpp</title>
<polygon fill="white" stroke="transparent" points="-4,4 -4,-472 1054,-472 1054,4 -4,4"/>
<!-- Node1 -->
<g id="node1" class="node">
<title>Node1</title>
<g id="a_node1"><a xlink:title=" ">
<polygon fill="#bfbfbf" stroke="black" points="598,-448.5 598,-467.5 684,-467.5 684,-448.5 598,-448.5"/>
<text text-anchor="middle" x="641" y="-455.5" font-family="Helvetica,sans-Serif" font-size="10.00">src/Enemy.cpp</text>
</a>
</g>
</g>
<!-- Node2 -->
<g id="node2" class="node">
<title>Node2</title>
<g id="a_node2"><a xlink:href="Enemy_8h.html" target="_top" xlink:title=" ">
<polygon fill="white" stroke="black" points="588.5,-392.5 588.5,-411.5 693.5,-411.5 693.5,-392.5 588.5,-392.5"/>
<text text-anchor="middle" x="641" y="-399.5" font-family="Helvetica,sans-Serif" font-size="10.00">../include/Enemy.h</text>
</a>
</g>
</g>
<!-- Node1&#45;&gt;Node2 -->
<g id="edge1" class="edge">
<title>Node1&#45;&gt;Node2</title>
<path fill="none" stroke="midnightblue" d="M641,-448.08C641,-441.01 641,-430.86 641,-421.99"/>
<polygon fill="midnightblue" stroke="midnightblue" points="644.5,-421.75 641,-411.75 637.5,-421.75 644.5,-421.75"/>
</g>
<!-- Node3 -->
<g id="node3" class="node">
<title>Node3</title>
<g id="a_node3"><a xlink:title=" ">
<polygon fill="white" stroke="#bfbfbf" points="296,-0.5 296,-19.5 356,-19.5 356,-0.5 296,-0.5"/>
<text text-anchor="middle" x="326" y="-7.5" font-family="Helvetica,sans-Serif" font-size="10.00">iostream</text>
</a>
</g>
</g>
<!-- Node2&#45;&gt;Node3 -->
<g id="edge2" class="edge">
<title>Node2&#45;&gt;Node3</title>
<path fill="none" stroke="midnightblue" d="M588.34,-398.68C476.82,-393.39 220.15,-379.05 136,-356 71.39,-338.3 0,-357.99 0,-291 0,-291 0,-291 0,-121 0,-61.31 198.73,-27.77 285.86,-15.94"/>
<polygon fill="midnightblue" stroke="midnightblue" points="286.46,-19.39 295.92,-14.6 285.54,-12.45 286.46,-19.39"/>
</g>
<!-- Node4 -->
<g id="node4" class="node">
<title>Node4</title>
<g id="a_node4"><a xlink:title=" ">
<polygon fill="white" stroke="#bfbfbf" points="52.5,-112.5 52.5,-131.5 99.5,-131.5 99.5,-112.5 52.5,-112.5"/>
<text text-anchor="middle" x="76" y="-119.5" font-family="Helvetica,sans-Serif" font-size="10.00">vector</text>
</a>
</g>
</g>
<!-- Node2&#45;&gt;Node4 -->
<g id="edge3" class="edge">
<title>Node2&#45;&gt;Node4</title>
<path fill="none" stroke="midnightblue" d="M588.28,-396.93C441.35,-384.87 38,-346.7 38,-291 38,-291 38,-291 38,-233 38,-198.81 54.6,-161.76 65.86,-140.57"/>
<polygon fill="midnightblue" stroke="midnightblue" points="68.95,-142.22 70.72,-131.77 62.82,-138.83 68.95,-142.22"/>
</g>
<!-- Node5 -->
<g id="node5" class="node">
<title>Node5</title>
<g id="a_node5"><a xlink:title=" ">
<polygon fill="white" stroke="#bfbfbf" points="688.5,-336.5 688.5,-355.5 771.5,-355.5 771.5,-336.5 688.5,-336.5"/>
<text text-anchor="middle" x="730" y="-343.5" font-family="Helvetica,sans-Serif" font-size="10.00">glm/vec4.hpp</text>
</a>
</g>
</g>
<!-- Node2&#45;&gt;Node5 -->
<g id="edge4" class="edge">
<title>Node2&#45;&gt;Node5</title>
<path fill="none" stroke="midnightblue" d="M655.3,-392.32C669.18,-383.9 690.49,-370.97 706.8,-361.07"/>
<polygon fill="midnightblue" stroke="midnightblue" points="709,-363.83 715.74,-355.65 705.37,-357.85 709,-363.83"/>
</g>
<!-- Node6 -->
<g id="node6" class="node">
<title>Node6</title>
<g id="a_node6"><a xlink:title=" ">
<polygon fill="white" stroke="#bfbfbf" points="851.5,-168.5 851.5,-187.5 948.5,-187.5 948.5,-168.5 851.5,-168.5"/>
<text text-anchor="middle" x="900" y="-175.5" font-family="Helvetica,sans-Serif" font-size="10.00">glm/mat4x4.hpp</text>
</a>
</g>
</g>
<!-- Node2&#45;&gt;Node6 -->
<g id="edge5" class="edge">
<title>Node2&#45;&gt;Node6</title>
<path fill="none" stroke="midnightblue" d="M637.89,-392.29C628.41,-364.03 603.03,-273.81 646,-224 649.2,-220.29 767.06,-200.57 841.09,-188.5"/>
<polygon fill="midnightblue" stroke="midnightblue" points="841.92,-191.91 851.23,-186.85 840.8,-185 841.92,-191.91"/>
</g>
<!-- Node7 -->
<g id="node7" class="node">
<title>Node7</title>
<g id="a_node7"><a xlink:title=" ">
<polygon fill="white" stroke="#bfbfbf" points="790,-336.5 790,-355.5 954,-355.5 954,-336.5 790,-336.5"/>
<text text-anchor="middle" x="872" y="-343.5" font-family="Helvetica,sans-Serif" font-size="10.00">glm/ext/matrix_transform.hpp</text>
</a>
</g>
</g>
<!-- Node2&#45;&gt;Node7 -->
<g id="edge6" class="edge">
<title>Node2&#45;&gt;Node7</title>
<path fill="none" stroke="midnightblue" d="M677.6,-392.44C717.73,-383.06 782.2,-367.99 825.78,-357.8"/>
<polygon fill="midnightblue" stroke="midnightblue" points="826.63,-361.2 835.57,-355.52 825.03,-354.38 826.63,-361.2"/>
</g>
<!-- Node8 -->
<g id="node8" class="node">
<title>Node8</title>
<g id="a_node8"><a xlink:title=" ">
<polygon fill="white" stroke="#bfbfbf" points="972,-336.5 972,-355.5 1050,-355.5 1050,-336.5 972,-336.5"/>
<text text-anchor="middle" x="1011" y="-343.5" font-family="Helvetica,sans-Serif" font-size="10.00">glm/glm.hpp</text>
</a>
</g>
</g>
<!-- Node2&#45;&gt;Node8 -->
<g id="edge7" class="edge">
<title>Node2&#45;&gt;Node8</title>
<path fill="none" stroke="midnightblue" d="M693.54,-394.42C755.32,-386.51 861.2,-372.43 961.95,-356.11"/>
<polygon fill="midnightblue" stroke="midnightblue" points="962.69,-359.53 971.99,-354.47 961.56,-352.63 962.69,-359.53"/>
</g>
<!-- Node9 -->
<g id="node9" class="node">
<title>Node9</title>
<g id="a_node9"><a xlink:title=" ">
<polygon fill="white" stroke="#bfbfbf" points="967,-168.5 967,-187.5 1031,-187.5 1031,-168.5 967,-168.5"/>
<text text-anchor="middle" x="999" y="-175.5" font-family="Helvetica,sans-Serif" font-size="10.00">GL/glew.h</text>
</a>
</g>
</g>
<!-- Node2&#45;&gt;Node9 -->
<g id="edge8" class="edge">
<title>Node2&#45;&gt;Node9</title>
<path fill="none" stroke="midnightblue" d="M644.29,-392.36C649.83,-378.8 662.18,-352.4 680,-336 764.07,-258.63 893.34,-211.07 958.49,-190.65"/>
<polygon fill="midnightblue" stroke="midnightblue" points="959.85,-193.9 968.38,-187.61 957.79,-187.21 959.85,-193.9"/>
</g>
<!-- Node10 -->
<g id="node10" class="node">
<title>Node10</title>
<g id="a_node10"><a xlink:href="Model_8h.html" target="_top" xlink:title=" ">
<polygon fill="white" stroke="black" points="538,-336.5 538,-355.5 594,-355.5 594,-336.5 538,-336.5"/>
<text text-anchor="middle" x="566" y="-343.5" font-family="Helvetica,sans-Serif" font-size="10.00">Model.h</text>
</a>
</g>
</g>
<!-- Node2&#45;&gt;Node10 -->
<g id="edge9" class="edge">
<title>Node2&#45;&gt;Node10</title>
<path fill="none" stroke="midnightblue" d="M628.95,-392.32C617.54,-384.11 600.17,-371.6 586.57,-361.81"/>
<polygon fill="midnightblue" stroke="midnightblue" points="588.43,-358.84 578.27,-355.83 584.34,-364.52 588.43,-358.84"/>
</g>
<!-- Node11 -->
<g id="node11" class="node">
<title>Node11</title>
<g id="a_node11"><a xlink:href="Obj_8h.html" target="_top" xlink:title=" ">
<polygon fill="white" stroke="black" points="490,-280.5 490,-299.5 532,-299.5 532,-280.5 490,-280.5"/>
<text text-anchor="middle" x="511" y="-287.5" font-family="Helvetica,sans-Serif" font-size="10.00">Obj.h</text>
</a>
</g>
</g>
<!-- Node10&#45;&gt;Node11 -->
<g id="edge10" class="edge">
<title>Node10&#45;&gt;Node11</title>
<path fill="none" stroke="midnightblue" d="M556.92,-336.08C548.83,-328.14 536.8,-316.34 527.09,-306.8"/>
<polygon fill="midnightblue" stroke="midnightblue" points="529.5,-304.26 519.91,-299.75 524.6,-309.25 529.5,-304.26"/>
</g>
<!-- Node23 -->
<g id="node23" class="node">
<title>Node23</title>
<g id="a_node23"><a xlink:href="Ply_8h.html" target="_top" xlink:title=" ">
<polygon fill="white" stroke="black" points="550.5,-280.5 550.5,-299.5 589.5,-299.5 589.5,-280.5 550.5,-280.5"/>
<text text-anchor="middle" x="570" y="-287.5" font-family="Helvetica,sans-Serif" font-size="10.00">Ply.h</text>
</a>
</g>
</g>
<!-- Node10&#45;&gt;Node23 -->
<g id="edge31" class="edge">
<title>Node10&#45;&gt;Node23</title>
<path fill="none" stroke="midnightblue" d="M566.66,-336.08C567.18,-329.01 567.94,-318.86 568.59,-309.99"/>
<polygon fill="midnightblue" stroke="midnightblue" points="572.1,-309.98 569.35,-299.75 565.12,-309.47 572.1,-309.98"/>
</g>
<!-- Node12 -->
<g id="node12" class="node">
<title>Node12</title>
<g id="a_node12"><a xlink:href="Object_8h.html" target="_top" xlink:title=" ">
<polygon fill="white" stroke="black" points="509.5,-224.5 509.5,-243.5 566.5,-243.5 566.5,-224.5 509.5,-224.5"/>
<text text-anchor="middle" x="538" y="-231.5" font-family="Helvetica,sans-Serif" font-size="10.00">Object.h</text>
</a>
</g>
</g>
<!-- Node11&#45;&gt;Node12 -->
<g id="edge11" class="edge">
<title>Node11&#45;&gt;Node12</title>
<path fill="none" stroke="midnightblue" d="M515.46,-280.08C519.15,-272.69 524.52,-261.95 529.09,-252.81"/>
<polygon fill="midnightblue" stroke="midnightblue" points="532.28,-254.26 533.62,-243.75 526.02,-251.13 532.28,-254.26"/>
</g>
<!-- Node12&#45;&gt;Node3 -->
<g id="edge12" class="edge">
<title>Node12&#45;&gt;Node3</title>
<path fill="none" stroke="midnightblue" d="M509.44,-233.03C473.64,-231.48 412.64,-223.36 377,-188 365.51,-176.6 340.31,-72.6 330.26,-29.54"/>
<polygon fill="midnightblue" stroke="midnightblue" points="333.67,-28.73 328,-19.78 326.85,-30.31 333.67,-28.73"/>
</g>
<!-- Node12&#45;&gt;Node4 -->
<g id="edge14" class="edge">
<title>Node12&#45;&gt;Node4</title>
<path fill="none" stroke="midnightblue" d="M509.36,-231.93C416.35,-228.19 126.87,-214.51 95,-188 81.6,-176.86 77.35,-156.83 76.14,-141.94"/>
<polygon fill="midnightblue" stroke="midnightblue" points="79.63,-141.63 75.71,-131.79 72.64,-141.92 79.63,-141.63"/>
</g>
<!-- Node12&#45;&gt;Node6 -->
<g id="edge29" class="edge">
<title>Node12&#45;&gt;Node6</title>
<path fill="none" stroke="midnightblue" d="M566.61,-228.88C619.01,-221.31 734.16,-204.57 841.47,-188.22"/>
<polygon fill="midnightblue" stroke="midnightblue" points="842.14,-191.66 851.5,-186.69 841.08,-184.74 842.14,-191.66"/>
</g>
<!-- Node12&#45;&gt;Node9 -->
<g id="edge27" class="edge">
<title>Node12&#45;&gt;Node9</title>
<path fill="none" stroke="midnightblue" d="M566.74,-230.33C645.58,-222.96 864.97,-202 956.8,-188"/>
<polygon fill="midnightblue" stroke="midnightblue" points="957.5,-191.43 966.83,-186.41 956.41,-184.51 957.5,-191.43"/>
</g>
<!-- Node13 -->
<g id="node13" class="node">
<title>Node13</title>
<g id="a_node13"><a xlink:title=" ">
<polygon fill="white" stroke="#bfbfbf" points="386.5,-168.5 386.5,-187.5 441.5,-187.5 441.5,-168.5 386.5,-168.5"/>
<text text-anchor="middle" x="414" y="-175.5" font-family="Helvetica,sans-Serif" font-size="10.00">fstream</text>
</a>
</g>
</g>
<!-- Node12&#45;&gt;Node13 -->
<g id="edge13" class="edge">
<title>Node12&#45;&gt;Node13</title>
<path fill="none" stroke="midnightblue" d="M518.35,-224.44C498.04,-215.6 466.1,-201.69 442.9,-191.59"/>
<polygon fill="midnightblue" stroke="midnightblue" points="444.12,-188.3 433.56,-187.52 441.33,-194.72 444.12,-188.3"/>
</g>
<!-- Node14 -->
<g id="node14" class="node">
<title>Node14</title>
<g id="a_node14"><a xlink:href="Vertex_8h.html" target="_top" xlink:title=" ">
<polygon fill="white" stroke="black" points="397.5,-56.5 397.5,-75.5 454.5,-75.5 454.5,-56.5 397.5,-56.5"/>
<text text-anchor="middle" x="426" y="-63.5" font-family="Helvetica,sans-Serif" font-size="10.00">Vertex.h</text>
</a>
</g>
</g>
<!-- Node12&#45;&gt;Node14 -->
<g id="edge15" class="edge">
<title>Node12&#45;&gt;Node14</title>
<path fill="none" stroke="midnightblue" d="M540.41,-224.12C543.43,-211.15 547.3,-186.54 539,-168 521.04,-127.86 478.38,-97.09 450.92,-80.56"/>
<polygon fill="midnightblue" stroke="midnightblue" points="452.64,-77.51 442.24,-75.5 449.12,-83.56 452.64,-77.51"/>
</g>
<!-- Node16 -->
<g id="node16" class="node">
<title>Node16</title>
<g id="a_node16"><a xlink:href="Edge_8h.html" target="_top" xlink:title=" ">
<polygon fill="white" stroke="black" points="401,-112.5 401,-131.5 451,-131.5 451,-112.5 401,-112.5"/>
<text text-anchor="middle" x="426" y="-119.5" font-family="Helvetica,sans-Serif" font-size="10.00">Edge.h</text>
</a>
</g>
</g>
<!-- Node12&#45;&gt;Node16 -->
<g id="edge18" class="edge">
<title>Node12&#45;&gt;Node16</title>
<path fill="none" stroke="midnightblue" d="M537.65,-224.39C536.68,-210.87 532.97,-184.51 519,-168 504.03,-150.31 480.49,-139.02 460.84,-132.17"/>
<polygon fill="midnightblue" stroke="midnightblue" points="461.86,-128.82 451.27,-129.07 459.71,-135.48 461.86,-128.82"/>
</g>
<!-- Node17 -->
<g id="node17" class="node">
<title>Node17</title>
<g id="a_node17"><a xlink:href="Face_8h.html" target="_top" xlink:title=" ">
<polygon fill="white" stroke="black" points="282.5,-168.5 282.5,-187.5 329.5,-187.5 329.5,-168.5 282.5,-168.5"/>
<text text-anchor="middle" x="306" y="-175.5" font-family="Helvetica,sans-Serif" font-size="10.00">Face.h</text>
</a>
</g>
</g>
<!-- Node12&#45;&gt;Node17 -->
<g id="edge20" class="edge">
<title>Node12&#45;&gt;Node17</title>
<path fill="none" stroke="midnightblue" d="M509.39,-226.41C471.54,-217.68 402.74,-201.77 344,-188 342.56,-187.66 341.08,-187.32 339.59,-186.96"/>
<polygon fill="midnightblue" stroke="midnightblue" points="340.25,-183.52 329.71,-184.63 338.64,-190.34 340.25,-183.52"/>
</g>
<!-- Node18 -->
<g id="node18" class="node">
<title>Node18</title>
<g id="a_node18"><a xlink:title=" ">
<polygon fill="white" stroke="#bfbfbf" points="460,-168.5 460,-187.5 510,-187.5 510,-168.5 460,-168.5"/>
<text text-anchor="middle" x="485" y="-175.5" font-family="Helvetica,sans-Serif" font-size="10.00">stdio.h</text>
</a>
</g>
</g>
<!-- Node12&#45;&gt;Node18 -->
<g id="edge24" class="edge">
<title>Node12&#45;&gt;Node18</title>
<path fill="none" stroke="midnightblue" d="M529.25,-224.08C521.53,-216.22 510.1,-204.57 500.78,-195.08"/>
<polygon fill="midnightblue" stroke="midnightblue" points="503.09,-192.44 493.59,-187.75 498.1,-197.34 503.09,-192.44"/>
</g>
<!-- Node19 -->
<g id="node19" class="node">
<title>Node19</title>
<g id="a_node19"><a xlink:title=" ">
<polygon fill="white" stroke="#bfbfbf" points="604.5,-168.5 604.5,-187.5 657.5,-187.5 657.5,-168.5 604.5,-168.5"/>
<text text-anchor="middle" x="631" y="-175.5" font-family="Helvetica,sans-Serif" font-size="10.00">stdlib.h</text>
</a>
</g>
</g>
<!-- Node12&#45;&gt;Node19 -->
<g id="edge25" class="edge">
<title>Node12&#45;&gt;Node19</title>
<path fill="none" stroke="midnightblue" d="M552.94,-224.32C567.59,-215.82 590.13,-202.73 607.24,-192.8"/>
<polygon fill="midnightblue" stroke="midnightblue" points="609.2,-195.7 616.1,-187.65 605.69,-189.65 609.2,-195.7"/>
</g>
<!-- Node20 -->
<g id="node20" class="node">
<title>Node20</title>
<g id="a_node20"><a xlink:title=" ">
<polygon fill="white" stroke="#bfbfbf" points="676,-168.5 676,-187.5 732,-187.5 732,-168.5 676,-168.5"/>
<text text-anchor="middle" x="704" y="-175.5" font-family="Helvetica,sans-Serif" font-size="10.00">sstream</text>
</a>
</g>
</g>
<!-- Node12&#45;&gt;Node20 -->
<g id="edge26" class="edge">
<title>Node12&#45;&gt;Node20</title>
<path fill="none" stroke="midnightblue" d="M564.3,-224.44C592.35,-215.32 636.94,-200.81 668.18,-190.65"/>
<polygon fill="midnightblue" stroke="midnightblue" points="669.39,-193.94 677.82,-187.52 667.23,-187.28 669.39,-193.94"/>
</g>
<!-- Node21 -->
<g id="node21" class="node">
<title>Node21</title>
<g id="a_node21"><a xlink:title=" ">
<polygon fill="white" stroke="#bfbfbf" points="750.5,-168.5 750.5,-187.5 833.5,-187.5 833.5,-168.5 750.5,-168.5"/>
<text text-anchor="middle" x="792" y="-175.5" font-family="Helvetica,sans-Serif" font-size="10.00">GLFW/glfw3.h</text>
</a>
</g>
</g>
<!-- Node12&#45;&gt;Node21 -->
<g id="edge28" class="edge">
<title>Node12&#45;&gt;Node21</title>
<path fill="none" stroke="midnightblue" d="M566.64,-226.91C609.09,-217.89 689.32,-200.83 741.7,-189.69"/>
<polygon fill="midnightblue" stroke="midnightblue" points="742.74,-193.05 751.79,-187.55 741.28,-186.2 742.74,-193.05"/>
</g>
<!-- Node22 -->
<g id="node22" class="node">
<title>Node22</title>
<g id="a_node22"><a xlink:title=" ">
<polygon fill="white" stroke="#bfbfbf" points="104,-168.5 104,-187.5 264,-187.5 264,-168.5 104,-168.5"/>
<text text-anchor="middle" x="184" y="-175.5" font-family="Helvetica,sans-Serif" font-size="10.00">glm/ext/scalar_constants.hpp</text>
</a>
</g>
</g>
<!-- Node12&#45;&gt;Node22 -->
<g id="edge30" class="edge">
<title>Node12&#45;&gt;Node22</title>
<path fill="none" stroke="midnightblue" d="M509.33,-228.63C453.25,-220.07 327.75,-200.93 250.05,-189.08"/>
<polygon fill="midnightblue" stroke="midnightblue" points="250.3,-185.57 239.88,-187.52 249.24,-192.49 250.3,-185.57"/>
</g>
<!-- Node14&#45;&gt;Node3 -->
<g id="edge16" class="edge">
<title>Node14&#45;&gt;Node3</title>
<path fill="none" stroke="midnightblue" d="M409.93,-56.32C394.04,-47.74 369.49,-34.49 351.04,-24.52"/>
<polygon fill="midnightblue" stroke="midnightblue" points="352.49,-21.33 342.03,-19.65 349.16,-27.49 352.49,-21.33"/>
</g>
<!-- Node15 -->
<g id="node15" class="node">
<title>Node15</title>
<g id="a_node15"><a xlink:title=" ">
<polygon fill="white" stroke="#bfbfbf" points="394.5,-0.5 394.5,-19.5 457.5,-19.5 457.5,-0.5 394.5,-0.5"/>
<text text-anchor="middle" x="426" y="-7.5" font-family="Helvetica,sans-Serif" font-size="10.00">armadillo</text>
</a>
</g>
</g>
<!-- Node14&#45;&gt;Node15 -->
<g id="edge17" class="edge">
<title>Node14&#45;&gt;Node15</title>
<path fill="none" stroke="midnightblue" d="M426,-56.08C426,-49.01 426,-38.86 426,-29.99"/>
<polygon fill="midnightblue" stroke="midnightblue" points="429.5,-29.75 426,-19.75 422.5,-29.75 429.5,-29.75"/>
</g>
<!-- Node16&#45;&gt;Node14 -->
<g id="edge19" class="edge">
<title>Node16&#45;&gt;Node14</title>
<path fill="none" stroke="midnightblue" d="M426,-112.08C426,-105.01 426,-94.86 426,-85.99"/>
<polygon fill="midnightblue" stroke="midnightblue" points="429.5,-85.75 426,-75.75 422.5,-85.75 429.5,-85.75"/>
</g>
<!-- Node17&#45;&gt;Node3 -->
<g id="edge22" class="edge">
<title>Node17&#45;&gt;Node3</title>
<path fill="none" stroke="midnightblue" d="M307.08,-168.08C310.22,-141.95 319.47,-65.21 323.76,-29.58"/>
<polygon fill="midnightblue" stroke="midnightblue" points="327.25,-29.92 324.97,-19.57 320.3,-29.08 327.25,-29.92"/>
</g>
<!-- Node17&#45;&gt;Node4 -->
<g id="edge23" class="edge">
<title>Node17&#45;&gt;Node4</title>
<path fill="none" stroke="midnightblue" d="M282.24,-170.39C279.14,-169.57 276,-168.75 273,-168 215.83,-153.68 148.86,-138.78 109.57,-130.22"/>
<polygon fill="midnightblue" stroke="midnightblue" points="110.24,-126.79 99.73,-128.09 108.76,-133.63 110.24,-126.79"/>
</g>
<!-- Node17&#45;&gt;Node16 -->
<g id="edge21" class="edge">
<title>Node17&#45;&gt;Node16</title>
<path fill="none" stroke="midnightblue" d="M325.01,-168.44C344.59,-159.64 375.31,-145.81 397.73,-135.72"/>
<polygon fill="midnightblue" stroke="midnightblue" points="399.39,-138.81 407.07,-131.52 396.52,-132.43 399.39,-138.81"/>
</g>
<!-- Node23&#45;&gt;Node12 -->
<g id="edge32" class="edge">
<title>Node23&#45;&gt;Node12</title>
<path fill="none" stroke="midnightblue" d="M564.72,-280.08C560.29,-272.61 553.84,-261.72 548.38,-252.52"/>
<polygon fill="midnightblue" stroke="midnightblue" points="551.29,-250.57 543.19,-243.75 545.27,-254.14 551.29,-250.57"/>
</g>
</g>
</svg>
