<?xml version="1.0" encoding="UTF-8" standalone="no"?>
<!DOCTYPE svg PUBLIC "-//W3C//DTD SVG 1.1//EN"
 "http://www.w3.org/Graphics/SVG/1.1/DTD/svg11.dtd">
<!-- Generated by graphviz version 2.43.0 (0)
 -->
<!-- Title: include/Face.h Pages: 1 -->
<svg width="397pt" height="196pt"
 viewBox="0.00 0.00 396.50 196.00" xmlns="http://www.w3.org/2000/svg" xmlns:xlink="http://www.w3.org/1999/xlink">
<g id="graph0" class="graph" transform="scale(1 1) rotate(0) translate(4 192)">
<title>include/Face.h</title>
<polygon fill="white" stroke="transparent" points="-4,4 -4,-192 392.5,-192 392.5,4 -4,4"/>
<!-- Node1 -->
<g id="node1" class="node">
<title>Node1</title>
<g id="a_node1"><a xlink:title=" ">
<polygon fill="#bfbfbf" stroke="black" points="169,-168.5 169,-187.5 255,-187.5 255,-168.5 169,-168.5"/>
<text text-anchor="middle" x="212" y="-175.5" font-family="Helvetica,sans-Serif" font-size="10.00">include/Face.h</text>
</a>
</g>
</g>
<!-- Node2 -->
<g id="node2" class="node">
<title>Node2</title>
<g id="a_node2"><a xlink:href="Edge_8h.html" target="_top" xlink:title=" ">
<polygon fill="white" stroke="black" points="132,-112.5 132,-131.5 182,-131.5 182,-112.5 132,-112.5"/>
<text text-anchor="middle" x="157" y="-119.5" font-family="Helvetica,sans-Serif" font-size="10.00">Edge.h</text>
</a>
</g>
</g>
<!-- Node1&#45;&gt;Node2 -->
<g id="edge1" class="edge">
<title>Node1&#45;&gt;Node2</title>
<path fill="none" stroke="midnightblue" d="M202.92,-168.08C194.83,-160.14 182.8,-148.34 173.09,-138.8"/>
<polygon fill="midnightblue" stroke="midnightblue" points="175.5,-136.26 165.91,-131.75 170.6,-141.25 175.5,-136.26"/>
</g>
<!-- Node4 -->
<g id="node4" class="node">
<title>Node4</title>
<g id="a_node4"><a xlink:title=" ">
<polygon fill="white" stroke="#bfbfbf" points="0,-0.5 0,-19.5 60,-19.5 60,-0.5 0,-0.5"/>
<text text-anchor="middle" x="30" y="-7.5" font-family="Helvetica,sans-Serif" font-size="10.00">iostream</text>
</a>
</g>
</g>
<!-- Node1&#45;&gt;Node4 -->
<g id="edge7" class="edge">
<title>Node1&#45;&gt;Node4</title>
<path fill="none" stroke="midnightblue" d="M188.38,-168.46C169.4,-160.83 142.73,-148.35 123,-132 86.25,-101.56 55.18,-54.07 39.99,-28.58"/>
<polygon fill="midnightblue" stroke="midnightblue" points="42.86,-26.56 34.8,-19.68 36.82,-30.08 42.86,-26.56"/>
</g>
<!-- Node7 -->
<g id="node7" class="node">
<title>Node7</title>
<g id="a_node7"><a xlink:title=" ">
<polygon fill="white" stroke="#bfbfbf" points="261,-0.5 261,-19.5 339,-19.5 339,-0.5 261,-0.5"/>
<text text-anchor="middle" x="300" y="-7.5" font-family="Helvetica,sans-Serif" font-size="10.00">glm/glm.hpp</text>
</a>
</g>
</g>
<!-- Node1&#45;&gt;Node7 -->
<g id="edge10" class="edge">
<title>Node1&#45;&gt;Node7</title>
<path fill="none" stroke="midnightblue" d="M213.82,-168.29C216.67,-155.52 222.84,-131.18 232,-112 247.18,-80.22 271.4,-47.02 286.47,-27.72"/>
<polygon fill="midnightblue" stroke="midnightblue" points="289.4,-29.66 292.87,-19.65 283.91,-25.31 289.4,-29.66"/>
</g>
<!-- Node8 -->
<g id="node8" class="node">
<title>Node8</title>
<g id="a_node8"><a xlink:title=" ">
<polygon fill="white" stroke="#bfbfbf" points="240.5,-112.5 240.5,-131.5 287.5,-131.5 287.5,-112.5 240.5,-112.5"/>
<text text-anchor="middle" x="264" y="-119.5" font-family="Helvetica,sans-Serif" font-size="10.00">vector</text>
</a>
</g>
</g>
<!-- Node1&#45;&gt;Node8 -->
<g id="edge8" class="edge">
<title>Node1&#45;&gt;Node8</title>
<path fill="none" stroke="midnightblue" d="M220.59,-168.08C228.16,-160.22 239.38,-148.57 248.51,-139.08"/>
<polygon fill="midnightblue" stroke="midnightblue" points="251.16,-141.38 255.57,-131.75 246.12,-136.53 251.16,-141.38"/>
</g>
<!-- Node9 -->
<g id="node9" class="node">
<title>Node9</title>
<g id="a_node9"><a xlink:title=" ">
<polygon fill="white" stroke="#bfbfbf" points="305.5,-112.5 305.5,-131.5 388.5,-131.5 388.5,-112.5 305.5,-112.5"/>
<text text-anchor="middle" x="347" y="-119.5" font-family="Helvetica,sans-Serif" font-size="10.00">glm/vec4.hpp</text>
</a>
</g>
</g>
<!-- Node1&#45;&gt;Node9 -->
<g id="edge9" class="edge">
<title>Node1&#45;&gt;Node9</title>
<path fill="none" stroke="midnightblue" d="M233.39,-168.44C255.71,-159.52 290.9,-145.44 316.21,-135.32"/>
<polygon fill="midnightblue" stroke="midnightblue" points="317.72,-138.48 325.71,-131.52 315.12,-131.98 317.72,-138.48"/>
</g>
<!-- Node3 -->
<g id="node3" class="node">
<title>Node3</title>
<g id="a_node3"><a xlink:href="Vertex_8h.html" target="_top" xlink:title=" ">
<polygon fill="white" stroke="black" points="126.5,-56.5 126.5,-75.5 183.5,-75.5 183.5,-56.5 126.5,-56.5"/>
<text text-anchor="middle" x="155" y="-63.5" font-family="Helvetica,sans-Serif" font-size="10.00">Vertex.h</text>
</a>
</g>
</g>
<!-- Node2&#45;&gt;Node3 -->
<g id="edge2" class="edge">
<title>Node2&#45;&gt;Node3</title>
<path fill="none" stroke="midnightblue" d="M156.67,-112.08C156.41,-105.01 156.03,-94.86 155.7,-85.99"/>
<polygon fill="midnightblue" stroke="midnightblue" points="159.19,-85.61 155.32,-75.75 152.2,-85.87 159.19,-85.61"/>
</g>
<!-- Node3&#45;&gt;Node4 -->
<g id="edge3" class="edge">
<title>Node3&#45;&gt;Node4</title>
<path fill="none" stroke="midnightblue" d="M135.19,-56.44C114.71,-47.6 82.52,-33.69 59.14,-23.59"/>
<polygon fill="midnightblue" stroke="midnightblue" points="60.28,-20.27 49.71,-19.52 57.51,-26.7 60.28,-20.27"/>
</g>
<!-- Node5 -->
<g id="node5" class="node">
<title>Node5</title>
<g id="a_node5"><a xlink:title=" ">
<polygon fill="white" stroke="#bfbfbf" points="78.5,-0.5 78.5,-19.5 141.5,-19.5 141.5,-0.5 78.5,-0.5"/>
<text text-anchor="middle" x="110" y="-7.5" font-family="Helvetica,sans-Serif" font-size="10.00">armadillo</text>
</a>
</g>
</g>
<!-- Node3&#45;&gt;Node5 -->
<g id="edge4" class="edge">
<title>Node3&#45;&gt;Node5</title>
<path fill="none" stroke="midnightblue" d="M147.57,-56.08C141.15,-48.38 131.69,-37.03 123.88,-27.65"/>
<polygon fill="midnightblue" stroke="midnightblue" points="126.38,-25.19 117.29,-19.75 121.01,-29.67 126.38,-25.19"/>
</g>
<!-- Node6 -->
<g id="node6" class="node">
<title>Node6</title>
<g id="a_node6"><a xlink:title=" ">
<polygon fill="white" stroke="#bfbfbf" points="159.5,-0.5 159.5,-19.5 242.5,-19.5 242.5,-0.5 159.5,-0.5"/>
<text text-anchor="middle" x="201" y="-7.5" font-family="Helvetica,sans-Serif" font-size="10.00">glm/vec3.hpp</text>
</a>
</g>
</g>
<!-- Node3&#45;&gt;Node6 -->
<g id="edge5" class="edge">
<title>Node3&#45;&gt;Node6</title>
<path fill="none" stroke="midnightblue" d="M162.6,-56.08C169.23,-48.3 179.02,-36.8 187.06,-27.37"/>
<polygon fill="midnightblue" stroke="midnightblue" points="189.73,-29.63 193.55,-19.75 184.4,-25.09 189.73,-29.63"/>
</g>
<!-- Node3&#45;&gt;Node7 -->
<g id="edge6" class="edge">
<title>Node3&#45;&gt;Node7</title>
<path fill="none" stroke="midnightblue" d="M177.98,-56.44C202.16,-47.44 240.42,-33.19 267.65,-23.05"/>
<polygon fill="midnightblue" stroke="midnightblue" points="268.98,-26.29 277.13,-19.52 266.54,-19.73 268.98,-26.29"/>
</g>
</g>
</svg>
