<?xml version="1.0" encoding="UTF-8" standalone="no"?>
<!DOCTYPE svg PUBLIC "-//W3C//DTD SVG 1.1//EN"
 "http://www.w3.org/Graphics/SVG/1.1/DTD/svg11.dtd">
<!-- Generated by graphviz version 2.43.0 (0)
 -->
<!-- Title: main Pages: 1 -->
<svg width="391pt" height="294pt"
 viewBox="0.00 0.00 391.00 294.00" xmlns="http://www.w3.org/2000/svg" xmlns:xlink="http://www.w3.org/1999/xlink">
<g id="graph0" class="graph" transform="scale(1 1) rotate(0) translate(4 290)">
<title>main</title>
<polygon fill="white" stroke="transparent" points="-4,4 -4,-290 387,-290 387,4 -4,4"/>
<!-- Node1 -->
<g id="node1" class="node">
<title>Node1</title>
<g id="a_node1"><a xlink:title="Main functiond.">
<polygon fill="#bfbfbf" stroke="black" points="0,-133.5 0,-152.5 41,-152.5 41,-133.5 0,-133.5"/>
<text text-anchor="middle" x="20.5" y="-140.5" font-family="Helvetica,sans-Serif" font-size="10.00">main</text>
</a>
</g>
</g>
<!-- Node2 -->
<g id="node2" class="node">
<title>Node2</title>
<g id="a_node2"><a xlink:href="classSimulation.html#af3b86332848f469748212b35e078980c" target="_top" xlink:title="This method changes the camera.">
<polygon fill="white" stroke="black" points="77,-266.5 77,-285.5 226,-285.5 226,-266.5 77,-266.5"/>
<text text-anchor="middle" x="151.5" y="-273.5" font-family="Helvetica,sans-Serif" font-size="10.00">Simulation::changeCamera</text>
</a>
</g>
</g>
<!-- Node1&#45;&gt;Node2 -->
<g id="edge1" class="edge">
<title>Node1&#45;&gt;Node2</title>
<path fill="none" stroke="midnightblue" d="M23.34,-152.65C28.07,-174.69 42.75,-229 77,-257 79.05,-258.68 81.24,-260.21 83.52,-261.61"/>
<polygon fill="midnightblue" stroke="midnightblue" points="82.25,-264.89 92.74,-266.37 85.46,-258.67 82.25,-264.89"/>
</g>
<!-- Node3 -->
<g id="node3" class="node">
<title>Node3</title>
<g id="a_node3"><a xlink:href="classOpenGL.html#a1a09abe8b7a1075baf9b8f21f0a0f43a" target="_top" xlink:title="This method creates the window and load the shaders.">
<polygon fill="white" stroke="black" points="86,-228.5 86,-247.5 217,-247.5 217,-228.5 86,-228.5"/>
<text text-anchor="middle" x="151.5" y="-235.5" font-family="Helvetica,sans-Serif" font-size="10.00">OpenGL::createWindow</text>
</a>
</g>
</g>
<!-- Node1&#45;&gt;Node3 -->
<g id="edge2" class="edge">
<title>Node1&#45;&gt;Node3</title>
<path fill="none" stroke="midnightblue" d="M25.79,-152.59C33.57,-168.85 51.59,-201.75 77,-219 79.92,-220.99 83.04,-222.76 86.28,-224.35"/>
<polygon fill="midnightblue" stroke="midnightblue" points="85.1,-227.66 95.67,-228.37 87.85,-221.22 85.1,-227.66"/>
</g>
<!-- Node5 -->
<g id="node5" class="node">
<title>Node5</title>
<g id="a_node5"><a xlink:href="classOpenGL.html#a39d87020db31c36e3efb53c42f70cfde" target="_top" xlink:title="This method returns the program ID.">
<polygon fill="white" stroke="black" points="87.5,-190.5 87.5,-209.5 215.5,-209.5 215.5,-190.5 87.5,-190.5"/>
<text text-anchor="middle" x="151.5" y="-197.5" font-family="Helvetica,sans-Serif" font-size="10.00">OpenGL::getProgramID</text>
</a>
</g>
</g>
<!-- Node1&#45;&gt;Node5 -->
<g id="edge4" class="edge">
<title>Node1&#45;&gt;Node5</title>
<path fill="none" stroke="midnightblue" d="M33.11,-152.75C43.87,-161.32 60.63,-173.56 77,-181 82.3,-183.41 87.97,-185.56 93.71,-187.45"/>
<polygon fill="midnightblue" stroke="midnightblue" points="92.81,-190.84 103.39,-190.42 94.86,-184.15 92.81,-190.84"/>
</g>
<!-- Node6 -->
<g id="node6" class="node">
<title>Node6</title>
<g id="a_node6"><a xlink:href="classSimulation.html#a089ec7ead73faead7ff9cef850b9c09c" target="_top" xlink:title="This method initializes the simulation.">
<polygon fill="white" stroke="black" points="106,-152.5 106,-171.5 197,-171.5 197,-152.5 106,-152.5"/>
<text text-anchor="middle" x="151.5" y="-159.5" font-family="Helvetica,sans-Serif" font-size="10.00">Simulation::init</text>
</a>
</g>
</g>
<!-- Node1&#45;&gt;Node6 -->
<g id="edge5" class="edge">
<title>Node1&#45;&gt;Node6</title>
<path fill="none" stroke="midnightblue" d="M41.09,-145.89C55.68,-148.03 76.34,-151.08 95.79,-153.94"/>
<polygon fill="midnightblue" stroke="midnightblue" points="95.41,-157.42 105.82,-155.42 96.43,-150.5 95.41,-157.42"/>
</g>
<!-- Node7 -->
<g id="node7" class="node">
<title>Node7</title>
<g id="a_node7"><a xlink:href="main_8cpp.html#a3bdcf6a9fea060f330fc13546590f1a6" target="_top" xlink:title=" ">
<polygon fill="white" stroke="black" points="98,-114.5 98,-133.5 205,-133.5 205,-114.5 98,-114.5"/>
<text text-anchor="middle" x="151.5" y="-121.5" font-family="Helvetica,sans-Serif" font-size="10.00">keyboard_callback</text>
</a>
</g>
</g>
<!-- Node1&#45;&gt;Node7 -->
<g id="edge6" class="edge">
<title>Node1&#45;&gt;Node7</title>
<path fill="none" stroke="midnightblue" d="M41.09,-140.11C53.7,-138.26 70.86,-135.73 87.84,-133.23"/>
<polygon fill="midnightblue" stroke="midnightblue" points="88.4,-136.68 97.78,-131.76 87.38,-129.76 88.4,-136.68"/>
</g>
<!-- Node8 -->
<g id="node8" class="node">
<title>Node8</title>
<g id="a_node8"><a xlink:href="main_8cpp.html#a5515d805e76ce6728de3c0dc5e187c86" target="_top" xlink:title=" ">
<polygon fill="white" stroke="black" points="85.5,-76.5 85.5,-95.5 217.5,-95.5 217.5,-76.5 85.5,-76.5"/>
<text text-anchor="middle" x="151.5" y="-83.5" font-family="Helvetica,sans-Serif" font-size="10.00">mouse_button_callback</text>
</a>
</g>
</g>
<!-- Node1&#45;&gt;Node8 -->
<g id="edge7" class="edge">
<title>Node1&#45;&gt;Node8</title>
<path fill="none" stroke="midnightblue" d="M33.11,-133.25C43.87,-124.68 60.63,-112.44 77,-105 82.3,-102.59 87.97,-100.44 93.71,-98.55"/>
<polygon fill="midnightblue" stroke="midnightblue" points="94.86,-101.85 103.39,-95.58 92.81,-95.16 94.86,-101.85"/>
</g>
<!-- Node9 -->
<g id="node9" class="node">
<title>Node9</title>
<g id="a_node9"><a xlink:href="classSimulation.html#ac8c400b6601382f9b13e946bc1f069b5" target="_top" xlink:title="This method sets the point.">
<polygon fill="white" stroke="black" points="94,-38.5 94,-57.5 209,-57.5 209,-38.5 94,-38.5"/>
<text text-anchor="middle" x="151.5" y="-45.5" font-family="Helvetica,sans-Serif" font-size="10.00">Simulation::setPoint</text>
</a>
</g>
</g>
<!-- Node1&#45;&gt;Node9 -->
<g id="edge8" class="edge">
<title>Node1&#45;&gt;Node9</title>
<path fill="none" stroke="midnightblue" d="M25.79,-133.41C33.57,-117.15 51.59,-84.25 77,-67 79.92,-65.01 83.04,-63.24 86.28,-61.65"/>
<polygon fill="midnightblue" stroke="midnightblue" points="87.85,-64.78 95.67,-57.63 85.1,-58.34 87.85,-64.78"/>
</g>
<!-- Node10 -->
<g id="node10" class="node">
<title>Node10</title>
<g id="a_node10"><a xlink:href="classSimulation.html#a97bef69643599266dd8cd5a71d8f93b7" target="_top" xlink:title="This method sets the second point.">
<polygon fill="white" stroke="black" points="91,-0.5 91,-19.5 212,-19.5 212,-0.5 91,-0.5"/>
<text text-anchor="middle" x="151.5" y="-7.5" font-family="Helvetica,sans-Serif" font-size="10.00">Simulation::setPoint2</text>
</a>
</g>
</g>
<!-- Node1&#45;&gt;Node10 -->
<g id="edge9" class="edge">
<title>Node1&#45;&gt;Node10</title>
<path fill="none" stroke="midnightblue" d="M23.34,-133.35C28.07,-111.31 42.75,-57 77,-29 79.05,-27.32 81.24,-25.79 83.52,-24.39"/>
<polygon fill="midnightblue" stroke="midnightblue" points="85.46,-27.33 92.74,-19.63 82.25,-21.11 85.46,-27.33"/>
</g>
<!-- Node4 -->
<g id="node4" class="node">
<title>Node4</title>
<g id="a_node4"><a xlink:href="classOpenGL.html#a223dc8b2e5faf362371912a4f2221d5b" target="_top" xlink:title="This method loads the shaders.">
<polygon fill="white" stroke="black" points="262,-228.5 262,-247.5 383,-247.5 383,-228.5 262,-228.5"/>
<text text-anchor="middle" x="322.5" y="-235.5" font-family="Helvetica,sans-Serif" font-size="10.00">OpenGL::loadShaders</text>
</a>
</g>
</g>
<!-- Node3&#45;&gt;Node4 -->
<g id="edge3" class="edge">
<title>Node3&#45;&gt;Node4</title>
<path fill="none" stroke="midnightblue" d="M217.36,-238C228.55,-238 240.22,-238 251.54,-238"/>
<polygon fill="midnightblue" stroke="midnightblue" points="251.81,-241.5 261.81,-238 251.81,-234.5 251.81,-241.5"/>
</g>
</g>
</svg>
