<?xml version="1.0" encoding="UTF-8" standalone="no"?>
<!DOCTYPE svg PUBLIC "-//W3C//DTD SVG 1.1//EN"
 "http://www.w3.org/Graphics/SVG/1.1/DTD/svg11.dtd">
<!-- Generated by graphviz version 2.43.0 (0)
 -->
<!-- Title: main Pages: 1 -->
<svg width="522pt" height="284pt"
 viewBox="0.00 0.00 522.00 284.00" xmlns="http://www.w3.org/2000/svg" xmlns:xlink="http://www.w3.org/1999/xlink">
<g id="graph0" class="graph" transform="scale(1 1) rotate(0) translate(4 280)">
<title>main</title>
<polygon fill="white" stroke="transparent" points="-4,4 -4,-280 518,-280 518,4 -4,4"/>
<!-- Node1 -->
<g id="node1" class="node">
<title>Node1</title>
<g id="a_node1"><a xlink:title="Inicilizacion de simulacion.">
<polygon fill="#bfbfbf" stroke="black" points="0,-95.5 0,-114.5 41,-114.5 41,-95.5 0,-95.5"/>
<text text-anchor="middle" x="20.5" y="-102.5" font-family="Helvetica,sans-Serif" font-size="10.00">main</text>
</a>
</g>
</g>
<!-- Node2 -->
<g id="node2" class="node">
<title>Node2</title>
<g id="a_node2"><a xlink:href="classScene.html#aef70538258ae4abfad9563523de0ece0" target="_top" xlink:title="This method runs the simulation.">
<polygon fill="white" stroke="black" points="77,-95.5 77,-114.5 145,-114.5 145,-95.5 77,-95.5"/>
<text text-anchor="middle" x="111" y="-102.5" font-family="Helvetica,sans-Serif" font-size="10.00">Scene::run</text>
</a>
</g>
</g>
<!-- Node1&#45;&gt;Node2 -->
<g id="edge1" class="edge">
<title>Node1&#45;&gt;Node2</title>
<path fill="none" stroke="midnightblue" d="M41.14,-105C48.76,-105 57.81,-105 66.8,-105"/>
<polygon fill="midnightblue" stroke="midnightblue" points="66.85,-108.5 76.85,-105 66.85,-101.5 66.85,-108.5"/>
</g>
<!-- Node3 -->
<g id="node3" class="node">
<title>Node3</title>
<g id="a_node3"><a xlink:href="classSimulation.html#af3b86332848f469748212b35e078980c" target="_top" xlink:title="This method changes the camera.">
<polygon fill="white" stroke="black" points="181,-199.5 181,-218.5 330,-218.5 330,-199.5 181,-199.5"/>
<text text-anchor="middle" x="255.5" y="-206.5" font-family="Helvetica,sans-Serif" font-size="10.00">Simulation::changeCamera</text>
</a>
</g>
</g>
<!-- Node2&#45;&gt;Node3 -->
<g id="edge2" class="edge">
<title>Node2&#45;&gt;Node3</title>
<path fill="none" stroke="midnightblue" d="M118.51,-114.75C129.6,-130.66 153.62,-162.32 181,-181 189.8,-187.01 200.07,-191.95 210.09,-195.93"/>
<polygon fill="midnightblue" stroke="midnightblue" points="208.98,-199.25 219.57,-199.45 211.41,-192.69 208.98,-199.25"/>
</g>
<!-- Node7 -->
<g id="node7" class="node">
<title>Node7</title>
<g id="a_node7"><a xlink:href="classOpenGL.html#a1a09abe8b7a1075baf9b8f21f0a0f43a" target="_top" xlink:title="This method creates the window and load the shaders.">
<polygon fill="white" stroke="black" points="190,-152.5 190,-171.5 321,-171.5 321,-152.5 190,-152.5"/>
<text text-anchor="middle" x="255.5" y="-159.5" font-family="Helvetica,sans-Serif" font-size="10.00">OpenGL::createWindow</text>
</a>
</g>
</g>
<!-- Node2&#45;&gt;Node7 -->
<g id="edge6" class="edge">
<title>Node2&#45;&gt;Node7</title>
<path fill="none" stroke="midnightblue" d="M126.81,-114.59C140.43,-123.05 161.43,-135.22 181,-143 187.17,-145.45 193.76,-147.68 200.37,-149.66"/>
<polygon fill="midnightblue" stroke="midnightblue" points="199.43,-153.04 210.01,-152.41 201.35,-146.3 199.43,-153.04"/>
</g>
<!-- Node9 -->
<g id="node9" class="node">
<title>Node9</title>
<g id="a_node9"><a xlink:href="classOpenGL.html#a39d87020db31c36e3efb53c42f70cfde" target="_top" xlink:title="This method returns the program ID.">
<polygon fill="white" stroke="black" points="191.5,-114.5 191.5,-133.5 319.5,-133.5 319.5,-114.5 191.5,-114.5"/>
<text text-anchor="middle" x="255.5" y="-121.5" font-family="Helvetica,sans-Serif" font-size="10.00">OpenGL::getProgramID</text>
</a>
</g>
</g>
<!-- Node2&#45;&gt;Node9 -->
<g id="edge8" class="edge">
<title>Node2&#45;&gt;Node9</title>
<path fill="none" stroke="midnightblue" d="M145.05,-109.41C155.95,-110.86 168.54,-112.54 181.22,-114.23"/>
<polygon fill="midnightblue" stroke="midnightblue" points="181,-117.73 191.38,-115.58 181.93,-110.79 181,-117.73"/>
</g>
<!-- Node10 -->
<g id="node10" class="node">
<title>Node10</title>
<g id="a_node10"><a xlink:href="classSimulation.html#a089ec7ead73faead7ff9cef850b9c09c" target="_top" xlink:title="This method initializes the simulation.">
<polygon fill="white" stroke="black" points="210,-76.5 210,-95.5 301,-95.5 301,-76.5 210,-76.5"/>
<text text-anchor="middle" x="255.5" y="-83.5" font-family="Helvetica,sans-Serif" font-size="10.00">Simulation::init</text>
</a>
</g>
</g>
<!-- Node2&#45;&gt;Node10 -->
<g id="edge9" class="edge">
<title>Node2&#45;&gt;Node10</title>
<path fill="none" stroke="midnightblue" d="M145.05,-100.59C161.28,-98.43 181.27,-95.76 199.71,-93.31"/>
<polygon fill="midnightblue" stroke="midnightblue" points="200.3,-96.76 209.75,-91.97 199.38,-89.82 200.3,-96.76"/>
</g>
<!-- Node11 -->
<g id="node11" class="node">
<title>Node11</title>
<g id="a_node11"><a xlink:href="classSimulation.html#ac8c400b6601382f9b13e946bc1f069b5" target="_top" xlink:title="This method sets the point.">
<polygon fill="white" stroke="black" points="198,-38.5 198,-57.5 313,-57.5 313,-38.5 198,-38.5"/>
<text text-anchor="middle" x="255.5" y="-45.5" font-family="Helvetica,sans-Serif" font-size="10.00">Simulation::setPoint</text>
</a>
</g>
</g>
<!-- Node2&#45;&gt;Node11 -->
<g id="edge10" class="edge">
<title>Node2&#45;&gt;Node11</title>
<path fill="none" stroke="midnightblue" d="M126.81,-95.41C140.43,-86.95 161.43,-74.78 181,-67 187.17,-64.55 193.76,-62.32 200.37,-60.34"/>
<polygon fill="midnightblue" stroke="midnightblue" points="201.35,-63.7 210.01,-57.59 199.43,-56.96 201.35,-63.7"/>
</g>
<!-- Node12 -->
<g id="node12" class="node">
<title>Node12</title>
<g id="a_node12"><a xlink:href="classSimulation.html#a97bef69643599266dd8cd5a71d8f93b7" target="_top" xlink:title="This method sets the second point.">
<polygon fill="white" stroke="black" points="195,-0.5 195,-19.5 316,-19.5 316,-0.5 195,-0.5"/>
<text text-anchor="middle" x="255.5" y="-7.5" font-family="Helvetica,sans-Serif" font-size="10.00">Simulation::setPoint2</text>
</a>
</g>
</g>
<!-- Node2&#45;&gt;Node12 -->
<g id="edge11" class="edge">
<title>Node2&#45;&gt;Node12</title>
<path fill="none" stroke="midnightblue" d="M117.95,-95.43C128.55,-79.19 152.32,-46.32 181,-29 184.62,-26.82 188.48,-24.88 192.47,-23.17"/>
<polygon fill="midnightblue" stroke="midnightblue" points="193.87,-26.38 201.97,-19.55 191.38,-19.84 193.87,-26.38"/>
</g>
<!-- Node4 -->
<g id="node4" class="node">
<title>Node4</title>
<g id="a_node4"><a xlink:href="classScene.html#af51c1a302474e69cfd7649d5a049c2f9" target="_top" xlink:title=" ">
<polygon fill="white" stroke="black" points="366,-256.5 366,-275.5 514,-275.5 514,-256.5 366,-256.5"/>
<text text-anchor="middle" x="440" y="-263.5" font-family="Helvetica,sans-Serif" font-size="10.00">Scene::getCameraPrincipal</text>
</a>
</g>
</g>
<!-- Node3&#45;&gt;Node4 -->
<g id="edge3" class="edge">
<title>Node3&#45;&gt;Node4</title>
<path fill="none" stroke="midnightblue" d="M282.42,-218.65C304.48,-226.7 337.11,-238.24 366,-247 373.75,-249.35 382.02,-251.67 390.1,-253.85"/>
<polygon fill="midnightblue" stroke="midnightblue" points="389.26,-257.24 399.82,-256.41 391.04,-250.47 389.26,-257.24"/>
</g>
<!-- Node5 -->
<g id="node5" class="node">
<title>Node5</title>
<g id="a_node5"><a xlink:href="classScene.html#ad337ea0bf514faab5f9ce9617f833311" target="_top" xlink:title=" ">
<polygon fill="white" stroke="black" points="384,-218.5 384,-237.5 496,-237.5 496,-218.5 384,-218.5"/>
<text text-anchor="middle" x="440" y="-225.5" font-family="Helvetica,sans-Serif" font-size="10.00">Scene::getCameraY</text>
</a>
</g>
</g>
<!-- Node3&#45;&gt;Node5 -->
<g id="edge4" class="edge">
<title>Node3&#45;&gt;Node5</title>
<path fill="none" stroke="midnightblue" d="M330.2,-216.67C344.61,-218.17 359.63,-219.74 373.74,-221.21"/>
<polygon fill="midnightblue" stroke="midnightblue" points="373.52,-224.7 383.83,-222.26 374.25,-217.74 373.52,-224.7"/>
</g>
<!-- Node6 -->
<g id="node6" class="node">
<title>Node6</title>
<g id="a_node6"><a xlink:href="classScene.html#ac1539c53e753e76c879d0c60e4052507" target="_top" xlink:title=" ">
<polygon fill="white" stroke="black" points="383.5,-180.5 383.5,-199.5 496.5,-199.5 496.5,-180.5 383.5,-180.5"/>
<text text-anchor="middle" x="440" y="-187.5" font-family="Helvetica,sans-Serif" font-size="10.00">Scene::getCameraZ</text>
</a>
</g>
</g>
<!-- Node3&#45;&gt;Node6 -->
<g id="edge5" class="edge">
<title>Node3&#45;&gt;Node6</title>
<path fill="none" stroke="midnightblue" d="M330.2,-201.33C344.45,-199.84 359.3,-198.3 373.27,-196.84"/>
<polygon fill="midnightblue" stroke="midnightblue" points="373.69,-200.32 383.27,-195.8 372.96,-193.36 373.69,-200.32"/>
</g>
<!-- Node8 -->
<g id="node8" class="node">
<title>Node8</title>
<g id="a_node8"><a xlink:href="classOpenGL.html#a223dc8b2e5faf362371912a4f2221d5b" target="_top" xlink:title="This method loads the shaders.">
<polygon fill="white" stroke="black" points="379.5,-142.5 379.5,-161.5 500.5,-161.5 500.5,-142.5 379.5,-142.5"/>
<text text-anchor="middle" x="440" y="-149.5" font-family="Helvetica,sans-Serif" font-size="10.00">OpenGL::loadShaders</text>
</a>
</g>
</g>
<!-- Node7&#45;&gt;Node8 -->
<g id="edge7" class="edge">
<title>Node7&#45;&gt;Node8</title>
<path fill="none" stroke="midnightblue" d="M321.1,-158.46C336.66,-157.61 353.35,-156.69 369.14,-155.83"/>
<polygon fill="midnightblue" stroke="midnightblue" points="369.57,-159.31 379.37,-155.27 369.19,-152.32 369.57,-159.31"/>
</g>
</g>
</svg>
