<?xml version="1.0" encoding="UTF-8" standalone="no"?>
<!DOCTYPE svg PUBLIC "-//W3C//DTD SVG 1.1//EN"
 "http://www.w3.org/Graphics/SVG/1.1/DTD/svg11.dtd">
<!-- Generated by graphviz version 2.43.0 (0)
 -->
<!-- Title: main Pages: 1 -->
<svg width="391pt" height="180pt"
 viewBox="0.00 0.00 391.00 180.00" xmlns="http://www.w3.org/2000/svg" xmlns:xlink="http://www.w3.org/1999/xlink">
<g id="graph0" class="graph" transform="scale(1 1) rotate(0) translate(4 176)">
<title>main</title>
<polygon fill="white" stroke="transparent" points="-4,4 -4,-176 387,-176 387,4 -4,4"/>
<!-- Node1 -->
<g id="node1" class="node">
<title>Node1</title>
<g id="a_node1"><a xlink:title="Main functiond.">
<polygon fill="#bfbfbf" stroke="black" points="0,-76.5 0,-95.5 41,-95.5 41,-76.5 0,-76.5"/>
<text text-anchor="middle" x="20.5" y="-83.5" font-family="Helvetica,sans-Serif" font-size="10.00">main</text>
</a>
</g>
</g>
<!-- Node2 -->
<g id="node2" class="node">
<title>Node2</title>
<g id="a_node2"><a xlink:href="classSimulation.html#af3b86332848f469748212b35e078980c" target="_top" xlink:title="This method changes the camera.">
<polygon fill="white" stroke="black" points="77,-152.5 77,-171.5 226,-171.5 226,-152.5 77,-152.5"/>
<text text-anchor="middle" x="151.5" y="-159.5" font-family="Helvetica,sans-Serif" font-size="10.00">Simulation::changeCamera</text>
</a>
</g>
</g>
<!-- Node1&#45;&gt;Node2 -->
<g id="edge1" class="edge">
<title>Node1&#45;&gt;Node2</title>
<path fill="none" stroke="midnightblue" d="M28.21,-95.65C37.63,-108.43 55.98,-130.8 77,-143 80.89,-145.26 85.05,-147.25 89.33,-149.01"/>
<polygon fill="midnightblue" stroke="midnightblue" points="88.27,-152.35 98.86,-152.5 90.67,-145.77 88.27,-152.35"/>
</g>
<!-- Node3 -->
<g id="node3" class="node">
<title>Node3</title>
<g id="a_node3"><a xlink:href="classOpenGL.html#a1a09abe8b7a1075baf9b8f21f0a0f43a" target="_top" xlink:title=" ">
<polygon fill="white" stroke="black" points="86,-114.5 86,-133.5 217,-133.5 217,-114.5 86,-114.5"/>
<text text-anchor="middle" x="151.5" y="-121.5" font-family="Helvetica,sans-Serif" font-size="10.00">OpenGL::createWindow</text>
</a>
</g>
</g>
<!-- Node1&#45;&gt;Node3 -->
<g id="edge2" class="edge">
<title>Node1&#45;&gt;Node3</title>
<path fill="none" stroke="midnightblue" d="M41.16,-93.14C51.72,-96.87 65,-101.4 77,-105 84.9,-107.37 93.33,-109.71 101.55,-111.91"/>
<polygon fill="midnightblue" stroke="midnightblue" points="100.88,-115.35 111.44,-114.5 102.65,-108.58 100.88,-115.35"/>
</g>
<!-- Node5 -->
<g id="node5" class="node">
<title>Node5</title>
<g id="a_node5"><a xlink:href="classOpenGL.html#a39d87020db31c36e3efb53c42f70cfde" target="_top" xlink:title=" ">
<polygon fill="white" stroke="black" points="87.5,-76.5 87.5,-95.5 215.5,-95.5 215.5,-76.5 87.5,-76.5"/>
<text text-anchor="middle" x="151.5" y="-83.5" font-family="Helvetica,sans-Serif" font-size="10.00">OpenGL::getProgramID</text>
</a>
</g>
</g>
<!-- Node1&#45;&gt;Node5 -->
<g id="edge4" class="edge">
<title>Node1&#45;&gt;Node5</title>
<path fill="none" stroke="midnightblue" d="M41.09,-86C51.03,-86 63.8,-86 77.08,-86"/>
<polygon fill="midnightblue" stroke="midnightblue" points="77.3,-89.5 87.3,-86 77.3,-82.5 77.3,-89.5"/>
</g>
<!-- Node6 -->
<g id="node6" class="node">
<title>Node6</title>
<g id="a_node6"><a xlink:href="classSimulation.html#a089ec7ead73faead7ff9cef850b9c09c" target="_top" xlink:title="This method initializes the simulation.">
<polygon fill="white" stroke="black" points="106,-38.5 106,-57.5 197,-57.5 197,-38.5 106,-38.5"/>
<text text-anchor="middle" x="151.5" y="-45.5" font-family="Helvetica,sans-Serif" font-size="10.00">Simulation::init</text>
</a>
</g>
</g>
<!-- Node1&#45;&gt;Node6 -->
<g id="edge5" class="edge">
<title>Node1&#45;&gt;Node6</title>
<path fill="none" stroke="midnightblue" d="M41.16,-78.86C51.72,-75.13 65,-70.6 77,-67 84.9,-64.63 93.33,-62.29 101.55,-60.09"/>
<polygon fill="midnightblue" stroke="midnightblue" points="102.65,-63.42 111.44,-57.5 100.88,-56.65 102.65,-63.42"/>
</g>
<!-- Node7 -->
<g id="node7" class="node">
<title>Node7</title>
<g id="a_node7"><a xlink:href="main_8cpp.html#a3bdcf6a9fea060f330fc13546590f1a6" target="_top" xlink:title=" ">
<polygon fill="white" stroke="black" points="98,-0.5 98,-19.5 205,-19.5 205,-0.5 98,-0.5"/>
<text text-anchor="middle" x="151.5" y="-7.5" font-family="Helvetica,sans-Serif" font-size="10.00">keyboard_callback</text>
</a>
</g>
</g>
<!-- Node1&#45;&gt;Node7 -->
<g id="edge6" class="edge">
<title>Node1&#45;&gt;Node7</title>
<path fill="none" stroke="midnightblue" d="M28.21,-76.35C37.63,-63.57 55.98,-41.2 77,-29 80.89,-26.74 85.05,-24.75 89.33,-22.99"/>
<polygon fill="midnightblue" stroke="midnightblue" points="90.67,-26.23 98.86,-19.5 88.27,-19.65 90.67,-26.23"/>
</g>
<!-- Node4 -->
<g id="node4" class="node">
<title>Node4</title>
<g id="a_node4"><a xlink:href="classOpenGL.html#a223dc8b2e5faf362371912a4f2221d5b" target="_top" xlink:title=" ">
<polygon fill="white" stroke="black" points="262,-114.5 262,-133.5 383,-133.5 383,-114.5 262,-114.5"/>
<text text-anchor="middle" x="322.5" y="-121.5" font-family="Helvetica,sans-Serif" font-size="10.00">OpenGL::loadShaders</text>
</a>
</g>
</g>
<!-- Node3&#45;&gt;Node4 -->
<g id="edge3" class="edge">
<title>Node3&#45;&gt;Node4</title>
<path fill="none" stroke="midnightblue" d="M217.36,-124C228.55,-124 240.22,-124 251.54,-124"/>
<polygon fill="midnightblue" stroke="midnightblue" points="251.81,-127.5 261.81,-124 251.81,-120.5 251.81,-127.5"/>
</g>
</g>
</svg>
