<?xml version="1.0" encoding="UTF-8" standalone="no"?>
<!DOCTYPE svg PUBLIC "-//W3C//DTD SVG 1.1//EN"
 "http://www.w3.org/Graphics/SVG/1.1/DTD/svg11.dtd">
<!-- Generated by graphviz version 2.43.0 (0)
 -->
<!-- Title: include/Model.h Pages: 1 -->
<svg width="537pt" height="252pt"
 viewBox="0.00 0.00 536.50 252.00" xmlns="http://www.w3.org/2000/svg" xmlns:xlink="http://www.w3.org/1999/xlink">
<g id="graph0" class="graph" transform="scale(1 1) rotate(0) translate(4 248)">
<title>include/Model.h</title>
<polygon fill="white" stroke="transparent" points="-4,4 -4,-248 532.5,-248 532.5,4 -4,4"/>
<!-- Node1 -->
<g id="node1" class="node">
<title>Node1</title>
<g id="a_node1"><a xlink:title=" ">
<polygon fill="#bfbfbf" stroke="black" points="231,-224.5 231,-243.5 325,-243.5 325,-224.5 231,-224.5"/>
<text text-anchor="middle" x="278" y="-231.5" font-family="Helvetica,sans-Serif" font-size="10.00">include/Model.h</text>
</a>
</g>
</g>
<!-- Node2 -->
<g id="node2" class="node">
<title>Node2</title>
<g id="a_node2"><a xlink:href="Ball_8h.html" target="_top" xlink:title=" ">
<polygon fill="white" stroke="black" points="416.5,-168.5 416.5,-187.5 499.5,-187.5 499.5,-168.5 416.5,-168.5"/>
<text text-anchor="middle" x="458" y="-175.5" font-family="Helvetica,sans-Serif" font-size="10.00">include/Ball.h</text>
</a>
</g>
</g>
<!-- Node1&#45;&gt;Node2 -->
<g id="edge1" class="edge">
<title>Node1&#45;&gt;Node2</title>
<path fill="none" stroke="midnightblue" d="M316.11,-221.57C350.06,-211.38 398.99,-196.7 429.61,-187.52"/>
<polygon fill="midnightblue" stroke="midnightblue" points="315.09,-218.22 306.52,-224.44 317.11,-224.92 315.09,-218.22"/>
</g>
<!-- Node3 -->
<g id="node3" class="node">
<title>Node3</title>
<g id="a_node3"><a xlink:href="Simulation_8h.html" target="_top" xlink:title=" ">
<polygon fill="white" stroke="black" points="220,-112.5 220,-131.5 336,-131.5 336,-112.5 220,-112.5"/>
<text text-anchor="middle" x="278" y="-119.5" font-family="Helvetica,sans-Serif" font-size="10.00">include/Simulation.h</text>
</a>
</g>
</g>
<!-- Node1&#45;&gt;Node3 -->
<g id="edge18" class="edge">
<title>Node1&#45;&gt;Node3</title>
<path fill="none" stroke="midnightblue" d="M278,-214.35C278,-190.25 278,-149.31 278,-131.59"/>
<polygon fill="midnightblue" stroke="midnightblue" points="274.5,-214.37 278,-224.37 281.5,-214.37 274.5,-214.37"/>
</g>
<!-- Node9 -->
<g id="node9" class="node">
<title>Node9</title>
<g id="a_node9"><a xlink:href="Enemy_8h.html" target="_top" xlink:title=" ">
<polygon fill="white" stroke="black" points="28,-168.5 28,-187.5 124,-187.5 124,-168.5 28,-168.5"/>
<text text-anchor="middle" x="76" y="-175.5" font-family="Helvetica,sans-Serif" font-size="10.00">include/Enemy.h</text>
</a>
</g>
</g>
<!-- Node1&#45;&gt;Node9 -->
<g id="edge9" class="edge">
<title>Node1&#45;&gt;Node9</title>
<path fill="none" stroke="midnightblue" d="M236.21,-221.83C198.07,-211.63 142.52,-196.78 107.86,-187.52"/>
<polygon fill="midnightblue" stroke="midnightblue" points="235.43,-225.24 245.99,-224.44 237.24,-218.48 235.43,-225.24"/>
</g>
<!-- Node11 -->
<g id="node11" class="node">
<title>Node11</title>
<g id="a_node11"><a xlink:href="Message_8h.html" target="_top" xlink:title=" ">
<polygon fill="white" stroke="black" points="142.5,-168.5 142.5,-187.5 249.5,-187.5 249.5,-168.5 142.5,-168.5"/>
<text text-anchor="middle" x="196" y="-175.5" font-family="Helvetica,sans-Serif" font-size="10.00">include/Message.h</text>
</a>
</g>
</g>
<!-- Node1&#45;&gt;Node11 -->
<g id="edge12" class="edge">
<title>Node1&#45;&gt;Node11</title>
<path fill="none" stroke="midnightblue" d="M256.17,-218.62C241.19,-208.76 221.8,-195.99 209.14,-187.65"/>
<polygon fill="midnightblue" stroke="midnightblue" points="254.55,-221.75 264.83,-224.32 258.4,-215.9 254.55,-221.75"/>
</g>
<!-- Node13 -->
<g id="node13" class="node">
<title>Node13</title>
<g id="a_node13"><a xlink:href="Robot_8h.html" target="_top" xlink:title=" ">
<polygon fill="white" stroke="black" points="306,-168.5 306,-187.5 398,-187.5 398,-168.5 306,-168.5"/>
<text text-anchor="middle" x="352" y="-175.5" font-family="Helvetica,sans-Serif" font-size="10.00">include/Robot.h</text>
</a>
</g>
</g>
<!-- Node1&#45;&gt;Node13 -->
<g id="edge15" class="edge">
<title>Node1&#45;&gt;Node13</title>
<path fill="none" stroke="midnightblue" d="M298.03,-218.38C311.41,-208.62 328.56,-196.11 339.89,-187.83"/>
<polygon fill="midnightblue" stroke="midnightblue" points="295.9,-215.6 289.89,-224.32 300.03,-221.26 295.9,-215.6"/>
</g>
<!-- Node2&#45;&gt;Node3 -->
<g id="edge2" class="edge">
<title>Node2&#45;&gt;Node3</title>
<path fill="none" stroke="midnightblue" d="M419.89,-165.57C385.94,-155.38 337.01,-140.7 306.39,-131.52"/>
<polygon fill="midnightblue" stroke="midnightblue" points="418.89,-168.92 429.48,-168.44 420.91,-162.22 418.89,-168.92"/>
</g>
<!-- Node8 -->
<g id="node8" class="node">
<title>Node8</title>
<g id="a_node8"><a xlink:href="Ball_8cpp.html" target="_top" xlink:title=" ">
<polygon fill="white" stroke="black" points="455.5,-112.5 455.5,-131.5 528.5,-131.5 528.5,-112.5 455.5,-112.5"/>
<text text-anchor="middle" x="492" y="-119.5" font-family="Helvetica,sans-Serif" font-size="10.00">src/Ball.cpp</text>
</a>
</g>
</g>
<!-- Node2&#45;&gt;Node8 -->
<g id="edge8" class="edge">
<title>Node2&#45;&gt;Node8</title>
<path fill="none" stroke="midnightblue" d="M468.98,-159.57C474.83,-150.27 481.77,-139.25 486.49,-131.75"/>
<polygon fill="midnightblue" stroke="midnightblue" points="465.98,-157.76 463.61,-168.08 471.9,-161.49 465.98,-157.76"/>
</g>
<!-- Node4 -->
<g id="node4" class="node">
<title>Node4</title>
<g id="a_node4"><a xlink:href="Scene_8h.html" target="_top" xlink:title=" ">
<polygon fill="white" stroke="black" points="231.5,-56.5 231.5,-75.5 324.5,-75.5 324.5,-56.5 231.5,-56.5"/>
<text text-anchor="middle" x="278" y="-63.5" font-family="Helvetica,sans-Serif" font-size="10.00">include/Scene.h</text>
</a>
</g>
</g>
<!-- Node3&#45;&gt;Node4 -->
<g id="edge3" class="edge">
<title>Node3&#45;&gt;Node4</title>
<path fill="none" stroke="midnightblue" d="M271.53,-102.1C270.9,-93.14 271.34,-82.86 272.87,-75.75"/>
<polygon fill="midnightblue" stroke="midnightblue" points="268.07,-102.62 272.83,-112.08 275.01,-101.71 268.07,-102.62"/>
</g>
<!-- Node7 -->
<g id="node7" class="node">
<title>Node7</title>
<g id="a_node7"><a xlink:href="Simulation_8cpp.html" target="_top" xlink:title=" ">
<polygon fill="white" stroke="black" points="342.5,-56.5 342.5,-75.5 449.5,-75.5 449.5,-56.5 342.5,-56.5"/>
<text text-anchor="middle" x="396" y="-63.5" font-family="Helvetica,sans-Serif" font-size="10.00">src/Simulation.cpp</text>
</a>
</g>
</g>
<!-- Node3&#45;&gt;Node7 -->
<g id="edge7" class="edge">
<title>Node3&#45;&gt;Node7</title>
<path fill="none" stroke="midnightblue" d="M305.9,-108.23C327.97,-98.13 358.18,-84.31 377.39,-75.52"/>
<polygon fill="midnightblue" stroke="midnightblue" points="304.33,-105.1 296.7,-112.44 307.25,-111.46 304.33,-105.1"/>
</g>
<!-- Node4&#45;&gt;Node3 -->
<g id="edge4" class="edge">
<title>Node4&#45;&gt;Node3</title>
<path fill="none" stroke="midnightblue" d="M284.46,-85.69C285.11,-94.64 284.68,-104.93 283.17,-112.08"/>
<polygon fill="midnightblue" stroke="midnightblue" points="287.92,-85.2 283.13,-75.75 280.98,-86.13 287.92,-85.2"/>
</g>
<!-- Node5 -->
<g id="node5" class="node">
<title>Node5</title>
<g id="a_node5"><a xlink:href="main_8cpp.html" target="_top" xlink:title=" ">
<polygon fill="white" stroke="black" points="202,-0.5 202,-19.5 264,-19.5 264,-0.5 202,-0.5"/>
<text text-anchor="middle" x="233" y="-7.5" font-family="Helvetica,sans-Serif" font-size="10.00">main.cpp</text>
</a>
</g>
</g>
<!-- Node4&#45;&gt;Node5 -->
<g id="edge5" class="edge">
<title>Node4&#45;&gt;Node5</title>
<path fill="none" stroke="midnightblue" d="M263.95,-48.14C256.11,-38.74 246.67,-27.4 240.29,-19.75"/>
<polygon fill="midnightblue" stroke="midnightblue" points="261.48,-50.64 270.57,-56.08 266.86,-46.16 261.48,-50.64"/>
</g>
<!-- Node6 -->
<g id="node6" class="node">
<title>Node6</title>
<g id="a_node6"><a xlink:href="Scene_8cpp.html" target="_top" xlink:title=" ">
<polygon fill="white" stroke="black" points="282.5,-0.5 282.5,-19.5 365.5,-19.5 365.5,-0.5 282.5,-0.5"/>
<text text-anchor="middle" x="324" y="-7.5" font-family="Helvetica,sans-Serif" font-size="10.00">src/Scene.cpp</text>
</a>
</g>
</g>
<!-- Node4&#45;&gt;Node6 -->
<g id="edge6" class="edge">
<title>Node4&#45;&gt;Node6</title>
<path fill="none" stroke="midnightblue" d="M292.11,-48.43C300.18,-38.97 309.96,-27.48 316.55,-19.75"/>
<polygon fill="midnightblue" stroke="midnightblue" points="289.42,-46.2 285.6,-56.08 294.75,-50.74 289.42,-46.2"/>
</g>
<!-- Node9&#45;&gt;Node3 -->
<g id="edge10" class="edge">
<title>Node9&#45;&gt;Node3</title>
<path fill="none" stroke="midnightblue" d="M117.79,-165.83C155.93,-155.63 211.48,-140.78 246.14,-131.52"/>
<polygon fill="midnightblue" stroke="midnightblue" points="116.76,-162.48 108.01,-168.44 118.57,-169.24 116.76,-162.48"/>
</g>
<!-- Node10 -->
<g id="node10" class="node">
<title>Node10</title>
<g id="a_node10"><a xlink:href="Enemy_8cpp.html" target="_top" xlink:title=" ">
<polygon fill="white" stroke="black" points="0,-112.5 0,-131.5 86,-131.5 86,-112.5 0,-112.5"/>
<text text-anchor="middle" x="43" y="-119.5" font-family="Helvetica,sans-Serif" font-size="10.00">src/Enemy.cpp</text>
</a>
</g>
</g>
<!-- Node9&#45;&gt;Node10 -->
<g id="edge11" class="edge">
<title>Node9&#45;&gt;Node10</title>
<path fill="none" stroke="midnightblue" d="M65.17,-159.27C59.53,-150.05 52.88,-139.17 48.35,-131.75"/>
<polygon fill="midnightblue" stroke="midnightblue" points="62.35,-161.38 70.55,-168.08 68.32,-157.73 62.35,-161.38"/>
</g>
<!-- Node11&#45;&gt;Node3 -->
<g id="edge13" class="edge">
<title>Node11&#45;&gt;Node3</title>
<path fill="none" stroke="midnightblue" d="M217.83,-162.62C232.81,-152.76 252.2,-139.99 264.86,-131.65"/>
<polygon fill="midnightblue" stroke="midnightblue" points="215.6,-159.9 209.17,-168.32 219.45,-165.75 215.6,-159.9"/>
</g>
<!-- Node12 -->
<g id="node12" class="node">
<title>Node12</title>
<g id="a_node12"><a xlink:href="Message_8cpp.html" target="_top" xlink:title=" ">
<polygon fill="white" stroke="black" points="104,-112.5 104,-131.5 202,-131.5 202,-112.5 104,-112.5"/>
<text text-anchor="middle" x="153" y="-119.5" font-family="Helvetica,sans-Serif" font-size="10.00">src/Message.cpp</text>
</a>
</g>
</g>
<!-- Node11&#45;&gt;Node12 -->
<g id="edge14" class="edge">
<title>Node11&#45;&gt;Node12</title>
<path fill="none" stroke="midnightblue" d="M182.58,-160.14C175.09,-150.74 166.06,-139.4 159.97,-131.75"/>
<polygon fill="midnightblue" stroke="midnightblue" points="179.93,-162.44 188.9,-168.08 185.41,-158.08 179.93,-162.44"/>
</g>
<!-- Node13&#45;&gt;Node3 -->
<g id="edge16" class="edge">
<title>Node13&#45;&gt;Node3</title>
<path fill="none" stroke="midnightblue" d="M331.97,-162.38C318.59,-152.62 301.44,-140.11 290.11,-131.83"/>
<polygon fill="midnightblue" stroke="midnightblue" points="329.97,-165.26 340.11,-168.32 334.1,-159.6 329.97,-165.26"/>
</g>
<!-- Node14 -->
<g id="node14" class="node">
<title>Node14</title>
<g id="a_node14"><a xlink:href="Robot_8cpp.html" target="_top" xlink:title=" ">
<polygon fill="white" stroke="black" points="354.5,-112.5 354.5,-131.5 437.5,-131.5 437.5,-112.5 354.5,-112.5"/>
<text text-anchor="middle" x="396" y="-119.5" font-family="Helvetica,sans-Serif" font-size="10.00">src/Robot.cpp</text>
</a>
</g>
</g>
<!-- Node13&#45;&gt;Node14 -->
<g id="edge17" class="edge">
<title>Node13&#45;&gt;Node14</title>
<path fill="none" stroke="midnightblue" d="M365.73,-160.14C373.4,-150.74 382.63,-139.4 388.87,-131.75"/>
<polygon fill="midnightblue" stroke="midnightblue" points="362.87,-158.12 359.27,-168.08 368.3,-162.54 362.87,-158.12"/>
</g>
</g>
</svg>
