<?xml version="1.0" encoding="UTF-8" standalone="no"?>
<!DOCTYPE svg PUBLIC "-//W3C//DTD SVG 1.1//EN"
 "http://www.w3.org/Graphics/SVG/1.1/DTD/svg11.dtd">
<!-- Generated by graphviz version 2.43.0 (0)
 -->
<!-- Title: include/Model.h Pages: 1 -->
<svg width="421pt" height="196pt"
 viewBox="0.00 0.00 420.50 196.00" xmlns="http://www.w3.org/2000/svg" xmlns:xlink="http://www.w3.org/1999/xlink">
<g id="graph0" class="graph" transform="scale(1 1) rotate(0) translate(4 192)">
<title>include/Model.h</title>
<polygon fill="white" stroke="transparent" points="-4,4 -4,-192 416.5,-192 416.5,4 -4,4"/>
<!-- Node1 -->
<g id="node1" class="node">
<title>Node1</title>
<g id="a_node1"><a xlink:title=" ">
<polygon fill="#bfbfbf" stroke="black" points="152,-168.5 152,-187.5 246,-187.5 246,-168.5 152,-168.5"/>
<text text-anchor="middle" x="199" y="-175.5" font-family="Helvetica,sans-Serif" font-size="10.00">include/Model.h</text>
</a>
</g>
</g>
<!-- Node2 -->
<g id="node2" class="node">
<title>Node2</title>
<g id="a_node2"><a xlink:href="Ball_8h.html" target="_top" xlink:title=" ">
<polygon fill="white" stroke="black" points="300.5,-112.5 300.5,-131.5 383.5,-131.5 383.5,-112.5 300.5,-112.5"/>
<text text-anchor="middle" x="342" y="-119.5" font-family="Helvetica,sans-Serif" font-size="10.00">include/Ball.h</text>
</a>
</g>
</g>
<!-- Node1&#45;&gt;Node2 -->
<g id="edge1" class="edge">
<title>Node1&#45;&gt;Node2</title>
<path fill="none" stroke="midnightblue" d="M231.03,-164.91C257.91,-154.75 295.64,-140.51 319.45,-131.52"/>
<polygon fill="midnightblue" stroke="midnightblue" points="229.78,-161.64 221.66,-168.44 232.25,-168.19 229.78,-161.64"/>
</g>
<!-- Node3 -->
<g id="node3" class="node">
<title>Node3</title>
<g id="a_node3"><a xlink:href="Simulation_8h.html" target="_top" xlink:title=" ">
<polygon fill="white" stroke="black" points="104,-56.5 104,-75.5 220,-75.5 220,-56.5 104,-56.5"/>
<text text-anchor="middle" x="162" y="-63.5" font-family="Helvetica,sans-Serif" font-size="10.00">include/Simulation.h</text>
</a>
</g>
</g>
<!-- Node1&#45;&gt;Node3 -->
<g id="edge12" class="edge">
<title>Node1&#45;&gt;Node3</title>
<path fill="none" stroke="midnightblue" d="M191.41,-159.17C188.04,-150.97 184.13,-141.06 181,-132 174.17,-112.22 167.65,-88.52 164.31,-75.92"/>
<polygon fill="midnightblue" stroke="midnightblue" points="188.21,-160.59 195.3,-168.47 194.67,-157.89 188.21,-160.59"/>
</g>
<!-- Node7 -->
<g id="node7" class="node">
<title>Node7</title>
<g id="a_node7"><a xlink:href="Enemy_8h.html" target="_top" xlink:title=" ">
<polygon fill="white" stroke="black" points="38,-112.5 38,-131.5 134,-131.5 134,-112.5 38,-112.5"/>
<text text-anchor="middle" x="86" y="-119.5" font-family="Helvetica,sans-Serif" font-size="10.00">include/Enemy.h</text>
</a>
</g>
</g>
<!-- Node1&#45;&gt;Node7 -->
<g id="edge6" class="edge">
<title>Node1&#45;&gt;Node7</title>
<path fill="none" stroke="midnightblue" d="M172,-164.1C150.89,-154.01 122.14,-140.27 103.82,-131.52"/>
<polygon fill="midnightblue" stroke="midnightblue" points="170.56,-167.29 181.09,-168.44 173.58,-160.97 170.56,-167.29"/>
</g>
<!-- Node9 -->
<g id="node9" class="node">
<title>Node9</title>
<g id="a_node9"><a xlink:href="Robot_8h.html" target="_top" xlink:title=" ">
<polygon fill="white" stroke="black" points="190,-112.5 190,-131.5 282,-131.5 282,-112.5 190,-112.5"/>
<text text-anchor="middle" x="236" y="-119.5" font-family="Helvetica,sans-Serif" font-size="10.00">include/Robot.h</text>
</a>
</g>
</g>
<!-- Node1&#45;&gt;Node9 -->
<g id="edge9" class="edge">
<title>Node1&#45;&gt;Node9</title>
<path fill="none" stroke="midnightblue" d="M210.95,-159.57C217.31,-150.27 224.87,-139.25 230,-131.75"/>
<polygon fill="midnightblue" stroke="midnightblue" points="207.87,-157.86 205.11,-168.08 213.65,-161.81 207.87,-157.86"/>
</g>
<!-- Node2&#45;&gt;Node3 -->
<g id="edge2" class="edge">
<title>Node2&#45;&gt;Node3</title>
<path fill="none" stroke="midnightblue" d="M303.89,-109.57C269.94,-99.38 221.01,-84.7 190.39,-75.52"/>
<polygon fill="midnightblue" stroke="midnightblue" points="302.89,-112.92 313.48,-112.44 304.91,-106.22 302.89,-112.92"/>
</g>
<!-- Node6 -->
<g id="node6" class="node">
<title>Node6</title>
<g id="a_node6"><a xlink:href="Ball_8cpp.html" target="_top" xlink:title=" ">
<polygon fill="white" stroke="black" points="339.5,-56.5 339.5,-75.5 412.5,-75.5 412.5,-56.5 339.5,-56.5"/>
<text text-anchor="middle" x="376" y="-63.5" font-family="Helvetica,sans-Serif" font-size="10.00">src/Ball.cpp</text>
</a>
</g>
</g>
<!-- Node2&#45;&gt;Node6 -->
<g id="edge5" class="edge">
<title>Node2&#45;&gt;Node6</title>
<path fill="none" stroke="midnightblue" d="M352.98,-103.57C358.83,-94.27 365.77,-83.25 370.49,-75.75"/>
<polygon fill="midnightblue" stroke="midnightblue" points="349.98,-101.76 347.61,-112.08 355.9,-105.49 349.98,-101.76"/>
</g>
<!-- Node4 -->
<g id="node4" class="node">
<title>Node4</title>
<g id="a_node4"><a xlink:href="main_8cpp.html" target="_top" xlink:title=" ">
<polygon fill="white" stroke="black" points="80,-0.5 80,-19.5 142,-19.5 142,-0.5 80,-0.5"/>
<text text-anchor="middle" x="111" y="-7.5" font-family="Helvetica,sans-Serif" font-size="10.00">main.cpp</text>
</a>
</g>
</g>
<!-- Node3&#45;&gt;Node4 -->
<g id="edge3" class="edge">
<title>Node3&#45;&gt;Node4</title>
<path fill="none" stroke="midnightblue" d="M146.62,-48.72C137.63,-39.2 126.64,-27.56 119.26,-19.75"/>
<polygon fill="midnightblue" stroke="midnightblue" points="144.17,-51.22 153.58,-56.08 149.26,-46.41 144.17,-51.22"/>
</g>
<!-- Node5 -->
<g id="node5" class="node">
<title>Node5</title>
<g id="a_node5"><a xlink:href="Simulation_8cpp.html" target="_top" xlink:title=" ">
<polygon fill="white" stroke="black" points="160.5,-0.5 160.5,-19.5 267.5,-19.5 267.5,-0.5 160.5,-0.5"/>
<text text-anchor="middle" x="214" y="-7.5" font-family="Helvetica,sans-Serif" font-size="10.00">src/Simulation.cpp</text>
</a>
</g>
</g>
<!-- Node3&#45;&gt;Node5 -->
<g id="edge4" class="edge">
<title>Node3&#45;&gt;Node5</title>
<path fill="none" stroke="midnightblue" d="M177.68,-48.72C186.84,-39.2 198.05,-27.56 205.57,-19.75"/>
<polygon fill="midnightblue" stroke="midnightblue" points="175,-46.45 170.59,-56.08 180.04,-51.31 175,-46.45"/>
</g>
<!-- Node7&#45;&gt;Node3 -->
<g id="edge7" class="edge">
<title>Node7&#45;&gt;Node3</title>
<path fill="none" stroke="midnightblue" d="M106.58,-106.38C120.31,-96.62 137.93,-84.11 149.57,-75.83"/>
<polygon fill="midnightblue" stroke="midnightblue" points="104.34,-103.68 98.21,-112.32 108.39,-109.38 104.34,-103.68"/>
</g>
<!-- Node8 -->
<g id="node8" class="node">
<title>Node8</title>
<g id="a_node8"><a xlink:href="Enemy_8cpp.html" target="_top" xlink:title=" ">
<polygon fill="white" stroke="black" points="0,-56.5 0,-75.5 86,-75.5 86,-56.5 0,-56.5"/>
<text text-anchor="middle" x="43" y="-63.5" font-family="Helvetica,sans-Serif" font-size="10.00">src/Enemy.cpp</text>
</a>
</g>
</g>
<!-- Node7&#45;&gt;Node8 -->
<g id="edge8" class="edge">
<title>Node7&#45;&gt;Node8</title>
<path fill="none" stroke="midnightblue" d="M72.58,-104.14C65.09,-94.74 56.06,-83.4 49.97,-75.75"/>
<polygon fill="midnightblue" stroke="midnightblue" points="69.93,-106.44 78.9,-112.08 75.41,-102.08 69.93,-106.44"/>
</g>
<!-- Node9&#45;&gt;Node3 -->
<g id="edge10" class="edge">
<title>Node9&#45;&gt;Node3</title>
<path fill="none" stroke="midnightblue" d="M215.97,-106.38C202.59,-96.62 185.44,-84.11 174.11,-75.83"/>
<polygon fill="midnightblue" stroke="midnightblue" points="213.97,-109.26 224.11,-112.32 218.1,-103.6 213.97,-109.26"/>
</g>
<!-- Node10 -->
<g id="node10" class="node">
<title>Node10</title>
<g id="a_node10"><a xlink:href="Robot_8cpp.html" target="_top" xlink:title=" ">
<polygon fill="white" stroke="black" points="238.5,-56.5 238.5,-75.5 321.5,-75.5 321.5,-56.5 238.5,-56.5"/>
<text text-anchor="middle" x="280" y="-63.5" font-family="Helvetica,sans-Serif" font-size="10.00">src/Robot.cpp</text>
</a>
</g>
</g>
<!-- Node9&#45;&gt;Node10 -->
<g id="edge11" class="edge">
<title>Node9&#45;&gt;Node10</title>
<path fill="none" stroke="midnightblue" d="M249.73,-104.14C257.4,-94.74 266.63,-83.4 272.87,-75.75"/>
<polygon fill="midnightblue" stroke="midnightblue" points="246.87,-102.12 243.27,-112.08 252.3,-106.54 246.87,-102.12"/>
</g>
</g>
</svg>
