<?xml version="1.0" encoding="UTF-8" standalone="no"?>
<!DOCTYPE svg PUBLIC "-//W3C//DTD SVG 1.1//EN"
 "http://www.w3.org/Graphics/SVG/1.1/DTD/svg11.dtd">
<!-- Generated by graphviz version 2.43.0 (0)
 -->
<!-- Title: include/Model.h Pages: 1 -->
<svg width="957pt" height="364pt"
 viewBox="0.00 0.00 957.32 364.00" xmlns="http://www.w3.org/2000/svg" xmlns:xlink="http://www.w3.org/1999/xlink">
<g id="graph0" class="graph" transform="scale(1 1) rotate(0) translate(4 360)">
<title>include/Model.h</title>
<polygon fill="white" stroke="transparent" points="-4,4 -4,-360 953.32,-360 953.32,4 -4,4"/>
<!-- Node1 -->
<g id="node1" class="node">
<title>Node1</title>
<g id="a_node1"><a xlink:title=" ">
<polygon fill="#bfbfbf" stroke="black" points="254.32,-336.5 254.32,-355.5 348.32,-355.5 348.32,-336.5 254.32,-336.5"/>
<text text-anchor="middle" x="301.32" y="-343.5" font-family="Helvetica,sans-Serif" font-size="10.00">include/Model.h</text>
</a>
</g>
</g>
<!-- Node2 -->
<g id="node2" class="node">
<title>Node2</title>
<g id="a_node2"><a xlink:href="Obj_8h.html" target="_top" xlink:title=" ">
<polygon fill="white" stroke="black" points="251.32,-280.5 251.32,-299.5 293.32,-299.5 293.32,-280.5 251.32,-280.5"/>
<text text-anchor="middle" x="272.32" y="-287.5" font-family="Helvetica,sans-Serif" font-size="10.00">Obj.h</text>
</a>
</g>
</g>
<!-- Node1&#45;&gt;Node2 -->
<g id="edge1" class="edge">
<title>Node1&#45;&gt;Node2</title>
<path fill="none" stroke="midnightblue" d="M296.53,-336.08C292.56,-328.69 286.79,-317.95 281.88,-308.81"/>
<polygon fill="midnightblue" stroke="midnightblue" points="284.83,-306.91 277.02,-299.75 278.67,-310.22 284.83,-306.91"/>
</g>
<!-- Node18 -->
<g id="node18" class="node">
<title>Node18</title>
<g id="a_node18"><a xlink:href="Ply_8h.html" target="_top" xlink:title=" ">
<polygon fill="white" stroke="black" points="311.82,-280.5 311.82,-299.5 350.82,-299.5 350.82,-280.5 311.82,-280.5"/>
<text text-anchor="middle" x="331.32" y="-287.5" font-family="Helvetica,sans-Serif" font-size="10.00">Ply.h</text>
</a>
</g>
</g>
<!-- Node1&#45;&gt;Node18 -->
<g id="edge22" class="edge">
<title>Node1&#45;&gt;Node18</title>
<path fill="none" stroke="midnightblue" d="M306.27,-336.08C310.42,-328.61 316.47,-317.72 321.59,-308.52"/>
<polygon fill="midnightblue" stroke="midnightblue" points="324.66,-310.19 326.46,-299.75 318.54,-306.79 324.66,-310.19"/>
</g>
<!-- Node3 -->
<g id="node3" class="node">
<title>Node3</title>
<g id="a_node3"><a xlink:href="Object_8h.html" target="_top" xlink:title=" ">
<polygon fill="white" stroke="black" points="272.82,-224.5 272.82,-243.5 329.82,-243.5 329.82,-224.5 272.82,-224.5"/>
<text text-anchor="middle" x="301.32" y="-231.5" font-family="Helvetica,sans-Serif" font-size="10.00">Object.h</text>
</a>
</g>
</g>
<!-- Node2&#45;&gt;Node3 -->
<g id="edge2" class="edge">
<title>Node2&#45;&gt;Node3</title>
<path fill="none" stroke="midnightblue" d="M277.11,-280.08C281.08,-272.69 286.84,-261.95 291.75,-252.81"/>
<polygon fill="midnightblue" stroke="midnightblue" points="294.97,-254.22 296.62,-243.75 288.81,-250.91 294.97,-254.22"/>
</g>
<!-- Node4 -->
<g id="node4" class="node">
<title>Node4</title>
<g id="a_node4"><a xlink:title=" ">
<polygon fill="white" stroke="#bfbfbf" points="106.32,-0.5 106.32,-19.5 166.32,-19.5 166.32,-0.5 106.32,-0.5"/>
<text text-anchor="middle" x="136.32" y="-7.5" font-family="Helvetica,sans-Serif" font-size="10.00">iostream</text>
</a>
</g>
</g>
<!-- Node3&#45;&gt;Node4 -->
<g id="edge3" class="edge">
<title>Node3&#45;&gt;Node4</title>
<path fill="none" stroke="midnightblue" d="M272.72,-233.02C206.66,-232.4 46.56,-226.83 13.32,-188 -35.14,-131.38 66.25,-55.73 113.66,-24.93"/>
<polygon fill="midnightblue" stroke="midnightblue" points="115.55,-27.87 122.1,-19.55 111.78,-21.97 115.55,-27.87"/>
</g>
<!-- Node5 -->
<g id="node5" class="node">
<title>Node5</title>
<g id="a_node5"><a xlink:title=" ">
<polygon fill="white" stroke="#bfbfbf" points="22.82,-168.5 22.82,-187.5 77.82,-187.5 77.82,-168.5 22.82,-168.5"/>
<text text-anchor="middle" x="50.32" y="-175.5" font-family="Helvetica,sans-Serif" font-size="10.00">fstream</text>
</a>
</g>
</g>
<!-- Node3&#45;&gt;Node5 -->
<g id="edge4" class="edge">
<title>Node3&#45;&gt;Node5</title>
<path fill="none" stroke="midnightblue" d="M272.53,-226.81C226.99,-217.01 138.35,-197.94 87.87,-187.08"/>
<polygon fill="midnightblue" stroke="midnightblue" points="88.52,-183.64 78.01,-184.96 87.05,-190.48 88.52,-183.64"/>
</g>
<!-- Node6 -->
<g id="node6" class="node">
<title>Node6</title>
<g id="a_node6"><a xlink:title=" ">
<polygon fill="white" stroke="#bfbfbf" points="66.82,-112.5 66.82,-131.5 113.82,-131.5 113.82,-112.5 66.82,-112.5"/>
<text text-anchor="middle" x="90.32" y="-119.5" font-family="Helvetica,sans-Serif" font-size="10.00">vector</text>
</a>
</g>
</g>
<!-- Node3&#45;&gt;Node6 -->
<g id="edge5" class="edge">
<title>Node3&#45;&gt;Node6</title>
<path fill="none" stroke="midnightblue" d="M272.67,-232.55C235.08,-230.54 168.8,-222 125.32,-188 110.21,-176.18 100.8,-155.97 95.6,-141.21"/>
<polygon fill="midnightblue" stroke="midnightblue" points="98.91,-140.08 92.53,-131.63 92.24,-142.22 98.91,-140.08"/>
</g>
<!-- Node7 -->
<g id="node7" class="node">
<title>Node7</title>
<g id="a_node7"><a xlink:href="Vertex_8h.html" target="_top" xlink:title=" ">
<polygon fill="white" stroke="black" points="181.82,-56.5 181.82,-75.5 238.82,-75.5 238.82,-56.5 181.82,-56.5"/>
<text text-anchor="middle" x="210.32" y="-63.5" font-family="Helvetica,sans-Serif" font-size="10.00">Vertex.h</text>
</a>
</g>
</g>
<!-- Node3&#45;&gt;Node7 -->
<g id="edge6" class="edge">
<title>Node3&#45;&gt;Node7</title>
<path fill="none" stroke="midnightblue" d="M293.98,-224.42C286.68,-215.63 275.42,-201.41 267.32,-188 256.14,-169.5 231.08,-113.93 218.24,-84.98"/>
<polygon fill="midnightblue" stroke="midnightblue" points="221.35,-83.37 214.11,-75.64 214.95,-86.2 221.35,-83.37"/>
</g>
<!-- Node9 -->
<g id="node9" class="node">
<title>Node9</title>
<g id="a_node9"><a xlink:href="Edge_8h.html" target="_top" xlink:title=" ">
<polygon fill="white" stroke="black" points="170.32,-112.5 170.32,-131.5 220.32,-131.5 220.32,-112.5 170.32,-112.5"/>
<text text-anchor="middle" x="195.32" y="-119.5" font-family="Helvetica,sans-Serif" font-size="10.00">Edge.h</text>
</a>
</g>
</g>
<!-- Node3&#45;&gt;Node9 -->
<g id="edge9" class="edge">
<title>Node3&#45;&gt;Node9</title>
<path fill="none" stroke="midnightblue" d="M284.4,-224.4C269.86,-216.41 248.99,-203.44 234.32,-188 221.17,-174.16 210.4,-155.14 203.54,-141.25"/>
<polygon fill="midnightblue" stroke="midnightblue" points="206.51,-139.35 199.08,-131.8 200.18,-142.34 206.51,-139.35"/>
</g>
<!-- Node10 -->
<g id="node10" class="node">
<title>Node10</title>
<g id="a_node10"><a xlink:href="Face_8h.html" target="_top" xlink:title=" ">
<polygon fill="white" stroke="black" points="134.82,-168.5 134.82,-187.5 181.82,-187.5 181.82,-168.5 134.82,-168.5"/>
<text text-anchor="middle" x="158.32" y="-175.5" font-family="Helvetica,sans-Serif" font-size="10.00">Face.h</text>
</a>
</g>
</g>
<!-- Node3&#45;&gt;Node10 -->
<g id="edge11" class="edge">
<title>Node3&#45;&gt;Node10</title>
<path fill="none" stroke="midnightblue" d="M278.66,-224.44C254.92,-215.48 217.41,-201.31 190.58,-191.18"/>
<polygon fill="midnightblue" stroke="midnightblue" points="191.46,-187.77 180.87,-187.52 188.99,-194.32 191.46,-187.77"/>
</g>
<!-- Node11 -->
<g id="node11" class="node">
<title>Node11</title>
<g id="a_node11"><a xlink:title=" ">
<polygon fill="white" stroke="#bfbfbf" points="276.32,-168.5 276.32,-187.5 326.32,-187.5 326.32,-168.5 276.32,-168.5"/>
<text text-anchor="middle" x="301.32" y="-175.5" font-family="Helvetica,sans-Serif" font-size="10.00">stdio.h</text>
</a>
</g>
</g>
<!-- Node3&#45;&gt;Node11 -->
<g id="edge15" class="edge">
<title>Node3&#45;&gt;Node11</title>
<path fill="none" stroke="midnightblue" d="M301.32,-224.08C301.32,-217.01 301.32,-206.86 301.32,-197.99"/>
<polygon fill="midnightblue" stroke="midnightblue" points="304.82,-197.75 301.32,-187.75 297.82,-197.75 304.82,-197.75"/>
</g>
<!-- Node12 -->
<g id="node12" class="node">
<title>Node12</title>
<g id="a_node12"><a xlink:title=" ">
<polygon fill="white" stroke="#bfbfbf" points="344.82,-168.5 344.82,-187.5 397.82,-187.5 397.82,-168.5 344.82,-168.5"/>
<text text-anchor="middle" x="371.32" y="-175.5" font-family="Helvetica,sans-Serif" font-size="10.00">stdlib.h</text>
</a>
</g>
</g>
<!-- Node3&#45;&gt;Node12 -->
<g id="edge16" class="edge">
<title>Node3&#45;&gt;Node12</title>
<path fill="none" stroke="midnightblue" d="M312.57,-224.32C323.12,-216.18 339.12,-203.84 351.76,-194.09"/>
<polygon fill="midnightblue" stroke="midnightblue" points="354.09,-196.71 359.87,-187.83 349.81,-191.17 354.09,-196.71"/>
</g>
<!-- Node13 -->
<g id="node13" class="node">
<title>Node13</title>
<g id="a_node13"><a xlink:title=" ">
<polygon fill="white" stroke="#bfbfbf" points="416.32,-168.5 416.32,-187.5 472.32,-187.5 472.32,-168.5 416.32,-168.5"/>
<text text-anchor="middle" x="444.32" y="-175.5" font-family="Helvetica,sans-Serif" font-size="10.00">sstream</text>
</a>
</g>
</g>
<!-- Node3&#45;&gt;Node13 -->
<g id="edge17" class="edge">
<title>Node3&#45;&gt;Node13</title>
<path fill="none" stroke="midnightblue" d="M323.98,-224.44C347.72,-215.48 385.23,-201.31 412.06,-191.18"/>
<polygon fill="midnightblue" stroke="midnightblue" points="413.65,-194.32 421.77,-187.52 411.18,-187.77 413.65,-194.32"/>
</g>
<!-- Node14 -->
<g id="node14" class="node">
<title>Node14</title>
<g id="a_node14"><a xlink:title=" ">
<polygon fill="white" stroke="#bfbfbf" points="490.32,-168.5 490.32,-187.5 554.32,-187.5 554.32,-168.5 490.32,-168.5"/>
<text text-anchor="middle" x="522.32" y="-175.5" font-family="Helvetica,sans-Serif" font-size="10.00">GL/glew.h</text>
</a>
</g>
</g>
<!-- Node3&#45;&gt;Node14 -->
<g id="edge18" class="edge">
<title>Node3&#45;&gt;Node14</title>
<path fill="none" stroke="midnightblue" d="M330.21,-225.94C368.53,-216.58 436.42,-199.99 480.38,-189.25"/>
<polygon fill="midnightblue" stroke="midnightblue" points="481.31,-192.62 490.2,-186.85 479.65,-185.82 481.31,-192.62"/>
</g>
<!-- Node15 -->
<g id="node15" class="node">
<title>Node15</title>
<g id="a_node15"><a xlink:title=" ">
<polygon fill="white" stroke="#bfbfbf" points="572.82,-168.5 572.82,-187.5 655.82,-187.5 655.82,-168.5 572.82,-168.5"/>
<text text-anchor="middle" x="614.32" y="-175.5" font-family="Helvetica,sans-Serif" font-size="10.00">GLFW/glfw3.h</text>
</a>
</g>
</g>
<!-- Node3&#45;&gt;Node15 -->
<g id="edge19" class="edge">
<title>Node3&#45;&gt;Node15</title>
<path fill="none" stroke="midnightblue" d="M330.02,-228.12C376.53,-220.19 471.53,-203.96 562.63,-188.11"/>
<polygon fill="midnightblue" stroke="midnightblue" points="563.32,-191.55 572.57,-186.38 562.12,-184.65 563.32,-191.55"/>
</g>
<!-- Node16 -->
<g id="node16" class="node">
<title>Node16</title>
<g id="a_node16"><a xlink:title=" ">
<polygon fill="white" stroke="#bfbfbf" points="673.82,-168.5 673.82,-187.5 770.82,-187.5 770.82,-168.5 673.82,-168.5"/>
<text text-anchor="middle" x="722.32" y="-175.5" font-family="Helvetica,sans-Serif" font-size="10.00">glm/mat4x4.hpp</text>
</a>
</g>
</g>
<!-- Node3&#45;&gt;Node16 -->
<g id="edge20" class="edge">
<title>Node3&#45;&gt;Node16</title>
<path fill="none" stroke="midnightblue" d="M330.15,-229.77C390.19,-222.97 533.28,-206.39 663.38,-188.24"/>
<polygon fill="midnightblue" stroke="midnightblue" points="664.1,-191.67 673.52,-186.82 663.13,-184.74 664.1,-191.67"/>
</g>
<!-- Node17 -->
<g id="node17" class="node">
<title>Node17</title>
<g id="a_node17"><a xlink:title=" ">
<polygon fill="white" stroke="#bfbfbf" points="789.32,-168.5 789.32,-187.5 949.32,-187.5 949.32,-168.5 789.32,-168.5"/>
<text text-anchor="middle" x="869.32" y="-175.5" font-family="Helvetica,sans-Serif" font-size="10.00">glm/ext/scalar_constants.hpp</text>
</a>
</g>
</g>
<!-- Node3&#45;&gt;Node17 -->
<g id="edge21" class="edge">
<title>Node3&#45;&gt;Node17</title>
<path fill="none" stroke="midnightblue" d="M329.94,-230.38C402.88,-223.7 601.91,-205.36 779.24,-188.1"/>
<polygon fill="midnightblue" stroke="midnightblue" points="779.66,-191.58 789.27,-187.12 778.98,-184.61 779.66,-191.58"/>
</g>
<!-- Node7&#45;&gt;Node4 -->
<g id="edge7" class="edge">
<title>Node7&#45;&gt;Node4</title>
<path fill="none" stroke="midnightblue" d="M198.43,-56.32C187.17,-48.11 170.03,-35.6 156.61,-25.81"/>
<polygon fill="midnightblue" stroke="midnightblue" points="158.57,-22.9 148.43,-19.83 154.44,-28.56 158.57,-22.9"/>
</g>
<!-- Node8 -->
<g id="node8" class="node">
<title>Node8</title>
<g id="a_node8"><a xlink:title=" ">
<polygon fill="white" stroke="#bfbfbf" points="184.82,-0.5 184.82,-19.5 247.82,-19.5 247.82,-0.5 184.82,-0.5"/>
<text text-anchor="middle" x="216.32" y="-7.5" font-family="Helvetica,sans-Serif" font-size="10.00">armadillo</text>
</a>
</g>
</g>
<!-- Node7&#45;&gt;Node8 -->
<g id="edge8" class="edge">
<title>Node7&#45;&gt;Node8</title>
<path fill="none" stroke="midnightblue" d="M211.31,-56.08C212.11,-48.93 213.25,-38.64 214.24,-29.69"/>
<polygon fill="midnightblue" stroke="midnightblue" points="217.72,-30.08 215.35,-19.75 210.76,-29.3 217.72,-30.08"/>
</g>
<!-- Node9&#45;&gt;Node7 -->
<g id="edge10" class="edge">
<title>Node9&#45;&gt;Node7</title>
<path fill="none" stroke="midnightblue" d="M197.8,-112.08C199.81,-104.85 202.71,-94.41 205.21,-85.4"/>
<polygon fill="midnightblue" stroke="midnightblue" points="208.58,-86.32 207.89,-75.75 201.84,-84.45 208.58,-86.32"/>
</g>
<!-- Node10&#45;&gt;Node4 -->
<g id="edge13" class="edge">
<title>Node10&#45;&gt;Node4</title>
<path fill="none" stroke="midnightblue" d="M157.14,-168.08C153.67,-141.95 143.5,-65.21 138.78,-29.58"/>
<polygon fill="midnightblue" stroke="midnightblue" points="142.24,-29.02 137.46,-19.57 135.3,-29.94 142.24,-29.02"/>
</g>
<!-- Node10&#45;&gt;Node6 -->
<g id="edge14" class="edge">
<title>Node10&#45;&gt;Node6</title>
<path fill="none" stroke="midnightblue" d="M147.39,-168.32C137.14,-160.18 121.6,-147.84 109.32,-138.09"/>
<polygon fill="midnightblue" stroke="midnightblue" points="111.45,-135.31 101.44,-131.83 107.1,-140.79 111.45,-135.31"/>
</g>
<!-- Node10&#45;&gt;Node9 -->
<g id="edge12" class="edge">
<title>Node10&#45;&gt;Node9</title>
<path fill="none" stroke="midnightblue" d="M164.43,-168.08C169.6,-160.53 177.17,-149.49 183.51,-140.23"/>
<polygon fill="midnightblue" stroke="midnightblue" points="186.56,-141.98 189.32,-131.75 180.78,-138.02 186.56,-141.98"/>
</g>
<!-- Node18&#45;&gt;Node3 -->
<g id="edge23" class="edge">
<title>Node18&#45;&gt;Node3</title>
<path fill="none" stroke="midnightblue" d="M326.37,-280.08C322.22,-272.61 316.17,-261.72 311.05,-252.52"/>
<polygon fill="midnightblue" stroke="midnightblue" points="314.1,-250.79 306.18,-243.75 307.98,-254.19 314.1,-250.79"/>
</g>
</g>
</svg>
