<?xml version="1.0" encoding="UTF-8" standalone="no"?>
<!DOCTYPE svg PUBLIC "-//W3C//DTD SVG 1.1//EN"
 "http://www.w3.org/Graphics/SVG/1.1/DTD/svg11.dtd">
<!-- Generated by graphviz version 2.43.0 (0)
 -->
<!-- Title: include/Model.h Pages: 1 -->
<svg width="537pt" height="196pt"
 viewBox="0.00 0.00 536.50 196.00" xmlns="http://www.w3.org/2000/svg" xmlns:xlink="http://www.w3.org/1999/xlink">
<g id="graph0" class="graph" transform="scale(1 1) rotate(0) translate(4 192)">
<title>include/Model.h</title>
<polygon fill="white" stroke="transparent" points="-4,4 -4,-192 532.5,-192 532.5,4 -4,4"/>
<!-- Node1 -->
<g id="node1" class="node">
<title>Node1</title>
<g id="a_node1"><a xlink:title=" ">
<polygon fill="#bfbfbf" stroke="black" points="231,-168.5 231,-187.5 325,-187.5 325,-168.5 231,-168.5"/>
<text text-anchor="middle" x="278" y="-175.5" font-family="Helvetica,sans-Serif" font-size="10.00">include/Model.h</text>
</a>
</g>
</g>
<!-- Node2 -->
<g id="node2" class="node">
<title>Node2</title>
<g id="a_node2"><a xlink:href="Ball_8h.html" target="_top" xlink:title=" ">
<polygon fill="white" stroke="black" points="416.5,-112.5 416.5,-131.5 499.5,-131.5 499.5,-112.5 416.5,-112.5"/>
<text text-anchor="middle" x="458" y="-119.5" font-family="Helvetica,sans-Serif" font-size="10.00">include/Ball.h</text>
</a>
</g>
</g>
<!-- Node1&#45;&gt;Node2 -->
<g id="edge1" class="edge">
<title>Node1&#45;&gt;Node2</title>
<path fill="none" stroke="midnightblue" d="M316.11,-165.57C350.06,-155.38 398.99,-140.7 429.61,-131.52"/>
<polygon fill="midnightblue" stroke="midnightblue" points="315.09,-162.22 306.52,-168.44 317.11,-168.92 315.09,-162.22"/>
</g>
<!-- Node3 -->
<g id="node3" class="node">
<title>Node3</title>
<g id="a_node3"><a xlink:href="Simulation_8h.html" target="_top" xlink:title=" ">
<polygon fill="white" stroke="black" points="220,-56.5 220,-75.5 336,-75.5 336,-56.5 220,-56.5"/>
<text text-anchor="middle" x="278" y="-63.5" font-family="Helvetica,sans-Serif" font-size="10.00">include/Simulation.h</text>
</a>
</g>
</g>
<!-- Node1&#45;&gt;Node3 -->
<g id="edge15" class="edge">
<title>Node1&#45;&gt;Node3</title>
<path fill="none" stroke="midnightblue" d="M278,-158.35C278,-134.25 278,-93.31 278,-75.59"/>
<polygon fill="midnightblue" stroke="midnightblue" points="274.5,-158.37 278,-168.37 281.5,-158.37 274.5,-158.37"/>
</g>
<!-- Node7 -->
<g id="node7" class="node">
<title>Node7</title>
<g id="a_node7"><a xlink:href="Enemy_8h.html" target="_top" xlink:title=" ">
<polygon fill="white" stroke="black" points="28,-112.5 28,-131.5 124,-131.5 124,-112.5 28,-112.5"/>
<text text-anchor="middle" x="76" y="-119.5" font-family="Helvetica,sans-Serif" font-size="10.00">include/Enemy.h</text>
</a>
</g>
</g>
<!-- Node1&#45;&gt;Node7 -->
<g id="edge6" class="edge">
<title>Node1&#45;&gt;Node7</title>
<path fill="none" stroke="midnightblue" d="M236.21,-165.83C198.07,-155.63 142.52,-140.78 107.86,-131.52"/>
<polygon fill="midnightblue" stroke="midnightblue" points="235.43,-169.24 245.99,-168.44 237.24,-162.48 235.43,-169.24"/>
</g>
<!-- Node9 -->
<g id="node9" class="node">
<title>Node9</title>
<g id="a_node9"><a xlink:href="Message_8h.html" target="_top" xlink:title=" ">
<polygon fill="white" stroke="black" points="142.5,-112.5 142.5,-131.5 249.5,-131.5 249.5,-112.5 142.5,-112.5"/>
<text text-anchor="middle" x="196" y="-119.5" font-family="Helvetica,sans-Serif" font-size="10.00">include/Message.h</text>
</a>
</g>
</g>
<!-- Node1&#45;&gt;Node9 -->
<g id="edge9" class="edge">
<title>Node1&#45;&gt;Node9</title>
<path fill="none" stroke="midnightblue" d="M256.17,-162.62C241.19,-152.76 221.8,-139.99 209.14,-131.65"/>
<polygon fill="midnightblue" stroke="midnightblue" points="254.55,-165.75 264.83,-168.32 258.4,-159.9 254.55,-165.75"/>
</g>
<!-- Node11 -->
<g id="node11" class="node">
<title>Node11</title>
<g id="a_node11"><a xlink:href="Robot_8h.html" target="_top" xlink:title=" ">
<polygon fill="white" stroke="black" points="306,-112.5 306,-131.5 398,-131.5 398,-112.5 306,-112.5"/>
<text text-anchor="middle" x="352" y="-119.5" font-family="Helvetica,sans-Serif" font-size="10.00">include/Robot.h</text>
</a>
</g>
</g>
<!-- Node1&#45;&gt;Node11 -->
<g id="edge12" class="edge">
<title>Node1&#45;&gt;Node11</title>
<path fill="none" stroke="midnightblue" d="M298.03,-162.38C311.41,-152.62 328.56,-140.11 339.89,-131.83"/>
<polygon fill="midnightblue" stroke="midnightblue" points="295.9,-159.6 289.89,-168.32 300.03,-165.26 295.9,-159.6"/>
</g>
<!-- Node2&#45;&gt;Node3 -->
<g id="edge2" class="edge">
<title>Node2&#45;&gt;Node3</title>
<path fill="none" stroke="midnightblue" d="M419.89,-109.57C385.94,-99.38 337.01,-84.7 306.39,-75.52"/>
<polygon fill="midnightblue" stroke="midnightblue" points="418.89,-112.92 429.48,-112.44 420.91,-106.22 418.89,-112.92"/>
</g>
<!-- Node6 -->
<g id="node6" class="node">
<title>Node6</title>
<g id="a_node6"><a xlink:href="Ball_8cpp.html" target="_top" xlink:title=" ">
<polygon fill="white" stroke="black" points="455.5,-56.5 455.5,-75.5 528.5,-75.5 528.5,-56.5 455.5,-56.5"/>
<text text-anchor="middle" x="492" y="-63.5" font-family="Helvetica,sans-Serif" font-size="10.00">src/Ball.cpp</text>
</a>
</g>
</g>
<!-- Node2&#45;&gt;Node6 -->
<g id="edge5" class="edge">
<title>Node2&#45;&gt;Node6</title>
<path fill="none" stroke="midnightblue" d="M468.98,-103.57C474.83,-94.27 481.77,-83.25 486.49,-75.75"/>
<polygon fill="midnightblue" stroke="midnightblue" points="465.98,-101.76 463.61,-112.08 471.9,-105.49 465.98,-101.76"/>
</g>
<!-- Node4 -->
<g id="node4" class="node">
<title>Node4</title>
<g id="a_node4"><a xlink:href="main_8cpp.html" target="_top" xlink:title=" ">
<polygon fill="white" stroke="black" points="195,-0.5 195,-19.5 257,-19.5 257,-0.5 195,-0.5"/>
<text text-anchor="middle" x="226" y="-7.5" font-family="Helvetica,sans-Serif" font-size="10.00">main.cpp</text>
</a>
</g>
</g>
<!-- Node3&#45;&gt;Node4 -->
<g id="edge3" class="edge">
<title>Node3&#45;&gt;Node4</title>
<path fill="none" stroke="midnightblue" d="M262.32,-48.72C253.16,-39.2 241.95,-27.56 234.43,-19.75"/>
<polygon fill="midnightblue" stroke="midnightblue" points="259.96,-51.31 269.41,-56.08 265,-46.45 259.96,-51.31"/>
</g>
<!-- Node5 -->
<g id="node5" class="node">
<title>Node5</title>
<g id="a_node5"><a xlink:href="Simulation_8cpp.html" target="_top" xlink:title=" ">
<polygon fill="white" stroke="black" points="275.5,-0.5 275.5,-19.5 382.5,-19.5 382.5,-0.5 275.5,-0.5"/>
<text text-anchor="middle" x="329" y="-7.5" font-family="Helvetica,sans-Serif" font-size="10.00">src/Simulation.cpp</text>
</a>
</g>
</g>
<!-- Node3&#45;&gt;Node5 -->
<g id="edge4" class="edge">
<title>Node3&#45;&gt;Node5</title>
<path fill="none" stroke="midnightblue" d="M293.38,-48.72C302.37,-39.2 313.36,-27.56 320.74,-19.75"/>
<polygon fill="midnightblue" stroke="midnightblue" points="290.74,-46.41 286.42,-56.08 295.83,-51.22 290.74,-46.41"/>
</g>
<!-- Node7&#45;&gt;Node3 -->
<g id="edge7" class="edge">
<title>Node7&#45;&gt;Node3</title>
<path fill="none" stroke="midnightblue" d="M117.79,-109.83C155.93,-99.63 211.48,-84.78 246.14,-75.52"/>
<polygon fill="midnightblue" stroke="midnightblue" points="116.76,-106.48 108.01,-112.44 118.57,-113.24 116.76,-106.48"/>
</g>
<!-- Node8 -->
<g id="node8" class="node">
<title>Node8</title>
<g id="a_node8"><a xlink:href="Enemy_8cpp.html" target="_top" xlink:title=" ">
<polygon fill="white" stroke="black" points="0,-56.5 0,-75.5 86,-75.5 86,-56.5 0,-56.5"/>
<text text-anchor="middle" x="43" y="-63.5" font-family="Helvetica,sans-Serif" font-size="10.00">src/Enemy.cpp</text>
</a>
</g>
</g>
<!-- Node7&#45;&gt;Node8 -->
<g id="edge8" class="edge">
<title>Node7&#45;&gt;Node8</title>
<path fill="none" stroke="midnightblue" d="M65.17,-103.27C59.53,-94.05 52.88,-83.17 48.35,-75.75"/>
<polygon fill="midnightblue" stroke="midnightblue" points="62.35,-105.38 70.55,-112.08 68.32,-101.73 62.35,-105.38"/>
</g>
<!-- Node9&#45;&gt;Node3 -->
<g id="edge10" class="edge">
<title>Node9&#45;&gt;Node3</title>
<path fill="none" stroke="midnightblue" d="M217.83,-106.62C232.81,-96.76 252.2,-83.99 264.86,-75.65"/>
<polygon fill="midnightblue" stroke="midnightblue" points="215.6,-103.9 209.17,-112.32 219.45,-109.75 215.6,-103.9"/>
</g>
<!-- Node10 -->
<g id="node10" class="node">
<title>Node10</title>
<g id="a_node10"><a xlink:href="Message_8cpp.html" target="_top" xlink:title=" ">
<polygon fill="white" stroke="black" points="104,-56.5 104,-75.5 202,-75.5 202,-56.5 104,-56.5"/>
<text text-anchor="middle" x="153" y="-63.5" font-family="Helvetica,sans-Serif" font-size="10.00">src/Message.cpp</text>
</a>
</g>
</g>
<!-- Node9&#45;&gt;Node10 -->
<g id="edge11" class="edge">
<title>Node9&#45;&gt;Node10</title>
<path fill="none" stroke="midnightblue" d="M182.58,-104.14C175.09,-94.74 166.06,-83.4 159.97,-75.75"/>
<polygon fill="midnightblue" stroke="midnightblue" points="179.93,-106.44 188.9,-112.08 185.41,-102.08 179.93,-106.44"/>
</g>
<!-- Node11&#45;&gt;Node3 -->
<g id="edge13" class="edge">
<title>Node11&#45;&gt;Node3</title>
<path fill="none" stroke="midnightblue" d="M331.97,-106.38C318.59,-96.62 301.44,-84.11 290.11,-75.83"/>
<polygon fill="midnightblue" stroke="midnightblue" points="329.97,-109.26 340.11,-112.32 334.1,-103.6 329.97,-109.26"/>
</g>
<!-- Node12 -->
<g id="node12" class="node">
<title>Node12</title>
<g id="a_node12"><a xlink:href="Robot_8cpp.html" target="_top" xlink:title=" ">
<polygon fill="white" stroke="black" points="354.5,-56.5 354.5,-75.5 437.5,-75.5 437.5,-56.5 354.5,-56.5"/>
<text text-anchor="middle" x="396" y="-63.5" font-family="Helvetica,sans-Serif" font-size="10.00">src/Robot.cpp</text>
</a>
</g>
</g>
<!-- Node11&#45;&gt;Node12 -->
<g id="edge14" class="edge">
<title>Node11&#45;&gt;Node12</title>
<path fill="none" stroke="midnightblue" d="M365.73,-104.14C373.4,-94.74 382.63,-83.4 388.87,-75.75"/>
<polygon fill="midnightblue" stroke="midnightblue" points="362.87,-102.12 359.27,-112.08 368.3,-106.54 362.87,-102.12"/>
</g>
</g>
</svg>
