<?xml version="1.0" encoding="UTF-8" standalone="no"?>
<!DOCTYPE svg PUBLIC "-//W3C//DTD SVG 1.1//EN"
 "http://www.w3.org/Graphics/SVG/1.1/DTD/svg11.dtd">
<!-- Generated by graphviz version 2.43.0 (0)
 -->
<!-- Title: src/Obj.cpp Pages: 1 -->
<svg width="1139pt" height="364pt"
 viewBox="0.00 0.00 1139.50 364.00" xmlns="http://www.w3.org/2000/svg" xmlns:xlink="http://www.w3.org/1999/xlink">
<g id="graph0" class="graph" transform="scale(1 1) rotate(0) translate(4 360)">
<title>src/Obj.cpp</title>
<polygon fill="white" stroke="transparent" points="-4,4 -4,-360 1135.5,-360 1135.5,4 -4,4"/>
<!-- Node1 -->
<g id="node1" class="node">
<title>Node1</title>
<g id="a_node1"><a xlink:title=" ">
<polygon fill="#bfbfbf" stroke="black" points="301,-336.5 301,-355.5 372,-355.5 372,-336.5 301,-336.5"/>
<text text-anchor="middle" x="336.5" y="-343.5" font-family="Helvetica,sans-Serif" font-size="10.00">src/Obj.cpp</text>
</a>
</g>
</g>
<!-- Node2 -->
<g id="node2" class="node">
<title>Node2</title>
<g id="a_node2"><a xlink:href="Obj_8h.html" target="_top" xlink:title=" ">
<polygon fill="white" stroke="black" points="292,-280.5 292,-299.5 381,-299.5 381,-280.5 292,-280.5"/>
<text text-anchor="middle" x="336.5" y="-287.5" font-family="Helvetica,sans-Serif" font-size="10.00">../include/Obj.h</text>
</a>
</g>
</g>
<!-- Node1&#45;&gt;Node2 -->
<g id="edge1" class="edge">
<title>Node1&#45;&gt;Node2</title>
<path fill="none" stroke="midnightblue" d="M336.5,-336.08C336.5,-329.01 336.5,-318.86 336.5,-309.99"/>
<polygon fill="midnightblue" stroke="midnightblue" points="340,-309.75 336.5,-299.75 333,-309.75 340,-309.75"/>
</g>
<!-- Node3 -->
<g id="node3" class="node">
<title>Node3</title>
<g id="a_node3"><a xlink:href="Object_8h.html" target="_top" xlink:title=" ">
<polygon fill="white" stroke="black" points="308,-224.5 308,-243.5 365,-243.5 365,-224.5 308,-224.5"/>
<text text-anchor="middle" x="336.5" y="-231.5" font-family="Helvetica,sans-Serif" font-size="10.00">Object.h</text>
</a>
</g>
</g>
<!-- Node2&#45;&gt;Node3 -->
<g id="edge2" class="edge">
<title>Node2&#45;&gt;Node3</title>
<path fill="none" stroke="midnightblue" d="M336.5,-280.08C336.5,-273.01 336.5,-262.86 336.5,-253.99"/>
<polygon fill="midnightblue" stroke="midnightblue" points="340,-253.75 336.5,-243.75 333,-253.75 340,-253.75"/>
</g>
<!-- Node4 -->
<g id="node4" class="node">
<title>Node4</title>
<g id="a_node4"><a xlink:title=" ">
<polygon fill="white" stroke="#bfbfbf" points="106.5,-0.5 106.5,-19.5 166.5,-19.5 166.5,-0.5 106.5,-0.5"/>
<text text-anchor="middle" x="136.5" y="-7.5" font-family="Helvetica,sans-Serif" font-size="10.00">iostream</text>
</a>
</g>
</g>
<!-- Node3&#45;&gt;Node4 -->
<g id="edge3" class="edge">
<title>Node3&#45;&gt;Node4</title>
<path fill="none" stroke="midnightblue" d="M307.95,-233.56C236.25,-234.3 51.65,-231.83 13.5,-188 -35.43,-131.78 66.22,-55.91 113.77,-24.99"/>
<polygon fill="midnightblue" stroke="midnightblue" points="115.69,-27.92 122.23,-19.59 111.92,-22.01 115.69,-27.92"/>
</g>
<!-- Node5 -->
<g id="node5" class="node">
<title>Node5</title>
<g id="a_node5"><a xlink:title=" ">
<polygon fill="white" stroke="#bfbfbf" points="23,-168.5 23,-187.5 78,-187.5 78,-168.5 23,-168.5"/>
<text text-anchor="middle" x="50.5" y="-175.5" font-family="Helvetica,sans-Serif" font-size="10.00">fstream</text>
</a>
</g>
</g>
<!-- Node3&#45;&gt;Node5 -->
<g id="edge4" class="edge">
<title>Node3&#45;&gt;Node5</title>
<path fill="none" stroke="midnightblue" d="M307.9,-228C262.27,-219.96 170.23,-203.49 92.5,-188 91.04,-187.71 89.55,-187.41 88.04,-187.1"/>
<polygon fill="midnightblue" stroke="midnightblue" points="88.54,-183.63 78.04,-185.02 87.12,-190.48 88.54,-183.63"/>
</g>
<!-- Node6 -->
<g id="node6" class="node">
<title>Node6</title>
<g id="a_node6"><a xlink:title=" ">
<polygon fill="white" stroke="#bfbfbf" points="67,-112.5 67,-131.5 114,-131.5 114,-112.5 67,-112.5"/>
<text text-anchor="middle" x="90.5" y="-119.5" font-family="Helvetica,sans-Serif" font-size="10.00">vector</text>
</a>
</g>
</g>
<!-- Node3&#45;&gt;Node6 -->
<g id="edge5" class="edge">
<title>Node3&#45;&gt;Node6</title>
<path fill="none" stroke="midnightblue" d="M307.89,-229.82C257.38,-223.74 155.03,-209.15 126.5,-188 110.99,-176.5 101.31,-156.23 95.95,-141.37"/>
<polygon fill="midnightblue" stroke="midnightblue" points="99.22,-140.13 92.78,-131.72 92.57,-142.31 99.22,-140.13"/>
</g>
<!-- Node7 -->
<g id="node7" class="node">
<title>Node7</title>
<g id="a_node7"><a xlink:href="Vertex_8h.html" target="_top" xlink:title=" ">
<polygon fill="white" stroke="black" points="182,-56.5 182,-75.5 239,-75.5 239,-56.5 182,-56.5"/>
<text text-anchor="middle" x="210.5" y="-63.5" font-family="Helvetica,sans-Serif" font-size="10.00">Vertex.h</text>
</a>
</g>
</g>
<!-- Node3&#45;&gt;Node7 -->
<g id="edge6" class="edge">
<title>Node3&#45;&gt;Node7</title>
<path fill="none" stroke="midnightblue" d="M317.75,-224.41C302.57,-216.68 281.5,-204.07 267.5,-188 260.24,-179.66 232.23,-116.75 218.37,-85.09"/>
<polygon fill="midnightblue" stroke="midnightblue" points="221.46,-83.44 214.26,-75.67 215.05,-86.24 221.46,-83.44"/>
</g>
<!-- Node9 -->
<g id="node9" class="node">
<title>Node9</title>
<g id="a_node9"><a xlink:href="Edge_8h.html" target="_top" xlink:title=" ">
<polygon fill="white" stroke="black" points="170.5,-112.5 170.5,-131.5 220.5,-131.5 220.5,-112.5 170.5,-112.5"/>
<text text-anchor="middle" x="195.5" y="-119.5" font-family="Helvetica,sans-Serif" font-size="10.00">Edge.h</text>
</a>
</g>
</g>
<!-- Node3&#45;&gt;Node9 -->
<g id="edge9" class="edge">
<title>Node3&#45;&gt;Node9</title>
<path fill="none" stroke="midnightblue" d="M307.92,-225.57C285.89,-218.7 255.69,-206.7 234.5,-188 219.89,-175.11 209.13,-155.39 202.66,-141.05"/>
<polygon fill="midnightblue" stroke="midnightblue" points="205.84,-139.57 198.71,-131.73 199.39,-142.3 205.84,-139.57"/>
</g>
<!-- Node10 -->
<g id="node10" class="node">
<title>Node10</title>
<g id="a_node10"><a xlink:href="Face_8h.html" target="_top" xlink:title=" ">
<polygon fill="white" stroke="black" points="135,-168.5 135,-187.5 182,-187.5 182,-168.5 135,-168.5"/>
<text text-anchor="middle" x="158.5" y="-175.5" font-family="Helvetica,sans-Serif" font-size="10.00">Face.h</text>
</a>
</g>
</g>
<!-- Node3&#45;&gt;Node10 -->
<g id="edge11" class="edge">
<title>Node3&#45;&gt;Node10</title>
<path fill="none" stroke="midnightblue" d="M308.3,-224.44C276.67,-214.85 225.42,-199.3 191.84,-189.11"/>
<polygon fill="midnightblue" stroke="midnightblue" points="192.61,-185.69 182.02,-186.14 190.58,-192.39 192.61,-185.69"/>
</g>
<!-- Node11 -->
<g id="node11" class="node">
<title>Node11</title>
<g id="a_node11"><a xlink:title=" ">
<polygon fill="white" stroke="#bfbfbf" points="276.5,-168.5 276.5,-187.5 326.5,-187.5 326.5,-168.5 276.5,-168.5"/>
<text text-anchor="middle" x="301.5" y="-175.5" font-family="Helvetica,sans-Serif" font-size="10.00">stdio.h</text>
</a>
</g>
</g>
<!-- Node3&#45;&gt;Node11 -->
<g id="edge15" class="edge">
<title>Node3&#45;&gt;Node11</title>
<path fill="none" stroke="midnightblue" d="M330.72,-224.08C325.83,-216.53 318.67,-205.49 312.67,-196.23"/>
<polygon fill="midnightblue" stroke="midnightblue" points="315.55,-194.24 307.17,-187.75 309.67,-198.05 315.55,-194.24"/>
</g>
<!-- Node12 -->
<g id="node12" class="node">
<title>Node12</title>
<g id="a_node12"><a xlink:title=" ">
<polygon fill="white" stroke="#bfbfbf" points="345,-168.5 345,-187.5 398,-187.5 398,-168.5 345,-168.5"/>
<text text-anchor="middle" x="371.5" y="-175.5" font-family="Helvetica,sans-Serif" font-size="10.00">stdlib.h</text>
</a>
</g>
</g>
<!-- Node3&#45;&gt;Node12 -->
<g id="edge16" class="edge">
<title>Node3&#45;&gt;Node12</title>
<path fill="none" stroke="midnightblue" d="M342.28,-224.08C347.17,-216.53 354.33,-205.49 360.33,-196.23"/>
<polygon fill="midnightblue" stroke="midnightblue" points="363.33,-198.05 365.83,-187.75 357.45,-194.24 363.33,-198.05"/>
</g>
<!-- Node13 -->
<g id="node13" class="node">
<title>Node13</title>
<g id="a_node13"><a xlink:title=" ">
<polygon fill="white" stroke="#bfbfbf" points="416.5,-168.5 416.5,-187.5 472.5,-187.5 472.5,-168.5 416.5,-168.5"/>
<text text-anchor="middle" x="444.5" y="-175.5" font-family="Helvetica,sans-Serif" font-size="10.00">sstream</text>
</a>
</g>
</g>
<!-- Node3&#45;&gt;Node13 -->
<g id="edge17" class="edge">
<title>Node3&#45;&gt;Node13</title>
<path fill="none" stroke="midnightblue" d="M353.85,-224.32C371.17,-215.66 398.02,-202.24 418,-192.25"/>
<polygon fill="midnightblue" stroke="midnightblue" points="419.81,-195.26 427.19,-187.65 416.68,-189 419.81,-195.26"/>
</g>
<!-- Node14 -->
<g id="node14" class="node">
<title>Node14</title>
<g id="a_node14"><a xlink:title=" ">
<polygon fill="white" stroke="#bfbfbf" points="490.5,-168.5 490.5,-187.5 554.5,-187.5 554.5,-168.5 490.5,-168.5"/>
<text text-anchor="middle" x="522.5" y="-175.5" font-family="Helvetica,sans-Serif" font-size="10.00">GL/glew.h</text>
</a>
</g>
</g>
<!-- Node3&#45;&gt;Node14 -->
<g id="edge18" class="edge">
<title>Node3&#45;&gt;Node14</title>
<path fill="none" stroke="midnightblue" d="M365.15,-224.68C396.78,-215.5 447.88,-200.66 483.23,-190.4"/>
<polygon fill="midnightblue" stroke="midnightblue" points="484.57,-193.66 493.2,-187.51 482.62,-186.93 484.57,-193.66"/>
</g>
<!-- Node15 -->
<g id="node15" class="node">
<title>Node15</title>
<g id="a_node15"><a xlink:title=" ">
<polygon fill="white" stroke="#bfbfbf" points="573,-168.5 573,-187.5 656,-187.5 656,-168.5 573,-168.5"/>
<text text-anchor="middle" x="614.5" y="-175.5" font-family="Helvetica,sans-Serif" font-size="10.00">GLFW/glfw3.h</text>
</a>
</g>
</g>
<!-- Node3&#45;&gt;Node15 -->
<g id="edge19" class="edge">
<title>Node3&#45;&gt;Node15</title>
<path fill="none" stroke="midnightblue" d="M365.2,-227.42C411.79,-218.37 504.52,-200.36 562.82,-189.04"/>
<polygon fill="midnightblue" stroke="midnightblue" points="563.78,-192.42 572.93,-187.08 562.44,-185.55 563.78,-192.42"/>
</g>
<!-- Node16 -->
<g id="node16" class="node">
<title>Node16</title>
<g id="a_node16"><a xlink:title=" ">
<polygon fill="white" stroke="#bfbfbf" points="674,-168.5 674,-187.5 771,-187.5 771,-168.5 674,-168.5"/>
<text text-anchor="middle" x="722.5" y="-175.5" font-family="Helvetica,sans-Serif" font-size="10.00">glm/mat4x4.hpp</text>
</a>
</g>
</g>
<!-- Node3&#45;&gt;Node16 -->
<g id="edge20" class="edge">
<title>Node3&#45;&gt;Node16</title>
<path fill="none" stroke="midnightblue" d="M365.13,-229.29C420.67,-222.04 547.14,-205.32 663.54,-188.27"/>
<polygon fill="midnightblue" stroke="midnightblue" points="664.31,-191.69 673.69,-186.77 663.29,-184.77 664.31,-191.69"/>
</g>
<!-- Node17 -->
<g id="node17" class="node">
<title>Node17</title>
<g id="a_node17"><a xlink:title=" ">
<polygon fill="white" stroke="#bfbfbf" points="789.5,-168.5 789.5,-187.5 953.5,-187.5 953.5,-168.5 789.5,-168.5"/>
<text text-anchor="middle" x="871.5" y="-175.5" font-family="Helvetica,sans-Serif" font-size="10.00">glm/ext/matrix_transform.hpp</text>
</a>
</g>
</g>
<!-- Node3&#45;&gt;Node17 -->
<g id="edge21" class="edge">
<title>Node3&#45;&gt;Node17</title>
<path fill="none" stroke="midnightblue" d="M365.26,-230.1C442.21,-222.33 655.33,-200.82 779.14,-188.32"/>
<polygon fill="midnightblue" stroke="midnightblue" points="779.76,-191.78 789.36,-187.29 779.06,-184.81 779.76,-191.78"/>
</g>
<!-- Node18 -->
<g id="node18" class="node">
<title>Node18</title>
<g id="a_node18"><a xlink:title=" ">
<polygon fill="white" stroke="#bfbfbf" points="971.5,-168.5 971.5,-187.5 1131.5,-187.5 1131.5,-168.5 971.5,-168.5"/>
<text text-anchor="middle" x="1051.5" y="-175.5" font-family="Helvetica,sans-Serif" font-size="10.00">glm/ext/scalar_constants.hpp</text>
</a>
</g>
</g>
<!-- Node3&#45;&gt;Node18 -->
<g id="edge22" class="edge">
<title>Node3&#45;&gt;Node18</title>
<path fill="none" stroke="midnightblue" d="M365.23,-231.23C452.83,-225.78 724.52,-208.41 961.28,-188.08"/>
<polygon fill="midnightblue" stroke="midnightblue" points="961.79,-191.55 971.46,-187.2 961.19,-184.58 961.79,-191.55"/>
</g>
<!-- Node7&#45;&gt;Node4 -->
<g id="edge7" class="edge">
<title>Node7&#45;&gt;Node4</title>
<path fill="none" stroke="midnightblue" d="M198.61,-56.32C187.35,-48.11 170.21,-35.6 156.79,-25.81"/>
<polygon fill="midnightblue" stroke="midnightblue" points="158.75,-22.9 148.61,-19.83 154.62,-28.56 158.75,-22.9"/>
</g>
<!-- Node8 -->
<g id="node8" class="node">
<title>Node8</title>
<g id="a_node8"><a xlink:title=" ">
<polygon fill="white" stroke="#bfbfbf" points="185,-0.5 185,-19.5 248,-19.5 248,-0.5 185,-0.5"/>
<text text-anchor="middle" x="216.5" y="-7.5" font-family="Helvetica,sans-Serif" font-size="10.00">armadillo</text>
</a>
</g>
</g>
<!-- Node7&#45;&gt;Node8 -->
<g id="edge8" class="edge">
<title>Node7&#45;&gt;Node8</title>
<path fill="none" stroke="midnightblue" d="M211.49,-56.08C212.29,-48.93 213.43,-38.64 214.42,-29.69"/>
<polygon fill="midnightblue" stroke="midnightblue" points="217.9,-30.08 215.53,-19.75 210.94,-29.3 217.9,-30.08"/>
</g>
<!-- Node9&#45;&gt;Node7 -->
<g id="edge10" class="edge">
<title>Node9&#45;&gt;Node7</title>
<path fill="none" stroke="midnightblue" d="M197.98,-112.08C199.99,-104.85 202.89,-94.41 205.39,-85.4"/>
<polygon fill="midnightblue" stroke="midnightblue" points="208.76,-86.32 208.07,-75.75 202.02,-84.45 208.76,-86.32"/>
</g>
<!-- Node10&#45;&gt;Node4 -->
<g id="edge13" class="edge">
<title>Node10&#45;&gt;Node4</title>
<path fill="none" stroke="midnightblue" d="M157.32,-168.08C153.85,-141.95 143.68,-65.21 138.96,-29.58"/>
<polygon fill="midnightblue" stroke="midnightblue" points="142.42,-29.02 137.64,-19.57 135.48,-29.94 142.42,-29.02"/>
</g>
<!-- Node10&#45;&gt;Node6 -->
<g id="edge14" class="edge">
<title>Node10&#45;&gt;Node6</title>
<path fill="none" stroke="midnightblue" d="M147.57,-168.32C137.33,-160.18 121.78,-147.84 109.5,-138.09"/>
<polygon fill="midnightblue" stroke="midnightblue" points="111.63,-135.31 101.62,-131.83 107.28,-140.79 111.63,-135.31"/>
</g>
<!-- Node10&#45;&gt;Node9 -->
<g id="edge12" class="edge">
<title>Node10&#45;&gt;Node9</title>
<path fill="none" stroke="midnightblue" d="M164.61,-168.08C169.78,-160.53 177.35,-149.49 183.69,-140.23"/>
<polygon fill="midnightblue" stroke="midnightblue" points="186.74,-141.98 189.5,-131.75 180.96,-138.02 186.74,-141.98"/>
</g>
</g>
</svg>
