<?xml version="1.0" encoding="UTF-8" standalone="no"?>
<!DOCTYPE svg PUBLIC "-//W3C//DTD SVG 1.1//EN"
 "http://www.w3.org/Graphics/SVG/1.1/DTD/svg11.dtd">
<!-- Generated by graphviz version 2.43.0 (0)
 -->
<!-- Title: include/Obj.h Pages: 1 -->
<svg width="1244pt" height="308pt"
 viewBox="0.00 0.00 1243.50 308.00" xmlns="http://www.w3.org/2000/svg" xmlns:xlink="http://www.w3.org/1999/xlink">
<g id="graph0" class="graph" transform="scale(1 1) rotate(0) translate(4 304)">
<title>include/Obj.h</title>
<polygon fill="white" stroke="transparent" points="-4,4 -4,-304 1239.5,-304 1239.5,4 -4,4"/>
<!-- Node1 -->
<g id="node1" class="node">
<title>Node1</title>
<g id="a_node1"><a xlink:title=" ">
<polygon fill="#bfbfbf" stroke="black" points="547.5,-280.5 547.5,-299.5 627.5,-299.5 627.5,-280.5 547.5,-280.5"/>
<text text-anchor="middle" x="587.5" y="-287.5" font-family="Helvetica,sans-Serif" font-size="10.00">include/Obj.h</text>
</a>
</g>
</g>
<!-- Node2 -->
<g id="node2" class="node">
<title>Node2</title>
<g id="a_node2"><a xlink:href="Object_8h.html" target="_top" xlink:title=" ">
<polygon fill="white" stroke="black" points="559,-224.5 559,-243.5 616,-243.5 616,-224.5 559,-224.5"/>
<text text-anchor="middle" x="587.5" y="-231.5" font-family="Helvetica,sans-Serif" font-size="10.00">Object.h</text>
</a>
</g>
</g>
<!-- Node1&#45;&gt;Node2 -->
<g id="edge1" class="edge">
<title>Node1&#45;&gt;Node2</title>
<path fill="none" stroke="midnightblue" d="M587.5,-280.08C587.5,-273.01 587.5,-262.86 587.5,-253.99"/>
<polygon fill="midnightblue" stroke="midnightblue" points="591,-253.75 587.5,-243.75 584,-253.75 591,-253.75"/>
</g>
<!-- Node3 -->
<g id="node3" class="node">
<title>Node3</title>
<g id="a_node3"><a xlink:title=" ">
<polygon fill="white" stroke="#bfbfbf" points="278.5,-0.5 278.5,-19.5 338.5,-19.5 338.5,-0.5 278.5,-0.5"/>
<text text-anchor="middle" x="308.5" y="-7.5" font-family="Helvetica,sans-Serif" font-size="10.00">iostream</text>
</a>
</g>
</g>
<!-- Node2&#45;&gt;Node3 -->
<g id="edge2" class="edge">
<title>Node2&#45;&gt;Node3</title>
<path fill="none" stroke="midnightblue" d="M558.83,-227.05C535.23,-220.85 502.23,-209.01 480.5,-188 453.77,-162.15 468.99,-140.83 445.5,-112 414.01,-73.34 364.51,-41.76 334.43,-24.73"/>
<polygon fill="midnightblue" stroke="midnightblue" points="335.83,-21.51 325.39,-19.72 332.44,-27.63 335.83,-21.51"/>
</g>
<!-- Node4 -->
<g id="node4" class="node">
<title>Node4</title>
<g id="a_node4"><a xlink:title=" ">
<polygon fill="white" stroke="#bfbfbf" points="489,-168.5 489,-187.5 544,-187.5 544,-168.5 489,-168.5"/>
<text text-anchor="middle" x="516.5" y="-175.5" font-family="Helvetica,sans-Serif" font-size="10.00">fstream</text>
</a>
</g>
</g>
<!-- Node2&#45;&gt;Node4 -->
<g id="edge3" class="edge">
<title>Node2&#45;&gt;Node4</title>
<path fill="none" stroke="midnightblue" d="M576.09,-224.32C565.39,-216.18 549.16,-203.84 536.34,-194.09"/>
<polygon fill="midnightblue" stroke="midnightblue" points="538.19,-191.1 528.11,-187.83 533.96,-196.67 538.19,-191.1"/>
</g>
<!-- Node5 -->
<g id="node5" class="node">
<title>Node5</title>
<g id="a_node5"><a xlink:title=" ">
<polygon fill="white" stroke="#bfbfbf" points="389,-112.5 389,-131.5 436,-131.5 436,-112.5 389,-112.5"/>
<text text-anchor="middle" x="412.5" y="-119.5" font-family="Helvetica,sans-Serif" font-size="10.00">vector</text>
</a>
</g>
</g>
<!-- Node2&#45;&gt;Node5 -->
<g id="edge4" class="edge">
<title>Node2&#45;&gt;Node5</title>
<path fill="none" stroke="midnightblue" d="M558.74,-230.29C527.85,-226.02 478.86,-215.19 446.5,-188 432.05,-175.86 422.93,-155.98 417.82,-141.41"/>
<polygon fill="midnightblue" stroke="midnightblue" points="421.04,-139.97 414.67,-131.5 414.37,-142.09 421.04,-139.97"/>
</g>
<!-- Node6 -->
<g id="node6" class="node">
<title>Node6</title>
<g id="a_node6"><a xlink:href="Vertex_8h.html" target="_top" xlink:title=" ">
<polygon fill="white" stroke="black" points="115,-56.5 115,-75.5 172,-75.5 172,-56.5 115,-56.5"/>
<text text-anchor="middle" x="143.5" y="-63.5" font-family="Helvetica,sans-Serif" font-size="10.00">Vertex.h</text>
</a>
</g>
</g>
<!-- Node2&#45;&gt;Node6 -->
<g id="edge5" class="edge">
<title>Node2&#45;&gt;Node6</title>
<path fill="none" stroke="midnightblue" d="M558.58,-233.69C495.53,-234.29 341.78,-230.83 222.5,-188 178.87,-172.33 156.81,-172.64 134.5,-132 126.55,-117.52 130.5,-98.58 135.41,-84.89"/>
<polygon fill="midnightblue" stroke="midnightblue" points="138.66,-86.18 139.18,-75.6 132.18,-83.55 138.66,-86.18"/>
</g>
<!-- Node10 -->
<g id="node10" class="node">
<title>Node10</title>
<g id="a_node10"><a xlink:href="Edge_8h.html" target="_top" xlink:title=" ">
<polygon fill="white" stroke="black" points="143.5,-112.5 143.5,-131.5 193.5,-131.5 193.5,-112.5 143.5,-112.5"/>
<text text-anchor="middle" x="168.5" y="-119.5" font-family="Helvetica,sans-Serif" font-size="10.00">Edge.h</text>
</a>
</g>
</g>
<!-- Node2&#45;&gt;Node10 -->
<g id="edge10" class="edge">
<title>Node2&#45;&gt;Node10</title>
<path fill="none" stroke="midnightblue" d="M558.57,-233.42C500.4,-233.32 366.01,-228.3 262.5,-188 232.79,-176.43 203.34,-153.77 185.53,-138.51"/>
<polygon fill="midnightblue" stroke="midnightblue" points="187.59,-135.66 177.77,-131.69 182.97,-140.92 187.59,-135.66"/>
</g>
<!-- Node11 -->
<g id="node11" class="node">
<title>Node11</title>
<g id="a_node11"><a xlink:href="Face_8h.html" target="_top" xlink:title=" ">
<polygon fill="white" stroke="black" points="271,-168.5 271,-187.5 318,-187.5 318,-168.5 271,-168.5"/>
<text text-anchor="middle" x="294.5" y="-175.5" font-family="Helvetica,sans-Serif" font-size="10.00">Face.h</text>
</a>
</g>
</g>
<!-- Node2&#45;&gt;Node11 -->
<g id="edge12" class="edge">
<title>Node2&#45;&gt;Node11</title>
<path fill="none" stroke="midnightblue" d="M558.87,-227.72C504.51,-217.71 386.59,-195.97 328.39,-185.25"/>
<polygon fill="midnightblue" stroke="midnightblue" points="328.72,-181.75 318.25,-183.38 327.45,-188.63 328.72,-181.75"/>
</g>
<!-- Node13 -->
<g id="node13" class="node">
<title>Node13</title>
<g id="a_node13"><a xlink:title=" ">
<polygon fill="white" stroke="#bfbfbf" points="562.5,-168.5 562.5,-187.5 612.5,-187.5 612.5,-168.5 562.5,-168.5"/>
<text text-anchor="middle" x="587.5" y="-175.5" font-family="Helvetica,sans-Serif" font-size="10.00">stdio.h</text>
</a>
</g>
</g>
<!-- Node2&#45;&gt;Node13 -->
<g id="edge18" class="edge">
<title>Node2&#45;&gt;Node13</title>
<path fill="none" stroke="midnightblue" d="M587.5,-224.08C587.5,-217.01 587.5,-206.86 587.5,-197.99"/>
<polygon fill="midnightblue" stroke="midnightblue" points="591,-197.75 587.5,-187.75 584,-197.75 591,-197.75"/>
</g>
<!-- Node14 -->
<g id="node14" class="node">
<title>Node14</title>
<g id="a_node14"><a xlink:title=" ">
<polygon fill="white" stroke="#bfbfbf" points="631,-168.5 631,-187.5 684,-187.5 684,-168.5 631,-168.5"/>
<text text-anchor="middle" x="657.5" y="-175.5" font-family="Helvetica,sans-Serif" font-size="10.00">stdlib.h</text>
</a>
</g>
</g>
<!-- Node2&#45;&gt;Node14 -->
<g id="edge19" class="edge">
<title>Node2&#45;&gt;Node14</title>
<path fill="none" stroke="midnightblue" d="M598.75,-224.32C609.3,-216.18 625.3,-203.84 637.94,-194.09"/>
<polygon fill="midnightblue" stroke="midnightblue" points="640.27,-196.71 646.05,-187.83 635.99,-191.17 640.27,-196.71"/>
</g>
<!-- Node15 -->
<g id="node15" class="node">
<title>Node15</title>
<g id="a_node15"><a xlink:title=" ">
<polygon fill="white" stroke="#bfbfbf" points="702.5,-168.5 702.5,-187.5 758.5,-187.5 758.5,-168.5 702.5,-168.5"/>
<text text-anchor="middle" x="730.5" y="-175.5" font-family="Helvetica,sans-Serif" font-size="10.00">sstream</text>
</a>
</g>
</g>
<!-- Node2&#45;&gt;Node15 -->
<g id="edge20" class="edge">
<title>Node2&#45;&gt;Node15</title>
<path fill="none" stroke="midnightblue" d="M610.16,-224.44C633.9,-215.48 671.41,-201.31 698.24,-191.18"/>
<polygon fill="midnightblue" stroke="midnightblue" points="699.83,-194.32 707.95,-187.52 697.36,-187.77 699.83,-194.32"/>
</g>
<!-- Node16 -->
<g id="node16" class="node">
<title>Node16</title>
<g id="a_node16"><a xlink:title=" ">
<polygon fill="white" stroke="#bfbfbf" points="776.5,-168.5 776.5,-187.5 840.5,-187.5 840.5,-168.5 776.5,-168.5"/>
<text text-anchor="middle" x="808.5" y="-175.5" font-family="Helvetica,sans-Serif" font-size="10.00">GL/glew.h</text>
</a>
</g>
</g>
<!-- Node2&#45;&gt;Node16 -->
<g id="edge21" class="edge">
<title>Node2&#45;&gt;Node16</title>
<path fill="none" stroke="midnightblue" d="M616.39,-225.94C654.71,-216.58 722.6,-199.99 766.56,-189.25"/>
<polygon fill="midnightblue" stroke="midnightblue" points="767.49,-192.62 776.38,-186.85 765.83,-185.82 767.49,-192.62"/>
</g>
<!-- Node17 -->
<g id="node17" class="node">
<title>Node17</title>
<g id="a_node17"><a xlink:title=" ">
<polygon fill="white" stroke="#bfbfbf" points="859,-168.5 859,-187.5 942,-187.5 942,-168.5 859,-168.5"/>
<text text-anchor="middle" x="900.5" y="-175.5" font-family="Helvetica,sans-Serif" font-size="10.00">GLFW/glfw3.h</text>
</a>
</g>
</g>
<!-- Node2&#45;&gt;Node17 -->
<g id="edge22" class="edge">
<title>Node2&#45;&gt;Node17</title>
<path fill="none" stroke="midnightblue" d="M616.2,-228.12C662.71,-220.19 757.71,-203.96 848.81,-188.11"/>
<polygon fill="midnightblue" stroke="midnightblue" points="849.5,-191.55 858.75,-186.38 848.3,-184.65 849.5,-191.55"/>
</g>
<!-- Node18 -->
<g id="node18" class="node">
<title>Node18</title>
<g id="a_node18"><a xlink:title=" ">
<polygon fill="white" stroke="#bfbfbf" points="960,-168.5 960,-187.5 1057,-187.5 1057,-168.5 960,-168.5"/>
<text text-anchor="middle" x="1008.5" y="-175.5" font-family="Helvetica,sans-Serif" font-size="10.00">glm/mat4x4.hpp</text>
</a>
</g>
</g>
<!-- Node2&#45;&gt;Node18 -->
<g id="edge23" class="edge">
<title>Node2&#45;&gt;Node18</title>
<path fill="none" stroke="midnightblue" d="M616.33,-229.77C676.37,-222.97 819.46,-206.39 949.56,-188.24"/>
<polygon fill="midnightblue" stroke="midnightblue" points="950.28,-191.67 959.7,-186.82 949.31,-184.74 950.28,-191.67"/>
</g>
<!-- Node19 -->
<g id="node19" class="node">
<title>Node19</title>
<g id="a_node19"><a xlink:title=" ">
<polygon fill="white" stroke="#bfbfbf" points="1075.5,-168.5 1075.5,-187.5 1235.5,-187.5 1235.5,-168.5 1075.5,-168.5"/>
<text text-anchor="middle" x="1155.5" y="-175.5" font-family="Helvetica,sans-Serif" font-size="10.00">glm/ext/scalar_constants.hpp</text>
</a>
</g>
</g>
<!-- Node2&#45;&gt;Node19 -->
<g id="edge24" class="edge">
<title>Node2&#45;&gt;Node19</title>
<path fill="none" stroke="midnightblue" d="M616.12,-230.38C689.06,-223.7 888.09,-205.36 1065.42,-188.1"/>
<polygon fill="midnightblue" stroke="midnightblue" points="1065.84,-191.58 1075.45,-187.12 1065.16,-184.61 1065.84,-191.58"/>
</g>
<!-- Node6&#45;&gt;Node3 -->
<g id="edge6" class="edge">
<title>Node6&#45;&gt;Node3</title>
<path fill="none" stroke="midnightblue" d="M169.64,-56.44C197.52,-47.32 241.85,-32.81 272.9,-22.65"/>
<polygon fill="midnightblue" stroke="midnightblue" points="274.06,-25.95 282.48,-19.52 271.88,-19.3 274.06,-25.95"/>
</g>
<!-- Node7 -->
<g id="node7" class="node">
<title>Node7</title>
<g id="a_node7"><a xlink:title=" ">
<polygon fill="white" stroke="#bfbfbf" points="0,-0.5 0,-19.5 63,-19.5 63,-0.5 0,-0.5"/>
<text text-anchor="middle" x="31.5" y="-7.5" font-family="Helvetica,sans-Serif" font-size="10.00">armadillo</text>
</a>
</g>
</g>
<!-- Node6&#45;&gt;Node7 -->
<g id="edge7" class="edge">
<title>Node6&#45;&gt;Node7</title>
<path fill="none" stroke="midnightblue" d="M125.51,-56.32C107.46,-47.62 79.45,-34.12 58.7,-24.11"/>
<polygon fill="midnightblue" stroke="midnightblue" points="59.98,-20.84 49.45,-19.65 56.94,-27.15 59.98,-20.84"/>
</g>
<!-- Node8 -->
<g id="node8" class="node">
<title>Node8</title>
<g id="a_node8"><a xlink:title=" ">
<polygon fill="white" stroke="#bfbfbf" points="81,-0.5 81,-19.5 164,-19.5 164,-0.5 81,-0.5"/>
<text text-anchor="middle" x="122.5" y="-7.5" font-family="Helvetica,sans-Serif" font-size="10.00">glm/vec3.hpp</text>
</a>
</g>
</g>
<!-- Node6&#45;&gt;Node8 -->
<g id="edge8" class="edge">
<title>Node6&#45;&gt;Node8</title>
<path fill="none" stroke="midnightblue" d="M140.03,-56.08C137.19,-48.77 133.07,-38.18 129.54,-29.1"/>
<polygon fill="midnightblue" stroke="midnightblue" points="132.79,-27.8 125.9,-19.75 126.27,-30.34 132.79,-27.8"/>
</g>
<!-- Node9 -->
<g id="node9" class="node">
<title>Node9</title>
<g id="a_node9"><a xlink:title=" ">
<polygon fill="white" stroke="#bfbfbf" points="182.5,-0.5 182.5,-19.5 260.5,-19.5 260.5,-0.5 182.5,-0.5"/>
<text text-anchor="middle" x="221.5" y="-7.5" font-family="Helvetica,sans-Serif" font-size="10.00">glm/glm.hpp</text>
</a>
</g>
</g>
<!-- Node6&#45;&gt;Node9 -->
<g id="edge9" class="edge">
<title>Node6&#45;&gt;Node9</title>
<path fill="none" stroke="midnightblue" d="M156.03,-56.32C168.09,-47.98 186.53,-35.21 200.77,-25.35"/>
<polygon fill="midnightblue" stroke="midnightblue" points="202.77,-28.22 209,-19.65 198.78,-22.47 202.77,-28.22"/>
</g>
<!-- Node10&#45;&gt;Node6 -->
<g id="edge11" class="edge">
<title>Node10&#45;&gt;Node6</title>
<path fill="none" stroke="midnightblue" d="M164.37,-112.08C160.99,-104.77 156.08,-94.18 151.88,-85.1"/>
<polygon fill="midnightblue" stroke="midnightblue" points="154.93,-83.36 147.55,-75.75 148.58,-86.3 154.93,-83.36"/>
</g>
<!-- Node11&#45;&gt;Node3 -->
<g id="edge14" class="edge">
<title>Node11&#45;&gt;Node3</title>
<path fill="none" stroke="midnightblue" d="M290.64,-168.25C286.94,-159.33 281.61,-145.01 279.5,-132 273.47,-94.85 289.08,-52.23 299.67,-28.78"/>
<polygon fill="midnightblue" stroke="midnightblue" points="302.84,-30.25 303.95,-19.71 296.51,-27.26 302.84,-30.25"/>
</g>
<!-- Node11&#45;&gt;Node5 -->
<g id="edge15" class="edge">
<title>Node11&#45;&gt;Node5</title>
<path fill="none" stroke="midnightblue" d="M313.2,-168.44C332.44,-159.64 362.65,-145.81 384.7,-135.72"/>
<polygon fill="midnightblue" stroke="midnightblue" points="386.25,-138.86 393.89,-131.52 383.34,-132.5 386.25,-138.86"/>
</g>
<!-- Node11&#45;&gt;Node9 -->
<g id="edge17" class="edge">
<title>Node11&#45;&gt;Node9</title>
<path fill="none" stroke="midnightblue" d="M290.4,-168.41C286.1,-159.38 279.21,-144.75 273.5,-132 257.2,-95.63 238.99,-52.69 229.03,-28.99"/>
<polygon fill="midnightblue" stroke="midnightblue" points="232.16,-27.42 225.07,-19.55 225.71,-30.12 232.16,-27.42"/>
</g>
<!-- Node11&#45;&gt;Node10 -->
<g id="edge13" class="edge">
<title>Node11&#45;&gt;Node10</title>
<path fill="none" stroke="midnightblue" d="M274.53,-168.44C253.89,-159.6 221.44,-145.69 197.87,-135.59"/>
<polygon fill="midnightblue" stroke="midnightblue" points="198.94,-132.24 188.37,-131.52 196.18,-138.67 198.94,-132.24"/>
</g>
<!-- Node12 -->
<g id="node12" class="node">
<title>Node12</title>
<g id="a_node12"><a xlink:title=" ">
<polygon fill="white" stroke="#bfbfbf" points="288,-112.5 288,-131.5 371,-131.5 371,-112.5 288,-112.5"/>
<text text-anchor="middle" x="329.5" y="-119.5" font-family="Helvetica,sans-Serif" font-size="10.00">glm/vec4.hpp</text>
</a>
</g>
</g>
<!-- Node11&#45;&gt;Node12 -->
<g id="edge16" class="edge">
<title>Node11&#45;&gt;Node12</title>
<path fill="none" stroke="midnightblue" d="M300.28,-168.08C305.17,-160.53 312.33,-149.49 318.33,-140.23"/>
<polygon fill="midnightblue" stroke="midnightblue" points="321.33,-142.05 323.83,-131.75 315.45,-138.24 321.33,-142.05"/>
</g>
</g>
</svg>
