<?xml version="1.0" encoding="UTF-8" standalone="no"?>
<!DOCTYPE svg PUBLIC "-//W3C//DTD SVG 1.1//EN"
 "http://www.w3.org/Graphics/SVG/1.1/DTD/svg11.dtd">
<!-- Generated by graphviz version 2.43.0 (0)
 -->
<!-- Title: include/Object.h Pages: 1 -->
<svg width="642pt" height="364pt"
 viewBox="0.00 0.00 641.50 364.00" xmlns="http://www.w3.org/2000/svg" xmlns:xlink="http://www.w3.org/1999/xlink">
<g id="graph0" class="graph" transform="scale(1 1) rotate(0) translate(4 360)">
<title>include/Object.h</title>
<polygon fill="white" stroke="transparent" points="-4,4 -4,-360 637.5,-360 637.5,4 -4,4"/>
<!-- Node1 -->
<g id="node1" class="node">
<title>Node1</title>
<g id="a_node1"><a xlink:title=" ">
<polygon fill="#bfbfbf" stroke="black" points="297,-336.5 297,-355.5 392,-355.5 392,-336.5 297,-336.5"/>
<text text-anchor="middle" x="344.5" y="-343.5" font-family="Helvetica,sans-Serif" font-size="10.00">include/Object.h</text>
</a>
</g>
</g>
<!-- Node2 -->
<g id="node2" class="node">
<title>Node2</title>
<g id="a_node2"><a xlink:href="Obj_8h.html" target="_top" xlink:title=" ">
<polygon fill="white" stroke="black" points="182.5,-280.5 182.5,-299.5 262.5,-299.5 262.5,-280.5 182.5,-280.5"/>
<text text-anchor="middle" x="222.5" y="-287.5" font-family="Helvetica,sans-Serif" font-size="10.00">include/Obj.h</text>
</a>
</g>
</g>
<!-- Node1&#45;&gt;Node2 -->
<g id="edge1" class="edge">
<title>Node1&#45;&gt;Node2</title>
<path fill="none" stroke="midnightblue" d="M315.96,-332.37C293.11,-322.26 261.69,-308.35 241.74,-299.52"/>
<polygon fill="midnightblue" stroke="midnightblue" points="314.61,-335.6 325.17,-336.44 317.44,-329.2 314.61,-335.6"/>
</g>
<!-- Node18 -->
<g id="node18" class="node">
<title>Node18</title>
<g id="a_node18"><a xlink:href="Ply_8h.html" target="_top" xlink:title=" ">
<polygon fill="white" stroke="black" points="306,-280.5 306,-299.5 383,-299.5 383,-280.5 306,-280.5"/>
<text text-anchor="middle" x="344.5" y="-287.5" font-family="Helvetica,sans-Serif" font-size="10.00">include/Ply.h</text>
</a>
</g>
</g>
<!-- Node1&#45;&gt;Node18 -->
<g id="edge23" class="edge">
<title>Node1&#45;&gt;Node18</title>
<path fill="none" stroke="midnightblue" d="M344.5,-325.8C344.5,-316.91 344.5,-306.78 344.5,-299.75"/>
<polygon fill="midnightblue" stroke="midnightblue" points="341,-326.08 344.5,-336.08 348,-326.08 341,-326.08"/>
</g>
<!-- Node20 -->
<g id="node20" class="node">
<title>Node20</title>
<g id="a_node20"><a xlink:href="Object_8cpp.html" target="_top" xlink:title=" ">
<polygon fill="white" stroke="black" points="401.5,-280.5 401.5,-299.5 487.5,-299.5 487.5,-280.5 401.5,-280.5"/>
<text text-anchor="middle" x="444.5" y="-287.5" font-family="Helvetica,sans-Serif" font-size="10.00">src/Object.cpp</text>
</a>
</g>
</g>
<!-- Node1&#45;&gt;Node20 -->
<g id="edge27" class="edge">
<title>Node1&#45;&gt;Node20</title>
<path fill="none" stroke="midnightblue" d="M369.59,-331.45C388.05,-321.48 412.6,-308.23 428.47,-299.65"/>
<polygon fill="midnightblue" stroke="midnightblue" points="367.7,-328.49 360.57,-336.32 371.03,-334.65 367.7,-328.49"/>
</g>
<!-- Node3 -->
<g id="node3" class="node">
<title>Node3</title>
<g id="a_node3"><a xlink:href="Model_8h.html" target="_top" xlink:title=" ">
<polygon fill="white" stroke="black" points="236.5,-224.5 236.5,-243.5 330.5,-243.5 330.5,-224.5 236.5,-224.5"/>
<text text-anchor="middle" x="283.5" y="-231.5" font-family="Helvetica,sans-Serif" font-size="10.00">include/Model.h</text>
</a>
</g>
</g>
<!-- Node2&#45;&gt;Node3 -->
<g id="edge2" class="edge">
<title>Node2&#45;&gt;Node3</title>
<path fill="none" stroke="midnightblue" d="M239.97,-273.54C250.84,-263.91 264.44,-251.87 273.52,-243.83"/>
<polygon fill="midnightblue" stroke="midnightblue" points="237.47,-271.07 232.3,-280.32 242.11,-276.32 237.47,-271.07"/>
</g>
<!-- Node5 -->
<g id="node5" class="node">
<title>Node5</title>
<g id="a_node5"><a xlink:href="Simulation_8h.html" target="_top" xlink:title=" ">
<polygon fill="white" stroke="black" points="223.5,-112.5 223.5,-131.5 339.5,-131.5 339.5,-112.5 223.5,-112.5"/>
<text text-anchor="middle" x="281.5" y="-119.5" font-family="Helvetica,sans-Serif" font-size="10.00">include/Simulation.h</text>
</a>
</g>
</g>
<!-- Node2&#45;&gt;Node5 -->
<g id="edge21" class="edge">
<title>Node2&#45;&gt;Node5</title>
<path fill="none" stroke="midnightblue" d="M202.89,-273.9C174.77,-250.4 129.04,-204.03 154.5,-168 164.96,-153.19 209.31,-139.82 242.68,-131.57"/>
<polygon fill="midnightblue" stroke="midnightblue" points="200.97,-276.86 210.95,-280.43 205.38,-271.42 200.97,-276.86"/>
</g>
<!-- Node17 -->
<g id="node17" class="node">
<title>Node17</title>
<g id="a_node17"><a xlink:href="Obj_8cpp.html" target="_top" xlink:title=" ">
<polygon fill="white" stroke="black" points="36,-224.5 36,-243.5 107,-243.5 107,-224.5 36,-224.5"/>
<text text-anchor="middle" x="71.5" y="-231.5" font-family="Helvetica,sans-Serif" font-size="10.00">src/Obj.cpp</text>
</a>
</g>
</g>
<!-- Node2&#45;&gt;Node17 -->
<g id="edge22" class="edge">
<title>Node2&#45;&gt;Node17</title>
<path fill="none" stroke="midnightblue" d="M189.05,-277.04C160.64,-266.88 120.56,-252.55 95.31,-243.52"/>
<polygon fill="midnightblue" stroke="midnightblue" points="187.98,-280.37 198.57,-280.44 190.34,-273.78 187.98,-280.37"/>
</g>
<!-- Node4 -->
<g id="node4" class="node">
<title>Node4</title>
<g id="a_node4"><a xlink:href="Ball_8h.html" target="_top" xlink:title=" ">
<polygon fill="white" stroke="black" points="312,-168.5 312,-187.5 395,-187.5 395,-168.5 312,-168.5"/>
<text text-anchor="middle" x="353.5" y="-175.5" font-family="Helvetica,sans-Serif" font-size="10.00">include/Ball.h</text>
</a>
</g>
</g>
<!-- Node3&#45;&gt;Node4 -->
<g id="edge3" class="edge">
<title>Node3&#45;&gt;Node4</title>
<path fill="none" stroke="midnightblue" d="M302.81,-218.1C315.41,-208.38 331.43,-196.03 342.05,-187.83"/>
<polygon fill="midnightblue" stroke="midnightblue" points="300.53,-215.44 294.75,-224.32 304.8,-220.99 300.53,-215.44"/>
</g>
<!-- Node3&#45;&gt;Node5 -->
<g id="edge20" class="edge">
<title>Node3&#45;&gt;Node5</title>
<path fill="none" stroke="midnightblue" d="M283.16,-214.35C282.72,-190.25 281.98,-149.31 281.66,-131.59"/>
<polygon fill="midnightblue" stroke="midnightblue" points="279.66,-214.43 283.34,-224.37 286.66,-214.31 279.66,-214.43"/>
</g>
<!-- Node11 -->
<g id="node11" class="node">
<title>Node11</title>
<g id="a_node11"><a xlink:href="Enemy_8h.html" target="_top" xlink:title=" ">
<polygon fill="white" stroke="black" points="413.5,-168.5 413.5,-187.5 509.5,-187.5 509.5,-168.5 413.5,-168.5"/>
<text text-anchor="middle" x="461.5" y="-175.5" font-family="Helvetica,sans-Serif" font-size="10.00">include/Enemy.h</text>
</a>
</g>
</g>
<!-- Node3&#45;&gt;Node11 -->
<g id="edge11" class="edge">
<title>Node3&#45;&gt;Node11</title>
<path fill="none" stroke="midnightblue" d="M321.62,-221.44C355.18,-211.26 403.27,-196.66 433.43,-187.52"/>
<polygon fill="midnightblue" stroke="midnightblue" points="320.26,-218.19 311.7,-224.44 322.29,-224.89 320.26,-218.19"/>
</g>
<!-- Node13 -->
<g id="node13" class="node">
<title>Node13</title>
<g id="a_node13"><a xlink:href="Message_8h.html" target="_top" xlink:title=" ">
<polygon fill="white" stroke="black" points="0,-168.5 0,-187.5 107,-187.5 107,-168.5 0,-168.5"/>
<text text-anchor="middle" x="53.5" y="-175.5" font-family="Helvetica,sans-Serif" font-size="10.00">include/Message.h</text>
</a>
</g>
</g>
<!-- Node3&#45;&gt;Node13 -->
<g id="edge14" class="edge">
<title>Node3&#45;&gt;Node13</title>
<path fill="none" stroke="midnightblue" d="M237.3,-222.15C193.84,-211.95 129.66,-196.88 89.77,-187.52"/>
<polygon fill="midnightblue" stroke="midnightblue" points="236.52,-225.57 247.06,-224.44 238.12,-218.75 236.52,-225.57"/>
</g>
<!-- Node15 -->
<g id="node15" class="node">
<title>Node15</title>
<g id="a_node15"><a xlink:href="Robot_8h.html" target="_top" xlink:title=" ">
<polygon fill="white" stroke="black" points="163.5,-168.5 163.5,-187.5 255.5,-187.5 255.5,-168.5 163.5,-168.5"/>
<text text-anchor="middle" x="209.5" y="-175.5" font-family="Helvetica,sans-Serif" font-size="10.00">include/Robot.h</text>
</a>
</g>
</g>
<!-- Node3&#45;&gt;Node15 -->
<g id="edge17" class="edge">
<title>Node3&#45;&gt;Node15</title>
<path fill="none" stroke="midnightblue" d="M263.47,-218.38C250.09,-208.62 232.94,-196.11 221.61,-187.83"/>
<polygon fill="midnightblue" stroke="midnightblue" points="261.47,-221.26 271.61,-224.32 265.6,-215.6 261.47,-221.26"/>
</g>
<!-- Node4&#45;&gt;Node5 -->
<g id="edge4" class="edge">
<title>Node4&#45;&gt;Node5</title>
<path fill="none" stroke="midnightblue" d="M333.63,-162.1C320.68,-152.38 304.2,-140.03 293.28,-131.83"/>
<polygon fill="midnightblue" stroke="midnightblue" points="331.83,-165.12 341.93,-168.32 336.03,-159.52 331.83,-165.12"/>
</g>
<!-- Node10 -->
<g id="node10" class="node">
<title>Node10</title>
<g id="a_node10"><a xlink:href="Ball_8cpp.html" target="_top" xlink:title=" ">
<polygon fill="white" stroke="black" points="358,-112.5 358,-131.5 431,-131.5 431,-112.5 358,-112.5"/>
<text text-anchor="middle" x="394.5" y="-119.5" font-family="Helvetica,sans-Serif" font-size="10.00">src/Ball.cpp</text>
</a>
</g>
</g>
<!-- Node4&#45;&gt;Node10 -->
<g id="edge10" class="edge">
<title>Node4&#45;&gt;Node10</title>
<path fill="none" stroke="midnightblue" d="M366.52,-159.86C373.62,-150.5 382.1,-139.33 387.86,-131.75"/>
<polygon fill="midnightblue" stroke="midnightblue" points="363.53,-158 360.27,-168.08 369.11,-162.24 363.53,-158"/>
</g>
<!-- Node6 -->
<g id="node6" class="node">
<title>Node6</title>
<g id="a_node6"><a xlink:href="Scene_8h.html" target="_top" xlink:title=" ">
<polygon fill="white" stroke="black" points="235,-56.5 235,-75.5 328,-75.5 328,-56.5 235,-56.5"/>
<text text-anchor="middle" x="281.5" y="-63.5" font-family="Helvetica,sans-Serif" font-size="10.00">include/Scene.h</text>
</a>
</g>
</g>
<!-- Node5&#45;&gt;Node6 -->
<g id="edge5" class="edge">
<title>Node5&#45;&gt;Node6</title>
<path fill="none" stroke="midnightblue" d="M275.03,-102.1C274.4,-93.14 274.84,-82.86 276.37,-75.75"/>
<polygon fill="midnightblue" stroke="midnightblue" points="271.57,-102.62 276.33,-112.08 278.51,-101.71 271.57,-102.62"/>
</g>
<!-- Node9 -->
<g id="node9" class="node">
<title>Node9</title>
<g id="a_node9"><a xlink:href="Simulation_8cpp.html" target="_top" xlink:title=" ">
<polygon fill="white" stroke="black" points="346,-56.5 346,-75.5 453,-75.5 453,-56.5 346,-56.5"/>
<text text-anchor="middle" x="399.5" y="-63.5" font-family="Helvetica,sans-Serif" font-size="10.00">src/Simulation.cpp</text>
</a>
</g>
</g>
<!-- Node5&#45;&gt;Node9 -->
<g id="edge9" class="edge">
<title>Node5&#45;&gt;Node9</title>
<path fill="none" stroke="midnightblue" d="M309.4,-108.23C331.47,-98.13 361.68,-84.31 380.89,-75.52"/>
<polygon fill="midnightblue" stroke="midnightblue" points="307.83,-105.1 300.2,-112.44 310.75,-111.46 307.83,-105.1"/>
</g>
<!-- Node6&#45;&gt;Node5 -->
<g id="edge6" class="edge">
<title>Node6&#45;&gt;Node5</title>
<path fill="none" stroke="midnightblue" d="M287.96,-85.69C288.61,-94.64 288.18,-104.93 286.67,-112.08"/>
<polygon fill="midnightblue" stroke="midnightblue" points="291.42,-85.2 286.63,-75.75 284.48,-86.13 291.42,-85.2"/>
</g>
<!-- Node7 -->
<g id="node7" class="node">
<title>Node7</title>
<g id="a_node7"><a xlink:href="main_8cpp.html" target="_top" xlink:title=" ">
<polygon fill="white" stroke="black" points="205.5,-0.5 205.5,-19.5 267.5,-19.5 267.5,-0.5 205.5,-0.5"/>
<text text-anchor="middle" x="236.5" y="-7.5" font-family="Helvetica,sans-Serif" font-size="10.00">main.cpp</text>
</a>
</g>
</g>
<!-- Node6&#45;&gt;Node7 -->
<g id="edge7" class="edge">
<title>Node6&#45;&gt;Node7</title>
<path fill="none" stroke="midnightblue" d="M267.45,-48.14C259.61,-38.74 250.17,-27.4 243.79,-19.75"/>
<polygon fill="midnightblue" stroke="midnightblue" points="264.98,-50.64 274.07,-56.08 270.36,-46.16 264.98,-50.64"/>
</g>
<!-- Node8 -->
<g id="node8" class="node">
<title>Node8</title>
<g id="a_node8"><a xlink:href="Scene_8cpp.html" target="_top" xlink:title=" ">
<polygon fill="white" stroke="black" points="286,-0.5 286,-19.5 369,-19.5 369,-0.5 286,-0.5"/>
<text text-anchor="middle" x="327.5" y="-7.5" font-family="Helvetica,sans-Serif" font-size="10.00">src/Scene.cpp</text>
</a>
</g>
</g>
<!-- Node6&#45;&gt;Node8 -->
<g id="edge8" class="edge">
<title>Node6&#45;&gt;Node8</title>
<path fill="none" stroke="midnightblue" d="M295.61,-48.43C303.68,-38.97 313.46,-27.48 320.05,-19.75"/>
<polygon fill="midnightblue" stroke="midnightblue" points="292.92,-46.2 289.1,-56.08 298.25,-50.74 292.92,-46.2"/>
</g>
<!-- Node11&#45;&gt;Node5 -->
<g id="edge12" class="edge">
<title>Node11&#45;&gt;Node5</title>
<path fill="none" stroke="midnightblue" d="M423.39,-165.57C389.44,-155.38 340.51,-140.7 309.89,-131.52"/>
<polygon fill="midnightblue" stroke="midnightblue" points="422.39,-168.92 432.98,-168.44 424.41,-162.22 422.39,-168.92"/>
</g>
<!-- Node12 -->
<g id="node12" class="node">
<title>Node12</title>
<g id="a_node12"><a xlink:href="Enemy_8cpp.html" target="_top" xlink:title=" ">
<polygon fill="white" stroke="black" points="449.5,-112.5 449.5,-131.5 535.5,-131.5 535.5,-112.5 449.5,-112.5"/>
<text text-anchor="middle" x="492.5" y="-119.5" font-family="Helvetica,sans-Serif" font-size="10.00">src/Enemy.cpp</text>
</a>
</g>
</g>
<!-- Node11&#45;&gt;Node12 -->
<g id="edge13" class="edge">
<title>Node11&#45;&gt;Node12</title>
<path fill="none" stroke="midnightblue" d="M471.68,-159.27C476.97,-150.05 483.22,-139.17 487.48,-131.75"/>
<polygon fill="midnightblue" stroke="midnightblue" points="468.56,-157.67 466.62,-168.08 474.63,-161.15 468.56,-157.67"/>
</g>
<!-- Node13&#45;&gt;Node5 -->
<g id="edge15" class="edge">
<title>Node13&#45;&gt;Node5</title>
<path fill="none" stroke="midnightblue" d="M99.57,-166.09C142.65,-155.89 206.09,-140.86 245.54,-131.52"/>
<polygon fill="midnightblue" stroke="midnightblue" points="98.55,-162.73 89.63,-168.44 100.16,-169.54 98.55,-162.73"/>
</g>
<!-- Node14 -->
<g id="node14" class="node">
<title>Node14</title>
<g id="a_node14"><a xlink:href="Message_8cpp.html" target="_top" xlink:title=" ">
<polygon fill="white" stroke="black" points="4.5,-112.5 4.5,-131.5 102.5,-131.5 102.5,-112.5 4.5,-112.5"/>
<text text-anchor="middle" x="53.5" y="-119.5" font-family="Helvetica,sans-Serif" font-size="10.00">src/Message.cpp</text>
</a>
</g>
</g>
<!-- Node13&#45;&gt;Node14 -->
<g id="edge16" class="edge">
<title>Node13&#45;&gt;Node14</title>
<path fill="none" stroke="midnightblue" d="M53.5,-157.8C53.5,-148.91 53.5,-138.78 53.5,-131.75"/>
<polygon fill="midnightblue" stroke="midnightblue" points="50,-158.08 53.5,-168.08 57,-158.08 50,-158.08"/>
</g>
<!-- Node15&#45;&gt;Node5 -->
<g id="edge18" class="edge">
<title>Node15&#45;&gt;Node5</title>
<path fill="none" stroke="midnightblue" d="M229.37,-162.1C242.32,-152.38 258.8,-140.03 269.72,-131.83"/>
<polygon fill="midnightblue" stroke="midnightblue" points="226.97,-159.52 221.07,-168.32 231.17,-165.12 226.97,-159.52"/>
</g>
<!-- Node16 -->
<g id="node16" class="node">
<title>Node16</title>
<g id="a_node16"><a xlink:href="Robot_8cpp.html" target="_top" xlink:title=" ">
<polygon fill="white" stroke="black" points="122,-112.5 122,-131.5 205,-131.5 205,-112.5 122,-112.5"/>
<text text-anchor="middle" x="163.5" y="-119.5" font-family="Helvetica,sans-Serif" font-size="10.00">src/Robot.cpp</text>
</a>
</g>
</g>
<!-- Node15&#45;&gt;Node16 -->
<g id="edge19" class="edge">
<title>Node15&#45;&gt;Node16</title>
<path fill="none" stroke="midnightblue" d="M195.39,-160.43C187.32,-150.97 177.54,-139.48 170.95,-131.75"/>
<polygon fill="midnightblue" stroke="midnightblue" points="192.75,-162.74 201.9,-168.08 198.08,-158.2 192.75,-162.74"/>
</g>
<!-- Node18&#45;&gt;Node3 -->
<g id="edge24" class="edge">
<title>Node18&#45;&gt;Node3</title>
<path fill="none" stroke="midnightblue" d="M327.03,-273.54C316.16,-263.91 302.56,-251.87 293.48,-243.83"/>
<polygon fill="midnightblue" stroke="midnightblue" points="324.89,-276.32 334.7,-280.32 329.53,-271.07 324.89,-276.32"/>
</g>
<!-- Node18&#45;&gt;Node5 -->
<g id="edge25" class="edge">
<title>Node18&#45;&gt;Node5</title>
<path fill="none" stroke="midnightblue" d="M389.64,-277.66C454.4,-259.29 561.38,-219.79 518.5,-168 512.66,-160.94 404.05,-142.51 335.91,-131.55"/>
<polygon fill="midnightblue" stroke="midnightblue" points="388.35,-274.39 379.64,-280.43 390.22,-281.14 388.35,-274.39"/>
</g>
<!-- Node19 -->
<g id="node19" class="node">
<title>Node19</title>
<g id="a_node19"><a xlink:href="Ply_8cpp.html" target="_top" xlink:title=" ">
<polygon fill="white" stroke="black" points="565.5,-224.5 565.5,-243.5 633.5,-243.5 633.5,-224.5 565.5,-224.5"/>
<text text-anchor="middle" x="599.5" y="-231.5" font-family="Helvetica,sans-Serif" font-size="10.00">src/Ply.cpp</text>
</a>
</g>
</g>
<!-- Node18&#45;&gt;Node19 -->
<g id="edge26" class="edge">
<title>Node18&#45;&gt;Node19</title>
<path fill="none" stroke="midnightblue" d="M393.24,-278.68C443.65,-268 521.06,-251.61 565.32,-242.24"/>
<polygon fill="midnightblue" stroke="midnightblue" points="392.29,-275.3 383.23,-280.8 393.74,-282.15 392.29,-275.3"/>
</g>
</g>
</svg>
