<?xml version="1.0" encoding="UTF-8" standalone="no"?>
<!DOCTYPE svg PUBLIC "-//W3C//DTD SVG 1.1//EN"
 "http://www.w3.org/Graphics/SVG/1.1/DTD/svg11.dtd">
<!-- Generated by graphviz version 2.43.0 (0)
 -->
<!-- Title: include/OpenGL.h Pages: 1 -->
<svg width="466pt" height="196pt"
 viewBox="0.00 0.00 465.50 196.00" xmlns="http://www.w3.org/2000/svg" xmlns:xlink="http://www.w3.org/1999/xlink">
<g id="graph0" class="graph" transform="scale(1 1) rotate(0) translate(4 192)">
<title>include/OpenGL.h</title>
<polygon fill="white" stroke="transparent" points="-4,4 -4,-192 461.5,-192 461.5,4 -4,4"/>
<!-- Node1 -->
<g id="node1" class="node">
<title>Node1</title>
<g id="a_node1"><a xlink:title=" ">
<polygon fill="#bfbfbf" stroke="black" points="212.5,-168.5 212.5,-187.5 314.5,-187.5 314.5,-168.5 212.5,-168.5"/>
<text text-anchor="middle" x="263.5" y="-175.5" font-family="Helvetica,sans-Serif" font-size="10.00">include/OpenGL.h</text>
</a>
</g>
</g>
<!-- Node2 -->
<g id="node2" class="node">
<title>Node2</title>
<g id="a_node2"><a xlink:href="Ball_8h.html" target="_top" xlink:title=" ">
<polygon fill="white" stroke="black" points="78,-112.5 78,-131.5 161,-131.5 161,-112.5 78,-112.5"/>
<text text-anchor="middle" x="119.5" y="-119.5" font-family="Helvetica,sans-Serif" font-size="10.00">include/Ball.h</text>
</a>
</g>
</g>
<!-- Node1&#45;&gt;Node2 -->
<g id="edge1" class="edge">
<title>Node1&#45;&gt;Node2</title>
<path fill="none" stroke="midnightblue" d="M231.25,-164.91C204.18,-154.75 166.18,-140.51 142.21,-131.52"/>
<polygon fill="midnightblue" stroke="midnightblue" points="230.09,-168.21 240.68,-168.44 232.55,-161.66 230.09,-168.21"/>
</g>
<!-- Node3 -->
<g id="node3" class="node">
<title>Node3</title>
<g id="a_node3"><a xlink:href="Simulation_8h.html" target="_top" xlink:title=" ">
<polygon fill="white" stroke="black" points="91.5,-56.5 91.5,-75.5 207.5,-75.5 207.5,-56.5 91.5,-56.5"/>
<text text-anchor="middle" x="149.5" y="-63.5" font-family="Helvetica,sans-Serif" font-size="10.00">include/Simulation.h</text>
</a>
</g>
</g>
<!-- Node1&#45;&gt;Node3 -->
<g id="edge9" class="edge">
<title>Node1&#45;&gt;Node3</title>
<path fill="none" stroke="midnightblue" d="M244.14,-162.31C233.32,-153.82 219.79,-142.73 208.5,-132 188.61,-113.11 167.52,-88.65 156.75,-75.79"/>
<polygon fill="midnightblue" stroke="midnightblue" points="242.09,-165.14 252.14,-168.5 246.37,-159.61 242.09,-165.14"/>
</g>
<!-- Node4 -->
<g id="node4" class="node">
<title>Node4</title>
<g id="a_node4"><a xlink:href="main_8cpp.html" target="_top" xlink:title=" ">
<polygon fill="white" stroke="black" points="263.5,-0.5 263.5,-19.5 325.5,-19.5 325.5,-0.5 263.5,-0.5"/>
<text text-anchor="middle" x="294.5" y="-7.5" font-family="Helvetica,sans-Serif" font-size="10.00">main.cpp</text>
</a>
</g>
</g>
<!-- Node1&#45;&gt;Node4 -->
<g id="edge10" class="edge">
<title>Node1&#45;&gt;Node4</title>
<path fill="none" stroke="midnightblue" d="M289.36,-162.95C300.51,-155.38 312.37,-144.93 318.5,-132 332.96,-101.48 326.69,-88.77 318.5,-56 315.11,-42.43 306.76,-28.47 300.87,-19.77"/>
<polygon fill="midnightblue" stroke="midnightblue" points="287.31,-160.1 280.7,-168.39 291.03,-166.03 287.31,-160.1"/>
</g>
<!-- Node7 -->
<g id="node7" class="node">
<title>Node7</title>
<g id="a_node7"><a xlink:href="Robot_8h.html" target="_top" xlink:title=" ">
<polygon fill="white" stroke="black" points="217.5,-112.5 217.5,-131.5 309.5,-131.5 309.5,-112.5 217.5,-112.5"/>
<text text-anchor="middle" x="263.5" y="-119.5" font-family="Helvetica,sans-Serif" font-size="10.00">include/Robot.h</text>
</a>
</g>
</g>
<!-- Node1&#45;&gt;Node7 -->
<g id="edge6" class="edge">
<title>Node1&#45;&gt;Node7</title>
<path fill="none" stroke="midnightblue" d="M263.5,-157.8C263.5,-148.91 263.5,-138.78 263.5,-131.75"/>
<polygon fill="midnightblue" stroke="midnightblue" points="260,-158.08 263.5,-168.08 267,-158.08 260,-158.08"/>
</g>
<!-- Node9 -->
<g id="node9" class="node">
<title>Node9</title>
<g id="a_node9"><a xlink:href="OpenGL_8cpp.html" target="_top" xlink:title=" ">
<polygon fill="white" stroke="black" points="365.5,-112.5 365.5,-131.5 457.5,-131.5 457.5,-112.5 365.5,-112.5"/>
<text text-anchor="middle" x="411.5" y="-119.5" font-family="Helvetica,sans-Serif" font-size="10.00">src/OpenGL.cpp</text>
</a>
</g>
</g>
<!-- Node1&#45;&gt;Node9 -->
<g id="edge11" class="edge">
<title>Node1&#45;&gt;Node9</title>
<path fill="none" stroke="midnightblue" d="M296.65,-164.91C324.47,-154.75 363.52,-140.51 388.16,-131.52"/>
<polygon fill="midnightblue" stroke="midnightblue" points="295.15,-161.73 286.95,-168.44 297.54,-168.3 295.15,-161.73"/>
</g>
<!-- Node2&#45;&gt;Node3 -->
<g id="edge2" class="edge">
<title>Node2&#45;&gt;Node3</title>
<path fill="none" stroke="midnightblue" d="M129.35,-103.27C134.47,-94.05 140.52,-83.17 144.64,-75.75"/>
<polygon fill="midnightblue" stroke="midnightblue" points="126.25,-101.64 124.45,-112.08 132.37,-105.04 126.25,-101.64"/>
</g>
<!-- Node6 -->
<g id="node6" class="node">
<title>Node6</title>
<g id="a_node6"><a xlink:href="Ball_8cpp.html" target="_top" xlink:title=" ">
<polygon fill="white" stroke="black" points="0,-56.5 0,-75.5 73,-75.5 73,-56.5 0,-56.5"/>
<text text-anchor="middle" x="36.5" y="-63.5" font-family="Helvetica,sans-Serif" font-size="10.00">src/Ball.cpp</text>
</a>
</g>
</g>
<!-- Node2&#45;&gt;Node6 -->
<g id="edge5" class="edge">
<title>Node2&#45;&gt;Node6</title>
<path fill="none" stroke="midnightblue" d="M97.4,-106.62C82.24,-96.76 62.62,-83.99 49.8,-75.65"/>
<polygon fill="midnightblue" stroke="midnightblue" points="95.87,-109.8 106.16,-112.32 99.69,-103.94 95.87,-109.8"/>
</g>
<!-- Node3&#45;&gt;Node4 -->
<g id="edge3" class="edge">
<title>Node3&#45;&gt;Node4</title>
<path fill="none" stroke="midnightblue" d="M181.98,-52.91C209.24,-42.75 247.49,-28.51 271.63,-19.52"/>
<polygon fill="midnightblue" stroke="midnightblue" points="180.63,-49.67 172.48,-56.44 183.07,-56.23 180.63,-49.67"/>
</g>
<!-- Node5 -->
<g id="node5" class="node">
<title>Node5</title>
<g id="a_node5"><a xlink:href="Simulation_8cpp.html" target="_top" xlink:title=" ">
<polygon fill="white" stroke="black" points="96,-0.5 96,-19.5 203,-19.5 203,-0.5 96,-0.5"/>
<text text-anchor="middle" x="149.5" y="-7.5" font-family="Helvetica,sans-Serif" font-size="10.00">src/Simulation.cpp</text>
</a>
</g>
</g>
<!-- Node3&#45;&gt;Node5 -->
<g id="edge4" class="edge">
<title>Node3&#45;&gt;Node5</title>
<path fill="none" stroke="midnightblue" d="M149.5,-45.8C149.5,-36.91 149.5,-26.78 149.5,-19.75"/>
<polygon fill="midnightblue" stroke="midnightblue" points="146,-46.08 149.5,-56.08 153,-46.08 146,-46.08"/>
</g>
<!-- Node7&#45;&gt;Node3 -->
<g id="edge7" class="edge">
<title>Node7&#45;&gt;Node3</title>
<path fill="none" stroke="midnightblue" d="M236.26,-108.1C214.96,-98.01 185.96,-84.27 167.48,-75.52"/>
<polygon fill="midnightblue" stroke="midnightblue" points="234.9,-111.33 245.44,-112.44 237.9,-105 234.9,-111.33"/>
</g>
<!-- Node8 -->
<g id="node8" class="node">
<title>Node8</title>
<g id="a_node8"><a xlink:href="Robot_8cpp.html" target="_top" xlink:title=" ">
<polygon fill="white" stroke="black" points="226,-56.5 226,-75.5 309,-75.5 309,-56.5 226,-56.5"/>
<text text-anchor="middle" x="267.5" y="-63.5" font-family="Helvetica,sans-Serif" font-size="10.00">src/Robot.cpp</text>
</a>
</g>
</g>
<!-- Node7&#45;&gt;Node8 -->
<g id="edge8" class="edge">
<title>Node7&#45;&gt;Node8</title>
<path fill="none" stroke="midnightblue" d="M264.9,-102.1C265.56,-93.14 266.33,-82.86 266.85,-75.75"/>
<polygon fill="midnightblue" stroke="midnightblue" points="261.41,-101.85 264.16,-112.08 268.39,-102.37 261.41,-101.85"/>
</g>
</g>
</svg>
