<?xml version="1.0" encoding="UTF-8" standalone="no"?>
<!DOCTYPE svg PUBLIC "-//W3C//DTD SVG 1.1//EN"
 "http://www.w3.org/Graphics/SVG/1.1/DTD/svg11.dtd">
<!-- Generated by graphviz version 2.43.0 (0)
 -->
<!-- Title: include/OpenGL.h Pages: 1 -->
<svg width="510pt" height="196pt"
 viewBox="0.00 0.00 509.71 196.00" xmlns="http://www.w3.org/2000/svg" xmlns:xlink="http://www.w3.org/1999/xlink">
<g id="graph0" class="graph" transform="scale(1 1) rotate(0) translate(4 192)">
<title>include/OpenGL.h</title>
<polygon fill="white" stroke="transparent" points="-4,4 -4,-192 505.71,-192 505.71,4 -4,4"/>
<!-- Node1 -->
<g id="node1" class="node">
<title>Node1</title>
<g id="a_node1"><a xlink:title=" ">
<polygon fill="#bfbfbf" stroke="black" points="155.71,-168.5 155.71,-187.5 257.71,-187.5 257.71,-168.5 155.71,-168.5"/>
<text text-anchor="middle" x="206.71" y="-175.5" font-family="Helvetica,sans-Serif" font-size="10.00">include/OpenGL.h</text>
</a>
</g>
</g>
<!-- Node2 -->
<g id="node2" class="node">
<title>Node2</title>
<g id="a_node2"><a xlink:href="Ball_8h.html" target="_top" xlink:title=" ">
<polygon fill="white" stroke="black" points="308.21,-112.5 308.21,-131.5 391.21,-131.5 391.21,-112.5 308.21,-112.5"/>
<text text-anchor="middle" x="349.71" y="-119.5" font-family="Helvetica,sans-Serif" font-size="10.00">include/Ball.h</text>
</a>
</g>
</g>
<!-- Node1&#45;&gt;Node2 -->
<g id="edge1" class="edge">
<title>Node1&#45;&gt;Node2</title>
<path fill="none" stroke="midnightblue" d="M238.73,-164.91C265.62,-154.75 303.35,-140.51 327.15,-131.52"/>
<polygon fill="midnightblue" stroke="midnightblue" points="237.48,-161.64 229.37,-168.44 239.96,-168.19 237.48,-161.64"/>
</g>
<!-- Node3 -->
<g id="node3" class="node">
<title>Node3</title>
<g id="a_node3"><a xlink:href="Simulation_8h.html" target="_top" xlink:title=" ">
<polygon fill="white" stroke="black" points="130.71,-56.5 130.71,-75.5 246.71,-75.5 246.71,-56.5 130.71,-56.5"/>
<text text-anchor="middle" x="188.71" y="-63.5" font-family="Helvetica,sans-Serif" font-size="10.00">include/Simulation.h</text>
</a>
</g>
</g>
<!-- Node1&#45;&gt;Node3 -->
<g id="edge12" class="edge">
<title>Node1&#45;&gt;Node3</title>
<path fill="none" stroke="midnightblue" d="M197.77,-159.2C194.19,-151.11 190.5,-141.3 188.71,-132 184.87,-112.05 186.43,-88.02 187.69,-75.51"/>
<polygon fill="midnightblue" stroke="midnightblue" points="194.65,-160.79 202.09,-168.34 200.98,-157.8 194.65,-160.79"/>
</g>
<!-- Node4 -->
<g id="node4" class="node">
<title>Node4</title>
<g id="a_node4"><a xlink:href="main_8cpp.html" target="_top" xlink:title=" ">
<polygon fill="white" stroke="black" points="5.71,-0.5 5.71,-19.5 67.71,-19.5 67.71,-0.5 5.71,-0.5"/>
<text text-anchor="middle" x="36.71" y="-7.5" font-family="Helvetica,sans-Serif" font-size="10.00">main.cpp</text>
</a>
</g>
</g>
<!-- Node1&#45;&gt;Node4 -->
<g id="edge13" class="edge">
<title>Node1&#45;&gt;Node4</title>
<path fill="none" stroke="midnightblue" d="M145.2,-176.3C106.2,-172.68 57.16,-161.82 24.71,-132 -0.93,-108.44 -4.64,-89.25 5.71,-56 10.1,-41.87 20.65,-28.25 28.22,-19.77"/>
<polygon fill="midnightblue" stroke="midnightblue" points="145.15,-179.81 155.39,-177.1 145.7,-172.83 145.15,-179.81"/>
</g>
<!-- Node7 -->
<g id="node7" class="node">
<title>Node7</title>
<g id="a_node7"><a xlink:href="Message_8h.html" target="_top" xlink:title=" ">
<polygon fill="white" stroke="black" points="34.21,-112.5 34.21,-131.5 141.21,-131.5 141.21,-112.5 34.21,-112.5"/>
<text text-anchor="middle" x="87.71" y="-119.5" font-family="Helvetica,sans-Serif" font-size="10.00">include/Message.h</text>
</a>
</g>
</g>
<!-- Node1&#45;&gt;Node7 -->
<g id="edge6" class="edge">
<title>Node1&#45;&gt;Node7</title>
<path fill="none" stroke="midnightblue" d="M178.57,-164.23C156.31,-154.13 125.85,-140.31 106.47,-131.52"/>
<polygon fill="midnightblue" stroke="midnightblue" points="177.3,-167.5 187.85,-168.44 180.19,-161.12 177.3,-167.5"/>
</g>
<!-- Node9 -->
<g id="node9" class="node">
<title>Node9</title>
<g id="a_node9"><a xlink:href="Robot_8h.html" target="_top" xlink:title=" ">
<polygon fill="white" stroke="black" points="197.71,-112.5 197.71,-131.5 289.71,-131.5 289.71,-112.5 197.71,-112.5"/>
<text text-anchor="middle" x="243.71" y="-119.5" font-family="Helvetica,sans-Serif" font-size="10.00">include/Robot.h</text>
</a>
</g>
</g>
<!-- Node1&#45;&gt;Node9 -->
<g id="edge9" class="edge">
<title>Node1&#45;&gt;Node9</title>
<path fill="none" stroke="midnightblue" d="M218.65,-159.57C225.02,-150.27 232.57,-139.25 237.71,-131.75"/>
<polygon fill="midnightblue" stroke="midnightblue" points="215.58,-157.86 212.82,-168.08 221.36,-161.81 215.58,-157.86"/>
</g>
<!-- Node11 -->
<g id="node11" class="node">
<title>Node11</title>
<g id="a_node11"><a xlink:href="OpenGL_8cpp.html" target="_top" xlink:title=" ">
<polygon fill="white" stroke="black" points="409.71,-112.5 409.71,-131.5 501.71,-131.5 501.71,-112.5 409.71,-112.5"/>
<text text-anchor="middle" x="455.71" y="-119.5" font-family="Helvetica,sans-Serif" font-size="10.00">src/OpenGL.cpp</text>
</a>
</g>
</g>
<!-- Node1&#45;&gt;Node11 -->
<g id="edge14" class="edge">
<title>Node1&#45;&gt;Node11</title>
<path fill="none" stroke="midnightblue" d="M256.13,-166.28C303.19,-156.08 373.07,-140.92 416.44,-131.52"/>
<polygon fill="midnightblue" stroke="midnightblue" points="255.19,-162.9 246.16,-168.44 256.68,-169.74 255.19,-162.9"/>
</g>
<!-- Node2&#45;&gt;Node3 -->
<g id="edge2" class="edge">
<title>Node2&#45;&gt;Node3</title>
<path fill="none" stroke="midnightblue" d="M314.44,-109.17C284.13,-99 241.14,-84.59 214.1,-75.52"/>
<polygon fill="midnightblue" stroke="midnightblue" points="313.6,-112.58 324.2,-112.44 315.83,-105.95 313.6,-112.58"/>
</g>
<!-- Node6 -->
<g id="node6" class="node">
<title>Node6</title>
<g id="a_node6"><a xlink:href="Ball_8cpp.html" target="_top" xlink:title=" ">
<polygon fill="white" stroke="black" points="366.21,-56.5 366.21,-75.5 439.21,-75.5 439.21,-56.5 366.21,-56.5"/>
<text text-anchor="middle" x="402.71" y="-63.5" font-family="Helvetica,sans-Serif" font-size="10.00">src/Ball.cpp</text>
</a>
</g>
</g>
<!-- Node2&#45;&gt;Node6 -->
<g id="edge5" class="edge">
<title>Node2&#45;&gt;Node6</title>
<path fill="none" stroke="midnightblue" d="M365.69,-104.72C375.03,-95.2 386.45,-83.56 394.12,-75.75"/>
<polygon fill="midnightblue" stroke="midnightblue" points="362.97,-102.49 358.46,-112.08 367.96,-107.4 362.97,-102.49"/>
</g>
<!-- Node3&#45;&gt;Node4 -->
<g id="edge3" class="edge">
<title>Node3&#45;&gt;Node4</title>
<path fill="none" stroke="midnightblue" d="M155.04,-53.04C126.44,-42.88 86.09,-28.55 60.68,-19.52"/>
<polygon fill="midnightblue" stroke="midnightblue" points="154.03,-56.39 164.62,-56.44 156.37,-49.8 154.03,-56.39"/>
</g>
<!-- Node5 -->
<g id="node5" class="node">
<title>Node5</title>
<g id="a_node5"><a xlink:href="Simulation_8cpp.html" target="_top" xlink:title=" ">
<polygon fill="white" stroke="black" points="135.21,-0.5 135.21,-19.5 242.21,-19.5 242.21,-0.5 135.21,-0.5"/>
<text text-anchor="middle" x="188.71" y="-7.5" font-family="Helvetica,sans-Serif" font-size="10.00">src/Simulation.cpp</text>
</a>
</g>
</g>
<!-- Node3&#45;&gt;Node5 -->
<g id="edge4" class="edge">
<title>Node3&#45;&gt;Node5</title>
<path fill="none" stroke="midnightblue" d="M188.71,-45.8C188.71,-36.91 188.71,-26.78 188.71,-19.75"/>
<polygon fill="midnightblue" stroke="midnightblue" points="185.21,-46.08 188.71,-56.08 192.21,-46.08 185.21,-46.08"/>
</g>
<!-- Node7&#45;&gt;Node3 -->
<g id="edge7" class="edge">
<title>Node7&#45;&gt;Node3</title>
<path fill="none" stroke="midnightblue" d="M112.79,-107.59C131.46,-97.61 156.41,-84.27 172.52,-75.65"/>
<polygon fill="midnightblue" stroke="midnightblue" points="111.1,-104.52 103.93,-112.32 114.4,-110.7 111.1,-104.52"/>
</g>
<!-- Node8 -->
<g id="node8" class="node">
<title>Node8</title>
<g id="a_node8"><a xlink:href="Message_8cpp.html" target="_top" xlink:title=" ">
<polygon fill="white" stroke="black" points="14.71,-56.5 14.71,-75.5 112.71,-75.5 112.71,-56.5 14.71,-56.5"/>
<text text-anchor="middle" x="63.71" y="-63.5" font-family="Helvetica,sans-Serif" font-size="10.00">src/Message.cpp</text>
</a>
</g>
</g>
<!-- Node7&#45;&gt;Node8 -->
<g id="edge8" class="edge">
<title>Node7&#45;&gt;Node8</title>
<path fill="none" stroke="midnightblue" d="M79.57,-102.69C75.52,-93.59 70.82,-83.01 67.6,-75.75"/>
<polygon fill="midnightblue" stroke="midnightblue" points="76.48,-104.37 83.74,-112.08 82.88,-101.52 76.48,-104.37"/>
</g>
<!-- Node9&#45;&gt;Node3 -->
<g id="edge10" class="edge">
<title>Node9&#45;&gt;Node3</title>
<path fill="none" stroke="midnightblue" d="M227.41,-105C217.67,-95.43 205.65,-83.64 197.62,-75.75"/>
<polygon fill="midnightblue" stroke="midnightblue" points="225.04,-107.57 234.62,-112.08 229.94,-102.58 225.04,-107.57"/>
</g>
<!-- Node10 -->
<g id="node10" class="node">
<title>Node10</title>
<g id="a_node10"><a xlink:href="Robot_8cpp.html" target="_top" xlink:title=" ">
<polygon fill="white" stroke="black" points="265.21,-56.5 265.21,-75.5 348.21,-75.5 348.21,-56.5 265.21,-56.5"/>
<text text-anchor="middle" x="306.71" y="-63.5" font-family="Helvetica,sans-Serif" font-size="10.00">src/Robot.cpp</text>
</a>
</g>
</g>
<!-- Node9&#45;&gt;Node10 -->
<g id="edge11" class="edge">
<title>Node9&#45;&gt;Node10</title>
<path fill="none" stroke="midnightblue" d="M261.75,-105.54C272.98,-95.91 287.03,-83.87 296.4,-75.83"/>
<polygon fill="midnightblue" stroke="midnightblue" points="259.14,-103.16 253.83,-112.32 263.7,-108.47 259.14,-103.16"/>
</g>
</g>
</svg>
