<?xml version="1.0" encoding="UTF-8" standalone="no"?>
<!DOCTYPE svg PUBLIC "-//W3C//DTD SVG 1.1//EN"
 "http://www.w3.org/Graphics/SVG/1.1/DTD/svg11.dtd">
<!-- Generated by graphviz version 2.43.0 (0)
 -->
<!-- Title: include/OpenGL.h Pages: 1 -->
<svg width="306pt" height="196pt"
 viewBox="0.00 0.00 305.50 196.00" xmlns="http://www.w3.org/2000/svg" xmlns:xlink="http://www.w3.org/1999/xlink">
<g id="graph0" class="graph" transform="scale(1 1) rotate(0) translate(4 192)">
<title>include/OpenGL.h</title>
<polygon fill="white" stroke="transparent" points="-4,4 -4,-192 301.5,-192 301.5,4 -4,4"/>
<!-- Node1 -->
<g id="node1" class="node">
<title>Node1</title>
<g id="a_node1"><a xlink:title=" ">
<polygon fill="#bfbfbf" stroke="black" points="82,-168.5 82,-187.5 184,-187.5 184,-168.5 82,-168.5"/>
<text text-anchor="middle" x="133" y="-175.5" font-family="Helvetica,sans-Serif" font-size="10.00">include/OpenGL.h</text>
</a>
</g>
</g>
<!-- Node2 -->
<g id="node2" class="node">
<title>Node2</title>
<g id="a_node2"><a xlink:href="Scene_8h.html" target="_top" xlink:title=" ">
<polygon fill="white" stroke="black" points="86.5,-112.5 86.5,-131.5 179.5,-131.5 179.5,-112.5 86.5,-112.5"/>
<text text-anchor="middle" x="133" y="-119.5" font-family="Helvetica,sans-Serif" font-size="10.00">include/Scene.h</text>
</a>
</g>
</g>
<!-- Node1&#45;&gt;Node2 -->
<g id="edge1" class="edge">
<title>Node1&#45;&gt;Node2</title>
<path fill="none" stroke="midnightblue" d="M133,-157.8C133,-148.91 133,-138.78 133,-131.75"/>
<polygon fill="midnightblue" stroke="midnightblue" points="129.5,-158.08 133,-168.08 136.5,-158.08 129.5,-158.08"/>
</g>
<!-- Node3 -->
<g id="node3" class="node">
<title>Node3</title>
<g id="a_node3"><a xlink:href="Simulation_8h.html" target="_top" xlink:title=" ">
<polygon fill="white" stroke="black" points="0,-56.5 0,-75.5 116,-75.5 116,-56.5 0,-56.5"/>
<text text-anchor="middle" x="58" y="-63.5" font-family="Helvetica,sans-Serif" font-size="10.00">include/Simulation.h</text>
</a>
</g>
</g>
<!-- Node1&#45;&gt;Node3 -->
<g id="edge7" class="edge">
<title>Node1&#45;&gt;Node3</title>
<path fill="none" stroke="midnightblue" d="M109.9,-162.78C98.85,-154.93 86.25,-144.28 78,-132 66.01,-114.17 60.96,-88.84 59.04,-75.68"/>
<polygon fill="midnightblue" stroke="midnightblue" points="108.07,-165.77 118.32,-168.46 111.99,-159.97 108.07,-165.77"/>
</g>
<!-- Node7 -->
<g id="node7" class="node">
<title>Node7</title>
<g id="a_node7"><a xlink:href="OpenGL_8cpp.html" target="_top" xlink:title=" ">
<polygon fill="white" stroke="black" points="198,-112.5 198,-131.5 290,-131.5 290,-112.5 198,-112.5"/>
<text text-anchor="middle" x="244" y="-119.5" font-family="Helvetica,sans-Serif" font-size="10.00">src/OpenGL.cpp</text>
</a>
</g>
</g>
<!-- Node1&#45;&gt;Node7 -->
<g id="edge8" class="edge">
<title>Node1&#45;&gt;Node7</title>
<path fill="none" stroke="midnightblue" d="M160.01,-163.86C180.59,-153.85 208.34,-140.35 226.21,-131.65"/>
<polygon fill="midnightblue" stroke="midnightblue" points="158.3,-160.8 150.83,-168.32 161.36,-167.1 158.3,-160.8"/>
</g>
<!-- Node2&#45;&gt;Node3 -->
<g id="edge2" class="edge">
<title>Node2&#45;&gt;Node3</title>
<path fill="none" stroke="midnightblue" d="M107.04,-106.66C92.25,-96.86 74.94,-84.18 65.12,-75.83"/>
<polygon fill="midnightblue" stroke="midnightblue" points="105.53,-109.85 115.84,-112.32 109.32,-103.97 105.53,-109.85"/>
</g>
<!-- Node5 -->
<g id="node5" class="node">
<title>Node5</title>
<g id="a_node5"><a xlink:href="main_8cpp.html" target="_top" xlink:title=" ">
<polygon fill="white" stroke="black" points="134,-56.5 134,-75.5 196,-75.5 196,-56.5 134,-56.5"/>
<text text-anchor="middle" x="165" y="-63.5" font-family="Helvetica,sans-Serif" font-size="10.00">main.cpp</text>
</a>
</g>
</g>
<!-- Node2&#45;&gt;Node5 -->
<g id="edge5" class="edge">
<title>Node2&#45;&gt;Node5</title>
<path fill="none" stroke="midnightblue" d="M143.5,-103.27C148.97,-94.05 155.42,-83.17 159.81,-75.75"/>
<polygon fill="midnightblue" stroke="midnightblue" points="140.37,-101.7 138.28,-112.08 146.39,-105.26 140.37,-101.7"/>
</g>
<!-- Node6 -->
<g id="node6" class="node">
<title>Node6</title>
<g id="a_node6"><a xlink:href="Scene_8cpp.html" target="_top" xlink:title=" ">
<polygon fill="white" stroke="black" points="214.5,-56.5 214.5,-75.5 297.5,-75.5 297.5,-56.5 214.5,-56.5"/>
<text text-anchor="middle" x="256" y="-63.5" font-family="Helvetica,sans-Serif" font-size="10.00">src/Scene.cpp</text>
</a>
</g>
</g>
<!-- Node2&#45;&gt;Node6 -->
<g id="edge6" class="edge">
<title>Node2&#45;&gt;Node6</title>
<path fill="none" stroke="midnightblue" d="M161.77,-108.37C184.81,-98.26 216.48,-84.35 236.6,-75.52"/>
<polygon fill="midnightblue" stroke="midnightblue" points="160.24,-105.22 152.49,-112.44 163.05,-111.63 160.24,-105.22"/>
</g>
<!-- Node3&#45;&gt;Node2 -->
<g id="edge3" class="edge">
<title>Node3&#45;&gt;Node2</title>
<path fill="none" stroke="midnightblue" d="M83.56,-81.07C98.53,-90.97 116.19,-103.9 126.06,-112.32"/>
<polygon fill="midnightblue" stroke="midnightblue" points="85.43,-78.12 75.13,-75.65 81.65,-84.01 85.43,-78.12"/>
</g>
<!-- Node4 -->
<g id="node4" class="node">
<title>Node4</title>
<g id="a_node4"><a xlink:href="Simulation_8cpp.html" target="_top" xlink:title=" ">
<polygon fill="white" stroke="black" points="4.5,-0.5 4.5,-19.5 111.5,-19.5 111.5,-0.5 4.5,-0.5"/>
<text text-anchor="middle" x="58" y="-7.5" font-family="Helvetica,sans-Serif" font-size="10.00">src/Simulation.cpp</text>
</a>
</g>
</g>
<!-- Node3&#45;&gt;Node4 -->
<g id="edge4" class="edge">
<title>Node3&#45;&gt;Node4</title>
<path fill="none" stroke="midnightblue" d="M58,-45.8C58,-36.91 58,-26.78 58,-19.75"/>
<polygon fill="midnightblue" stroke="midnightblue" points="54.5,-46.08 58,-56.08 61.5,-46.08 54.5,-46.08"/>
</g>
</g>
</svg>
