<?xml version="1.0" encoding="UTF-8" standalone="no"?>
<!DOCTYPE svg PUBLIC "-//W3C//DTD SVG 1.1//EN"
 "http://www.w3.org/Graphics/SVG/1.1/DTD/svg11.dtd">
<!-- Generated by graphviz version 2.43.0 (0)
 -->
<!-- Title: include/Ply.h Pages: 1 -->
<svg width="489pt" height="252pt"
 viewBox="0.00 0.00 488.50 252.00" xmlns="http://www.w3.org/2000/svg" xmlns:xlink="http://www.w3.org/1999/xlink">
<g id="graph0" class="graph" transform="scale(1 1) rotate(0) translate(4 248)">
<title>include/Ply.h</title>
<polygon fill="white" stroke="transparent" points="-4,4 -4,-248 484.5,-248 484.5,4 -4,4"/>
<!-- Node1 -->
<g id="node1" class="node">
<title>Node1</title>
<g id="a_node1"><a xlink:title=" ">
<polygon fill="#bfbfbf" stroke="black" points="346,-224.5 346,-243.5 423,-243.5 423,-224.5 346,-224.5"/>
<text text-anchor="middle" x="384.5" y="-231.5" font-family="Helvetica,sans-Serif" font-size="10.00">include/Ply.h</text>
</a>
</g>
</g>
<!-- Node2 -->
<g id="node2" class="node">
<title>Node2</title>
<g id="a_node2"><a xlink:href="Model_8h.html" target="_top" xlink:title=" ">
<polygon fill="white" stroke="black" points="189.5,-168.5 189.5,-187.5 283.5,-187.5 283.5,-168.5 189.5,-168.5"/>
<text text-anchor="middle" x="236.5" y="-175.5" font-family="Helvetica,sans-Serif" font-size="10.00">include/Model.h</text>
</a>
</g>
</g>
<!-- Node1&#45;&gt;Node2 -->
<g id="edge1" class="edge">
<title>Node1&#45;&gt;Node2</title>
<path fill="none" stroke="midnightblue" d="M351.35,-220.91C323.53,-210.75 284.48,-196.51 259.84,-187.52"/>
<polygon fill="midnightblue" stroke="midnightblue" points="350.46,-224.3 361.05,-224.44 352.85,-217.73 350.46,-224.3"/>
</g>
<!-- Node4 -->
<g id="node4" class="node">
<title>Node4</title>
<g id="a_node4"><a xlink:href="Simulation_8h.html" target="_top" xlink:title=" ">
<polygon fill="white" stroke="black" points="195.5,-56.5 195.5,-75.5 311.5,-75.5 311.5,-56.5 195.5,-56.5"/>
<text text-anchor="middle" x="253.5" y="-63.5" font-family="Helvetica,sans-Serif" font-size="10.00">include/Simulation.h</text>
</a>
</g>
</g>
<!-- Node1&#45;&gt;Node4 -->
<g id="edge14" class="edge">
<title>Node1&#45;&gt;Node4</title>
<path fill="none" stroke="midnightblue" d="M386.86,-214.26C389.05,-188.39 389.03,-141.57 365.5,-112 350.3,-92.9 325.74,-81.86 303.48,-75.51"/>
<polygon fill="midnightblue" stroke="midnightblue" points="383.37,-213.94 385.81,-224.25 390.34,-214.67 383.37,-213.94"/>
</g>
<!-- Node12 -->
<g id="node12" class="node">
<title>Node12</title>
<g id="a_node12"><a xlink:href="Ply_8cpp.html" target="_top" xlink:title=" ">
<polygon fill="white" stroke="black" points="412.5,-168.5 412.5,-187.5 480.5,-187.5 480.5,-168.5 412.5,-168.5"/>
<text text-anchor="middle" x="446.5" y="-175.5" font-family="Helvetica,sans-Serif" font-size="10.00">src/Ply.cpp</text>
</a>
</g>
</g>
<!-- Node1&#45;&gt;Node12 -->
<g id="edge15" class="edge">
<title>Node1&#45;&gt;Node12</title>
<path fill="none" stroke="midnightblue" d="M402.25,-217.54C413.31,-207.91 427.13,-195.87 436.36,-187.83"/>
<polygon fill="midnightblue" stroke="midnightblue" points="399.7,-215.12 394.46,-224.32 404.3,-220.4 399.7,-215.12"/>
</g>
<!-- Node3 -->
<g id="node3" class="node">
<title>Node3</title>
<g id="a_node3"><a xlink:href="Ball_8h.html" target="_top" xlink:title=" ">
<polygon fill="white" stroke="black" points="11,-112.5 11,-131.5 94,-131.5 94,-112.5 11,-112.5"/>
<text text-anchor="middle" x="52.5" y="-119.5" font-family="Helvetica,sans-Serif" font-size="10.00">include/Ball.h</text>
</a>
</g>
</g>
<!-- Node2&#45;&gt;Node3 -->
<g id="edge2" class="edge">
<title>Node2&#45;&gt;Node3</title>
<path fill="none" stroke="midnightblue" d="M197.55,-165.57C162.84,-155.38 112.82,-140.7 81.52,-131.52"/>
<polygon fill="midnightblue" stroke="midnightblue" points="196.76,-168.99 207.34,-168.44 198.73,-162.27 196.76,-168.99"/>
</g>
<!-- Node2&#45;&gt;Node4 -->
<g id="edge13" class="edge">
<title>Node2&#45;&gt;Node4</title>
<path fill="none" stroke="midnightblue" d="M239.38,-158.35C243.11,-134.25 249.43,-93.31 252.17,-75.59"/>
<polygon fill="midnightblue" stroke="midnightblue" points="235.9,-157.95 237.83,-168.37 242.82,-159.02 235.9,-157.95"/>
</g>
<!-- Node8 -->
<g id="node8" class="node">
<title>Node8</title>
<g id="a_node8"><a xlink:href="Enemy_8h.html" target="_top" xlink:title=" ">
<polygon fill="white" stroke="black" points="112.5,-112.5 112.5,-131.5 208.5,-131.5 208.5,-112.5 112.5,-112.5"/>
<text text-anchor="middle" x="160.5" y="-119.5" font-family="Helvetica,sans-Serif" font-size="10.00">include/Enemy.h</text>
</a>
</g>
</g>
<!-- Node2&#45;&gt;Node8 -->
<g id="edge7" class="edge">
<title>Node2&#45;&gt;Node8</title>
<path fill="none" stroke="midnightblue" d="M215.92,-162.38C202.19,-152.62 184.57,-140.11 172.93,-131.83"/>
<polygon fill="midnightblue" stroke="midnightblue" points="214.11,-165.38 224.29,-168.32 218.16,-159.68 214.11,-165.38"/>
</g>
<!-- Node10 -->
<g id="node10" class="node">
<title>Node10</title>
<g id="a_node10"><a xlink:href="Robot_8h.html" target="_top" xlink:title=" ">
<polygon fill="white" stroke="black" points="264.5,-112.5 264.5,-131.5 356.5,-131.5 356.5,-112.5 264.5,-112.5"/>
<text text-anchor="middle" x="310.5" y="-119.5" font-family="Helvetica,sans-Serif" font-size="10.00">include/Robot.h</text>
</a>
</g>
</g>
<!-- Node2&#45;&gt;Node10 -->
<g id="edge10" class="edge">
<title>Node2&#45;&gt;Node10</title>
<path fill="none" stroke="midnightblue" d="M256.53,-162.38C269.91,-152.62 287.06,-140.11 298.39,-131.83"/>
<polygon fill="midnightblue" stroke="midnightblue" points="254.4,-159.6 248.39,-168.32 258.53,-165.26 254.4,-159.6"/>
</g>
<!-- Node3&#45;&gt;Node4 -->
<g id="edge3" class="edge">
<title>Node3&#45;&gt;Node4</title>
<path fill="none" stroke="midnightblue" d="M94.08,-109.83C132.03,-99.63 187.31,-84.78 221.8,-75.52"/>
<polygon fill="midnightblue" stroke="midnightblue" points="93.1,-106.47 84.35,-112.44 94.91,-113.23 93.1,-106.47"/>
</g>
<!-- Node7 -->
<g id="node7" class="node">
<title>Node7</title>
<g id="a_node7"><a xlink:href="Ball_8cpp.html" target="_top" xlink:title=" ">
<polygon fill="white" stroke="black" points="0,-56.5 0,-75.5 73,-75.5 73,-56.5 0,-56.5"/>
<text text-anchor="middle" x="36.5" y="-63.5" font-family="Helvetica,sans-Serif" font-size="10.00">src/Ball.cpp</text>
</a>
</g>
</g>
<!-- Node3&#45;&gt;Node7 -->
<g id="edge6" class="edge">
<title>Node3&#45;&gt;Node7</title>
<path fill="none" stroke="midnightblue" d="M46.99,-102.4C44.31,-93.36 41.22,-82.94 39.09,-75.75"/>
<polygon fill="midnightblue" stroke="midnightblue" points="43.66,-103.49 49.86,-112.08 50.37,-101.5 43.66,-103.49"/>
</g>
<!-- Node5 -->
<g id="node5" class="node">
<title>Node5</title>
<g id="a_node5"><a xlink:href="main_8cpp.html" target="_top" xlink:title=" ">
<polygon fill="white" stroke="black" points="170.5,-0.5 170.5,-19.5 232.5,-19.5 232.5,-0.5 170.5,-0.5"/>
<text text-anchor="middle" x="201.5" y="-7.5" font-family="Helvetica,sans-Serif" font-size="10.00">main.cpp</text>
</a>
</g>
</g>
<!-- Node4&#45;&gt;Node5 -->
<g id="edge4" class="edge">
<title>Node4&#45;&gt;Node5</title>
<path fill="none" stroke="midnightblue" d="M237.82,-48.72C228.66,-39.2 217.45,-27.56 209.93,-19.75"/>
<polygon fill="midnightblue" stroke="midnightblue" points="235.46,-51.31 244.91,-56.08 240.5,-46.45 235.46,-51.31"/>
</g>
<!-- Node6 -->
<g id="node6" class="node">
<title>Node6</title>
<g id="a_node6"><a xlink:href="Simulation_8cpp.html" target="_top" xlink:title=" ">
<polygon fill="white" stroke="black" points="251,-0.5 251,-19.5 358,-19.5 358,-0.5 251,-0.5"/>
<text text-anchor="middle" x="304.5" y="-7.5" font-family="Helvetica,sans-Serif" font-size="10.00">src/Simulation.cpp</text>
</a>
</g>
</g>
<!-- Node4&#45;&gt;Node6 -->
<g id="edge5" class="edge">
<title>Node4&#45;&gt;Node6</title>
<path fill="none" stroke="midnightblue" d="M268.88,-48.72C277.87,-39.2 288.86,-27.56 296.24,-19.75"/>
<polygon fill="midnightblue" stroke="midnightblue" points="266.24,-46.41 261.92,-56.08 271.33,-51.22 266.24,-46.41"/>
</g>
<!-- Node8&#45;&gt;Node4 -->
<g id="edge8" class="edge">
<title>Node8&#45;&gt;Node4</title>
<path fill="none" stroke="midnightblue" d="M184.31,-107.18C201.42,-97.24 223.97,-84.15 238.6,-75.65"/>
<polygon fill="midnightblue" stroke="midnightblue" points="182.33,-104.28 175.44,-112.32 185.85,-110.33 182.33,-104.28"/>
</g>
<!-- Node9 -->
<g id="node9" class="node">
<title>Node9</title>
<g id="a_node9"><a xlink:href="Enemy_8cpp.html" target="_top" xlink:title=" ">
<polygon fill="white" stroke="black" points="91.5,-56.5 91.5,-75.5 177.5,-75.5 177.5,-56.5 91.5,-56.5"/>
<text text-anchor="middle" x="134.5" y="-63.5" font-family="Helvetica,sans-Serif" font-size="10.00">src/Enemy.cpp</text>
</a>
</g>
</g>
<!-- Node8&#45;&gt;Node9 -->
<g id="edge9" class="edge">
<title>Node8&#45;&gt;Node9</title>
<path fill="none" stroke="midnightblue" d="M151.83,-102.98C147.41,-93.82 142.25,-83.09 138.71,-75.75"/>
<polygon fill="midnightblue" stroke="midnightblue" points="148.71,-104.59 156.21,-112.08 155.02,-101.55 148.71,-104.59"/>
</g>
<!-- Node10&#45;&gt;Node4 -->
<g id="edge11" class="edge">
<title>Node10&#45;&gt;Node4</title>
<path fill="none" stroke="midnightblue" d="M293.88,-105.25C283.77,-95.67 271.22,-83.79 262.82,-75.83"/>
<polygon fill="midnightblue" stroke="midnightblue" points="291.68,-107.99 301.34,-112.32 296.49,-102.91 291.68,-107.99"/>
</g>
<!-- Node11 -->
<g id="node11" class="node">
<title>Node11</title>
<g id="a_node11"><a xlink:href="Robot_8cpp.html" target="_top" xlink:title=" ">
<polygon fill="white" stroke="black" points="330,-56.5 330,-75.5 413,-75.5 413,-56.5 330,-56.5"/>
<text text-anchor="middle" x="371.5" y="-63.5" font-family="Helvetica,sans-Serif" font-size="10.00">src/Robot.cpp</text>
</a>
</g>
</g>
<!-- Node10&#45;&gt;Node11 -->
<g id="edge12" class="edge">
<title>Node10&#45;&gt;Node11</title>
<path fill="none" stroke="midnightblue" d="M327.97,-105.54C338.84,-95.91 352.44,-83.87 361.52,-75.83"/>
<polygon fill="midnightblue" stroke="midnightblue" points="325.47,-103.07 320.3,-112.32 330.11,-108.32 325.47,-103.07"/>
</g>
</g>
</svg>
