<?xml version="1.0" encoding="UTF-8" standalone="no"?>
<!DOCTYPE svg PUBLIC "-//W3C//DTD SVG 1.1//EN"
 "http://www.w3.org/Graphics/SVG/1.1/DTD/svg11.dtd">
<!-- Generated by graphviz version 2.43.0 (0)
 -->
<!-- Title: include/Ply.h Pages: 1 -->
<svg width="537pt" height="308pt"
 viewBox="0.00 0.00 537.00 308.00" xmlns="http://www.w3.org/2000/svg" xmlns:xlink="http://www.w3.org/1999/xlink">
<g id="graph0" class="graph" transform="scale(1 1) rotate(0) translate(4 304)">
<title>include/Ply.h</title>
<polygon fill="white" stroke="transparent" points="-4,4 -4,-304 533,-304 533,4 -4,4"/>
<!-- Node1 -->
<g id="node1" class="node">
<title>Node1</title>
<g id="a_node1"><a xlink:title=" ">
<polygon fill="#bfbfbf" stroke="black" points="161,-280.5 161,-299.5 238,-299.5 238,-280.5 161,-280.5"/>
<text text-anchor="middle" x="199.5" y="-287.5" font-family="Helvetica,sans-Serif" font-size="10.00">include/Ply.h</text>
</a>
</g>
</g>
<!-- Node2 -->
<g id="node2" class="node">
<title>Node2</title>
<g id="a_node2"><a xlink:href="Model_8h.html" target="_top" xlink:title=" ">
<polygon fill="white" stroke="black" points="152.5,-224.5 152.5,-243.5 246.5,-243.5 246.5,-224.5 152.5,-224.5"/>
<text text-anchor="middle" x="199.5" y="-231.5" font-family="Helvetica,sans-Serif" font-size="10.00">include/Model.h</text>
</a>
</g>
</g>
<!-- Node1&#45;&gt;Node2 -->
<g id="edge1" class="edge">
<title>Node1&#45;&gt;Node2</title>
<path fill="none" stroke="midnightblue" d="M199.5,-269.8C199.5,-260.91 199.5,-250.78 199.5,-243.75"/>
<polygon fill="midnightblue" stroke="midnightblue" points="196,-270.08 199.5,-280.08 203,-270.08 196,-270.08"/>
</g>
<!-- Node4 -->
<g id="node4" class="node">
<title>Node4</title>
<g id="a_node4"><a xlink:href="Simulation_8h.html" target="_top" xlink:title=" ">
<polygon fill="white" stroke="black" points="91.5,-112.5 91.5,-131.5 207.5,-131.5 207.5,-112.5 91.5,-112.5"/>
<text text-anchor="middle" x="149.5" y="-119.5" font-family="Helvetica,sans-Serif" font-size="10.00">include/Simulation.h</text>
</a>
</g>
</g>
<!-- Node1&#45;&gt;Node4 -->
<g id="edge20" class="edge">
<title>Node1&#45;&gt;Node4</title>
<path fill="none" stroke="midnightblue" d="M161.27,-276.93C122.92,-262.55 66.02,-234.44 40.5,-188 24.16,-158.26 66.92,-140.78 103.6,-131.57"/>
<polygon fill="midnightblue" stroke="midnightblue" points="160.47,-280.37 171.06,-280.46 162.84,-273.78 160.47,-280.37"/>
</g>
<!-- Node16 -->
<g id="node16" class="node">
<title>Node16</title>
<g id="a_node16"><a xlink:href="Ply_8cpp.html" target="_top" xlink:title=" ">
<polygon fill="white" stroke="black" points="264.5,-224.5 264.5,-243.5 332.5,-243.5 332.5,-224.5 264.5,-224.5"/>
<text text-anchor="middle" x="298.5" y="-231.5" font-family="Helvetica,sans-Serif" font-size="10.00">src/Ply.cpp</text>
</a>
</g>
</g>
<!-- Node1&#45;&gt;Node16 -->
<g id="edge21" class="edge">
<title>Node1&#45;&gt;Node16</title>
<path fill="none" stroke="midnightblue" d="M224.34,-275.45C242.61,-265.48 266.92,-252.23 282.63,-243.65"/>
<polygon fill="midnightblue" stroke="midnightblue" points="222.51,-272.46 215.41,-280.32 225.86,-278.61 222.51,-272.46"/>
</g>
<!-- Node3 -->
<g id="node3" class="node">
<title>Node3</title>
<g id="a_node3"><a xlink:href="Ball_8h.html" target="_top" xlink:title=" ">
<polygon fill="white" stroke="black" points="50,-168.5 50,-187.5 133,-187.5 133,-168.5 50,-168.5"/>
<text text-anchor="middle" x="91.5" y="-175.5" font-family="Helvetica,sans-Serif" font-size="10.00">include/Ball.h</text>
</a>
</g>
</g>
<!-- Node2&#45;&gt;Node3 -->
<g id="edge2" class="edge">
<title>Node2&#45;&gt;Node3</title>
<path fill="none" stroke="midnightblue" d="M172.95,-219.73C152.95,-209.73 126.11,-196.31 108.81,-187.65"/>
<polygon fill="midnightblue" stroke="midnightblue" points="171.64,-222.98 182.15,-224.32 174.77,-216.72 171.64,-222.98"/>
</g>
<!-- Node2&#45;&gt;Node4 -->
<g id="edge19" class="edge">
<title>Node2&#45;&gt;Node4</title>
<path fill="none" stroke="midnightblue" d="M191.32,-215C180.41,-191 161.53,-149.47 153.41,-131.59"/>
<polygon fill="midnightblue" stroke="midnightblue" points="188.25,-216.71 195.58,-224.37 194.62,-213.82 188.25,-216.71"/>
</g>
<!-- Node10 -->
<g id="node10" class="node">
<title>Node10</title>
<g id="a_node10"><a xlink:href="Enemy_8h.html" target="_top" xlink:title=" ">
<polygon fill="white" stroke="black" points="189.5,-168.5 189.5,-187.5 285.5,-187.5 285.5,-168.5 189.5,-168.5"/>
<text text-anchor="middle" x="237.5" y="-175.5" font-family="Helvetica,sans-Serif" font-size="10.00">include/Enemy.h</text>
</a>
</g>
</g>
<!-- Node2&#45;&gt;Node10 -->
<g id="edge10" class="edge">
<title>Node2&#45;&gt;Node10</title>
<path fill="none" stroke="midnightblue" d="M211.56,-215.86C218.14,-206.5 226.01,-195.33 231.34,-187.75"/>
<polygon fill="midnightblue" stroke="midnightblue" points="208.67,-213.89 205.77,-224.08 214.39,-217.92 208.67,-213.89"/>
</g>
<!-- Node12 -->
<g id="node12" class="node">
<title>Node12</title>
<g id="a_node12"><a xlink:href="Message_8h.html" target="_top" xlink:title=" ">
<polygon fill="white" stroke="black" points="304,-168.5 304,-187.5 411,-187.5 411,-168.5 304,-168.5"/>
<text text-anchor="middle" x="357.5" y="-175.5" font-family="Helvetica,sans-Serif" font-size="10.00">include/Message.h</text>
</a>
</g>
</g>
<!-- Node2&#45;&gt;Node12 -->
<g id="edge13" class="edge">
<title>Node2&#45;&gt;Node12</title>
<path fill="none" stroke="midnightblue" d="M234.11,-221.17C263.86,-211 306.05,-196.59 332.58,-187.52"/>
<polygon fill="midnightblue" stroke="midnightblue" points="232.87,-217.9 224.54,-224.44 235.13,-224.52 232.87,-217.9"/>
</g>
<!-- Node14 -->
<g id="node14" class="node">
<title>Node14</title>
<g id="a_node14"><a xlink:href="Robot_8h.html" target="_top" xlink:title=" ">
<polygon fill="white" stroke="black" points="429.5,-168.5 429.5,-187.5 521.5,-187.5 521.5,-168.5 429.5,-168.5"/>
<text text-anchor="middle" x="475.5" y="-175.5" font-family="Helvetica,sans-Serif" font-size="10.00">include/Robot.h</text>
</a>
</g>
</g>
<!-- Node2&#45;&gt;Node14 -->
<g id="edge16" class="edge">
<title>Node2&#45;&gt;Node14</title>
<path fill="none" stroke="midnightblue" d="M253.3,-222.47C305.46,-212.27 383.61,-196.98 431.97,-187.52"/>
<polygon fill="midnightblue" stroke="midnightblue" points="252.37,-219.09 243.23,-224.44 253.72,-225.96 252.37,-219.09"/>
</g>
<!-- Node3&#45;&gt;Node4 -->
<g id="edge3" class="edge">
<title>Node3&#45;&gt;Node4</title>
<path fill="none" stroke="midnightblue" d="M108.41,-161.25C118.7,-151.67 131.47,-139.79 140.01,-131.83"/>
<polygon fill="midnightblue" stroke="midnightblue" points="105.75,-158.95 100.82,-168.32 110.52,-164.07 105.75,-158.95"/>
</g>
<!-- Node9 -->
<g id="node9" class="node">
<title>Node9</title>
<g id="a_node9"><a xlink:href="Ball_8cpp.html" target="_top" xlink:title=" ">
<polygon fill="white" stroke="black" points="0,-112.5 0,-131.5 73,-131.5 73,-112.5 0,-112.5"/>
<text text-anchor="middle" x="36.5" y="-119.5" font-family="Helvetica,sans-Serif" font-size="10.00">src/Ball.cpp</text>
</a>
</g>
</g>
<!-- Node3&#45;&gt;Node9 -->
<g id="edge9" class="edge">
<title>Node3&#45;&gt;Node9</title>
<path fill="none" stroke="midnightblue" d="M75.21,-161C65.46,-151.43 53.45,-139.64 45.41,-131.75"/>
<polygon fill="midnightblue" stroke="midnightblue" points="72.83,-163.57 82.42,-168.08 77.73,-158.58 72.83,-163.57"/>
</g>
<!-- Node5 -->
<g id="node5" class="node">
<title>Node5</title>
<g id="a_node5"><a xlink:href="Scene_8h.html" target="_top" xlink:title=" ">
<polygon fill="white" stroke="black" points="103,-56.5 103,-75.5 196,-75.5 196,-56.5 103,-56.5"/>
<text text-anchor="middle" x="149.5" y="-63.5" font-family="Helvetica,sans-Serif" font-size="10.00">include/Scene.h</text>
</a>
</g>
</g>
<!-- Node4&#45;&gt;Node5 -->
<g id="edge4" class="edge">
<title>Node4&#45;&gt;Node5</title>
<path fill="none" stroke="midnightblue" d="M143.03,-102.1C142.4,-93.14 142.84,-82.86 144.37,-75.75"/>
<polygon fill="midnightblue" stroke="midnightblue" points="139.57,-102.62 144.33,-112.08 146.51,-101.71 139.57,-102.62"/>
</g>
<!-- Node8 -->
<g id="node8" class="node">
<title>Node8</title>
<g id="a_node8"><a xlink:href="Simulation_8cpp.html" target="_top" xlink:title=" ">
<polygon fill="white" stroke="black" points="214,-56.5 214,-75.5 321,-75.5 321,-56.5 214,-56.5"/>
<text text-anchor="middle" x="267.5" y="-63.5" font-family="Helvetica,sans-Serif" font-size="10.00">src/Simulation.cpp</text>
</a>
</g>
</g>
<!-- Node4&#45;&gt;Node8 -->
<g id="edge8" class="edge">
<title>Node4&#45;&gt;Node8</title>
<path fill="none" stroke="midnightblue" d="M177.4,-108.23C199.47,-98.13 229.68,-84.31 248.89,-75.52"/>
<polygon fill="midnightblue" stroke="midnightblue" points="175.83,-105.1 168.2,-112.44 178.75,-111.46 175.83,-105.1"/>
</g>
<!-- Node5&#45;&gt;Node4 -->
<g id="edge5" class="edge">
<title>Node5&#45;&gt;Node4</title>
<path fill="none" stroke="midnightblue" d="M155.96,-85.69C156.61,-94.64 156.18,-104.93 154.67,-112.08"/>
<polygon fill="midnightblue" stroke="midnightblue" points="159.42,-85.2 154.63,-75.75 152.48,-86.13 159.42,-85.2"/>
</g>
<!-- Node6 -->
<g id="node6" class="node">
<title>Node6</title>
<g id="a_node6"><a xlink:href="main_8cpp.html" target="_top" xlink:title=" ">
<polygon fill="white" stroke="black" points="73.5,-0.5 73.5,-19.5 135.5,-19.5 135.5,-0.5 73.5,-0.5"/>
<text text-anchor="middle" x="104.5" y="-7.5" font-family="Helvetica,sans-Serif" font-size="10.00">main.cpp</text>
</a>
</g>
</g>
<!-- Node5&#45;&gt;Node6 -->
<g id="edge6" class="edge">
<title>Node5&#45;&gt;Node6</title>
<path fill="none" stroke="midnightblue" d="M135.45,-48.14C127.61,-38.74 118.17,-27.4 111.79,-19.75"/>
<polygon fill="midnightblue" stroke="midnightblue" points="132.98,-50.64 142.07,-56.08 138.36,-46.16 132.98,-50.64"/>
</g>
<!-- Node7 -->
<g id="node7" class="node">
<title>Node7</title>
<g id="a_node7"><a xlink:href="Scene_8cpp.html" target="_top" xlink:title=" ">
<polygon fill="white" stroke="black" points="154,-0.5 154,-19.5 237,-19.5 237,-0.5 154,-0.5"/>
<text text-anchor="middle" x="195.5" y="-7.5" font-family="Helvetica,sans-Serif" font-size="10.00">src/Scene.cpp</text>
</a>
</g>
</g>
<!-- Node5&#45;&gt;Node7 -->
<g id="edge7" class="edge">
<title>Node5&#45;&gt;Node7</title>
<path fill="none" stroke="midnightblue" d="M163.61,-48.43C171.68,-38.97 181.46,-27.48 188.05,-19.75"/>
<polygon fill="midnightblue" stroke="midnightblue" points="160.92,-46.2 157.1,-56.08 166.25,-50.74 160.92,-46.2"/>
</g>
<!-- Node10&#45;&gt;Node4 -->
<g id="edge11" class="edge">
<title>Node10&#45;&gt;Node4</title>
<path fill="none" stroke="midnightblue" d="M214.52,-162.9C198.39,-153 177.32,-140.07 163.6,-131.65"/>
<polygon fill="midnightblue" stroke="midnightblue" points="213.01,-166.08 223.36,-168.32 216.67,-160.11 213.01,-166.08"/>
</g>
<!-- Node11 -->
<g id="node11" class="node">
<title>Node11</title>
<g id="a_node11"><a xlink:href="Enemy_8cpp.html" target="_top" xlink:title=" ">
<polygon fill="white" stroke="black" points="225.5,-112.5 225.5,-131.5 311.5,-131.5 311.5,-112.5 225.5,-112.5"/>
<text text-anchor="middle" x="268.5" y="-119.5" font-family="Helvetica,sans-Serif" font-size="10.00">src/Enemy.cpp</text>
</a>
</g>
</g>
<!-- Node10&#45;&gt;Node11 -->
<g id="edge12" class="edge">
<title>Node10&#45;&gt;Node11</title>
<path fill="none" stroke="midnightblue" d="M247.68,-159.27C252.97,-150.05 259.22,-139.17 263.48,-131.75"/>
<polygon fill="midnightblue" stroke="midnightblue" points="244.56,-157.67 242.62,-168.08 250.63,-161.15 244.56,-157.67"/>
</g>
<!-- Node12&#45;&gt;Node4 -->
<g id="edge14" class="edge">
<title>Node12&#45;&gt;Node4</title>
<path fill="none" stroke="midnightblue" d="M314.72,-165.89C275.44,-155.7 218.07,-140.8 182.3,-131.52"/>
<polygon fill="midnightblue" stroke="midnightblue" points="313.98,-169.32 324.54,-168.44 315.74,-162.54 313.98,-169.32"/>
</g>
<!-- Node13 -->
<g id="node13" class="node">
<title>Node13</title>
<g id="a_node13"><a xlink:href="Message_8cpp.html" target="_top" xlink:title=" ">
<polygon fill="white" stroke="black" points="329.5,-112.5 329.5,-131.5 427.5,-131.5 427.5,-112.5 329.5,-112.5"/>
<text text-anchor="middle" x="378.5" y="-119.5" font-family="Helvetica,sans-Serif" font-size="10.00">src/Message.cpp</text>
</a>
</g>
</g>
<!-- Node12&#45;&gt;Node13 -->
<g id="edge15" class="edge">
<title>Node12&#45;&gt;Node13</title>
<path fill="none" stroke="midnightblue" d="M364.62,-158.69C368.16,-149.59 372.27,-139.01 375.1,-131.75"/>
<polygon fill="midnightblue" stroke="midnightblue" points="361.33,-157.49 360.97,-168.08 367.85,-160.03 361.33,-157.49"/>
</g>
<!-- Node14&#45;&gt;Node4 -->
<g id="edge17" class="edge">
<title>Node14&#45;&gt;Node4</title>
<path fill="none" stroke="midnightblue" d="M419.58,-167.74C358.2,-157.57 260.47,-141.38 200.92,-131.52"/>
<polygon fill="midnightblue" stroke="midnightblue" points="419.05,-171.2 429.48,-169.38 420.19,-164.29 419.05,-171.2"/>
</g>
<!-- Node15 -->
<g id="node15" class="node">
<title>Node15</title>
<g id="a_node15"><a xlink:href="Robot_8cpp.html" target="_top" xlink:title=" ">
<polygon fill="white" stroke="black" points="446,-112.5 446,-131.5 529,-131.5 529,-112.5 446,-112.5"/>
<text text-anchor="middle" x="487.5" y="-119.5" font-family="Helvetica,sans-Serif" font-size="10.00">src/Robot.cpp</text>
</a>
</g>
</g>
<!-- Node14&#45;&gt;Node15 -->
<g id="edge18" class="edge">
<title>Node14&#45;&gt;Node15</title>
<path fill="none" stroke="midnightblue" d="M479.7,-158.1C481.69,-149.14 483.98,-138.86 485.56,-131.75"/>
<polygon fill="midnightblue" stroke="midnightblue" points="476.23,-157.56 477.48,-168.08 483.07,-159.08 476.23,-157.56"/>
</g>
</g>
</svg>
