<?xml version="1.0" encoding="UTF-8" standalone="no"?>
<!DOCTYPE svg PUBLIC "-//W3C//DTD SVG 1.1//EN"
 "http://www.w3.org/Graphics/SVG/1.1/DTD/svg11.dtd">
<!-- Generated by graphviz version 2.43.0 (0)
 -->
<!-- Title: include/Ply.h Pages: 1 -->
<svg width="537pt" height="252pt"
 viewBox="0.00 0.00 537.00 252.00" xmlns="http://www.w3.org/2000/svg" xmlns:xlink="http://www.w3.org/1999/xlink">
<g id="graph0" class="graph" transform="scale(1 1) rotate(0) translate(4 248)">
<title>include/Ply.h</title>
<polygon fill="white" stroke="transparent" points="-4,4 -4,-248 533,-248 533,4 -4,4"/>
<!-- Node1 -->
<g id="node1" class="node">
<title>Node1</title>
<g id="a_node1"><a xlink:title=" ">
<polygon fill="#bfbfbf" stroke="black" points="161,-224.5 161,-243.5 238,-243.5 238,-224.5 161,-224.5"/>
<text text-anchor="middle" x="199.5" y="-231.5" font-family="Helvetica,sans-Serif" font-size="10.00">include/Ply.h</text>
</a>
</g>
</g>
<!-- Node2 -->
<g id="node2" class="node">
<title>Node2</title>
<g id="a_node2"><a xlink:href="Model_8h.html" target="_top" xlink:title=" ">
<polygon fill="white" stroke="black" points="152.5,-168.5 152.5,-187.5 246.5,-187.5 246.5,-168.5 152.5,-168.5"/>
<text text-anchor="middle" x="199.5" y="-175.5" font-family="Helvetica,sans-Serif" font-size="10.00">include/Model.h</text>
</a>
</g>
</g>
<!-- Node1&#45;&gt;Node2 -->
<g id="edge1" class="edge">
<title>Node1&#45;&gt;Node2</title>
<path fill="none" stroke="midnightblue" d="M199.5,-213.8C199.5,-204.91 199.5,-194.78 199.5,-187.75"/>
<polygon fill="midnightblue" stroke="midnightblue" points="196,-214.08 199.5,-224.08 203,-214.08 196,-214.08"/>
</g>
<!-- Node4 -->
<g id="node4" class="node">
<title>Node4</title>
<g id="a_node4"><a xlink:href="Simulation_8h.html" target="_top" xlink:title=" ">
<polygon fill="white" stroke="black" points="91.5,-56.5 91.5,-75.5 207.5,-75.5 207.5,-56.5 91.5,-56.5"/>
<text text-anchor="middle" x="149.5" y="-63.5" font-family="Helvetica,sans-Serif" font-size="10.00">include/Simulation.h</text>
</a>
</g>
</g>
<!-- Node1&#45;&gt;Node4 -->
<g id="edge17" class="edge">
<title>Node1&#45;&gt;Node4</title>
<path fill="none" stroke="midnightblue" d="M161.27,-220.93C122.92,-206.55 66.02,-178.44 40.5,-132 24.16,-102.26 66.92,-84.78 103.6,-75.57"/>
<polygon fill="midnightblue" stroke="midnightblue" points="160.47,-224.37 171.06,-224.46 162.84,-217.78 160.47,-224.37"/>
</g>
<!-- Node14 -->
<g id="node14" class="node">
<title>Node14</title>
<g id="a_node14"><a xlink:href="Ply_8cpp.html" target="_top" xlink:title=" ">
<polygon fill="white" stroke="black" points="264.5,-168.5 264.5,-187.5 332.5,-187.5 332.5,-168.5 264.5,-168.5"/>
<text text-anchor="middle" x="298.5" y="-175.5" font-family="Helvetica,sans-Serif" font-size="10.00">src/Ply.cpp</text>
</a>
</g>
</g>
<!-- Node1&#45;&gt;Node14 -->
<g id="edge18" class="edge">
<title>Node1&#45;&gt;Node14</title>
<path fill="none" stroke="midnightblue" d="M224.34,-219.45C242.61,-209.48 266.92,-196.23 282.63,-187.65"/>
<polygon fill="midnightblue" stroke="midnightblue" points="222.51,-216.46 215.41,-224.32 225.86,-222.61 222.51,-216.46"/>
</g>
<!-- Node3 -->
<g id="node3" class="node">
<title>Node3</title>
<g id="a_node3"><a xlink:href="Ball_8h.html" target="_top" xlink:title=" ">
<polygon fill="white" stroke="black" points="50,-112.5 50,-131.5 133,-131.5 133,-112.5 50,-112.5"/>
<text text-anchor="middle" x="91.5" y="-119.5" font-family="Helvetica,sans-Serif" font-size="10.00">include/Ball.h</text>
</a>
</g>
</g>
<!-- Node2&#45;&gt;Node3 -->
<g id="edge2" class="edge">
<title>Node2&#45;&gt;Node3</title>
<path fill="none" stroke="midnightblue" d="M172.95,-163.73C152.95,-153.73 126.11,-140.31 108.81,-131.65"/>
<polygon fill="midnightblue" stroke="midnightblue" points="171.64,-166.98 182.15,-168.32 174.77,-160.72 171.64,-166.98"/>
</g>
<!-- Node2&#45;&gt;Node4 -->
<g id="edge16" class="edge">
<title>Node2&#45;&gt;Node4</title>
<path fill="none" stroke="midnightblue" d="M191.32,-159C180.41,-135 161.53,-93.47 153.41,-75.59"/>
<polygon fill="midnightblue" stroke="midnightblue" points="188.25,-160.71 195.58,-168.37 194.62,-157.82 188.25,-160.71"/>
</g>
<!-- Node8 -->
<g id="node8" class="node">
<title>Node8</title>
<g id="a_node8"><a xlink:href="Enemy_8h.html" target="_top" xlink:title=" ">
<polygon fill="white" stroke="black" points="189.5,-112.5 189.5,-131.5 285.5,-131.5 285.5,-112.5 189.5,-112.5"/>
<text text-anchor="middle" x="237.5" y="-119.5" font-family="Helvetica,sans-Serif" font-size="10.00">include/Enemy.h</text>
</a>
</g>
</g>
<!-- Node2&#45;&gt;Node8 -->
<g id="edge7" class="edge">
<title>Node2&#45;&gt;Node8</title>
<path fill="none" stroke="midnightblue" d="M211.56,-159.86C218.14,-150.5 226.01,-139.33 231.34,-131.75"/>
<polygon fill="midnightblue" stroke="midnightblue" points="208.67,-157.89 205.77,-168.08 214.39,-161.92 208.67,-157.89"/>
</g>
<!-- Node10 -->
<g id="node10" class="node">
<title>Node10</title>
<g id="a_node10"><a xlink:href="Message_8h.html" target="_top" xlink:title=" ">
<polygon fill="white" stroke="black" points="304,-112.5 304,-131.5 411,-131.5 411,-112.5 304,-112.5"/>
<text text-anchor="middle" x="357.5" y="-119.5" font-family="Helvetica,sans-Serif" font-size="10.00">include/Message.h</text>
</a>
</g>
</g>
<!-- Node2&#45;&gt;Node10 -->
<g id="edge10" class="edge">
<title>Node2&#45;&gt;Node10</title>
<path fill="none" stroke="midnightblue" d="M234.11,-165.17C263.86,-155 306.05,-140.59 332.58,-131.52"/>
<polygon fill="midnightblue" stroke="midnightblue" points="232.87,-161.9 224.54,-168.44 235.13,-168.52 232.87,-161.9"/>
</g>
<!-- Node12 -->
<g id="node12" class="node">
<title>Node12</title>
<g id="a_node12"><a xlink:href="Robot_8h.html" target="_top" xlink:title=" ">
<polygon fill="white" stroke="black" points="429.5,-112.5 429.5,-131.5 521.5,-131.5 521.5,-112.5 429.5,-112.5"/>
<text text-anchor="middle" x="475.5" y="-119.5" font-family="Helvetica,sans-Serif" font-size="10.00">include/Robot.h</text>
</a>
</g>
</g>
<!-- Node2&#45;&gt;Node12 -->
<g id="edge13" class="edge">
<title>Node2&#45;&gt;Node12</title>
<path fill="none" stroke="midnightblue" d="M253.3,-166.47C305.46,-156.27 383.61,-140.98 431.97,-131.52"/>
<polygon fill="midnightblue" stroke="midnightblue" points="252.37,-163.09 243.23,-168.44 253.72,-169.96 252.37,-163.09"/>
</g>
<!-- Node3&#45;&gt;Node4 -->
<g id="edge3" class="edge">
<title>Node3&#45;&gt;Node4</title>
<path fill="none" stroke="midnightblue" d="M108.41,-105.25C118.7,-95.67 131.47,-83.79 140.01,-75.83"/>
<polygon fill="midnightblue" stroke="midnightblue" points="105.75,-102.95 100.82,-112.32 110.52,-108.07 105.75,-102.95"/>
</g>
<!-- Node7 -->
<g id="node7" class="node">
<title>Node7</title>
<g id="a_node7"><a xlink:href="Ball_8cpp.html" target="_top" xlink:title=" ">
<polygon fill="white" stroke="black" points="0,-56.5 0,-75.5 73,-75.5 73,-56.5 0,-56.5"/>
<text text-anchor="middle" x="36.5" y="-63.5" font-family="Helvetica,sans-Serif" font-size="10.00">src/Ball.cpp</text>
</a>
</g>
</g>
<!-- Node3&#45;&gt;Node7 -->
<g id="edge6" class="edge">
<title>Node3&#45;&gt;Node7</title>
<path fill="none" stroke="midnightblue" d="M75.21,-105C65.46,-95.43 53.45,-83.64 45.41,-75.75"/>
<polygon fill="midnightblue" stroke="midnightblue" points="72.83,-107.57 82.42,-112.08 77.73,-102.58 72.83,-107.57"/>
</g>
<!-- Node5 -->
<g id="node5" class="node">
<title>Node5</title>
<g id="a_node5"><a xlink:href="main_8cpp.html" target="_top" xlink:title=" ">
<polygon fill="white" stroke="black" points="66.5,-0.5 66.5,-19.5 128.5,-19.5 128.5,-0.5 66.5,-0.5"/>
<text text-anchor="middle" x="97.5" y="-7.5" font-family="Helvetica,sans-Serif" font-size="10.00">main.cpp</text>
</a>
</g>
</g>
<!-- Node4&#45;&gt;Node5 -->
<g id="edge4" class="edge">
<title>Node4&#45;&gt;Node5</title>
<path fill="none" stroke="midnightblue" d="M133.82,-48.72C124.66,-39.2 113.45,-27.56 105.93,-19.75"/>
<polygon fill="midnightblue" stroke="midnightblue" points="131.46,-51.31 140.91,-56.08 136.5,-46.45 131.46,-51.31"/>
</g>
<!-- Node6 -->
<g id="node6" class="node">
<title>Node6</title>
<g id="a_node6"><a xlink:href="Simulation_8cpp.html" target="_top" xlink:title=" ">
<polygon fill="white" stroke="black" points="147,-0.5 147,-19.5 254,-19.5 254,-0.5 147,-0.5"/>
<text text-anchor="middle" x="200.5" y="-7.5" font-family="Helvetica,sans-Serif" font-size="10.00">src/Simulation.cpp</text>
</a>
</g>
</g>
<!-- Node4&#45;&gt;Node6 -->
<g id="edge5" class="edge">
<title>Node4&#45;&gt;Node6</title>
<path fill="none" stroke="midnightblue" d="M164.88,-48.72C173.87,-39.2 184.86,-27.56 192.24,-19.75"/>
<polygon fill="midnightblue" stroke="midnightblue" points="162.24,-46.41 157.92,-56.08 167.33,-51.22 162.24,-46.41"/>
</g>
<!-- Node8&#45;&gt;Node4 -->
<g id="edge8" class="edge">
<title>Node8&#45;&gt;Node4</title>
<path fill="none" stroke="midnightblue" d="M214.52,-106.9C198.39,-97 177.32,-84.07 163.6,-75.65"/>
<polygon fill="midnightblue" stroke="midnightblue" points="213.01,-110.08 223.36,-112.32 216.67,-104.11 213.01,-110.08"/>
</g>
<!-- Node9 -->
<g id="node9" class="node">
<title>Node9</title>
<g id="a_node9"><a xlink:href="Enemy_8cpp.html" target="_top" xlink:title=" ">
<polygon fill="white" stroke="black" points="225.5,-56.5 225.5,-75.5 311.5,-75.5 311.5,-56.5 225.5,-56.5"/>
<text text-anchor="middle" x="268.5" y="-63.5" font-family="Helvetica,sans-Serif" font-size="10.00">src/Enemy.cpp</text>
</a>
</g>
</g>
<!-- Node8&#45;&gt;Node9 -->
<g id="edge9" class="edge">
<title>Node8&#45;&gt;Node9</title>
<path fill="none" stroke="midnightblue" d="M247.68,-103.27C252.97,-94.05 259.22,-83.17 263.48,-75.75"/>
<polygon fill="midnightblue" stroke="midnightblue" points="244.56,-101.67 242.62,-112.08 250.63,-105.15 244.56,-101.67"/>
</g>
<!-- Node10&#45;&gt;Node4 -->
<g id="edge11" class="edge">
<title>Node10&#45;&gt;Node4</title>
<path fill="none" stroke="midnightblue" d="M314.72,-109.89C275.44,-99.7 218.07,-84.8 182.3,-75.52"/>
<polygon fill="midnightblue" stroke="midnightblue" points="313.98,-113.32 324.54,-112.44 315.74,-106.54 313.98,-113.32"/>
</g>
<!-- Node11 -->
<g id="node11" class="node">
<title>Node11</title>
<g id="a_node11"><a xlink:href="Message_8cpp.html" target="_top" xlink:title=" ">
<polygon fill="white" stroke="black" points="329.5,-56.5 329.5,-75.5 427.5,-75.5 427.5,-56.5 329.5,-56.5"/>
<text text-anchor="middle" x="378.5" y="-63.5" font-family="Helvetica,sans-Serif" font-size="10.00">src/Message.cpp</text>
</a>
</g>
</g>
<!-- Node10&#45;&gt;Node11 -->
<g id="edge12" class="edge">
<title>Node10&#45;&gt;Node11</title>
<path fill="none" stroke="midnightblue" d="M364.62,-102.69C368.16,-93.59 372.27,-83.01 375.1,-75.75"/>
<polygon fill="midnightblue" stroke="midnightblue" points="361.33,-101.49 360.97,-112.08 367.85,-104.03 361.33,-101.49"/>
</g>
<!-- Node12&#45;&gt;Node4 -->
<g id="edge14" class="edge">
<title>Node12&#45;&gt;Node4</title>
<path fill="none" stroke="midnightblue" d="M419.58,-111.74C358.2,-101.57 260.47,-85.38 200.92,-75.52"/>
<polygon fill="midnightblue" stroke="midnightblue" points="419.05,-115.2 429.48,-113.38 420.19,-108.29 419.05,-115.2"/>
</g>
<!-- Node13 -->
<g id="node13" class="node">
<title>Node13</title>
<g id="a_node13"><a xlink:href="Robot_8cpp.html" target="_top" xlink:title=" ">
<polygon fill="white" stroke="black" points="446,-56.5 446,-75.5 529,-75.5 529,-56.5 446,-56.5"/>
<text text-anchor="middle" x="487.5" y="-63.5" font-family="Helvetica,sans-Serif" font-size="10.00">src/Robot.cpp</text>
</a>
</g>
</g>
<!-- Node12&#45;&gt;Node13 -->
<g id="edge15" class="edge">
<title>Node12&#45;&gt;Node13</title>
<path fill="none" stroke="midnightblue" d="M479.7,-102.1C481.69,-93.14 483.98,-82.86 485.56,-75.75"/>
<polygon fill="midnightblue" stroke="midnightblue" points="476.23,-101.56 477.48,-112.08 483.07,-103.08 476.23,-101.56"/>
</g>
</g>
</svg>
