<?xml version="1.0" encoding="UTF-8" standalone="no"?>
<!DOCTYPE svg PUBLIC "-//W3C//DTD SVG 1.1//EN"
 "http://www.w3.org/Graphics/SVG/1.1/DTD/svg11.dtd">
<!-- Generated by graphviz version 2.43.0 (0)
 -->
<!-- Title: src/Robot.cpp Pages: 1 -->
<svg width="1199pt" height="476pt"
 viewBox="0.00 0.00 1199.00 476.00" xmlns="http://www.w3.org/2000/svg" xmlns:xlink="http://www.w3.org/1999/xlink">
<g id="graph0" class="graph" transform="scale(1 1) rotate(0) translate(4 472)">
<title>src/Robot.cpp</title>
<polygon fill="white" stroke="transparent" points="-4,4 -4,-472 1195,-472 1195,4 -4,4"/>
<!-- Node1 -->
<g id="node1" class="node">
<title>Node1</title>
<g id="a_node1"><a xlink:title=" ">
<polygon fill="#bfbfbf" stroke="black" points="257.5,-448.5 257.5,-467.5 340.5,-467.5 340.5,-448.5 257.5,-448.5"/>
<text text-anchor="middle" x="299" y="-455.5" font-family="Helvetica,sans-Serif" font-size="10.00">src/Robot.cpp</text>
</a>
</g>
</g>
<!-- Node2 -->
<g id="node2" class="node">
<title>Node2</title>
<g id="a_node2"><a xlink:href="Robot_8h.html" target="_top" xlink:title=" ">
<polygon fill="white" stroke="black" points="248.5,-392.5 248.5,-411.5 349.5,-411.5 349.5,-392.5 248.5,-392.5"/>
<text text-anchor="middle" x="299" y="-399.5" font-family="Helvetica,sans-Serif" font-size="10.00">../include/Robot.h</text>
</a>
</g>
</g>
<!-- Node1&#45;&gt;Node2 -->
<g id="edge1" class="edge">
<title>Node1&#45;&gt;Node2</title>
<path fill="none" stroke="midnightblue" d="M299,-448.08C299,-441.01 299,-430.86 299,-421.99"/>
<polygon fill="midnightblue" stroke="midnightblue" points="302.5,-421.75 299,-411.75 295.5,-421.75 302.5,-421.75"/>
</g>
<!-- Node3 -->
<g id="node3" class="node">
<title>Node3</title>
<g id="a_node3"><a xlink:title=" ">
<polygon fill="white" stroke="#bfbfbf" points="376,-0.5 376,-19.5 436,-19.5 436,-0.5 376,-0.5"/>
<text text-anchor="middle" x="406" y="-7.5" font-family="Helvetica,sans-Serif" font-size="10.00">iostream</text>
</a>
</g>
</g>
<!-- Node2&#45;&gt;Node3 -->
<g id="edge2" class="edge">
<title>Node2&#45;&gt;Node3</title>
<path fill="none" stroke="midnightblue" d="M248.28,-393.08C162.97,-378.32 0,-343.27 0,-291 0,-291 0,-291 0,-121 0,-45.8 262.79,-20.4 365.53,-13.35"/>
<polygon fill="midnightblue" stroke="midnightblue" points="366.07,-16.82 375.82,-12.66 365.61,-9.83 366.07,-16.82"/>
</g>
<!-- Node4 -->
<g id="node4" class="node">
<title>Node4</title>
<g id="a_node4"><a xlink:title=" ">
<polygon fill="white" stroke="#bfbfbf" points="290.5,-112.5 290.5,-131.5 337.5,-131.5 337.5,-112.5 290.5,-112.5"/>
<text text-anchor="middle" x="314" y="-119.5" font-family="Helvetica,sans-Serif" font-size="10.00">vector</text>
</a>
</g>
</g>
<!-- Node2&#45;&gt;Node4 -->
<g id="edge3" class="edge">
<title>Node2&#45;&gt;Node4</title>
<path fill="none" stroke="midnightblue" d="M256.43,-392.42C206.95,-379.67 132,-350.54 132,-291 132,-291 132,-291 132,-233 132,-202.77 130.33,-189.08 152,-168 170.18,-150.31 238.32,-135.9 280.22,-128.47"/>
<polygon fill="midnightblue" stroke="midnightblue" points="281.01,-131.89 290.26,-126.73 279.81,-124.99 281.01,-131.89"/>
</g>
<!-- Node5 -->
<g id="node5" class="node">
<title>Node5</title>
<g id="a_node5"><a xlink:title=" ">
<polygon fill="white" stroke="#bfbfbf" points="935.5,-112.5 935.5,-131.5 1018.5,-131.5 1018.5,-112.5 935.5,-112.5"/>
<text text-anchor="middle" x="977" y="-119.5" font-family="Helvetica,sans-Serif" font-size="10.00">glm/vec4.hpp</text>
</a>
</g>
</g>
<!-- Node2&#45;&gt;Node5 -->
<g id="edge4" class="edge">
<title>Node2&#45;&gt;Node5</title>
<path fill="none" stroke="midnightblue" d="M349.55,-399.84C533,-394.98 1153,-372.52 1153,-291 1153,-291 1153,-291 1153,-233 1153,-202.9 1155.34,-189.23 1134,-168 1106.31,-140.45 1062.96,-129.52 1028.82,-125.3"/>
<polygon fill="midnightblue" stroke="midnightblue" points="1028.87,-121.79 1018.55,-124.2 1028.12,-128.75 1028.87,-121.79"/>
</g>
<!-- Node6 -->
<g id="node6" class="node">
<title>Node6</title>
<g id="a_node6"><a xlink:title=" ">
<polygon fill="white" stroke="#bfbfbf" points="160.5,-168.5 160.5,-187.5 257.5,-187.5 257.5,-168.5 160.5,-168.5"/>
<text text-anchor="middle" x="209" y="-175.5" font-family="Helvetica,sans-Serif" font-size="10.00">glm/mat4x4.hpp</text>
</a>
</g>
</g>
<!-- Node2&#45;&gt;Node6 -->
<g id="edge5" class="edge">
<title>Node2&#45;&gt;Node6</title>
<path fill="none" stroke="midnightblue" d="M261.03,-392.41C241.59,-385.88 219.62,-374.72 208,-356 176.84,-305.83 193.03,-231.22 203.04,-197.15"/>
<polygon fill="midnightblue" stroke="midnightblue" points="206.38,-198.19 206,-187.6 199.7,-196.11 206.38,-198.19"/>
</g>
<!-- Node7 -->
<g id="node7" class="node">
<title>Node7</title>
<g id="a_node7"><a xlink:title=" ">
<polygon fill="white" stroke="#bfbfbf" points="217,-336.5 217,-355.5 381,-355.5 381,-336.5 217,-336.5"/>
<text text-anchor="middle" x="299" y="-343.5" font-family="Helvetica,sans-Serif" font-size="10.00">glm/ext/matrix_transform.hpp</text>
</a>
</g>
</g>
<!-- Node2&#45;&gt;Node7 -->
<g id="edge6" class="edge">
<title>Node2&#45;&gt;Node7</title>
<path fill="none" stroke="midnightblue" d="M299,-392.08C299,-385.01 299,-374.86 299,-365.99"/>
<polygon fill="midnightblue" stroke="midnightblue" points="302.5,-365.75 299,-355.75 295.5,-365.75 302.5,-365.75"/>
</g>
<!-- Node8 -->
<g id="node8" class="node">
<title>Node8</title>
<g id="a_node8"><a xlink:title=" ">
<polygon fill="white" stroke="#bfbfbf" points="870,-0.5 870,-19.5 948,-19.5 948,-0.5 870,-0.5"/>
<text text-anchor="middle" x="909" y="-7.5" font-family="Helvetica,sans-Serif" font-size="10.00">glm/glm.hpp</text>
</a>
</g>
</g>
<!-- Node2&#45;&gt;Node8 -->
<g id="edge7" class="edge">
<title>Node2&#45;&gt;Node8</title>
<path fill="none" stroke="midnightblue" d="M349.68,-400.19C494.55,-397.53 908.43,-387.3 1040,-356 1111.08,-339.09 1191,-364.06 1191,-291 1191,-291 1191,-291 1191,-121 1191,-71.61 1038.98,-35.45 958.17,-19.71"/>
<polygon fill="midnightblue" stroke="midnightblue" points="958.69,-16.25 948.21,-17.81 957.37,-23.13 958.69,-16.25"/>
</g>
<!-- Node9 -->
<g id="node9" class="node">
<title>Node9</title>
<g id="a_node9"><a xlink:title=" ">
<polygon fill="white" stroke="#bfbfbf" points="276,-168.5 276,-187.5 340,-187.5 340,-168.5 276,-168.5"/>
<text text-anchor="middle" x="308" y="-175.5" font-family="Helvetica,sans-Serif" font-size="10.00">GL/glew.h</text>
</a>
</g>
</g>
<!-- Node2&#45;&gt;Node9 -->
<g id="edge8" class="edge">
<title>Node2&#45;&gt;Node9</title>
<path fill="none" stroke="midnightblue" d="M336.97,-392.41C356.41,-385.88 378.38,-374.72 390,-356 424.76,-300.04 359.35,-226.93 325.93,-195.04"/>
<polygon fill="midnightblue" stroke="midnightblue" points="327.91,-192.1 318.21,-187.86 323.15,-197.23 327.91,-192.1"/>
</g>
<!-- Node10 -->
<g id="node10" class="node">
<title>Node10</title>
<g id="a_node10"><a xlink:href="Animation_8h.html" target="_top" xlink:title=" ">
<polygon fill="white" stroke="black" points="28,-168.5 28,-187.5 104,-187.5 104,-168.5 28,-168.5"/>
<text text-anchor="middle" x="66" y="-175.5" font-family="Helvetica,sans-Serif" font-size="10.00">Animation.h</text>
</a>
</g>
</g>
<!-- Node2&#45;&gt;Node10 -->
<g id="edge9" class="edge">
<title>Node2&#45;&gt;Node10</title>
<path fill="none" stroke="midnightblue" d="M248.29,-394.12C201.49,-386.78 136.52,-373.76 118,-356 73.36,-313.2 66.48,-234.26 65.79,-198.05"/>
<polygon fill="midnightblue" stroke="midnightblue" points="69.29,-197.88 65.74,-187.9 62.29,-197.91 69.29,-197.88"/>
</g>
<!-- Node14 -->
<g id="node14" class="node">
<title>Node14</title>
<g id="a_node14"><a xlink:href="Model_8h.html" target="_top" xlink:title=" ">
<polygon fill="white" stroke="black" points="491,-336.5 491,-355.5 547,-355.5 547,-336.5 491,-336.5"/>
<text text-anchor="middle" x="519" y="-343.5" font-family="Helvetica,sans-Serif" font-size="10.00">Model.h</text>
</a>
</g>
</g>
<!-- Node2&#45;&gt;Node14 -->
<g id="edge18" class="edge">
<title>Node2&#45;&gt;Node14</title>
<path fill="none" stroke="midnightblue" d="M333.86,-392.44C373.96,-382.6 439.57,-366.5 480.96,-356.34"/>
<polygon fill="midnightblue" stroke="midnightblue" points="482.06,-359.67 490.94,-353.89 480.39,-352.87 482.06,-359.67"/>
</g>
<!-- Node10&#45;&gt;Node3 -->
<g id="edge10" class="edge">
<title>Node10&#45;&gt;Node3</title>
<path fill="none" stroke="midnightblue" d="M67.07,-168.25C70.34,-145.61 82.38,-84.81 120,-56 157.77,-27.08 296.04,-16.32 365.55,-12.68"/>
<polygon fill="midnightblue" stroke="midnightblue" points="365.87,-16.17 375.68,-12.18 365.52,-9.18 365.87,-16.17"/>
</g>
<!-- Node10&#45;&gt;Node4 -->
<g id="edge11" class="edge">
<title>Node10&#45;&gt;Node4</title>
<path fill="none" stroke="midnightblue" d="M104.21,-168.68C152.36,-158.2 234.36,-140.34 280.29,-130.34"/>
<polygon fill="midnightblue" stroke="midnightblue" points="281.3,-133.7 290.33,-128.15 279.82,-126.86 281.3,-133.7"/>
</g>
<!-- Node11 -->
<g id="node11" class="node">
<title>Node11</title>
<g id="a_node11"><a xlink:href="Vertex_8h.html" target="_top" xlink:title=" ">
<polygon fill="white" stroke="black" points="802.5,-56.5 802.5,-75.5 859.5,-75.5 859.5,-56.5 802.5,-56.5"/>
<text text-anchor="middle" x="831" y="-63.5" font-family="Helvetica,sans-Serif" font-size="10.00">Vertex.h</text>
</a>
</g>
</g>
<!-- Node10&#45;&gt;Node11 -->
<g id="edge12" class="edge">
<title>Node10&#45;&gt;Node11</title>
<path fill="none" stroke="midnightblue" d="M88.62,-168.46C127.52,-154.18 209.85,-125.65 282,-112 471.13,-76.21 702.24,-68.88 792.4,-67.38"/>
<polygon fill="midnightblue" stroke="midnightblue" points="792.49,-70.88 802.43,-67.23 792.38,-63.88 792.49,-70.88"/>
</g>
<!-- Node12 -->
<g id="node12" class="node">
<title>Node12</title>
<g id="a_node12"><a xlink:title=" ">
<polygon fill="white" stroke="#bfbfbf" points="571.5,-0.5 571.5,-19.5 634.5,-19.5 634.5,-0.5 571.5,-0.5"/>
<text text-anchor="middle" x="603" y="-7.5" font-family="Helvetica,sans-Serif" font-size="10.00">armadillo</text>
</a>
</g>
</g>
<!-- Node10&#45;&gt;Node12 -->
<g id="edge17" class="edge">
<title>Node10&#45;&gt;Node12</title>
<path fill="none" stroke="midnightblue" d="M81.1,-168.31C105.3,-154.69 154.57,-128.21 199,-112 327.76,-65.03 487.38,-32.24 561.53,-18.38"/>
<polygon fill="midnightblue" stroke="midnightblue" points="562.22,-21.81 571.42,-16.55 560.95,-14.93 562.22,-21.81"/>
</g>
<!-- Node11&#45;&gt;Node3 -->
<g id="edge13" class="edge">
<title>Node11&#45;&gt;Node3</title>
<path fill="none" stroke="midnightblue" d="M802.39,-58.64C797.6,-57.68 792.67,-56.76 788,-56 664.19,-35.79 516.39,-21.01 446.47,-14.57"/>
<polygon fill="midnightblue" stroke="midnightblue" points="446.61,-11.07 436.34,-13.65 445.98,-18.04 446.61,-11.07"/>
</g>
<!-- Node11&#45;&gt;Node8 -->
<g id="edge16" class="edge">
<title>Node11&#45;&gt;Node8</title>
<path fill="none" stroke="midnightblue" d="M843.53,-56.32C855.59,-47.98 874.03,-35.21 888.27,-25.35"/>
<polygon fill="midnightblue" stroke="midnightblue" points="890.27,-28.22 896.5,-19.65 886.28,-22.47 890.27,-28.22"/>
</g>
<!-- Node11&#45;&gt;Node12 -->
<g id="edge14" class="edge">
<title>Node11&#45;&gt;Node12</title>
<path fill="none" stroke="midnightblue" d="M802.12,-58.16C762.24,-48.72 690.07,-31.62 644.44,-20.81"/>
<polygon fill="midnightblue" stroke="midnightblue" points="645.1,-17.37 634.56,-18.48 643.49,-24.19 645.1,-17.37"/>
</g>
<!-- Node13 -->
<g id="node13" class="node">
<title>Node13</title>
<g id="a_node13"><a xlink:title=" ">
<polygon fill="white" stroke="#bfbfbf" points="768.5,-0.5 768.5,-19.5 851.5,-19.5 851.5,-0.5 768.5,-0.5"/>
<text text-anchor="middle" x="810" y="-7.5" font-family="Helvetica,sans-Serif" font-size="10.00">glm/vec3.hpp</text>
</a>
</g>
</g>
<!-- Node11&#45;&gt;Node13 -->
<g id="edge15" class="edge">
<title>Node11&#45;&gt;Node13</title>
<path fill="none" stroke="midnightblue" d="M827.53,-56.08C824.69,-48.77 820.57,-38.18 817.04,-29.1"/>
<polygon fill="midnightblue" stroke="midnightblue" points="820.29,-27.8 813.4,-19.75 813.77,-30.34 820.29,-27.8"/>
</g>
<!-- Node15 -->
<g id="node15" class="node">
<title>Node15</title>
<g id="a_node15"><a xlink:href="Obj_8h.html" target="_top" xlink:title=" ">
<polygon fill="white" stroke="black" points="498,-280.5 498,-299.5 540,-299.5 540,-280.5 498,-280.5"/>
<text text-anchor="middle" x="519" y="-287.5" font-family="Helvetica,sans-Serif" font-size="10.00">Obj.h</text>
</a>
</g>
</g>
<!-- Node14&#45;&gt;Node15 -->
<g id="edge19" class="edge">
<title>Node14&#45;&gt;Node15</title>
<path fill="none" stroke="midnightblue" d="M519,-336.08C519,-329.01 519,-318.86 519,-309.99"/>
<polygon fill="midnightblue" stroke="midnightblue" points="522.5,-309.75 519,-299.75 515.5,-309.75 522.5,-309.75"/>
</g>
<!-- Node25 -->
<g id="node25" class="node">
<title>Node25</title>
<g id="a_node25"><a xlink:href="Ply_8h.html" target="_top" xlink:title=" ">
<polygon fill="white" stroke="black" points="558.5,-280.5 558.5,-299.5 597.5,-299.5 597.5,-280.5 558.5,-280.5"/>
<text text-anchor="middle" x="578" y="-287.5" font-family="Helvetica,sans-Serif" font-size="10.00">Ply.h</text>
</a>
</g>
</g>
<!-- Node14&#45;&gt;Node25 -->
<g id="edge40" class="edge">
<title>Node14&#45;&gt;Node25</title>
<path fill="none" stroke="midnightblue" d="M528.48,-336.32C537.2,-328.34 550.34,-316.31 560.9,-306.65"/>
<polygon fill="midnightblue" stroke="midnightblue" points="563.33,-309.17 568.35,-299.83 558.61,-304 563.33,-309.17"/>
</g>
<!-- Node16 -->
<g id="node16" class="node">
<title>Node16</title>
<g id="a_node16"><a xlink:href="Object_8h.html" target="_top" xlink:title=" ">
<polygon fill="white" stroke="black" points="549.5,-224.5 549.5,-243.5 606.5,-243.5 606.5,-224.5 549.5,-224.5"/>
<text text-anchor="middle" x="578" y="-231.5" font-family="Helvetica,sans-Serif" font-size="10.00">Object.h</text>
</a>
</g>
</g>
<!-- Node15&#45;&gt;Node16 -->
<g id="edge20" class="edge">
<title>Node15&#45;&gt;Node16</title>
<path fill="none" stroke="midnightblue" d="M528.48,-280.32C537.2,-272.34 550.34,-260.31 560.9,-250.65"/>
<polygon fill="midnightblue" stroke="midnightblue" points="563.33,-253.17 568.35,-243.83 558.61,-248 563.33,-253.17"/>
</g>
<!-- Node16&#45;&gt;Node3 -->
<g id="edge21" class="edge">
<title>Node16&#45;&gt;Node3</title>
<path fill="none" stroke="midnightblue" d="M549.47,-233.36C514.57,-232.12 456.41,-224.27 426,-188 387.63,-142.24 395.77,-64.81 402.08,-29.52"/>
<polygon fill="midnightblue" stroke="midnightblue" points="405.53,-30.12 404,-19.63 398.66,-28.78 405.53,-30.12"/>
</g>
<!-- Node16&#45;&gt;Node4 -->
<g id="edge23" class="edge">
<title>Node16&#45;&gt;Node4</title>
<path fill="none" stroke="midnightblue" d="M549.2,-230.14C511.4,-225.5 443.79,-214.05 392,-188 367.29,-175.57 343.56,-153.95 328.9,-139.08"/>
<polygon fill="midnightblue" stroke="midnightblue" points="331.19,-136.41 321.74,-131.62 326.13,-141.26 331.19,-136.41"/>
</g>
<!-- Node16&#45;&gt;Node6 -->
<g id="edge38" class="edge">
<title>Node16&#45;&gt;Node6</title>
<path fill="none" stroke="midnightblue" d="M549.26,-228.94C495.98,-221.4 378.04,-204.59 267.7,-188.09"/>
<polygon fill="midnightblue" stroke="midnightblue" points="268.14,-184.62 257.73,-186.6 267.1,-191.54 268.14,-184.62"/>
</g>
<!-- Node16&#45;&gt;Node9 -->
<g id="edge36" class="edge">
<title>Node16&#45;&gt;Node9</title>
<path fill="none" stroke="midnightblue" d="M549.36,-227.27C501.58,-217.72 405.38,-198.48 349.94,-187.39"/>
<polygon fill="midnightblue" stroke="midnightblue" points="350.58,-183.95 340.09,-185.42 349.21,-190.81 350.58,-183.95"/>
</g>
<!-- Node16&#45;&gt;Node11 -->
<g id="edge24" class="edge">
<title>Node16&#45;&gt;Node11</title>
<path fill="none" stroke="midnightblue" d="M606.75,-232.31C701.53,-229.76 999.68,-219.29 1028,-188 1050.67,-162.96 1049.06,-138.41 1028,-112 1008.61,-87.68 921.6,-75.47 869.92,-70.25"/>
<polygon fill="midnightblue" stroke="midnightblue" points="870.07,-66.75 859.78,-69.27 869.4,-73.72 870.07,-66.75"/>
</g>
<!-- Node17 -->
<g id="node17" class="node">
<title>Node17</title>
<g id="a_node17"><a xlink:title=" ">
<polygon fill="white" stroke="#bfbfbf" points="963.5,-168.5 963.5,-187.5 1018.5,-187.5 1018.5,-168.5 963.5,-168.5"/>
<text text-anchor="middle" x="991" y="-175.5" font-family="Helvetica,sans-Serif" font-size="10.00">fstream</text>
</a>
</g>
</g>
<!-- Node16&#45;&gt;Node17 -->
<g id="edge22" class="edge">
<title>Node16&#45;&gt;Node17</title>
<path fill="none" stroke="midnightblue" d="M606.56,-230.83C668.2,-225.88 818.42,-212.41 953.09,-188.17"/>
<polygon fill="midnightblue" stroke="midnightblue" points="953.96,-191.57 963.17,-186.33 952.7,-184.68 953.96,-191.57"/>
</g>
<!-- Node18 -->
<g id="node18" class="node">
<title>Node18</title>
<g id="a_node18"><a xlink:href="Edge_8h.html" target="_top" xlink:title=" ">
<polygon fill="white" stroke="black" points="787,-112.5 787,-131.5 837,-131.5 837,-112.5 787,-112.5"/>
<text text-anchor="middle" x="812" y="-119.5" font-family="Helvetica,sans-Serif" font-size="10.00">Edge.h</text>
</a>
</g>
</g>
<!-- Node16&#45;&gt;Node18 -->
<g id="edge25" class="edge">
<title>Node16&#45;&gt;Node18</title>
<path fill="none" stroke="midnightblue" d="M606.54,-232.75C670.03,-231.52 819.84,-224.72 851,-188 864.2,-172.45 847.12,-151.9 831.59,-138.11"/>
<polygon fill="midnightblue" stroke="midnightblue" points="833.69,-135.31 823.78,-131.58 829.2,-140.68 833.69,-135.31"/>
</g>
<!-- Node19 -->
<g id="node19" class="node">
<title>Node19</title>
<g id="a_node19"><a xlink:href="Face_8h.html" target="_top" xlink:title=" ">
<polygon fill="white" stroke="black" points="898.5,-168.5 898.5,-187.5 945.5,-187.5 945.5,-168.5 898.5,-168.5"/>
<text text-anchor="middle" x="922" y="-175.5" font-family="Helvetica,sans-Serif" font-size="10.00">Face.h</text>
</a>
</g>
</g>
<!-- Node16&#45;&gt;Node19 -->
<g id="edge27" class="edge">
<title>Node16&#45;&gt;Node19</title>
<path fill="none" stroke="midnightblue" d="M606.83,-229.61C661.25,-223.01 782.74,-207.4 884,-188 885.46,-187.72 886.94,-187.42 888.44,-187.11"/>
<polygon fill="midnightblue" stroke="midnightblue" points="889.34,-190.5 898.35,-184.94 887.83,-183.66 889.34,-190.5"/>
</g>
<!-- Node20 -->
<g id="node20" class="node">
<title>Node20</title>
<g id="a_node20"><a xlink:title=" ">
<polygon fill="white" stroke="#bfbfbf" points="1075,-168.5 1075,-187.5 1125,-187.5 1125,-168.5 1075,-168.5"/>
<text text-anchor="middle" x="1100" y="-175.5" font-family="Helvetica,sans-Serif" font-size="10.00">stdio.h</text>
</a>
</g>
</g>
<!-- Node16&#45;&gt;Node20 -->
<g id="edge33" class="edge">
<title>Node16&#45;&gt;Node20</title>
<path fill="none" stroke="midnightblue" d="M606.75,-231.67C681.85,-227.9 889.93,-215.58 1061,-188 1062.27,-187.79 1063.57,-187.57 1064.87,-187.34"/>
<polygon fill="midnightblue" stroke="midnightblue" points="1065.81,-190.72 1074.92,-185.31 1064.43,-183.85 1065.81,-190.72"/>
</g>
<!-- Node21 -->
<g id="node21" class="node">
<title>Node21</title>
<g id="a_node21"><a xlink:title=" ">
<polygon fill="white" stroke="#bfbfbf" points="434.5,-168.5 434.5,-187.5 487.5,-187.5 487.5,-168.5 434.5,-168.5"/>
<text text-anchor="middle" x="461" y="-175.5" font-family="Helvetica,sans-Serif" font-size="10.00">stdlib.h</text>
</a>
</g>
</g>
<!-- Node16&#45;&gt;Node21 -->
<g id="edge34" class="edge">
<title>Node16&#45;&gt;Node21</title>
<path fill="none" stroke="midnightblue" d="M559.46,-224.44C540.38,-215.64 510.43,-201.81 488.56,-191.72"/>
<polygon fill="midnightblue" stroke="midnightblue" points="490,-188.53 479.45,-187.52 487.07,-194.88 490,-188.53"/>
</g>
<!-- Node22 -->
<g id="node22" class="node">
<title>Node22</title>
<g id="a_node22"><a xlink:title=" ">
<polygon fill="white" stroke="#bfbfbf" points="506,-168.5 506,-187.5 562,-187.5 562,-168.5 506,-168.5"/>
<text text-anchor="middle" x="534" y="-175.5" font-family="Helvetica,sans-Serif" font-size="10.00">sstream</text>
</a>
</g>
</g>
<!-- Node16&#45;&gt;Node22 -->
<g id="edge35" class="edge">
<title>Node16&#45;&gt;Node22</title>
<path fill="none" stroke="midnightblue" d="M570.73,-224.08C564.46,-216.38 555.21,-205.03 547.57,-195.65"/>
<polygon fill="midnightblue" stroke="midnightblue" points="550.16,-193.29 541.13,-187.75 544.73,-197.71 550.16,-193.29"/>
</g>
<!-- Node23 -->
<g id="node23" class="node">
<title>Node23</title>
<g id="a_node23"><a xlink:title=" ">
<polygon fill="white" stroke="#bfbfbf" points="580.5,-168.5 580.5,-187.5 663.5,-187.5 663.5,-168.5 580.5,-168.5"/>
<text text-anchor="middle" x="622" y="-175.5" font-family="Helvetica,sans-Serif" font-size="10.00">GLFW/glfw3.h</text>
</a>
</g>
</g>
<!-- Node16&#45;&gt;Node23 -->
<g id="edge37" class="edge">
<title>Node16&#45;&gt;Node23</title>
<path fill="none" stroke="midnightblue" d="M585.27,-224.08C591.54,-216.38 600.79,-205.03 608.43,-195.65"/>
<polygon fill="midnightblue" stroke="midnightblue" points="611.27,-197.71 614.87,-187.75 605.84,-193.29 611.27,-197.71"/>
</g>
<!-- Node24 -->
<g id="node24" class="node">
<title>Node24</title>
<g id="a_node24"><a xlink:title=" ">
<polygon fill="white" stroke="#bfbfbf" points="682,-168.5 682,-187.5 842,-187.5 842,-168.5 682,-168.5"/>
<text text-anchor="middle" x="762" y="-175.5" font-family="Helvetica,sans-Serif" font-size="10.00">glm/ext/scalar_constants.hpp</text>
</a>
</g>
</g>
<!-- Node16&#45;&gt;Node24 -->
<g id="edge39" class="edge">
<title>Node16&#45;&gt;Node24</title>
<path fill="none" stroke="midnightblue" d="M606.75,-224.56C638.03,-215.38 688.21,-200.66 723.02,-190.44"/>
<polygon fill="midnightblue" stroke="midnightblue" points="724.23,-193.73 732.84,-187.56 722.26,-187.01 724.23,-193.73"/>
</g>
<!-- Node18&#45;&gt;Node11 -->
<g id="edge26" class="edge">
<title>Node18&#45;&gt;Node11</title>
<path fill="none" stroke="midnightblue" d="M815.14,-112.08C817.68,-104.85 821.36,-94.41 824.53,-85.4"/>
<polygon fill="midnightblue" stroke="midnightblue" points="827.9,-86.35 827.92,-75.75 821.3,-84.02 827.9,-86.35"/>
</g>
<!-- Node19&#45;&gt;Node3 -->
<g id="edge29" class="edge">
<title>Node19&#45;&gt;Node3</title>
<path fill="none" stroke="midnightblue" d="M914.53,-168.34C901.89,-154.26 874.84,-126.53 846,-112 709.84,-43.42 526.57,-20.75 446.39,-13.81"/>
<polygon fill="midnightblue" stroke="midnightblue" points="446.48,-10.31 436.22,-12.97 445.9,-17.28 446.48,-10.31"/>
</g>
<!-- Node19&#45;&gt;Node4 -->
<g id="edge30" class="edge">
<title>Node19&#45;&gt;Node4</title>
<path fill="none" stroke="midnightblue" d="M898.36,-173.75C884.57,-171.91 866.82,-169.66 851,-168 660.95,-148 432.3,-131.27 347.65,-125.32"/>
<polygon fill="midnightblue" stroke="midnightblue" points="347.81,-121.82 337.59,-124.62 347.32,-128.81 347.81,-121.82"/>
</g>
<!-- Node19&#45;&gt;Node5 -->
<g id="edge31" class="edge">
<title>Node19&#45;&gt;Node5</title>
<path fill="none" stroke="midnightblue" d="M931.08,-168.08C939.17,-160.14 951.2,-148.34 960.91,-138.8"/>
<polygon fill="midnightblue" stroke="midnightblue" points="963.4,-141.25 968.09,-131.75 958.5,-136.26 963.4,-141.25"/>
</g>
<!-- Node19&#45;&gt;Node8 -->
<g id="edge32" class="edge">
<title>Node19&#45;&gt;Node8</title>
<path fill="none" stroke="midnightblue" d="M921.3,-168.08C919.25,-141.95 913.25,-65.21 910.45,-29.58"/>
<polygon fill="midnightblue" stroke="midnightblue" points="913.94,-29.26 909.67,-19.57 906.96,-29.81 913.94,-29.26"/>
</g>
<!-- Node19&#45;&gt;Node18 -->
<g id="edge28" class="edge">
<title>Node19&#45;&gt;Node18</title>
<path fill="none" stroke="midnightblue" d="M904.33,-168.32C886.61,-159.62 859.1,-146.12 838.71,-136.11"/>
<polygon fill="midnightblue" stroke="midnightblue" points="840.15,-132.92 829.63,-131.65 837.06,-139.2 840.15,-132.92"/>
</g>
<!-- Node25&#45;&gt;Node16 -->
<g id="edge41" class="edge">
<title>Node25&#45;&gt;Node16</title>
<path fill="none" stroke="midnightblue" d="M578,-280.08C578,-273.01 578,-262.86 578,-253.99"/>
<polygon fill="midnightblue" stroke="midnightblue" points="581.5,-253.75 578,-243.75 574.5,-253.75 581.5,-253.75"/>
</g>
</g>
</svg>
