<?xml version="1.0" encoding="UTF-8" standalone="no"?>
<!DOCTYPE svg PUBLIC "-//W3C//DTD SVG 1.1//EN"
 "http://www.w3.org/Graphics/SVG/1.1/DTD/svg11.dtd">
<!-- Generated by graphviz version 2.43.0 (0)
 -->
<!-- Title: src/Robot.cpp Pages: 1 -->
<svg width="1453pt" height="476pt"
 viewBox="0.00 0.00 1453.00 476.00" xmlns="http://www.w3.org/2000/svg" xmlns:xlink="http://www.w3.org/1999/xlink">
<g id="graph0" class="graph" transform="scale(1 1) rotate(0) translate(4 472)">
<title>src/Robot.cpp</title>
<polygon fill="white" stroke="transparent" points="-4,4 -4,-472 1449,-472 1449,4 -4,4"/>
<!-- Node1 -->
<g id="node1" class="node">
<title>Node1</title>
<g id="a_node1"><a xlink:title=" ">
<polygon fill="#bfbfbf" stroke="black" points="521.5,-448.5 521.5,-467.5 604.5,-467.5 604.5,-448.5 521.5,-448.5"/>
<text text-anchor="middle" x="563" y="-455.5" font-family="Helvetica,sans-Serif" font-size="10.00">src/Robot.cpp</text>
</a>
</g>
</g>
<!-- Node2 -->
<g id="node2" class="node">
<title>Node2</title>
<g id="a_node2"><a xlink:href="Robot_8h.html" target="_top" xlink:title=" ">
<polygon fill="white" stroke="black" points="512.5,-392.5 512.5,-411.5 613.5,-411.5 613.5,-392.5 512.5,-392.5"/>
<text text-anchor="middle" x="563" y="-399.5" font-family="Helvetica,sans-Serif" font-size="10.00">../include/Robot.h</text>
</a>
</g>
</g>
<!-- Node1&#45;&gt;Node2 -->
<g id="edge1" class="edge">
<title>Node1&#45;&gt;Node2</title>
<path fill="none" stroke="midnightblue" d="M563,-448.08C563,-441.01 563,-430.86 563,-421.99"/>
<polygon fill="midnightblue" stroke="midnightblue" points="566.5,-421.75 563,-411.75 559.5,-421.75 566.5,-421.75"/>
</g>
<!-- Node3 -->
<g id="node3" class="node">
<title>Node3</title>
<g id="a_node3"><a xlink:title=" ">
<polygon fill="white" stroke="#bfbfbf" points="712,-0.5 712,-19.5 772,-19.5 772,-0.5 712,-0.5"/>
<text text-anchor="middle" x="742" y="-7.5" font-family="Helvetica,sans-Serif" font-size="10.00">iostream</text>
</a>
</g>
</g>
<!-- Node2&#45;&gt;Node3 -->
<g id="edge2" class="edge">
<title>Node2&#45;&gt;Node3</title>
<path fill="none" stroke="midnightblue" d="M613.59,-400.05C801,-395.88 1445,-375.39 1445,-291 1445,-291 1445,-291 1445,-121 1445,-53.44 931.7,-21.02 782.32,-13.02"/>
<polygon fill="midnightblue" stroke="midnightblue" points="782.38,-9.52 772.21,-12.48 782.01,-16.51 782.38,-9.52"/>
</g>
<!-- Node4 -->
<g id="node4" class="node">
<title>Node4</title>
<g id="a_node4"><a xlink:title=" ">
<polygon fill="white" stroke="#bfbfbf" points="468.5,-112.5 468.5,-131.5 515.5,-131.5 515.5,-112.5 468.5,-112.5"/>
<text text-anchor="middle" x="492" y="-119.5" font-family="Helvetica,sans-Serif" font-size="10.00">vector</text>
</a>
</g>
</g>
<!-- Node2&#45;&gt;Node4 -->
<g id="edge3" class="edge">
<title>Node2&#45;&gt;Node4</title>
<path fill="none" stroke="midnightblue" d="M512.13,-399.5C392.62,-394.61 104,-374.17 104,-291 104,-291 104,-291 104,-233 104,-202.9 100.06,-187.48 123,-168 148.36,-146.47 372.16,-130.44 458.36,-125.01"/>
<polygon fill="midnightblue" stroke="midnightblue" points="458.64,-128.5 468.4,-124.38 458.21,-121.51 458.64,-128.5"/>
</g>
<!-- Node5 -->
<g id="node5" class="node">
<title>Node5</title>
<g id="a_node5"><a xlink:title=" ">
<polygon fill="white" stroke="#bfbfbf" points="358.5,-280.5 358.5,-299.5 441.5,-299.5 441.5,-280.5 358.5,-280.5"/>
<text text-anchor="middle" x="400" y="-287.5" font-family="Helvetica,sans-Serif" font-size="10.00">glm/vec4.hpp</text>
</a>
</g>
</g>
<!-- Node2&#45;&gt;Node5 -->
<g id="edge4" class="edge">
<title>Node2&#45;&gt;Node5</title>
<path fill="none" stroke="midnightblue" d="M550.21,-392.37C522.24,-373.49 455.4,-328.38 421.1,-305.24"/>
<polygon fill="midnightblue" stroke="midnightblue" points="422.98,-302.28 412.73,-299.59 419.06,-308.09 422.98,-302.28"/>
</g>
<!-- Node6 -->
<g id="node6" class="node">
<title>Node6</title>
<g id="a_node6"><a xlink:title=" ">
<polygon fill="white" stroke="#bfbfbf" points="132.5,-168.5 132.5,-187.5 229.5,-187.5 229.5,-168.5 132.5,-168.5"/>
<text text-anchor="middle" x="181" y="-175.5" font-family="Helvetica,sans-Serif" font-size="10.00">glm/mat4x4.hpp</text>
</a>
</g>
</g>
<!-- Node2&#45;&gt;Node6 -->
<g id="edge5" class="edge">
<title>Node2&#45;&gt;Node6</title>
<path fill="none" stroke="midnightblue" d="M512.21,-394.86C474.83,-388.82 423.67,-377.29 383,-356 301.12,-313.14 224.94,-230.55 194.72,-195.44"/>
<polygon fill="midnightblue" stroke="midnightblue" points="197.19,-192.94 188.05,-187.59 191.86,-197.48 197.19,-192.94"/>
</g>
<!-- Node7 -->
<g id="node7" class="node">
<title>Node7</title>
<g id="a_node7"><a xlink:title=" ">
<polygon fill="white" stroke="#bfbfbf" points="248,-168.5 248,-187.5 412,-187.5 412,-168.5 248,-168.5"/>
<text text-anchor="middle" x="330" y="-175.5" font-family="Helvetica,sans-Serif" font-size="10.00">glm/ext/matrix_transform.hpp</text>
</a>
</g>
</g>
<!-- Node2&#45;&gt;Node7 -->
<g id="edge6" class="edge">
<title>Node2&#45;&gt;Node7</title>
<path fill="none" stroke="midnightblue" d="M517.04,-392.49C467.45,-380.75 390.2,-354.51 350,-300 327.64,-269.69 326.63,-223.49 328.15,-197.83"/>
<polygon fill="midnightblue" stroke="midnightblue" points="331.65,-197.87 328.95,-187.62 324.67,-197.32 331.65,-197.87"/>
</g>
<!-- Node8 -->
<g id="node8" class="node">
<title>Node8</title>
<g id="a_node8"><a xlink:title=" ">
<polygon fill="white" stroke="#bfbfbf" points="756,-280.5 756,-299.5 834,-299.5 834,-280.5 756,-280.5"/>
<text text-anchor="middle" x="795" y="-287.5" font-family="Helvetica,sans-Serif" font-size="10.00">glm/glm.hpp</text>
</a>
</g>
</g>
<!-- Node2&#45;&gt;Node8 -->
<g id="edge7" class="edge">
<title>Node2&#45;&gt;Node8</title>
<path fill="none" stroke="midnightblue" d="M581.2,-392.37C621.78,-373.13 719.82,-326.65 767.73,-303.93"/>
<polygon fill="midnightblue" stroke="midnightblue" points="769.34,-307.04 776.88,-299.59 766.34,-300.71 769.34,-307.04"/>
</g>
<!-- Node9 -->
<g id="node9" class="node">
<title>Node9</title>
<g id="a_node9"><a xlink:title=" ">
<polygon fill="white" stroke="#bfbfbf" points="1353,-168.5 1353,-187.5 1417,-187.5 1417,-168.5 1353,-168.5"/>
<text text-anchor="middle" x="1385" y="-175.5" font-family="Helvetica,sans-Serif" font-size="10.00">GL/glew.h</text>
</a>
</g>
</g>
<!-- Node2&#45;&gt;Node9 -->
<g id="edge8" class="edge">
<title>Node2&#45;&gt;Node9</title>
<path fill="none" stroke="midnightblue" d="M613.8,-399.05C686.6,-395.32 824.38,-384.8 938,-356 1104.18,-313.88 1291.45,-225.41 1358.99,-192.08"/>
<polygon fill="midnightblue" stroke="midnightblue" points="1360.67,-195.15 1368.07,-187.57 1357.56,-188.88 1360.67,-195.15"/>
</g>
<!-- Node10 -->
<g id="node10" class="node">
<title>Node10</title>
<g id="a_node10"><a xlink:href="Animation_8h.html" target="_top" xlink:title=" ">
<polygon fill="white" stroke="black" points="0,-168.5 0,-187.5 76,-187.5 76,-168.5 0,-168.5"/>
<text text-anchor="middle" x="38" y="-175.5" font-family="Helvetica,sans-Serif" font-size="10.00">Animation.h</text>
</a>
</g>
</g>
<!-- Node2&#45;&gt;Node10 -->
<g id="edge9" class="edge">
<title>Node2&#45;&gt;Node10</title>
<path fill="none" stroke="midnightblue" d="M512.17,-399.35C396.69,-395.14 122.05,-382.45 90,-356 42.08,-316.45 36.92,-235.19 37.24,-198.16"/>
<polygon fill="midnightblue" stroke="midnightblue" points="40.75,-197.87 37.49,-187.79 33.75,-197.71 40.75,-197.87"/>
</g>
<!-- Node13 -->
<g id="node13" class="node">
<title>Node13</title>
<g id="a_node13"><a xlink:href="Model_8h.html" target="_top" xlink:title=" ">
<polygon fill="white" stroke="black" points="845,-336.5 845,-355.5 901,-355.5 901,-336.5 845,-336.5"/>
<text text-anchor="middle" x="873" y="-343.5" font-family="Helvetica,sans-Serif" font-size="10.00">Model.h</text>
</a>
</g>
</g>
<!-- Node2&#45;&gt;Node13 -->
<g id="edge16" class="edge">
<title>Node2&#45;&gt;Node13</title>
<path fill="none" stroke="midnightblue" d="M612.12,-392.44C674,-381.66 779,-363.37 835.06,-353.61"/>
<polygon fill="midnightblue" stroke="midnightblue" points="835.69,-357.05 844.94,-351.89 834.49,-350.16 835.69,-357.05"/>
</g>
<!-- Node25 -->
<g id="node25" class="node">
<title>Node25</title>
<g id="a_node25"><a xlink:href="OpenGL_8h.html" target="_top" xlink:title=" ">
<polygon fill="white" stroke="black" points="994,-224.5 994,-243.5 1058,-243.5 1058,-224.5 994,-224.5"/>
<text text-anchor="middle" x="1026" y="-231.5" font-family="Helvetica,sans-Serif" font-size="10.00">OpenGL.h</text>
</a>
</g>
</g>
<!-- Node2&#45;&gt;Node25 -->
<g id="edge39" class="edge">
<title>Node2&#45;&gt;Node25</title>
<path fill="none" stroke="midnightblue" d="M613.65,-398.55C697.08,-393.85 859.23,-381.64 910,-356 958.1,-331.71 997.31,-279.25 1015.32,-252.08"/>
<polygon fill="midnightblue" stroke="midnightblue" points="1018.3,-253.92 1020.79,-243.62 1012.42,-250.12 1018.3,-253.92"/>
</g>
<!-- Node27 -->
<g id="node27" class="node">
<title>Node27</title>
<g id="a_node27"><a xlink:href="Scene_8h.html" target="_top" xlink:title=" ">
<polygon fill="white" stroke="black" points="535.5,-336.5 535.5,-355.5 590.5,-355.5 590.5,-336.5 535.5,-336.5"/>
<text text-anchor="middle" x="563" y="-343.5" font-family="Helvetica,sans-Serif" font-size="10.00">Scene.h</text>
</a>
</g>
</g>
<!-- Node2&#45;&gt;Node27 -->
<g id="edge49" class="edge">
<title>Node2&#45;&gt;Node27</title>
<path fill="none" stroke="midnightblue" d="M563,-392.08C563,-385.01 563,-374.86 563,-365.99"/>
<polygon fill="midnightblue" stroke="midnightblue" points="566.5,-365.75 563,-355.75 559.5,-365.75 566.5,-365.75"/>
</g>
<!-- Node10&#45;&gt;Node3 -->
<g id="edge10" class="edge">
<title>Node10&#45;&gt;Node3</title>
<path fill="none" stroke="midnightblue" d="M58.99,-168.48C114.3,-146.39 268.97,-86.82 403,-56 509.33,-31.55 637.69,-19.01 701.66,-13.89"/>
<polygon fill="midnightblue" stroke="midnightblue" points="702.03,-17.37 711.73,-13.1 701.49,-10.39 702.03,-17.37"/>
</g>
<!-- Node10&#45;&gt;Node4 -->
<g id="edge11" class="edge">
<title>Node10&#45;&gt;Node4</title>
<path fill="none" stroke="midnightblue" d="M76.01,-170.15C80.72,-169.38 85.46,-168.65 90,-168 225.95,-148.64 388.75,-132.6 458.07,-126.11"/>
<polygon fill="midnightblue" stroke="midnightblue" points="458.74,-129.56 468.38,-125.15 458.09,-122.59 458.74,-129.56"/>
</g>
<!-- Node11 -->
<g id="node11" class="node">
<title>Node11</title>
<g id="a_node11"><a xlink:href="Vertex_8h.html" target="_top" xlink:title=" ">
<polygon fill="white" stroke="black" points="411.5,-56.5 411.5,-75.5 468.5,-75.5 468.5,-56.5 411.5,-56.5"/>
<text text-anchor="middle" x="440" y="-63.5" font-family="Helvetica,sans-Serif" font-size="10.00">Vertex.h</text>
</a>
</g>
</g>
<!-- Node10&#45;&gt;Node11 -->
<g id="edge12" class="edge">
<title>Node10&#45;&gt;Node11</title>
<path fill="none" stroke="midnightblue" d="M76.41,-170.38C132.55,-160.58 234.2,-142.23 270,-132 320.94,-117.44 378.07,-94.07 411.44,-79.68"/>
<polygon fill="midnightblue" stroke="midnightblue" points="413.22,-82.72 420.99,-75.52 410.43,-76.3 413.22,-82.72"/>
</g>
<!-- Node12 -->
<g id="node12" class="node">
<title>Node12</title>
<g id="a_node12"><a xlink:title=" ">
<polygon fill="white" stroke="#bfbfbf" points="225.5,-0.5 225.5,-19.5 288.5,-19.5 288.5,-0.5 225.5,-0.5"/>
<text text-anchor="middle" x="257" y="-7.5" font-family="Helvetica,sans-Serif" font-size="10.00">armadillo</text>
</a>
</g>
</g>
<!-- Node10&#45;&gt;Node12 -->
<g id="edge15" class="edge">
<title>Node10&#45;&gt;Node12</title>
<path fill="none" stroke="midnightblue" d="M49.47,-168.31C84.94,-141.42 193.21,-59.35 237.65,-25.67"/>
<polygon fill="midnightblue" stroke="midnightblue" points="239.79,-28.44 245.65,-19.61 235.56,-22.86 239.79,-28.44"/>
</g>
<!-- Node11&#45;&gt;Node3 -->
<g id="edge13" class="edge">
<title>Node11&#45;&gt;Node3</title>
<path fill="none" stroke="midnightblue" d="M468.68,-59.87C522.69,-50.21 639.58,-29.31 701.54,-18.23"/>
<polygon fill="midnightblue" stroke="midnightblue" points="702.5,-21.62 711.72,-16.41 701.26,-14.73 702.5,-21.62"/>
</g>
<!-- Node11&#45;&gt;Node12 -->
<g id="edge14" class="edge">
<title>Node11&#45;&gt;Node12</title>
<path fill="none" stroke="midnightblue" d="M411.41,-56.56C380.3,-47.38 330.39,-32.66 295.77,-22.44"/>
<polygon fill="midnightblue" stroke="midnightblue" points="296.58,-19.03 286,-19.56 294.6,-25.74 296.58,-19.03"/>
</g>
<!-- Node14 -->
<g id="node14" class="node">
<title>Node14</title>
<g id="a_node14"><a xlink:href="Obj_8h.html" target="_top" xlink:title=" ">
<polygon fill="white" stroke="black" points="852,-280.5 852,-299.5 894,-299.5 894,-280.5 852,-280.5"/>
<text text-anchor="middle" x="873" y="-287.5" font-family="Helvetica,sans-Serif" font-size="10.00">Obj.h</text>
</a>
</g>
</g>
<!-- Node13&#45;&gt;Node14 -->
<g id="edge17" class="edge">
<title>Node13&#45;&gt;Node14</title>
<path fill="none" stroke="midnightblue" d="M873,-336.08C873,-329.01 873,-318.86 873,-309.99"/>
<polygon fill="midnightblue" stroke="midnightblue" points="876.5,-309.75 873,-299.75 869.5,-309.75 876.5,-309.75"/>
</g>
<!-- Node24 -->
<g id="node24" class="node">
<title>Node24</title>
<g id="a_node24"><a xlink:href="Ply_8h.html" target="_top" xlink:title=" ">
<polygon fill="white" stroke="black" points="912.5,-280.5 912.5,-299.5 951.5,-299.5 951.5,-280.5 912.5,-280.5"/>
<text text-anchor="middle" x="932" y="-287.5" font-family="Helvetica,sans-Serif" font-size="10.00">Ply.h</text>
</a>
</g>
</g>
<!-- Node13&#45;&gt;Node24 -->
<g id="edge37" class="edge">
<title>Node13&#45;&gt;Node24</title>
<path fill="none" stroke="midnightblue" d="M882.48,-336.32C891.2,-328.34 904.34,-316.31 914.9,-306.65"/>
<polygon fill="midnightblue" stroke="midnightblue" points="917.33,-309.17 922.35,-299.83 912.61,-304 917.33,-309.17"/>
</g>
<!-- Node15 -->
<g id="node15" class="node">
<title>Node15</title>
<g id="a_node15"><a xlink:href="Object_8h.html" target="_top" xlink:title=" ">
<polygon fill="white" stroke="black" points="804.5,-224.5 804.5,-243.5 861.5,-243.5 861.5,-224.5 804.5,-224.5"/>
<text text-anchor="middle" x="833" y="-231.5" font-family="Helvetica,sans-Serif" font-size="10.00">Object.h</text>
</a>
</g>
</g>
<!-- Node14&#45;&gt;Node15 -->
<g id="edge18" class="edge">
<title>Node14&#45;&gt;Node15</title>
<path fill="none" stroke="midnightblue" d="M866.39,-280.08C860.74,-272.46 852.46,-261.26 845.55,-251.94"/>
<polygon fill="midnightblue" stroke="midnightblue" points="848.25,-249.7 839.48,-243.75 842.62,-253.87 848.25,-249.7"/>
</g>
<!-- Node15&#45;&gt;Node3 -->
<g id="edge19" class="edge">
<title>Node15&#45;&gt;Node3</title>
<path fill="none" stroke="midnightblue" d="M829.43,-224.3C815.99,-191.49 768.19,-74.88 749.53,-29.38"/>
<polygon fill="midnightblue" stroke="midnightblue" points="752.67,-27.81 745.64,-19.88 746.2,-30.46 752.67,-27.81"/>
</g>
<!-- Node15&#45;&gt;Node4 -->
<g id="edge21" class="edge">
<title>Node15&#45;&gt;Node4</title>
<path fill="none" stroke="midnightblue" d="M804.44,-233.51C731.27,-234.18 539.84,-231.62 498,-188 486.37,-175.88 486.2,-156 488.11,-141.42"/>
<polygon fill="midnightblue" stroke="midnightblue" points="491.57,-141.96 489.83,-131.51 484.67,-140.77 491.57,-141.96"/>
</g>
<!-- Node15&#45;&gt;Node6 -->
<g id="edge34" class="edge">
<title>Node15&#45;&gt;Node6</title>
<path fill="none" stroke="midnightblue" d="M804.49,-231.63C719.99,-227.42 463.45,-213.41 239.66,-187.98"/>
<polygon fill="midnightblue" stroke="midnightblue" points="240.03,-184.5 229.7,-186.84 239.23,-191.46 240.03,-184.5"/>
</g>
<!-- Node15&#45;&gt;Node7 -->
<g id="edge35" class="edge">
<title>Node15&#45;&gt;Node7</title>
<path fill="none" stroke="midnightblue" d="M804.15,-229.9C730.9,-222.04 535.33,-201.04 419.52,-188.61"/>
<polygon fill="midnightblue" stroke="midnightblue" points="419.58,-185.1 409.26,-187.51 418.83,-192.06 419.58,-185.1"/>
</g>
<!-- Node15&#45;&gt;Node9 -->
<g id="edge32" class="edge">
<title>Node15&#45;&gt;Node9</title>
<path fill="none" stroke="midnightblue" d="M861.54,-230.47C935.18,-223.91 1137.61,-205.6 1306,-188 1317.89,-186.76 1330.78,-185.32 1342.63,-183.97"/>
<polygon fill="midnightblue" stroke="midnightblue" points="1343.19,-187.43 1352.73,-182.81 1342.39,-180.48 1343.19,-187.43"/>
</g>
<!-- Node15&#45;&gt;Node11 -->
<g id="edge22" class="edge">
<title>Node15&#45;&gt;Node11</title>
<path fill="none" stroke="midnightblue" d="M804.28,-232.87C730.07,-231.97 534.27,-225.98 484,-188 451.7,-163.59 443.08,-113.15 440.8,-85.73"/>
<polygon fill="midnightblue" stroke="midnightblue" points="444.28,-85.3 440.16,-75.54 437.29,-85.74 444.28,-85.3"/>
</g>
<!-- Node16 -->
<g id="node16" class="node">
<title>Node16</title>
<g id="a_node16"><a xlink:title=" ">
<polygon fill="white" stroke="#bfbfbf" points="927.5,-168.5 927.5,-187.5 982.5,-187.5 982.5,-168.5 927.5,-168.5"/>
<text text-anchor="middle" x="955" y="-175.5" font-family="Helvetica,sans-Serif" font-size="10.00">fstream</text>
</a>
</g>
</g>
<!-- Node15&#45;&gt;Node16 -->
<g id="edge20" class="edge">
<title>Node15&#45;&gt;Node16</title>
<path fill="none" stroke="midnightblue" d="M852.33,-224.44C872.32,-215.6 903.74,-201.69 926.56,-191.59"/>
<polygon fill="midnightblue" stroke="midnightblue" points="928.03,-194.76 935.76,-187.52 925.2,-188.36 928.03,-194.76"/>
</g>
<!-- Node17 -->
<g id="node17" class="node">
<title>Node17</title>
<g id="a_node17"><a xlink:href="Edge_8h.html" target="_top" xlink:title=" ">
<polygon fill="white" stroke="black" points="534,-112.5 534,-131.5 584,-131.5 584,-112.5 534,-112.5"/>
<text text-anchor="middle" x="559" y="-119.5" font-family="Helvetica,sans-Serif" font-size="10.00">Edge.h</text>
</a>
</g>
</g>
<!-- Node15&#45;&gt;Node17 -->
<g id="edge23" class="edge">
<title>Node15&#45;&gt;Node17</title>
<path fill="none" stroke="midnightblue" d="M804.15,-230.24C749.61,-224.56 633.89,-210.23 601,-188 584.18,-176.63 572.58,-156.03 565.9,-141.06"/>
<polygon fill="midnightblue" stroke="midnightblue" points="569.12,-139.68 562.06,-131.78 562.65,-142.36 569.12,-139.68"/>
</g>
<!-- Node18 -->
<g id="node18" class="node">
<title>Node18</title>
<g id="a_node18"><a xlink:href="Face_8h.html" target="_top" xlink:title=" ">
<polygon fill="white" stroke="black" points="506.5,-168.5 506.5,-187.5 553.5,-187.5 553.5,-168.5 506.5,-168.5"/>
<text text-anchor="middle" x="530" y="-175.5" font-family="Helvetica,sans-Serif" font-size="10.00">Face.h</text>
</a>
</g>
</g>
<!-- Node15&#45;&gt;Node18 -->
<g id="edge25" class="edge">
<title>Node15&#45;&gt;Node18</title>
<path fill="none" stroke="midnightblue" d="M804.26,-228.74C755.5,-221.37 653.52,-205.37 568,-188 566.55,-187.7 565.06,-187.39 563.57,-187.07"/>
<polygon fill="midnightblue" stroke="midnightblue" points="564.19,-183.63 553.66,-184.85 562.66,-190.46 564.19,-183.63"/>
</g>
<!-- Node19 -->
<g id="node19" class="node">
<title>Node19</title>
<g id="a_node19"><a xlink:title=" ">
<polygon fill="white" stroke="#bfbfbf" points="1001,-168.5 1001,-187.5 1051,-187.5 1051,-168.5 1001,-168.5"/>
<text text-anchor="middle" x="1026" y="-175.5" font-family="Helvetica,sans-Serif" font-size="10.00">stdio.h</text>
</a>
</g>
</g>
<!-- Node15&#45;&gt;Node19 -->
<g id="edge29" class="edge">
<title>Node15&#45;&gt;Node19</title>
<path fill="none" stroke="midnightblue" d="M861.89,-224.92C896.4,-215.26 954.09,-199.12 991.06,-188.77"/>
<polygon fill="midnightblue" stroke="midnightblue" points="992.22,-192.09 1000.91,-186.02 990.34,-185.34 992.22,-192.09"/>
</g>
<!-- Node20 -->
<g id="node20" class="node">
<title>Node20</title>
<g id="a_node20"><a xlink:title=" ">
<polygon fill="white" stroke="#bfbfbf" points="1069.5,-168.5 1069.5,-187.5 1122.5,-187.5 1122.5,-168.5 1069.5,-168.5"/>
<text text-anchor="middle" x="1096" y="-175.5" font-family="Helvetica,sans-Serif" font-size="10.00">stdlib.h</text>
</a>
</g>
</g>
<!-- Node15&#45;&gt;Node20 -->
<g id="edge30" class="edge">
<title>Node15&#45;&gt;Node20</title>
<path fill="none" stroke="midnightblue" d="M861.76,-227.77C903.17,-220.13 982.21,-205.19 1059.41,-188.04"/>
<polygon fill="midnightblue" stroke="midnightblue" points="1060.3,-191.43 1069.3,-185.83 1058.78,-184.6 1060.3,-191.43"/>
</g>
<!-- Node21 -->
<g id="node21" class="node">
<title>Node21</title>
<g id="a_node21"><a xlink:title=" ">
<polygon fill="white" stroke="#bfbfbf" points="1141,-168.5 1141,-187.5 1197,-187.5 1197,-168.5 1141,-168.5"/>
<text text-anchor="middle" x="1169" y="-175.5" font-family="Helvetica,sans-Serif" font-size="10.00">sstream</text>
</a>
</g>
</g>
<!-- Node15&#45;&gt;Node21 -->
<g id="edge31" class="edge">
<title>Node15&#45;&gt;Node21</title>
<path fill="none" stroke="midnightblue" d="M861.59,-229.56C913.31,-223.15 1026.02,-208.34 1130.68,-188.11"/>
<polygon fill="midnightblue" stroke="midnightblue" points="1131.63,-191.49 1140.78,-186.14 1130.29,-184.62 1131.63,-191.49"/>
</g>
<!-- Node22 -->
<g id="node22" class="node">
<title>Node22</title>
<g id="a_node22"><a xlink:title=" ">
<polygon fill="white" stroke="#bfbfbf" points="826.5,-168.5 826.5,-187.5 909.5,-187.5 909.5,-168.5 826.5,-168.5"/>
<text text-anchor="middle" x="868" y="-175.5" font-family="Helvetica,sans-Serif" font-size="10.00">GLFW/glfw3.h</text>
</a>
</g>
</g>
<!-- Node15&#45;&gt;Node22 -->
<g id="edge33" class="edge">
<title>Node15&#45;&gt;Node22</title>
<path fill="none" stroke="midnightblue" d="M838.78,-224.08C843.67,-216.53 850.83,-205.49 856.83,-196.23"/>
<polygon fill="midnightblue" stroke="midnightblue" points="859.83,-198.05 862.33,-187.75 853.95,-194.24 859.83,-198.05"/>
</g>
<!-- Node23 -->
<g id="node23" class="node">
<title>Node23</title>
<g id="a_node23"><a xlink:title=" ">
<polygon fill="white" stroke="#bfbfbf" points="610,-168.5 610,-187.5 770,-187.5 770,-168.5 610,-168.5"/>
<text text-anchor="middle" x="690" y="-175.5" font-family="Helvetica,sans-Serif" font-size="10.00">glm/ext/scalar_constants.hpp</text>
</a>
</g>
</g>
<!-- Node15&#45;&gt;Node23 -->
<g id="edge36" class="edge">
<title>Node15&#45;&gt;Node23</title>
<path fill="none" stroke="midnightblue" d="M810.34,-224.44C786.6,-215.48 749.09,-201.31 722.26,-191.18"/>
<polygon fill="midnightblue" stroke="midnightblue" points="723.14,-187.77 712.55,-187.52 720.67,-194.32 723.14,-187.77"/>
</g>
<!-- Node17&#45;&gt;Node11 -->
<g id="edge24" class="edge">
<title>Node17&#45;&gt;Node11</title>
<path fill="none" stroke="midnightblue" d="M540.14,-112.44C520.73,-103.64 490.27,-89.81 468.04,-79.72"/>
<polygon fill="midnightblue" stroke="midnightblue" points="469.32,-76.46 458.77,-75.52 466.43,-82.84 469.32,-76.46"/>
</g>
<!-- Node18&#45;&gt;Node3 -->
<g id="edge27" class="edge">
<title>Node18&#45;&gt;Node3</title>
<path fill="none" stroke="midnightblue" d="M542.72,-168.26C555.56,-159.35 575.89,-145.03 593,-132 641.28,-95.21 696.29,-49.51 724.01,-26.21"/>
<polygon fill="midnightblue" stroke="midnightblue" points="726.31,-28.85 731.7,-19.73 721.8,-23.5 726.31,-28.85"/>
</g>
<!-- Node18&#45;&gt;Node4 -->
<g id="edge28" class="edge">
<title>Node18&#45;&gt;Node4</title>
<path fill="none" stroke="midnightblue" d="M523.73,-168.08C518.36,-160.46 510.48,-149.26 503.92,-139.94"/>
<polygon fill="midnightblue" stroke="midnightblue" points="506.78,-137.91 498.16,-131.75 501.05,-141.94 506.78,-137.91"/>
</g>
<!-- Node18&#45;&gt;Node17 -->
<g id="edge26" class="edge">
<title>Node18&#45;&gt;Node17</title>
<path fill="none" stroke="midnightblue" d="M534.79,-168.08C538.76,-160.69 544.53,-149.95 549.43,-140.81"/>
<polygon fill="midnightblue" stroke="midnightblue" points="552.65,-142.22 554.3,-131.75 546.49,-138.91 552.65,-142.22"/>
</g>
<!-- Node24&#45;&gt;Node15 -->
<g id="edge38" class="edge">
<title>Node24&#45;&gt;Node15</title>
<path fill="none" stroke="midnightblue" d="M916.09,-280.32C900.36,-271.74 876.06,-258.49 857.79,-248.52"/>
<polygon fill="midnightblue" stroke="midnightblue" points="859.32,-245.37 848.87,-243.65 855.97,-251.52 859.32,-245.37"/>
</g>
<!-- Node25&#45;&gt;Node3 -->
<g id="edge42" class="edge">
<title>Node25&#45;&gt;Node3</title>
<path fill="none" stroke="midnightblue" d="M1058.25,-224.97C1059.85,-224.63 1061.44,-224.3 1063,-224 1171.78,-202.76 1373.04,-256.25 1306,-168 1241.17,-82.66 900.42,-31.38 782.33,-15.96"/>
<polygon fill="midnightblue" stroke="midnightblue" points="782.63,-12.47 772.26,-14.66 781.73,-19.41 782.63,-12.47"/>
</g>
<!-- Node25&#45;&gt;Node4 -->
<g id="edge47" class="edge">
<title>Node25&#45;&gt;Node4</title>
<path fill="none" stroke="midnightblue" d="M1058.39,-225.98C1108.96,-214.87 1201.4,-193.89 1206,-188 1211.47,-180.99 1212.12,-174.45 1206,-168 1155.64,-114.9 637.1,-142.02 525.9,-131.38"/>
<polygon fill="midnightblue" stroke="midnightblue" points="526.02,-127.87 515.66,-130.1 525.15,-134.81 526.02,-127.87"/>
</g>
<!-- Node25&#45;&gt;Node9 -->
<g id="edge45" class="edge">
<title>Node25&#45;&gt;Node9</title>
<path fill="none" stroke="midnightblue" d="M1058.13,-226.46C1062.77,-225.59 1067.5,-224.74 1072,-224 1190.14,-204.5 1220.86,-207.5 1339,-188 1340.26,-187.79 1341.55,-187.57 1342.84,-187.35"/>
<polygon fill="midnightblue" stroke="midnightblue" points="1343.66,-190.76 1352.87,-185.54 1342.41,-183.87 1343.66,-190.76"/>
</g>
<!-- Node25&#45;&gt;Node16 -->
<g id="edge43" class="edge">
<title>Node25&#45;&gt;Node16</title>
<path fill="none" stroke="midnightblue" d="M1014.59,-224.32C1003.89,-216.18 987.66,-203.84 974.84,-194.09"/>
<polygon fill="midnightblue" stroke="midnightblue" points="976.69,-191.1 966.61,-187.83 972.46,-196.67 976.69,-191.1"/>
</g>
<!-- Node25&#45;&gt;Node19 -->
<g id="edge40" class="edge">
<title>Node25&#45;&gt;Node19</title>
<path fill="none" stroke="midnightblue" d="M1026,-224.08C1026,-217.01 1026,-206.86 1026,-197.99"/>
<polygon fill="midnightblue" stroke="midnightblue" points="1029.5,-197.75 1026,-187.75 1022.5,-197.75 1029.5,-197.75"/>
</g>
<!-- Node25&#45;&gt;Node20 -->
<g id="edge41" class="edge">
<title>Node25&#45;&gt;Node20</title>
<path fill="none" stroke="midnightblue" d="M1037.25,-224.32C1047.8,-216.18 1063.8,-203.84 1076.44,-194.09"/>
<polygon fill="midnightblue" stroke="midnightblue" points="1078.77,-196.71 1084.55,-187.83 1074.49,-191.17 1078.77,-196.71"/>
</g>
<!-- Node25&#45;&gt;Node21 -->
<g id="edge44" class="edge">
<title>Node25&#45;&gt;Node21</title>
<path fill="none" stroke="midnightblue" d="M1048.66,-224.44C1072.4,-215.48 1109.91,-201.31 1136.74,-191.18"/>
<polygon fill="midnightblue" stroke="midnightblue" points="1138.33,-194.32 1146.45,-187.52 1135.86,-187.77 1138.33,-194.32"/>
</g>
<!-- Node25&#45;&gt;Node22 -->
<g id="edge46" class="edge">
<title>Node25&#45;&gt;Node22</title>
<path fill="none" stroke="midnightblue" d="M1000.96,-224.44C974.38,-215.36 932.19,-200.94 902.48,-190.78"/>
<polygon fill="midnightblue" stroke="midnightblue" points="903.51,-187.44 892.92,-187.52 901.25,-194.06 903.51,-187.44"/>
</g>
<!-- Node26 -->
<g id="node26" class="node">
<title>Node26</title>
<g id="a_node26"><a xlink:title=" ">
<polygon fill="white" stroke="#bfbfbf" points="1253,-168.5 1253,-187.5 1297,-187.5 1297,-168.5 1253,-168.5"/>
<text text-anchor="middle" x="1275" y="-175.5" font-family="Helvetica,sans-Serif" font-size="10.00">string</text>
</a>
</g>
</g>
<!-- Node25&#45;&gt;Node26 -->
<g id="edge48" class="edge">
<title>Node25&#45;&gt;Node26</title>
<path fill="none" stroke="midnightblue" d="M1058.2,-226.58C1099.98,-218.16 1175.1,-202.73 1239,-188 1240.27,-187.71 1241.57,-187.4 1242.87,-187.09"/>
<polygon fill="midnightblue" stroke="midnightblue" points="1244.05,-190.41 1252.95,-184.65 1242.4,-183.61 1244.05,-190.41"/>
</g>
<!-- Node27&#45;&gt;Node5 -->
<g id="edge50" class="edge">
<title>Node27&#45;&gt;Node5</title>
<path fill="none" stroke="midnightblue" d="M537.17,-336.44C509.75,-327.36 466.22,-312.94 435.57,-302.78"/>
<polygon fill="midnightblue" stroke="midnightblue" points="436.3,-299.34 425.71,-299.52 434.1,-305.98 436.3,-299.34"/>
</g>
<!-- Node27&#45;&gt;Node6 -->
<g id="edge51" class="edge">
<title>Node27&#45;&gt;Node6</title>
<path fill="none" stroke="midnightblue" d="M547.79,-336.49C531.83,-327.53 506.05,-312.96 484,-300 469.21,-291.31 466.43,-287.48 451,-280 370.83,-241.13 271.59,-207.48 218.57,-190.58"/>
<polygon fill="midnightblue" stroke="midnightblue" points="219.51,-187.21 208.92,-187.53 217.4,-193.88 219.51,-187.21"/>
</g>
<!-- Node27&#45;&gt;Node7 -->
<g id="edge52" class="edge">
<title>Node27&#45;&gt;Node7</title>
<path fill="none" stroke="midnightblue" d="M553.05,-336.23C538.34,-323.39 509.75,-298.95 484,-280 438.96,-246.85 383.58,-211.85 353.01,-193"/>
<polygon fill="midnightblue" stroke="midnightblue" points="354.71,-189.94 344.36,-187.69 351.05,-195.91 354.71,-189.94"/>
</g>
<!-- Node27&#45;&gt;Node8 -->
<g id="edge53" class="edge">
<title>Node27&#45;&gt;Node8</title>
<path fill="none" stroke="midnightblue" d="M590.52,-338.59C629.44,-329.54 701.06,-312.87 748.36,-301.86"/>
<polygon fill="midnightblue" stroke="midnightblue" points="749.41,-305.2 758.36,-299.53 747.83,-298.39 749.41,-305.2"/>
</g>
<!-- Node27&#45;&gt;Node9 -->
<g id="edge54" class="edge">
<title>Node27&#45;&gt;Node9</title>
<path fill="none" stroke="midnightblue" d="M590.71,-338.11C620.48,-330.32 668.92,-316.56 709,-300 726.64,-292.71 728.76,-285.61 747,-280 883.8,-237.94 925.64,-266.35 1067,-244 1166.44,-228.28 1281.97,-202.84 1342.7,-188.91"/>
<polygon fill="midnightblue" stroke="midnightblue" points="1343.71,-192.26 1352.67,-186.61 1342.14,-185.44 1343.71,-192.26"/>
</g>
<!-- Node28 -->
<g id="node28" class="node">
<title>Node28</title>
<g id="a_node28"><a xlink:title=" ">
<polygon fill="white" stroke="#bfbfbf" points="536.5,-280.5 536.5,-299.5 699.5,-299.5 699.5,-280.5 536.5,-280.5"/>
<text text-anchor="middle" x="618" y="-287.5" font-family="Helvetica,sans-Serif" font-size="10.00">glm/gtc/matrix_transform.hpp</text>
</a>
</g>
</g>
<!-- Node27&#45;&gt;Node28 -->
<g id="edge55" class="edge">
<title>Node27&#45;&gt;Node28</title>
<path fill="none" stroke="midnightblue" d="M572.08,-336.08C580.17,-328.14 592.2,-316.34 601.91,-306.8"/>
<polygon fill="midnightblue" stroke="midnightblue" points="604.4,-309.25 609.09,-299.75 599.5,-304.26 604.4,-309.25"/>
</g>
</g>
</svg>
