<?xml version="1.0" encoding="UTF-8" standalone="no"?>
<!DOCTYPE svg PUBLIC "-//W3C//DTD SVG 1.1//EN"
 "http://www.w3.org/Graphics/SVG/1.1/DTD/svg11.dtd">
<!-- Generated by graphviz version 2.43.0 (0)
 -->
<!-- Title: src/Robot.cpp Pages: 1 -->
<svg width="1272pt" height="476pt"
 viewBox="0.00 0.00 1272.00 476.00" xmlns="http://www.w3.org/2000/svg" xmlns:xlink="http://www.w3.org/1999/xlink">
<g id="graph0" class="graph" transform="scale(1 1) rotate(0) translate(4 472)">
<title>src/Robot.cpp</title>
<polygon fill="white" stroke="transparent" points="-4,4 -4,-472 1268,-472 1268,4 -4,4"/>
<!-- Node1 -->
<g id="node1" class="node">
<title>Node1</title>
<g id="a_node1"><a xlink:title=" ">
<polygon fill="#bfbfbf" stroke="black" points="516.5,-448.5 516.5,-467.5 599.5,-467.5 599.5,-448.5 516.5,-448.5"/>
<text text-anchor="middle" x="558" y="-455.5" font-family="Helvetica,sans-Serif" font-size="10.00">src/Robot.cpp</text>
</a>
</g>
</g>
<!-- Node2 -->
<g id="node2" class="node">
<title>Node2</title>
<g id="a_node2"><a xlink:href="Robot_8h.html" target="_top" xlink:title=" ">
<polygon fill="white" stroke="black" points="507.5,-392.5 507.5,-411.5 608.5,-411.5 608.5,-392.5 507.5,-392.5"/>
<text text-anchor="middle" x="558" y="-399.5" font-family="Helvetica,sans-Serif" font-size="10.00">../include/Robot.h</text>
</a>
</g>
</g>
<!-- Node1&#45;&gt;Node2 -->
<g id="edge1" class="edge">
<title>Node1&#45;&gt;Node2</title>
<path fill="none" stroke="midnightblue" d="M558,-448.08C558,-441.01 558,-430.86 558,-421.99"/>
<polygon fill="midnightblue" stroke="midnightblue" points="561.5,-421.75 558,-411.75 554.5,-421.75 561.5,-421.75"/>
</g>
<!-- Node3 -->
<g id="node3" class="node">
<title>Node3</title>
<g id="a_node3"><a xlink:title=" ">
<polygon fill="white" stroke="#bfbfbf" points="459,-0.5 459,-19.5 519,-19.5 519,-0.5 459,-0.5"/>
<text text-anchor="middle" x="489" y="-7.5" font-family="Helvetica,sans-Serif" font-size="10.00">iostream</text>
</a>
</g>
</g>
<!-- Node2&#45;&gt;Node3 -->
<g id="edge2" class="edge">
<title>Node2&#45;&gt;Node3</title>
<path fill="none" stroke="midnightblue" d="M608.77,-398.45C770.65,-389.64 1264,-357.37 1264,-291 1264,-291 1264,-291 1264,-121 1264,-46.11 689.38,-18.63 529.72,-12.44"/>
<polygon fill="midnightblue" stroke="midnightblue" points="529.51,-8.93 519.38,-12.05 529.24,-15.93 529.51,-8.93"/>
</g>
<!-- Node4 -->
<g id="node4" class="node">
<title>Node4</title>
<g id="a_node4"><a xlink:title=" ">
<polygon fill="white" stroke="#bfbfbf" points="279.5,-112.5 279.5,-131.5 326.5,-131.5 326.5,-112.5 279.5,-112.5"/>
<text text-anchor="middle" x="303" y="-119.5" font-family="Helvetica,sans-Serif" font-size="10.00">vector</text>
</a>
</g>
</g>
<!-- Node2&#45;&gt;Node4 -->
<g id="edge3" class="edge">
<title>Node2&#45;&gt;Node4</title>
<path fill="none" stroke="midnightblue" d="M507.24,-399.37C388.77,-394.2 104,-373.22 104,-291 104,-291 104,-291 104,-233 104,-202.9 101.3,-188.86 123,-168 143.74,-148.07 223.14,-134.04 269.27,-127.39"/>
<polygon fill="midnightblue" stroke="midnightblue" points="269.98,-130.82 279.4,-125.97 269.01,-123.89 269.98,-130.82"/>
</g>
<!-- Node5 -->
<g id="node5" class="node">
<title>Node5</title>
<g id="a_node5"><a xlink:title=" ">
<polygon fill="white" stroke="#bfbfbf" points="209.5,-280.5 209.5,-299.5 292.5,-299.5 292.5,-280.5 209.5,-280.5"/>
<text text-anchor="middle" x="251" y="-287.5" font-family="Helvetica,sans-Serif" font-size="10.00">glm/vec4.hpp</text>
</a>
</g>
</g>
<!-- Node2&#45;&gt;Node5 -->
<g id="edge4" class="edge">
<title>Node2&#45;&gt;Node5</title>
<path fill="none" stroke="midnightblue" d="M534.17,-392.46C479.98,-373.05 347.43,-325.55 284.81,-303.12"/>
<polygon fill="midnightblue" stroke="midnightblue" points="285.63,-299.69 275.03,-299.61 283.26,-306.28 285.63,-299.69"/>
</g>
<!-- Node6 -->
<g id="node6" class="node">
<title>Node6</title>
<g id="a_node6"><a xlink:title=" ">
<polygon fill="white" stroke="#bfbfbf" points="132.5,-168.5 132.5,-187.5 229.5,-187.5 229.5,-168.5 132.5,-168.5"/>
<text text-anchor="middle" x="181" y="-175.5" font-family="Helvetica,sans-Serif" font-size="10.00">glm/mat4x4.hpp</text>
</a>
</g>
</g>
<!-- Node2&#45;&gt;Node6 -->
<g id="edge5" class="edge">
<title>Node2&#45;&gt;Node6</title>
<path fill="none" stroke="midnightblue" d="M507.18,-393.68C418.21,-379.78 239.89,-346.72 200,-300 175.34,-271.12 175.84,-223.66 178.4,-197.59"/>
<polygon fill="midnightblue" stroke="midnightblue" points="181.88,-197.89 179.59,-187.55 174.93,-197.06 181.88,-197.89"/>
</g>
<!-- Node7 -->
<g id="node7" class="node">
<title>Node7</title>
<g id="a_node7"><a xlink:title=" ">
<polygon fill="white" stroke="#bfbfbf" points="311,-280.5 311,-299.5 475,-299.5 475,-280.5 311,-280.5"/>
<text text-anchor="middle" x="393" y="-287.5" font-family="Helvetica,sans-Serif" font-size="10.00">glm/ext/matrix_transform.hpp</text>
</a>
</g>
</g>
<!-- Node2&#45;&gt;Node7 -->
<g id="edge6" class="edge">
<title>Node2&#45;&gt;Node7</title>
<path fill="none" stroke="midnightblue" d="M545.05,-392.37C516.74,-373.49 449.08,-328.38 414.36,-305.24"/>
<polygon fill="midnightblue" stroke="midnightblue" points="416.15,-302.23 405.89,-299.59 412.27,-308.05 416.15,-302.23"/>
</g>
<!-- Node8 -->
<g id="node8" class="node">
<title>Node8</title>
<g id="a_node8"><a xlink:title=" ">
<polygon fill="white" stroke="#bfbfbf" points="751,-280.5 751,-299.5 829,-299.5 829,-280.5 751,-280.5"/>
<text text-anchor="middle" x="790" y="-287.5" font-family="Helvetica,sans-Serif" font-size="10.00">glm/glm.hpp</text>
</a>
</g>
</g>
<!-- Node2&#45;&gt;Node8 -->
<g id="edge7" class="edge">
<title>Node2&#45;&gt;Node8</title>
<path fill="none" stroke="midnightblue" d="M576.2,-392.37C616.78,-373.13 714.82,-326.65 762.73,-303.93"/>
<polygon fill="midnightblue" stroke="midnightblue" points="764.34,-307.04 771.88,-299.59 761.34,-300.71 764.34,-307.04"/>
</g>
<!-- Node9 -->
<g id="node9" class="node">
<title>Node9</title>
<g id="a_node9"><a xlink:title=" ">
<polygon fill="white" stroke="#bfbfbf" points="1172,-168.5 1172,-187.5 1236,-187.5 1236,-168.5 1172,-168.5"/>
<text text-anchor="middle" x="1204" y="-175.5" font-family="Helvetica,sans-Serif" font-size="10.00">GL/glew.h</text>
</a>
</g>
</g>
<!-- Node2&#45;&gt;Node9 -->
<g id="edge8" class="edge">
<title>Node2&#45;&gt;Node9</title>
<path fill="none" stroke="midnightblue" d="M608.53,-397.86C697.01,-391.87 876.18,-377.5 935,-356 1040.88,-317.3 1146.87,-229.74 1187.1,-194.31"/>
<polygon fill="midnightblue" stroke="midnightblue" points="1189.52,-196.84 1194.66,-187.58 1184.86,-191.61 1189.52,-196.84"/>
</g>
<!-- Node10 -->
<g id="node10" class="node">
<title>Node10</title>
<g id="a_node10"><a xlink:href="Animation_8h.html" target="_top" xlink:title=" ">
<polygon fill="white" stroke="black" points="0,-168.5 0,-187.5 76,-187.5 76,-168.5 0,-168.5"/>
<text text-anchor="middle" x="38" y="-175.5" font-family="Helvetica,sans-Serif" font-size="10.00">Animation.h</text>
</a>
</g>
</g>
<!-- Node2&#45;&gt;Node10 -->
<g id="edge9" class="edge">
<title>Node2&#45;&gt;Node10</title>
<path fill="none" stroke="midnightblue" d="M507.28,-399.29C392.77,-395 121.66,-382.16 90,-356 42.1,-316.43 36.93,-235.18 37.24,-198.15"/>
<polygon fill="midnightblue" stroke="midnightblue" points="40.75,-197.87 37.49,-187.79 33.75,-197.71 40.75,-197.87"/>
</g>
<!-- Node13 -->
<g id="node13" class="node">
<title>Node13</title>
<g id="a_node13"><a xlink:href="Model_8h.html" target="_top" xlink:title=" ">
<polygon fill="white" stroke="black" points="840,-336.5 840,-355.5 896,-355.5 896,-336.5 840,-336.5"/>
<text text-anchor="middle" x="868" y="-343.5" font-family="Helvetica,sans-Serif" font-size="10.00">Model.h</text>
</a>
</g>
</g>
<!-- Node2&#45;&gt;Node13 -->
<g id="edge16" class="edge">
<title>Node2&#45;&gt;Node13</title>
<path fill="none" stroke="midnightblue" d="M607.12,-392.44C669,-381.66 774,-363.37 830.06,-353.61"/>
<polygon fill="midnightblue" stroke="midnightblue" points="830.69,-357.05 839.94,-351.89 829.49,-350.16 830.69,-357.05"/>
</g>
<!-- Node25 -->
<g id="node25" class="node">
<title>Node25</title>
<g id="a_node25"><a xlink:href="OpenGL_8h.html" target="_top" xlink:title=" ">
<polygon fill="white" stroke="black" points="854,-224.5 854,-243.5 918,-243.5 918,-224.5 854,-224.5"/>
<text text-anchor="middle" x="886" y="-231.5" font-family="Helvetica,sans-Serif" font-size="10.00">OpenGL.h</text>
</a>
</g>
</g>
<!-- Node2&#45;&gt;Node25 -->
<g id="edge38" class="edge">
<title>Node2&#45;&gt;Node25</title>
<path fill="none" stroke="midnightblue" d="M608.72,-398.7C692.26,-394.2 854.57,-382.29 905,-356 941.07,-337.2 975.49,-315.7 956,-280 948.18,-265.68 933.64,-255.24 919.82,-248.04"/>
<polygon fill="midnightblue" stroke="midnightblue" points="921,-244.72 910.47,-243.56 917.98,-251.03 921,-244.72"/>
</g>
<!-- Node27 -->
<g id="node27" class="node">
<title>Node27</title>
<g id="a_node27"><a xlink:href="Scene_8h.html" target="_top" xlink:title=" ">
<polygon fill="white" stroke="black" points="530.5,-336.5 530.5,-355.5 585.5,-355.5 585.5,-336.5 530.5,-336.5"/>
<text text-anchor="middle" x="558" y="-343.5" font-family="Helvetica,sans-Serif" font-size="10.00">Scene.h</text>
</a>
</g>
</g>
<!-- Node2&#45;&gt;Node27 -->
<g id="edge48" class="edge">
<title>Node2&#45;&gt;Node27</title>
<path fill="none" stroke="midnightblue" d="M558,-392.08C558,-385.01 558,-374.86 558,-365.99"/>
<polygon fill="midnightblue" stroke="midnightblue" points="561.5,-365.75 558,-355.75 554.5,-365.75 561.5,-365.75"/>
</g>
<!-- Node10&#45;&gt;Node3 -->
<g id="edge10" class="edge">
<title>Node10&#45;&gt;Node3</title>
<path fill="none" stroke="midnightblue" d="M48.97,-168.45C81.41,-143.32 176.86,-70.57 213,-56 292.52,-23.93 393.69,-14.69 448.78,-12.05"/>
<polygon fill="midnightblue" stroke="midnightblue" points="449,-15.54 458.84,-11.61 448.7,-8.55 449,-15.54"/>
</g>
<!-- Node10&#45;&gt;Node4 -->
<g id="edge11" class="edge">
<title>Node10&#45;&gt;Node4</title>
<path fill="none" stroke="midnightblue" d="M76.25,-169.21C128.17,-158.63 220.12,-139.89 269.47,-129.83"/>
<polygon fill="midnightblue" stroke="midnightblue" points="270.23,-133.25 279.33,-127.82 268.83,-126.39 270.23,-133.25"/>
</g>
<!-- Node11 -->
<g id="node11" class="node">
<title>Node11</title>
<g id="a_node11"><a xlink:href="Vertex_8h.html" target="_top" xlink:title=" ">
<polygon fill="white" stroke="black" points="222.5,-56.5 222.5,-75.5 279.5,-75.5 279.5,-56.5 222.5,-56.5"/>
<text text-anchor="middle" x="251" y="-63.5" font-family="Helvetica,sans-Serif" font-size="10.00">Vertex.h</text>
</a>
</g>
</g>
<!-- Node10&#45;&gt;Node11 -->
<g id="edge12" class="edge">
<title>Node10&#45;&gt;Node11</title>
<path fill="none" stroke="midnightblue" d="M65.24,-168.49C89.46,-160.47 125.48,-147.41 155,-132 183.19,-117.28 213.14,-95.98 231.95,-81.82"/>
<polygon fill="midnightblue" stroke="midnightblue" points="234.17,-84.53 240,-75.68 229.92,-78.96 234.17,-84.53"/>
</g>
<!-- Node12 -->
<g id="node12" class="node">
<title>Node12</title>
<g id="a_node12"><a xlink:title=" ">
<polygon fill="white" stroke="#bfbfbf" points="122.5,-0.5 122.5,-19.5 185.5,-19.5 185.5,-0.5 122.5,-0.5"/>
<text text-anchor="middle" x="154" y="-7.5" font-family="Helvetica,sans-Serif" font-size="10.00">armadillo</text>
</a>
</g>
</g>
<!-- Node10&#45;&gt;Node12 -->
<g id="edge15" class="edge">
<title>Node10&#45;&gt;Node12</title>
<path fill="none" stroke="midnightblue" d="M44.24,-168.08C62.73,-141.61 117.52,-63.21 141.97,-28.21"/>
<polygon fill="midnightblue" stroke="midnightblue" points="145.15,-29.77 148.01,-19.57 139.42,-25.76 145.15,-29.77"/>
</g>
<!-- Node11&#45;&gt;Node3 -->
<g id="edge13" class="edge">
<title>Node11&#45;&gt;Node3</title>
<path fill="none" stroke="midnightblue" d="M279.71,-58.49C321.87,-48.92 400.7,-31.04 448.66,-20.15"/>
<polygon fill="midnightblue" stroke="midnightblue" points="449.71,-23.5 458.69,-17.88 448.16,-16.68 449.71,-23.5"/>
</g>
<!-- Node11&#45;&gt;Node12 -->
<g id="edge14" class="edge">
<title>Node11&#45;&gt;Node12</title>
<path fill="none" stroke="midnightblue" d="M235.42,-56.32C220,-47.74 196.19,-34.49 178.29,-24.52"/>
<polygon fill="midnightblue" stroke="midnightblue" points="179.99,-21.46 169.55,-19.65 176.58,-27.58 179.99,-21.46"/>
</g>
<!-- Node14 -->
<g id="node14" class="node">
<title>Node14</title>
<g id="a_node14"><a xlink:href="Obj_8h.html" target="_top" xlink:title=" ">
<polygon fill="white" stroke="black" points="847,-280.5 847,-299.5 889,-299.5 889,-280.5 847,-280.5"/>
<text text-anchor="middle" x="868" y="-287.5" font-family="Helvetica,sans-Serif" font-size="10.00">Obj.h</text>
</a>
</g>
</g>
<!-- Node13&#45;&gt;Node14 -->
<g id="edge17" class="edge">
<title>Node13&#45;&gt;Node14</title>
<path fill="none" stroke="midnightblue" d="M868,-336.08C868,-329.01 868,-318.86 868,-309.99"/>
<polygon fill="midnightblue" stroke="midnightblue" points="871.5,-309.75 868,-299.75 864.5,-309.75 871.5,-309.75"/>
</g>
<!-- Node24 -->
<g id="node24" class="node">
<title>Node24</title>
<g id="a_node24"><a xlink:href="Ply_8h.html" target="_top" xlink:title=" ">
<polygon fill="white" stroke="black" points="907.5,-280.5 907.5,-299.5 946.5,-299.5 946.5,-280.5 907.5,-280.5"/>
<text text-anchor="middle" x="927" y="-287.5" font-family="Helvetica,sans-Serif" font-size="10.00">Ply.h</text>
</a>
</g>
</g>
<!-- Node13&#45;&gt;Node24 -->
<g id="edge36" class="edge">
<title>Node13&#45;&gt;Node24</title>
<path fill="none" stroke="midnightblue" d="M877.48,-336.32C886.2,-328.34 899.34,-316.31 909.9,-306.65"/>
<polygon fill="midnightblue" stroke="midnightblue" points="912.33,-309.17 917.35,-299.83 907.61,-304 912.33,-309.17"/>
</g>
<!-- Node15 -->
<g id="node15" class="node">
<title>Node15</title>
<g id="a_node15"><a xlink:href="Object_8h.html" target="_top" xlink:title=" ">
<polygon fill="white" stroke="black" points="643.5,-224.5 643.5,-243.5 700.5,-243.5 700.5,-224.5 643.5,-224.5"/>
<text text-anchor="middle" x="672" y="-231.5" font-family="Helvetica,sans-Serif" font-size="10.00">Object.h</text>
</a>
</g>
</g>
<!-- Node14&#45;&gt;Node15 -->
<g id="edge18" class="edge">
<title>Node14&#45;&gt;Node15</title>
<path fill="none" stroke="midnightblue" d="M846.72,-282.54C843.79,-281.67 840.82,-280.81 838,-280 794.42,-267.56 744.15,-254.05 710.46,-245.11"/>
<polygon fill="midnightblue" stroke="midnightblue" points="711.12,-241.67 700.56,-242.49 709.33,-248.43 711.12,-241.67"/>
</g>
<!-- Node15&#45;&gt;Node3 -->
<g id="edge19" class="edge">
<title>Node15&#45;&gt;Node3</title>
<path fill="none" stroke="midnightblue" d="M664.83,-224.3C637.44,-191.08 539.22,-71.92 502.75,-27.68"/>
<polygon fill="midnightblue" stroke="midnightblue" points="505.38,-25.37 496.32,-19.88 499.98,-29.83 505.38,-25.37"/>
</g>
<!-- Node15&#45;&gt;Node4 -->
<g id="edge21" class="edge">
<title>Node15&#45;&gt;Node4</title>
<path fill="none" stroke="midnightblue" d="M643.39,-231.29C563.09,-226.21 339.88,-210.23 316,-188 303.51,-176.38 301.13,-156.43 301.33,-141.68"/>
<polygon fill="midnightblue" stroke="midnightblue" points="304.83,-141.82 301.87,-131.65 297.84,-141.45 304.83,-141.82"/>
</g>
<!-- Node15&#45;&gt;Node6 -->
<g id="edge34" class="edge">
<title>Node15&#45;&gt;Node6</title>
<path fill="none" stroke="midnightblue" d="M643.41,-230.36C574.56,-223.94 394.15,-206.61 244,-188 242.7,-187.84 241.39,-187.67 240.07,-187.51"/>
<polygon fill="midnightblue" stroke="midnightblue" points="240.19,-183.99 229.82,-186.16 239.27,-190.93 240.19,-183.99"/>
</g>
<!-- Node15&#45;&gt;Node9 -->
<g id="edge32" class="edge">
<title>Node15&#45;&gt;Node9</title>
<path fill="none" stroke="midnightblue" d="M700.66,-231.63C775.11,-227.79 980.91,-215.49 1161.88,-187.99"/>
<polygon fill="midnightblue" stroke="midnightblue" points="1162.49,-191.44 1171.84,-186.46 1161.43,-184.52 1162.49,-191.44"/>
</g>
<!-- Node15&#45;&gt;Node11 -->
<g id="edge22" class="edge">
<title>Node15&#45;&gt;Node11</title>
<path fill="none" stroke="midnightblue" d="M643.25,-232.91C565.92,-232.16 355.52,-226.53 300,-188 266.12,-164.49 255.65,-113.28 252.42,-85.62"/>
<polygon fill="midnightblue" stroke="midnightblue" points="255.91,-85.28 251.46,-75.66 248.94,-85.95 255.91,-85.28"/>
</g>
<!-- Node16 -->
<g id="node16" class="node">
<title>Node16</title>
<g id="a_node16"><a xlink:title=" ">
<polygon fill="white" stroke="#bfbfbf" points="644.5,-168.5 644.5,-187.5 699.5,-187.5 699.5,-168.5 644.5,-168.5"/>
<text text-anchor="middle" x="672" y="-175.5" font-family="Helvetica,sans-Serif" font-size="10.00">fstream</text>
</a>
</g>
</g>
<!-- Node15&#45;&gt;Node16 -->
<g id="edge20" class="edge">
<title>Node15&#45;&gt;Node16</title>
<path fill="none" stroke="midnightblue" d="M672,-224.08C672,-217.01 672,-206.86 672,-197.99"/>
<polygon fill="midnightblue" stroke="midnightblue" points="675.5,-197.75 672,-187.75 668.5,-197.75 675.5,-197.75"/>
</g>
<!-- Node17 -->
<g id="node17" class="node">
<title>Node17</title>
<g id="a_node17"><a xlink:href="Edge_8h.html" target="_top" xlink:title=" ">
<polygon fill="white" stroke="black" points="383,-112.5 383,-131.5 433,-131.5 433,-112.5 383,-112.5"/>
<text text-anchor="middle" x="408" y="-119.5" font-family="Helvetica,sans-Serif" font-size="10.00">Edge.h</text>
</a>
</g>
</g>
<!-- Node15&#45;&gt;Node17 -->
<g id="edge23" class="edge">
<title>Node15&#45;&gt;Node17</title>
<path fill="none" stroke="midnightblue" d="M643.26,-231.92C583.76,-229.08 450.02,-219.28 419,-188 407.17,-176.07 405.29,-156.46 405.84,-141.89"/>
<polygon fill="midnightblue" stroke="midnightblue" points="409.36,-141.78 406.66,-131.53 402.38,-141.23 409.36,-141.78"/>
</g>
<!-- Node18 -->
<g id="node18" class="node">
<title>Node18</title>
<g id="a_node18"><a xlink:href="Face_8h.html" target="_top" xlink:title=" ">
<polygon fill="white" stroke="black" points="324.5,-168.5 324.5,-187.5 371.5,-187.5 371.5,-168.5 324.5,-168.5"/>
<text text-anchor="middle" x="348" y="-175.5" font-family="Helvetica,sans-Serif" font-size="10.00">Face.h</text>
</a>
</g>
</g>
<!-- Node15&#45;&gt;Node18 -->
<g id="edge25" class="edge">
<title>Node15&#45;&gt;Node18</title>
<path fill="none" stroke="midnightblue" d="M643.46,-229.25C591.86,-222.3 479.7,-206.44 386,-188 384.54,-187.71 383.06,-187.41 381.56,-187.1"/>
<polygon fill="midnightblue" stroke="midnightblue" points="382.18,-183.65 371.66,-184.9 380.66,-190.48 382.18,-183.65"/>
</g>
<!-- Node19 -->
<g id="node19" class="node">
<title>Node19</title>
<g id="a_node19"><a xlink:title=" ">
<polygon fill="white" stroke="#bfbfbf" points="718,-168.5 718,-187.5 768,-187.5 768,-168.5 718,-168.5"/>
<text text-anchor="middle" x="743" y="-175.5" font-family="Helvetica,sans-Serif" font-size="10.00">stdio.h</text>
</a>
</g>
</g>
<!-- Node15&#45;&gt;Node19 -->
<g id="edge29" class="edge">
<title>Node15&#45;&gt;Node19</title>
<path fill="none" stroke="midnightblue" d="M683.41,-224.32C694.11,-216.18 710.34,-203.84 723.16,-194.09"/>
<polygon fill="midnightblue" stroke="midnightblue" points="725.54,-196.67 731.39,-187.83 721.31,-191.1 725.54,-196.67"/>
</g>
<!-- Node20 -->
<g id="node20" class="node">
<title>Node20</title>
<g id="a_node20"><a xlink:title=" ">
<polygon fill="white" stroke="#bfbfbf" points="786.5,-168.5 786.5,-187.5 839.5,-187.5 839.5,-168.5 786.5,-168.5"/>
<text text-anchor="middle" x="813" y="-175.5" font-family="Helvetica,sans-Serif" font-size="10.00">stdlib.h</text>
</a>
</g>
</g>
<!-- Node15&#45;&gt;Node20 -->
<g id="edge30" class="edge">
<title>Node15&#45;&gt;Node20</title>
<path fill="none" stroke="midnightblue" d="M694.34,-224.44C717.75,-215.48 754.74,-201.31 781.19,-191.18"/>
<polygon fill="midnightblue" stroke="midnightblue" points="782.68,-194.36 790.76,-187.52 780.17,-187.82 782.68,-194.36"/>
</g>
<!-- Node21 -->
<g id="node21" class="node">
<title>Node21</title>
<g id="a_node21"><a xlink:title=" ">
<polygon fill="white" stroke="#bfbfbf" points="858,-168.5 858,-187.5 914,-187.5 914,-168.5 858,-168.5"/>
<text text-anchor="middle" x="886" y="-175.5" font-family="Helvetica,sans-Serif" font-size="10.00">sstream</text>
</a>
</g>
</g>
<!-- Node15&#45;&gt;Node21 -->
<g id="edge31" class="edge">
<title>Node15&#45;&gt;Node21</title>
<path fill="none" stroke="midnightblue" d="M700.86,-225.72C738.91,-216.12 805.94,-199.2 848.06,-188.57"/>
<polygon fill="midnightblue" stroke="midnightblue" points="849.1,-191.92 857.94,-186.08 847.38,-185.13 849.1,-191.92"/>
</g>
<!-- Node22 -->
<g id="node22" class="node">
<title>Node22</title>
<g id="a_node22"><a xlink:title=" ">
<polygon fill="white" stroke="#bfbfbf" points="932.5,-168.5 932.5,-187.5 1015.5,-187.5 1015.5,-168.5 932.5,-168.5"/>
<text text-anchor="middle" x="974" y="-175.5" font-family="Helvetica,sans-Serif" font-size="10.00">GLFW/glfw3.h</text>
</a>
</g>
</g>
<!-- Node15&#45;&gt;Node22 -->
<g id="edge33" class="edge">
<title>Node15&#45;&gt;Node22</title>
<path fill="none" stroke="midnightblue" d="M700.68,-227.87C751.63,-218.76 858.53,-199.65 922.5,-188.21"/>
<polygon fill="midnightblue" stroke="midnightblue" points="923.15,-191.65 932.38,-186.44 921.92,-184.76 923.15,-191.65"/>
</g>
<!-- Node23 -->
<g id="node23" class="node">
<title>Node23</title>
<g id="a_node23"><a xlink:title=" ">
<polygon fill="white" stroke="#bfbfbf" points="428,-168.5 428,-187.5 588,-187.5 588,-168.5 428,-168.5"/>
<text text-anchor="middle" x="508" y="-175.5" font-family="Helvetica,sans-Serif" font-size="10.00">glm/ext/scalar_constants.hpp</text>
</a>
</g>
</g>
<!-- Node15&#45;&gt;Node23 -->
<g id="edge35" class="edge">
<title>Node15&#45;&gt;Node23</title>
<path fill="none" stroke="midnightblue" d="M646.01,-224.44C618.3,-215.32 574.25,-200.81 543.38,-190.65"/>
<polygon fill="midnightblue" stroke="midnightblue" points="544.46,-187.32 533.86,-187.52 542.27,-193.97 544.46,-187.32"/>
</g>
<!-- Node17&#45;&gt;Node11 -->
<g id="edge24" class="edge">
<title>Node17&#45;&gt;Node11</title>
<path fill="none" stroke="midnightblue" d="M383.12,-112.44C356.71,-103.36 314.78,-88.94 285.26,-78.78"/>
<polygon fill="midnightblue" stroke="midnightblue" points="286.36,-75.46 275.76,-75.52 284.08,-82.08 286.36,-75.46"/>
</g>
<!-- Node18&#45;&gt;Node3 -->
<g id="edge27" class="edge">
<title>Node18&#45;&gt;Node3</title>
<path fill="none" stroke="midnightblue" d="M350.06,-168.37C353.48,-155.3 361.23,-130.06 374,-112 399.82,-75.48 441.4,-43.32 466.86,-25.57"/>
<polygon fill="midnightblue" stroke="midnightblue" points="469.16,-28.24 475.45,-19.71 465.22,-22.46 469.16,-28.24"/>
</g>
<!-- Node18&#45;&gt;Node4 -->
<g id="edge28" class="edge">
<title>Node18&#45;&gt;Node4</title>
<path fill="none" stroke="midnightblue" d="M340.57,-168.08C334.15,-160.38 324.69,-149.03 316.88,-139.65"/>
<polygon fill="midnightblue" stroke="midnightblue" points="319.38,-137.19 310.29,-131.75 314.01,-141.67 319.38,-137.19"/>
</g>
<!-- Node18&#45;&gt;Node17 -->
<g id="edge26" class="edge">
<title>Node18&#45;&gt;Node17</title>
<path fill="none" stroke="midnightblue" d="M357.64,-168.32C366.51,-160.34 379.87,-148.31 390.61,-138.65"/>
<polygon fill="midnightblue" stroke="midnightblue" points="393.09,-141.13 398.18,-131.83 388.41,-135.92 393.09,-141.13"/>
</g>
<!-- Node24&#45;&gt;Node15 -->
<g id="edge37" class="edge">
<title>Node24&#45;&gt;Node15</title>
<path fill="none" stroke="midnightblue" d="M907.42,-282.62C904.29,-281.69 901.07,-280.78 898,-280 832.89,-263.46 755.96,-249.26 710.73,-241.44"/>
<polygon fill="midnightblue" stroke="midnightblue" points="711.2,-237.97 700.76,-239.73 710.02,-244.87 711.2,-237.97"/>
</g>
<!-- Node25&#45;&gt;Node3 -->
<g id="edge41" class="edge">
<title>Node25&#45;&gt;Node3</title>
<path fill="none" stroke="midnightblue" d="M918.24,-224.69C962.54,-213.13 1037.22,-193.03 1041,-188 1046.34,-180.89 1046.36,-175.09 1041,-168 977.83,-84.36 645.63,-32.15 529.29,-16.21"/>
<polygon fill="midnightblue" stroke="midnightblue" points="529.74,-12.74 519.36,-14.86 528.8,-19.67 529.74,-12.74"/>
</g>
<!-- Node25&#45;&gt;Node4 -->
<g id="edge46" class="edge">
<title>Node25&#45;&gt;Node4</title>
<path fill="none" stroke="midnightblue" d="M918.32,-224.67C957.34,-214.3 1018.55,-196.87 1025,-188 1030.23,-180.81 1031.11,-174.46 1025,-168 975.21,-115.38 446.15,-138.56 374,-132 361.75,-130.89 348.36,-129.29 336.54,-127.75"/>
<polygon fill="midnightblue" stroke="midnightblue" points="337,-124.28 326.62,-126.42 336.07,-131.22 337,-124.28"/>
</g>
<!-- Node25&#45;&gt;Node9 -->
<g id="edge44" class="edge">
<title>Node25&#45;&gt;Node9</title>
<path fill="none" stroke="midnightblue" d="M918.14,-226.55C922.79,-225.66 927.51,-224.79 932,-224 1031.24,-206.57 1059.2,-207.1 1161.96,-188.1"/>
<polygon fill="midnightblue" stroke="midnightblue" points="1162.62,-191.54 1171.81,-186.26 1161.34,-184.66 1162.62,-191.54"/>
</g>
<!-- Node25&#45;&gt;Node16 -->
<g id="edge42" class="edge">
<title>Node25&#45;&gt;Node16</title>
<path fill="none" stroke="midnightblue" d="M853.96,-224.92C815.37,-215.18 750.64,-198.84 709.69,-188.51"/>
<polygon fill="midnightblue" stroke="midnightblue" points="710.37,-185.07 699.82,-186.02 708.66,-191.86 710.37,-185.07"/>
</g>
<!-- Node25&#45;&gt;Node19 -->
<g id="edge39" class="edge">
<title>Node25&#45;&gt;Node19</title>
<path fill="none" stroke="midnightblue" d="M863.34,-224.44C839.6,-215.48 802.09,-201.31 775.26,-191.18"/>
<polygon fill="midnightblue" stroke="midnightblue" points="776.14,-187.77 765.55,-187.52 773.67,-194.32 776.14,-187.77"/>
</g>
<!-- Node25&#45;&gt;Node20 -->
<g id="edge40" class="edge">
<title>Node25&#45;&gt;Node20</title>
<path fill="none" stroke="midnightblue" d="M874.27,-224.32C863.16,-216.11 846.26,-203.6 833.02,-193.81"/>
<polygon fill="midnightblue" stroke="midnightblue" points="835.06,-190.97 824.94,-187.83 830.9,-196.59 835.06,-190.97"/>
</g>
<!-- Node25&#45;&gt;Node21 -->
<g id="edge43" class="edge">
<title>Node25&#45;&gt;Node21</title>
<path fill="none" stroke="midnightblue" d="M886,-224.08C886,-217.01 886,-206.86 886,-197.99"/>
<polygon fill="midnightblue" stroke="midnightblue" points="889.5,-197.75 886,-187.75 882.5,-197.75 889.5,-197.75"/>
</g>
<!-- Node25&#45;&gt;Node22 -->
<g id="edge45" class="edge">
<title>Node25&#45;&gt;Node22</title>
<path fill="none" stroke="midnightblue" d="M900.14,-224.32C913.87,-215.9 934.94,-202.97 951.06,-193.07"/>
<polygon fill="midnightblue" stroke="midnightblue" points="953.2,-195.87 959.9,-187.65 949.54,-189.9 953.2,-195.87"/>
</g>
<!-- Node26 -->
<g id="node26" class="node">
<title>Node26</title>
<g id="a_node26"><a xlink:title=" ">
<polygon fill="white" stroke="#bfbfbf" points="1110,-168.5 1110,-187.5 1154,-187.5 1154,-168.5 1110,-168.5"/>
<text text-anchor="middle" x="1132" y="-175.5" font-family="Helvetica,sans-Serif" font-size="10.00">string</text>
</a>
</g>
</g>
<!-- Node25&#45;&gt;Node26 -->
<g id="edge47" class="edge">
<title>Node25&#45;&gt;Node26</title>
<path fill="none" stroke="midnightblue" d="M918.09,-226.47C959.35,-218.01 1033.17,-202.58 1096,-188 1097.27,-187.71 1098.57,-187.4 1099.87,-187.09"/>
<polygon fill="midnightblue" stroke="midnightblue" points="1101.05,-190.4 1109.94,-184.64 1099.4,-183.6 1101.05,-190.4"/>
</g>
<!-- Node27&#45;&gt;Node5 -->
<g id="edge49" class="edge">
<title>Node27&#45;&gt;Node5</title>
<path fill="none" stroke="midnightblue" d="M530.34,-340.14C485.09,-332.2 392.14,-315.87 302.78,-300.14"/>
<polygon fill="midnightblue" stroke="midnightblue" points="303.2,-296.66 292.75,-298.37 301.99,-303.55 303.2,-296.66"/>
</g>
<!-- Node27&#45;&gt;Node6 -->
<g id="edge50" class="edge">
<title>Node27&#45;&gt;Node6</title>
<path fill="none" stroke="midnightblue" d="M550.21,-336.19C537.58,-322.39 511.28,-295.67 484,-280 402.47,-233.18 296.01,-204.07 233.42,-189.76"/>
<polygon fill="midnightblue" stroke="midnightblue" points="233.91,-186.28 223.39,-187.5 232.37,-193.11 233.91,-186.28"/>
</g>
<!-- Node27&#45;&gt;Node7 -->
<g id="edge51" class="edge">
<title>Node27&#45;&gt;Node7</title>
<path fill="none" stroke="midnightblue" d="M531.86,-336.44C503.98,-327.32 459.65,-312.81 428.6,-302.65"/>
<polygon fill="midnightblue" stroke="midnightblue" points="429.62,-299.3 419.02,-299.52 427.44,-305.95 429.62,-299.3"/>
</g>
<!-- Node27&#45;&gt;Node8 -->
<g id="edge52" class="edge">
<title>Node27&#45;&gt;Node8</title>
<path fill="none" stroke="midnightblue" d="M585.52,-338.59C624.44,-329.54 696.06,-312.87 743.36,-301.86"/>
<polygon fill="midnightblue" stroke="midnightblue" points="744.41,-305.2 753.36,-299.53 742.83,-298.39 744.41,-305.2"/>
</g>
<!-- Node27&#45;&gt;Node9 -->
<g id="edge53" class="edge">
<title>Node27&#45;&gt;Node9</title>
<path fill="none" stroke="midnightblue" d="M585.71,-338.11C615.48,-330.32 663.92,-316.56 704,-300 721.64,-292.71 724,-286.33 742,-280 821.02,-252.2 845.1,-261.57 927,-244 1010.49,-226.09 1107.52,-202.73 1161.75,-189.45"/>
<polygon fill="midnightblue" stroke="midnightblue" points="1162.8,-192.79 1171.68,-187.01 1161.13,-185.99 1162.8,-192.79"/>
</g>
<!-- Node28 -->
<g id="node28" class="node">
<title>Node28</title>
<g id="a_node28"><a xlink:title=" ">
<polygon fill="white" stroke="#bfbfbf" points="531.5,-280.5 531.5,-299.5 694.5,-299.5 694.5,-280.5 531.5,-280.5"/>
<text text-anchor="middle" x="613" y="-287.5" font-family="Helvetica,sans-Serif" font-size="10.00">glm/gtc/matrix_transform.hpp</text>
</a>
</g>
</g>
<!-- Node27&#45;&gt;Node28 -->
<g id="edge54" class="edge">
<title>Node27&#45;&gt;Node28</title>
<path fill="none" stroke="midnightblue" d="M567.08,-336.08C575.17,-328.14 587.2,-316.34 596.91,-306.8"/>
<polygon fill="midnightblue" stroke="midnightblue" points="599.4,-309.25 604.09,-299.75 594.5,-304.26 599.4,-309.25"/>
</g>
</g>
</svg>
