<?xml version="1.0" encoding="UTF-8" standalone="no"?>
<!DOCTYPE svg PUBLIC "-//W3C//DTD SVG 1.1//EN"
 "http://www.w3.org/Graphics/SVG/1.1/DTD/svg11.dtd">
<!-- Generated by graphviz version 2.43.0 (0)
 -->
<!-- Title: include/Simulation.h Pages: 1 -->
<!--zoomable 476 -->
<svg id="main" version="1.1" xmlns="http://www.w3.org/2000/svg" xmlns:xlink="http://www.w3.org/1999/xlink" xml:space="preserve" onload="init(evt)">
<style type="text/css"><![CDATA[
.edge:hover path { stroke: red; }
.edge:hover polygon { stroke: red; fill: red; }
]]></style>
<script type="text/javascript"><![CDATA[
var edges = document.getElementsByTagName('g');
if (edges && edges.length) {
  for (var i=0;i<edges.length;i++) {
    if (edges[i].id.substr(0,4)=='edge') {
      edges[i].setAttribute('class','edge');
    }
  }
}
]]></script>
        <defs>
                <circle id="rim" cx="0" cy="0" r="7"/>
                <circle id="rim2" cx="0" cy="0" r="3.5"/>
                <g id="zoomPlus">
                        <use xlink:href="#rim" fill="#404040">
                                <set attributeName="fill" to="#808080" begin="zoomplus.mouseover" end="zoomplus.mouseout"/>
                        </use>
                        <path d="M-4,0h8M0,-4v8" fill="none" stroke="white" stroke-width="1.5" pointer-events="none"/>
                </g>
                <g id="zoomMin">
                        <use xlink:href="#rim" fill="#404040">
                                <set attributeName="fill" to="#808080" begin="zoomminus.mouseover" end="zoomminus.mouseout"/>
                        </use>
                        <path d="M-4,0h8" fill="none" stroke="white" stroke-width="1.5" pointer-events="none"/>
                </g>
                <g id="dirArrow">
                        <path fill="none" stroke="white" stroke-width="1.5" d="M0,-3.0v7 M-2.5,-0.5L0,-3.0L2.5,-0.5"/>
                </g>
               <g id="resetDef">
                       <use xlink:href="#rim2" fill="#404040">
                               <set attributeName="fill" to="#808080" begin="reset.mouseover" end="reset.mouseout"/>
                       </use>
               </g>
        </defs>

<script type="text/javascript">
var viewWidth = 2059;
var viewHeight = 476;
var sectionId = 'dynsection-0';
</script>
<script xlink:href="svgpan.js"/>
<svg id="graph" class="graph">
<g id="viewport">
<title>include/Simulation.h</title>
<polygon fill="white" stroke="transparent" points="-4,4 -4,-472 2055,-472 2055,4 -4,4"/>
<!-- Node1 -->
<g id="node1" class="node">
<title>Node1</title>
<g id="a_node1"><a xlink:title=" ">
<polygon fill="#bfbfbf" stroke="black" points="1034,-448.5 1034,-467.5 1150,-467.5 1150,-448.5 1034,-448.5"/>
<text text-anchor="middle" x="1092" y="-455.5" font-family="Helvetica,sans-Serif" font-size="10.00">include/Simulation.h</text>
</a>
</g>
</g>
<!-- Node2 -->
<g id="node2" class="node">
<title>Node2</title>
<g id="a_node2"><a xlink:title=" ">
<polygon fill="white" stroke="#bfbfbf" points="811,-0.5 811,-19.5 871,-19.5 871,-0.5 811,-0.5"/>
<text text-anchor="middle" x="841" y="-7.5" font-family="Helvetica,sans-Serif" font-size="10.00">iostream</text>
</a>
</g>
</g>
<!-- Node1&#45;&gt;Node2 -->
<g id="edge1" class="edge">
<title>Node1&#45;&gt;Node2</title>
<path fill="none" stroke="midnightblue" d="M1150.19,-456.47C1357.96,-453.83 2051,-438.18 2051,-347 2051,-347 2051,-347 2051,-121 2051,-54.81 1981.19,-72.17 1917,-56 1815.23,-30.37 1064.35,-15.08 881.2,-11.71"/>
<polygon fill="midnightblue" stroke="midnightblue" points="881.25,-8.21 871.19,-11.53 881.12,-15.21 881.25,-8.21"/>
</g>
<!-- Node3 -->
<g id="node3" class="node">
<title>Node3</title>
<g id="a_node3"><a xlink:title=" ">
<polygon fill="white" stroke="#bfbfbf" points="1007.5,-112.5 1007.5,-131.5 1054.5,-131.5 1054.5,-112.5 1007.5,-112.5"/>
<text text-anchor="middle" x="1031" y="-119.5" font-family="Helvetica,sans-Serif" font-size="10.00">vector</text>
</a>
</g>
</g>
<!-- Node1&#45;&gt;Node3 -->
<g id="edge2" class="edge">
<title>Node1&#45;&gt;Node3</title>
<path fill="none" stroke="midnightblue" d="M1033.78,-455.57C842.42,-450.12 245,-426.7 245,-347 245,-347 245,-347 245,-289 245,-233.26 234.73,-203.14 278,-168 292.16,-156.5 852.64,-130.91 997.24,-124.48"/>
<polygon fill="midnightblue" stroke="midnightblue" points="997.47,-127.98 1007.3,-124.04 997.16,-120.98 997.47,-127.98"/>
</g>
<!-- Node4 -->
<g id="node4" class="node">
<title>Node4</title>
<g id="a_node4"><a xlink:title=" ">
<polygon fill="white" stroke="#bfbfbf" points="1501.5,-280.5 1501.5,-299.5 1584.5,-299.5 1584.5,-280.5 1501.5,-280.5"/>
<text text-anchor="middle" x="1543" y="-287.5" font-family="Helvetica,sans-Serif" font-size="10.00">glm/vec4.hpp</text>
</a>
</g>
</g>
<!-- Node1&#45;&gt;Node4 -->
<g id="edge3" class="edge">
<title>Node1&#45;&gt;Node4</title>
<path fill="none" stroke="midnightblue" d="M1136.91,-448.45C1174.59,-440.71 1229.53,-428.06 1276,-412 1367.84,-380.27 1471.2,-328.57 1517.81,-304.33"/>
<polygon fill="midnightblue" stroke="midnightblue" points="1519.63,-307.33 1526.87,-299.59 1516.39,-301.13 1519.63,-307.33"/>
</g>
<!-- Node5 -->
<g id="node5" class="node">
<title>Node5</title>
<g id="a_node5"><a xlink:title=" ">
<polygon fill="white" stroke="#bfbfbf" points="1186.5,-168.5 1186.5,-187.5 1283.5,-187.5 1283.5,-168.5 1186.5,-168.5"/>
<text text-anchor="middle" x="1235" y="-175.5" font-family="Helvetica,sans-Serif" font-size="10.00">glm/mat4x4.hpp</text>
</a>
</g>
</g>
<!-- Node1&#45;&gt;Node5 -->
<g id="edge4" class="edge">
<title>Node1&#45;&gt;Node5</title>
<path fill="none" stroke="midnightblue" d="M1089.7,-448.23C1081.51,-414.94 1057.07,-294.65 1111,-224 1120.84,-211.11 1157.77,-198.7 1188.78,-190.19"/>
<polygon fill="midnightblue" stroke="midnightblue" points="1189.84,-193.53 1198.6,-187.57 1188.04,-186.77 1189.84,-193.53"/>
</g>
<!-- Node6 -->
<g id="node6" class="node">
<title>Node6</title>
<g id="a_node6"><a xlink:title=" ">
<polygon fill="white" stroke="#bfbfbf" points="1667,-168.5 1667,-187.5 1831,-187.5 1831,-168.5 1667,-168.5"/>
<text text-anchor="middle" x="1749" y="-175.5" font-family="Helvetica,sans-Serif" font-size="10.00">glm/ext/matrix_transform.hpp</text>
</a>
</g>
</g>
<!-- Node1&#45;&gt;Node6 -->
<g id="edge5" class="edge">
<title>Node1&#45;&gt;Node6</title>
<path fill="none" stroke="midnightblue" d="M1150.23,-455.32C1307.22,-450.5 1731.37,-435.44 1790,-412 1872.09,-379.18 1907.03,-295.48 1855,-224 1843.18,-207.76 1824.3,-197.33 1805.74,-190.66"/>
<polygon fill="midnightblue" stroke="midnightblue" points="1806.69,-187.29 1796.1,-187.5 1804.51,-193.94 1806.69,-187.29"/>
</g>
<!-- Node7 -->
<g id="node7" class="node">
<title>Node7</title>
<g id="a_node7"><a xlink:title=" ">
<polygon fill="white" stroke="#bfbfbf" points="1603,-280.5 1603,-299.5 1681,-299.5 1681,-280.5 1603,-280.5"/>
<text text-anchor="middle" x="1642" y="-287.5" font-family="Helvetica,sans-Serif" font-size="10.00">glm/glm.hpp</text>
</a>
</g>
</g>
<!-- Node1&#45;&gt;Node7 -->
<g id="edge6" class="edge">
<title>Node1&#45;&gt;Node7</title>
<path fill="none" stroke="midnightblue" d="M1145.93,-448.45C1191.23,-440.71 1257.44,-428.06 1314,-412 1426.64,-380.01 1555.78,-327.52 1612.58,-303.59"/>
<polygon fill="midnightblue" stroke="midnightblue" points="1614.17,-306.72 1622.01,-299.6 1611.44,-300.28 1614.17,-306.72"/>
</g>
<!-- Node8 -->
<g id="node8" class="node">
<title>Node8</title>
<g id="a_node8"><a xlink:title=" ">
<polygon fill="white" stroke="#bfbfbf" points="1340,-168.5 1340,-187.5 1404,-187.5 1404,-168.5 1340,-168.5"/>
<text text-anchor="middle" x="1372" y="-175.5" font-family="Helvetica,sans-Serif" font-size="10.00">GL/glew.h</text>
</a>
</g>
</g>
<!-- Node1&#45;&gt;Node8 -->
<g id="edge7" class="edge">
<title>Node1&#45;&gt;Node8</title>
<path fill="none" stroke="midnightblue" d="M1150.16,-450.8C1287.43,-434.83 1624.92,-387.29 1690,-300 1725.52,-252.36 1508.76,-204.86 1414.35,-186.71"/>
<polygon fill="midnightblue" stroke="midnightblue" points="1414.74,-183.22 1404.27,-184.79 1413.44,-190.1 1414.74,-183.22"/>
</g>
<!-- Node9 -->
<g id="node9" class="node">
<title>Node9</title>
<g id="a_node9"><a xlink:href="Robot_8h.html" target="_top" xlink:title=" ">
<polygon fill="white" stroke="black" points="1189,-392.5 1189,-411.5 1243,-411.5 1243,-392.5 1189,-392.5"/>
<text text-anchor="middle" x="1216" y="-399.5" font-family="Helvetica,sans-Serif" font-size="10.00">Robot.h</text>
</a>
</g>
</g>
<!-- Node1&#45;&gt;Node9 -->
<g id="edge8" class="edge">
<title>Node1&#45;&gt;Node9</title>
<path fill="none" stroke="midnightblue" d="M1111.65,-448.44C1131.96,-439.6 1163.9,-425.69 1187.1,-415.59"/>
<polygon fill="midnightblue" stroke="midnightblue" points="1188.67,-418.72 1196.44,-411.52 1185.88,-412.3 1188.67,-418.72"/>
</g>
<!-- Node10 -->
<g id="node10" class="node">
<title>Node10</title>
<g id="a_node10"><a xlink:href="Animation_8h.html" target="_top" xlink:title=" ">
<polygon fill="white" stroke="black" points="55,-168.5 55,-187.5 131,-187.5 131,-168.5 55,-168.5"/>
<text text-anchor="middle" x="93" y="-175.5" font-family="Helvetica,sans-Serif" font-size="10.00">Animation.h</text>
</a>
</g>
</g>
<!-- Node1&#45;&gt;Node10 -->
<g id="edge84" class="edge">
<title>Node1&#45;&gt;Node10</title>
<path fill="none" stroke="midnightblue" d="M1033.96,-456.88C866.3,-456.06 383.61,-450.35 231,-412 165.25,-395.48 93,-414.8 93,-347 93,-347 93,-347 93,-289 93,-256.95 93,-219.64 93,-197.75"/>
<polygon fill="midnightblue" stroke="midnightblue" points="96.5,-197.56 93,-187.56 89.5,-197.56 96.5,-197.56"/>
</g>
<!-- Node11 -->
<g id="node11" class="node">
<title>Node11</title>
<g id="a_node11"><a xlink:href="Vertex_8h.html" target="_top" xlink:title=" ">
<polygon fill="white" stroke="black" points="104.5,-56.5 104.5,-75.5 161.5,-75.5 161.5,-56.5 104.5,-56.5"/>
<text text-anchor="middle" x="133" y="-63.5" font-family="Helvetica,sans-Serif" font-size="10.00">Vertex.h</text>
</a>
</g>
</g>
<!-- Node1&#45;&gt;Node11 -->
<g id="edge90" class="edge">
<title>Node1&#45;&gt;Node11</title>
<path fill="none" stroke="midnightblue" d="M1033.95,-455.91C837.07,-452 202.11,-437.53 114,-412 57.98,-395.76 0,-405.32 0,-347 0,-347 0,-347 0,-177 0,-126.73 57.13,-95.1 96.5,-79.27"/>
<polygon fill="midnightblue" stroke="midnightblue" points="98.01,-82.45 106.09,-75.59 95.5,-75.91 98.01,-82.45"/>
</g>
<!-- Node13 -->
<g id="node13" class="node">
<title>Node13</title>
<g id="a_node13"><a xlink:href="Model_8h.html" target="_top" xlink:title=" ">
<polygon fill="white" stroke="black" points="970,-336.5 970,-355.5 1026,-355.5 1026,-336.5 970,-336.5"/>
<text text-anchor="middle" x="998" y="-343.5" font-family="Helvetica,sans-Serif" font-size="10.00">Model.h</text>
</a>
</g>
</g>
<!-- Node1&#45;&gt;Node13 -->
<g id="edge85" class="edge">
<title>Node1&#45;&gt;Node13</title>
<path fill="none" stroke="midnightblue" d="M1084.62,-448.37C1068.97,-430.05 1032.22,-387.05 1011.98,-363.36"/>
<polygon fill="midnightblue" stroke="midnightblue" points="1014.5,-360.92 1005.34,-355.59 1009.18,-365.47 1014.5,-360.92"/>
</g>
<!-- Node14 -->
<g id="node14" class="node">
<title>Node14</title>
<g id="a_node14"><a xlink:href="Obj_8h.html" target="_top" xlink:title=" ">
<polygon fill="white" stroke="black" points="683,-280.5 683,-299.5 725,-299.5 725,-280.5 683,-280.5"/>
<text text-anchor="middle" x="704" y="-287.5" font-family="Helvetica,sans-Serif" font-size="10.00">Obj.h</text>
</a>
</g>
</g>
<!-- Node1&#45;&gt;Node14 -->
<g id="edge89" class="edge">
<title>Node1&#45;&gt;Node14</title>
<path fill="none" stroke="midnightblue" d="M1033.76,-454.85C951.97,-450.86 808.24,-439.99 765,-412 729.07,-388.74 713.4,-337.43 707.34,-309.68"/>
<polygon fill="midnightblue" stroke="midnightblue" points="710.74,-308.82 705.36,-299.69 703.87,-310.18 710.74,-308.82"/>
</g>
<!-- Node24 -->
<g id="node24" class="node">
<title>Node24</title>
<g id="a_node24"><a xlink:href="Ply_8h.html" target="_top" xlink:title=" ">
<polygon fill="white" stroke="black" points="743.5,-280.5 743.5,-299.5 782.5,-299.5 782.5,-280.5 743.5,-280.5"/>
<text text-anchor="middle" x="763" y="-287.5" font-family="Helvetica,sans-Serif" font-size="10.00">Ply.h</text>
</a>
</g>
</g>
<!-- Node1&#45;&gt;Node24 -->
<g id="edge88" class="edge">
<title>Node1&#45;&gt;Node24</title>
<path fill="none" stroke="midnightblue" d="M1033.88,-455.22C976.53,-451.72 887.33,-441.5 816,-412 776.56,-395.69 757.48,-393.97 738,-356 729.93,-340.27 739.24,-321.3 748.7,-307.92"/>
<polygon fill="midnightblue" stroke="midnightblue" points="751.74,-309.72 755.07,-299.67 746.19,-305.45 751.74,-309.72"/>
</g>
<!-- Node25 -->
<g id="node25" class="node">
<title>Node25</title>
<g id="a_node25"><a xlink:href="OpenGL_8h.html" target="_top" xlink:title=" ">
<polygon fill="white" stroke="black" points="463,-224.5 463,-243.5 527,-243.5 527,-224.5 463,-224.5"/>
<text text-anchor="middle" x="495" y="-231.5" font-family="Helvetica,sans-Serif" font-size="10.00">OpenGL.h</text>
</a>
</g>
</g>
<!-- Node1&#45;&gt;Node25 -->
<g id="edge86" class="edge">
<title>Node1&#45;&gt;Node25</title>
<path fill="none" stroke="midnightblue" d="M1033.88,-452.96C948.14,-446.43 792.29,-432.22 740,-412 641.72,-374 546.87,-286.7 510.55,-250.83"/>
<polygon fill="midnightblue" stroke="midnightblue" points="512.88,-248.22 503.33,-243.62 507.93,-253.17 512.88,-248.22"/>
</g>
<!-- Node27 -->
<g id="node27" class="node">
<title>Node27</title>
<g id="a_node27"><a xlink:href="Scene_8h.html" target="_top" xlink:title=" ">
<polygon fill="white" stroke="black" points="1272.5,-336.5 1272.5,-355.5 1327.5,-355.5 1327.5,-336.5 1272.5,-336.5"/>
<text text-anchor="middle" x="1300" y="-343.5" font-family="Helvetica,sans-Serif" font-size="10.00">Scene.h</text>
</a>
</g>
</g>
<!-- Node1&#45;&gt;Node27 -->
<g id="edge87" class="edge">
<title>Node1&#45;&gt;Node27</title>
<path fill="none" stroke="midnightblue" d="M1150.35,-450.03C1182.55,-443.98 1221.97,-432.74 1252,-412 1269.44,-399.95 1283.02,-379.48 1291.22,-364.72"/>
<polygon fill="midnightblue" stroke="midnightblue" points="1294.46,-366.08 1296.01,-355.6 1288.26,-362.82 1294.46,-366.08"/>
</g>
<!-- Node29 -->
<g id="node29" class="node">
<title>Node29</title>
<g id="a_node29"><a xlink:href="Ball_8h.html" target="_top" xlink:title=" ">
<polygon fill="white" stroke="black" points="825,-392.5 825,-411.5 869,-411.5 869,-392.5 825,-392.5"/>
<text text-anchor="middle" x="847" y="-399.5" font-family="Helvetica,sans-Serif" font-size="10.00">Ball.h</text>
</a>
</g>
</g>
<!-- Node1&#45;&gt;Node29 -->
<g id="edge63" class="edge">
<title>Node1&#45;&gt;Node29</title>
<path fill="none" stroke="midnightblue" d="M1053.18,-448.44C1005.09,-437.84 924.04,-419.98 879.22,-410.1"/>
<polygon fill="midnightblue" stroke="midnightblue" points="879.69,-406.62 869.18,-407.89 878.19,-413.46 879.69,-406.62"/>
</g>
<!-- Node30 -->
<g id="node30" class="node">
<title>Node30</title>
<g id="a_node30"><a xlink:href="Enemy_8h.html" target="_top" xlink:title=" ">
<polygon fill="white" stroke="black" points="1723,-392.5 1723,-411.5 1781,-411.5 1781,-392.5 1723,-392.5"/>
<text text-anchor="middle" x="1752" y="-399.5" font-family="Helvetica,sans-Serif" font-size="10.00">Enemy.h</text>
</a>
</g>
</g>
<!-- Node1&#45;&gt;Node30 -->
<g id="edge75" class="edge">
<title>Node1&#45;&gt;Node30</title>
<path fill="none" stroke="midnightblue" d="M1150.06,-452.52C1251.77,-444.63 1468.81,-427.6 1652,-412 1671.98,-410.3 1694.2,-408.31 1712.61,-406.63"/>
<polygon fill="midnightblue" stroke="midnightblue" points="1713.05,-410.11 1722.69,-405.71 1712.41,-403.14 1713.05,-410.11"/>
</g>
<!-- Node9&#45;&gt;Node2 -->
<g id="edge9" class="edge">
<title>Node9&#45;&gt;Node2</title>
<path fill="none" stroke="midnightblue" d="M1243.13,-400.26C1304.52,-398.04 1458.37,-389.31 1582,-356 1643.14,-339.53 1657.14,-329.82 1713,-300 1800,-253.56 1899,-277.62 1899,-179 1899,-179 1899,-179 1899,-121 1899,-16.68 1074.68,-10.82 881.27,-10.88"/>
<polygon fill="midnightblue" stroke="midnightblue" points="881.24,-7.38 871.24,-10.89 881.24,-14.38 881.24,-7.38"/>
</g>
<!-- Node9&#45;&gt;Node3 -->
<g id="edge10" class="edge">
<title>Node9&#45;&gt;Node3</title>
<path fill="none" stroke="midnightblue" d="M1216.46,-392.44C1217.29,-379.87 1219.51,-355.76 1225,-336 1232.45,-309.23 1292.36,-190.8 1293,-188 1294.97,-179.33 1298.73,-174.8 1293,-168 1264.19,-133.82 1128.96,-125.6 1064.86,-123.63"/>
<polygon fill="midnightblue" stroke="midnightblue" points="1064.94,-120.13 1054.85,-123.35 1064.75,-127.12 1064.94,-120.13"/>
</g>
<!-- Node9&#45;&gt;Node4 -->
<g id="edge11" class="edge">
<title>Node9&#45;&gt;Node4</title>
<path fill="none" stroke="midnightblue" d="M1241.39,-392.46C1299.34,-372.97 1441.45,-325.16 1507.81,-302.84"/>
<polygon fill="midnightblue" stroke="midnightblue" points="1509.04,-306.12 1517.4,-299.61 1506.81,-299.48 1509.04,-306.12"/>
</g>
<!-- Node9&#45;&gt;Node5 -->
<g id="edge12" class="edge">
<title>Node9&#45;&gt;Node5</title>
<path fill="none" stroke="midnightblue" d="M1203.85,-392.42C1182.97,-376.85 1140.99,-341.64 1125,-300 1112.89,-268.47 1106.17,-252.04 1125,-224 1136.81,-206.41 1156.85,-195.69 1176.61,-189.16"/>
<polygon fill="midnightblue" stroke="midnightblue" points="1177.67,-192.49 1186.25,-186.28 1175.67,-185.79 1177.67,-192.49"/>
</g>
<!-- Node9&#45;&gt;Node6 -->
<g id="edge13" class="edge">
<title>Node9&#45;&gt;Node6</title>
<path fill="none" stroke="midnightblue" d="M1243.13,-398.38C1332.97,-389.24 1619.13,-356.2 1690,-300 1723.01,-273.82 1738.78,-224.52 1745.23,-197.64"/>
<polygon fill="midnightblue" stroke="midnightblue" points="1748.7,-198.14 1747.44,-187.62 1741.87,-196.63 1748.7,-198.14"/>
</g>
<!-- Node9&#45;&gt;Node7 -->
<g id="edge14" class="edge">
<title>Node9&#45;&gt;Node7</title>
<path fill="none" stroke="midnightblue" d="M1243,-394.19C1277.72,-385.42 1339.88,-369.69 1393,-356 1465.66,-337.28 1550.14,-315.15 1599.66,-302.14"/>
<polygon fill="midnightblue" stroke="midnightblue" points="1600.61,-305.51 1609.39,-299.58 1598.83,-298.74 1600.61,-305.51"/>
</g>
<!-- Node9&#45;&gt;Node8 -->
<g id="edge15" class="edge">
<title>Node9&#45;&gt;Node8</title>
<path fill="none" stroke="midnightblue" d="M1218.09,-392.47C1223.44,-371.81 1239.04,-317.98 1265,-280 1289.28,-244.47 1327.95,-211.96 1351.55,-193.88"/>
<polygon fill="midnightblue" stroke="midnightblue" points="1353.9,-196.49 1359.79,-187.69 1349.69,-190.9 1353.9,-196.49"/>
</g>
<!-- Node9&#45;&gt;Node10 -->
<g id="edge16" class="edge">
<title>Node9&#45;&gt;Node10</title>
<path fill="none" stroke="midnightblue" d="M1194.82,-392.47C1161.29,-379.17 1093.79,-353.26 1035,-336 928.66,-304.77 901.3,-298.35 792,-280 643.01,-254.99 603.55,-265.4 454,-244 341.42,-227.89 210.24,-202.63 141.19,-188.82"/>
<polygon fill="midnightblue" stroke="midnightblue" points="141.55,-185.32 131.06,-186.79 140.17,-192.18 141.55,-185.32"/>
</g>
<!-- Node9&#45;&gt;Node13 -->
<g id="edge23" class="edge">
<title>Node9&#45;&gt;Node13</title>
<path fill="none" stroke="midnightblue" d="M1188.83,-394.27C1150.37,-384.74 1079.87,-367.28 1036.17,-356.45"/>
<polygon fill="midnightblue" stroke="midnightblue" points="1036.75,-352.99 1026.2,-353.99 1035.07,-359.79 1036.75,-352.99"/>
</g>
<!-- Node9&#45;&gt;Node25 -->
<g id="edge46" class="edge">
<title>Node9&#45;&gt;Node25</title>
<path fill="none" stroke="midnightblue" d="M1194.82,-392.47C1161.29,-379.17 1093.79,-353.26 1035,-336 853.48,-282.69 629.06,-251.36 537.2,-239.95"/>
<polygon fill="midnightblue" stroke="midnightblue" points="537.53,-236.46 527.18,-238.72 536.68,-243.41 537.53,-236.46"/>
</g>
<!-- Node9&#45;&gt;Node27 -->
<g id="edge56" class="edge">
<title>Node9&#45;&gt;Node27</title>
<path fill="none" stroke="midnightblue" d="M1229.5,-392.32C1242.6,-383.9 1262.71,-370.97 1278.11,-361.07"/>
<polygon fill="midnightblue" stroke="midnightblue" points="1280.02,-364.01 1286.54,-355.65 1276.23,-358.12 1280.02,-364.01"/>
</g>
<!-- Node10&#45;&gt;Node2 -->
<g id="edge17" class="edge">
<title>Node10&#45;&gt;Node2</title>
<path fill="none" stroke="midnightblue" d="M89.66,-168.21C81.85,-145.99 65.22,-87.11 95,-56 119.56,-30.34 648.01,-15.65 800.28,-11.94"/>
<polygon fill="midnightblue" stroke="midnightblue" points="800.67,-15.43 810.58,-11.69 800.5,-8.43 800.67,-15.43"/>
</g>
<!-- Node10&#45;&gt;Node3 -->
<g id="edge18" class="edge">
<title>Node10&#45;&gt;Node3</title>
<path fill="none" stroke="midnightblue" d="M131.08,-174.18C156.53,-172.32 190.76,-169.9 221,-168 521.98,-149.06 886.13,-130.32 997.22,-124.7"/>
<polygon fill="midnightblue" stroke="midnightblue" points="997.66,-128.18 1007.47,-124.18 997.3,-121.19 997.66,-128.18"/>
</g>
<!-- Node10&#45;&gt;Node11 -->
<g id="edge19" class="edge">
<title>Node10&#45;&gt;Node11</title>
<path fill="none" stroke="midnightblue" d="M96.14,-168.37C102.62,-150.54 117.62,-109.3 126.36,-85.27"/>
<polygon fill="midnightblue" stroke="midnightblue" points="129.75,-86.19 129.88,-75.59 123.17,-83.79 129.75,-86.19"/>
</g>
<!-- Node12 -->
<g id="node12" class="node">
<title>Node12</title>
<g id="a_node12"><a xlink:title=" ">
<polygon fill="white" stroke="#bfbfbf" points="54.5,-0.5 54.5,-19.5 117.5,-19.5 117.5,-0.5 54.5,-0.5"/>
<text text-anchor="middle" x="86" y="-7.5" font-family="Helvetica,sans-Serif" font-size="10.00">armadillo</text>
</a>
</g>
</g>
<!-- Node10&#45;&gt;Node12 -->
<g id="edge22" class="edge">
<title>Node10&#45;&gt;Node12</title>
<path fill="none" stroke="midnightblue" d="M84.52,-168.23C76.95,-159.75 66.4,-146.13 62,-132 51.97,-99.75 53.81,-88.77 62,-56 64.44,-46.25 69.44,-36.29 74.24,-28.23"/>
<polygon fill="midnightblue" stroke="midnightblue" points="77.21,-30.08 79.63,-19.77 71.31,-26.32 77.21,-30.08"/>
</g>
<!-- Node11&#45;&gt;Node2 -->
<g id="edge20" class="edge">
<title>Node11&#45;&gt;Node2</title>
<path fill="none" stroke="midnightblue" d="M161.58,-58.44C166.38,-57.51 171.32,-56.65 176,-56 411.23,-23.58 696.63,-14.22 800.63,-11.78"/>
<polygon fill="midnightblue" stroke="midnightblue" points="800.77,-15.28 810.69,-11.56 800.61,-8.28 800.77,-15.28"/>
</g>
<!-- Node11&#45;&gt;Node12 -->
<g id="edge21" class="edge">
<title>Node11&#45;&gt;Node12</title>
<path fill="none" stroke="midnightblue" d="M125.24,-56.08C118.46,-48.3 108.46,-36.8 100.24,-27.37"/>
<polygon fill="midnightblue" stroke="midnightblue" points="102.82,-25 93.62,-19.75 97.54,-29.59 102.82,-25"/>
</g>
<!-- Node13&#45;&gt;Node14 -->
<g id="edge24" class="edge">
<title>Node13&#45;&gt;Node14</title>
<path fill="none" stroke="midnightblue" d="M969.77,-341.24C921.38,-334.56 819.65,-319.46 735,-300 734.9,-299.98 734.8,-299.95 734.7,-299.93"/>
<polygon fill="midnightblue" stroke="midnightblue" points="735.82,-296.6 725.26,-297.52 734.08,-303.39 735.82,-296.6"/>
</g>
<!-- Node13&#45;&gt;Node24 -->
<g id="edge44" class="edge">
<title>Node13&#45;&gt;Node24</title>
<path fill="none" stroke="midnightblue" d="M969.65,-338.49C924.8,-328.18 837.92,-308.22 792.41,-297.76"/>
<polygon fill="midnightblue" stroke="midnightblue" points="793.1,-294.33 782.57,-295.5 791.53,-301.15 793.1,-294.33"/>
</g>
<!-- Node15 -->
<g id="node15" class="node">
<title>Node15</title>
<g id="a_node15"><a xlink:href="Object_8h.html" target="_top" xlink:title=" ">
<polygon fill="white" stroke="black" points="733.5,-224.5 733.5,-243.5 790.5,-243.5 790.5,-224.5 733.5,-224.5"/>
<text text-anchor="middle" x="762" y="-231.5" font-family="Helvetica,sans-Serif" font-size="10.00">Object.h</text>
</a>
</g>
</g>
<!-- Node14&#45;&gt;Node15 -->
<g id="edge25" class="edge">
<title>Node14&#45;&gt;Node15</title>
<path fill="none" stroke="midnightblue" d="M713.32,-280.32C721.89,-272.34 734.81,-260.31 745.19,-250.65"/>
<polygon fill="midnightblue" stroke="midnightblue" points="747.58,-253.21 752.51,-243.83 742.81,-248.09 747.58,-253.21"/>
</g>
<!-- Node15&#45;&gt;Node2 -->
<g id="edge26" class="edge">
<title>Node15&#45;&gt;Node2</title>
<path fill="none" stroke="midnightblue" d="M768.23,-224.2C774.49,-215.24 784.28,-200.89 792,-188 806.51,-163.78 813.02,-158.77 822,-132 833.69,-97.18 838.25,-54.26 839.99,-30.02"/>
<polygon fill="midnightblue" stroke="midnightblue" points="843.5,-29.94 840.63,-19.74 836.51,-29.51 843.5,-29.94"/>
</g>
<!-- Node15&#45;&gt;Node3 -->
<g id="edge28" class="edge">
<title>Node15&#45;&gt;Node3</title>
<path fill="none" stroke="midnightblue" d="M790.62,-226.66C795.41,-225.7 800.33,-224.77 805,-224 870.38,-213.2 1057.06,-237.6 1101,-188 1118.24,-168.54 1088.12,-148.54 1062.18,-135.96"/>
<polygon fill="midnightblue" stroke="midnightblue" points="1063.45,-132.69 1052.91,-131.67 1060.51,-139.05 1063.45,-132.69"/>
</g>
<!-- Node15&#45;&gt;Node5 -->
<g id="edge41" class="edge">
<title>Node15&#45;&gt;Node5</title>
<path fill="none" stroke="midnightblue" d="M790.52,-229.74C866.32,-221.09 1073.91,-197.39 1176.31,-185.7"/>
<polygon fill="midnightblue" stroke="midnightblue" points="1176.94,-189.15 1186.48,-184.54 1176.14,-182.2 1176.94,-189.15"/>
</g>
<!-- Node15&#45;&gt;Node6 -->
<g id="edge42" class="edge">
<title>Node15&#45;&gt;Node6</title>
<path fill="none" stroke="midnightblue" d="M790.74,-231.43C918.95,-224.41 1441.78,-195.81 1656.39,-184.07"/>
<polygon fill="midnightblue" stroke="midnightblue" points="1656.89,-187.54 1666.69,-183.5 1656.51,-180.56 1656.89,-187.54"/>
</g>
<!-- Node15&#45;&gt;Node8 -->
<g id="edge39" class="edge">
<title>Node15&#45;&gt;Node8</title>
<path fill="none" stroke="midnightblue" d="M790.52,-230.87C870.09,-224.88 1101.27,-207.04 1293,-188 1304.9,-186.82 1317.79,-185.41 1329.64,-184.05"/>
<polygon fill="midnightblue" stroke="midnightblue" points="1330.2,-187.51 1339.74,-182.89 1329.4,-180.56 1330.2,-187.51"/>
</g>
<!-- Node15&#45;&gt;Node11 -->
<g id="edge29" class="edge">
<title>Node15&#45;&gt;Node11</title>
<path fill="none" stroke="midnightblue" d="M762.19,-224.33C761.98,-210.25 759.36,-182.51 743,-168 657.52,-92.23 292.57,-72.64 171.9,-68.18"/>
<polygon fill="midnightblue" stroke="midnightblue" points="171.78,-64.68 161.66,-67.82 171.53,-71.67 171.78,-64.68"/>
</g>
<!-- Node16 -->
<g id="node16" class="node">
<title>Node16</title>
<g id="a_node16"><a xlink:title=" ">
<polygon fill="white" stroke="#bfbfbf" points="678.5,-168.5 678.5,-187.5 733.5,-187.5 733.5,-168.5 678.5,-168.5"/>
<text text-anchor="middle" x="706" y="-175.5" font-family="Helvetica,sans-Serif" font-size="10.00">fstream</text>
</a>
</g>
</g>
<!-- Node15&#45;&gt;Node16 -->
<g id="edge27" class="edge">
<title>Node15&#45;&gt;Node16</title>
<path fill="none" stroke="midnightblue" d="M753,-224.32C744.81,-216.42 732.49,-204.55 722.53,-194.94"/>
<polygon fill="midnightblue" stroke="midnightblue" points="724.79,-192.26 715.16,-187.83 719.93,-197.29 724.79,-192.26"/>
</g>
<!-- Node17 -->
<g id="node17" class="node">
<title>Node17</title>
<g id="a_node17"><a xlink:href="Edge_8h.html" target="_top" xlink:title=" ">
<polygon fill="white" stroke="black" points="763,-112.5 763,-131.5 813,-131.5 813,-112.5 763,-112.5"/>
<text text-anchor="middle" x="788" y="-119.5" font-family="Helvetica,sans-Serif" font-size="10.00">Edge.h</text>
</a>
</g>
</g>
<!-- Node15&#45;&gt;Node17 -->
<g id="edge30" class="edge">
<title>Node15&#45;&gt;Node17</title>
<path fill="none" stroke="midnightblue" d="M764.99,-224.46C768.06,-215.47 772.82,-200.87 776,-188 779.79,-172.66 782.97,-155.02 785.11,-141.99"/>
<polygon fill="midnightblue" stroke="midnightblue" points="788.6,-142.33 786.7,-131.9 781.68,-141.23 788.6,-142.33"/>
</g>
<!-- Node18 -->
<g id="node18" class="node">
<title>Node18</title>
<g id="a_node18"><a xlink:href="Face_8h.html" target="_top" xlink:title=" ">
<polygon fill="white" stroke="black" points="866.5,-168.5 866.5,-187.5 913.5,-187.5 913.5,-168.5 866.5,-168.5"/>
<text text-anchor="middle" x="890" y="-175.5" font-family="Helvetica,sans-Serif" font-size="10.00">Face.h</text>
</a>
</g>
</g>
<!-- Node15&#45;&gt;Node18 -->
<g id="edge32" class="edge">
<title>Node15&#45;&gt;Node18</title>
<path fill="none" stroke="midnightblue" d="M782.28,-224.44C803.35,-215.56 836.52,-201.56 860.49,-191.45"/>
<polygon fill="midnightblue" stroke="midnightblue" points="861.96,-194.63 869.81,-187.52 859.24,-188.18 861.96,-194.63"/>
</g>
<!-- Node19 -->
<g id="node19" class="node">
<title>Node19</title>
<g id="a_node19"><a xlink:title=" ">
<polygon fill="white" stroke="#bfbfbf" points="363,-168.5 363,-187.5 413,-187.5 413,-168.5 363,-168.5"/>
<text text-anchor="middle" x="388" y="-175.5" font-family="Helvetica,sans-Serif" font-size="10.00">stdio.h</text>
</a>
</g>
</g>
<!-- Node15&#45;&gt;Node19 -->
<g id="edge36" class="edge">
<title>Node15&#45;&gt;Node19</title>
<path fill="none" stroke="midnightblue" d="M733.14,-230.43C675.87,-225.07 543.69,-211.35 423.29,-188.03"/>
<polygon fill="midnightblue" stroke="midnightblue" points="423.66,-184.54 413.17,-186.04 422.31,-191.41 423.66,-184.54"/>
</g>
<!-- Node20 -->
<g id="node20" class="node">
<title>Node20</title>
<g id="a_node20"><a xlink:title=" ">
<polygon fill="white" stroke="#bfbfbf" points="431.5,-168.5 431.5,-187.5 484.5,-187.5 484.5,-168.5 431.5,-168.5"/>
<text text-anchor="middle" x="458" y="-175.5" font-family="Helvetica,sans-Serif" font-size="10.00">stdlib.h</text>
</a>
</g>
</g>
<!-- Node15&#45;&gt;Node20 -->
<g id="edge37" class="edge">
<title>Node15&#45;&gt;Node20</title>
<path fill="none" stroke="midnightblue" d="M733.3,-228.94C685.79,-222.05 587.61,-207.13 494.54,-187.97"/>
<polygon fill="midnightblue" stroke="midnightblue" points="495.19,-184.53 484.68,-185.92 493.76,-191.38 495.19,-184.53"/>
</g>
<!-- Node21 -->
<g id="node21" class="node">
<title>Node21</title>
<g id="a_node21"><a xlink:title=" ">
<polygon fill="white" stroke="#bfbfbf" points="503,-168.5 503,-187.5 559,-187.5 559,-168.5 503,-168.5"/>
<text text-anchor="middle" x="531" y="-175.5" font-family="Helvetica,sans-Serif" font-size="10.00">sstream</text>
</a>
</g>
</g>
<!-- Node15&#45;&gt;Node21 -->
<g id="edge38" class="edge">
<title>Node15&#45;&gt;Node21</title>
<path fill="none" stroke="midnightblue" d="M733.38,-226.46C697.36,-218.21 633.35,-203.48 569.16,-188.26"/>
<polygon fill="midnightblue" stroke="midnightblue" points="569.81,-184.82 559.27,-185.91 568.2,-191.63 569.81,-184.82"/>
</g>
<!-- Node22 -->
<g id="node22" class="node">
<title>Node22</title>
<g id="a_node22"><a xlink:title=" ">
<polygon fill="white" stroke="#bfbfbf" points="577.5,-168.5 577.5,-187.5 660.5,-187.5 660.5,-168.5 577.5,-168.5"/>
<text text-anchor="middle" x="619" y="-175.5" font-family="Helvetica,sans-Serif" font-size="10.00">GLFW/glfw3.h</text>
</a>
</g>
</g>
<!-- Node15&#45;&gt;Node22 -->
<g id="edge40" class="edge">
<title>Node15&#45;&gt;Node22</title>
<path fill="none" stroke="midnightblue" d="M739.34,-224.44C715.6,-215.48 678.09,-201.31 651.26,-191.18"/>
<polygon fill="midnightblue" stroke="midnightblue" points="652.14,-187.77 641.55,-187.52 649.67,-194.32 652.14,-187.77"/>
</g>
<!-- Node23 -->
<g id="node23" class="node">
<title>Node23</title>
<g id="a_node23"><a xlink:title=" ">
<polygon fill="white" stroke="#bfbfbf" points="932,-168.5 932,-187.5 1092,-187.5 1092,-168.5 932,-168.5"/>
<text text-anchor="middle" x="1012" y="-175.5" font-family="Helvetica,sans-Serif" font-size="10.00">glm/ext/scalar_constants.hpp</text>
</a>
</g>
</g>
<!-- Node15&#45;&gt;Node23 -->
<g id="edge43" class="edge">
<title>Node15&#45;&gt;Node23</title>
<path fill="none" stroke="midnightblue" d="M790.68,-226.81C832.64,-217.74 911.35,-200.74 962.71,-189.65"/>
<polygon fill="midnightblue" stroke="midnightblue" points="963.56,-193.04 972.6,-187.51 962.08,-186.2 963.56,-193.04"/>
</g>
<!-- Node17&#45;&gt;Node11 -->
<g id="edge31" class="edge">
<title>Node17&#45;&gt;Node11</title>
<path fill="none" stroke="midnightblue" d="M762.93,-114.62C758.32,-113.61 753.53,-112.68 749,-112 532.6,-79.33 269.71,-70.15 172.01,-67.77"/>
<polygon fill="midnightblue" stroke="midnightblue" points="171.81,-64.26 161.73,-67.53 171.64,-71.26 171.81,-64.26"/>
</g>
<!-- Node18&#45;&gt;Node2 -->
<g id="edge34" class="edge">
<title>Node18&#45;&gt;Node2</title>
<path fill="none" stroke="midnightblue" d="M887.6,-168.47C882.01,-148.68 867.64,-98.1 855,-56 852.35,-47.17 849.32,-37.4 846.76,-29.23"/>
<polygon fill="midnightblue" stroke="midnightblue" points="850.08,-28.1 843.74,-19.61 843.4,-30.2 850.08,-28.1"/>
</g>
<!-- Node18&#45;&gt;Node3 -->
<g id="edge35" class="edge">
<title>Node18&#45;&gt;Node3</title>
<path fill="none" stroke="midnightblue" d="M912.34,-168.44C935.75,-159.48 972.74,-145.31 999.19,-135.18"/>
<polygon fill="midnightblue" stroke="midnightblue" points="1000.68,-138.36 1008.76,-131.52 998.17,-131.82 1000.68,-138.36"/>
</g>
<!-- Node18&#45;&gt;Node17 -->
<g id="edge33" class="edge">
<title>Node18&#45;&gt;Node17</title>
<path fill="none" stroke="midnightblue" d="M873.61,-168.32C857.33,-159.7 832.13,-146.36 813.28,-136.39"/>
<polygon fill="midnightblue" stroke="midnightblue" points="814.82,-133.24 804.35,-131.65 811.55,-139.43 814.82,-133.24"/>
</g>
<!-- Node24&#45;&gt;Node15 -->
<g id="edge45" class="edge">
<title>Node24&#45;&gt;Node15</title>
<path fill="none" stroke="midnightblue" d="M762.83,-280.08C762.7,-273.01 762.52,-262.86 762.35,-253.99"/>
<polygon fill="midnightblue" stroke="midnightblue" points="765.85,-253.68 762.16,-243.75 758.85,-253.81 765.85,-253.68"/>
</g>
<!-- Node25&#45;&gt;Node2 -->
<g id="edge49" class="edge">
<title>Node25&#45;&gt;Node2</title>
<path fill="none" stroke="midnightblue" d="M462.91,-231.16C408.29,-227.29 300.95,-216.2 278,-188 272.39,-181.11 272.62,-175.08 278,-168 342.7,-82.79 682.86,-31.43 800.74,-15.97"/>
<polygon fill="midnightblue" stroke="midnightblue" points="801.32,-19.42 810.79,-14.67 800.42,-12.48 801.32,-19.42"/>
</g>
<!-- Node25&#45;&gt;Node3 -->
<g id="edge54" class="edge">
<title>Node25&#45;&gt;Node3</title>
<path fill="none" stroke="midnightblue" d="M462.83,-232.77C393.71,-231.25 241.28,-221.9 292,-168 304.25,-154.98 853.23,-130.61 996.89,-124.45"/>
<polygon fill="midnightblue" stroke="midnightblue" points="997.43,-127.93 1007.28,-124 997.13,-120.93 997.43,-127.93"/>
</g>
<!-- Node25&#45;&gt;Node8 -->
<g id="edge52" class="edge">
<title>Node25&#45;&gt;Node8</title>
<path fill="none" stroke="midnightblue" d="M527.35,-231.84C635.76,-227.81 996.08,-213.26 1293,-188 1304.91,-186.99 1317.81,-185.63 1329.66,-184.27"/>
<polygon fill="midnightblue" stroke="midnightblue" points="1330.23,-187.73 1339.75,-183.1 1329.42,-180.78 1330.23,-187.73"/>
</g>
<!-- Node25&#45;&gt;Node16 -->
<g id="edge50" class="edge">
<title>Node25&#45;&gt;Node16</title>
<path fill="none" stroke="midnightblue" d="M527.05,-224.8C565.09,-215.06 628.45,-198.85 668.67,-188.55"/>
<polygon fill="midnightblue" stroke="midnightblue" points="669.55,-191.94 678.37,-186.07 667.82,-185.16 669.55,-191.94"/>
</g>
<!-- Node25&#45;&gt;Node19 -->
<g id="edge47" class="edge">
<title>Node25&#45;&gt;Node19</title>
<path fill="none" stroke="midnightblue" d="M477.81,-224.32C460.65,-215.66 434.05,-202.24 414.25,-192.25"/>
<polygon fill="midnightblue" stroke="midnightblue" points="415.65,-189.04 405.15,-187.65 412.5,-195.28 415.65,-189.04"/>
</g>
<!-- Node25&#45;&gt;Node20 -->
<g id="edge48" class="edge">
<title>Node25&#45;&gt;Node20</title>
<path fill="none" stroke="midnightblue" d="M488.89,-224.08C483.72,-216.53 476.15,-205.49 469.81,-196.23"/>
<polygon fill="midnightblue" stroke="midnightblue" points="472.54,-194.02 464,-187.75 466.76,-197.98 472.54,-194.02"/>
</g>
<!-- Node25&#45;&gt;Node21 -->
<g id="edge51" class="edge">
<title>Node25&#45;&gt;Node21</title>
<path fill="none" stroke="midnightblue" d="M500.94,-224.08C505.98,-216.53 513.34,-205.49 519.51,-196.23"/>
<polygon fill="midnightblue" stroke="midnightblue" points="522.53,-198.01 525.17,-187.75 516.71,-194.13 522.53,-198.01"/>
</g>
<!-- Node25&#45;&gt;Node22 -->
<g id="edge53" class="edge">
<title>Node25&#45;&gt;Node22</title>
<path fill="none" stroke="midnightblue" d="M514.65,-224.44C534.96,-215.6 566.9,-201.69 590.1,-191.59"/>
<polygon fill="midnightblue" stroke="midnightblue" points="591.67,-194.72 599.44,-187.52 588.88,-188.3 591.67,-194.72"/>
</g>
<!-- Node26 -->
<g id="node26" class="node">
<title>Node26</title>
<g id="a_node26"><a xlink:title=" ">
<polygon fill="white" stroke="#bfbfbf" points="301,-168.5 301,-187.5 345,-187.5 345,-168.5 301,-168.5"/>
<text text-anchor="middle" x="323" y="-175.5" font-family="Helvetica,sans-Serif" font-size="10.00">string</text>
</a>
</g>
</g>
<!-- Node25&#45;&gt;Node26 -->
<g id="edge55" class="edge">
<title>Node25&#45;&gt;Node26</title>
<path fill="none" stroke="midnightblue" d="M467.75,-224.44C437.15,-214.84 387.54,-199.26 355.09,-189.07"/>
<polygon fill="midnightblue" stroke="midnightblue" points="355.79,-185.63 345.2,-185.97 353.7,-192.31 355.79,-185.63"/>
</g>
<!-- Node27&#45;&gt;Node4 -->
<g id="edge57" class="edge">
<title>Node27&#45;&gt;Node4</title>
<path fill="none" stroke="midnightblue" d="M1327.88,-338.81C1368.58,-329.76 1444.85,-312.81 1494.78,-301.72"/>
<polygon fill="midnightblue" stroke="midnightblue" points="1495.7,-305.1 1504.7,-299.51 1494.18,-298.26 1495.7,-305.1"/>
</g>
<!-- Node27&#45;&gt;Node5 -->
<g id="edge58" class="edge">
<title>Node27&#45;&gt;Node5</title>
<path fill="none" stroke="midnightblue" d="M1284.85,-336.27C1260.6,-321.19 1214.41,-287.66 1201,-244 1198.39,-235.5 1198.17,-232.43 1201,-224 1204.6,-213.25 1211.9,-203.02 1218.82,-195.04"/>
<polygon fill="midnightblue" stroke="midnightblue" points="1221.48,-197.32 1225.71,-187.61 1216.35,-192.56 1221.48,-197.32"/>
</g>
<!-- Node27&#45;&gt;Node6 -->
<g id="edge59" class="edge">
<title>Node27&#45;&gt;Node6</title>
<path fill="none" stroke="midnightblue" d="M1327.51,-338.64C1358.73,-331.04 1410.92,-317.16 1454,-300 1472.1,-292.79 1475.25,-288.03 1493,-280 1571.4,-244.54 1666.18,-208.98 1715.5,-191.02"/>
<polygon fill="midnightblue" stroke="midnightblue" points="1716.82,-194.26 1725.03,-187.56 1714.43,-187.68 1716.82,-194.26"/>
</g>
<!-- Node27&#45;&gt;Node7 -->
<g id="edge60" class="edge">
<title>Node27&#45;&gt;Node7</title>
<path fill="none" stroke="midnightblue" d="M1327.61,-341.09C1378.13,-333.86 1489.05,-317.69 1592.96,-300.13"/>
<polygon fill="midnightblue" stroke="midnightblue" points="1593.71,-303.55 1602.99,-298.43 1592.54,-296.65 1593.71,-303.55"/>
</g>
<!-- Node27&#45;&gt;Node8 -->
<g id="edge61" class="edge">
<title>Node27&#45;&gt;Node8</title>
<path fill="none" stroke="midnightblue" d="M1291.24,-336.18C1279.55,-323.28 1261.54,-298.78 1273,-280 1291.22,-250.14 1318.96,-269.41 1343,-244 1355.33,-230.97 1363,-211.81 1367.33,-197.67"/>
<polygon fill="midnightblue" stroke="midnightblue" points="1370.82,-198.18 1370.12,-187.61 1364.08,-196.32 1370.82,-198.18"/>
</g>
<!-- Node28 -->
<g id="node28" class="node">
<title>Node28</title>
<g id="a_node28"><a xlink:title=" ">
<polygon fill="white" stroke="#bfbfbf" points="1281.5,-280.5 1281.5,-299.5 1444.5,-299.5 1444.5,-280.5 1281.5,-280.5"/>
<text text-anchor="middle" x="1363" y="-287.5" font-family="Helvetica,sans-Serif" font-size="10.00">glm/gtc/matrix_transform.hpp</text>
</a>
</g>
</g>
<!-- Node27&#45;&gt;Node28 -->
<g id="edge62" class="edge">
<title>Node27&#45;&gt;Node28</title>
<path fill="none" stroke="midnightblue" d="M1310.12,-336.32C1319.53,-328.26 1333.74,-316.08 1345.07,-306.37"/>
<polygon fill="midnightblue" stroke="midnightblue" points="1347.38,-309 1352.69,-299.83 1342.82,-303.68 1347.38,-309"/>
</g>
<!-- Node29&#45;&gt;Node2 -->
<g id="edge64" class="edge">
<title>Node29&#45;&gt;Node2</title>
<path fill="none" stroke="midnightblue" d="M824.68,-397.08C713.16,-376.91 223.59,-281.49 270,-168 283.2,-135.71 295.62,-130.81 325,-112 387.04,-72.28 409.35,-73.12 481,-56 594.98,-28.77 733.43,-17.35 800.58,-13.14"/>
<polygon fill="midnightblue" stroke="midnightblue" points="800.96,-16.63 810.73,-12.53 800.54,-9.64 800.96,-16.63"/>
</g>
<!-- Node29&#45;&gt;Node3 -->
<g id="edge65" class="edge">
<title>Node29&#45;&gt;Node3</title>
<path fill="none" stroke="midnightblue" d="M835.73,-392.43C826.03,-384.27 812.72,-371.05 807,-356 793.65,-320.88 815.29,-304.23 844,-280 891.14,-240.21 912.61,-243.9 971,-224 1034.26,-202.44 1075.79,-240.61 1117,-188 1135.75,-164.07 1096.09,-144.34 1064.59,-133.11"/>
<polygon fill="midnightblue" stroke="midnightblue" points="1065.33,-129.67 1054.73,-129.77 1063.08,-136.3 1065.33,-129.67"/>
</g>
<!-- Node29&#45;&gt;Node4 -->
<g id="edge66" class="edge">
<title>Node29&#45;&gt;Node4</title>
<path fill="none" stroke="midnightblue" d="M854.43,-392.29C867.54,-377.61 896.42,-348.33 928,-336 1037.14,-293.38 1337.26,-309.9 1454,-300 1466.09,-298.98 1479.09,-297.74 1491.32,-296.51"/>
<polygon fill="midnightblue" stroke="midnightblue" points="1491.78,-299.98 1501.37,-295.49 1491.07,-293.02 1491.78,-299.98"/>
</g>
<!-- Node29&#45;&gt;Node5 -->
<g id="edge67" class="edge">
<title>Node29&#45;&gt;Node5</title>
<path fill="none" stroke="midnightblue" d="M836.83,-392.17C823.72,-379.66 803.78,-356.07 814,-336 833.2,-298.29 853.56,-299.72 891,-280 984.57,-230.73 1105.45,-202.37 1176.18,-188.87"/>
<polygon fill="midnightblue" stroke="midnightblue" points="1177.06,-192.27 1186.25,-186.98 1175.77,-185.39 1177.06,-192.27"/>
</g>
<!-- Node29&#45;&gt;Node6 -->
<g id="edge68" class="edge">
<title>Node29&#45;&gt;Node6</title>
<path fill="none" stroke="midnightblue" d="M850.04,-392.19C855.46,-377.9 868.22,-349.88 889,-336 1014.08,-252.46 1460.99,-204.17 1656.41,-186.62"/>
<polygon fill="midnightblue" stroke="midnightblue" points="1657.01,-190.08 1666.66,-185.71 1656.39,-183.11 1657.01,-190.08"/>
</g>
<!-- Node29&#45;&gt;Node7 -->
<g id="edge69" class="edge">
<title>Node29&#45;&gt;Node7</title>
<path fill="none" stroke="midnightblue" d="M861.52,-392.49C891.01,-375.22 955.62,-337.59 961,-336 1093.08,-296.95 1438.17,-316.11 1592.44,-299.95"/>
<polygon fill="midnightblue" stroke="midnightblue" points="1593.23,-303.38 1602.77,-298.78 1592.44,-296.43 1593.23,-303.38"/>
</g>
<!-- Node29&#45;&gt;Node8 -->
<g id="edge70" class="edge">
<title>Node29&#45;&gt;Node8</title>
<path fill="none" stroke="midnightblue" d="M844.96,-392.39C842.29,-378.87 839.32,-352.52 852,-336 911.63,-258.28 1216.98,-203.3 1329.92,-185.34"/>
<polygon fill="midnightblue" stroke="midnightblue" points="1330.59,-188.78 1339.93,-183.77 1329.5,-181.87 1330.59,-188.78"/>
</g>
<!-- Node29&#45;&gt;Node10 -->
<g id="edge71" class="edge">
<title>Node29&#45;&gt;Node10</title>
<path fill="none" stroke="midnightblue" d="M824.87,-400.31C740.13,-397.46 436.43,-385.39 345,-356 251.68,-326 231.78,-304.94 155,-244 136.59,-229.39 118.37,-209.45 106.49,-195.52"/>
<polygon fill="midnightblue" stroke="midnightblue" points="109.07,-193.16 99.97,-187.73 103.7,-197.65 109.07,-193.16"/>
</g>
<!-- Node29&#45;&gt;Node13 -->
<g id="edge72" class="edge">
<title>Node29&#45;&gt;Node13</title>
<path fill="none" stroke="midnightblue" d="M869.28,-393.03C894.38,-384.06 935.44,-369.37 964.43,-359.01"/>
<polygon fill="midnightblue" stroke="midnightblue" points="965.89,-362.2 974.13,-355.54 963.54,-355.61 965.89,-362.2"/>
</g>
<!-- Node29&#45;&gt;Node25 -->
<g id="edge73" class="edge">
<title>Node29&#45;&gt;Node25</title>
<path fill="none" stroke="midnightblue" d="M825.09,-392.48C802.94,-383.75 767.82,-369.56 738,-356 657.43,-319.37 564.3,-271.36 520.4,-248.39"/>
<polygon fill="midnightblue" stroke="midnightblue" points="521.79,-245.17 511.31,-243.62 518.54,-251.36 521.79,-245.17"/>
</g>
<!-- Node29&#45;&gt;Node27 -->
<g id="edge74" class="edge">
<title>Node29&#45;&gt;Node27</title>
<path fill="none" stroke="midnightblue" d="M869.16,-398.36C941.43,-389.74 1170.94,-362.39 1262.12,-351.52"/>
<polygon fill="midnightblue" stroke="midnightblue" points="1262.77,-354.96 1272.28,-350.3 1261.94,-348.01 1262.77,-354.96"/>
</g>
<!-- Node30&#45;&gt;Node2 -->
<g id="edge76" class="edge">
<title>Node30&#45;&gt;Node2</title>
<path fill="none" stroke="midnightblue" d="M1781.18,-396.57C1849.29,-384.42 2013,-343.88 2013,-235 2013,-235 2013,-235 2013,-121 2013,-26.69 1903.81,-72.78 1811,-56 1628.15,-22.95 1040.99,-13.45 881.38,-11.45"/>
<polygon fill="midnightblue" stroke="midnightblue" points="881.1,-7.95 871.06,-11.32 881.02,-14.95 881.1,-7.95"/>
</g>
<!-- Node30&#45;&gt;Node3 -->
<g id="edge77" class="edge">
<title>Node30&#45;&gt;Node3</title>
<path fill="none" stroke="midnightblue" d="M1780.61,-392.5C1808.44,-383.6 1847.83,-369.13 1857,-356 1905.04,-287.22 1905.11,-220.91 1840,-168 1809.48,-143.2 1214.81,-127.39 1065.02,-123.79"/>
<polygon fill="midnightblue" stroke="midnightblue" points="1064.71,-120.28 1054.63,-123.54 1064.54,-127.28 1064.71,-120.28"/>
</g>
<!-- Node30&#45;&gt;Node4 -->
<g id="edge78" class="edge">
<title>Node30&#45;&gt;Node4</title>
<path fill="none" stroke="midnightblue" d="M1735.6,-392.37C1699.28,-373.25 1611.84,-327.23 1568.39,-304.36"/>
<polygon fill="midnightblue" stroke="midnightblue" points="1569.8,-301.15 1559.32,-299.59 1566.54,-307.35 1569.8,-301.15"/>
</g>
<!-- Node30&#45;&gt;Node5 -->
<g id="edge79" class="edge">
<title>Node30&#45;&gt;Node5</title>
<path fill="none" stroke="midnightblue" d="M1750.23,-392.36C1745.18,-369.96 1728.48,-309.73 1690,-280 1628.36,-232.37 1402.06,-199.25 1293.66,-185.76"/>
<polygon fill="midnightblue" stroke="midnightblue" points="1293.89,-182.27 1283.54,-184.52 1293.04,-189.21 1293.89,-182.27"/>
</g>
<!-- Node30&#45;&gt;Node6 -->
<g id="edge80" class="edge">
<title>Node30&#45;&gt;Node6</title>
<path fill="none" stroke="midnightblue" d="M1781.01,-394.98C1801.95,-388.96 1828.77,-377.4 1842,-356 1846.67,-348.44 1842.2,-344.89 1842,-336 1840.89,-286.19 1863.95,-265.91 1837,-224 1827.07,-208.56 1810.07,-198.16 1793.64,-191.29"/>
<polygon fill="midnightblue" stroke="midnightblue" points="1794.68,-187.94 1784.09,-187.64 1792.18,-194.48 1794.68,-187.94"/>
</g>
<!-- Node30&#45;&gt;Node7 -->
<g id="edge81" class="edge">
<title>Node30&#45;&gt;Node7</title>
<path fill="none" stroke="midnightblue" d="M1744.12,-392.44C1732.49,-379.87 1709.93,-355.76 1690,-336 1679.96,-326.05 1668.41,-315.2 1659.16,-306.65"/>
<polygon fill="midnightblue" stroke="midnightblue" points="1661.44,-304 1651.71,-299.81 1656.71,-309.15 1661.44,-304"/>
</g>
<!-- Node30&#45;&gt;Node8 -->
<g id="edge82" class="edge">
<title>Node30&#45;&gt;Node8</title>
<path fill="none" stroke="midnightblue" d="M1756.29,-392.2C1766.2,-370.46 1787.86,-313.55 1761,-280 1717.49,-225.65 1505.43,-194.66 1414.04,-183.64"/>
<polygon fill="midnightblue" stroke="midnightblue" points="1414.37,-180.15 1404.03,-182.45 1413.55,-187.1 1414.37,-180.15"/>
</g>
<!-- Node30&#45;&gt;Node13 -->
<g id="edge83" class="edge">
<title>Node30&#45;&gt;Node13</title>
<path fill="none" stroke="midnightblue" d="M1722.9,-398.92C1605.78,-390.53 1168.72,-359.23 1036.28,-349.74"/>
<polygon fill="midnightblue" stroke="midnightblue" points="1036.43,-346.24 1026.2,-349.02 1035.93,-353.23 1036.43,-346.24"/>
</g>
</g>
</svg>
        <g id="navigator" transform="translate(0 0)" fill="#404254">
                <rect fill="#f2f5e9" fill-opacity="0.5" stroke="#606060" stroke-width=".5" x="0" y="0" width="60" height="60"/>
                <use id="zoomplus" xlink:href="#zoomPlus" x="17" y="9" onmousedown="handleZoom(evt,'in')"/>
                <use id="zoomminus" xlink:href="#zoomMin" x="42" y="9" onmousedown="handleZoom(evt,'out')"/>
                <use id="reset" xlink:href="#resetDef" x="30" y="36" onmousedown="handleReset()"/>
                <g id="arrowUp" xlink:href="#dirArrow" transform="translate(30 24)" onmousedown="handlePan(0,-1)">
                  <use xlink:href="#rim" fill="#404040">
                        <set attributeName="fill" to="#808080" begin="arrowUp.mouseover" end="arrowUp.mouseout"/>
                  </use>
                  <path fill="none" stroke="white" stroke-width="1.5" d="M0,-3.0v7 M-2.5,-0.5L0,-3.0L2.5,-0.5"/>
                </g>
                <g id="arrowRight" xlink:href="#dirArrow" transform="rotate(90) translate(36 -43)" onmousedown="handlePan(1,0)">
                  <use xlink:href="#rim" fill="#404040">
                        <set attributeName="fill" to="#808080" begin="arrowRight.mouseover" end="arrowRight.mouseout"/>
                  </use>
                  <path fill="none" stroke="white" stroke-width="1.5" d="M0,-3.0v7 M-2.5,-0.5L0,-3.0L2.5,-0.5"/>
                </g>
                <g id="arrowDown" xlink:href="#dirArrow" transform="rotate(180) translate(-30 -48)" onmousedown="handlePan(0,1)">
                  <use xlink:href="#rim" fill="#404040">
                        <set attributeName="fill" to="#808080" begin="arrowDown.mouseover" end="arrowDown.mouseout"/>
                  </use>
                  <path fill="none" stroke="white" stroke-width="1.5" d="M0,-3.0v7 M-2.5,-0.5L0,-3.0L2.5,-0.5"/>
                </g>
                <g id="arrowLeft" xlink:href="#dirArrow" transform="rotate(270) translate(-36 17)" onmousedown="handlePan(-1,0)">
                  <use xlink:href="#rim" fill="#404040">
                        <set attributeName="fill" to="#808080" begin="arrowLeft.mouseover" end="arrowLeft.mouseout"/>
                  </use>
                  <path fill="none" stroke="white" stroke-width="1.5" d="M0,-3.0v7 M-2.5,-0.5L0,-3.0L2.5,-0.5"/>
                </g>
        </g>
        <svg viewBox="0 0 15 15" width="100%" height="30px" preserveAspectRatio="xMaxYMin meet">
         <g id="arrow_out" transform="scale(0.3 0.3)">
          <a xlink:href="Simulation_8h__incl_org.svg" target="_base">
           <rect id="button" ry="5" rx="5" y="6" x="6" height="38" width="38"
                fill="#f2f5e9" fill-opacity="0.5" stroke="#606060" stroke-width="1.0"/>
           <path id="arrow"
             d="M 11.500037,31.436501 C 11.940474,20.09759 22.043105,11.32322 32.158766,21.979434 L 37.068811,17.246167 C 37.068811,17.246167 37.088388,32 37.088388,32 L 22.160133,31.978069 C 22.160133,31.978069 26.997745,27.140456 26.997745,27.140456 C 18.528582,18.264221 13.291696,25.230495 11.500037,31.436501 z"
             style="fill:#404040;"/>
          </a>
         </g>
        </svg>
</svg>
