<?xml version="1.0" encoding="UTF-8" standalone="no"?>
<!DOCTYPE svg PUBLIC "-//W3C//DTD SVG 1.1//EN"
 "http://www.w3.org/Graphics/SVG/1.1/DTD/svg11.dtd">
<!-- Generated by graphviz version 2.43.0 (0)
 -->
<!-- Title: include/Vertex.h Pages: 1 -->
<svg width="800pt" height="532pt"
 viewBox="0.00 0.00 799.50 532.00" xmlns="http://www.w3.org/2000/svg" xmlns:xlink="http://www.w3.org/1999/xlink">
<g id="graph0" class="graph" transform="scale(1 1) rotate(0) translate(4 528)">
<title>include/Vertex.h</title>
<polygon fill="white" stroke="transparent" points="-4,4 -4,-528 795.5,-528 795.5,4 -4,4"/>
<!-- Node1 -->
<g id="node1" class="node">
<title>Node1</title>
<g id="a_node1"><a xlink:title=" ">
<polygon fill="#bfbfbf" stroke="black" points="372.5,-504.5 372.5,-523.5 467.5,-523.5 467.5,-504.5 372.5,-504.5"/>
<text text-anchor="middle" x="420" y="-511.5" font-family="Helvetica,sans-Serif" font-size="10.00">include/Vertex.h</text>
</a>
</g>
</g>
<!-- Node2 -->
<g id="node2" class="node">
<title>Node2</title>
<g id="a_node2"><a xlink:href="Animation_8h.html" target="_top" xlink:title=" ">
<polygon fill="white" stroke="black" points="185,-224.5 185,-243.5 299,-243.5 299,-224.5 185,-224.5"/>
<text text-anchor="middle" x="242" y="-231.5" font-family="Helvetica,sans-Serif" font-size="10.00">include/Animation.h</text>
</a>
</g>
</g>
<!-- Node1&#45;&gt;Node2 -->
<g id="edge1" class="edge">
<title>Node1&#45;&gt;Node2</title>
<path fill="none" stroke="midnightblue" d="M385.6,-500.44C347.99,-484.23 293,-452.13 293,-403 293,-403 293,-403 293,-345 293,-303.95 263.41,-261.61 249.31,-243.77"/>
<polygon fill="midnightblue" stroke="midnightblue" points="384.63,-503.83 395.21,-504.41 387.3,-497.36 384.63,-503.83"/>
</g>
<!-- Node4 -->
<g id="node4" class="node">
<title>Node4</title>
<g id="a_node4"><a xlink:href="Simulation_8h.html" target="_top" xlink:title=" ">
<polygon fill="white" stroke="black" points="364,-112.5 364,-131.5 480,-131.5 480,-112.5 364,-112.5"/>
<text text-anchor="middle" x="422" y="-119.5" font-family="Helvetica,sans-Serif" font-size="10.00">include/Simulation.h</text>
</a>
</g>
</g>
<!-- Node1&#45;&gt;Node4 -->
<g id="edge40" class="edge">
<title>Node1&#45;&gt;Node4</title>
<path fill="none" stroke="midnightblue" d="M409.86,-495.43C398.6,-474.24 382,-437.19 382,-403 382,-403 382,-403 382,-233 382,-193.17 405.45,-149.85 416.44,-131.73"/>
<polygon fill="midnightblue" stroke="midnightblue" points="406.82,-497.17 414.72,-504.23 412.95,-493.78 406.82,-497.17"/>
</g>
<!-- Node13 -->
<g id="node13" class="node">
<title>Node13</title>
<g id="a_node13"><a xlink:href="Edge_8h.html" target="_top" xlink:title=" ">
<polygon fill="white" stroke="black" points="448,-448.5 448,-467.5 536,-467.5 536,-448.5 448,-448.5"/>
<text text-anchor="middle" x="492" y="-455.5" font-family="Helvetica,sans-Serif" font-size="10.00">include/Edge.h</text>
</a>
</g>
</g>
<!-- Node1&#45;&gt;Node13 -->
<g id="edge15" class="edge">
<title>Node1&#45;&gt;Node13</title>
<path fill="none" stroke="midnightblue" d="M439.87,-498.1C452.82,-488.38 469.3,-476.03 480.22,-467.83"/>
<polygon fill="midnightblue" stroke="midnightblue" points="437.47,-495.52 431.57,-504.32 441.67,-501.12 437.47,-495.52"/>
</g>
<!-- Node15 -->
<g id="node15" class="node">
<title>Node15</title>
<g id="a_node15"><a xlink:href="Object_8h.html" target="_top" xlink:title=" ">
<polygon fill="white" stroke="black" points="410.5,-336.5 410.5,-355.5 505.5,-355.5 505.5,-336.5 410.5,-336.5"/>
<text text-anchor="middle" x="458" y="-343.5" font-family="Helvetica,sans-Serif" font-size="10.00">include/Object.h</text>
</a>
</g>
</g>
<!-- Node1&#45;&gt;Node15 -->
<g id="edge39" class="edge">
<title>Node1&#45;&gt;Node15</title>
<path fill="none" stroke="midnightblue" d="M424.37,-493.93C432.61,-457.92 450.16,-381.23 456.04,-355.57"/>
<polygon fill="midnightblue" stroke="midnightblue" points="420.86,-493.55 422.04,-504.08 427.69,-495.11 420.86,-493.55"/>
</g>
<!-- Node28 -->
<g id="node28" class="node">
<title>Node28</title>
<g id="a_node28"><a xlink:href="Vertex_8cpp.html" target="_top" xlink:title=" ">
<polygon fill="white" stroke="black" points="554,-448.5 554,-467.5 640,-467.5 640,-448.5 554,-448.5"/>
<text text-anchor="middle" x="597" y="-455.5" font-family="Helvetica,sans-Serif" font-size="10.00">src/Vertex.cpp</text>
</a>
</g>
</g>
<!-- Node1&#45;&gt;Node28 -->
<g id="edge41" class="edge">
<title>Node1&#45;&gt;Node28</title>
<path fill="none" stroke="midnightblue" d="M457.9,-501.44C491.28,-491.26 539.1,-476.66 569.09,-467.52"/>
<polygon fill="midnightblue" stroke="midnightblue" points="456.59,-498.18 448.05,-504.44 458.63,-504.87 456.59,-498.18"/>
</g>
<!-- Node3 -->
<g id="node3" class="node">
<title>Node3</title>
<g id="a_node3"><a xlink:href="Ball_8h.html" target="_top" xlink:title=" ">
<polygon fill="white" stroke="black" points="270.5,-168.5 270.5,-187.5 353.5,-187.5 353.5,-168.5 270.5,-168.5"/>
<text text-anchor="middle" x="312" y="-175.5" font-family="Helvetica,sans-Serif" font-size="10.00">include/Ball.h</text>
</a>
</g>
</g>
<!-- Node2&#45;&gt;Node3 -->
<g id="edge2" class="edge">
<title>Node2&#45;&gt;Node3</title>
<path fill="none" stroke="midnightblue" d="M261.31,-218.1C273.91,-208.38 289.93,-196.03 300.55,-187.83"/>
<polygon fill="midnightblue" stroke="midnightblue" points="259.03,-215.44 253.25,-224.32 263.3,-220.99 259.03,-215.44"/>
</g>
<!-- Node2&#45;&gt;Node4 -->
<g id="edge13" class="edge">
<title>Node2&#45;&gt;Node4</title>
<path fill="none" stroke="midnightblue" d="M242.77,-213.75C244.38,-199.29 248.86,-180 261,-168 276.69,-152.5 330.51,-139.54 371.64,-131.57"/>
<polygon fill="midnightblue" stroke="midnightblue" points="239.26,-213.85 242.01,-224.08 246.24,-214.36 239.26,-213.85"/>
</g>
<!-- Node10 -->
<g id="node10" class="node">
<title>Node10</title>
<g id="a_node10"><a xlink:href="Robot_8h.html" target="_top" xlink:title=" ">
<polygon fill="white" stroke="black" points="122,-168.5 122,-187.5 214,-187.5 214,-168.5 122,-168.5"/>
<text text-anchor="middle" x="168" y="-175.5" font-family="Helvetica,sans-Serif" font-size="10.00">include/Robot.h</text>
</a>
</g>
</g>
<!-- Node2&#45;&gt;Node10 -->
<g id="edge10" class="edge">
<title>Node2&#45;&gt;Node10</title>
<path fill="none" stroke="midnightblue" d="M221.97,-218.38C208.59,-208.62 191.44,-196.11 180.11,-187.83"/>
<polygon fill="midnightblue" stroke="midnightblue" points="219.97,-221.26 230.11,-224.32 224.1,-215.6 219.97,-221.26"/>
</g>
<!-- Node12 -->
<g id="node12" class="node">
<title>Node12</title>
<g id="a_node12"><a xlink:href="Animation_8cpp.html" target="_top" xlink:title=" ">
<polygon fill="white" stroke="black" points="0,-168.5 0,-187.5 104,-187.5 104,-168.5 0,-168.5"/>
<text text-anchor="middle" x="52" y="-175.5" font-family="Helvetica,sans-Serif" font-size="10.00">src/Animation.cpp</text>
</a>
</g>
</g>
<!-- Node2&#45;&gt;Node12 -->
<g id="edge14" class="edge">
<title>Node2&#45;&gt;Node12</title>
<path fill="none" stroke="midnightblue" d="M202.24,-221.7C166.38,-211.51 114.43,-196.74 81.97,-187.52"/>
<polygon fill="midnightblue" stroke="midnightblue" points="201.32,-225.08 211.89,-224.44 203.23,-218.34 201.32,-225.08"/>
</g>
<!-- Node3&#45;&gt;Node4 -->
<g id="edge3" class="edge">
<title>Node3&#45;&gt;Node4</title>
<path fill="none" stroke="midnightblue" d="M338.76,-163.86C359.16,-153.85 386.67,-140.35 404.37,-131.65"/>
<polygon fill="midnightblue" stroke="midnightblue" points="337.11,-160.78 329.67,-168.32 340.19,-167.06 337.11,-160.78"/>
</g>
<!-- Node9 -->
<g id="node9" class="node">
<title>Node9</title>
<g id="a_node9"><a xlink:href="Ball_8cpp.html" target="_top" xlink:title=" ">
<polygon fill="white" stroke="black" points="272.5,-112.5 272.5,-131.5 345.5,-131.5 345.5,-112.5 272.5,-112.5"/>
<text text-anchor="middle" x="309" y="-119.5" font-family="Helvetica,sans-Serif" font-size="10.00">src/Ball.cpp</text>
</a>
</g>
</g>
<!-- Node3&#45;&gt;Node9 -->
<g id="edge9" class="edge">
<title>Node3&#45;&gt;Node9</title>
<path fill="none" stroke="midnightblue" d="M310.93,-157.8C310.44,-148.91 309.88,-138.78 309.49,-131.75"/>
<polygon fill="midnightblue" stroke="midnightblue" points="307.46,-158.29 311.5,-168.08 314.44,-157.9 307.46,-158.29"/>
</g>
<!-- Node5 -->
<g id="node5" class="node">
<title>Node5</title>
<g id="a_node5"><a xlink:href="Scene_8h.html" target="_top" xlink:title=" ">
<polygon fill="white" stroke="black" points="375.5,-56.5 375.5,-75.5 468.5,-75.5 468.5,-56.5 375.5,-56.5"/>
<text text-anchor="middle" x="422" y="-63.5" font-family="Helvetica,sans-Serif" font-size="10.00">include/Scene.h</text>
</a>
</g>
</g>
<!-- Node4&#45;&gt;Node5 -->
<g id="edge4" class="edge">
<title>Node4&#45;&gt;Node5</title>
<path fill="none" stroke="midnightblue" d="M415.53,-102.1C414.9,-93.14 415.34,-82.86 416.87,-75.75"/>
<polygon fill="midnightblue" stroke="midnightblue" points="412.07,-102.62 416.83,-112.08 419.01,-101.71 412.07,-102.62"/>
</g>
<!-- Node8 -->
<g id="node8" class="node">
<title>Node8</title>
<g id="a_node8"><a xlink:href="Simulation_8cpp.html" target="_top" xlink:title=" ">
<polygon fill="white" stroke="black" points="486.5,-56.5 486.5,-75.5 593.5,-75.5 593.5,-56.5 486.5,-56.5"/>
<text text-anchor="middle" x="540" y="-63.5" font-family="Helvetica,sans-Serif" font-size="10.00">src/Simulation.cpp</text>
</a>
</g>
</g>
<!-- Node4&#45;&gt;Node8 -->
<g id="edge8" class="edge">
<title>Node4&#45;&gt;Node8</title>
<path fill="none" stroke="midnightblue" d="M449.9,-108.23C471.97,-98.13 502.18,-84.31 521.39,-75.52"/>
<polygon fill="midnightblue" stroke="midnightblue" points="448.33,-105.1 440.7,-112.44 451.25,-111.46 448.33,-105.1"/>
</g>
<!-- Node5&#45;&gt;Node4 -->
<g id="edge5" class="edge">
<title>Node5&#45;&gt;Node4</title>
<path fill="none" stroke="midnightblue" d="M428.46,-85.69C429.11,-94.64 428.68,-104.93 427.17,-112.08"/>
<polygon fill="midnightblue" stroke="midnightblue" points="431.92,-85.2 427.13,-75.75 424.98,-86.13 431.92,-85.2"/>
</g>
<!-- Node6 -->
<g id="node6" class="node">
<title>Node6</title>
<g id="a_node6"><a xlink:href="main_8cpp.html" target="_top" xlink:title=" ">
<polygon fill="white" stroke="black" points="346,-0.5 346,-19.5 408,-19.5 408,-0.5 346,-0.5"/>
<text text-anchor="middle" x="377" y="-7.5" font-family="Helvetica,sans-Serif" font-size="10.00">main.cpp</text>
</a>
</g>
</g>
<!-- Node5&#45;&gt;Node6 -->
<g id="edge6" class="edge">
<title>Node5&#45;&gt;Node6</title>
<path fill="none" stroke="midnightblue" d="M407.95,-48.14C400.11,-38.74 390.67,-27.4 384.29,-19.75"/>
<polygon fill="midnightblue" stroke="midnightblue" points="405.48,-50.64 414.57,-56.08 410.86,-46.16 405.48,-50.64"/>
</g>
<!-- Node7 -->
<g id="node7" class="node">
<title>Node7</title>
<g id="a_node7"><a xlink:href="Scene_8cpp.html" target="_top" xlink:title=" ">
<polygon fill="white" stroke="black" points="426.5,-0.5 426.5,-19.5 509.5,-19.5 509.5,-0.5 426.5,-0.5"/>
<text text-anchor="middle" x="468" y="-7.5" font-family="Helvetica,sans-Serif" font-size="10.00">src/Scene.cpp</text>
</a>
</g>
</g>
<!-- Node5&#45;&gt;Node7 -->
<g id="edge7" class="edge">
<title>Node5&#45;&gt;Node7</title>
<path fill="none" stroke="midnightblue" d="M436.11,-48.43C444.18,-38.97 453.96,-27.48 460.55,-19.75"/>
<polygon fill="midnightblue" stroke="midnightblue" points="433.42,-46.2 429.6,-56.08 438.75,-50.74 433.42,-46.2"/>
</g>
<!-- Node10&#45;&gt;Node4 -->
<g id="edge11" class="edge">
<title>Node10&#45;&gt;Node4</title>
<path fill="none" stroke="midnightblue" d="M218.12,-166.35C266.12,-156.14 337.62,-140.94 381.94,-131.52"/>
<polygon fill="midnightblue" stroke="midnightblue" points="217.3,-162.94 208.25,-168.44 218.76,-169.79 217.3,-162.94"/>
</g>
<!-- Node11 -->
<g id="node11" class="node">
<title>Node11</title>
<g id="a_node11"><a xlink:href="Robot_8cpp.html" target="_top" xlink:title=" ">
<polygon fill="white" stroke="black" points="126.5,-112.5 126.5,-131.5 209.5,-131.5 209.5,-112.5 126.5,-112.5"/>
<text text-anchor="middle" x="168" y="-119.5" font-family="Helvetica,sans-Serif" font-size="10.00">src/Robot.cpp</text>
</a>
</g>
</g>
<!-- Node10&#45;&gt;Node11 -->
<g id="edge12" class="edge">
<title>Node10&#45;&gt;Node11</title>
<path fill="none" stroke="midnightblue" d="M168,-157.8C168,-148.91 168,-138.78 168,-131.75"/>
<polygon fill="midnightblue" stroke="midnightblue" points="164.5,-158.08 168,-168.08 171.5,-158.08 164.5,-158.08"/>
</g>
<!-- Node14 -->
<g id="node14" class="node">
<title>Node14</title>
<g id="a_node14"><a xlink:href="Face_8h.html" target="_top" xlink:title=" ">
<polygon fill="white" stroke="black" points="486,-392.5 486,-411.5 572,-411.5 572,-392.5 486,-392.5"/>
<text text-anchor="middle" x="529" y="-399.5" font-family="Helvetica,sans-Serif" font-size="10.00">include/Face.h</text>
</a>
</g>
</g>
<!-- Node13&#45;&gt;Node14 -->
<g id="edge16" class="edge">
<title>Node13&#45;&gt;Node14</title>
<path fill="none" stroke="midnightblue" d="M503.95,-439.57C510.31,-430.27 517.87,-419.25 523,-411.75"/>
<polygon fill="midnightblue" stroke="midnightblue" points="500.87,-437.86 498.11,-448.08 506.65,-441.81 500.87,-437.86"/>
</g>
<!-- Node13&#45;&gt;Node15 -->
<g id="edge37" class="edge">
<title>Node13&#45;&gt;Node15</title>
<path fill="none" stroke="midnightblue" d="M485.76,-438.8C483,-430.63 479.77,-420.85 477,-412 470.75,-392.03 464.01,-368.4 460.48,-355.86"/>
<polygon fill="midnightblue" stroke="midnightblue" points="482.49,-440.06 489.03,-448.4 489.12,-437.81 482.49,-440.06"/>
</g>
<!-- Node27 -->
<g id="node27" class="node">
<title>Node27</title>
<g id="a_node27"><a xlink:href="Edge_8cpp.html" target="_top" xlink:title=" ">
<polygon fill="white" stroke="black" points="590,-392.5 590,-411.5 668,-411.5 668,-392.5 590,-392.5"/>
<text text-anchor="middle" x="629" y="-399.5" font-family="Helvetica,sans-Serif" font-size="10.00">src/Edge.cpp</text>
</a>
</g>
</g>
<!-- Node13&#45;&gt;Node27 -->
<g id="edge38" class="edge">
<title>Node13&#45;&gt;Node27</title>
<path fill="none" stroke="midnightblue" d="M523.02,-444.77C548.76,-434.63 584.69,-420.47 607.39,-411.52"/>
<polygon fill="midnightblue" stroke="midnightblue" points="521.73,-441.52 513.71,-448.44 524.29,-448.03 521.73,-441.52"/>
</g>
<!-- Node14&#45;&gt;Node15 -->
<g id="edge17" class="edge">
<title>Node14&#45;&gt;Node15</title>
<path fill="none" stroke="midnightblue" d="M509.41,-386.1C496.63,-376.38 480.39,-364.03 469.61,-355.83"/>
<polygon fill="midnightblue" stroke="midnightblue" points="507.51,-389.06 517.59,-392.32 511.75,-383.48 507.51,-389.06"/>
</g>
<!-- Node26 -->
<g id="node26" class="node">
<title>Node26</title>
<g id="a_node26"><a xlink:href="Face_8cpp.html" target="_top" xlink:title=" ">
<polygon fill="white" stroke="black" points="524,-336.5 524,-355.5 600,-355.5 600,-336.5 524,-336.5"/>
<text text-anchor="middle" x="562" y="-343.5" font-family="Helvetica,sans-Serif" font-size="10.00">src/Face.cpp</text>
</a>
</g>
</g>
<!-- Node14&#45;&gt;Node26 -->
<g id="edge36" class="edge">
<title>Node14&#45;&gt;Node26</title>
<path fill="none" stroke="midnightblue" d="M539.83,-383.27C545.47,-374.05 552.12,-363.17 556.65,-355.75"/>
<polygon fill="midnightblue" stroke="midnightblue" points="536.68,-381.73 534.45,-392.08 542.65,-385.38 536.68,-381.73"/>
</g>
<!-- Node16 -->
<g id="node16" class="node">
<title>Node16</title>
<g id="a_node16"><a xlink:href="Obj_8h.html" target="_top" xlink:title=" ">
<polygon fill="white" stroke="black" points="613,-280.5 613,-299.5 693,-299.5 693,-280.5 613,-280.5"/>
<text text-anchor="middle" x="653" y="-287.5" font-family="Helvetica,sans-Serif" font-size="10.00">include/Obj.h</text>
</a>
</g>
</g>
<!-- Node15&#45;&gt;Node16 -->
<g id="edge18" class="edge">
<title>Node15&#45;&gt;Node16</title>
<path fill="none" stroke="midnightblue" d="M498.81,-333.7C535.61,-323.51 588.93,-308.74 622.25,-299.52"/>
<polygon fill="midnightblue" stroke="midnightblue" points="497.6,-330.4 488.9,-336.44 499.47,-337.15 497.6,-330.4"/>
</g>
<!-- Node23 -->
<g id="node23" class="node">
<title>Node23</title>
<g id="a_node23"><a xlink:href="Ply_8h.html" target="_top" xlink:title=" ">
<polygon fill="white" stroke="black" points="514.5,-280.5 514.5,-299.5 591.5,-299.5 591.5,-280.5 514.5,-280.5"/>
<text text-anchor="middle" x="553" y="-287.5" font-family="Helvetica,sans-Serif" font-size="10.00">include/Ply.h</text>
</a>
</g>
</g>
<!-- Node15&#45;&gt;Node23 -->
<g id="edge31" class="edge">
<title>Node15&#45;&gt;Node23</title>
<path fill="none" stroke="midnightblue" d="M482.32,-331.18C499.8,-321.24 522.83,-308.15 537.77,-299.65"/>
<polygon fill="midnightblue" stroke="midnightblue" points="480.23,-328.34 473.26,-336.32 483.69,-334.43 480.23,-328.34"/>
</g>
<!-- Node25 -->
<g id="node25" class="node">
<title>Node25</title>
<g id="a_node25"><a xlink:href="Object_8cpp.html" target="_top" xlink:title=" ">
<polygon fill="white" stroke="black" points="410,-280.5 410,-299.5 496,-299.5 496,-280.5 410,-280.5"/>
<text text-anchor="middle" x="453" y="-287.5" font-family="Helvetica,sans-Serif" font-size="10.00">src/Object.cpp</text>
</a>
</g>
</g>
<!-- Node15&#45;&gt;Node25 -->
<g id="edge35" class="edge">
<title>Node15&#45;&gt;Node25</title>
<path fill="none" stroke="midnightblue" d="M456.25,-326.1C455.42,-317.14 454.47,-306.86 453.81,-299.75"/>
<polygon fill="midnightblue" stroke="midnightblue" points="452.77,-326.45 457.17,-336.08 459.74,-325.8 452.77,-326.45"/>
</g>
<!-- Node16&#45;&gt;Node4 -->
<g id="edge29" class="edge">
<title>Node16&#45;&gt;Node4</title>
<path fill="none" stroke="midnightblue" d="M654.55,-269.94C655.6,-243.3 653.21,-195.14 626,-168 605.75,-147.8 532.99,-135.41 480.13,-128.87"/>
<polygon fill="midnightblue" stroke="midnightblue" points="651.04,-270.02 653.93,-280.22 658.03,-270.45 651.04,-270.02"/>
</g>
<!-- Node17 -->
<g id="node17" class="node">
<title>Node17</title>
<g id="a_node17"><a xlink:href="Model_8h.html" target="_top" xlink:title=" ">
<polygon fill="white" stroke="black" points="534,-224.5 534,-243.5 628,-243.5 628,-224.5 534,-224.5"/>
<text text-anchor="middle" x="581" y="-231.5" font-family="Helvetica,sans-Serif" font-size="10.00">include/Model.h</text>
</a>
</g>
</g>
<!-- Node16&#45;&gt;Node17 -->
<g id="edge19" class="edge">
<title>Node16&#45;&gt;Node17</title>
<path fill="none" stroke="midnightblue" d="M633.13,-274.1C620.18,-264.38 603.7,-252.03 592.78,-243.83"/>
<polygon fill="midnightblue" stroke="midnightblue" points="631.33,-277.12 641.43,-280.32 635.53,-271.52 631.33,-277.12"/>
</g>
<!-- Node22 -->
<g id="node22" class="node">
<title>Node22</title>
<g id="a_node22"><a xlink:href="Obj_8cpp.html" target="_top" xlink:title=" ">
<polygon fill="white" stroke="black" points="684.5,-224.5 684.5,-243.5 755.5,-243.5 755.5,-224.5 684.5,-224.5"/>
<text text-anchor="middle" x="720" y="-231.5" font-family="Helvetica,sans-Serif" font-size="10.00">src/Obj.cpp</text>
</a>
</g>
</g>
<!-- Node16&#45;&gt;Node22 -->
<g id="edge30" class="edge">
<title>Node16&#45;&gt;Node22</title>
<path fill="none" stroke="midnightblue" d="M671.83,-273.82C683.84,-264.15 698.97,-251.95 709.04,-243.83"/>
<polygon fill="midnightblue" stroke="midnightblue" points="669.35,-271.32 663.76,-280.32 673.75,-276.77 669.35,-271.32"/>
</g>
<!-- Node17&#45;&gt;Node3 -->
<g id="edge20" class="edge">
<title>Node17&#45;&gt;Node3</title>
<path fill="none" stroke="midnightblue" d="M528.5,-222.46C477.34,-212.19 400.59,-196.78 353.54,-187.34"/>
<polygon fill="midnightblue" stroke="midnightblue" points="527.88,-225.91 538.38,-224.44 529.26,-219.04 527.88,-225.91"/>
</g>
<!-- Node17&#45;&gt;Node4 -->
<g id="edge28" class="edge">
<title>Node17&#45;&gt;Node4</title>
<path fill="none" stroke="midnightblue" d="M558.7,-218.84C545.1,-210.11 527.42,-198.59 512,-188 483.4,-168.36 450.52,-144.21 433.52,-131.59"/>
<polygon fill="midnightblue" stroke="midnightblue" points="557.08,-221.95 567.39,-224.39 560.85,-216.06 557.08,-221.95"/>
</g>
<!-- Node17&#45;&gt;Node10 -->
<g id="edge27" class="edge">
<title>Node17&#45;&gt;Node10</title>
<path fill="none" stroke="midnightblue" d="M523.72,-223.86C406.31,-207.16 280.49,-192.05 214.28,-184.32"/>
<polygon fill="midnightblue" stroke="midnightblue" points="523.57,-227.37 533.96,-225.32 524.56,-220.44 523.57,-227.37"/>
</g>
<!-- Node18 -->
<g id="node18" class="node">
<title>Node18</title>
<g id="a_node18"><a xlink:href="Enemy_8h.html" target="_top" xlink:title=" ">
<polygon fill="white" stroke="black" points="521,-168.5 521,-187.5 617,-187.5 617,-168.5 521,-168.5"/>
<text text-anchor="middle" x="569" y="-175.5" font-family="Helvetica,sans-Serif" font-size="10.00">include/Enemy.h</text>
</a>
</g>
</g>
<!-- Node17&#45;&gt;Node18 -->
<g id="edge21" class="edge">
<title>Node17&#45;&gt;Node18</title>
<path fill="none" stroke="midnightblue" d="M576.8,-214.1C574.81,-205.14 572.52,-194.86 570.94,-187.75"/>
<polygon fill="midnightblue" stroke="midnightblue" points="573.43,-215.08 579.02,-224.08 580.27,-213.56 573.43,-215.08"/>
</g>
<!-- Node20 -->
<g id="node20" class="node">
<title>Node20</title>
<g id="a_node20"><a xlink:href="Message_8h.html" target="_top" xlink:title=" ">
<polygon fill="white" stroke="black" points="684.5,-168.5 684.5,-187.5 791.5,-187.5 791.5,-168.5 684.5,-168.5"/>
<text text-anchor="middle" x="738" y="-175.5" font-family="Helvetica,sans-Serif" font-size="10.00">include/Message.h</text>
</a>
</g>
</g>
<!-- Node17&#45;&gt;Node20 -->
<g id="edge24" class="edge">
<title>Node17&#45;&gt;Node20</title>
<path fill="none" stroke="midnightblue" d="M615.39,-221.17C644.95,-211 686.87,-196.59 713.24,-187.52"/>
<polygon fill="midnightblue" stroke="midnightblue" points="614.2,-217.88 605.88,-224.44 616.47,-224.5 614.2,-217.88"/>
</g>
<!-- Node18&#45;&gt;Node4 -->
<g id="edge22" class="edge">
<title>Node18&#45;&gt;Node4</title>
<path fill="none" stroke="midnightblue" d="M536.08,-164.91C508.44,-154.75 469.66,-140.51 445.18,-131.52"/>
<polygon fill="midnightblue" stroke="midnightblue" points="535.11,-168.28 545.71,-168.44 537.53,-161.71 535.11,-168.28"/>
</g>
<!-- Node19 -->
<g id="node19" class="node">
<title>Node19</title>
<g id="a_node19"><a xlink:href="Enemy_8cpp.html" target="_top" xlink:title=" ">
<polygon fill="white" stroke="black" points="526,-112.5 526,-131.5 612,-131.5 612,-112.5 526,-112.5"/>
<text text-anchor="middle" x="569" y="-119.5" font-family="Helvetica,sans-Serif" font-size="10.00">src/Enemy.cpp</text>
</a>
</g>
</g>
<!-- Node18&#45;&gt;Node19 -->
<g id="edge23" class="edge">
<title>Node18&#45;&gt;Node19</title>
<path fill="none" stroke="midnightblue" d="M569,-157.8C569,-148.91 569,-138.78 569,-131.75"/>
<polygon fill="midnightblue" stroke="midnightblue" points="565.5,-158.08 569,-168.08 572.5,-158.08 565.5,-158.08"/>
</g>
<!-- Node20&#45;&gt;Node4 -->
<g id="edge25" class="edge">
<title>Node20&#45;&gt;Node4</title>
<path fill="none" stroke="midnightblue" d="M677.89,-166.73C618.17,-156.52 527.67,-141.06 471.84,-131.52"/>
<polygon fill="midnightblue" stroke="midnightblue" points="677.48,-170.21 687.93,-168.44 678.66,-163.31 677.48,-170.21"/>
</g>
<!-- Node21 -->
<g id="node21" class="node">
<title>Node21</title>
<g id="a_node21"><a xlink:href="Message_8cpp.html" target="_top" xlink:title=" ">
<polygon fill="white" stroke="black" points="689,-112.5 689,-131.5 787,-131.5 787,-112.5 689,-112.5"/>
<text text-anchor="middle" x="738" y="-119.5" font-family="Helvetica,sans-Serif" font-size="10.00">src/Message.cpp</text>
</a>
</g>
</g>
<!-- Node20&#45;&gt;Node21 -->
<g id="edge26" class="edge">
<title>Node20&#45;&gt;Node21</title>
<path fill="none" stroke="midnightblue" d="M738,-157.8C738,-148.91 738,-138.78 738,-131.75"/>
<polygon fill="midnightblue" stroke="midnightblue" points="734.5,-158.08 738,-168.08 741.5,-158.08 734.5,-158.08"/>
</g>
<!-- Node23&#45;&gt;Node4 -->
<g id="edge33" class="edge">
<title>Node23&#45;&gt;Node4</title>
<path fill="none" stroke="midnightblue" d="M511.82,-277.53C483.16,-268.69 448.45,-256 439,-244 412.22,-210.01 417.33,-153.35 420.5,-131.74"/>
<polygon fill="midnightblue" stroke="midnightblue" points="511.07,-280.96 521.65,-280.49 513.09,-274.25 511.07,-280.96"/>
</g>
<!-- Node23&#45;&gt;Node17 -->
<g id="edge32" class="edge">
<title>Node23&#45;&gt;Node17</title>
<path fill="none" stroke="midnightblue" d="M562.34,-270.98C567.09,-261.82 572.66,-251.09 576.46,-243.75"/>
<polygon fill="midnightblue" stroke="midnightblue" points="559.12,-269.59 557.62,-280.08 565.33,-272.82 559.12,-269.59"/>
</g>
<!-- Node24 -->
<g id="node24" class="node">
<title>Node24</title>
<g id="a_node24"><a xlink:href="Ply_8cpp.html" target="_top" xlink:title=" ">
<polygon fill="white" stroke="black" points="448,-224.5 448,-243.5 516,-243.5 516,-224.5 448,-224.5"/>
<text text-anchor="middle" x="482" y="-231.5" font-family="Helvetica,sans-Serif" font-size="10.00">src/Ply.cpp</text>
</a>
</g>
</g>
<!-- Node23&#45;&gt;Node24 -->
<g id="edge34" class="edge">
<title>Node23&#45;&gt;Node24</title>
<path fill="none" stroke="midnightblue" d="M533.41,-274.1C520.63,-264.38 504.39,-252.03 493.61,-243.83"/>
<polygon fill="midnightblue" stroke="midnightblue" points="531.51,-277.06 541.59,-280.32 535.75,-271.48 531.51,-277.06"/>
</g>
</g>
</svg>
