<?xml version="1.0" encoding="UTF-8" standalone="no"?>
<!DOCTYPE svg PUBLIC "-//W3C//DTD SVG 1.1//EN"
 "http://www.w3.org/Graphics/SVG/1.1/DTD/svg11.dtd">
<!-- Generated by graphviz version 2.43.0 (0)
 -->
<!-- Title: include/Vertex.h Pages: 1 -->
<svg width="730pt" height="476pt"
 viewBox="0.00 0.00 729.87 476.00" xmlns="http://www.w3.org/2000/svg" xmlns:xlink="http://www.w3.org/1999/xlink">
<g id="graph0" class="graph" transform="scale(1 1) rotate(0) translate(4 472)">
<title>include/Vertex.h</title>
<polygon fill="white" stroke="transparent" points="-4,4 -4,-472 725.87,-472 725.87,4 -4,4"/>
<!-- Node1 -->
<g id="node1" class="node">
<title>Node1</title>
<g id="a_node1"><a xlink:title=" ">
<polygon fill="#bfbfbf" stroke="black" points="329.52,-448.5 329.52,-467.5 424.52,-467.5 424.52,-448.5 329.52,-448.5"/>
<text text-anchor="middle" x="377.02" y="-455.5" font-family="Helvetica,sans-Serif" font-size="10.00">include/Vertex.h</text>
</a>
</g>
</g>
<!-- Node2 -->
<g id="node2" class="node">
<title>Node2</title>
<g id="a_node2"><a xlink:href="Animation_8h.html" target="_top" xlink:title=" ">
<polygon fill="white" stroke="black" points="205.02,-168.5 205.02,-187.5 319.02,-187.5 319.02,-168.5 205.02,-168.5"/>
<text text-anchor="middle" x="262.02" y="-175.5" font-family="Helvetica,sans-Serif" font-size="10.00">include/Animation.h</text>
</a>
</g>
</g>
<!-- Node1&#45;&gt;Node2 -->
<g id="edge1" class="edge">
<title>Node1&#45;&gt;Node2</title>
<path fill="none" stroke="midnightblue" d="M361.46,-440.84C343.68,-420.62 317.02,-384.12 317.02,-347 317.02,-347 317.02,-347 317.02,-289 317.02,-247.36 285.11,-205.33 269.9,-187.67"/>
<polygon fill="midnightblue" stroke="midnightblue" points="359.1,-443.45 368.43,-448.47 364.26,-438.72 359.1,-443.45"/>
</g>
<!-- Node4 -->
<g id="node4" class="node">
<title>Node4</title>
<g id="a_node4"><a xlink:href="Simulation_8h.html" target="_top" xlink:title=" ">
<polygon fill="white" stroke="black" points="369.02,-56.5 369.02,-75.5 485.02,-75.5 485.02,-56.5 369.02,-56.5"/>
<text text-anchor="middle" x="427.02" y="-63.5" font-family="Helvetica,sans-Serif" font-size="10.00">include/Simulation.h</text>
</a>
</g>
</g>
<!-- Node1&#45;&gt;Node4 -->
<g id="edge38" class="edge">
<title>Node1&#45;&gt;Node4</title>
<path fill="none" stroke="midnightblue" d="M319.24,-452.15C213.82,-441.7 1.02,-412.49 1.02,-347 1.02,-347 1.02,-347 1.02,-177 1.02,-146.9 -3.07,-131.3 20.02,-112 78.16,-63.42 283.8,-84.97 359.02,-76 362.22,-75.62 365.49,-75.22 368.8,-74.81"/>
<polygon fill="midnightblue" stroke="midnightblue" points="319.11,-455.65 329.4,-453.13 319.79,-448.69 319.11,-455.65"/>
</g>
<!-- Node13 -->
<g id="node13" class="node">
<title>Node13</title>
<g id="a_node13"><a xlink:href="Edge_8h.html" target="_top" xlink:title=" ">
<polygon fill="white" stroke="black" points="405.02,-392.5 405.02,-411.5 493.02,-411.5 493.02,-392.5 405.02,-392.5"/>
<text text-anchor="middle" x="449.02" y="-399.5" font-family="Helvetica,sans-Serif" font-size="10.00">include/Edge.h</text>
</a>
</g>
</g>
<!-- Node1&#45;&gt;Node13 -->
<g id="edge15" class="edge">
<title>Node1&#45;&gt;Node13</title>
<path fill="none" stroke="midnightblue" d="M396.89,-442.1C409.85,-432.38 426.32,-420.03 437.25,-411.83"/>
<polygon fill="midnightblue" stroke="midnightblue" points="394.49,-439.52 388.59,-448.32 398.69,-445.12 394.49,-439.52"/>
</g>
<!-- Node15 -->
<g id="node15" class="node">
<title>Node15</title>
<g id="a_node15"><a xlink:href="Object_8h.html" target="_top" xlink:title=" ">
<polygon fill="white" stroke="black" points="420.52,-280.5 420.52,-299.5 515.52,-299.5 515.52,-280.5 420.52,-280.5"/>
<text text-anchor="middle" x="468.02" y="-287.5" font-family="Helvetica,sans-Serif" font-size="10.00">include/Object.h</text>
</a>
</g>
</g>
<!-- Node1&#45;&gt;Node15 -->
<g id="edge37" class="edge">
<title>Node1&#45;&gt;Node15</title>
<path fill="none" stroke="midnightblue" d="M380.72,-438.36C383.78,-425.02 388.8,-406.87 396.02,-392 414.17,-354.61 445.88,-316.19 460.39,-299.55"/>
<polygon fill="midnightblue" stroke="midnightblue" points="377.28,-437.74 378.61,-448.25 384.12,-439.2 377.28,-437.74"/>
</g>
<!-- Node26 -->
<g id="node26" class="node">
<title>Node26</title>
<g id="a_node26"><a xlink:href="Vertex_8cpp.html" target="_top" xlink:title=" ">
<polygon fill="white" stroke="black" points="511.02,-392.5 511.02,-411.5 597.02,-411.5 597.02,-392.5 511.02,-392.5"/>
<text text-anchor="middle" x="554.02" y="-399.5" font-family="Helvetica,sans-Serif" font-size="10.00">src/Vertex.cpp</text>
</a>
</g>
</g>
<!-- Node1&#45;&gt;Node26 -->
<g id="edge39" class="edge">
<title>Node1&#45;&gt;Node26</title>
<path fill="none" stroke="midnightblue" d="M414.93,-445.44C448.3,-435.26 496.13,-420.66 526.11,-411.52"/>
<polygon fill="midnightblue" stroke="midnightblue" points="413.61,-442.18 405.07,-448.44 415.66,-448.87 413.61,-442.18"/>
</g>
<!-- Node3 -->
<g id="node3" class="node">
<title>Node3</title>
<g id="a_node3"><a xlink:href="Ball_8h.html" target="_top" xlink:title=" ">
<polygon fill="white" stroke="black" points="314.52,-112.5 314.52,-131.5 397.52,-131.5 397.52,-112.5 314.52,-112.5"/>
<text text-anchor="middle" x="356.02" y="-119.5" font-family="Helvetica,sans-Serif" font-size="10.00">include/Ball.h</text>
</a>
</g>
</g>
<!-- Node2&#45;&gt;Node3 -->
<g id="edge2" class="edge">
<title>Node2&#45;&gt;Node3</title>
<path fill="none" stroke="midnightblue" d="M286.09,-163.18C303.38,-153.24 326.17,-140.15 340.96,-131.65"/>
<polygon fill="midnightblue" stroke="midnightblue" points="284.05,-160.31 277.13,-168.32 287.54,-166.38 284.05,-160.31"/>
</g>
<!-- Node2&#45;&gt;Node4 -->
<g id="edge13" class="edge">
<title>Node2&#45;&gt;Node4</title>
<path fill="none" stroke="midnightblue" d="M225.75,-164.88C196.14,-153.05 161.91,-133.71 180.02,-112 186.12,-104.69 298.99,-86.39 370.02,-75.51"/>
<polygon fill="midnightblue" stroke="midnightblue" points="224.55,-168.16 235.14,-168.45 227.03,-161.62 224.55,-168.16"/>
</g>
<!-- Node8 -->
<g id="node8" class="node">
<title>Node8</title>
<g id="a_node8"><a xlink:href="Message_8h.html" target="_top" xlink:title=" ">
<polygon fill="white" stroke="black" points="189.52,-112.5 189.52,-131.5 296.52,-131.5 296.52,-112.5 189.52,-112.5"/>
<text text-anchor="middle" x="243.02" y="-119.5" font-family="Helvetica,sans-Serif" font-size="10.00">include/Message.h</text>
</a>
</g>
</g>
<!-- Node2&#45;&gt;Node8 -->
<g id="edge7" class="edge">
<title>Node2&#45;&gt;Node8</title>
<path fill="none" stroke="midnightblue" d="M255.48,-158.4C252.3,-149.36 248.63,-138.94 246.1,-131.75"/>
<polygon fill="midnightblue" stroke="midnightblue" points="252.27,-159.81 258.89,-168.08 258.87,-157.49 252.27,-159.81"/>
</g>
<!-- Node10 -->
<g id="node10" class="node">
<title>Node10</title>
<g id="a_node10"><a xlink:href="Robot_8h.html" target="_top" xlink:title=" ">
<polygon fill="white" stroke="black" points="454.02,-112.5 454.02,-131.5 546.02,-131.5 546.02,-112.5 454.02,-112.5"/>
<text text-anchor="middle" x="500.02" y="-119.5" font-family="Helvetica,sans-Serif" font-size="10.00">include/Robot.h</text>
</a>
</g>
</g>
<!-- Node2&#45;&gt;Node10 -->
<g id="edge10" class="edge">
<title>Node2&#45;&gt;Node10</title>
<path fill="none" stroke="midnightblue" d="M309.55,-166.22C354.52,-156.01 421.13,-140.9 462.49,-131.52"/>
<polygon fill="midnightblue" stroke="midnightblue" points="308.71,-162.82 299.74,-168.44 310.26,-169.64 308.71,-162.82"/>
</g>
<!-- Node12 -->
<g id="node12" class="node">
<title>Node12</title>
<g id="a_node12"><a xlink:href="Animation_8cpp.html" target="_top" xlink:title=" ">
<polygon fill="white" stroke="black" points="29.02,-112.5 29.02,-131.5 133.02,-131.5 133.02,-112.5 29.02,-112.5"/>
<text text-anchor="middle" x="81.02" y="-119.5" font-family="Helvetica,sans-Serif" font-size="10.00">src/Animation.cpp</text>
</a>
</g>
</g>
<!-- Node2&#45;&gt;Node12 -->
<g id="edge14" class="edge">
<title>Node2&#45;&gt;Node12</title>
<path fill="none" stroke="midnightblue" d="M223.7,-165.57C189.56,-155.38 140.36,-140.7 109.57,-131.52"/>
<polygon fill="midnightblue" stroke="midnightblue" points="222.76,-168.94 233.34,-168.44 224.76,-162.23 222.76,-168.94"/>
</g>
<!-- Node3&#45;&gt;Node4 -->
<g id="edge3" class="edge">
<title>Node3&#45;&gt;Node4</title>
<path fill="none" stroke="midnightblue" d="M375.61,-106.1C388.39,-96.38 404.64,-84.03 415.41,-75.83"/>
<polygon fill="midnightblue" stroke="midnightblue" points="373.27,-103.48 367.43,-112.32 377.51,-109.06 373.27,-103.48"/>
</g>
<!-- Node7 -->
<g id="node7" class="node">
<title>Node7</title>
<g id="a_node7"><a xlink:href="Ball_8cpp.html" target="_top" xlink:title=" ">
<polygon fill="white" stroke="black" points="277.52,-56.5 277.52,-75.5 350.52,-75.5 350.52,-56.5 277.52,-56.5"/>
<text text-anchor="middle" x="314.02" y="-63.5" font-family="Helvetica,sans-Serif" font-size="10.00">src/Ball.cpp</text>
</a>
</g>
</g>
<!-- Node3&#45;&gt;Node7 -->
<g id="edge6" class="edge">
<title>Node3&#45;&gt;Node7</title>
<path fill="none" stroke="midnightblue" d="M342.91,-104.14C335.6,-94.74 326.78,-83.4 320.83,-75.75"/>
<polygon fill="midnightblue" stroke="midnightblue" points="340.19,-106.34 349.09,-112.08 345.71,-102.04 340.19,-106.34"/>
</g>
<!-- Node5 -->
<g id="node5" class="node">
<title>Node5</title>
<g id="a_node5"><a xlink:href="main_8cpp.html" target="_top" xlink:title=" ">
<polygon fill="white" stroke="black" points="344.02,-0.5 344.02,-19.5 406.02,-19.5 406.02,-0.5 344.02,-0.5"/>
<text text-anchor="middle" x="375.02" y="-7.5" font-family="Helvetica,sans-Serif" font-size="10.00">main.cpp</text>
</a>
</g>
</g>
<!-- Node4&#45;&gt;Node5 -->
<g id="edge4" class="edge">
<title>Node4&#45;&gt;Node5</title>
<path fill="none" stroke="midnightblue" d="M411.34,-48.72C402.18,-39.2 390.97,-27.56 383.45,-19.75"/>
<polygon fill="midnightblue" stroke="midnightblue" points="408.98,-51.31 418.44,-56.08 414.02,-46.45 408.98,-51.31"/>
</g>
<!-- Node6 -->
<g id="node6" class="node">
<title>Node6</title>
<g id="a_node6"><a xlink:href="Simulation_8cpp.html" target="_top" xlink:title=" ">
<polygon fill="white" stroke="black" points="424.52,-0.5 424.52,-19.5 531.52,-19.5 531.52,-0.5 424.52,-0.5"/>
<text text-anchor="middle" x="478.02" y="-7.5" font-family="Helvetica,sans-Serif" font-size="10.00">src/Simulation.cpp</text>
</a>
</g>
</g>
<!-- Node4&#45;&gt;Node6 -->
<g id="edge5" class="edge">
<title>Node4&#45;&gt;Node6</title>
<path fill="none" stroke="midnightblue" d="M442.4,-48.72C451.39,-39.2 462.38,-27.56 469.76,-19.75"/>
<polygon fill="midnightblue" stroke="midnightblue" points="439.77,-46.41 435.45,-56.08 444.86,-51.22 439.77,-46.41"/>
</g>
<!-- Node8&#45;&gt;Node4 -->
<g id="edge8" class="edge">
<title>Node8&#45;&gt;Node4</title>
<path fill="none" stroke="midnightblue" d="M281.98,-109.57C316.69,-99.38 366.7,-84.7 398,-75.52"/>
<polygon fill="midnightblue" stroke="midnightblue" points="280.79,-106.27 272.18,-112.44 282.76,-112.99 280.79,-106.27"/>
</g>
<!-- Node9 -->
<g id="node9" class="node">
<title>Node9</title>
<g id="a_node9"><a xlink:href="Message_8cpp.html" target="_top" xlink:title=" ">
<polygon fill="white" stroke="black" points="161.02,-56.5 161.02,-75.5 259.02,-75.5 259.02,-56.5 161.02,-56.5"/>
<text text-anchor="middle" x="210.02" y="-63.5" font-family="Helvetica,sans-Serif" font-size="10.00">src/Message.cpp</text>
</a>
</g>
</g>
<!-- Node8&#45;&gt;Node9 -->
<g id="edge9" class="edge">
<title>Node8&#45;&gt;Node9</title>
<path fill="none" stroke="midnightblue" d="M232.19,-103.27C226.55,-94.05 219.91,-83.17 215.37,-75.75"/>
<polygon fill="midnightblue" stroke="midnightblue" points="229.37,-105.38 237.57,-112.08 235.35,-101.73 229.37,-105.38"/>
</g>
<!-- Node10&#45;&gt;Node4 -->
<g id="edge11" class="edge">
<title>Node10&#45;&gt;Node4</title>
<path fill="none" stroke="midnightblue" d="M479.88,-106.1C466.74,-96.38 450.04,-84.03 438.97,-75.83"/>
<polygon fill="midnightblue" stroke="midnightblue" points="478.17,-109.19 488.3,-112.32 482.34,-103.56 478.17,-109.19"/>
</g>
<!-- Node11 -->
<g id="node11" class="node">
<title>Node11</title>
<g id="a_node11"><a xlink:href="Robot_8cpp.html" target="_top" xlink:title=" ">
<polygon fill="white" stroke="black" points="503.52,-56.5 503.52,-75.5 586.52,-75.5 586.52,-56.5 503.52,-56.5"/>
<text text-anchor="middle" x="545.02" y="-63.5" font-family="Helvetica,sans-Serif" font-size="10.00">src/Robot.cpp</text>
</a>
</g>
</g>
<!-- Node10&#45;&gt;Node11 -->
<g id="edge12" class="edge">
<title>Node10&#45;&gt;Node11</title>
<path fill="none" stroke="midnightblue" d="M514.07,-104.14C521.91,-94.74 531.35,-83.4 537.73,-75.75"/>
<polygon fill="midnightblue" stroke="midnightblue" points="511.17,-102.16 507.45,-112.08 516.55,-106.64 511.17,-102.16"/>
</g>
<!-- Node14 -->
<g id="node14" class="node">
<title>Node14</title>
<g id="a_node14"><a xlink:href="Face_8h.html" target="_top" xlink:title=" ">
<polygon fill="white" stroke="black" points="460.02,-336.5 460.02,-355.5 546.02,-355.5 546.02,-336.5 460.02,-336.5"/>
<text text-anchor="middle" x="503.02" y="-343.5" font-family="Helvetica,sans-Serif" font-size="10.00">include/Face.h</text>
</a>
</g>
</g>
<!-- Node13&#45;&gt;Node14 -->
<g id="edge16" class="edge">
<title>Node13&#45;&gt;Node14</title>
<path fill="none" stroke="midnightblue" d="M465.02,-385C474.59,-375.43 486.38,-363.64 494.27,-355.75"/>
<polygon fill="midnightblue" stroke="midnightblue" points="462.54,-382.54 457.94,-392.08 467.49,-387.49 462.54,-382.54"/>
</g>
<!-- Node13&#45;&gt;Node15 -->
<g id="edge35" class="edge">
<title>Node13&#45;&gt;Node15</title>
<path fill="none" stroke="midnightblue" d="M447.98,-382.39C447.64,-369.29 447.96,-351.42 451.02,-336 453.63,-322.89 459.62,-308.59 463.74,-299.71"/>
<polygon fill="midnightblue" stroke="midnightblue" points="444.49,-382.64 448.4,-392.49 451.48,-382.35 444.49,-382.64"/>
</g>
<!-- Node25 -->
<g id="node25" class="node">
<title>Node25</title>
<g id="a_node25"><a xlink:href="Edge_8cpp.html" target="_top" xlink:title=" ">
<polygon fill="white" stroke="black" points="564.02,-336.5 564.02,-355.5 642.02,-355.5 642.02,-336.5 564.02,-336.5"/>
<text text-anchor="middle" x="603.02" y="-343.5" font-family="Helvetica,sans-Serif" font-size="10.00">src/Edge.cpp</text>
</a>
</g>
</g>
<!-- Node13&#45;&gt;Node25 -->
<g id="edge36" class="edge">
<title>Node13&#45;&gt;Node25</title>
<path fill="none" stroke="midnightblue" d="M483.13,-389.04C512.11,-378.88 552.99,-364.55 578.74,-355.52"/>
<polygon fill="midnightblue" stroke="midnightblue" points="481.7,-385.83 473.43,-392.44 484.02,-392.44 481.7,-385.83"/>
</g>
<!-- Node14&#45;&gt;Node15 -->
<g id="edge17" class="edge">
<title>Node14&#45;&gt;Node15</title>
<path fill="none" stroke="midnightblue" d="M491.72,-327.57C485.7,-318.27 478.56,-307.25 473.7,-299.75"/>
<polygon fill="midnightblue" stroke="midnightblue" points="488.87,-329.6 497.24,-336.08 494.74,-325.79 488.87,-329.6"/>
</g>
<!-- Node24 -->
<g id="node24" class="node">
<title>Node24</title>
<g id="a_node24"><a xlink:href="Face_8cpp.html" target="_top" xlink:title=" ">
<polygon fill="white" stroke="black" points="534.02,-280.5 534.02,-299.5 610.02,-299.5 610.02,-280.5 534.02,-280.5"/>
<text text-anchor="middle" x="572.02" y="-287.5" font-family="Helvetica,sans-Serif" font-size="10.00">src/Face.cpp</text>
</a>
</g>
</g>
<!-- Node14&#45;&gt;Node24 -->
<g id="edge34" class="edge">
<title>Node14&#45;&gt;Node24</title>
<path fill="none" stroke="midnightblue" d="M522.06,-330.1C534.48,-320.38 550.27,-308.03 560.74,-299.83"/>
<polygon fill="midnightblue" stroke="midnightblue" points="519.83,-327.4 514.11,-336.32 524.14,-332.92 519.83,-327.4"/>
</g>
<!-- Node16 -->
<g id="node16" class="node">
<title>Node16</title>
<g id="a_node16"><a xlink:href="Obj_8h.html" target="_top" xlink:title=" ">
<polygon fill="white" stroke="black" points="527.02,-224.5 527.02,-243.5 607.02,-243.5 607.02,-224.5 527.02,-224.5"/>
<text text-anchor="middle" x="567.02" y="-231.5" font-family="Helvetica,sans-Serif" font-size="10.00">include/Obj.h</text>
</a>
</g>
</g>
<!-- Node15&#45;&gt;Node16 -->
<g id="edge18" class="edge">
<title>Node15&#45;&gt;Node16</title>
<path fill="none" stroke="midnightblue" d="M492.86,-275.45C511.14,-265.48 535.44,-252.23 551.16,-243.65"/>
<polygon fill="midnightblue" stroke="midnightblue" points="491.03,-272.46 483.93,-280.32 494.38,-278.61 491.03,-272.46"/>
</g>
<!-- Node21 -->
<g id="node21" class="node">
<title>Node21</title>
<g id="a_node21"><a xlink:href="Ply_8h.html" target="_top" xlink:title=" ">
<polygon fill="white" stroke="black" points="429.52,-224.5 429.52,-243.5 506.52,-243.5 506.52,-224.5 429.52,-224.5"/>
<text text-anchor="middle" x="468.02" y="-231.5" font-family="Helvetica,sans-Serif" font-size="10.00">include/Ply.h</text>
</a>
</g>
</g>
<!-- Node15&#45;&gt;Node21 -->
<g id="edge29" class="edge">
<title>Node15&#45;&gt;Node21</title>
<path fill="none" stroke="midnightblue" d="M468.02,-269.8C468.02,-260.91 468.02,-250.78 468.02,-243.75"/>
<polygon fill="midnightblue" stroke="midnightblue" points="464.52,-270.08 468.02,-280.08 471.52,-270.08 464.52,-270.08"/>
</g>
<!-- Node23 -->
<g id="node23" class="node">
<title>Node23</title>
<g id="a_node23"><a xlink:href="Object_8cpp.html" target="_top" xlink:title=" ">
<polygon fill="white" stroke="black" points="625.02,-224.5 625.02,-243.5 711.02,-243.5 711.02,-224.5 625.02,-224.5"/>
<text text-anchor="middle" x="668.02" y="-231.5" font-family="Helvetica,sans-Serif" font-size="10.00">src/Object.cpp</text>
</a>
</g>
</g>
<!-- Node15&#45;&gt;Node23 -->
<g id="edge33" class="edge">
<title>Node15&#45;&gt;Node23</title>
<path fill="none" stroke="midnightblue" d="M509.4,-277.83C547.16,-267.63 602.16,-252.78 636.48,-243.52"/>
<polygon fill="midnightblue" stroke="midnightblue" points="508.46,-274.46 499.71,-280.44 510.28,-281.22 508.46,-274.46"/>
</g>
<!-- Node16&#45;&gt;Node4 -->
<g id="edge27" class="edge">
<title>Node16&#45;&gt;Node4</title>
<path fill="none" stroke="midnightblue" d="M612.11,-221.97C652.66,-211.59 706.8,-196.43 713.02,-188 723.57,-173.72 727.76,-133.86 707.02,-112 703.21,-107.98 565.95,-87.31 485.06,-75.43"/>
<polygon fill="midnightblue" stroke="midnightblue" points="611.23,-218.58 602.4,-224.43 612.95,-225.37 611.23,-218.58"/>
</g>
<!-- Node17 -->
<g id="node17" class="node">
<title>Node17</title>
<g id="a_node17"><a xlink:href="Model_8h.html" target="_top" xlink:title=" ">
<polygon fill="white" stroke="black" points="520.02,-168.5 520.02,-187.5 614.02,-187.5 614.02,-168.5 520.02,-168.5"/>
<text text-anchor="middle" x="567.02" y="-175.5" font-family="Helvetica,sans-Serif" font-size="10.00">include/Model.h</text>
</a>
</g>
</g>
<!-- Node16&#45;&gt;Node17 -->
<g id="edge19" class="edge">
<title>Node16&#45;&gt;Node17</title>
<path fill="none" stroke="midnightblue" d="M567.02,-213.8C567.02,-204.91 567.02,-194.78 567.02,-187.75"/>
<polygon fill="midnightblue" stroke="midnightblue" points="563.52,-214.08 567.02,-224.08 570.52,-214.08 563.52,-214.08"/>
</g>
<!-- Node20 -->
<g id="node20" class="node">
<title>Node20</title>
<g id="a_node20"><a xlink:href="Obj_8cpp.html" target="_top" xlink:title=" ">
<polygon fill="white" stroke="black" points="632.52,-168.5 632.52,-187.5 703.52,-187.5 703.52,-168.5 632.52,-168.5"/>
<text text-anchor="middle" x="668.02" y="-175.5" font-family="Helvetica,sans-Serif" font-size="10.00">src/Obj.cpp</text>
</a>
</g>
</g>
<!-- Node16&#45;&gt;Node20 -->
<g id="edge28" class="edge">
<title>Node16&#45;&gt;Node20</title>
<path fill="none" stroke="midnightblue" d="M592.11,-219.59C610.78,-209.61 635.73,-196.27 651.84,-187.65"/>
<polygon fill="midnightblue" stroke="midnightblue" points="590.42,-216.52 583.25,-224.32 593.72,-222.7 590.42,-216.52"/>
</g>
<!-- Node17&#45;&gt;Node3 -->
<g id="edge20" class="edge">
<title>Node17&#45;&gt;Node3</title>
<path fill="none" stroke="midnightblue" d="M523.88,-165.96C484.03,-155.76 425.66,-140.82 389.3,-131.52"/>
<polygon fill="midnightblue" stroke="midnightblue" points="523.03,-169.35 533.59,-168.44 524.77,-162.57 523.03,-169.35"/>
</g>
<!-- Node17&#45;&gt;Node4 -->
<g id="edge26" class="edge">
<title>Node17&#45;&gt;Node4</title>
<path fill="none" stroke="midnightblue" d="M568.31,-158.12C568.26,-143.87 565.85,-124.66 555.02,-112 537.49,-91.5 510.04,-80.34 485.04,-74.26"/>
<polygon fill="midnightblue" stroke="midnightblue" points="564.81,-158.16 567.97,-168.27 571.81,-158.4 564.81,-158.16"/>
</g>
<!-- Node17&#45;&gt;Node8 -->
<g id="edge24" class="edge">
<title>Node17&#45;&gt;Node8</title>
<path fill="none" stroke="midnightblue" d="M509.67,-167.44C448.59,-157.26 352.82,-141.3 294.21,-131.53"/>
<polygon fill="midnightblue" stroke="midnightblue" points="509.47,-170.96 519.91,-169.15 510.62,-164.05 509.47,-170.96"/>
</g>
<!-- Node17&#45;&gt;Node10 -->
<g id="edge25" class="edge">
<title>Node17&#45;&gt;Node10</title>
<path fill="none" stroke="midnightblue" d="M548.19,-161.82C536.19,-152.15 521.05,-139.95 510.98,-131.83"/>
<polygon fill="midnightblue" stroke="midnightblue" points="546.28,-164.77 556.26,-168.32 550.67,-159.32 546.28,-164.77"/>
</g>
<!-- Node18 -->
<g id="node18" class="node">
<title>Node18</title>
<g id="a_node18"><a xlink:href="Enemy_8h.html" target="_top" xlink:title=" ">
<polygon fill="white" stroke="black" points="602.02,-112.5 602.02,-131.5 698.02,-131.5 698.02,-112.5 602.02,-112.5"/>
<text text-anchor="middle" x="650.02" y="-119.5" font-family="Helvetica,sans-Serif" font-size="10.00">include/Enemy.h</text>
</a>
</g>
</g>
<!-- Node17&#45;&gt;Node18 -->
<g id="edge21" class="edge">
<title>Node17&#45;&gt;Node18</title>
<path fill="none" stroke="midnightblue" d="M589.12,-162.62C604.29,-152.76 623.91,-139.99 636.72,-131.65"/>
<polygon fill="midnightblue" stroke="midnightblue" points="586.83,-159.94 580.36,-168.32 590.65,-165.8 586.83,-159.94"/>
</g>
<!-- Node18&#45;&gt;Node4 -->
<g id="edge22" class="edge">
<title>Node18&#45;&gt;Node4</title>
<path fill="none" stroke="midnightblue" d="M604.96,-110.09C562.83,-99.89 500.78,-84.86 462.19,-75.52"/>
<polygon fill="midnightblue" stroke="midnightblue" points="604.15,-113.49 614.69,-112.44 605.79,-106.69 604.15,-113.49"/>
</g>
<!-- Node19 -->
<g id="node19" class="node">
<title>Node19</title>
<g id="a_node19"><a xlink:href="Enemy_8cpp.html" target="_top" xlink:title=" ">
<polygon fill="white" stroke="black" points="607.02,-56.5 607.02,-75.5 693.02,-75.5 693.02,-56.5 607.02,-56.5"/>
<text text-anchor="middle" x="650.02" y="-63.5" font-family="Helvetica,sans-Serif" font-size="10.00">src/Enemy.cpp</text>
</a>
</g>
</g>
<!-- Node18&#45;&gt;Node19 -->
<g id="edge23" class="edge">
<title>Node18&#45;&gt;Node19</title>
<path fill="none" stroke="midnightblue" d="M650.02,-101.8C650.02,-92.91 650.02,-82.78 650.02,-75.75"/>
<polygon fill="midnightblue" stroke="midnightblue" points="646.52,-102.08 650.02,-112.08 653.52,-102.08 646.52,-102.08"/>
</g>
<!-- Node21&#45;&gt;Node4 -->
<g id="edge31" class="edge">
<title>Node21&#45;&gt;Node4</title>
<path fill="none" stroke="midnightblue" d="M447.78,-217.86C439.01,-210.03 429.7,-199.67 425.02,-188 409.23,-148.61 419.61,-96.04 424.69,-75.62"/>
<polygon fill="midnightblue" stroke="midnightblue" points="445.6,-220.6 455.53,-224.3 450.08,-215.22 445.6,-220.6"/>
</g>
<!-- Node21&#45;&gt;Node17 -->
<g id="edge30" class="edge">
<title>Node21&#45;&gt;Node17</title>
<path fill="none" stroke="midnightblue" d="M492.86,-219.45C511.14,-209.48 535.44,-196.23 551.16,-187.65"/>
<polygon fill="midnightblue" stroke="midnightblue" points="491.03,-216.46 483.93,-224.32 494.38,-222.61 491.03,-216.46"/>
</g>
<!-- Node22 -->
<g id="node22" class="node">
<title>Node22</title>
<g id="a_node22"><a xlink:href="Ply_8cpp.html" target="_top" xlink:title=" ">
<polygon fill="white" stroke="black" points="434.02,-168.5 434.02,-187.5 502.02,-187.5 502.02,-168.5 434.02,-168.5"/>
<text text-anchor="middle" x="468.02" y="-175.5" font-family="Helvetica,sans-Serif" font-size="10.00">src/Ply.cpp</text>
</a>
</g>
</g>
<!-- Node21&#45;&gt;Node22 -->
<g id="edge32" class="edge">
<title>Node21&#45;&gt;Node22</title>
<path fill="none" stroke="midnightblue" d="M468.02,-213.8C468.02,-204.91 468.02,-194.78 468.02,-187.75"/>
<polygon fill="midnightblue" stroke="midnightblue" points="464.52,-214.08 468.02,-224.08 471.52,-214.08 464.52,-214.08"/>
</g>
</g>
</svg>
