<?xml version="1.0" encoding="UTF-8" standalone="no"?>
<!DOCTYPE svg PUBLIC "-//W3C//DTD SVG 1.1//EN"
 "http://www.w3.org/Graphics/SVG/1.1/DTD/svg11.dtd">
<!-- Generated by graphviz version 2.43.0 (0)
 -->
<!-- Title: include/Vertex.h Pages: 1 -->
<!--zoomable 476 -->
<svg id="main" version="1.1" xmlns="http://www.w3.org/2000/svg" xmlns:xlink="http://www.w3.org/1999/xlink" xml:space="preserve" onload="init(evt)">
<style type="text/css"><![CDATA[
.edge:hover path { stroke: red; }
.edge:hover polygon { stroke: red; fill: red; }
]]></style>
<script type="text/javascript"><![CDATA[
var edges = document.getElementsByTagName('g');
if (edges && edges.length) {
  for (var i=0;i<edges.length;i++) {
    if (edges[i].id.substr(0,4)=='edge') {
      edges[i].setAttribute('class','edge');
    }
  }
}
]]></script>
        <defs>
                <circle id="rim" cx="0" cy="0" r="7"/>
                <circle id="rim2" cx="0" cy="0" r="3.5"/>
                <g id="zoomPlus">
                        <use xlink:href="#rim" fill="#404040">
                                <set attributeName="fill" to="#808080" begin="zoomplus.mouseover" end="zoomplus.mouseout"/>
                        </use>
                        <path d="M-4,0h8M0,-4v8" fill="none" stroke="white" stroke-width="1.5" pointer-events="none"/>
                </g>
                <g id="zoomMin">
                        <use xlink:href="#rim" fill="#404040">
                                <set attributeName="fill" to="#808080" begin="zoomminus.mouseover" end="zoomminus.mouseout"/>
                        </use>
                        <path d="M-4,0h8" fill="none" stroke="white" stroke-width="1.5" pointer-events="none"/>
                </g>
                <g id="dirArrow">
                        <path fill="none" stroke="white" stroke-width="1.5" d="M0,-3.0v7 M-2.5,-0.5L0,-3.0L2.5,-0.5"/>
                </g>
               <g id="resetDef">
                       <use xlink:href="#rim2" fill="#404040">
                               <set attributeName="fill" to="#808080" begin="reset.mouseover" end="reset.mouseout"/>
                       </use>
               </g>
        </defs>

<script type="text/javascript">
var viewWidth = 792;
var viewHeight = 476;
var sectionId = 'dynsection-1';
</script>
<script xlink:href="svgpan.js"/>
<svg id="graph" class="graph">
<g id="viewport">
<title>include/Vertex.h</title>
<polygon fill="white" stroke="transparent" points="-4,4 -4,-472 788,-472 788,4 -4,4"/>
<!-- Node1 -->
<g id="node1" class="node">
<title>Node1</title>
<g id="a_node1"><a xlink:title=" ">
<polygon fill="#bfbfbf" stroke="black" points="299.5,-448.5 299.5,-467.5 394.5,-467.5 394.5,-448.5 299.5,-448.5"/>
<text text-anchor="middle" x="347" y="-455.5" font-family="Helvetica,sans-Serif" font-size="10.00">include/Vertex.h</text>
</a>
</g>
</g>
<!-- Node2 -->
<g id="node2" class="node">
<title>Node2</title>
<g id="a_node2"><a xlink:href="Animation_8h.html" target="_top" xlink:title=" ">
<polygon fill="white" stroke="black" points="149,-168.5 149,-187.5 263,-187.5 263,-168.5 149,-168.5"/>
<text text-anchor="middle" x="206" y="-175.5" font-family="Helvetica,sans-Serif" font-size="10.00">include/Animation.h</text>
</a>
</g>
</g>
<!-- Node1&#45;&gt;Node2 -->
<g id="edge1" class="edge">
<title>Node1&#45;&gt;Node2</title>
<path fill="none" stroke="midnightblue" d="M317.07,-444.14C282.99,-427.25 232,-394.1 232,-347 232,-347 232,-347 232,-289 232,-250.34 216.6,-206.04 209.51,-187.68"/>
<polygon fill="midnightblue" stroke="midnightblue" points="315.64,-447.34 326.17,-448.47 318.65,-441.02 315.64,-447.34"/>
</g>
<!-- Node4 -->
<g id="node4" class="node">
<title>Node4</title>
<g id="a_node4"><a xlink:href="Simulation_8h.html" target="_top" xlink:title=" ">
<polygon fill="white" stroke="black" points="362,-56.5 362,-75.5 478,-75.5 478,-56.5 362,-56.5"/>
<text text-anchor="middle" x="420" y="-63.5" font-family="Helvetica,sans-Serif" font-size="10.00">include/Simulation.h</text>
</a>
</g>
</g>
<!-- Node1&#45;&gt;Node4 -->
<g id="edge34" class="edge">
<title>Node1&#45;&gt;Node4</title>
<path fill="none" stroke="midnightblue" d="M333.56,-440.16C318.45,-419.49 296,-382.76 296,-347 296,-347 296,-347 296,-233 296,-202.9 297.99,-192.83 315,-168 329.87,-146.29 342.71,-149.9 362,-132 381.96,-113.48 402.52,-88.87 412.98,-75.89"/>
<polygon fill="midnightblue" stroke="midnightblue" points="330.86,-442.39 339.69,-448.23 336.43,-438.15 330.86,-442.39"/>
</g>
<!-- Node11 -->
<g id="node11" class="node">
<title>Node11</title>
<g id="a_node11"><a xlink:href="Edge_8h.html" target="_top" xlink:title=" ">
<polygon fill="white" stroke="black" points="375,-392.5 375,-411.5 463,-411.5 463,-392.5 375,-392.5"/>
<text text-anchor="middle" x="419" y="-399.5" font-family="Helvetica,sans-Serif" font-size="10.00">include/Edge.h</text>
</a>
</g>
</g>
<!-- Node1&#45;&gt;Node11 -->
<g id="edge12" class="edge">
<title>Node1&#45;&gt;Node11</title>
<path fill="none" stroke="midnightblue" d="M366.87,-442.1C379.82,-432.38 396.3,-420.03 407.22,-411.83"/>
<polygon fill="midnightblue" stroke="midnightblue" points="364.47,-439.52 358.57,-448.32 368.67,-445.12 364.47,-439.52"/>
</g>
<!-- Node13 -->
<g id="node13" class="node">
<title>Node13</title>
<g id="a_node13"><a xlink:href="Object_8h.html" target="_top" xlink:title=" ">
<polygon fill="white" stroke="black" points="361.5,-280.5 361.5,-299.5 456.5,-299.5 456.5,-280.5 361.5,-280.5"/>
<text text-anchor="middle" x="409" y="-287.5" font-family="Helvetica,sans-Serif" font-size="10.00">include/Object.h</text>
</a>
</g>
</g>
<!-- Node1&#45;&gt;Node13 -->
<g id="edge33" class="edge">
<title>Node1&#45;&gt;Node13</title>
<path fill="none" stroke="midnightblue" d="M351.71,-438.78C355.25,-425.65 360.43,-407.57 366,-392 378.51,-357.01 396.91,-316.72 404.97,-299.51"/>
<polygon fill="midnightblue" stroke="midnightblue" points="348.31,-437.92 349.15,-448.48 355.08,-439.71 348.31,-437.92"/>
</g>
<!-- Node24 -->
<g id="node24" class="node">
<title>Node24</title>
<g id="a_node24"><a xlink:href="Vertex_8cpp.html" target="_top" xlink:title=" ">
<polygon fill="white" stroke="black" points="481,-392.5 481,-411.5 567,-411.5 567,-392.5 481,-392.5"/>
<text text-anchor="middle" x="524" y="-399.5" font-family="Helvetica,sans-Serif" font-size="10.00">src/Vertex.cpp</text>
</a>
</g>
</g>
<!-- Node1&#45;&gt;Node24 -->
<g id="edge35" class="edge">
<title>Node1&#45;&gt;Node24</title>
<path fill="none" stroke="midnightblue" d="M384.9,-445.44C418.28,-435.26 466.1,-420.66 496.09,-411.52"/>
<polygon fill="midnightblue" stroke="midnightblue" points="383.59,-442.18 375.05,-448.44 385.63,-448.87 383.59,-442.18"/>
</g>
<!-- Node3 -->
<g id="node3" class="node">
<title>Node3</title>
<g id="a_node3"><a xlink:href="Ball_8h.html" target="_top" xlink:title=" ">
<polygon fill="white" stroke="black" points="270.5,-112.5 270.5,-131.5 353.5,-131.5 353.5,-112.5 270.5,-112.5"/>
<text text-anchor="middle" x="312" y="-119.5" font-family="Helvetica,sans-Serif" font-size="10.00">include/Ball.h</text>
</a>
</g>
</g>
<!-- Node2&#45;&gt;Node3 -->
<g id="edge2" class="edge">
<title>Node2&#45;&gt;Node3</title>
<path fill="none" stroke="midnightblue" d="M232.06,-163.73C251.68,-153.73 278.03,-140.31 295.01,-131.65"/>
<polygon fill="midnightblue" stroke="midnightblue" points="230.35,-160.67 223.03,-168.32 233.53,-166.9 230.35,-160.67"/>
</g>
<!-- Node2&#45;&gt;Node4 -->
<g id="edge10" class="edge">
<title>Node2&#45;&gt;Node4</title>
<path fill="none" stroke="midnightblue" d="M180.81,-163.21C159.97,-150.05 136.04,-129.67 151,-112 157.8,-103.97 284.84,-85.4 361.87,-74.79"/>
<polygon fill="midnightblue" stroke="midnightblue" points="179.05,-166.23 189.43,-168.38 182.65,-160.23 179.05,-166.23"/>
</g>
<!-- Node8 -->
<g id="node8" class="node">
<title>Node8</title>
<g id="a_node8"><a xlink:href="Robot_8h.html" target="_top" xlink:title=" ">
<polygon fill="white" stroke="black" points="160,-112.5 160,-131.5 252,-131.5 252,-112.5 160,-112.5"/>
<text text-anchor="middle" x="206" y="-119.5" font-family="Helvetica,sans-Serif" font-size="10.00">include/Robot.h</text>
</a>
</g>
</g>
<!-- Node2&#45;&gt;Node8 -->
<g id="edge7" class="edge">
<title>Node2&#45;&gt;Node8</title>
<path fill="none" stroke="midnightblue" d="M206,-157.8C206,-148.91 206,-138.78 206,-131.75"/>
<polygon fill="midnightblue" stroke="midnightblue" points="202.5,-158.08 206,-168.08 209.5,-158.08 202.5,-158.08"/>
</g>
<!-- Node10 -->
<g id="node10" class="node">
<title>Node10</title>
<g id="a_node10"><a xlink:href="Animation_8cpp.html" target="_top" xlink:title=" ">
<polygon fill="white" stroke="black" points="0,-112.5 0,-131.5 104,-131.5 104,-112.5 0,-112.5"/>
<text text-anchor="middle" x="52" y="-119.5" font-family="Helvetica,sans-Serif" font-size="10.00">src/Animation.cpp</text>
</a>
</g>
</g>
<!-- Node2&#45;&gt;Node10 -->
<g id="edge11" class="edge">
<title>Node2&#45;&gt;Node10</title>
<path fill="none" stroke="midnightblue" d="M171.89,-165.04C142.91,-154.88 102.04,-140.55 76.29,-131.52"/>
<polygon fill="midnightblue" stroke="midnightblue" points="171,-168.44 181.6,-168.44 173.32,-161.83 171,-168.44"/>
</g>
<!-- Node3&#45;&gt;Node4 -->
<g id="edge3" class="edge">
<title>Node3&#45;&gt;Node4</title>
<path fill="none" stroke="midnightblue" d="M338.55,-107.73C358.55,-97.73 385.39,-84.31 402.69,-75.65"/>
<polygon fill="midnightblue" stroke="midnightblue" points="336.73,-104.72 329.35,-112.32 339.86,-110.98 336.73,-104.72"/>
</g>
<!-- Node7 -->
<g id="node7" class="node">
<title>Node7</title>
<g id="a_node7"><a xlink:href="Ball_8cpp.html" target="_top" xlink:title=" ">
<polygon fill="white" stroke="black" points="270.5,-56.5 270.5,-75.5 343.5,-75.5 343.5,-56.5 270.5,-56.5"/>
<text text-anchor="middle" x="307" y="-63.5" font-family="Helvetica,sans-Serif" font-size="10.00">src/Ball.cpp</text>
</a>
</g>
</g>
<!-- Node3&#45;&gt;Node7 -->
<g id="edge6" class="edge">
<title>Node3&#45;&gt;Node7</title>
<path fill="none" stroke="midnightblue" d="M310.25,-102.1C309.42,-93.14 308.47,-82.86 307.81,-75.75"/>
<polygon fill="midnightblue" stroke="midnightblue" points="306.77,-102.45 311.17,-112.08 313.74,-101.8 306.77,-102.45"/>
</g>
<!-- Node5 -->
<g id="node5" class="node">
<title>Node5</title>
<g id="a_node5"><a xlink:href="main_8cpp.html" target="_top" xlink:title=" ">
<polygon fill="white" stroke="black" points="337,-0.5 337,-19.5 399,-19.5 399,-0.5 337,-0.5"/>
<text text-anchor="middle" x="368" y="-7.5" font-family="Helvetica,sans-Serif" font-size="10.00">main.cpp</text>
</a>
</g>
</g>
<!-- Node4&#45;&gt;Node5 -->
<g id="edge4" class="edge">
<title>Node4&#45;&gt;Node5</title>
<path fill="none" stroke="midnightblue" d="M404.32,-48.72C395.16,-39.2 383.95,-27.56 376.43,-19.75"/>
<polygon fill="midnightblue" stroke="midnightblue" points="401.96,-51.31 411.41,-56.08 407,-46.45 401.96,-51.31"/>
</g>
<!-- Node6 -->
<g id="node6" class="node">
<title>Node6</title>
<g id="a_node6"><a xlink:href="Simulation_8cpp.html" target="_top" xlink:title=" ">
<polygon fill="white" stroke="black" points="417.5,-0.5 417.5,-19.5 524.5,-19.5 524.5,-0.5 417.5,-0.5"/>
<text text-anchor="middle" x="471" y="-7.5" font-family="Helvetica,sans-Serif" font-size="10.00">src/Simulation.cpp</text>
</a>
</g>
</g>
<!-- Node4&#45;&gt;Node6 -->
<g id="edge5" class="edge">
<title>Node4&#45;&gt;Node6</title>
<path fill="none" stroke="midnightblue" d="M435.38,-48.72C444.37,-39.2 455.36,-27.56 462.74,-19.75"/>
<polygon fill="midnightblue" stroke="midnightblue" points="432.74,-46.41 428.42,-56.08 437.83,-51.22 432.74,-46.41"/>
</g>
<!-- Node8&#45;&gt;Node4 -->
<g id="edge8" class="edge">
<title>Node8&#45;&gt;Node4</title>
<path fill="none" stroke="midnightblue" d="M249.76,-109.96C290.17,-99.76 349.37,-84.82 386.25,-75.52"/>
<polygon fill="midnightblue" stroke="midnightblue" points="248.75,-106.6 239.91,-112.44 250.46,-113.39 248.75,-106.6"/>
</g>
<!-- Node9 -->
<g id="node9" class="node">
<title>Node9</title>
<g id="a_node9"><a xlink:href="Robot_8cpp.html" target="_top" xlink:title=" ">
<polygon fill="white" stroke="black" points="164.5,-56.5 164.5,-75.5 247.5,-75.5 247.5,-56.5 164.5,-56.5"/>
<text text-anchor="middle" x="206" y="-63.5" font-family="Helvetica,sans-Serif" font-size="10.00">src/Robot.cpp</text>
</a>
</g>
</g>
<!-- Node8&#45;&gt;Node9 -->
<g id="edge9" class="edge">
<title>Node8&#45;&gt;Node9</title>
<path fill="none" stroke="midnightblue" d="M206,-101.8C206,-92.91 206,-82.78 206,-75.75"/>
<polygon fill="midnightblue" stroke="midnightblue" points="202.5,-102.08 206,-112.08 209.5,-102.08 202.5,-102.08"/>
</g>
<!-- Node12 -->
<g id="node12" class="node">
<title>Node12</title>
<g id="a_node12"><a xlink:href="Face_8h.html" target="_top" xlink:title=" ">
<polygon fill="white" stroke="black" points="419,-336.5 419,-355.5 505,-355.5 505,-336.5 419,-336.5"/>
<text text-anchor="middle" x="462" y="-343.5" font-family="Helvetica,sans-Serif" font-size="10.00">include/Face.h</text>
</a>
</g>
</g>
<!-- Node11&#45;&gt;Node12 -->
<g id="edge13" class="edge">
<title>Node11&#45;&gt;Node12</title>
<path fill="none" stroke="midnightblue" d="M432.42,-384.14C439.91,-374.74 448.94,-363.4 455.03,-355.75"/>
<polygon fill="midnightblue" stroke="midnightblue" points="429.59,-382.08 426.1,-392.08 435.07,-386.44 429.59,-382.08"/>
</g>
<!-- Node11&#45;&gt;Node13 -->
<g id="edge31" class="edge">
<title>Node11&#45;&gt;Node13</title>
<path fill="none" stroke="midnightblue" d="M414.53,-382.59C412.77,-374.49 410.94,-364.82 410,-356 407.87,-336.02 408.22,-312.4 408.63,-299.86"/>
<polygon fill="midnightblue" stroke="midnightblue" points="411.15,-383.49 416.81,-392.45 417.97,-381.91 411.15,-383.49"/>
</g>
<!-- Node23 -->
<g id="node23" class="node">
<title>Node23</title>
<g id="a_node23"><a xlink:href="Edge_8cpp.html" target="_top" xlink:title=" ">
<polygon fill="white" stroke="black" points="523,-336.5 523,-355.5 601,-355.5 601,-336.5 523,-336.5"/>
<text text-anchor="middle" x="562" y="-343.5" font-family="Helvetica,sans-Serif" font-size="10.00">src/Edge.cpp</text>
</a>
</g>
</g>
<!-- Node11&#45;&gt;Node23 -->
<g id="edge32" class="edge">
<title>Node11&#45;&gt;Node23</title>
<path fill="none" stroke="midnightblue" d="M451.03,-388.91C477.91,-378.75 515.64,-364.51 539.45,-355.52"/>
<polygon fill="midnightblue" stroke="midnightblue" points="449.78,-385.64 441.66,-392.44 452.25,-392.19 449.78,-385.64"/>
</g>
<!-- Node12&#45;&gt;Node13 -->
<g id="edge14" class="edge">
<title>Node12&#45;&gt;Node13</title>
<path fill="none" stroke="midnightblue" d="M446.02,-328.72C436.68,-319.2 425.25,-307.56 417.59,-299.75"/>
<polygon fill="midnightblue" stroke="midnightblue" points="443.75,-331.4 453.25,-336.08 448.74,-326.49 443.75,-331.4"/>
</g>
<!-- Node22 -->
<g id="node22" class="node">
<title>Node22</title>
<g id="a_node22"><a xlink:href="Face_8cpp.html" target="_top" xlink:title=" ">
<polygon fill="white" stroke="black" points="475,-280.5 475,-299.5 551,-299.5 551,-280.5 475,-280.5"/>
<text text-anchor="middle" x="513" y="-287.5" font-family="Helvetica,sans-Serif" font-size="10.00">src/Face.cpp</text>
</a>
</g>
</g>
<!-- Node12&#45;&gt;Node22 -->
<g id="edge30" class="edge">
<title>Node12&#45;&gt;Node22</title>
<path fill="none" stroke="midnightblue" d="M477.38,-328.72C486.37,-319.2 497.36,-307.56 504.74,-299.75"/>
<polygon fill="midnightblue" stroke="midnightblue" points="474.74,-326.41 470.42,-336.08 479.83,-331.22 474.74,-326.41"/>
</g>
<!-- Node14 -->
<g id="node14" class="node">
<title>Node14</title>
<g id="a_node14"><a xlink:href="Obj_8h.html" target="_top" xlink:title=" ">
<polygon fill="white" stroke="black" points="466,-224.5 466,-243.5 546,-243.5 546,-224.5 466,-224.5"/>
<text text-anchor="middle" x="506" y="-231.5" font-family="Helvetica,sans-Serif" font-size="10.00">include/Obj.h</text>
</a>
</g>
</g>
<!-- Node13&#45;&gt;Node14 -->
<g id="edge15" class="edge">
<title>Node13&#45;&gt;Node14</title>
<path fill="none" stroke="midnightblue" d="M433.34,-275.45C451.24,-265.48 475.05,-252.23 490.45,-243.65"/>
<polygon fill="midnightblue" stroke="midnightblue" points="431.62,-272.4 424.58,-280.32 435.02,-278.52 431.62,-272.4"/>
</g>
<!-- Node19 -->
<g id="node19" class="node">
<title>Node19</title>
<g id="a_node19"><a xlink:href="Ply_8h.html" target="_top" xlink:title=" ">
<polygon fill="white" stroke="black" points="370.5,-224.5 370.5,-243.5 447.5,-243.5 447.5,-224.5 370.5,-224.5"/>
<text text-anchor="middle" x="409" y="-231.5" font-family="Helvetica,sans-Serif" font-size="10.00">include/Ply.h</text>
</a>
</g>
</g>
<!-- Node13&#45;&gt;Node19 -->
<g id="edge25" class="edge">
<title>Node13&#45;&gt;Node19</title>
<path fill="none" stroke="midnightblue" d="M409,-269.8C409,-260.91 409,-250.78 409,-243.75"/>
<polygon fill="midnightblue" stroke="midnightblue" points="405.5,-270.08 409,-280.08 412.5,-270.08 405.5,-270.08"/>
</g>
<!-- Node21 -->
<g id="node21" class="node">
<title>Node21</title>
<g id="a_node21"><a xlink:href="Object_8cpp.html" target="_top" xlink:title=" ">
<polygon fill="white" stroke="black" points="564,-224.5 564,-243.5 650,-243.5 650,-224.5 564,-224.5"/>
<text text-anchor="middle" x="607" y="-231.5" font-family="Helvetica,sans-Serif" font-size="10.00">src/Object.cpp</text>
</a>
</g>
</g>
<!-- Node13&#45;&gt;Node21 -->
<g id="edge29" class="edge">
<title>Node13&#45;&gt;Node21</title>
<path fill="none" stroke="midnightblue" d="M450.44,-277.7C487.81,-267.51 541.94,-252.74 575.77,-243.52"/>
<polygon fill="midnightblue" stroke="midnightblue" points="449.1,-274.44 440.37,-280.44 450.94,-281.19 449.1,-274.44"/>
</g>
<!-- Node14&#45;&gt;Node4 -->
<g id="edge23" class="edge">
<title>Node14&#45;&gt;Node4</title>
<path fill="none" stroke="midnightblue" d="M556.05,-222.72C590.08,-214.59 630.71,-202.27 641,-188 646.2,-180.79 645.8,-175.48 641,-168 605.09,-112.1 529.71,-86.75 477.03,-75.52"/>
<polygon fill="midnightblue" stroke="midnightblue" points="555.16,-219.33 546.21,-225 556.74,-226.15 555.16,-219.33"/>
</g>
<!-- Node15 -->
<g id="node15" class="node">
<title>Node15</title>
<g id="a_node15"><a xlink:href="Model_8h.html" target="_top" xlink:title=" ">
<polygon fill="white" stroke="black" points="448,-168.5 448,-187.5 542,-187.5 542,-168.5 448,-168.5"/>
<text text-anchor="middle" x="495" y="-175.5" font-family="Helvetica,sans-Serif" font-size="10.00">include/Model.h</text>
</a>
</g>
</g>
<!-- Node14&#45;&gt;Node15 -->
<g id="edge16" class="edge">
<title>Node14&#45;&gt;Node15</title>
<path fill="none" stroke="midnightblue" d="M502.15,-214.1C500.32,-205.14 498.23,-194.86 496.78,-187.75"/>
<polygon fill="midnightblue" stroke="midnightblue" points="498.76,-214.98 504.18,-224.08 505.62,-213.59 498.76,-214.98"/>
</g>
<!-- Node18 -->
<g id="node18" class="node">
<title>Node18</title>
<g id="a_node18"><a xlink:href="Obj_8cpp.html" target="_top" xlink:title=" ">
<polygon fill="white" stroke="black" points="560.5,-168.5 560.5,-187.5 631.5,-187.5 631.5,-168.5 560.5,-168.5"/>
<text text-anchor="middle" x="596" y="-175.5" font-family="Helvetica,sans-Serif" font-size="10.00">src/Obj.cpp</text>
</a>
</g>
</g>
<!-- Node14&#45;&gt;Node18 -->
<g id="edge24" class="edge">
<title>Node14&#45;&gt;Node18</title>
<path fill="none" stroke="midnightblue" d="M529.04,-219.18C545.6,-209.24 567.42,-196.15 581.58,-187.65"/>
<polygon fill="midnightblue" stroke="midnightblue" points="527.23,-216.18 520.46,-224.32 530.84,-222.18 527.23,-216.18"/>
</g>
<!-- Node15&#45;&gt;Node3 -->
<g id="edge17" class="edge">
<title>Node15&#45;&gt;Node3</title>
<path fill="none" stroke="midnightblue" d="M456.26,-165.57C421.74,-155.38 371.99,-140.7 340.86,-131.52"/>
<polygon fill="midnightblue" stroke="midnightblue" points="455.42,-168.97 466,-168.44 457.4,-162.26 455.42,-168.97"/>
</g>
<!-- Node15&#45;&gt;Node4 -->
<g id="edge22" class="edge">
<title>Node15&#45;&gt;Node4</title>
<path fill="none" stroke="midnightblue" d="M483.38,-159.96C467.13,-136.12 438.21,-93.71 425.86,-75.59"/>
<polygon fill="midnightblue" stroke="midnightblue" points="480.59,-162.08 489.11,-168.37 486.37,-158.13 480.59,-162.08"/>
</g>
<!-- Node15&#45;&gt;Node8 -->
<g id="edge21" class="edge">
<title>Node15&#45;&gt;Node8</title>
<path fill="none" stroke="midnightblue" d="M439.34,-166.6C384.73,-156.4 302.43,-141.02 251.58,-131.52"/>
<polygon fill="midnightblue" stroke="midnightblue" points="438.73,-170.05 449.21,-168.44 440.02,-163.17 438.73,-170.05"/>
</g>
<!-- Node16 -->
<g id="node16" class="node">
<title>Node16</title>
<g id="a_node16"><a xlink:href="Enemy_8h.html" target="_top" xlink:title=" ">
<polygon fill="white" stroke="black" points="688,-112.5 688,-131.5 784,-131.5 784,-112.5 688,-112.5"/>
<text text-anchor="middle" x="736" y="-119.5" font-family="Helvetica,sans-Serif" font-size="10.00">include/Enemy.h</text>
</a>
</g>
</g>
<!-- Node15&#45;&gt;Node16 -->
<g id="edge18" class="edge">
<title>Node15&#45;&gt;Node16</title>
<path fill="none" stroke="midnightblue" d="M543.12,-166.22C588.66,-156.01 656.11,-140.9 697.99,-131.52"/>
<polygon fill="midnightblue" stroke="midnightblue" points="542.18,-162.84 533.19,-168.44 543.71,-169.67 542.18,-162.84"/>
</g>
<!-- Node16&#45;&gt;Node4 -->
<g id="edge19" class="edge">
<title>Node16&#45;&gt;Node4</title>
<path fill="none" stroke="midnightblue" d="M677.64,-111.03C617.98,-100.83 526.29,-85.16 469.9,-75.53"/>
<polygon fill="midnightblue" stroke="midnightblue" points="677.22,-114.51 687.66,-112.74 678.39,-107.61 677.22,-114.51"/>
</g>
<!-- Node17 -->
<g id="node17" class="node">
<title>Node17</title>
<g id="a_node17"><a xlink:href="Enemy_8cpp.html" target="_top" xlink:title=" ">
<polygon fill="white" stroke="black" points="693,-56.5 693,-75.5 779,-75.5 779,-56.5 693,-56.5"/>
<text text-anchor="middle" x="736" y="-63.5" font-family="Helvetica,sans-Serif" font-size="10.00">src/Enemy.cpp</text>
</a>
</g>
</g>
<!-- Node16&#45;&gt;Node17 -->
<g id="edge20" class="edge">
<title>Node16&#45;&gt;Node17</title>
<path fill="none" stroke="midnightblue" d="M736,-101.8C736,-92.91 736,-82.78 736,-75.75"/>
<polygon fill="midnightblue" stroke="midnightblue" points="732.5,-102.08 736,-112.08 739.5,-102.08 732.5,-102.08"/>
</g>
<!-- Node19&#45;&gt;Node4 -->
<g id="edge27" class="edge">
<title>Node19&#45;&gt;Node4</title>
<path fill="none" stroke="midnightblue" d="M410.26,-213.93C412.65,-177.92 417.73,-101.23 419.43,-75.57"/>
<polygon fill="midnightblue" stroke="midnightblue" points="406.76,-213.87 409.59,-224.08 413.75,-214.33 406.76,-213.87"/>
</g>
<!-- Node19&#45;&gt;Node15 -->
<g id="edge26" class="edge">
<title>Node19&#45;&gt;Node15</title>
<path fill="none" stroke="midnightblue" d="M431.45,-218.9C447.22,-209 467.81,-196.07 481.22,-187.65"/>
<polygon fill="midnightblue" stroke="midnightblue" points="429.43,-216.04 422.82,-224.32 433.15,-221.97 429.43,-216.04"/>
</g>
<!-- Node20 -->
<g id="node20" class="node">
<title>Node20</title>
<g id="a_node20"><a xlink:href="Ply_8cpp.html" target="_top" xlink:title=" ">
<polygon fill="white" stroke="black" points="324,-168.5 324,-187.5 392,-187.5 392,-168.5 324,-168.5"/>
<text text-anchor="middle" x="358" y="-175.5" font-family="Helvetica,sans-Serif" font-size="10.00">src/Ply.cpp</text>
</a>
</g>
</g>
<!-- Node19&#45;&gt;Node20 -->
<g id="edge28" class="edge">
<title>Node19&#45;&gt;Node20</title>
<path fill="none" stroke="midnightblue" d="M393.62,-216.72C384.63,-207.2 373.64,-195.56 366.26,-187.75"/>
<polygon fill="midnightblue" stroke="midnightblue" points="391.17,-219.22 400.58,-224.08 396.26,-214.41 391.17,-219.22"/>
</g>
</g>
</svg>
        <g id="navigator" transform="translate(0 0)" fill="#404254">
                <rect fill="#f2f5e9" fill-opacity="0.5" stroke="#606060" stroke-width=".5" x="0" y="0" width="60" height="60"/>
                <use id="zoomplus" xlink:href="#zoomPlus" x="17" y="9" onmousedown="handleZoom(evt,'in')"/>
                <use id="zoomminus" xlink:href="#zoomMin" x="42" y="9" onmousedown="handleZoom(evt,'out')"/>
                <use id="reset" xlink:href="#resetDef" x="30" y="36" onmousedown="handleReset()"/>
                <g id="arrowUp" xlink:href="#dirArrow" transform="translate(30 24)" onmousedown="handlePan(0,-1)">
                  <use xlink:href="#rim" fill="#404040">
                        <set attributeName="fill" to="#808080" begin="arrowUp.mouseover" end="arrowUp.mouseout"/>
                  </use>
                  <path fill="none" stroke="white" stroke-width="1.5" d="M0,-3.0v7 M-2.5,-0.5L0,-3.0L2.5,-0.5"/>
                </g>
                <g id="arrowRight" xlink:href="#dirArrow" transform="rotate(90) translate(36 -43)" onmousedown="handlePan(1,0)">
                  <use xlink:href="#rim" fill="#404040">
                        <set attributeName="fill" to="#808080" begin="arrowRight.mouseover" end="arrowRight.mouseout"/>
                  </use>
                  <path fill="none" stroke="white" stroke-width="1.5" d="M0,-3.0v7 M-2.5,-0.5L0,-3.0L2.5,-0.5"/>
                </g>
                <g id="arrowDown" xlink:href="#dirArrow" transform="rotate(180) translate(-30 -48)" onmousedown="handlePan(0,1)">
                  <use xlink:href="#rim" fill="#404040">
                        <set attributeName="fill" to="#808080" begin="arrowDown.mouseover" end="arrowDown.mouseout"/>
                  </use>
                  <path fill="none" stroke="white" stroke-width="1.5" d="M0,-3.0v7 M-2.5,-0.5L0,-3.0L2.5,-0.5"/>
                </g>
                <g id="arrowLeft" xlink:href="#dirArrow" transform="rotate(270) translate(-36 17)" onmousedown="handlePan(-1,0)">
                  <use xlink:href="#rim" fill="#404040">
                        <set attributeName="fill" to="#808080" begin="arrowLeft.mouseover" end="arrowLeft.mouseout"/>
                  </use>
                  <path fill="none" stroke="white" stroke-width="1.5" d="M0,-3.0v7 M-2.5,-0.5L0,-3.0L2.5,-0.5"/>
                </g>
        </g>
        <svg viewBox="0 0 15 15" width="100%" height="30px" preserveAspectRatio="xMaxYMin meet">
         <g id="arrow_out" transform="scale(0.3 0.3)">
          <a xlink:href="Vertex_8h__dep__incl_org.svg" target="_base">
           <rect id="button" ry="5" rx="5" y="6" x="6" height="38" width="38"
                fill="#f2f5e9" fill-opacity="0.5" stroke="#606060" stroke-width="1.0"/>
           <path id="arrow"
             d="M 11.500037,31.436501 C 11.940474,20.09759 22.043105,11.32322 32.158766,21.979434 L 37.068811,17.246167 C 37.068811,17.246167 37.088388,32 37.088388,32 L 22.160133,31.978069 C 22.160133,31.978069 26.997745,27.140456 26.997745,27.140456 C 18.528582,18.264221 13.291696,25.230495 11.500037,31.436501 z"
             style="fill:#404040;"/>
          </a>
         </g>
        </svg>
</svg>
